<svg width="19" height="18" viewBox="0 0 19 18" fill="none" xmlns="http://www.w3.org/2000/svg">
<path d="M17.75 16.5H4.25C3.65326 16.5 3.08097 16.2629 2.65901 15.841C2.23705 15.419 2 14.8467 2 14.25V0.75C2 0.551088 1.92098 0.360322 1.78033 0.21967C1.63968 0.0790176 1.44891 0 1.25 0C1.05109 0 0.860322 0.0790176 0.71967 0.21967C0.579018 0.360322 0.5 0.551088 0.5 0.75L0.5 14.25C0.501191 15.2442 0.896661 16.1973 1.59966 16.9003C2.30267 17.6033 3.2558 17.9988 4.25 18H17.75C17.9489 18 18.1397 17.921 18.2803 17.7803C18.421 17.6397 18.5 17.4489 18.5 17.25C18.5 17.0511 18.421 16.8603 18.2803 16.7197C18.1397 16.579 17.9489 16.5 17.75 16.5Z" fill="#30313D"/>
<path d="M4.99707 14.9985C5.19598 14.9985 5.38675 14.9195 5.5274 14.7789C5.66805 14.6382 5.74707 14.4474 5.74707 14.2485V8.99854C5.74707 8.79962 5.66805 8.60886 5.5274 8.46821C5.38675 8.32755 5.19598 8.24854 4.99707 8.24854C4.79816 8.24854 4.60739 8.32755 4.46674 8.46821C4.32609 8.60886 4.24707 8.79962 4.24707 8.99854V14.2485C4.24707 14.4474 4.32609 14.6382 4.46674 14.7789C4.60739 14.9195 4.79816 14.9985 4.99707 14.9985Z" fill="#30313D"/>
<path d="M8.00293 7.5V14.25C8.00293 14.4489 8.08195 14.6397 8.2226 14.7803C8.36325 14.921 8.55402 15 8.75293 15C8.95184 15 9.14261 14.921 9.28326 14.7803C9.42391 14.6397 9.50293 14.4489 9.50293 14.25V7.5C9.50293 7.30109 9.42391 7.11032 9.28326 6.96967C9.14261 6.82902 8.95184 6.75 8.75293 6.75C8.55402 6.75 8.36325 6.82902 8.2226 6.96967C8.08195 7.11032 8.00293 7.30109 8.00293 7.5Z" fill="#30313D"/>
<path d="M11.75 9.75V14.25C11.75 14.4489 11.829 14.6397 11.9697 14.7803C12.1103 14.921 12.3011 15 12.5 15C12.6989 15 12.8897 14.921 13.0303 14.7803C13.171 14.6397 13.25 14.4489 13.25 14.25V9.75C13.25 9.55109 13.171 9.36032 13.0303 9.21967C12.8897 9.07902 12.6989 9 12.5 9C12.3011 9 12.1103 9.07902 11.9697 9.21967C11.829 9.36032 11.75 9.55109 11.75 9.75Z" fill="#30313D"/>
<path d="M15.4971 6.74854V14.2485C15.4971 14.4474 15.5761 14.6382 15.7167 14.7789C15.8574 14.9195 16.0482 14.9985 16.2471 14.9985C16.446 14.9985 16.6367 14.9195 16.7774 14.7789C16.9181 14.6382 16.9971 14.4474 16.9971 14.2485V6.74854C16.9971 6.54962 16.9181 6.35886 16.7774 6.21821C16.6367 6.07755 16.446 5.99854 16.2471 5.99854C16.0482 5.99854 15.8574 6.07755 15.7167 6.21821C15.5761 6.35886 15.4971 6.54962 15.4971 6.74854Z" fill="#30313D"/>
<path d="M4.99691 6.75153C5.19581 6.75148 5.38654 6.67244 5.52716 6.53178L8.21666 3.84228C8.35961 3.70609 8.54948 3.63013 8.74691 3.63013C8.94434 3.63013 9.13421 3.70609 9.27716 3.84228L10.9062 5.47128C11.3281 5.89309 11.9003 6.13005 12.4969 6.13005C13.0935 6.13005 13.6657 5.89309 14.0877 5.47128L18.2772 1.28178C18.4138 1.14032 18.4894 0.950873 18.4877 0.754225C18.486 0.557578 18.4071 0.369468 18.268 0.230412C18.129 0.0913561 17.9409 0.0124794 17.7442 0.0107705C17.5476 0.00906172 17.3581 0.0846575 17.2167 0.221276L13.0272 4.41003C12.8865 4.55063 12.6958 4.62962 12.4969 4.62962C12.298 4.62962 12.1073 4.55063 11.9667 4.41003L10.3377 2.78178C9.91572 2.35997 9.34353 2.12301 8.74691 2.12301C8.15029 2.12301 7.5781 2.35997 7.15616 2.78178L4.46666 5.47128C4.3618 5.57617 4.2904 5.70979 4.26147 5.85525C4.23255 6.00072 4.2474 6.15149 4.30415 6.28852C4.3609 6.42554 4.45701 6.54267 4.58032 6.62508C4.70362 6.70749 4.8486 6.75149 4.99691 6.75153Z" fill="#30313D"/>
</svg>
