<svg width="19" height="16" viewBox="0 0 19 16" fill="none" xmlns="http://www.w3.org/2000/svg">
<path d="M10.9961 8.96878C10.9962 9.23212 10.9266 9.49081 10.7945 9.71887C10.6624 9.94693 10.4724 10.1363 10.2436 10.268C10.0148 10.3997 9.75528 10.469 9.49108 10.469C9.22688 10.469 8.96733 10.3997 8.73853 10.268C8.50972 10.1363 8.31972 9.94697 8.18761 9.71891C8.05551 9.49086 7.98597 9.23216 7.98596 8.96883C7.98596 8.70549 8.05551 8.4468 8.18761 8.21874C8.31971 7.99069 8.50971 7.80131 8.73851 7.66964V3.71821C8.73851 3.51927 8.8178 3.32849 8.95893 3.18782C9.10006 3.04715 9.29147 2.96813 9.49106 2.96813C9.69064 2.96813 9.88206 3.04715 10.0232 3.18782C10.1643 3.32849 10.2436 3.51927 10.2436 3.71821V7.66964C10.4724 7.8013 10.6624 7.99067 10.7945 8.21872C10.9266 8.44677 10.9961 8.70545 10.9961 8.96878ZM15.5114 2.25705C13.7538 0.708508 11.4606 -0.0975692 9.11726 0.0094404C6.77388 0.11645 4.56425 1.12815 2.95606 2.83039C1.34788 4.53262 0.467378 6.7918 0.500925 9.12971C0.534472 11.4676 1.47944 13.7008 3.1358 15.3565C3.54201 15.7518 4.08208 15.981 4.64949 15.9989C5.2169 16.0168 5.77044 15.8221 6.20092 15.4532L6.97304 14.7872C7.12412 14.6571 7.21717 14.4725 7.23171 14.274C7.24624 14.0755 7.18108 13.8794 7.05055 13.7288C6.92002 13.5782 6.73481 13.4855 6.53568 13.471C6.33655 13.4565 6.13979 13.5214 5.98871 13.6515L5.21584 14.3184C5.07324 14.4425 4.88892 14.5086 4.69964 14.5033C4.51036 14.498 4.33004 14.4218 4.19464 14.2899C3.13644 13.2448 2.41323 11.9102 2.11661 10.4552C1.81999 9.00011 1.9633 7.49004 2.5284 6.11623C3.09349 4.74242 4.05494 3.56668 5.29097 2.73793C6.52699 1.90918 7.98199 1.46471 9.47165 1.46082C10.9613 1.45693 12.4186 1.89379 13.659 2.71606C14.8994 3.53834 15.867 4.70904 16.4393 6.07988C17.0116 7.45072 17.1629 8.96002 16.8739 10.4166C16.5849 11.8732 15.8688 13.2115 14.8161 14.2621C14.6812 14.4031 14.4974 14.4873 14.3022 14.4977C14.1071 14.508 13.9153 14.4436 13.7663 14.3176L12.9934 13.6515C12.9186 13.5871 12.8318 13.538 12.7379 13.507C12.6441 13.4761 12.545 13.4638 12.4464 13.471C12.3478 13.4782 12.2516 13.5046 12.1633 13.5489C12.0749 13.5931 11.9962 13.6542 11.9316 13.7288C11.801 13.8794 11.7359 14.0755 11.7504 14.274C11.7576 14.3723 11.7842 14.4682 11.8285 14.5562C11.8729 14.6443 11.9343 14.7227 12.0091 14.7872L12.7819 15.4525C13.2201 15.8237 13.7826 16.0164 14.3571 15.9922C14.9316 15.9681 15.4758 15.7287 15.8809 15.322C16.7422 14.4531 17.418 13.4194 17.8675 12.2832C18.317 11.147 18.5309 9.93173 18.4964 8.71083C18.4619 7.48993 18.1796 6.28866 17.6666 5.17946C17.1535 4.07026 16.4204 3.07614 15.5114 2.25705Z" fill="#30313D"/>
</svg>
