<svg width="22" height="20" viewBox="0 0 22 20" fill="none" xmlns="http://www.w3.org/2000/svg">
<g id="Group 23177">
<path id="Vector" d="M10.8747 1.79405e-05C0.304689 -0.0172548 -4.04713 13.7909 4.61287 19.8345L4.84832 20H16.901L17.1365 19.8345C25.8001 13.7882 21.4392 -0.0181639 10.8747 1.79405e-05ZM16.3183 18.1818H5.43105C-1.51895 13.0182 2.21105 1.79638 10.8747 1.8182C19.5383 1.79638 23.2683 13.02 16.3183 18.1818ZM12.682 10.7091L17.7147 12.9182L16.9874 14.5836L11.9538 12.3746C11.6317 12.6122 11.2402 12.737 10.84 12.7295C10.4397 12.7219 10.0532 12.5825 9.74029 12.3329C9.42738 12.0833 9.2056 11.7373 9.10934 11.3488C9.01309 10.9603 9.04774 10.5508 9.20793 10.184C9.36812 9.81714 9.64489 9.51342 9.99531 9.31993C10.3457 9.12645 10.7502 9.054 11.146 9.11385C11.5418 9.17369 11.9068 9.36247 12.1843 9.6509C12.4619 9.93934 12.6374 10.3113 12.682 10.7091ZM18.1474 10.9091C18.1474 10.9791 18.1392 11.0482 18.1374 11.1182L16.2947 10.3091C16.1457 8.9753 15.5107 7.74308 14.511 6.84766C13.5112 5.95223 12.2168 5.45631 10.8747 5.45456C6.08559 5.36365 3.56741 11.53 7.06105 14.8045L5.78832 16.1045C1.13742 11.6773 4.4556 3.56001 10.8747 3.63638C12.8029 3.63854 14.6514 4.40547 16.0149 5.7689C17.3783 7.13233 18.1452 8.98092 18.1474 10.9091Z" fill="#3C3D48"/>
</g>
</svg>
