<svg width="4" height="13" viewBox="0 0 4 13" fill="none" xmlns="http://www.w3.org/2000/svg">
<g id="Glyph">
<path d="M-0.000280926 1.58705C-0.000280965 2.46356 0.710268 3.17411 1.58677 3.17411C2.46328 3.17411 3.17383 2.46356 3.17383 1.58705C3.17383 0.710548 2.46328 -3.10591e-08 1.58677 -6.93724e-08C0.710268 -1.07686e-07 -0.000280888 0.710548 -0.000280926 1.58705Z" fill="#3C3D48"/>
<path d="M-0.000281135 6.34822C-0.000281173 7.22472 0.710267 7.93527 1.58677 7.93527C2.46328 7.93527 3.17383 7.22472 3.17383 6.34822C3.17383 5.47171 2.46328 4.76116 1.58677 4.76116C0.710268 4.76116 -0.000281096 5.47171 -0.000281135 6.34822Z" fill="#3C3D48"/>
<path d="M1.58677 12.6964C0.710267 12.6964 -0.000281381 11.9859 -0.000281343 11.1094C-0.000281304 10.2329 0.710267 9.52233 1.58677 9.52233C2.46328 9.52233 3.17383 10.2329 3.17383 11.1094C3.17383 11.9859 2.46328 12.6964 1.58677 12.6964Z" fill="#3C3D48"/>
</g>
</svg>
