<svg width="15" height="14" viewBox="0 0 15 14" fill="none" xmlns="http://www.w3.org/2000/svg">
<g id="Group 24451">
<path id="Vector" d="M12.1667 0.129883H2.83333C2.21449 0.129883 1.621 0.371166 1.18342 0.800654C0.745833 1.23014 0.5 1.81265 0.5 2.42004L0.5 9.2905C0.5 9.89789 0.745833 10.4804 1.18342 10.9099C1.621 11.3394 2.21449 11.5807 2.83333 11.5807H4.525L7.12142 13.7351C7.22675 13.8226 7.36026 13.8706 7.49825 13.8706C7.63624 13.8706 7.76975 13.8226 7.87508 13.7351L10.475 11.5807H12.1667C12.7855 11.5807 13.379 11.3394 13.8166 10.9099C14.2542 10.4804 14.5 9.89789 14.5 9.2905V2.42004C14.5 1.81265 14.2542 1.23014 13.8166 0.800654C13.379 0.371166 12.7855 0.129883 12.1667 0.129883ZM13.3333 9.2905C13.3333 9.5942 13.2104 9.88545 12.9916 10.1002C12.7728 10.3149 12.4761 10.4356 12.1667 10.4356H10.475C10.1993 10.4357 9.93245 10.5316 9.72192 10.7064L7.5 12.5483L5.27925 10.7064C5.06841 10.5314 4.80115 10.4354 4.525 10.4356H2.83333C2.52391 10.4356 2.22717 10.3149 2.00838 10.1002C1.78958 9.88545 1.66667 9.5942 1.66667 9.2905V2.42004C1.66667 2.11634 1.78958 1.82509 2.00838 1.61035C2.22717 1.3956 2.52391 1.27496 2.83333 1.27496H12.1667C12.4761 1.27496 12.7728 1.3956 12.9916 1.61035C13.2104 1.82509 13.3333 2.11634 13.3333 2.42004V9.2905Z" fill="#3C3D48"/>
<path id="Vector_2" d="M4.58 4.11583H7.53858C7.69551 4.11583 7.84601 4.05586 7.95698 3.94913C8.06795 3.84239 8.13029 3.69763 8.13029 3.54668C8.13029 3.39574 8.06795 3.25097 7.95698 3.14424C7.84601 3.0375 7.69551 2.97754 7.53858 2.97754H4.58C4.42306 2.97754 4.27256 3.0375 4.16159 3.14424C4.05062 3.25097 3.98828 3.39574 3.98828 3.54668C3.98828 3.69763 4.05062 3.84239 4.16159 3.94913C4.27256 4.05586 4.42306 4.11583 4.58 4.11583Z" fill="#3C3D48"/>
<path id="Vector_3" d="M10.4429 5.25293H4.57507C4.41944 5.25293 4.27019 5.31289 4.16015 5.41963C4.0501 5.52636 3.98828 5.67113 3.98828 5.82207C3.98828 5.97302 4.0501 6.11778 4.16015 6.22452C4.27019 6.33125 4.41944 6.39122 4.57507 6.39122H10.4429C10.5985 6.39122 10.7478 6.33125 10.8578 6.22452C10.9679 6.11778 11.0297 5.97302 11.0297 5.82207C11.0297 5.67113 10.9679 5.52636 10.8578 5.41963C10.7478 5.31289 10.5985 5.25293 10.4429 5.25293Z" fill="#3C3D48"/>
<path id="Vector_4" d="M10.4429 7.6084H4.57507C4.41944 7.6084 4.27019 7.66836 4.16015 7.7751C4.0501 7.88183 3.98828 8.0266 3.98828 8.17754C3.98828 8.32849 4.0501 8.47325 4.16015 8.57999C4.27019 8.68672 4.41944 8.74668 4.57507 8.74668H10.4429C10.5985 8.74668 10.7478 8.68672 10.8578 8.57999C10.9679 8.47325 11.0297 8.32849 11.0297 8.17754C11.0297 8.0266 10.9679 7.88183 10.8578 7.7751C10.7478 7.66836 10.5985 7.6084 10.4429 7.6084Z" fill="#3C3D48"/>
</g>
</svg>
