<svg width="16" height="16" viewBox="0 0 16 16" fill="none" xmlns="http://www.w3.org/2000/svg">
<path id="Vector" d="M9.89933 8.498L6.26733 5.65467C5.718 5.22467 4.94933 5.224 4.4 5.65467L0.767333 8.49733C0.28 8.87933 0 9.454 0 10.0727V16H10.6667V10.0727C10.6667 9.45333 10.3867 8.87933 9.89933 8.498ZM9.33333 14.6667H1.33333V10.0727C1.33333 9.866 1.42667 9.67467 1.58933 9.54733L5.22133 6.70533C5.28667 6.65333 5.37867 6.654 5.44533 6.70533L9.07733 9.54867C9.24 9.67533 9.33333 9.86733 9.33333 10.0733V14.6667ZM4 10H6.66667V12.6667H4V10ZM12 8.66667H13.3333V10H12V8.66667ZM12 11.3333H13.3333V12.6667H12V11.3333ZM9.33333 3.33333H10.6667V4.66667H9.33333V3.33333ZM13.3333 4.66667H12V3.33333H13.3333V4.66667ZM9.33333 6H10.6667V7.33333H9.33333V6ZM12 6H13.3333V7.33333H12V6ZM16 2V16H12V14.6667H14.6667V2C14.6667 1.632 14.368 1.33333 14 1.33333H8.66667C8.29867 1.33333 8 1.632 8 2V5.31867L6.66667 4.27533V2C6.66667 1.98867 6.66667 1.97667 6.66733 1.96533C6.686 0.878667 7.57533 0 8.66667 0H14C15.1027 0 16 0.897333 16 2Z" fill="#3C3D48"/>
</svg>
