<svg width="16" height="14" viewBox="0 0 16 14" fill="none" xmlns="http://www.w3.org/2000/svg">
<g id="Group 26459">
<path id="Vector" d="M15.0375 5.33252C14.0354 3.70055 11.7561 0.962524 7.75567 0.962524C3.75522 0.962524 1.4759 3.70055 0.473854 5.33252C0.164084 5.83354 0 6.41096 0 7.00001C0 7.58907 0.164084 8.16648 0.473854 8.66751C1.4759 10.2995 3.75522 13.0375 7.75567 13.0375C11.7561 13.0375 14.0354 10.2995 15.0375 8.66751C15.3472 8.16648 15.5113 7.58907 15.5113 7.00001C15.5113 6.41096 15.3472 5.83354 15.0375 5.33252ZM13.9359 7.99108C13.0754 9.39046 11.1275 11.7454 7.75567 11.7454C4.38385 11.7454 2.43596 9.39046 1.5754 7.99108C1.39136 7.69327 1.29387 7.3501 1.29387 7.00001C1.29387 6.64993 1.39136 6.30675 1.5754 6.00895C2.43596 4.60957 4.38385 2.25466 7.75567 2.25466C11.1275 2.25466 13.0754 4.60698 13.9359 6.00895C14.12 6.30675 14.2175 6.64993 14.2175 7.00001C14.2175 7.3501 14.12 7.69327 13.9359 7.99108Z" fill="#6A7383"/>
<path id="Vector_2" d="M7.75575 3.76978C7.11685 3.76978 6.4923 3.95923 5.96108 4.31418C5.42985 4.66914 5.01581 5.17365 4.77132 5.76391C4.52682 6.35418 4.46285 7.00369 4.58749 7.63031C4.71214 8.25694 5.01979 8.83252 5.47156 9.28429C5.92333 9.73606 6.49892 10.0437 7.12555 10.1684C7.75217 10.293 8.40168 10.229 8.99195 9.98454C9.58221 9.74005 10.0867 9.32601 10.4417 8.79478C10.7966 8.26356 10.9861 7.63901 10.9861 7.00011C10.9851 6.14368 10.6444 5.32263 10.0388 4.71705C9.43323 4.11147 8.61218 3.7708 7.75575 3.76978ZM7.75575 8.9383C7.37241 8.9383 6.99768 8.82463 6.67895 8.61166C6.36021 8.39869 6.11179 8.09598 5.96509 7.74182C5.81839 7.38766 5.78001 6.99796 5.8548 6.62198C5.92958 6.24601 6.11418 5.90065 6.38524 5.62959C6.6563 5.35853 7.00166 5.17394 7.37763 5.09915C7.7536 5.02436 8.14331 5.06275 8.49747 5.20944C8.85163 5.35614 9.15433 5.60457 9.36731 5.9233C9.58028 6.24204 9.69395 6.61677 9.69395 7.00011C9.69395 7.51415 9.48975 8.00714 9.12627 8.37062C8.76278 8.7341 8.2698 8.9383 7.75575 8.9383Z" fill="#6A7383"/>
</g>
</svg>
