<svg width="15" height="11" viewBox="0 0 15 11" fill="none" xmlns="http://www.w3.org/2000/svg">
<path d="M14.0762 3.8408C13.1718 2.40646 11.1146 0 7.50391 0C3.89324 0 1.83601 2.40646 0.931591 3.8408C0.652003 4.28116 0.503906 4.78865 0.503906 5.30637C0.503906 5.8241 0.652003 6.33159 0.931591 6.77194C1.83601 8.20628 3.89324 10.6127 7.50391 10.6127C11.1146 10.6127 13.1718 8.20628 14.0762 6.77194C14.3558 6.33159 14.5039 5.8241 14.5039 5.30637C14.5039 4.78865 14.3558 4.28116 14.0762 3.8408ZM13.082 6.17742C12.3053 7.40734 10.5472 9.47708 7.50391 9.47708C4.46062 9.47708 2.70252 7.40734 1.92581 6.17742C1.7597 5.91568 1.67171 5.61406 1.67171 5.30637C1.67171 4.99868 1.7597 4.69706 1.92581 4.43532C2.70252 3.2054 4.46062 1.13566 7.50391 1.13566C10.5472 1.13566 12.3053 3.20313 13.082 4.43532C13.2481 4.69706 13.3361 4.99868 13.3361 5.30637C13.3361 5.61406 13.2481 5.91568 13.082 6.17742Z" fill="#3C3D48"/>
<path d="M7.50934 2.46875C6.93269 2.46875 6.36899 2.63526 5.88952 2.94723C5.41006 3.2592 5.03636 3.70262 4.81569 4.2214C4.59501 4.74019 4.53727 5.31105 4.64977 5.86179C4.76227 6.41253 5.03995 6.91842 5.44771 7.31548C5.85546 7.71255 6.37497 7.98295 6.94054 8.0925C7.5061 8.20205 8.09233 8.14582 8.62508 7.93093C9.15784 7.71604 9.61319 7.35214 9.93356 6.88525C10.2539 6.41835 10.4249 5.86943 10.4249 5.3079C10.424 4.55519 10.1165 3.83356 9.56995 3.30131C9.02337 2.76907 8.28232 2.46965 7.50934 2.46875ZM7.50934 7.01139C7.16335 7.01139 6.82513 6.91148 6.53745 6.7243C6.24977 6.53712 6.02555 6.27107 5.89315 5.9598C5.76074 5.64853 5.7261 5.30601 5.7936 4.97557C5.8611 4.64512 6.02771 4.34159 6.27236 4.10335C6.51701 3.86511 6.82872 3.70287 7.16806 3.63714C7.5074 3.57141 7.85913 3.60515 8.17879 3.73408C8.49844 3.86301 8.77165 4.08135 8.96387 4.36149C9.15609 4.64163 9.25869 4.97098 9.25869 5.3079C9.25869 5.75969 9.07438 6.19298 8.74632 6.51245C8.41825 6.83192 7.97329 7.01139 7.50934 7.01139Z" fill="#3C3D48"/>
</svg>
