<svg width="13" height="15" viewBox="0 0 13 15" fill="none" xmlns="http://www.w3.org/2000/svg">
<path d="M12.194 1.84498C12.0317 1.44675 11.7571 1.11075 11.4325 0.861865C11.0954 0.625421 10.7084 0.500977 10.2964 0.500977H2.70602C2.30652 0.500977 1.90703 0.625421 1.56996 0.861865C1.23288 1.09831 0.970715 1.43431 0.795936 1.84498C0.633642 2.2432 0.583705 2.6912 0.646126 3.11431C0.708547 3.54987 0.883326 3.94809 1.14549 4.28409L4.89075 8.88853V12.1614C4.89075 12.2485 4.91572 12.3356 4.95317 12.4228C4.99063 12.5099 5.04056 12.5721 5.11547 12.6343L7.25027 14.389C7.33766 14.4636 7.45001 14.501 7.57486 14.501C7.71218 14.501 7.84951 14.4388 7.94938 14.3268C8.04926 14.2148 8.11168 14.0654 8.11168 13.9161V11.4396H7.03804V12.7463L5.9644 11.8752V8.66453C5.9644 8.5152 5.91446 8.37831 5.82707 8.26631L1.94448 3.51253C1.81964 3.35075 1.73225 3.15164 1.70728 2.94009C1.68231 2.72853 1.70728 2.51698 1.78219 2.31787C1.85709 2.11875 1.99442 1.95698 2.15671 1.84498C2.31901 1.73298 2.50627 1.67075 2.70602 1.67075H10.2964C10.4962 1.67075 10.6834 1.73298 10.8457 1.84498C11.008 1.95698 11.1453 2.1312 11.2202 2.31787C11.2951 2.51698 11.3326 2.72853 11.2951 2.94009C11.2577 3.15164 11.1828 3.35075 11.0579 3.51253L7.18785 8.26631C7.08797 8.39075 7.03804 8.54009 7.03804 8.68942V9.34898H8.11168V8.88853L11.8569 4.28409C12.1191 3.96053 12.2939 3.54987 12.3563 3.11431C12.4187 2.67875 12.3563 2.2432 12.194 1.83253V1.84498Z" fill="white"/>
<path d="M10.1276 10.0545V8.34082H9.66942L9.03306 9.08749V10.0545H7.34033V11.0827H9.03306V12.8208H10.1276V11.0827H11.8203V10.0545H10.1276Z" fill="white"/>
</svg>
