<svg width="13" height="12" viewBox="0 0 13 12" fill="none" xmlns="http://www.w3.org/2000/svg">
<path d="M5.8451 0.000976562H2.39118C1.07284 0.000976562 0 1.10225 0 2.45552V4.36461C0 4.96625 0.476641 5.45552 1.06275 5.45552H5.8451C6.4312 5.45552 6.90784 4.96625 6.90784 4.36461V1.09189C6.90784 0.490249 6.4312 0.000976562 5.8451 0.000976562ZM1.06275 4.36461V2.45552C1.06275 1.70334 1.65895 1.09189 2.39118 1.09189H5.8451V4.36461H1.06275ZM10.3618 1.09189H9.03333C8.44723 1.09189 7.97059 1.58116 7.97059 2.18279V9.2737C7.97059 9.87534 8.44723 10.3646 9.03333 10.3646H10.3618C11.6801 10.3646 12.7529 9.26334 12.7529 7.91007V3.54643C12.7529 2.19316 11.6801 1.09189 10.3618 1.09189ZM11.6902 7.91007C11.6902 8.66225 11.094 9.2737 10.3618 9.2737H9.03333V2.18279H10.3618C11.094 2.18279 11.6902 2.79425 11.6902 3.54643V7.91007ZM5.8451 6.54643H2.12549C1.53939 6.54643 1.06275 7.0357 1.06275 7.63734V9.54643C1.06275 10.8997 2.13559 12.001 3.45392 12.001H5.8451C6.4312 12.001 6.90784 11.5117 6.90784 10.9101V7.63734C6.90784 7.0357 6.4312 6.54643 5.8451 6.54643ZM5.8451 10.9101H3.45392C2.72169 10.9101 2.12549 10.2986 2.12549 9.54643V7.63734H5.8451V10.9101Z" fill="#3C3D48"/>
</svg>
