<svg width="13" height="12" viewBox="0 0 13 12" fill="none" xmlns="http://www.w3.org/2000/svg">
<path d="M6.09119 0.000976562H2.63727C1.31893 0.000976562 0.246094 1.10225 0.246094 2.45552V4.36461C0.246094 4.96625 0.722735 5.45552 1.30884 5.45552H6.09119C6.6773 5.45552 7.15394 4.96625 7.15394 4.36461V1.09189C7.15394 0.490249 6.6773 0.000976562 6.09119 0.000976562ZM1.30884 4.36461V2.45552C1.30884 1.70334 1.90504 1.09189 2.63727 1.09189H6.09119V4.36461H1.30884ZM10.6079 1.09189H9.27943C8.69332 1.09189 8.21668 1.58116 8.21668 2.18279V9.2737C8.21668 9.87534 8.69332 10.3646 9.27943 10.3646H10.6079C11.9262 10.3646 12.999 9.26334 12.999 7.91007V3.54643C12.999 2.19316 11.9262 1.09189 10.6079 1.09189ZM11.9363 7.91007C11.9363 8.66225 11.3401 9.2737 10.6079 9.2737H9.27943V2.18279H10.6079C11.3401 2.18279 11.9363 2.79425 11.9363 3.54643V7.91007ZM6.09119 6.54643H2.37158C1.78548 6.54643 1.30884 7.0357 1.30884 7.63734V9.54643C1.30884 10.8997 2.38168 12.001 3.70002 12.001H6.09119C6.6773 12.001 7.15394 11.5117 7.15394 10.9101V7.63734C7.15394 7.0357 6.6773 6.54643 6.09119 6.54643ZM6.09119 10.9101H3.70002C2.96778 10.9101 2.37158 10.2986 2.37158 9.54643V7.63734H6.09119V10.9101Z" fill="white"/>
</svg>
