<svg width="14" height="10" viewBox="0 0 14 10" fill="none" xmlns="http://www.w3.org/2000/svg">
<path d="M9.66275 7.8374L1.79607 7.8374C1.58024 7.8374 1.37325 7.92282 1.22063 8.07488C1.06801 8.22693 0.982274 8.43316 0.982274 8.64819C0.982274 8.86323 1.06801 9.06946 1.22063 9.22151C1.37325 9.37356 1.58024 9.45899 1.79607 9.45899L9.66275 9.45898C9.87858 9.45898 10.0856 9.37356 10.2382 9.22151C10.3908 9.06946 10.4765 8.86323 10.4765 8.64819C10.4765 8.43316 10.3908 8.22693 10.2382 8.07488C10.0856 7.92282 9.87858 7.8374 9.66275 7.8374Z" fill="#3C3D48"/>
<path d="M1.79595 5.67578L9.66263 5.67578C9.87846 5.67578 10.0855 5.59036 10.2381 5.43831C10.3907 5.28625 10.4764 5.08002 10.4764 4.86499C10.4764 4.64995 10.3907 4.44373 10.2381 4.29167C10.0855 4.13962 9.87846 4.0542 9.66263 4.0542L1.79595 4.0542C1.58012 4.0542 1.37312 4.13962 1.22051 4.29167C1.06789 4.44373 0.982152 4.64995 0.982152 4.86499C0.982152 5.08003 1.06789 5.28625 1.22051 5.43831C1.37312 5.59036 1.58012 5.67578 1.79595 5.67578Z" fill="#3C3D48"/>
<path d="M1.79595 1.8916L9.66263 1.8916C9.87846 1.8916 10.0855 1.80618 10.2381 1.65413C10.3907 1.50207 10.4764 1.29584 10.4764 1.08081C10.4764 0.865774 10.3907 0.659547 10.2381 0.507494C10.0855 0.355441 9.87846 0.270018 9.66263 0.270018L1.79595 0.270018C1.58012 0.270018 1.37312 0.355441 1.22051 0.507494C1.06789 0.659547 0.982152 0.865775 0.982152 1.08081C0.982152 1.29585 1.06789 1.50207 1.22051 1.65413C1.37312 1.80618 1.58012 1.8916 1.79595 1.8916Z" fill="#3C3D48"/>
<path d="M12.6437 7.29736C11.8946 7.29736 11.2873 7.90237 11.2873 8.64868C11.2873 9.39499 11.8946 10 12.6437 10C13.3927 10 14 9.39499 14 8.64868C14 7.90237 13.3927 7.29736 12.6437 7.29736Z" fill="#3C3D48"/>
<path d="M12.6437 3.78369C11.8946 3.78369 11.2873 4.3887 11.2873 5.13501C11.2873 5.88132 11.8946 6.48633 12.6437 6.48633C13.3927 6.48633 14 5.88132 14 5.13501C14 4.3887 13.3927 3.78369 12.6437 3.78369Z" fill="#3C3D48"/>
<path d="M12.6437 0.000485539C11.8946 0.000485604 11.2873 0.605492 11.2873 1.35181C11.2873 2.09812 11.8946 2.70313 12.6437 2.70313C13.3927 2.70313 14 2.09812 14 1.35181C14 0.605492 13.3927 0.000485473 12.6437 0.000485539Z" fill="#3C3D48"/>
</svg>
