<svg width="14" height="10" viewBox="0 0 14 10" fill="none" xmlns="http://www.w3.org/2000/svg">
<path d="M8.68059 7.8374L0.813907 7.8374C0.598075 7.8374 0.391084 7.92282 0.238467 8.07488C0.0858506 8.22693 0.00011149 8.43316 0.000111509 8.64819C0.000111528 8.86323 0.0858507 9.06946 0.238467 9.22151C0.391084 9.37356 0.598075 9.45899 0.813907 9.45899L8.68059 9.45898C8.89642 9.45898 9.10341 9.37356 9.25603 9.22151C9.40865 9.06946 9.49438 8.86323 9.49438 8.64819C9.49438 8.43316 9.40865 8.22693 9.25603 8.07488C9.10341 7.92282 8.89642 7.8374 8.68059 7.8374Z" fill="white"/>
<path d="M0.813785 5.67578L8.68047 5.67578C8.8963 5.67578 9.10329 5.59036 9.25591 5.43831C9.40852 5.28625 9.49426 5.08002 9.49426 4.86499C9.49426 4.64995 9.40852 4.44373 9.25591 4.29167C9.10329 4.13962 8.8963 4.0542 8.68047 4.0542L0.813784 4.0542C0.597953 4.0542 0.390962 4.13962 0.238345 4.29167C0.0857285 4.44373 -1.05801e-05 4.64995 -1.05613e-05 4.86499C-1.05425e-05 5.08003 0.0857286 5.28625 0.238345 5.43831C0.390962 5.59036 0.597953 5.67578 0.813785 5.67578Z" fill="white"/>
<path d="M0.813785 1.8916L8.68047 1.8916C8.8963 1.8916 9.10329 1.80618 9.25591 1.65413C9.40852 1.50207 9.49426 1.29584 9.49426 1.08081C9.49426 0.865774 9.40852 0.659547 9.25591 0.507494C9.10329 0.355441 8.8963 0.270018 8.68047 0.270018L0.813784 0.270018C0.597953 0.270018 0.390962 0.355441 0.238345 0.507494C0.0857285 0.659547 -1.05801e-05 0.865775 -1.05613e-05 1.08081C-1.05425e-05 1.29585 0.0857286 1.50207 0.238345 1.65413C0.390962 1.80618 0.597953 1.8916 0.813785 1.8916Z" fill="white"/>
<path d="M11.6615 7.29736C10.9124 7.29736 10.3052 7.90237 10.3052 8.64868C10.3052 9.39499 10.9124 10 11.6615 10C12.4106 10 13.0178 9.39499 13.0178 8.64868C13.0178 7.90237 12.4106 7.29736 11.6615 7.29736Z" fill="white"/>
<path d="M11.6615 3.78369C10.9124 3.78369 10.3052 4.3887 10.3052 5.13501C10.3052 5.88132 10.9124 6.48633 11.6615 6.48633C12.4106 6.48633 13.0178 5.88132 13.0178 5.13501C13.0178 4.3887 12.4106 3.78369 11.6615 3.78369Z" fill="white"/>
<path d="M11.6615 0.000485539C10.9124 0.000485604 10.3052 0.605492 10.3052 1.35181C10.3052 2.09812 10.9124 2.70313 11.6615 2.70313C12.4106 2.70313 13.0178 2.09812 13.0178 1.35181C13.0178 0.605492 12.4106 0.000485473 11.6615 0.000485539Z" fill="white"/>
</svg>
