<svg width="18" height="19" viewBox="0 0 18 19" fill="none" xmlns="http://www.w3.org/2000/svg">
<path d="M0 9.17588C0 13.0943 2.50483 16.426 6.00007 17.6618C6.93708 17.9932 7.94469 18.1752 8.9951 18.1758H9.0053C10.0557 18.1752 11.0631 17.993 12.0001 17.6618C15.4934 16.4268 17.9972 13.0981 18.0002 9.18248V9.16888C17.9972 5.25364 15.4934 1.9248 12.0001 0.689987C11.0615 0.357983 10.0523 0.175781 9.0001 0.175781C7.94789 0.175781 6.93848 0.358183 6.00007 0.689987C2.50483 1.9258 0 5.25744 0 9.17588Z" fill="#F3F4F5"/>
<path d="M0 9.17416C0 10.262 0.193802 11.3044 0.547406 12.2696H17.4526C17.8056 11.3064 17.9994 10.2664 18.0002 9.18096V9.16736C17.9994 8.15315 17.8296 7.17874 17.5194 6.26953H0.480805C0.170002 7.18094 0 8.15755 0 9.17416Z" fill="#001B9A"/>
<path d="M15.7077 15.1758H2.29639C3.2938 16.289 4.56361 17.1532 6.00203 17.6616C6.94064 17.9934 7.94985 18.1758 9.00206 18.1758C10.0543 18.1758 11.0635 17.9936 12.0021 17.6616C13.4405 17.1532 14.7103 16.289 15.7077 15.1758Z" fill="#E70000"/>
<path d="M5.99124 0.692293C4.51242 1.2151 3.212 2.11431 2.20239 3.27352H15.7803C14.7707 2.11431 13.4703 1.2151 11.9913 0.692293C11.0745 0.36809 10.0901 0.188088 9.06427 0.179688H8.91847C7.89266 0.187888 6.90805 0.36809 5.99124 0.692293Z" fill="#E70000"/>
</svg>
