<svg width="12" height="16" viewBox="0 0 12 16" fill="none" xmlns="http://www.w3.org/2000/svg">
<path d="M11.3436 3.25034H9.50304C9.36524 2.58029 9.00065 1.97822 8.47072 1.54562C7.94079 1.11303 7.27792 0.876352 6.59384 0.875488L5.40641 0.875488C4.72233 0.876352 4.05947 1.11303 3.52953 1.54562C2.9996 1.97822 2.63501 2.58029 2.49721 3.25034H0.656702C0.499239 3.25034 0.348226 3.3129 0.236883 3.42424C0.12554 3.53558 0.0629883 3.68659 0.0629883 3.84406C0.0629883 4.00152 0.12554 4.15253 0.236883 4.26388C0.348226 4.37522 0.499239 4.43777 0.656702 4.43777H1.25042V12.1561C1.25136 12.9431 1.56442 13.6976 2.12093 14.2541C2.67744 14.8106 3.43196 15.1237 4.21899 15.1246H7.78127C8.56829 15.1237 9.32281 14.8106 9.87932 14.2541C10.4358 13.6976 10.7489 12.9431 10.7498 12.1561V4.43777H11.3436C11.501 4.43777 11.652 4.37522 11.7634 4.26388C11.8747 4.15253 11.9373 4.00152 11.9373 3.84406C11.9373 3.68659 11.8747 3.53558 11.7634 3.42424C11.652 3.3129 11.501 3.25034 11.3436 3.25034ZM5.40641 2.06292H6.59384C6.96211 2.06337 7.32122 2.17773 7.62192 2.39032C7.92263 2.6029 8.15021 2.90331 8.27346 3.25034H3.7268C3.85004 2.90331 4.07762 2.6029 4.37833 2.39032C4.67904 2.17773 5.03815 2.06337 5.40641 2.06292ZM9.56241 12.1561C9.56241 12.6284 9.37475 13.0815 9.04073 13.4155C8.7067 13.7495 8.25366 13.9372 7.78127 13.9372H4.21899C3.7466 13.9372 3.29356 13.7495 2.95953 13.4155C2.6255 13.0815 2.43784 12.6284 2.43784 12.1561V4.43777H9.56241V12.1561Z" fill="#BB2020"/>
<path d="M4.80905 11.5627C4.96651 11.5627 5.11752 11.5001 5.22886 11.3888C5.34021 11.2775 5.40276 11.1264 5.40276 10.969V7.4067C5.40276 7.24924 5.34021 7.09823 5.22886 6.98688C5.11752 6.87554 4.96651 6.81299 4.80905 6.81299C4.65158 6.81299 4.50057 6.87554 4.38923 6.98688C4.27788 7.09823 4.21533 7.24924 4.21533 7.4067V10.969C4.21533 11.1264 4.27788 11.2775 4.38923 11.3888C4.50057 11.5001 4.65158 11.5627 4.80905 11.5627Z" fill="#BB2020"/>
<path d="M7.18795 11.5627C7.34541 11.5627 7.49643 11.5001 7.60777 11.3888C7.71911 11.2775 7.78167 11.1264 7.78167 10.969V7.4067C7.78167 7.24924 7.71911 7.09823 7.60777 6.98688C7.49643 6.87554 7.34541 6.81299 7.18795 6.81299C7.03049 6.81299 6.87948 6.87554 6.76813 6.98688C6.65679 7.09823 6.59424 7.24924 6.59424 7.4067V10.969C6.59424 11.1264 6.65679 11.2775 6.76813 11.3888C6.87948 11.5001 7.03049 11.5627 7.18795 11.5627Z" fill="#BB2020"/>
</svg>
