<svg width="13" height="13" viewBox="0 0 13 13" fill="none" xmlns="http://www.w3.org/2000/svg">
<path d="M3.30235 5.26311C2.88239 5.26311 2.46243 5.10562 2.14747 4.78588L1.05463 3.69782C0.86851 3.5117 0.86851 3.21105 1.05463 3.02493C1.24074 2.83881 1.54139 2.83881 1.72751 3.02493L2.81558 4.113C3.08282 4.38024 3.51233 4.38024 3.77957 4.113L5.47848 2.41409C6.11796 1.77461 7.15354 1.77461 7.79302 2.41409L8.53748 3.15855C8.79518 3.41625 9.24377 3.41625 9.50147 3.15855L11.5535 1.11127C11.7397 0.92515 12.0403 0.92515 12.2264 1.11127C12.4125 1.29738 12.4125 1.59803 12.2264 1.78415L10.1839 3.82667C9.56829 4.44228 8.48976 4.44228 7.86937 3.82667L7.1249 3.0822C6.85766 2.81495 6.42816 2.81495 6.16091 3.0822L4.462 4.78111C4.14226 5.10085 3.7223 5.25833 3.30712 5.25833L3.30235 5.26311ZM4.73402 11.949V7.65399C4.73402 7.39152 4.51927 7.17677 4.25679 7.17677C3.99432 7.17677 3.77957 7.39152 3.77957 7.65399V11.949C3.77957 12.2115 3.99432 12.4262 4.25679 12.4262C4.51927 12.4262 4.73402 12.2115 4.73402 11.949ZM2.3479 11.949V6.69955C2.3479 6.43708 2.13315 6.22233 1.87068 6.22233C1.60821 6.22233 1.39346 6.43708 1.39346 6.69955V11.949C1.39346 12.2115 1.60821 12.4262 1.87068 12.4262C2.13315 12.4262 2.3479 12.2115 2.3479 11.949ZM7.12013 11.949V5.26788C7.12013 5.00541 6.90538 4.79066 6.64291 4.79066C6.38044 4.79066 6.16569 5.00541 6.16569 5.26788V11.949C6.16569 12.2115 6.38044 12.4262 6.64291 12.4262C6.90538 12.4262 7.12013 12.2115 7.12013 11.949ZM9.50625 11.949V6.69955C9.50625 6.43708 9.2915 6.22233 9.02902 6.22233C8.76655 6.22233 8.5518 6.43708 8.5518 6.69955V11.949C8.5518 12.2115 8.76655 12.4262 9.02902 12.4262C9.2915 12.4262 9.50625 12.2115 9.50625 11.949ZM11.8924 11.949V4.79066C11.8924 4.52818 11.6776 4.31343 11.4151 4.31343C11.1527 4.31343 10.9379 4.52818 10.9379 4.79066V11.949C10.9379 12.2115 11.1527 12.4262 11.4151 12.4262C11.6776 12.4262 11.8924 12.2115 11.8924 11.949Z" fill="#3C3D48"/>
</svg>
