<svg width="30" height="20" viewBox="0 0 30 20" fill="none" xmlns="http://www.w3.org/2000/svg">
<path fill-rule="evenodd" clip-rule="evenodd" d="M7.37624 18.5681C7.27886 19.1907 6.69524 19.6165 6.0726 19.5192C5.44989 19.4219 5.02397 18.8383 5.12127 18.2156L6.24877 18.3917C5.12127 18.2156 5.12122 18.2159 5.12127 18.2156L5.12199 18.211L5.1237 18.2002L5.13009 18.1604C5.13567 18.1259 5.14389 18.0757 5.15478 18.0107C5.17655 17.8809 5.20898 17.6923 5.25221 17.4532C5.33865 16.9751 5.4684 16.2946 5.6426 15.4788C5.99031 13.8505 6.51829 11.6684 7.23732 9.47708C7.9516 7.30022 8.87633 5.04519 10.0407 3.31222C11.1734 1.62625 12.7417 0.132812 14.8076 0.132812C16.8735 0.132812 18.4418 1.62625 19.5746 3.31222C20.7389 5.04519 21.6637 7.30022 22.378 9.47708C23.097 11.6684 23.625 13.8505 23.9727 15.4788C24.1469 16.2946 24.2766 16.9751 24.3631 17.4532C24.4063 17.6923 24.4387 17.8809 24.4605 18.0107C24.4714 18.0757 24.4796 18.1259 24.4852 18.1604L24.4916 18.2002L24.4933 18.211L24.4939 18.215C24.494 18.2153 24.494 18.2156 23.3665 18.3917L24.4939 18.215C24.5912 18.8377 24.1654 19.4219 23.5427 19.5192C22.92 19.6165 22.3364 19.1907 22.239 18.5681C22.239 18.568 22.239 18.5681 22.239 18.5681L22.2375 18.5585L22.2321 18.5249C22.2272 18.4946 22.2197 18.4487 22.2096 18.3882C22.1893 18.2673 22.1585 18.0882 22.1171 17.8592C22.0343 17.4012 21.9091 16.7444 21.7406 15.9554C21.403 14.3741 20.8945 12.2768 20.2093 10.1886C19.5194 8.08607 18.6722 6.06167 17.6801 4.58507C16.6565 3.06146 15.6839 2.41518 14.8076 2.41518C13.9314 2.41518 12.9588 3.06146 11.9351 4.58507C10.9431 6.06167 10.0958 8.08607 9.40592 10.1886C8.72076 12.2768 8.21231 14.3741 7.87464 15.9554C7.70616 16.7444 7.58098 17.4012 7.49816 17.8592C7.45676 18.0882 7.42599 18.2673 7.40571 18.3882C7.39557 18.4487 7.38805 18.4946 7.38315 18.5249L7.37776 18.5585L7.37653 18.5663L7.37624 18.5681Z" fill="#2580D3"/>
<path fill-rule="evenodd" clip-rule="evenodd" d="M-8.31378e-08 11.7361C1.94611e-08 11.2109 0.425771 10.7852 0.950985 10.7852L1.315 10.7852C1.84021 10.7852 2.26598 11.2109 2.26598 11.7361C2.26598 12.2614 1.84021 12.6871 1.315 12.6871L0.950985 12.6871C0.42577 12.6871 -1.29054e-07 12.2614 -8.31378e-08 11.7361ZM3.08331 11.7361C3.08331 11.2109 3.50908 10.7852 4.03429 10.7852L4.76232 10.7852C5.28753 10.7852 5.7133 11.2109 5.7133 11.7361C5.7133 12.2614 5.28753 12.6871 4.76232 12.6871L4.03429 12.6871C3.50908 12.6871 3.08331 12.2614 3.08331 11.7361ZM9.97795 11.7361C9.97795 11.2109 10.4037 10.7852 10.9289 10.7852L11.657 10.7852C12.1822 10.7852 12.6079 11.2109 12.6079 11.7361C12.6079 12.2614 12.1822 12.6871 11.657 12.6871L10.9289 12.6871C10.4037 12.6871 9.97795 12.2614 9.97795 11.7361ZM13.4253 11.7361C13.4253 11.2109 13.851 10.7852 14.3763 10.7852L15.1043 10.7852C15.6295 10.7852 16.0553 11.2109 16.0553 11.7361C16.0553 12.2614 15.6295 12.6871 15.1043 12.6871L14.3763 12.6871C13.851 12.6871 13.4253 12.2614 13.4253 11.7361ZM16.8726 11.7361C16.8726 11.2109 17.2984 10.7852 17.8236 10.7852L18.5516 10.7852C19.0768 10.7852 19.5026 11.2109 19.5026 11.7361C19.5026 12.2614 19.0768 12.6871 18.5516 12.6871L17.8236 12.6871C17.2984 12.6871 16.8726 12.2614 16.8726 11.7361ZM23.7672 11.7361C23.7672 11.2109 24.193 10.7852 24.7182 10.7852L25.4462 10.7852C25.9715 10.7852 26.3972 11.2109 26.3972 11.7361C26.3972 12.2614 25.9715 12.6871 25.4462 12.6871L24.7182 12.6871C24.193 12.6871 23.7672 12.2614 23.7672 11.7361ZM27.2146 11.7361C27.2146 11.2109 27.6403 10.7852 28.1655 10.7852L28.5296 10.7852C29.0548 10.7852 29.4805 11.2109 29.4805 11.7361C29.4805 12.2614 29.0548 12.6871 28.5296 12.6871L28.1655 12.6871C27.6403 12.6871 27.2146 12.2614 27.2146 11.7361Z" fill="#2580D3"/>
</svg>
