<svg width="37" height="36" viewBox="0 0 37 36" fill="none" xmlns="http://www.w3.org/2000/svg">
<rect x="36.0909" y="35.5909" width="35.1818" height="35.1818" rx="4.5" transform="rotate(180 36.0909 35.5909)" fill="#2580D3"/>
<rect x="36.0909" y="35.5909" width="35.1818" height="35.1818" rx="4.5" transform="rotate(180 36.0909 35.5909)" stroke="#CBD5E1" stroke-width="0.818182"/>
<path d="M17.5471 14.9201L11.7372 10.6698C10.496 9.8149 8.9707 10.9277 8.9707 12.6881L8.97071 23.3111C8.97071 25.0715 10.496 26.1843 11.7372 25.3293L17.5471 21.0791" stroke="white" stroke-width="1.42943"/>
<path d="M27.1515 16.2338C28.3222 17.0035 28.3222 18.9961 27.1515 19.7658L20.0831 24.4133C18.9454 25.1614 17.5471 24.1877 17.5471 22.6473L17.5471 13.3522C17.5471 11.8118 18.9454 10.8382 20.0831 11.5862L27.1515 16.2338Z" stroke="white" stroke-width="1.42943"/>
</svg>
