<svg width="16" height="15" viewBox="0 0 16 15" fill="none" xmlns="http://www.w3.org/2000/svg">
<g clip-path="url(#clip0_18865_42639)">
<path fill-rule="evenodd" clip-rule="evenodd" d="M6.08089 1.95606C5.92667 2.00492 5.77437 2.06044 5.62443 2.12255C4.938 2.40688 4.3143 2.82362 3.78893 3.34899C3.26356 3.87435 2.84682 4.49806 2.56249 5.18449C2.33685 5.72924 2.19811 6.30503 2.15045 6.89087H4.89092C4.91049 6.22056 4.9729 5.55999 5.07663 4.93395C5.20381 4.16634 5.39172 3.45901 5.63363 2.85425C5.76569 2.52407 5.91491 2.22182 6.08089 1.95606ZM7.78954 0.774414C6.92608 0.774414 6.07106 0.944488 5.27332 1.27492C4.47559 1.60535 3.75074 2.08968 3.14018 2.70024C2.52962 3.3108 2.04529 4.03564 1.71486 4.83338C1.38443 5.63112 1.21436 6.48614 1.21436 7.3496C1.21436 8.21306 1.38443 9.06808 1.71486 9.86578C2.04529 10.6636 2.52962 11.3884 3.14018 11.999C3.75074 12.6095 4.47559 13.0939 5.27332 13.4243C6.07106 13.7547 6.92608 13.9248 7.78954 13.9248C8.653 13.9248 9.50802 13.7547 10.3057 13.4243C11.1035 13.0939 11.8284 12.6095 12.4389 11.999C13.0494 11.3884 13.5338 10.6636 13.8642 9.86578C14.1946 9.06808 14.3647 8.21306 14.3647 7.3496C14.3647 6.48614 14.1946 5.63112 13.8642 4.83338C13.5338 4.03564 13.0494 3.3108 12.4389 2.70024C11.8284 2.08968 11.1035 1.60535 10.3057 1.27492C9.50802 0.944488 8.653 0.774414 7.78954 0.774414ZM7.78954 1.69188C7.62972 1.69188 7.42329 1.76882 7.18328 2.0174C6.94143 2.26781 6.69934 2.66027 6.48547 3.19498C6.273 3.72615 6.10048 4.36736 5.98176 5.08392C5.8865 5.65882 5.82809 6.26888 5.8088 6.89087H9.77029C9.75096 6.26888 9.69255 5.65882 9.59732 5.08392C9.4786 4.36736 9.30605 3.72615 9.09363 3.19499C8.87974 2.66027 8.63765 2.26781 8.3958 2.0174C8.15579 1.76882 7.94936 1.69188 7.78954 1.69188ZM10.6882 6.89087C10.6686 6.22056 10.6062 5.55999 10.5024 4.93395C10.3753 4.16634 10.1874 3.45901 9.94547 2.85425C9.81341 2.52407 9.66417 2.22182 9.49817 1.95606C9.65243 2.00492 9.80473 2.06044 9.95464 2.12255C10.6411 2.40688 11.2648 2.82362 11.7901 3.34899C12.3155 3.87436 12.7322 4.49806 13.0166 5.18449C13.2422 5.72924 13.381 6.30503 13.4286 6.89087H10.6882ZM9.77029 7.80833H5.8088C5.82809 8.43031 5.8865 9.04037 5.98176 9.61525C6.10048 10.3319 6.273 10.973 6.48547 11.5042C6.69934 12.0389 6.94143 12.4314 7.18328 12.6818C7.42329 12.9304 7.62972 13.0073 7.78954 13.0073C7.94936 13.0073 8.15579 12.9304 8.3958 12.6818C8.63765 12.4314 8.87974 12.0389 9.09363 11.5042C9.30605 10.973 9.4786 10.3319 9.59732 9.61525C9.69255 9.04037 9.75096 8.43031 9.77029 7.80833ZM9.49817 12.7431C9.66417 12.4774 9.81341 12.1751 9.94547 11.8449C10.1874 11.2402 10.3753 10.5328 10.5024 9.76523C10.6062 9.13921 10.6686 8.47863 10.6882 7.80833H13.4286C13.381 8.39417 13.2422 8.96997 13.0166 9.5147C12.7322 10.2011 12.3155 10.8248 11.7901 11.3502C11.2648 11.8756 10.6411 12.2923 9.95464 12.5767C9.80473 12.6387 9.65243 12.6943 9.49817 12.7431ZM6.08089 12.7431C5.91491 12.4774 5.76569 12.1751 5.63362 11.8449C5.39171 11.2402 5.20381 10.5328 5.07663 9.76523C4.9729 9.13921 4.91049 8.47863 4.89092 7.80833H2.15045C2.19811 8.39417 2.33685 8.96997 2.56249 9.5147C2.84682 10.2011 3.26356 10.8248 3.78893 11.3502C4.3143 11.8756 4.938 12.2923 5.62443 12.5767C5.77437 12.6387 5.92667 12.6943 6.08089 12.7431Z" fill="#30313D"/>
</g>
<defs>
<clipPath id="clip0_18865_42639">
<rect width="14.6795" height="14.6795" fill="white" transform="translate(0.450195 0.00976562)"/>
</clipPath>
</defs>
</svg>
