<svg width="32" height="30" viewBox="0 0 32 30" fill="none" xmlns="http://www.w3.org/2000/svg">
<path d="M0.5 3C0.5 1.34315 1.84315 1.24743e-08 3.5 2.78621e-08L31.9576 2.92158e-07L31.9576 29.9996L3.5 29.9996C1.84314 29.9996 0.5 28.6564 0.5 26.9996L0.5 3Z" fill="#2580D3"/>
<path d="M19.1379 21.5L19.1379 20.0556C19.1379 19.2894 18.8314 18.5546 18.2858 18.0128C17.7402 17.471 17.0003 17.1667 16.2288 17.1667L11.1379 17.1667C10.3663 17.1667 9.62637 17.471 9.08081 18.0128C8.53525 18.5546 8.22876 19.2894 8.22876 20.0556L8.22876 21.5M19.8651 14.2778L21.3197 15.7222L24.2288 12.8333M16.5924 11.3889C16.5924 12.9844 15.29 14.2778 13.6833 14.2778C12.0767 14.2778 10.7742 12.9844 10.7742 11.3889C10.7742 9.7934 12.0767 8.5 13.6833 8.5C15.29 8.5 16.5924 9.7934 16.5924 11.3889Z" stroke="white" stroke-width="1.33333" stroke-linecap="round" stroke-linejoin="round"/>
</svg>
