<svg width="11" height="11" viewBox="0 0 11 11" fill="none" xmlns="http://www.w3.org/2000/svg">
<path d="M1.75009 4.9495C2.05469 2.89964 3.97961 1.48243 6.04953 1.78408C6.75575 1.88699 7.41823 2.1854 7.96066 2.64494L7.47236 3.12851C7.30869 3.29063 7.30873 3.55346 7.47246 3.71554C7.55103 3.79333 7.6576 3.83705 7.76871 3.83707H9.69094C9.92243 3.83707 10.1101 3.65123 10.1101 3.42199V1.51839C10.11 1.28914 9.92233 1.10335 9.69084 1.10339C9.57973 1.1034 9.47316 1.14712 9.39459 1.22492L8.84966 1.76452C6.77172 -0.069809 3.58564 0.111338 1.73335 2.16914C1.07714 2.89814 0.651294 3.80177 0.508573 4.7681C0.452302 5.11068 0.687111 5.43358 1.03303 5.4893C1.06419 5.49432 1.09567 5.49703 1.12724 5.49741C1.44372 5.49403 1.70938 5.26033 1.75009 4.9495Z" fill="#8A8A8A"/>
<path d="M9.87294 5.50098C9.55645 5.50436 9.2908 5.73806 9.25009 6.04889C8.94549 8.09875 7.02057 9.51596 4.95064 9.21433C4.24443 9.11142 3.58195 8.81301 3.03951 8.35347L3.52782 7.8699C3.69148 7.70778 3.69144 7.44495 3.52772 7.28287C3.44915 7.20508 3.34258 7.16136 3.23147 7.16134H1.30928C1.07779 7.16134 0.890137 7.34718 0.890137 7.57642V9.48002C0.890196 9.70927 1.07789 9.89506 1.30938 9.89503C1.42049 9.89501 1.52706 9.85129 1.60563 9.7735L2.15052 9.23389C4.22796 11.0684 7.41381 10.8878 9.26632 8.8305C9.92288 8.10134 10.3489 7.1974 10.4916 6.23072C10.5481 5.88818 10.3135 5.56513 9.96764 5.50917C9.93632 5.50409 9.90467 5.50135 9.87294 5.50098Z" fill="#8A8A8A"/>
</svg>
