<svg width="34" height="30" viewBox="0 0 34 30" fill="none" xmlns="http://www.w3.org/2000/svg">
<path d="M28.5 29.75L1.20801 29.75L1.20801 0.250003L28.5 0.25C31.1232 0.25 33.2498 2.37684 33.25 5L33.25 25C33.25 27.5415 31.254 29.6171 28.7441 29.7441L28.5 29.75Z" fill="#F6F6F6"/>
<path d="M28.5 29.75L1.20801 29.75L1.20801 0.250003L28.5 0.25C31.1232 0.25 33.2498 2.37684 33.25 5L33.25 25C33.25 27.5415 31.254 29.6171 28.7441 29.7441L28.5 29.75Z" stroke="#CBD5E1" stroke-width="0.5"/>
<path d="M18.8901 17.1667C22.4591 17.152 23.7288 15.2643 23.7288 13.6458C23.7284 13.2129 23.5799 12.7932 23.3079 12.4564C23.0359 12.1195 22.6569 11.8859 22.2338 11.7944C22.3903 11.354 22.5169 10.9036 22.6129 10.4462C22.661 10.212 22.6562 9.97009 22.5987 9.73804C22.5413 9.50599 22.4327 9.28972 22.2809 9.10504C22.1272 8.91575 21.9331 8.76319 21.7129 8.65851C21.4926 8.55383 21.2518 8.49968 21.008 8.5H13.4496C13.2056 8.49959 12.9647 8.55371 12.7443 8.65839C12.524 8.76308 12.3299 8.91568 12.1761 9.10504C12.0243 9.28972 11.9157 9.50599 11.8583 9.73804C11.8008 9.97009 11.7959 10.212 11.8441 10.4462C11.9398 10.9037 12.0665 11.3541 12.2232 11.7944C11.8002 11.8861 11.4213 12.1197 11.1494 12.4565C10.8775 12.7933 10.7291 13.213 10.7288 13.6458C10.7288 15.2643 11.9984 17.152 15.5675 17.1667C15.5877 17.2807 15.5999 17.396 15.6038 17.5117V19.3333C15.6131 19.478 15.5914 19.623 15.5403 19.7587C15.4891 19.8943 15.4096 20.0175 15.3071 20.12C15.2046 20.2225 15.0814 20.302 14.9458 20.3532C14.8101 20.4043 14.6651 20.426 14.5204 20.4167H13.4371V21.5H21.0204V20.4167H19.9414C19.7964 20.4264 19.651 20.4052 19.5149 20.3542C19.3788 20.3033 19.2552 20.2239 19.1522 20.1214C19.0493 20.0188 18.9694 19.8955 18.9179 19.7596C18.8664 19.6237 18.8446 19.4784 18.8538 19.3333V17.5117C18.8577 17.396 18.8698 17.2807 18.8901 17.1667ZM21.8329 12.8333C22.0484 12.8333 22.2551 12.9189 22.4075 13.0713C22.5598 13.2237 22.6454 13.4303 22.6454 13.6458C22.6454 14.7552 21.762 15.9344 19.3283 16.0698C19.4241 15.944 19.5346 15.8301 19.6576 15.7307C20.581 14.9383 21.314 13.948 21.8021 12.8333H21.8329ZM11.8121 13.6458C11.8121 13.4303 11.8977 13.2237 12.0501 13.0713C12.2024 12.9189 12.4091 12.8333 12.6246 12.8333H12.6555C13.1431 13.9481 13.876 14.9384 14.7994 15.7307C14.9225 15.8301 15.0333 15.944 15.1293 16.0698C12.6956 15.9344 11.8121 14.7552 11.8121 13.6458ZM17.7704 17.5117V19.3333C17.7643 19.7111 17.8551 20.084 18.0342 20.4167H16.4233C16.6024 20.084 16.6932 19.7111 16.6871 19.3333V17.5117C16.6963 17.0108 16.5921 16.5142 16.3824 16.0592C16.1726 15.6042 15.8628 15.2025 15.4759 14.8841C14.1413 13.817 13.2204 11.7771 12.9052 10.2279C12.889 10.1514 12.8903 10.0723 12.9091 9.99639C12.9278 9.9205 12.9635 9.84984 13.0135 9.78971C13.0661 9.72485 13.1326 9.67263 13.208 9.6369C13.2835 9.60118 13.3661 9.58288 13.4496 9.58334H21.008C21.091 9.58328 21.173 9.60178 21.248 9.63749C21.323 9.6732 21.389 9.7252 21.4413 9.78971C21.4911 9.84992 21.5267 9.92058 21.5455 9.99645C21.5643 10.0723 21.5657 10.1514 21.5496 10.2279C21.2322 11.7771 20.3136 13.817 18.9783 14.8863C18.5924 15.2048 18.2834 15.6063 18.0743 16.0609C17.8651 16.5155 17.7613 17.0114 17.7704 17.5117Z" fill="#30313D"/>
</svg>
