<svg width="17" height="16" viewBox="0 0 17 16" fill="none" xmlns="http://www.w3.org/2000/svg">
<path d="M8.17634 1.47859C8.38301 1.01554 8.48639 0.784015 8.6303 0.712718C8.75528 0.650774 8.90205 0.650774 9.02703 0.712718C9.17094 0.784015 9.27432 1.01554 9.48099 1.47859L11.1272 5.16687C11.1884 5.30376 11.2189 5.3722 11.2662 5.42461C11.308 5.47099 11.3591 5.50809 11.4162 5.53348C11.4807 5.56219 11.5554 5.57005 11.7046 5.58578L15.7258 6.00963C16.2306 6.06284 16.483 6.08944 16.5954 6.20408C16.693 6.30366 16.7383 6.4431 16.718 6.58097C16.6946 6.73967 16.506 6.90933 16.1289 7.24874L13.1251 9.95209C13.0137 10.0524 12.9579 10.1026 12.9227 10.1637C12.8914 10.2178 12.8719 10.2778 12.8654 10.3398C12.8579 10.41 12.8735 10.4833 12.9046 10.6299L13.7436 14.5801C13.849 15.0761 13.9016 15.324 13.8272 15.4661C13.7625 15.5897 13.6437 15.6758 13.5062 15.6991C13.3478 15.7258 13.1279 15.5992 12.6881 15.346L9.18549 13.3284C9.05551 13.2535 8.99052 13.2161 8.92142 13.2014C8.86027 13.1885 8.79706 13.1885 8.73591 13.2014C8.66681 13.2161 8.60182 13.2535 8.47184 13.3284L4.9692 15.346C4.52946 15.5992 4.30959 15.7258 4.15121 15.6991C4.01363 15.6758 3.89486 15.5897 3.83019 15.4661C3.75574 15.324 3.8084 15.0761 3.91374 14.5801L4.7527 10.6299C4.78383 10.4833 4.7994 10.41 4.79201 10.3398C4.78547 10.2778 4.76594 10.2178 4.7347 10.1637C4.69939 10.1026 4.64365 10.0524 4.53217 9.95209L1.52845 7.24874C1.15135 6.90933 0.962793 6.73967 0.93935 6.58097C0.918996 6.4431 0.964356 6.30366 1.06197 6.20408C1.17435 6.08944 1.42677 6.06284 1.93161 6.00963L5.95276 5.58578C6.10201 5.57005 6.17662 5.56219 6.24115 5.53348C6.29824 5.50809 6.34936 5.47099 6.39119 5.42461C6.43846 5.3722 6.46901 5.30376 6.53012 5.16687L8.17634 1.47859Z" fill="#FFBA00"/>
</svg>
