<svg width="51" height="50" viewBox="0 0 51 50" fill="none" xmlns="http://www.w3.org/2000/svg">
<rect x="1.0814" y="0.581395" width="48.8372" height="48.8372" rx="23.8372" fill="#16A085"/>
<rect x="1.0814" y="0.581395" width="48.8372" height="48.8372" rx="23.8372" stroke="#CBD5E1" stroke-width="1.16279"/>
<path d="M27.2473 24.9998C27.2473 27.5648 29.3378 29.6507 31.9083 29.6507C34.4788 29.6507 36.5693 27.5648 36.5693 24.9998C36.5693 22.4348 34.4788 20.3488 31.9083 20.3488C29.3378 20.3488 27.2473 22.4348 27.2473 24.9998ZM31.9083 22.6743C33.1936 22.6743 34.2388 23.7173 34.2388 24.9998C34.2388 26.2823 33.1936 27.3252 31.9083 27.3252C30.623 27.3252 29.5778 26.2823 29.5778 24.9998C29.5778 23.7173 30.623 22.6743 31.9083 22.6743ZM25.4994 20.3488C28.07 20.3488 30.1604 18.2628 30.1604 15.6978C30.1604 13.1328 28.07 11.0469 25.4994 11.0469C22.9289 11.0469 20.8384 13.1328 20.8384 15.6978C20.8384 18.2628 22.9289 20.3488 25.4994 20.3488ZM25.4994 13.3724C26.7847 13.3724 27.8299 14.4153 27.8299 15.6978C27.8299 16.9803 26.7847 18.0233 25.4994 18.0233C24.2141 18.0233 23.1689 16.9803 23.1689 15.6978C23.1689 14.4153 24.2141 13.3724 25.4994 13.3724ZM19.0905 29.6507C21.6611 29.6507 23.7515 27.5648 23.7515 24.9998C23.7515 22.4348 21.6611 20.3488 19.0905 20.3488C16.52 20.3488 14.4295 22.4348 14.4295 24.9998C14.4295 27.5648 16.52 29.6507 19.0905 29.6507ZM19.0905 22.6743C20.3758 22.6743 21.421 23.7173 21.421 24.9998C21.421 26.2823 20.3758 27.3252 19.0905 27.3252C17.8053 27.3252 16.76 26.2823 16.76 24.9998C16.76 23.7173 17.8053 22.6743 19.0905 22.6743ZM39.4486 37.6853C39.5069 38.3248 39.0338 38.8899 38.3929 38.948C38.358 38.9503 38.3218 38.9526 38.2869 38.9526C37.6903 38.9526 37.1822 38.498 37.1275 37.8946C36.9993 36.4772 36.2687 35.1563 35.1221 34.2691C35.0929 34.2459 34.9974 34.2563 34.9356 34.3261L32.7904 36.8062C32.5702 37.062 32.2252 37.2585 31.9083 37.2097C31.5727 37.2097 31.2534 37.0655 31.032 36.8144L28.8588 34.3424C28.7994 34.2738 28.7039 34.261 28.6724 34.2866C27.5235 35.1865 26.8185 36.4679 26.6903 37.8957C26.6402 38.4492 26.2091 38.8492 25.673 38.9201C25.6392 38.9259 25.6101 38.9457 25.5752 38.9492C25.539 38.9515 25.5041 38.9538 25.4691 38.9538C25.4575 38.9538 25.4481 38.948 25.4377 38.948C25.433 38.948 25.4295 38.9503 25.4248 38.9492C25.412 38.9492 25.4015 38.9399 25.3887 38.9387C24.8282 38.8992 24.361 38.4713 24.3097 37.8957C24.1804 36.4574 23.4684 35.1703 22.3055 34.2703C22.2717 34.2459 22.1773 34.2575 22.119 34.3273L19.9738 36.8074C19.7524 37.0644 19.4285 37.2132 19.0917 37.2109C18.7561 37.2109 18.4368 37.0667 18.2154 36.8144L16.0422 34.3424C15.9816 34.2749 15.8861 34.2622 15.8558 34.2877C14.7057 35.1877 14.0007 36.469 13.8725 37.8969C13.8154 38.5364 13.2573 38.9992 12.6071 38.9503C11.9662 38.8922 11.4931 38.3271 11.5514 37.6876C11.7355 35.6446 12.7807 33.7389 14.4179 32.4564C15.4386 31.6588 16.9208 31.8146 17.7936 32.8087L19.0835 34.2761L20.3537 32.8076C21.2218 31.8018 22.7063 31.6367 23.7329 32.4332C24.4414 32.9808 25.0321 33.6505 25.4994 34.3924C25.9609 33.661 26.54 33.0006 27.2345 32.4564C28.2529 31.6599 29.7374 31.8134 30.6102 32.8099L31.9001 34.2761L33.1703 32.8076C34.0384 31.8018 35.5241 31.639 36.5483 32.432C38.2041 33.7133 39.2599 35.6284 39.4463 37.6864L39.4486 37.6853Z" fill="white"/>
</svg>
