<svg width="31" height="32" viewBox="0 0 31 32" fill="none" xmlns="http://www.w3.org/2000/svg">
<path d="M3.87469 14.2951C4.81898 7.94027 10.7865 3.54674 17.2035 4.48188C19.3929 4.80092 21.4467 5.72605 23.1283 7.15068L21.6145 8.64982C21.1071 9.1524 21.1072 9.96721 21.6148 10.4697C21.8584 10.7108 22.1887 10.8464 22.5332 10.8464H28.4924C29.21 10.8464 29.7918 10.2703 29.7918 9.55962V3.65821C29.7916 2.94752 29.2097 2.37153 28.4921 2.37165C28.1476 2.37171 27.8172 2.50725 27.5737 2.74841L25.8843 4.42126C19.4424 -1.26541 9.56512 -0.70383 3.82279 5.67562C1.78845 7.93563 0.468274 10.737 0.0258207 13.7327C-0.148627 14.7948 0.579314 15.7958 1.6517 15.9686C1.74831 15.9841 1.84588 15.9925 1.94377 15.9937C2.92491 15.9832 3.74848 15.2587 3.87469 14.2951Z" fill="#8A8A8A"/>
<path d="M29.0566 16.0049C28.0755 16.0154 27.2519 16.7399 27.1257 17.7035C26.1814 24.0583 20.2139 28.4519 13.7969 27.5168C11.6075 27.1977 9.55371 26.2726 7.87209 24.848L9.3859 23.3488C9.89328 22.8463 9.89316 22.0315 9.3856 21.529C9.14202 21.2878 8.81164 21.1523 8.46719 21.1522H2.50814C1.7905 21.1522 1.20874 21.7283 1.20874 22.439V28.3404C1.20892 29.0511 1.7908 29.6271 2.50845 29.627C2.85289 29.627 3.18327 29.4914 3.42685 29.2503L5.11608 27.5774C11.5564 33.2647 21.433 32.7048 27.176 26.3268C29.2114 24.0664 30.5322 21.264 30.9746 18.2672C31.1497 17.2053 30.4225 16.2038 29.3502 16.0303C29.2531 16.0145 29.155 16.006 29.0566 16.0049Z" fill="#8A8A8A"/>
</svg>
