<svg width="33" height="21" viewBox="0 0 33 21" fill="none" xmlns="http://www.w3.org/2000/svg">
<g id="Group 1000001861">
<g id="Group">
<path id="Vector" d="M3.13672 0.5H5.23973L5.95622 4.65567H6.05305L6.81601 0.5H9.1088L9.87177 4.65567H9.96859L10.6851 0.5H12.7881L11.4016 7.18857H8.77185L8.00888 3.22268H7.91206L7.14909 7.18857H4.52323L3.13672 0.5Z" fill="white"/>
<path id="Vector_2" d="M13.457 7.18857V0.5H15.6065V7.18857H13.457Z" fill="white"/>
<path id="Vector_3" d="M16.7539 7.18857V0.5H18.9034V2.79278H19.4766L20.9095 0.5H23.2991L21.3394 3.6061L23.4889 7.18857H21.0993L19.5695 4.75249H18.8995V7.18857H16.75H16.7539Z" fill="white"/>
<path id="Vector_4" d="M23.9727 7.18857V0.5H26.1221V7.18857H23.9727Z" fill="white"/>
</g>
<g id="Group_2">
<path id="Vector_5" d="M3.90625 13.9725V9.09642H5.24629V9.76644H5.29276C5.3741 9.61927 5.49416 9.48759 5.6452 9.36366C5.99377 9.08868 6.38881 8.95312 6.82258 8.95312C7.42675 8.95312 7.89926 9.12741 8.23233 9.47985C8.5654 9.83228 8.73581 10.3396 8.73581 11.0097V13.9725H7.39577V11.1994C7.39577 10.8431 7.30669 10.572 7.13241 10.3822C6.95813 10.1925 6.71026 10.0995 6.39268 10.0995C6.0751 10.0995 5.80399 10.2196 5.57936 10.4636C5.35473 10.7076 5.24629 11.0135 5.24629 11.3892V13.9686H3.90625V13.9725Z" fill="white"/>
<path id="Vector_6" d="M9.30469 9.0957H10.6912L11.5975 12.8215H12.1242L13.0305 9.0957H14.417L13.1273 13.9717H10.5944L9.30469 9.0957Z" fill="white"/>
<path id="Vector_7" d="M15.513 13.3644C15.0056 12.8648 14.7539 12.2528 14.7539 11.5325C14.7539 10.8121 15.0056 10.2041 15.513 9.70057C16.0204 9.20096 16.6439 8.94922 17.3798 8.94922C18.1156 8.94922 18.7508 9.19709 19.2349 9.69282C19.719 10.1886 19.963 10.8005 19.963 11.5286V11.8152H16.1404C16.1908 12.1328 16.3341 12.4039 16.5703 12.6285C16.8066 12.8531 17.0777 12.9616 17.3836 12.9616C17.7206 12.9616 18.0111 12.8648 18.255 12.675C18.3519 12.5937 18.4255 12.4968 18.4835 12.3884H19.9165C19.8081 12.7137 19.6493 13.0003 19.4402 13.2482C18.9289 13.8214 18.2473 14.108 17.3836 14.108C16.6439 14.108 16.0204 13.8562 15.5169 13.3566L15.513 13.3644ZM16.1869 11.0096H18.53C18.4797 10.754 18.3519 10.541 18.1427 10.3628C17.9336 10.1886 17.6819 10.0995 17.3836 10.0995C17.0854 10.0995 16.8298 10.1847 16.6207 10.359C16.4115 10.5333 16.2682 10.7463 16.1908 11.0096H16.1869Z" fill="white"/>
<path id="Vector_8" d="M20.4414 12.3962H21.8279C21.8705 12.5124 21.9441 12.617 22.037 12.7099C22.2423 12.9152 22.5211 13.0159 22.8775 13.0159C23.4197 13.0159 23.6908 12.8571 23.6908 12.5395C23.6908 12.4892 23.6792 12.4427 23.652 12.4001C23.6249 12.3575 23.5823 12.3187 23.5165 12.2839C23.4545 12.249 23.3926 12.218 23.3345 12.1948C23.2764 12.1677 23.1912 12.1406 23.0827 12.1135C22.9704 12.0864 22.8813 12.0631 22.8155 12.0515C22.7496 12.0399 22.6451 12.0167 22.5018 11.9857C22.3585 11.9547 22.2539 11.9315 22.1919 11.9198C21.185 11.7029 20.6815 11.2111 20.6815 10.4365C20.6815 10.0298 20.8635 9.68127 21.2315 9.3908C21.5994 9.10033 22.099 8.95703 22.738 8.95703C23.5901 8.95703 24.233 9.22039 24.659 9.75098C24.8449 9.97949 24.9688 10.2428 25.0308 10.5333H23.6908C23.6443 10.4365 23.5901 10.359 23.5204 10.2932C23.3228 10.1344 23.0634 10.0531 22.738 10.0531C22.5095 10.0531 22.3391 10.0879 22.2307 10.1615C22.1222 10.2351 22.068 10.3242 22.068 10.4326C22.068 10.4714 22.0758 10.5062 22.0912 10.5411C22.1067 10.5759 22.1339 10.6069 22.1726 10.6379C22.2113 10.6689 22.25 10.6921 22.2888 10.7153C22.3275 10.7386 22.3817 10.7618 22.4514 10.7812C22.5211 10.8044 22.5831 10.8238 22.6373 10.8432C22.6916 10.8625 22.7613 10.8819 22.8503 10.9012C22.9394 10.9206 23.0169 10.9361 23.0788 10.9477C23.1408 10.9593 23.226 10.9787 23.3267 10.9981C23.4274 11.0213 23.5126 11.0368 23.5746 11.0523C24.5738 11.2769 25.0734 11.7688 25.0734 12.5356C25.0734 12.9617 24.8759 13.3335 24.4809 13.6433C24.0858 13.957 23.5513 14.1119 22.8736 14.1119C21.9673 14.1119 21.3012 13.8253 20.8674 13.2521C20.6699 12.9926 20.5266 12.7022 20.4375 12.3923L20.4414 12.3962Z" fill="white"/>
<path id="Vector_9" d="M25.4609 10.2467V9.10035H26.0806V8.05078H27.4167V9.10035H28.7916V10.2467H27.4167V12.8261H28.8497V13.9725H26.0767V10.2467H25.457H25.4609Z" fill="white"/>
</g>
<path id="Vector_10" d="M0.802036 9.92365C0.782672 9.90041 0.759434 9.88105 0.743942 9.85394C0.720704 9.81521 0.716832 9.77648 0.732323 9.73388C0.740069 9.71064 0.732323 9.69515 0.716831 9.67966C0.616135 9.59833 0.530931 9.5015 0.457345 9.39306C0.43798 9.36208 0.437979 9.33884 0.465089 9.32335C0.488327 9.30785 0.507691 9.3156 0.530929 9.34271C0.592896 9.4163 0.654865 9.48988 0.720705 9.5596C0.743943 9.58671 0.774925 9.60607 0.798163 9.62544C0.829146 9.61382 0.856257 9.60607 0.883368 9.59445C0.891114 9.59445 0.89886 9.58283 0.89886 9.57509C0.937589 9.40855 0.987938 9.24589 1.05378 9.09097C1.05378 9.08322 1.05378 9.06773 1.05378 9.05611C1.01505 8.99027 1.01118 8.92443 1.05378 8.85859C1.06152 8.8431 1.0654 8.83148 1.05378 8.81599C0.987938 8.6998 0.933716 8.572 0.894986 8.44419C0.891113 8.4287 0.883367 8.42482 0.864002 8.42095C0.829145 8.4132 0.798162 8.40159 0.75556 8.38997C0.68972 8.42482 0.511564 8.58749 0.406995 8.71142C0.437978 8.75402 0.453471 8.8005 0.441853 8.85472C0.434107 8.90507 0.403123 8.94767 0.356647 8.97865C0.379885 9.03288 0.399249 9.0871 0.422487 9.14132C0.434106 9.1723 0.414741 9.20716 0.383758 9.20328C0.368266 9.20328 0.348902 9.18779 0.345029 9.1723C0.321791 9.12583 0.302426 9.07548 0.286934 9.02513C0.279188 9.00964 0.275315 9.00189 0.25595 8.99802C0.174618 8.99027 0.116526 8.93218 0.101035 8.85085C0.0855429 8.76952 0.124272 8.6998 0.197858 8.66107C0.21335 8.65333 0.217221 8.64558 0.217221 8.63009C0.209475 8.40546 0.252078 8.19632 0.345029 7.99105C0.430234 7.80128 0.550296 7.63862 0.709087 7.50306C0.720705 7.49532 0.728449 7.48757 0.724576 7.46821C0.705211 7.39075 0.732323 7.32103 0.798163 7.27843C0.864003 7.23583 0.941461 7.23583 1.00343 7.28618C1.01892 7.2978 1.03054 7.2978 1.04603 7.29005C1.0499 7.29005 1.05765 7.28231 1.0654 7.28231C1.11574 7.26681 1.14673 7.2397 1.15835 7.18161C1.17384 7.11577 1.22806 7.08091 1.29777 7.06929C1.36749 7.05767 1.42558 7.08091 1.46431 7.14288C1.4798 7.16612 1.49142 7.16612 1.51466 7.16612C1.71992 7.14675 1.91744 7.17386 2.11109 7.24358C2.54873 7.40237 2.84308 7.70058 2.99799 8.13823C3.00187 8.15372 3.00961 8.15759 3.0251 8.16146C3.10644 8.17308 3.16453 8.2273 3.18002 8.30476C3.19552 8.38222 3.16066 8.45193 3.08707 8.49066C3.07158 8.49841 3.06771 8.51003 3.06771 8.52552C3.07933 8.79663 3.01736 9.04837 2.88568 9.28462C2.80047 9.43566 2.69203 9.56734 2.55648 9.67966C2.54099 9.69128 2.53711 9.70289 2.54099 9.72226C2.55648 9.79585 2.52162 9.86556 2.45966 9.90429C2.39769 9.94302 2.32023 9.93914 2.26213 9.89267C2.24664 9.88105 2.23502 9.88105 2.21953 9.89267C1.9097 10.0243 1.59212 10.0437 1.27066 9.95464C1.20482 9.93914 1.14673 9.90816 1.08089 9.8888C1.07314 9.8888 1.05765 9.88492 1.05378 9.8888C1.0073 9.93527 0.949208 9.95076 0.883368 9.94302C0.864003 9.93527 0.840764 9.92365 0.821399 9.91591L0.802036 9.92365ZM1.32876 9.08322C1.32876 9.08322 1.32875 9.09097 1.33263 9.09097C1.56113 9.36208 1.84386 9.55185 2.17693 9.66804C2.19242 9.67191 2.20017 9.66804 2.21179 9.65642C2.23503 9.62544 2.26601 9.6022 2.30474 9.59445C2.3241 9.59058 2.32798 9.58283 2.32798 9.56347C2.3396 9.3582 2.32798 9.15294 2.29312 8.95154C2.24664 8.68431 2.16144 8.43257 2.04138 8.19245C2.03363 8.18083 2.02589 8.17695 2.01427 8.17695C1.97941 8.17308 1.94456 8.16534 1.9097 8.15372C1.89033 8.14597 1.87871 8.1421 1.85935 8.15759C1.67732 8.30864 1.5224 8.47904 1.38685 8.67269C1.35587 8.71917 1.32488 8.76564 1.29777 8.81212C1.38298 8.89732 1.39459 8.97865 1.33263 9.07548L1.32876 9.08322ZM2.16918 7.98331C2.16918 7.98331 2.17693 7.98331 2.1808 7.98331C2.25052 7.9988 2.32023 8.01429 2.39382 8.02978C2.42093 8.03753 2.43254 8.05689 2.42867 8.084C2.42093 8.10724 2.39769 8.11886 2.37058 8.11499C2.35508 8.11499 2.3396 8.10724 2.3241 8.10337C2.26988 8.09175 2.21179 8.08013 2.15757 8.06851C2.14982 8.08013 2.14595 8.08788 2.14207 8.09562C2.1382 8.10337 2.13046 8.11499 2.12658 8.11886C2.10722 8.13435 2.11109 8.14597 2.12271 8.16534C2.33959 8.59523 2.44029 9.04837 2.41705 9.53249C2.41705 9.57509 2.41705 9.61382 2.46353 9.62931C2.4674 9.62931 2.47127 9.63318 2.47515 9.63705C2.47902 9.63705 2.48289 9.63318 2.48677 9.62931C2.81984 9.34658 2.97863 8.9864 2.97088 8.54876C2.97088 8.52939 2.95927 8.52552 2.94377 8.51777C2.8547 8.48679 2.80822 8.4132 2.81984 8.32025C2.81984 8.31638 2.81984 8.30864 2.81984 8.30089C2.754 8.26603 2.68429 8.23505 2.61845 8.20407C2.58746 8.18857 2.57972 8.16921 2.59133 8.14597C2.60295 8.11886 2.62619 8.11111 2.65718 8.12661C2.72689 8.15759 2.7966 8.19245 2.86632 8.2273C2.87793 8.21956 2.88955 8.20794 2.90504 8.19632C2.85082 8.02204 2.76175 7.86712 2.64556 7.73157C2.63394 7.71607 2.62232 7.72382 2.6107 7.72769C2.46353 7.78191 2.3241 7.85163 2.19242 7.92909C2.16918 7.94071 2.15756 7.95232 2.17693 7.98331H2.16918ZM2.17693 9.81521C2.1808 9.77261 2.16531 9.75324 2.13046 9.74162C1.94068 9.67578 1.7664 9.58283 1.60761 9.46665C1.48368 9.37369 1.37136 9.26912 1.27066 9.14906C1.26679 9.14132 1.25517 9.13357 1.24743 9.13357C1.2087 9.13357 1.16997 9.13357 1.12349 9.14132C1.07314 9.29624 1.0228 9.45503 0.972447 9.61769C1.05765 9.66029 1.08476 9.72613 1.07702 9.81134C1.44494 9.95076 1.809 9.95851 2.17693 9.81521ZM0.89886 7.61925C0.879495 7.75868 0.879494 7.90198 0.891112 8.0414C0.891112 8.06851 0.898861 8.08788 0.929844 8.09175C0.941463 8.09175 0.956953 8.0995 0.960826 8.10724C0.995682 8.14597 1.03054 8.1421 1.06927 8.11499C1.30165 8.01816 1.54177 7.96394 1.79351 7.9562C1.80513 7.9562 1.81675 7.95232 1.82449 7.94458C1.83611 7.92909 1.84386 7.90585 1.85548 7.89036C1.73154 7.71607 1.58824 7.55728 1.42558 7.41399C1.41783 7.41011 1.40622 7.41011 1.39847 7.41399C1.34038 7.44497 1.28228 7.44884 1.22806 7.41399C1.20095 7.39849 1.17771 7.37526 1.1506 7.35202C1.12349 7.36364 1.09251 7.37526 1.06152 7.39075C1.08476 7.50306 1.0228 7.59601 0.902734 7.61925H0.89886ZM2.10335 7.86712C2.25826 7.78966 2.40931 7.71607 2.56035 7.63862C2.25826 7.35976 1.89808 7.23583 1.48368 7.26681C1.48368 7.27843 1.48367 7.29005 1.47593 7.2978C1.46431 7.32491 1.47593 7.3404 1.49529 7.35589C1.55339 7.41011 1.61148 7.46046 1.6657 7.51855C1.75091 7.61538 1.83224 7.71995 1.91357 7.81677C1.92132 7.82452 1.93294 7.83226 1.94068 7.83226C2.00265 7.81677 2.05687 7.83226 2.09947 7.86325L2.10335 7.86712ZM1.12349 8.79663C1.14673 8.79663 1.16609 8.78888 1.18546 8.78888C1.20482 8.78888 1.21257 8.78113 1.22419 8.76564C1.28615 8.67269 1.34812 8.57974 1.41396 8.49454C1.53015 8.34349 1.6657 8.20794 1.809 8.08788C1.81675 8.08013 1.82062 8.06851 1.82062 8.06077C1.82062 8.05689 1.80513 8.04915 1.79738 8.04915C1.5379 8.05689 1.2939 8.11499 1.05765 8.21956C1.0499 8.21956 1.04216 8.23892 1.04216 8.24667C1.04216 8.30864 1.0228 8.35898 0.972447 8.39384C0.960828 8.40546 0.960826 8.4132 0.964699 8.42482C0.980191 8.46743 0.991811 8.51003 1.01118 8.55263C1.04603 8.63396 1.08476 8.71529 1.11962 8.79663H1.12349ZM0.767178 7.57665C0.767178 7.57665 0.743942 7.59601 0.732323 7.60376C0.608389 7.71607 0.507691 7.84775 0.434105 7.9988C0.337281 8.19632 0.286936 8.40933 0.294682 8.63009C0.294682 8.64171 0.302425 8.65333 0.310171 8.66107C0.325663 8.67269 0.33341 8.66107 0.345029 8.64945C0.426361 8.56812 0.511566 8.48679 0.596771 8.40546C0.631627 8.37448 0.670356 8.34736 0.705213 8.32025C0.678102 8.21181 0.705212 8.16146 0.809781 8.08788C0.794289 7.94071 0.790416 7.79741 0.809781 7.65023C0.813654 7.61538 0.813654 7.58827 0.767178 7.57665ZM1.22806 7.22421C1.20869 7.27069 1.22806 7.32103 1.27066 7.3404C1.31714 7.35976 1.36749 7.3404 1.38685 7.29392C1.40622 7.25132 1.38685 7.20097 1.34038 7.18161C1.2939 7.16224 1.24355 7.18161 1.22419 7.22421H1.22806ZM0.941463 9.69902C0.894987 9.67966 0.844638 9.69902 0.825273 9.74162C0.805908 9.78423 0.825273 9.83845 0.867876 9.85781C0.910478 9.87718 0.964701 9.85781 0.984065 9.81521C1.00343 9.76873 0.984065 9.71839 0.941463 9.69902ZM0.918223 7.35976C0.871748 7.3404 0.821401 7.35976 0.802036 7.40624C0.782672 7.44884 0.802035 7.50306 0.84851 7.52243C0.894985 7.54179 0.945335 7.52243 0.964699 7.47595C0.984064 7.42948 0.964698 7.383 0.918223 7.35976ZM2.02588 7.92521C1.97941 7.90585 1.92906 7.92521 1.9097 7.96782C1.89033 8.01042 1.9097 8.06464 1.95617 8.084C1.99877 8.10337 2.05687 8.084 2.07236 8.03753C2.09173 7.99105 2.07236 7.94071 2.02588 7.92134V7.92521ZM0.298553 8.75402C0.252077 8.73466 0.201731 8.75402 0.182366 8.79663C0.159128 8.8431 0.182364 8.89345 0.22884 8.91669C0.271442 8.93605 0.321791 8.91669 0.345029 8.87408C0.364394 8.83148 0.345029 8.77726 0.302426 8.7579L0.298553 8.75402ZM3.07158 8.38609C3.09095 8.33962 3.07158 8.28927 3.02898 8.26991C2.9825 8.25054 2.93215 8.26991 2.91279 8.31251C2.89342 8.35898 2.91279 8.40546 2.95539 8.4287C3.00187 8.44806 3.05222 8.4287 3.07158 8.38609ZM1.27066 9.00189C1.29003 8.95542 1.27066 8.90507 1.22419 8.8857C1.18158 8.86634 1.12736 8.8857 1.108 8.93218C1.08863 8.97865 1.108 9.029 1.15447 9.04837C1.20095 9.06773 1.2513 9.04837 1.27066 9.00189ZM2.38607 9.68353C2.34347 9.66417 2.28925 9.68353 2.26988 9.72613C2.25052 9.76873 2.26988 9.82296 2.31636 9.84232C2.35896 9.86169 2.41318 9.84232 2.43255 9.79972C2.45191 9.75712 2.43254 9.70289 2.38607 9.68353ZM0.902734 8.17695C0.856258 8.15759 0.805909 8.17696 0.786544 8.21956C0.76718 8.26216 0.786545 8.31638 0.833021 8.33575C0.875623 8.35511 0.929842 8.33575 0.949207 8.28927C0.968572 8.24279 0.949209 8.19632 0.902734 8.17308V8.17695Z" fill="white"/>
<path id="Vector_11" d="M1.46425 10.4537C1.28222 10.4382 1.10794 10.3956 0.941406 10.3298V13.9742H2.42861V10.2949C2.12265 10.4305 1.8012 10.4847 1.46425 10.4537Z" fill="white"/>
<path id="Vector_12" d="M9.39453 20.365V15.489H10.7346V16.159H10.781C10.8701 16.0002 10.9786 15.8647 11.1064 15.7562C11.4201 15.4813 11.788 15.3457 12.214 15.3457C12.7253 15.3457 13.1513 15.4967 13.496 15.8027C13.6354 15.9383 13.7516 16.0854 13.8407 16.252H13.8871C13.9762 16.0854 14.0924 15.9383 14.2318 15.8027C14.5765 15.4967 14.9871 15.3457 15.4634 15.3457C16.0482 15.3457 16.5053 15.5239 16.8345 15.8763C17.1637 16.2287 17.3263 16.7361 17.3263 17.4022V20.365H15.9863V17.5455C15.9863 16.8445 15.6842 16.496 15.08 16.496C14.7857 16.496 14.5378 16.6122 14.3364 16.8407C14.1311 17.0692 14.0304 17.3713 14.0304 17.7392V20.3689H12.6904V17.5494C12.6904 16.8484 12.3883 16.4998 11.7841 16.4998C11.4898 16.4998 11.2419 16.616 11.0405 16.8445C10.8353 17.073 10.7346 17.3751 10.7346 17.7431V20.3728H9.39453V20.365Z" fill="white"/>
<path id="Vector_13" d="M18.806 19.757C18.2986 19.2573 18.0469 18.6454 18.0469 17.9251C18.0469 17.2047 18.2986 16.5966 18.806 16.0931C19.3133 15.5935 19.9369 15.3418 20.6727 15.3418C21.4086 15.3418 22.0437 15.5897 22.5279 16.0854C23.012 16.5811 23.256 17.1931 23.256 17.9212V18.2078H19.4334C19.4837 18.5254 19.627 18.7965 19.8633 19.0211C20.0995 19.2457 20.3706 19.3542 20.6766 19.3542C21.0135 19.3542 21.304 19.2573 21.548 19.0676C21.6448 18.9862 21.7184 18.8894 21.7765 18.781H23.2095C23.1011 19.1063 22.9423 19.3929 22.7331 19.6408C22.2219 20.214 21.5403 20.5006 20.6766 20.5006C19.9369 20.5006 19.3133 20.2488 18.8098 19.7492L18.806 19.757ZM19.4799 17.4022H21.823C21.7726 17.1466 21.6448 16.9336 21.4357 16.7554C21.2266 16.5811 20.9748 16.4921 20.6766 16.4921C20.3784 16.4921 20.1228 16.5773 19.9136 16.7515C19.7045 16.9258 19.5612 17.1388 19.4837 17.4022H19.4799Z" fill="white"/>
<path id="Vector_14" d="M24.0625 20.365V15.489H25.4025V16.159H25.449C25.5303 16.0118 25.6504 15.8802 25.8015 15.7562C26.15 15.4813 26.5451 15.3457 26.9788 15.3457C27.583 15.3457 28.0555 15.52 28.3886 15.8724C28.7217 16.2249 28.8921 16.7322 28.8921 17.4022V20.365H27.552V17.592C27.552 17.2357 27.4629 16.9646 27.2887 16.7748C27.1144 16.585 26.8665 16.4921 26.5489 16.4921C26.2313 16.4921 25.9602 16.6122 25.7356 16.8562C25.511 17.1001 25.4025 17.4061 25.4025 17.7818V20.3612H24.0625V20.365Z" fill="white"/>
<path id="Vector_15" d="M29.5117 16.6393V15.4929H30.1314V14.4434H31.4675V15.4929H32.8424V16.6393H31.4675V19.2187H32.9005V20.3651H30.1275V16.6393H29.5078H29.5117Z" fill="white"/>
</g>
</svg>
