<svg width="20" height="20" viewBox="0 0 20 20" fill="none" xmlns="http://www.w3.org/2000/svg">
<path d="M18.1782 3.08954V5.91094C18.1782 6.12784 18.0921 6.33585 17.9387 6.48922C17.7854 6.64258 17.5773 6.72874 17.3605 6.72874H14.4982C14.3796 6.73009 14.2622 6.70564 14.154 6.6571C14.0459 6.60855 13.9496 6.53708 13.8718 6.44762C13.794 6.35816 13.7366 6.25286 13.7035 6.13901C13.6705 6.02516 13.6626 5.90548 13.6804 5.78827C13.7188 5.58989 13.826 5.41143 13.9831 5.28428C14.1401 5.15713 14.337 5.08945 14.539 5.09315H15.4795C14.527 4.03237 13.2869 3.27106 11.9099 2.90174C10.5328 2.53241 9.0782 2.57095 7.72268 3.01269C6.36715 3.45443 5.1691 4.28034 4.27408 5.39007C3.37906 6.49981 2.82561 7.8456 2.68096 9.26392C2.66062 9.46635 2.56555 9.65392 2.41434 9.79002C2.26312 9.92611 2.0666 10.001 1.86316 9.99994C1.74852 10.0005 1.63505 9.97698 1.53009 9.93087C1.42514 9.88475 1.33105 9.81709 1.25394 9.73226C1.17682 9.64744 1.1184 9.54735 1.08247 9.43849C1.04654 9.32962 1.03389 9.21442 1.04536 9.10036C1.21711 7.38344 1.87903 5.75214 2.95217 4.40097C4.02532 3.04979 5.46442 2.03576 7.09788 1.47978C8.73135 0.923801 10.4902 0.84933 12.1649 1.26525C13.8395 1.68117 15.3591 2.56993 16.5427 3.82556V3.04865C16.5413 2.9301 16.5658 2.81269 16.6143 2.70453C16.6628 2.59637 16.7343 2.50006 16.8238 2.42227C16.9132 2.34448 17.0185 2.28707 17.1324 2.25402C17.2462 2.22096 17.3659 2.21306 17.4831 2.23085C17.6815 2.26931 17.86 2.3765 17.9871 2.53356C18.1143 2.69062 18.1819 2.88749 18.1782 3.08954Z" fill="white"/>
<path d="M1.82174 16.9105V14.0891C1.82174 13.8722 1.9079 13.6641 2.06127 13.5108C2.21463 13.3574 2.42264 13.2713 2.63954 13.2713H5.50183C5.62038 13.2699 5.73779 13.2944 5.84595 13.3429C5.95411 13.3914 6.05042 13.4629 6.12821 13.5524C6.206 13.6418 6.26341 13.7471 6.29646 13.861C6.32952 13.9748 6.33742 14.0945 6.31963 14.2117C6.28118 14.4101 6.17399 14.5886 6.01692 14.7157C5.85986 14.8429 5.66299 14.9105 5.46094 14.9069H4.52047C5.47301 15.9676 6.71312 16.7289 8.09014 17.0983C9.46715 17.4676 10.9218 17.429 12.2773 16.9873C13.6328 16.5456 14.8309 15.7197 15.7259 14.6099C16.6209 13.5002 17.1744 12.1544 17.319 10.7361C17.3394 10.5337 17.4344 10.3461 17.5857 10.21C17.7369 10.0739 17.9334 9.99904 18.1368 10.0001C18.2515 9.99948 18.3649 10.023 18.4699 10.0691C18.5749 10.1152 18.6689 10.1829 18.7461 10.2677C18.8232 10.3526 18.8816 10.4526 18.9175 10.5615C18.9534 10.6704 18.9661 10.7856 18.9546 10.8996C18.7829 12.6166 18.121 14.2479 17.0478 15.599C15.9747 16.9502 14.5356 17.9642 12.9021 18.5202C11.2686 19.0762 9.50974 19.1507 7.83513 18.7347C6.16052 18.3188 4.64085 17.4301 3.45734 16.1744V16.9513C3.45868 17.0699 3.43423 17.1873 3.38569 17.2955C3.33715 17.4036 3.26567 17.4999 3.17621 17.5777C3.08675 17.6555 2.98145 17.7129 2.8676 17.746C2.75375 17.779 2.63408 17.7869 2.51687 17.7691C2.31848 17.7307 2.14002 17.6235 2.01287 17.4664C1.88573 17.3094 1.81804 17.1125 1.82174 16.9105Z" fill="white"/>
<path d="M10.2864 9.18225C8.85525 8.89602 8.85525 8.65068 8.85525 8.44623C8.85525 8.24178 8.93703 8.20089 9.0597 8.07822C9.28529 7.95695 9.54 7.90034 9.79572 7.91466C10.2708 7.91054 10.7378 8.03791 11.1451 8.28267C11.2279 8.35022 11.3244 8.39894 11.4279 8.42544C11.5314 8.45195 11.6394 8.4556 11.7445 8.43614C11.8495 8.41669 11.9491 8.37459 12.0362 8.31279C12.1234 8.25098 12.196 8.17094 12.2491 8.07822C12.3192 7.99461 12.3709 7.89717 12.4008 7.79224C12.4308 7.68732 12.4382 7.57728 12.4228 7.46927C12.4074 7.36126 12.3694 7.25771 12.3113 7.16536C12.2532 7.07302 12.1763 6.99395 12.0856 6.9333C11.6967 6.6933 11.267 6.52697 10.818 6.44262V5.50216C10.818 5.28526 10.7318 5.07725 10.5784 4.92388C10.4251 4.77052 10.2171 4.68436 10.0002 4.68436C9.78327 4.68436 9.57526 4.77052 9.4219 4.92388C9.26853 5.07725 9.18237 5.28526 9.18237 5.50216V6.40173C7.95567 6.60618 7.13787 7.42398 7.13787 8.52801C7.13787 9.63204 8.48724 10.5316 9.79572 10.777C11.1042 11.0223 11.1451 11.3085 11.1451 11.513C11.1451 11.7174 10.6953 12.0854 10.1228 12.0854C9.52078 12.0973 8.93157 11.9105 8.44635 11.5539C8.35549 11.4935 8.25345 11.4518 8.14626 11.4314C8.03906 11.4111 7.92887 11.4124 7.82218 11.4352C7.71548 11.4581 7.61445 11.5021 7.52501 11.5646C7.43558 11.6271 7.35956 11.7069 7.30143 11.7992C7.23695 11.8759 7.18882 11.9649 7.15996 12.0609C7.13111 12.1568 7.12215 12.2577 7.13364 12.3572C7.14512 12.4567 7.17681 12.5529 7.22675 12.6397C7.2767 12.7266 7.34385 12.8024 7.4241 12.8623C7.95026 13.2316 8.55006 13.4827 9.18237 13.5984V14.4979C9.18237 14.7148 9.26853 14.9228 9.4219 15.0762C9.57526 15.2296 9.78327 15.3157 10.0002 15.3157C10.2171 15.3157 10.4251 15.2296 10.5784 15.0762C10.7318 14.9228 10.818 14.7148 10.818 14.4979V13.5984C11.2665 13.5322 11.6897 13.3489 12.0447 13.0668C12.301 12.8786 12.5088 12.6321 12.651 12.3477C12.7932 12.0633 12.8657 11.7492 12.8625 11.4312C12.8625 9.91827 11.4722 9.42759 10.2864 9.18225Z" fill="white"/>
</svg>
