<svg width="20" height="20" viewBox="0 0 20 20" fill="none" xmlns="http://www.w3.org/2000/svg">
<path fill-rule="evenodd" clip-rule="evenodd" d="M10.8523 8.81086L11.2895 10.1155L11.578 10.9994C12.3329 13.3435 12.7 14.7668 12.7 15.4C12.7 16.8912 11.4912 18.1 10 18.1C8.50883 18.1 7.3 16.8912 7.3 15.4C7.3 14.6909 7.76048 12.9905 8.7105 10.1155L9.14771 8.81086C9.42402 7.99637 10.576 7.99637 10.8523 8.81086ZM10 1.89999C14.9706 1.89999 19 5.92943 19 10.9C19 12.7051 18.4666 14.4332 17.4831 15.9018C17.2065 16.3148 16.6475 16.4255 16.2345 16.1489C15.8215 15.8723 15.7109 15.3133 15.9874 14.9003C16.774 13.7257 17.2 12.3457 17.2 10.9C17.2 6.92354 13.9764 3.69999 10 3.69999C6.02355 3.69999 2.8 6.92354 2.8 10.9C2.8 12.3457 3.22601 13.7257 4.01255 14.9003C4.28911 15.3133 4.17849 15.8723 3.76548 16.1489C3.35246 16.4255 2.79346 16.3148 2.5169 15.9018C1.53345 14.4332 1 12.7051 1 10.9C1 5.92943 5.02944 1.89999 10 1.89999ZM10 11.9791L9.7044 12.9337L9.50007 13.6275C9.2349 14.5549 9.1 15.1555 9.1 15.4C9.1 15.897 9.50294 16.3 10 16.3C10.4971 16.3 10.9 15.897 10.9 15.4C10.9 15.101 10.6983 14.2697 10.3034 12.9596L10 11.9791Z" fill="white"/>
</svg>
