<svg width="20" height="20" viewBox="0 0 20 20" fill="none" xmlns="http://www.w3.org/2000/svg">
<path d="M7.75088 18.9998H1.7501C1.55116 18.9998 1.36037 18.9208 1.2197 18.7802C1.07903 18.6396 1 18.4489 1 18.25C1 18.0512 1.07903 17.8604 1.2197 17.7198C1.36037 17.5792 1.55116 17.5002 1.7501 17.5002H7.75088C7.94981 17.5002 8.1406 17.5792 8.28127 17.7198C8.42194 17.8604 8.50097 18.0512 8.50097 18.25C8.50097 18.4489 8.42194 18.6396 8.28127 18.7802C8.1406 18.9208 7.94981 18.9998 7.75088 18.9998Z" fill="white"/>
<path d="M6.25068 16.0008H1.7501C1.55116 16.0008 1.36037 15.9218 1.2197 15.7812C1.07903 15.6406 1 15.4499 1 15.2511C1 15.0522 1.07903 14.8615 1.2197 14.7209C1.36037 14.5803 1.55116 14.5013 1.7501 14.5013H6.25068C6.44962 14.5013 6.64041 14.5803 6.78108 14.7209C6.92175 14.8615 7.00078 15.0522 7.00078 15.2511C7.00078 15.4499 6.92175 15.6406 6.78108 15.7812C6.64041 15.9218 6.44962 16.0008 6.25068 16.0008Z" fill="white"/>
<path d="M4.75049 13.0015H1.7501C1.55116 13.0015 1.36037 12.9225 1.2197 12.7819C1.07903 12.6413 1 12.4506 1 12.2517C1 12.0529 1.07903 11.8622 1.2197 11.7215C1.36037 11.5809 1.55116 11.5019 1.7501 11.5019H4.75049C4.94942 11.5019 5.14021 11.5809 5.28088 11.7215C5.42156 11.8622 5.50058 12.0529 5.50058 12.2517C5.50058 12.4506 5.42156 12.6413 5.28088 12.7819C5.14021 12.9225 4.94942 13.0015 4.75049 13.0015Z" fill="white"/>
<path d="M10.7488 18.9662C10.5499 18.975 10.3556 18.9045 10.2086 18.7702C10.0617 18.6358 9.97418 18.4486 9.96533 18.2498C9.95648 18.0509 10.027 17.8567 10.1614 17.7098C10.2958 17.563 10.4831 17.4755 10.682 17.4666C12.1016 17.3368 13.4547 16.8053 14.583 15.9345C15.7112 15.0637 16.5678 13.8895 17.0526 12.5496C17.5373 11.2097 17.63 9.75939 17.3198 8.36868C17.0097 6.97796 16.3095 5.70438 15.3013 4.69709C14.2932 3.6898 13.0187 2.99051 11.6273 2.68114C10.2358 2.37176 8.78497 2.4651 7.44468 2.95022C6.10439 3.43535 4.93014 4.29217 4.05946 5.42034C3.18878 6.54851 2.65772 7.90131 2.52849 9.32029C2.51059 9.51835 2.4147 9.70118 2.26193 9.82858C2.10917 9.95597 1.91203 10.0175 1.71388 9.99959C1.51574 9.98169 1.33283 9.88585 1.20538 9.73314C1.07793 9.58044 1.01639 9.38339 1.0343 9.18533C1.24349 6.87849 2.33467 4.74117 4.08069 3.21827C5.82671 1.69538 8.09304 0.904236 10.4079 1.00954C12.7228 1.11484 14.9079 2.10848 16.5083 3.78361C18.1087 5.45874 19.0012 7.68629 18.9999 10.0026C19.0114 12.2507 18.1758 14.4207 16.6595 16.081C15.1431 17.7414 13.0571 18.7703 10.8163 18.9632C10.7938 18.9654 10.7706 18.9662 10.7488 18.9662Z" fill="white"/>
<path d="M10.0019 5.50319C9.80293 5.50319 9.61214 5.58218 9.47147 5.72279C9.3308 5.8634 9.25177 6.05411 9.25177 6.25297V10.0019C9.25181 10.2007 9.33087 10.3914 9.47155 10.5319L11.7218 12.7813C11.8633 12.9179 12.0528 12.9934 12.2495 12.9917C12.4461 12.99 12.6343 12.9112 12.7733 12.7721C12.9124 12.6331 12.9913 12.4451 12.993 12.2485C12.9947 12.0519 12.9191 11.8625 12.7825 11.7211L10.752 9.69145V6.25297C10.752 6.05411 10.6729 5.8634 10.5323 5.72279C10.3916 5.58218 10.2008 5.50319 10.0019 5.50319Z" fill="white"/>
</svg>
