<svg width="18" height="18" viewBox="0 0 18 18" fill="none" xmlns="http://www.w3.org/2000/svg">
<g clip-path="url(#clip0_10990_17449)">
<path d="M18 14.25C18 15.4905 16.9905 16.5 15.75 16.5V17.25C15.75 17.664 15.4148 18 15 18C14.5852 18 14.25 17.664 14.25 17.25V16.5H14.049C13.2487 16.5 12.5017 16.0695 12.1005 15.3757C11.8927 15.0173 12.0157 14.559 12.3735 14.3512C12.7335 14.1427 13.1918 14.2665 13.398 14.625C13.5323 14.856 13.7812 15 14.0483 15H15.7493C16.1632 15 16.4993 14.664 16.4993 14.25C16.4993 13.9665 16.296 13.7265 16.0162 13.68L13.7355 13.2997C12.729 13.1325 11.9992 12.27 11.9992 11.25C11.9992 10.0095 13.0088 9 14.2493 9V8.25C14.2493 7.836 14.5845 7.5 14.9993 7.5C15.414 7.5 15.7493 7.836 15.7493 8.25V9H15.9503C16.7505 9 17.4975 9.4305 17.8988 10.1242C18.1065 10.4827 17.9835 10.941 17.6257 11.1488C17.265 11.3558 16.8075 11.2327 16.6012 10.875C16.467 10.644 16.218 10.5 15.951 10.5H14.25C13.836 10.5 13.5 10.836 13.5 11.25C13.5 11.5335 13.7032 11.7735 13.983 11.82L16.2638 12.2003C17.2703 12.3675 18 13.23 18 14.25ZM5.25 6.75C4.836 6.75 4.5 7.086 4.5 7.5V17.25C4.5 17.664 4.836 18 5.25 18C5.664 18 6 17.664 6 17.25V7.5C6 7.086 5.664 6.75 5.25 6.75ZM1.5 9C1.086 9 0.75 9.336 0.75 9.75V17.25C0.75 17.664 1.086 18 1.5 18C1.914 18 2.25 17.664 2.25 17.25V9.75C2.25 9.336 1.914 9 1.5 9ZM9 4.5C8.586 4.5 8.25 4.836 8.25 5.25V17.25C8.25 17.664 8.586 18 9 18C9.414 18 9.75 17.664 9.75 17.25V5.25C9.75 4.836 9.414 4.5 9 4.5ZM16.5 6C16.9147 6 17.25 5.664 17.25 5.25V0.75C17.25 0.336 16.9147 0 16.5 0C16.0852 0 15.75 0.336 15.75 0.75V5.25C15.75 5.664 16.0852 6 16.5 6ZM12.75 6.75C13.1648 6.75 13.5 6.414 13.5 6V3C13.5 2.586 13.1648 2.25 12.75 2.25C12.3352 2.25 12 2.586 12 3V6C12 6.414 12.3352 6.75 12.75 6.75Z" fill="white"/>
</g>
<defs>
<clipPath id="clip0_10990_17449">
<rect width="18" height="18" fill="white"/>
</clipPath>
</defs>
</svg>
