<svg width="20" height="20" viewBox="0 0 20 20" fill="none" xmlns="http://www.w3.org/2000/svg">
<path d="M10 19C5.03667 19 1 14.9633 1 10C1 5.03667 5.03667 1 10 1C14.9633 1 19 5.03667 19 10C19 14.9633 14.9633 19 10 19ZM10 2.33333C5.77333 2.33333 2.33333 5.77333 2.33333 10C2.33333 14.2267 5.77333 17.6667 10 17.6667C14.2267 17.6667 17.6667 14.2267 17.6667 10C17.6667 5.77333 14.2267 2.33333 10 2.33333Z" fill="white"/>
<path d="M9.92594 12.5589C6.77427 12.5589 4.21094 9.99557 4.21094 6.84391C4.21094 3.69224 6.77594 1.12891 9.92594 1.12891C13.0759 1.12891 15.6409 3.69224 15.6409 6.84391C15.6409 9.99557 13.0776 12.5589 9.92594 12.5589ZM9.92594 2.46224C7.50927 2.46224 5.54427 4.42724 5.54427 6.84391C5.54427 9.26057 7.50927 11.2256 9.92594 11.2256C12.3426 11.2256 14.3076 9.26057 14.3076 6.84391C14.3076 4.42724 12.3426 2.46224 9.92594 2.46224Z" fill="white"/>
<path d="M11.8542 10.638C9.76417 10.638 8.0625 8.93634 8.0625 6.84634C8.0625 4.75634 9.76417 3.05467 11.8542 3.05467C13.9442 3.05467 15.6458 4.75467 15.6458 6.84634C15.6458 8.93801 13.9458 10.638 11.8542 10.638ZM11.8542 4.38801C10.4992 4.38801 9.39583 5.49134 9.39583 6.84634C9.39583 8.20134 10.4992 9.30467 11.8542 9.30467C13.2092 9.30467 14.3125 8.20134 14.3125 6.84634C14.3125 5.49134 13.2092 4.38801 11.8542 4.38801Z" fill="white"/>
<path d="M11.8723 10.604C10.4356 10.604 9.26562 9.43563 9.26562 7.99729C9.26562 6.55896 10.434 5.39062 11.8723 5.39062C13.3106 5.39062 14.479 6.55896 14.479 7.99729C14.479 9.43563 13.3106 10.604 11.8723 10.604ZM11.8723 6.72562C11.1706 6.72562 10.599 7.29729 10.599 7.99896C10.599 8.70062 11.1706 9.27229 11.8723 9.27229C12.574 9.27229 13.1456 8.70062 13.1456 7.99896C13.1456 7.29729 12.574 6.72562 11.8723 6.72562Z" fill="white"/>
</svg>
