<svg width="20" height="20" viewBox="0 0 20 20" fill="none" xmlns="http://www.w3.org/2000/svg">
<path fill-rule="evenodd" clip-rule="evenodd" d="M15.9918 12.3816C15.1185 12.6904 14.4926 13.524 14.4926 14.5022C14.4926 15.4805 15.1185 16.3141 15.9918 16.6229V18.2504C15.9918 18.6642 16.3276 19 16.7414 19C17.1552 19 17.4911 18.6642 17.4911 18.2504V16.6229C18.3644 16.3141 18.9903 15.4805 18.9903 14.5022C18.9903 13.524 18.3644 12.6904 17.4911 12.3816V1.74963C17.4911 1.33583 17.1552 1 16.7414 1C16.3276 1 15.9918 1.33583 15.9918 1.74963V12.3816ZM16.7414 13.7526C17.1552 13.7526 17.4911 14.0885 17.4911 14.5022C17.4911 14.916 17.1552 15.2519 16.7414 15.2519C16.3276 15.2519 15.9918 14.916 15.9918 14.5022C15.9918 14.0885 16.3276 13.7526 16.7414 13.7526Z" fill="white"/>
<path fill-rule="evenodd" clip-rule="evenodd" d="M9.24968 3.37706C8.37711 3.68591 7.75043 4.51874 7.75043 5.49775C7.75043 6.47601 8.37711 7.3096 9.24968 7.61844V18.2504C9.24968 18.6642 9.58551 19 9.9993 19C10.4131 19 10.7489 18.6642 10.7489 18.2504V7.61844C11.6222 7.3096 12.2482 6.47601 12.2482 5.49775C12.2482 4.51874 11.6222 3.68591 10.7489 3.37706V1.74963C10.7489 1.33583 10.4131 1 9.9993 1C9.58551 1 9.24968 1.33583 9.24968 1.74963V3.37706ZM9.9993 6.24738C9.58551 6.24738 9.24968 5.91154 9.24968 5.49775C9.24968 5.08396 9.58551 4.74813 9.9993 4.74813C10.4131 4.74813 10.7489 5.08396 10.7489 5.49775C10.7489 5.91154 10.4131 6.24738 9.9993 6.24738Z" fill="white"/>
<path fill-rule="evenodd" clip-rule="evenodd" d="M2.49852 12.3853C1.6312 12.6972 1.00977 13.5277 1.00977 14.5022C1.00977 15.4768 1.6312 16.3073 2.49852 16.6192V18.2504C2.49852 18.6642 2.83435 19 3.24815 19C3.66194 19 3.99777 18.6642 3.99777 18.2504V16.6267C4.87633 16.3208 5.50752 15.4843 5.50752 14.5022C5.50752 13.5202 4.87633 12.6837 3.99777 12.3778V1.74963C3.99777 1.33583 3.66194 1 3.24815 1C2.83435 1 2.49852 1.33583 2.49852 1.74963V12.3853ZM3.25864 15.2519C2.84485 15.2519 2.50902 14.916 2.50902 14.5022C2.50902 14.0885 2.84485 13.7526 3.25864 13.7526C3.67243 13.7526 4.00827 14.0885 4.00827 14.5022C4.00827 14.916 3.67243 15.2519 3.25864 15.2519Z" fill="white"/>
</svg>
