<svg width="20" height="20" viewBox="0 0 20 20" fill="none" xmlns="http://www.w3.org/2000/svg">
<path d="M3.14966 19.999C3.02414 19.9661 2.89696 19.9374 2.77311 19.8998C1.31969 19.4612 0.781527 17.7399 1.75233 16.6356C1.80065 16.5808 1.85063 16.5271 1.90395 16.4687C1.03867 15.4823 1.03089 14.4949 1.89617 13.5044C1.04311 12.3224 1.04255 11.5342 1.90506 10.5557C1.88895 10.5327 1.87396 10.5046 1.8523 10.4816C1.21639 9.8103 1.08088 9.04718 1.46075 8.23503C1.84341 7.41662 2.55318 7.01915 3.50344 7.00767C4.03715 7.00141 4.57087 7.00663 5.10459 7.00663C5.17901 7.00663 5.25399 7.00663 5.34063 7.00663V5.3938C5.12292 5.3938 4.91021 5.39276 4.6975 5.3938C4.19488 5.39693 3.80556 5.2055 3.58285 4.7783C3.36015 4.35058 3.43846 3.94789 3.75058 3.57598C4.62141 2.53849 5.48669 1.49735 6.35752 0.460389C6.87291 -0.153028 7.72875 -0.15355 8.24359 0.459345C9.12331 1.50674 9.99747 2.55779 10.8772 3.60519C11.1832 3.9698 11.2315 4.36257 11.0205 4.7736C10.8083 5.18672 10.4401 5.38806 9.95193 5.3938C9.73089 5.39641 9.50985 5.3938 9.27215 5.3938V6.99724C9.3399 7.00037 9.41266 7.00663 9.48597 7.00663C10.0264 7.00767 10.5673 7.00193 11.1077 7.00819C12.1662 7.02071 12.9743 7.60179 13.2703 8.55425C13.2814 8.59076 13.2959 8.62676 13.3114 8.67005C14.1212 8.75299 14.8948 8.95224 15.5979 9.33615C17.6761 10.4701 18.7858 12.1659 18.7491 14.4302C18.7036 17.2673 16.5271 19.5305 13.5397 19.9499C13.4314 19.9651 13.3231 19.9833 13.2148 20H3.14966V19.999ZM17.5106 14.3139C17.5123 11.8091 15.3569 9.81708 12.6433 9.81499C10.0952 9.8129 7.92425 11.8613 7.92202 14.2685C7.9198 16.7853 10.0408 18.8258 12.6594 18.8269C15.3624 18.8279 17.509 16.8307 17.5106 14.3144V14.3139ZM11.9829 8.66588C11.7669 8.31118 11.4509 8.18078 11.0555 8.18078C8.54738 8.1813 6.03929 8.17973 3.5312 8.18443C3.3757 8.18443 3.2102 8.21155 3.06746 8.26736C2.65704 8.4275 2.441 8.8474 2.53097 9.26417C2.61816 9.66946 3.00748 9.96156 3.48289 9.96208C5.22178 9.96521 6.96122 9.96469 8.70011 9.95948C8.79286 9.95948 8.9006 9.91618 8.97558 9.86193C9.60871 9.405 10.3007 9.05917 11.0727 8.86305C11.3643 8.78898 11.6619 8.73525 11.9829 8.6664V8.66588ZM7.30111 1.23081C6.46582 2.23022 5.64831 3.20824 4.80246 4.22017C5.04905 4.22017 5.24732 4.21756 5.44559 4.22017C6.08817 4.22956 6.58801 4.69328 6.59967 5.29782C6.60689 5.66817 6.60133 6.03904 6.60133 6.40938C6.60133 6.60238 6.60133 6.79537 6.60133 6.99098H8.00366C8.00366 6.90596 8.00366 6.83606 8.00366 6.76564C8.00366 6.29097 7.99922 5.81631 8.00478 5.34164C8.01255 4.67189 8.49962 4.22278 9.21272 4.21913C9.39489 4.21809 9.5765 4.21913 9.79976 4.21913C8.95336 3.20668 8.13807 2.23179 7.30056 1.22977L7.30111 1.23081ZM9.02167 18.8149C8.37132 18.3235 7.85871 17.7753 7.46217 17.1317C7.43329 17.0842 7.34054 17.0461 7.27779 17.0461C6.01041 17.0414 4.74359 17.0388 3.47622 17.0451C3.05747 17.0471 2.74479 17.2349 2.5804 17.6016C2.3177 18.1879 2.77811 18.8222 3.47344 18.8243C5.28065 18.83 7.08785 18.8264 8.8956 18.8258C8.9217 18.8258 8.94781 18.8217 9.02167 18.8149ZM7.69987 11.1368C6.26644 11.1368 4.87411 11.1347 3.48122 11.1378C2.93362 11.1388 2.52153 11.516 2.51264 12.012C2.50431 12.5081 2.90141 12.9092 3.44901 12.9155C4.53699 12.9275 5.62498 12.9175 6.71297 12.9222C6.83904 12.9228 6.87291 12.8696 6.90346 12.7684C7.0623 12.24 7.3 11.7434 7.6149 11.2797C7.63934 11.2432 7.65989 11.2046 7.69932 11.1368H7.69987ZM6.62855 14.1037C6.64465 14.1115 6.63299 14.1011 6.62133 14.1011C5.52668 14.1011 4.43203 14.088 3.33793 14.1073C2.87863 14.1152 2.52153 14.5199 2.51375 14.9654C2.50542 15.4109 2.84753 15.8407 3.30405 15.85C4.49423 15.8746 5.68496 15.8584 6.84681 15.8584C6.77461 15.2752 6.70241 14.6983 6.62855 14.1042V14.1037Z" fill="white"/>
<path d="M10.7377 14.1483H11.5175L10.3151 11.6602H11.5741L12.8426 14.4482L14.1111 11.6602H15.3701L14.1677 14.1483H14.9475V14.8629H13.8201L13.4346 15.6568H14.9469V16.3448H13.4346V17.3593H12.2511V16.3448H10.7388V15.6568H12.2511L11.8657 14.8629H10.7383L10.7377 14.1483Z" fill="white"/>
</svg>
