<svg width="18" height="18" viewBox="0 0 18 18" fill="none" xmlns="http://www.w3.org/2000/svg">
<rect x="18" y="0.367188" width="16.8968" height="18" rx="3.75" transform="rotate(90 18 0.367188)" fill="#313C5A"/>
<path d="M5.18674 13.0391L12.8133 13.0391C12.9489 13.0398 13.0817 13.0021 13.1947 12.9307C13.3077 12.8593 13.3958 12.7575 13.4478 12.6383C13.4998 12.519 13.5133 12.3877 13.4867 12.2611C13.46 12.1345 13.3943 12.0183 13.298 11.9274L9.48135 8.29988C9.35343 8.1788 9.18038 8.11084 9 8.11084C8.81962 8.11084 8.64657 8.1788 8.51865 8.29988L4.70197 11.9274C4.60568 12.0183 4.54001 12.1345 4.51334 12.2611C4.48666 12.3877 4.50019 12.519 4.55219 12.6383C4.6042 12.7575 4.69232 12.8593 4.80534 12.9307C4.91835 13.0021 5.05113 13.0398 5.18674 13.0391Z" fill="#D7DBE1"/>
<rect x="6" y="6.70312" width="1.40806" height="6.75" transform="rotate(-90 6 6.70312)" fill="#D7DBE1"/>
</svg>
