<svg width="19" height="19" viewBox="0 0 19 19" fill="none" xmlns="http://www.w3.org/2000/svg">
<rect x="18.5" y="0.473877" width="18" height="18" rx="2" transform="rotate(90 18.5 0.473877)" fill="#435175"/>
<path d="M4.83935 12.4739L14.1607 12.4739C14.3264 12.4748 14.4887 12.4289 14.6268 12.342C14.7649 12.255 14.8726 12.1311 14.9362 11.9859C14.9998 11.8407 15.0163 11.6809 14.9837 11.5267C14.9511 11.3726 14.8708 11.2312 14.7531 11.1204L10.0883 6.70403C9.93197 6.55662 9.72046 6.47388 9.5 6.47388C9.27954 6.47388 9.06803 6.55662 8.91168 6.70403L4.24686 11.1204C4.12917 11.2311 4.04891 11.3726 4.0163 11.5267C3.9837 11.6809 4.00023 11.8407 4.06379 11.9859C4.12735 12.1311 4.23506 12.255 4.37319 12.342C4.51131 12.4289 4.6736 12.4748 4.83935 12.4739Z" fill="#D7DBE1"/>
</svg>
