<svg width="18" height="18" viewBox="0 0 18 18" fill="none" xmlns="http://www.w3.org/2000/svg">
<rect y="17.4355" width="16.8968" height="18" rx="3.75" transform="rotate(-90 0 17.4355)" fill="#435175"/>
<path d="M12.8133 4.76368L5.18674 4.76368C5.05112 4.76293 4.91835 4.80065 4.80534 4.87203C4.69232 4.94341 4.6042 5.04522 4.55219 5.16448C4.50019 5.28373 4.48666 5.41503 4.51334 5.54163C4.54001 5.66824 4.60568 5.78441 4.70197 5.87534L8.51865 9.50285C8.64657 9.62393 8.81962 9.69189 9 9.69189C9.18038 9.69189 9.35343 9.62393 9.48135 9.50285L13.298 5.87534C13.3943 5.78441 13.46 5.66824 13.4867 5.54163C13.5133 5.41503 13.4998 5.28373 13.4478 5.16448C13.3958 5.04522 13.3077 4.94341 13.1947 4.87203C13.0817 4.80065 12.9489 4.76293 12.8133 4.76368Z" fill="#D7DBE1"/>
<rect x="12" y="11.0996" width="1.40806" height="6.75" transform="rotate(90 12 11.0996)" fill="#D7DBE1"/>
</svg>
