<svg width="19" height="19" viewBox="0 0 19 19" fill="none" xmlns="http://www.w3.org/2000/svg">
<rect x="0.5" y="18.4739" width="18" height="18" rx="2" transform="rotate(-90 0.5 18.4739)" fill="#435175"/>
<path d="M14.1607 6.47389L4.83935 6.47389C4.6736 6.47298 4.51131 6.5189 4.37319 6.6058C4.23506 6.69271 4.12735 6.81666 4.06379 6.96185C4.00023 7.10704 3.9837 7.26689 4.0163 7.42103C4.04891 7.57517 4.12917 7.7166 4.24686 7.82731L8.91168 12.2437C9.06803 12.3911 9.27954 12.4739 9.5 12.4739C9.72046 12.4739 9.93197 12.3911 10.0883 12.2437L14.7531 7.82731C14.8708 7.7166 14.9511 7.57517 14.9837 7.42103C15.0163 7.26689 14.9998 7.10704 14.9362 6.96185C14.8726 6.81666 14.7649 6.69271 14.6268 6.6058C14.4887 6.5189 14.3264 6.47298 14.1607 6.47389Z" fill="#D7DBE1"/>
</svg>
