<svg width="20" height="20" viewBox="0 0 20 20" fill="none" xmlns="http://www.w3.org/2000/svg">
<g clip-path="url(#clip0_13557_63896)">
<path d="M9.87761 6.58203C9.22658 6.58203 8.59017 6.77508 8.04885 7.13678C7.50754 7.49847 7.08564 8.01256 6.8365 8.61403C6.58736 9.2155 6.52218 9.87735 6.64919 10.5159C6.7762 11.1544 7.0897 11.7409 7.55005 12.2013C8.01039 12.6616 8.59691 12.9751 9.23543 13.1021C9.87395 13.2291 10.5358 13.1639 11.1373 12.9148C11.7387 12.6657 12.2528 12.2438 12.6145 11.7024C12.9762 11.1611 13.1693 10.5247 13.1693 9.8737C13.1693 9.00069 12.8225 8.16345 12.2052 7.54614C11.5879 6.92883 10.7506 6.58203 9.87761 6.58203ZM9.87761 11.5195C9.55209 11.5195 9.23389 11.423 8.96323 11.2422C8.69257 11.0613 8.48162 10.8043 8.35705 10.5035C8.23248 10.2028 8.19989 9.87187 8.2634 9.55261C8.3269 9.23335 8.48365 8.94009 8.71383 8.70992C8.944 8.47974 9.23726 8.32299 9.55652 8.25949C9.87578 8.19598 10.2067 8.22858 10.5074 8.35315C10.8082 8.47772 11.0652 8.68867 11.2461 8.95932C11.4269 9.22998 11.5234 9.54818 11.5234 9.8737C11.5234 10.3102 11.35 10.7288 11.0414 11.0375C10.7327 11.3461 10.3141 11.5195 9.87761 11.5195Z" fill="white"/>
<path d="M17.5251 11.4385L17.1598 11.2279C17.3243 10.3329 17.3243 9.41545 17.1598 8.52048L17.5251 8.30981C17.8061 8.14771 18.0524 7.93186 18.25 7.67457C18.4475 7.41729 18.5925 7.12361 18.6765 6.81031C18.7606 6.49701 18.7821 6.17022 18.7399 5.8486C18.6976 5.52698 18.5924 5.21683 18.4303 4.93585C18.2682 4.65488 18.0524 4.40859 17.7951 4.21103C17.5378 4.01348 17.2441 3.86854 16.9308 3.78448C16.6175 3.70042 16.2908 3.6789 15.9691 3.72114C15.6475 3.76337 15.3374 3.86855 15.0564 4.03065L14.6902 4.24214C13.9986 3.65121 13.2037 3.19312 12.3457 2.89091V2.46875C12.3457 1.814 12.0856 1.18606 11.6226 0.72308C11.1596 0.2601 10.5317 0 9.87695 0C9.2222 0 8.59426 0.2601 8.13128 0.72308C7.6683 1.18606 7.4082 1.814 7.4082 2.46875V2.89091C6.55022 3.19421 5.75566 3.65342 5.06453 4.24543L4.69669 4.03229C4.12924 3.70492 3.45498 3.61637 2.82224 3.78613C2.1895 3.95589 1.65011 4.37005 1.32273 4.9375C0.995355 5.50495 0.906807 6.17921 1.07657 6.81195C1.24633 7.44469 1.66049 7.98408 2.22794 8.31146L2.59331 8.52213C2.42882 9.4171 2.42882 10.3346 2.59331 11.2295L2.22794 11.4402C1.66049 11.7676 1.24633 12.307 1.07657 12.9397C0.906807 13.5724 0.995355 14.2467 1.32273 14.8141C1.65011 15.3816 2.1895 15.7958 2.82224 15.9655C3.45498 16.1353 4.12924 16.0467 4.69669 15.7194L5.06289 15.5079C5.75477 16.0989 6.54988 16.557 7.4082 16.8591V17.2812C7.4082 17.936 7.6683 18.5639 8.13128 19.0269C8.59426 19.4899 9.2222 19.75 9.87695 19.75C10.5317 19.75 11.1596 19.4899 11.6226 19.0269C12.0856 18.5639 12.3457 17.936 12.3457 17.2812V16.8591C13.2037 16.5558 13.9982 16.0966 14.6894 15.5046L15.0572 15.7169C15.6247 16.0443 16.2989 16.1328 16.9317 15.9631C17.5644 15.7933 18.1038 15.3791 18.4312 14.8117C18.7585 14.2442 18.8471 13.57 18.6773 12.9372C18.5076 12.3045 18.0934 11.7651 17.526 11.4377L17.5251 11.4385ZM15.4283 8.33121C15.707 9.34098 15.707 10.4074 15.4283 11.4171C15.3797 11.5929 15.3908 11.7798 15.4599 11.9486C15.529 12.1174 15.6522 12.2584 15.8102 12.3495L16.7022 12.8647C16.8913 12.9738 17.0294 13.1536 17.0859 13.3645C17.1425 13.5753 17.1129 13.8001 17.0038 13.9892C16.8947 14.1783 16.7149 14.3163 16.504 14.3729C16.2931 14.4294 16.0684 14.3999 15.8793 14.2908L14.9856 13.774C14.8275 13.6824 14.6435 13.6461 14.4624 13.6706C14.2814 13.6952 14.1137 13.7794 13.9858 13.9098C13.2533 14.6575 12.3305 15.191 11.3171 15.4527C11.1402 15.4982 10.9834 15.6013 10.8715 15.7456C10.7596 15.89 10.699 16.0675 10.699 16.2501V17.2812C10.699 17.4995 10.6123 17.7088 10.458 17.8631C10.3037 18.0175 10.0944 18.1042 9.87613 18.1042C9.65788 18.1042 9.44856 18.0175 9.29424 17.8631C9.13991 17.7088 9.05321 17.4995 9.05321 17.2812V16.251C9.0533 16.0683 8.99262 15.8908 8.88073 15.7464C8.76884 15.6021 8.6121 15.499 8.4352 15.4536C7.42165 15.1908 6.49915 14.6561 5.7673 13.9073C5.63936 13.7769 5.47166 13.6928 5.29063 13.6682C5.10961 13.6436 4.92555 13.6799 4.76746 13.7715L3.87542 14.2875C3.78179 14.3424 3.67824 14.3782 3.57071 14.3929C3.46319 14.4076 3.35382 14.4009 3.24889 14.3731C3.14397 14.3454 3.04557 14.2972 2.95936 14.2313C2.87315 14.1653 2.80084 14.083 2.74657 13.989C2.69231 13.895 2.65717 13.7913 2.64318 13.6836C2.62919 13.576 2.63663 13.4667 2.66506 13.362C2.6935 13.2572 2.74237 13.1591 2.80886 13.0734C2.87536 12.9876 2.95816 12.9158 3.0525 12.8622L3.94454 12.347C4.1025 12.2559 4.22571 12.1149 4.29483 11.9461C4.36394 11.7774 4.37504 11.5904 4.32638 11.4147C4.0477 10.4049 4.0477 9.33851 4.32638 8.32874C4.37416 8.15336 4.36253 7.9671 4.29331 7.79902C4.22408 7.63095 4.10116 7.49052 3.94372 7.39967L3.05168 6.88452C2.86256 6.7754 2.72455 6.59561 2.66799 6.38473C2.61142 6.17384 2.64095 5.94912 2.75008 5.76C2.85921 5.57089 3.03899 5.43287 3.24987 5.37631C3.46076 5.31975 3.68548 5.34928 3.8746 5.45841L4.76828 5.9752C4.92594 6.06696 5.10961 6.10375 5.29045 6.07976C5.47128 6.05578 5.63902 5.9724 5.7673 5.84271C6.49977 5.09496 7.42254 4.56144 8.43602 4.29974C8.61347 4.25412 8.77062 4.15059 8.88257 4.00555C8.99451 3.86051 9.05486 3.68226 9.05403 3.49904V2.46875C9.05403 2.2505 9.14073 2.04119 9.29506 1.88686C9.44939 1.73253 9.6587 1.64583 9.87695 1.64583C10.0952 1.64583 10.3045 1.73253 10.4588 1.88686C10.6132 2.04119 10.6999 2.2505 10.6999 2.46875V3.49904C10.6998 3.68169 10.7605 3.85919 10.8723 4.00356C10.9842 4.14793 11.141 4.25097 11.3179 4.29645C12.3317 4.55908 13.2545 5.09376 13.9866 5.84271C14.1145 5.97311 14.2822 6.05724 14.4633 6.08182C14.6443 6.1064 14.8284 6.07005 14.9864 5.97849L15.8785 5.46252C15.9721 5.40763 16.0757 5.37181 16.1832 5.35711C16.2907 5.34241 16.4001 5.34912 16.505 5.37686C16.6099 5.4046 16.7083 5.45281 16.7945 5.51874C16.8807 5.58466 16.9531 5.66698 17.0073 5.76097C17.0616 5.85496 17.0967 5.95875 17.1107 6.06637C17.1247 6.17399 17.1173 6.28331 17.0888 6.38805C17.0604 6.49278 17.0115 6.59086 16.945 6.67663C16.8785 6.7624 16.7957 6.83417 16.7014 6.88781L15.8094 7.40296C15.6522 7.49406 15.5296 7.63459 15.4607 7.80264C15.3918 7.9707 15.3804 8.15601 15.4283 8.33121Z" fill="white"/>
</g>
<defs>
<clipPath id="clip0_13557_63896">
<rect width="19.75" height="19.75" fill="white"/>
</clipPath>
</defs>
</svg>
