<svg width="18" height="18" viewBox="0 0 18 18" fill="none" xmlns="http://www.w3.org/2000/svg">
<path d="M16.5 13.0909V12.2727C16.5 10.0145 14.82 8.18182 12.75 8.18182H9.75V4.90909C10.575 4.90909 11.25 4.17273 11.25 3.27273V1.63636C11.25 0.736364 10.575 0 9.75 0H8.25C7.425 0 6.75 0.736364 6.75 1.63636V3.27273C6.75 4.17273 7.425 4.90909 8.25 4.90909V8.18182H5.25C3.18 8.18182 1.5 10.0145 1.5 12.2727V13.0909C0.675 13.0909 0 13.8273 0 14.7273V16.3636C0 17.2636 0.675 18 1.5 18H3C3.825 18 4.5 17.2636 4.5 16.3636V14.7273C4.5 13.8273 3.825 13.0909 3 13.0909V12.2727C3 10.9227 4.0125 9.81818 5.25 9.81818H8.25V13.0909C7.425 13.0909 6.75 13.8273 6.75 14.7273V16.3636C6.75 17.2636 7.425 18 8.25 18H9.75C10.575 18 11.25 17.2636 11.25 16.3636V14.7273C11.25 13.8273 10.575 13.0909 9.75 13.0909V9.81818H12.75C13.9875 9.81818 15 10.9227 15 12.2727V13.0909C14.175 13.0909 13.5 13.8273 13.5 14.7273V16.3636C13.5 17.2636 14.175 18 15 18H16.5C17.325 18 18 17.2636 18 16.3636V14.7273C18 13.8273 17.325 13.0909 16.5 13.0909ZM8.25 1.63636H9.75V3.27273H8.25V1.63636ZM3 16.3636H1.5V14.7273H3V16.3636ZM9.75 16.3636H8.25V14.7273H9.75V16.3636ZM16.5 16.3636H15V14.7273H16.5V16.3636Z" fill="#E2E5EE"/>
</svg>
