<svg width="18" height="18" viewBox="0 0 18 18" fill="none" xmlns="http://www.w3.org/2000/svg">
<path d="M16.5 4.29638V1.50338C16.5 1.08938 16.1647 0.753375 15.75 0.753375C15.3352 0.753375 15 1.08938 15 1.50338V3.27788L11.0977 0.644625C9.8235 -0.214875 8.1765 -0.214875 6.90225 0.644625L1.65225 4.18763C0.618 4.88588 0 6.04763 0 7.29638V14.2534C0 16.3211 1.68225 18.0034 3.75 18.0034H6C6.41475 18.0034 6.75 17.6674 6.75 17.2534V11.2534C6.75 10.8401 7.086 10.5034 7.5 10.5034H10.5C10.914 10.5034 11.25 10.8401 11.25 11.2534V17.2534C11.25 17.6674 11.5852 18.0034 12 18.0034H14.25C16.3177 18.0034 18 16.3211 18 14.2534V7.29638C18 6.11063 17.442 5.00288 16.5 4.29638ZM16.5 14.2534C16.5 15.4939 15.4905 16.5034 14.25 16.5034H12.75V11.2534C12.75 10.0129 11.7405 9.00338 10.5 9.00338H7.5C6.2595 9.00338 5.25 10.0129 5.25 11.2534V16.5034H3.75C2.5095 16.5034 1.5 15.4939 1.5 14.2534V7.29638C1.5 6.54713 1.8705 5.84963 2.4915 5.43113L7.7415 1.88813C8.5065 1.37213 9.4935 1.37213 10.2577 1.88813L15.5077 5.43113C16.1287 5.84963 16.4993 6.54713 16.4993 7.29638L16.5 14.2534Z" fill="#F1F5F9"/>
</svg>
