<svg width="28" height="28" viewBox="0 0 28 28" fill="none" xmlns="http://www.w3.org/2000/svg">
<g clip-path="url(#clip0_13651_75267)">
<path d="M13.9843 27.8148C21.6227 27.8148 27.8148 21.6227 27.8148 13.9843C27.8148 6.34598 21.6227 0.15387 13.9843 0.15387C6.34595 0.15387 0.153839 6.34598 0.153839 13.9843C0.153839 21.6227 6.34595 27.8148 13.9843 27.8148Z" fill="#DE2910"/>
<path d="M8.07717 8.65498L7.20124 5.96265L6.32838 8.65498H3.48853L5.78438 10.3239L4.90845 13.0223L7.20124 11.3535L9.4971 13.0223L8.62117 10.3239L10.917 8.65498H8.07717Z" fill="#FFDE00"/>
<path d="M13.5233 6.42062L14.012 7.23201L14.095 6.28846L15.017 6.0764L14.1472 5.70758L14.2302 4.76404L13.6094 5.47708L12.7396 5.10826L13.2252 5.91965L12.6043 6.62961L13.5233 6.42062Z" fill="#FFDE00"/>
<path d="M16.0773 9.83517L16.5199 8.99612L17.4542 9.15901L16.7934 8.47979L17.236 7.64688L16.3877 8.0618L15.727 7.38257L15.8622 8.31997L15.0139 8.73488L15.9452 8.89777L16.0773 9.83517Z" fill="#FFDE00"/>
<path d="M16.7811 12.6013L17.5249 12.0173L16.5814 12.0511L16.2556 11.1629L15.9943 12.0726L15.0539 12.1064L15.8345 12.632L15.5733 13.5417L16.3201 12.9609L17.1038 13.4895L16.7811 12.6013Z" fill="#FFDE00"/>
<path d="M14.1165 14.7927L14.1595 13.8491L13.5694 14.5867L12.6842 14.2548L13.2037 15.0416L12.6136 15.7823L13.5264 15.5303L14.0458 16.3232L14.0888 15.3766L15.0016 15.1277L14.1165 14.7927Z" fill="#FFDE00"/>
</g>
<defs>
<clipPath id="clip0_13651_75267">
<rect width="28" height="28" fill="white"/>
</clipPath>
</defs>
</svg>
