<svg width="28" height="28" viewBox="0 0 28 28" fill="none" xmlns="http://www.w3.org/2000/svg">
<path d="M0 14C0 20.0953 3.89636 25.2778 9.33333 27.2001C10.7909 27.7156 12.3583 27.9988 13.9922 27.9997H14.0081C15.642 27.9988 17.2091 27.7153 18.6667 27.2001C24.1005 25.279 27.9953 20.1012 28 14.0103V13.9891C27.9953 7.8988 24.1005 2.72067 18.6667 0.799867C17.2066 0.283422 15.6368 0 14 0C12.3632 0 10.7931 0.283733 9.33333 0.799867C3.89636 2.72222 0 7.90471 0 14Z" fill="#F3F4F5"/>
<path d="M0 14C0 15.6922 0.301467 17.3137 0.851511 18.8151H27.1482C27.6973 17.3168 27.9988 15.699 28 14.0106V13.9894C27.9988 12.4118 27.7346 10.8961 27.2521 9.48175H0.747911C0.264444 10.8995 0 12.4186 0 14Z" fill="#001B9A"/>
<path d="M24.4309 23.3334H3.56906C5.12057 25.065 7.09582 26.4093 9.33333 27.2002C10.7934 27.7163 12.3632 28 14 28C15.6367 28 17.2066 27.7166 18.6667 27.2002C20.9042 26.4093 22.8794 25.065 24.4309 23.3334Z" fill="#E70000"/>
<path d="M9.33333 0.79988C7.03297 1.61312 5.01013 3.01188 3.43964 4.81508H24.5607C22.9902 3.01188 20.9673 1.61312 18.6667 0.79988C17.2405 0.295569 15.7092 0.0155691 14.1135 0.00250244H13.8867C12.2911 0.015258 10.7595 0.295569 9.33333 0.79988Z" fill="#E70000"/>
</svg>
