<svg width="33" height="32" viewBox="0 0 33 32" fill="none" xmlns="http://www.w3.org/2000/svg">
<path d="M32.0681 20.2815C32.0802 20.2378 32.0952 20.1951 32.1069 20.151L32.1055 20.1503C32.4619 18.8251 32.655 17.433 32.655 15.995C32.655 14.5606 32.4629 13.1717 32.108 11.849L32.1094 11.8483C32.0955 11.7964 32.0781 11.7455 32.0639 11.694C32.0151 11.519 31.9643 11.3447 31.9095 11.1718C31.8807 11.0804 31.8501 10.9897 31.8195 10.8987C31.7936 10.8215 31.7701 10.7433 31.743 10.6664H31.7377C31.1526 9.01151 30.3076 7.47966 29.2445 6.12528L21.9839 9.75592V0.904103C20.4304 0.354955 18.7666 0.0409016 17.0348 0H16.2652C14.5338 0.0409016 12.8703 0.354955 11.3168 0.903748V9.75592L4.0555 6.12493C2.99242 7.47966 2.147 9.01151 1.56228 10.6664H1.55695C1.52992 10.7433 1.50609 10.8215 1.48012 10.8987C1.44954 10.9894 1.41895 11.0797 1.39014 11.1708C1.33537 11.3436 1.28451 11.5182 1.23578 11.6936C1.22155 11.7452 1.20413 11.7957 1.19026 11.8472L1.19168 11.848C0.837079 13.1714 0.64502 14.5603 0.64502 15.995C0.64502 17.433 0.838146 18.8251 1.19452 20.1506L1.1931 20.1513C1.20484 20.1951 1.21942 20.2374 1.23151 20.2812C1.28344 20.4675 1.3375 20.6532 1.39583 20.8367C1.42251 20.9206 1.4506 21.0039 1.4787 21.0875C1.50609 21.1696 1.53134 21.2525 1.56015 21.3339H1.56619C2.15198 22.9881 2.99775 24.5189 4.06155 25.8726L11.3171 22.2448V31.0867C12.9856 31.676 14.7795 32 16.65 32C18.5208 32 20.3151 31.676 21.9839 31.0859V22.2448L29.2388 25.8722C30.3026 24.5186 31.148 22.9878 31.7338 21.3339H31.7391C31.7679 21.2525 31.7932 21.1693 31.8209 21.0871C31.849 21.0039 31.8771 20.9206 31.9038 20.8367C31.9621 20.6528 32.0166 20.4675 32.0681 20.2815Z" fill="#F3F4F5"/>
<path d="M19.8506 0.310852C18.9384 0.12555 17.9965 0.0227626 17.0348 0H16.2652C15.3038 0.0227626 14.3624 0.125906 13.4504 0.310852V12.8004H0.964763C0.755632 13.8326 0.64502 14.901 0.64502 15.995C0.64502 17.093 0.755987 18.1646 0.966542 19.2003H13.4504V31.6795C14.4843 31.8894 15.5542 32 16.65 32C17.7462 32 18.8164 31.8894 19.8506 31.6792V19.2003H32.3335C32.544 18.1646 32.655 17.093 32.655 15.995C32.655 14.901 32.5444 13.8326 32.3352 12.8001H19.8506V0.310852Z" fill="#CC0000"/>
<path d="M30.9627 23.1563C31.2576 22.5684 31.5176 21.9602 31.7395 21.3336H27.3175L30.9627 23.1563Z" fill="#CC0000"/>
<path d="M29.8865 6.99701L22.5473 10.6668H27.3175L30.967 8.84185C30.6465 8.20165 30.2866 7.58493 29.8865 6.99701Z" fill="#CC0000"/>
<path d="M2.33338 8.84149C2.03853 9.43012 1.77889 10.0394 1.55731 10.6668H5.98358L2.33338 8.84149Z" fill="#CC0000"/>
<path d="M3.41922 25.0008L10.7538 21.3336H5.98357L2.33728 23.1567C2.65845 23.7969 3.01874 24.4136 3.41922 25.0008Z" fill="#CC0000"/>
<path d="M4.05551 6.1249L11.3168 9.75554V8.33644V0.909058C8.42487 1.93124 5.91351 3.75759 4.05551 6.1249Z" fill="#000066"/>
<path d="M21.9839 0.909424V8.84149V9.75556L29.2445 6.12527C27.3868 3.75795 24.8758 1.93161 21.9839 0.909424Z" fill="#000066"/>
<path d="M11.3171 25.8719V22.2448L4.06155 25.8726C5.91884 28.2364 8.42771 30.0602 11.3171 31.0817V25.8719Z" fill="#000066"/>
<path d="M21.9839 22.2448V25.5511V31.081C24.873 30.0595 27.3815 28.2357 29.2388 25.8719L21.9839 22.2448Z" fill="#000066"/>
</svg>
