<svg width="15" height="17" viewBox="0 0 15 17" fill="none" xmlns="http://www.w3.org/2000/svg">
<g id="Layer_1" clip-path="url(#clip0_13462_45484)">
<path id="Vector" d="M9.25552 4.88623C10.9171 3.52863 9.95252 0.832031 7.80452 0.832031C5.65652 0.832031 4.69212 3.52883 6.35352 4.88623C5.83992 5.30583 5.51172 5.94263 5.51172 6.65463V8.40723C5.51172 8.70163 5.75052 8.94043 6.04492 8.94043H9.56412C9.85852 8.94043 10.0973 8.70163 10.0973 8.40723V6.65463C10.0973 5.94263 9.76892 5.30583 9.25552 4.88623ZM7.78692 1.90183C8.45932 1.90183 9.00632 2.44883 9.00632 3.12123C9.00632 3.79363 8.45932 4.34063 7.78692 4.34063C7.11452 4.34063 6.56752 3.79363 6.56752 3.12123C6.56752 2.44883 7.11452 1.90183 7.78692 1.90183ZM9.03092 7.87403H6.57812V6.67583C6.57812 6.09483 7.04572 5.53223 7.62072 5.44863C8.37812 5.33863 9.03092 5.92223 9.03092 6.65463V7.87403Z" fill="#30313D"/>
<path id="Vector_2" d="M4.3854 12.7769C6.047 11.4195 5.0822 8.72266 2.9344 8.72266C0.786602 8.72266 -0.177998 11.4195 1.4834 12.7769C0.969802 13.1965 0.641602 13.8333 0.641602 14.5453V16.2979C0.641602 16.5923 0.880402 16.8311 1.1748 16.8311H4.694C4.9884 16.8311 5.2272 16.5923 5.2272 16.2979V14.5453C5.2272 13.8333 4.8988 13.1965 4.3854 12.7769ZM2.9414 9.78906C3.6138 9.78906 4.1608 10.3361 4.1608 11.0085C4.1608 11.6809 3.6138 12.2279 2.9414 12.2279C2.269 12.2279 1.722 11.6809 1.722 11.0085C1.722 10.3361 2.269 9.78906 2.9414 9.78906ZM4.1608 15.7647H1.708V14.5665C1.708 13.9855 2.1756 13.4229 2.7506 13.3393C3.508 13.2293 4.1608 13.8129 4.1608 14.5453V15.7647Z" fill="#30313D"/>
<path id="Vector_3" d="M14.09 12.7769C15.7516 11.4195 14.7868 8.72266 12.639 8.72266C10.4912 8.72266 9.52659 11.4195 11.188 12.7769C10.6744 13.1965 10.3462 13.8333 10.3462 14.5453V16.2979C10.3462 16.5923 10.585 16.8311 10.8794 16.8311H14.3986C14.693 16.8311 14.9318 16.5923 14.9318 16.2979V14.5453C14.9318 13.8333 14.6034 13.1965 14.09 12.7769ZM12.632 9.78906C13.3044 9.78906 13.8514 10.3361 13.8514 11.0085C13.8514 11.6809 13.3044 12.2279 12.632 12.2279C11.9596 12.2279 11.4126 11.6809 11.4126 11.0085C11.4126 10.3361 11.9596 9.78906 12.632 9.78906ZM13.8654 15.7647H11.4126V14.5665C11.4126 13.9855 11.8802 13.4229 12.4552 13.3393C13.2126 13.2293 13.8654 13.8129 13.8654 14.5453V15.7647Z" fill="#30313D"/>
<path id="Vector_4" d="M9.74327 13.2073L8.32007 11.7841V9.77148C8.32007 9.47708 8.08127 9.23828 7.78687 9.23828C7.49247 9.23828 7.25367 9.47708 7.25367 9.77148V11.7841L5.83047 13.2073C5.62227 13.4155 5.62227 13.7531 5.83047 13.9613C6.03867 14.1695 6.37627 14.1695 6.58447 13.9613L7.78687 12.7589L8.98927 13.9613C9.19747 14.1695 9.53507 14.1695 9.74327 13.9613C9.95147 13.7531 9.95147 13.4155 9.74327 13.2073Z" fill="#30313D"/>
</g>
<defs>
<clipPath id="clip0_13462_45484">
<rect width="14.2902" height="16" fill="white" transform="translate(0.641602 0.832031)"/>
</clipPath>
</defs>
</svg>
