<svg width="20" height="20" viewBox="0 0 20 20" fill="none" xmlns="http://www.w3.org/2000/svg">
<path d="M18.9041 3.83533V6.26568C18.9041 8.29094 18.094 9.10105 16.0686 9.10105H13.6382C11.6129 9.10105 10.8027 8.29094 10.8027 6.26568V3.83533C10.8027 1.81006 11.6129 0.999958 13.6382 0.999958H16.0686C18.094 0.999958 18.9041 1.81006 18.9041 3.83533Z" fill="#B8DDFF" stroke="#2580D3" stroke-width="1.6" stroke-linecap="round" stroke-linejoin="round"/>
<path d="M9.00372 13.7343V16.1647C9.00372 18.1899 8.19358 19 6.16824 19H3.73783C1.71248 19 0.902344 18.1899 0.902344 16.1647V13.7343C0.902344 11.7091 1.71248 10.899 3.73783 10.899H6.16824C8.19358 10.899 9.00372 11.7091 9.00372 13.7343Z" fill="#B8DDFF" stroke="#2580D3" stroke-width="1.6" stroke-linecap="round" stroke-linejoin="round"/>
<path d="M14.7462 9.10076V11.4591C14.7462 13.8804 13.783 14.8435 11.3616 14.8435H9.00318V13.7364C9.00318 11.7111 8.19304 10.901 6.16773 10.901H5.06055V8.54268C5.06055 6.12138 6.02371 5.15825 8.44508 5.15825H10.8035V6.2654C10.8035 8.29065 11.6136 9.10076 13.639 9.10076H14.7462Z" fill="white" stroke="#2580D3" stroke-width="1.6" stroke-linecap="round" stroke-linejoin="round"/>
</svg>
