<svg width="20" height="20" viewBox="0 0 20 20" fill="none" xmlns="http://www.w3.org/2000/svg">
<path d="M19.0018 3.83537V6.26572C19.0018 8.29098 18.1916 9.10109 16.1663 9.10109H13.7359C11.7105 9.10109 10.9004 8.29098 10.9004 6.26572V3.83537C10.9004 1.8101 11.7105 1 13.7359 1H16.1663C18.1916 1 19.0018 1.8101 19.0018 3.83537Z" fill="white" stroke="#2580D3" stroke-width="1.6" stroke-linecap="round" stroke-linejoin="round"/>
<path d="M9.10138 13.7343V16.1646C9.10138 18.1899 8.29124 19 6.26589 19H3.83548C1.81014 19 1 18.1899 1 16.1646V13.7343C1 11.709 1.81014 10.8989 3.83548 10.8989H6.26589C8.29124 10.8989 9.10138 11.709 9.10138 13.7343Z" fill="white" stroke="#2580D3" stroke-width="1.6" stroke-linecap="round" stroke-linejoin="round"/>
<path d="M14.8438 9.10071V11.459C14.8438 13.8804 13.8806 14.8435 11.4592 14.8435H9.10084V13.7363C9.10084 11.7111 8.2907 10.901 6.26539 10.901H5.1582V8.54264C5.1582 6.12134 6.12137 5.1582 8.54274 5.1582H10.9011V6.26536C10.9011 8.29061 11.7113 9.10071 13.7366 9.10071H14.8438Z" fill="white" stroke="#2580D3" stroke-width="1.6" stroke-linecap="round" stroke-linejoin="round"/>
</svg>
