<svg width="17" height="18" viewBox="0 0 17 18" fill="none" xmlns="http://www.w3.org/2000/svg">
<path d="M8.83181 1H4.56515C3.5695 1 3.07167 1 2.69139 1.19377C2.35687 1.3642 2.08491 1.63617 1.91447 1.97068C1.7207 2.35097 1.7207 2.8488 1.7207 3.84444V14.1556C1.7207 15.1512 1.7207 15.6491 1.91447 16.0293C2.08491 16.3638 2.35687 16.6358 2.69139 16.8062C3.07167 17 3.5695 17 4.56515 17H7.94293M8.83181 1L14.1651 6.33333M8.83181 1V4.91111C8.83181 5.40893 8.83181 5.65785 8.9287 5.84799C9.01395 6.01524 9.14986 6.15123 9.31715 6.23645C9.50728 6.33333 9.75617 6.33333 10.254 6.33333H14.1651M14.1651 6.33333V9M12.3874 15.2222H15.9429M14.1651 13.4444V17" stroke="white" stroke-width="1.77778" stroke-linecap="round" stroke-linejoin="round"/>
</svg>
