<svg width="18" height="24" viewBox="0 0 18 24" fill="none" xmlns="http://www.w3.org/2000/svg">
<path d="M9 11.9995C12.309 11.9995 15 9.30861 15 5.99975C15 2.69089 12.309 0 9 0C5.691 0 3 2.69089 3 5.99975C3 9.30861 5.691 11.9995 9 11.9995ZM9 1.99992C11.206 1.99992 13 3.79384 13 5.99975C13 8.20566 11.206 9.99958 9 9.99958C6.794 9.99958 5 8.20566 5 5.99975C5 3.79384 6.794 1.99992 9 1.99992ZM18 22.999C18 23.551 17.553 23.999 17 23.999C16.447 23.999 16 23.551 16 22.999C16 19.9802 14.075 17.4093 11.391 16.4293L9.874 18.7052L10.967 22.6951C11.15 23.361 10.562 24 9.766 24H8.234C7.438 24 6.851 23.361 7.033 22.6951L8.126 18.7052L6.609 16.4293C3.925 17.4093 2 19.9802 2 23C2 23.552 1.552 24 1 24C0.448 24 0 23.552 0 23C0 18.0382 4.038 14.0004 9 14.0004C13.962 14.0004 18 18.0372 18 22.999Z" fill="#30313D"/>
</svg>
