<svg width="17" height="12" viewBox="0 0 17 12" fill="none" xmlns="http://www.w3.org/2000/svg">
<path fill-rule="evenodd" clip-rule="evenodd" d="M15.8163 7.24968C16.289 7.01332 16.5885 6.52942 16.5885 6C16.5885 5.47058 16.289 4.98668 15.8163 4.75032C13.5764 3.63079 9.2261 1.45562 6.61095 0.147644C6.07275 -0.121457 5.42275 -0.0160525 4.99794 0.409559C4.57233 0.834372 4.46692 1.48437 4.73602 2.02257L6.72434 6L4.73602 9.97743C4.46692 10.5156 4.57233 11.1656 4.99794 11.5904C5.42275 12.0161 6.07275 12.1215 6.61095 11.8524L15.8163 7.24968ZM15.2805 6.17887L6.07514 10.7815C5.99848 10.8199 5.90506 10.8047 5.84437 10.744C5.78368 10.6833 5.76851 10.5899 5.80684 10.5132C6.73552 8.65748 7.9301 6.2675 7.9301 6.2675C8.01395 6.09902 8.01395 5.90098 7.9301 5.7325C7.9301 5.7325 6.73552 3.34252 5.80684 1.48676C5.76851 1.4101 5.78368 1.31668 5.84437 1.25599C5.90506 1.1953 5.99848 1.18013 6.07514 1.21846L15.2805 5.82113C15.3476 5.85547 15.3907 5.92414 15.3907 6C15.3907 6.07586 15.3476 6.14453 15.2805 6.17887Z" fill="#30313D"/>
<path fill-rule="evenodd" clip-rule="evenodd" d="M1.01051 4.20266H3.40607C3.73666 4.20266 4.00496 3.93436 4.00496 3.60377C4.00496 3.27319 3.73666 3.00488 3.40607 3.00488H1.01051C0.679924 3.00488 0.411621 3.27319 0.411621 3.60377C0.411621 3.93436 0.679924 4.20266 1.01051 4.20266Z" fill="#30313D"/>
<path fill-rule="evenodd" clip-rule="evenodd" d="M1.8069 6.59719H3.40394C3.73453 6.59719 4.00283 6.32889 4.00283 5.9983C4.00283 5.66772 3.73453 5.39941 3.40394 5.39941H1.8069C1.47631 5.39941 1.20801 5.66772 1.20801 5.9983C1.20801 6.32889 1.47631 6.59719 1.8069 6.59719Z" fill="#30313D"/>
<path fill-rule="evenodd" clip-rule="evenodd" d="M7.40553 6.59719H15.79C16.1206 6.59719 16.3889 6.32889 16.3889 5.9983C16.3889 5.66772 16.1206 5.39941 15.79 5.39941H7.40553C7.07494 5.39941 6.80664 5.66772 6.80664 5.9983C6.80664 6.32889 7.07494 6.59719 7.40553 6.59719Z" fill="#30313D"/>
<path fill-rule="evenodd" clip-rule="evenodd" d="M2.60914 8.99563H3.40766C3.73825 8.99563 4.00656 8.72733 4.00656 8.39674C4.00656 8.06615 3.73825 7.79785 3.40766 7.79785H2.60914C2.27856 7.79785 2.01025 8.06615 2.01025 8.39674C2.01025 8.72733 2.27856 8.99563 2.60914 8.99563Z" fill="#30313D"/>
</svg>
