<svg width="10" height="14" viewBox="0 0 10 14" fill="none" xmlns="http://www.w3.org/2000/svg">
<path d="M0.883165 8.03544C0.373154 8.54545 0.373155 9.3724 0.883165 9.88241L4.14818 13.1474C4.65819 13.6574 5.48514 13.6574 5.99515 13.1474L9.26016 9.88241C9.77017 9.3724 9.77017 8.54545 9.26016 8.03544C8.75015 7.52543 7.9232 7.52543 7.41319 8.03544L6.3776 9.07104L6.37753 1.77593C6.3776 1.05469 5.79285 0.46994 5.07154 0.46994C4.71089 0.46994 4.38435 0.616097 4.14806 0.852387C3.91171 1.08874 3.76555 1.41528 3.76561 1.77587L3.76561 9.07079L2.7302 8.03538C2.22013 7.52543 1.39318 7.52543 0.883165 8.03544Z" fill="#D20606"/>
</svg>
