<svg width="14" height="10" viewBox="0 0 14 10" fill="none" xmlns="http://www.w3.org/2000/svg">
<path d="M8.10576 9.32973C8.61577 9.83974 9.44272 9.83974 9.95273 9.32973L13.2177 6.06471C13.7278 5.5547 13.7278 4.72775 13.2177 4.21774L9.95273 0.952727C9.44272 0.442717 8.61577 0.442717 8.10576 0.952727C7.59575 1.46274 7.59575 2.28969 8.10576 2.7997L9.14135 3.8353L1.84625 3.83536C1.125 3.83529 0.540253 4.42005 0.540253 5.14135C0.540253 5.502 0.686411 5.82855 0.9227 6.06484C1.15905 6.30119 1.48559 6.44734 1.84618 6.44728L9.14111 6.44728L8.10569 7.48269C7.59575 7.99277 7.59575 8.81972 8.10576 9.32973Z" fill="#6F6F6F"/>
</svg>
