<svg width="10" height="14" viewBox="0 0 10 14" fill="none" xmlns="http://www.w3.org/2000/svg">
<path d="M9.26333 5.55202C9.77531 5.04398 9.7785 4.21704 9.27047 3.70506L6.0181 0.427456C5.51006 -0.0845216 4.68312 -0.0877171 4.17114 0.420318L0.893532 3.67269C0.381554 4.18073 0.378359 5.00767 0.886394 5.51965C1.39443 6.03163 2.22137 6.03482 2.73335 5.52679L3.77294 4.4952L3.74481 11.7903C3.74196 12.5115 4.32445 13.0985 5.04575 13.1013C5.4064 13.1027 5.73351 12.9578 5.97071 12.7224C6.20797 12.487 6.35539 12.161 6.35672 11.8004L6.38491 4.50554L7.41631 5.54494C7.92441 6.05686 8.75135 6.06006 9.26333 5.55202Z" fill="#2580D3"/>
</svg>
