<svg width="26" height="26" viewBox="0 0 26 26" fill="none" xmlns="http://www.w3.org/2000/svg">
<rect x="0.455794" y="0.383529" width="25.2331" height="25.2331" rx="12.6166" fill="#2F42ED" stroke="white" stroke-width="0.548307" stroke-dasharray="1.1 1.1"/>
<path d="M20.2016 15.6011C20.2016 15.7436 20.1079 15.8664 19.9785 15.9085L16.9679 16.8947L15.9818 19.9052C15.939 20.0347 15.8163 20.1283 15.6743 20.1283C15.5355 20.1283 15.419 20.0409 15.3737 19.9213L12.7866 13.1304C12.7698 13.0945 12.7637 13.0561 12.7637 13.0139C12.7637 12.836 12.9093 12.6904 13.0871 12.6904C13.1293 12.6904 13.1677 12.6966 13.2037 12.7134L19.9951 15.3004C20.1142 15.3452 20.2016 15.4616 20.2016 15.6011Z" fill="white"/>
<path d="M12.1416 18.2686C8.72395 18.2686 5.94336 15.488 5.94336 12.0703C5.94336 8.65266 8.72395 5.87207 12.1416 5.87207C15.5593 5.87207 18.3399 8.65266 18.3399 12.0703C18.3399 12.1627 18.3392 12.2551 18.3319 12.348C18.3045 12.6895 18.0151 12.9461 17.6649 12.9171C17.324 12.8904 17.0692 12.5916 17.0959 12.2501C17.1008 12.1906 17.1002 12.1304 17.1002 12.0703C17.1002 9.33623 14.8756 7.11176 12.1416 7.11176C9.40752 7.11176 7.18305 9.33623 7.18305 12.0703C7.18305 14.8043 9.40752 17.0289 12.1416 17.0289C12.2012 17.0295 12.268 17.0295 12.3301 17.0252C12.6734 17.0029 12.9691 17.2551 12.9945 17.5967C13.0206 17.9382 12.7645 18.2357 12.423 18.2611C12.3319 18.2679 12.2327 18.2686 12.1416 18.2686Z" fill="white"/>
</svg>
