<svg width="27" height="26" viewBox="0 0 27 26" fill="none" xmlns="http://www.w3.org/2000/svg">
<rect x="1.0471" y="0.383529" width="25.2331" height="25.2331" rx="12.6166" fill="#FFD000" stroke="#30313D" stroke-width="0.548307" stroke-dasharray="1.1 1.1"/>
<path d="M20.7929 15.6011C20.7929 15.7436 20.6993 15.8664 20.5698 15.9085L17.5592 16.8947L16.5731 19.9052C16.5303 20.0347 16.4076 20.1283 16.2656 20.1283C16.1268 20.1283 16.0103 20.0409 15.965 19.9213L13.3779 13.1304C13.3611 13.0945 13.355 13.0561 13.355 13.0139C13.355 12.836 13.5006 12.6904 13.6784 12.6904C13.7207 12.6904 13.759 12.6966 13.795 12.7134L20.5864 15.3004C20.7055 15.3452 20.7929 15.4616 20.7929 15.6011Z" fill="#30313D"/>
<path d="M12.7329 18.2686C9.31526 18.2686 6.53467 15.488 6.53467 12.0703C6.53467 8.65266 9.31526 5.87207 12.7329 5.87207C16.1506 5.87207 18.9312 8.65266 18.9312 12.0703C18.9312 12.1627 18.9305 12.2551 18.9232 12.348C18.8958 12.6895 18.6064 12.9461 18.2562 12.9171C17.9153 12.8904 17.6605 12.5916 17.6872 12.2501C17.6921 12.1906 17.6915 12.1304 17.6915 12.0703C17.6915 9.33623 15.4669 7.11176 12.7329 7.11176C9.99883 7.11176 7.77436 9.33623 7.77436 12.0703C7.77436 14.8043 9.99883 17.0289 12.7329 17.0289C12.7925 17.0295 12.8593 17.0295 12.9214 17.0252C13.2647 17.0029 13.5604 17.2551 13.5858 17.5967C13.6119 17.9382 13.3559 18.2357 13.0143 18.2611C12.9232 18.2679 12.824 18.2686 12.7329 18.2686Z" fill="#30313D"/>
</svg>
