<svg width="27" height="26" viewBox="0 0 27 26" fill="none" xmlns="http://www.w3.org/2000/svg">
<rect x="0.955794" y="0.383529" width="25.2331" height="25.2331" rx="12.6166" fill="white" stroke="#2D7F06" stroke-width="0.548307" stroke-dasharray="1.1 1.1"/>
<path d="M20.7016 15.6011C20.7016 15.7436 20.6079 15.8664 20.4785 15.9085L17.4679 16.8947L16.4818 19.9052C16.439 20.0347 16.3163 20.1283 16.1743 20.1283C16.0355 20.1283 15.919 20.0409 15.8737 19.9213L13.2866 13.1304C13.2698 13.0945 13.2637 13.0561 13.2637 13.0139C13.2637 12.836 13.4093 12.6904 13.5871 12.6904C13.6293 12.6904 13.6677 12.6966 13.7037 12.7134L20.4951 15.3004C20.6142 15.3452 20.7016 15.4616 20.7016 15.6011Z" fill="#2D7F06"/>
<path d="M12.6416 18.2686C9.22395 18.2686 6.44336 15.488 6.44336 12.0703C6.44336 8.65266 9.22395 5.87207 12.6416 5.87207C16.0593 5.87207 18.8399 8.65266 18.8399 12.0703C18.8399 12.1627 18.8392 12.2551 18.8319 12.348C18.8045 12.6895 18.5151 12.9461 18.1649 12.9171C17.824 12.8904 17.5692 12.5916 17.5959 12.2501C17.6008 12.1906 17.6002 12.1304 17.6002 12.0703C17.6002 9.33623 15.3756 7.11176 12.6416 7.11176C9.90752 7.11176 7.68305 9.33623 7.68305 12.0703C7.68305 14.8043 9.90752 17.0289 12.6416 17.0289C12.7012 17.0295 12.768 17.0295 12.8301 17.0252C13.1734 17.0029 13.4691 17.2551 13.4945 17.5967C13.5206 17.9382 13.2645 18.2357 12.923 18.2611C12.8319 18.2679 12.7327 18.2686 12.6416 18.2686Z" fill="#2D7F06"/>
</svg>
