<svg width="31" height="30" viewBox="0 0 31 30" fill="none" xmlns="http://www.w3.org/2000/svg">
<rect x="0.819013" y="0.319013" width="29.362" height="29.362" rx="14.681" fill="white"/>
<rect x="0.819013" y="0.319013" width="29.362" height="29.362" rx="14.681" stroke="#E05757" stroke-width="0.638026" stroke-dasharray="1.28 1.28"/>
<path d="M23.7961 18.0256C23.7961 18.1915 23.6871 18.3344 23.5364 18.3834L20.0333 19.5309L18.8858 23.034C18.836 23.1847 18.6932 23.2936 18.528 23.2936C18.3665 23.2936 18.2309 23.1919 18.1782 23.0528L15.1678 15.1507C15.1482 15.1088 15.1411 15.0642 15.1411 15.0151C15.1411 14.8081 15.3106 14.6387 15.5175 14.6387C15.5666 14.6387 15.6113 14.6458 15.6531 14.6653L23.5559 17.6758C23.6944 17.7278 23.7961 17.8633 23.7961 18.0256Z" fill="#E05757"/>
<path d="M14.417 21.1301C10.4402 21.1301 7.20459 17.8945 7.20459 13.9175C7.20459 9.94065 10.4402 6.70508 14.417 6.70508C18.394 6.70508 21.6296 9.94065 21.6296 13.9175C21.6296 14.025 21.6288 14.1325 21.6202 14.2407C21.5884 14.638 21.2516 14.9366 20.8441 14.9028C20.4475 14.8718 20.151 14.5241 20.182 14.1267C20.1877 14.0575 20.187 13.9875 20.187 13.9175C20.187 10.7361 17.5984 8.14762 14.417 8.14762C11.2356 8.14762 8.64713 10.7361 8.64713 13.9175C8.64713 17.0989 11.2356 19.6875 14.417 19.6875C14.4864 19.6882 14.5641 19.6882 14.6364 19.6832C15.0359 19.6573 15.3799 19.9507 15.4095 20.3482C15.4399 20.7456 15.1419 21.0918 14.7445 21.1214C14.6385 21.1293 14.5231 21.1301 14.417 21.1301Z" fill="#E05757"/>
</svg>
