<svg width="15" height="16" viewBox="0 0 15 16" fill="none" xmlns="http://www.w3.org/2000/svg">
<g id="Icon Container">
<path id="Vector" d="M14.7926 10.6011C14.7926 10.7436 14.699 10.8664 14.5695 10.9085L11.559 11.8947L10.5728 14.9052C10.5301 15.0347 10.4074 15.1283 10.2654 15.1283C10.1266 15.1283 10.01 15.0409 9.96475 14.9213L7.37766 8.13044C7.36086 8.09447 7.35474 8.05611 7.35474 8.01389C7.35474 7.83604 7.50035 7.69043 7.67819 7.69043C7.72041 7.69043 7.75877 7.69656 7.79475 7.71336L14.5862 10.3004C14.7053 10.3452 14.7926 10.4616 14.7926 10.6011Z" fill="#30313D"/>
<path id="Vector_2" d="M6.73264 13.2686C3.31501 13.2686 0.534424 10.488 0.534424 7.07029C0.534424 3.65266 3.31501 0.87207 6.73264 0.87207C10.1504 0.87207 12.931 3.65266 12.931 7.07029C12.931 7.16267 12.9303 7.25506 12.9229 7.34801C12.8956 7.68951 12.6062 7.94612 12.2559 7.91706C11.9151 7.89039 11.6603 7.59156 11.687 7.25006C11.6919 7.19059 11.6913 7.13044 11.6913 7.07029C11.6913 4.33623 9.4667 2.11176 6.73264 2.11176C3.99858 2.11176 1.77411 4.33623 1.77411 7.07029C1.77411 9.80435 3.99858 12.0289 6.73264 12.0289C6.79223 12.0295 6.85907 12.0295 6.92115 12.0252C7.26447 12.0029 7.56012 12.2551 7.58555 12.5967C7.61165 12.9382 7.35561 13.2357 7.01411 13.2611C6.92297 13.2679 6.82378 13.2686 6.73264 13.2686Z" fill="#30313D"/>
</g>
</svg>
