<svg width="27" height="26" viewBox="0 0 27 26" fill="none" xmlns="http://www.w3.org/2000/svg">
<rect x="0.774154" y="0.383529" width="25.2331" height="25.2331" rx="12.6166" fill="white" stroke="#30313D" stroke-width="0.548307" stroke-dasharray="1.1 1.1"/>
<path d="M20.5199 15.6011C20.5199 15.7436 20.4263 15.8664 20.2968 15.9085L17.2863 16.8947L16.3001 19.9052C16.2574 20.0347 16.1347 20.1283 15.9927 20.1283C15.8539 20.1283 15.7373 20.0409 15.692 19.9213L13.105 13.1304C13.0882 13.0945 13.082 13.0561 13.082 13.0139C13.082 12.836 13.2276 12.6904 13.4055 12.6904C13.4477 12.6904 13.4861 12.6966 13.522 12.7134L20.3135 15.3004C20.4325 15.3452 20.5199 15.4616 20.5199 15.6011Z" fill="#30313D"/>
<path d="M12.4599 18.2686C9.04231 18.2686 6.26172 15.488 6.26172 12.0703C6.26172 8.65266 9.04231 5.87207 12.4599 5.87207C15.8777 5.87207 18.6583 8.65266 18.6583 12.0703C18.6583 12.1627 18.6576 12.2551 18.6502 12.348C18.6229 12.6895 18.3335 12.9461 17.9832 12.9171C17.6424 12.8904 17.3876 12.5916 17.4143 12.2501C17.4191 12.1906 17.4186 12.1304 17.4186 12.0703C17.4186 9.33623 15.194 7.11176 12.4599 7.11176C9.72588 7.11176 7.50141 9.33623 7.50141 12.0703C7.50141 14.8043 9.72588 17.0289 12.4599 17.0289C12.5195 17.0295 12.5864 17.0295 12.6484 17.0252C12.9918 17.0029 13.2874 17.2551 13.3128 17.5967C13.3389 17.9382 13.0829 18.2357 12.7414 18.2611C12.6503 18.2679 12.5511 18.2686 12.4599 18.2686Z" fill="#30313D"/>
</svg>
