<svg width="31" height="31" viewBox="0 0 31 31" fill="none" xmlns="http://www.w3.org/2000/svg">
<rect x="0.819013" y="0.819013" width="29.362" height="29.362" rx="14.681" fill="white"/>
<rect x="0.819013" y="0.819013" width="29.362" height="29.362" rx="14.681" stroke="#2580D3" stroke-width="0.638026" stroke-dasharray="1.28 1.28"/>
<path d="M23.7961 18.5256C23.7961 18.6915 23.6871 18.8344 23.5364 18.8834L20.0333 20.0309L18.8858 23.534C18.836 23.6847 18.6932 23.7936 18.528 23.7936C18.3665 23.7936 18.2309 23.6919 18.1782 23.5528L15.1678 15.6507C15.1482 15.6088 15.1411 15.5642 15.1411 15.5151C15.1411 15.3081 15.3106 15.1387 15.5175 15.1387C15.5666 15.1387 15.6113 15.1458 15.6531 15.1653L23.5559 18.1758C23.6944 18.2278 23.7961 18.3633 23.7961 18.5256Z" fill="#2580D3"/>
<path d="M14.417 21.6301C10.4402 21.6301 7.20459 18.3945 7.20459 14.4175C7.20459 10.4407 10.4402 7.20508 14.417 7.20508C18.394 7.20508 21.6296 10.4407 21.6296 14.4175C21.6296 14.525 21.6288 14.6325 21.6202 14.7407C21.5884 15.138 21.2516 15.4366 20.8441 15.4028C20.4475 15.3718 20.151 15.0241 20.182 14.6267C20.1877 14.5575 20.187 14.4875 20.187 14.4175C20.187 11.2361 17.5984 8.64762 14.417 8.64762C11.2356 8.64762 8.64713 11.2361 8.64713 14.4175C8.64713 17.5989 11.2356 20.1875 14.417 20.1875C14.4864 20.1882 14.5641 20.1882 14.6364 20.1832C15.0359 20.1573 15.3799 20.4507 15.4095 20.8482C15.4399 21.2456 15.1419 21.5918 14.7445 21.6214C14.6385 21.6293 14.5231 21.6301 14.417 21.6301Z" fill="#2580D3"/>
</svg>
