<svg width="11" height="14" viewBox="0 0 11 14" fill="none" xmlns="http://www.w3.org/2000/svg">
<path d="M10.2917 2.80534H8.6125C8.48678 2.19402 8.15415 1.64473 7.67068 1.25006C7.1872 0.855387 6.58244 0.63946 5.95833 0.638672L4.875 0.638672C4.25089 0.63946 3.64613 0.855387 3.16266 1.25006C2.67918 1.64473 2.34655 2.19402 2.22083 2.80534H0.541667C0.398008 2.80534 0.260233 2.86241 0.15865 2.96399C0.0570683 3.06557 0 3.20335 0 3.34701C0 3.49066 0.0570683 3.62844 0.15865 3.73002C0.260233 3.8316 0.398008 3.88867 0.541667 3.88867H1.08333V10.9303C1.08419 11.6484 1.36981 12.3367 1.87754 12.8445C2.38526 13.3522 3.07364 13.6378 3.79167 13.6387H7.04167C7.7597 13.6378 8.44807 13.3522 8.9558 12.8445C9.46352 12.3367 9.74914 11.6484 9.75 10.9303V3.88867H10.2917C10.4353 3.88867 10.5731 3.8316 10.6747 3.73002C10.7763 3.62844 10.8333 3.49066 10.8333 3.34701C10.8333 3.20335 10.7763 3.06557 10.6747 2.96399C10.5731 2.86241 10.4353 2.80534 10.2917 2.80534ZM4.875 1.72201H5.95833C6.29431 1.72242 6.62194 1.82675 6.89629 2.0207C7.17064 2.21466 7.37827 2.48873 7.49071 2.80534H3.34262C3.45507 2.48873 3.6627 2.21466 3.93704 2.0207C4.21139 1.82675 4.53902 1.72242 4.875 1.72201ZM8.66667 10.9303C8.66667 11.3613 8.49546 11.7746 8.19071 12.0794C7.88597 12.3841 7.47264 12.5553 7.04167 12.5553H3.79167C3.36069 12.5553 2.94736 12.3841 2.64262 12.0794C2.33787 11.7746 2.16667 11.3613 2.16667 10.9303V3.88867H8.66667V10.9303Z" fill="#EC1D42"/>
<path d="M4.33073 10.3885C4.47439 10.3885 4.61216 10.3314 4.71375 10.2299C4.81533 10.1283 4.8724 9.9905 4.8724 9.84684V6.59684C4.8724 6.45318 4.81533 6.31541 4.71375 6.21383C4.61216 6.11224 4.47439 6.05518 4.33073 6.05518C4.18707 6.05518 4.0493 6.11224 3.94771 6.21383C3.84613 6.31541 3.78906 6.45318 3.78906 6.59684V9.84684C3.78906 9.9905 3.84613 10.1283 3.94771 10.2299C4.0493 10.3314 4.18707 10.3885 4.33073 10.3885Z" fill="#EC1D42"/>
<path d="M6.5026 10.3885C6.64626 10.3885 6.78404 10.3314 6.88562 10.2299C6.9872 10.1283 7.04427 9.9905 7.04427 9.84684V6.59684C7.04427 6.45318 6.9872 6.31541 6.88562 6.21383C6.78404 6.11224 6.64626 6.05518 6.5026 6.05518C6.35895 6.05518 6.22117 6.11224 6.11959 6.21383C6.01801 6.31541 5.96094 6.45318 5.96094 6.59684V9.84684C5.96094 9.9905 6.01801 10.1283 6.11959 10.2299C6.22117 10.3314 6.35895 10.3885 6.5026 10.3885Z" fill="#EC1D42"/>
</svg>
