<svg width="24" height="24" viewBox="0 0 24 24" fill="none" xmlns="http://www.w3.org/2000/svg">
<g id="Group 290598">
<path id="Vector" d="M14.25 3H11.925C11.7509 2.15356 11.2904 1.39301 10.6209 0.846539C9.95151 0.300068 9.11415 0.00109089 8.25 0L6.75 0C5.88585 0.00109089 5.04849 0.300068 4.37906 0.846539C3.70964 1.39301 3.24907 2.15356 3.075 3H0.75C0.551088 3 0.360322 3.07902 0.21967 3.21967C0.0790176 3.36032 0 3.55109 0 3.75C0 3.94891 0.0790176 4.13968 0.21967 4.28033C0.360322 4.42098 0.551088 4.5 0.75 4.5H1.5V14.25C1.50119 15.2442 1.89666 16.1973 2.59966 16.9003C3.30267 17.6033 4.2558 17.9988 5.25 18H9.75C10.7442 17.9988 11.6973 17.6033 12.4003 16.9003C13.1033 16.1973 13.4988 15.2442 13.5 14.25V4.5H14.25C14.4489 4.5 14.6397 4.42098 14.7803 4.28033C14.921 4.13968 15 3.94891 15 3.75C15 3.55109 14.921 3.36032 14.7803 3.21967C14.6397 3.07902 14.4489 3 14.25 3ZM6.75 1.5H8.25C8.71521 1.50057 9.16885 1.64503 9.54871 1.91358C9.92857 2.18213 10.2161 2.56162 10.3717 3H4.62825C4.78394 2.56162 5.07143 2.18213 5.45129 1.91358C5.83115 1.64503 6.28479 1.50057 6.75 1.5ZM12 14.25C12 14.8467 11.7629 15.419 11.341 15.841C10.919 16.2629 10.3467 16.5 9.75 16.5H5.25C4.65326 16.5 4.08097 16.2629 3.65901 15.841C3.23705 15.419 3 14.8467 3 14.25V4.5H12V14.25Z" fill="#666666"/>
<path id="Vector_2" d="M5.99561 13.499C6.19452 13.499 6.38528 13.42 6.52594 13.2794C6.66659 13.1387 6.74561 12.9479 6.74561 12.749V8.24902C6.74561 8.05011 6.66659 7.85935 6.52594 7.71869C6.38528 7.57804 6.19452 7.49902 5.99561 7.49902C5.79669 7.49902 5.60593 7.57804 5.46528 7.71869C5.32462 7.85935 5.24561 8.05011 5.24561 8.24902V12.749C5.24561 12.9479 5.32462 13.1387 5.46528 13.2794C5.60593 13.42 5.79669 13.499 5.99561 13.499Z" fill="#666666"/>
<path id="Vector_3" d="M9.00049 13.499C9.1994 13.499 9.39017 13.42 9.53082 13.2794C9.67147 13.1387 9.75049 12.9479 9.75049 12.749V8.24902C9.75049 8.05011 9.67147 7.85935 9.53082 7.71869C9.39017 7.57804 9.1994 7.49902 9.00049 7.49902C8.80158 7.49902 8.61081 7.57804 8.47016 7.71869C8.32951 7.85935 8.25049 8.05011 8.25049 8.24902V12.749C8.25049 12.9479 8.32951 13.1387 8.47016 13.2794C8.61081 13.42 8.80158 13.499 9.00049 13.499Z" fill="#666666"/>
</g>
</svg>
