<svg width="16" height="19" viewBox="0 0 16 19" fill="none" xmlns="http://www.w3.org/2000/svg">
<path d="M14.6195 3.88386H12.298C12.1241 3.03868 11.6643 2.27925 10.9958 1.73359C10.3274 1.18793 9.49128 0.889395 8.6284 0.888306L7.13063 0.888306C6.26775 0.889395 5.43164 1.18793 4.7632 1.73359C4.09476 2.27925 3.63488 3.03868 3.46107 3.88386H1.13951C0.940896 3.88386 0.750413 3.96276 0.609969 4.10321C0.469526 4.24365 0.390625 4.43413 0.390625 4.63275C0.390625 4.83137 0.469526 5.02185 0.609969 5.1623C0.750413 5.30274 0.940896 5.38164 1.13951 5.38164H1.8884V15.1172C1.88959 16.1099 2.28448 17.0616 2.98644 17.7636C3.6884 18.4656 4.64012 18.8605 5.63285 18.8616H10.1262C11.1189 18.8605 12.0706 18.4656 12.7726 17.7636C13.4746 17.0616 13.8694 16.1099 13.8706 15.1172V5.38164H14.6195C14.8181 5.38164 15.0086 5.30274 15.1491 5.1623C15.2895 5.02185 15.3684 4.83137 15.3684 4.63275C15.3684 4.43413 15.2895 4.24365 15.1491 4.10321C15.0086 3.96276 14.8181 3.88386 14.6195 3.88386ZM7.13063 2.38608H8.6284C9.09292 2.38665 9.54589 2.5309 9.92519 2.79905C10.3045 3.06721 10.5916 3.44613 10.747 3.88386H5.01202C5.16748 3.44613 5.45454 3.06721 5.83384 2.79905C6.21314 2.5309 6.66611 2.38665 7.13063 2.38608ZM12.3728 15.1172C12.3728 15.7131 12.1361 16.2845 11.7148 16.7058C11.2935 17.1272 10.722 17.3639 10.1262 17.3639H5.63285C5.03699 17.3639 4.46555 17.1272 4.04421 16.7058C3.62288 16.2845 3.38618 15.7131 3.38618 15.1172V5.38164H12.3728V15.1172Z" fill="#BB2020"/>
<path d="M6.3778 14.3688C6.57641 14.3688 6.7669 14.2899 6.90734 14.1495C7.04778 14.009 7.12668 13.8185 7.12668 13.6199V9.12657C7.12668 8.92796 7.04778 8.73747 6.90734 8.59703C6.7669 8.45659 6.57641 8.37769 6.3778 8.37769C6.17918 8.37769 5.98869 8.45659 5.84825 8.59703C5.70781 8.73747 5.62891 8.92796 5.62891 9.12657V13.6199C5.62891 13.8185 5.70781 14.009 5.84825 14.1495C5.98869 14.2899 6.17918 14.3688 6.3778 14.3688Z" fill="#BB2020"/>
<path d="M9.3778 14.3688C9.57641 14.3688 9.7669 14.2899 9.90734 14.1495C10.0478 14.009 10.1267 13.8185 10.1267 13.6199V9.12657C10.1267 8.92796 10.0478 8.73747 9.90734 8.59703C9.7669 8.45659 9.57641 8.37769 9.3778 8.37769C9.17918 8.37769 8.98869 8.45659 8.84825 8.59703C8.70781 8.73747 8.62891 8.92796 8.62891 9.12657V13.6199C8.62891 13.8185 8.70781 14.009 8.84825 14.1495C8.98869 14.2899 9.17918 14.3688 9.3778 14.3688Z" fill="#BB2020"/>
</svg>
