<svg width="16" height="15" viewBox="0 0 16 15" fill="none" xmlns="http://www.w3.org/2000/svg">
<path d="M12.4893 1.40933H11.8774V0.79744C11.8774 0.635156 11.8129 0.479519 11.6981 0.364766C11.5834 0.250014 11.4278 0.185547 11.2655 0.185547C11.1032 0.185547 10.9475 0.250014 10.8328 0.364766C10.718 0.479519 10.6536 0.635156 10.6536 0.79744V1.40933H5.75843V0.79744C5.75843 0.635156 5.69396 0.479519 5.57921 0.364766C5.46446 0.250014 5.30882 0.185547 5.14654 0.185547C4.98425 0.185547 4.82861 0.250014 4.71386 0.364766C4.59911 0.479519 4.53464 0.635156 4.53464 0.79744V1.40933H3.92275C3.11163 1.41031 2.334 1.73295 1.76045 2.3065C1.1869 2.88006 0.864253 3.65768 0.863281 4.4688L0.863281 11.8115C0.864253 12.6226 1.1869 13.4003 1.76045 13.9738C2.334 14.5474 3.11163 14.87 3.92275 14.871H12.4893C13.3004 14.87 14.078 14.5474 14.6516 13.9738C15.2251 13.4003 15.5478 12.6226 15.5487 11.8115V4.4688C15.5478 3.65768 15.2251 2.88006 14.6516 2.3065C14.078 1.73295 13.3004 1.41031 12.4893 1.40933ZM2.08707 4.4688C2.08707 3.98195 2.28047 3.51504 2.62473 3.17078C2.96898 2.82652 3.4359 2.63312 3.92275 2.63312H12.4893C12.9761 2.63312 13.443 2.82652 13.7873 3.17078C14.1315 3.51504 14.3249 3.98195 14.3249 4.4688V5.0807H2.08707V4.4688ZM12.4893 13.6472H3.92275C3.4359 13.6472 2.96898 13.4538 2.62473 13.1095C2.28047 12.7653 2.08707 12.2984 2.08707 11.8115V6.30448H14.3249V11.8115C14.3249 12.2984 14.1315 12.7653 13.7873 13.1095C13.443 13.4538 12.9761 13.6472 12.4893 13.6472Z" fill="#666666"/>
<path d="M8.2069 10.2817C8.71381 10.2817 9.12474 9.87079 9.12474 9.36389C9.12474 8.85698 8.71381 8.44604 8.2069 8.44604C7.69999 8.44604 7.28906 8.85698 7.28906 9.36389C7.28906 9.87079 7.69999 10.2817 8.2069 10.2817Z" fill="#666666"/>
<path d="M5.14245 10.2817C5.64936 10.2817 6.06029 9.87079 6.06029 9.36389C6.06029 8.85698 5.64936 8.44604 5.14245 8.44604C4.63554 8.44604 4.22461 8.85698 4.22461 9.36389C4.22461 9.87079 4.63554 10.2817 5.14245 10.2817Z" fill="#666666"/>
<path d="M11.2694 10.2817C11.7763 10.2817 12.1872 9.87079 12.1872 9.36389C12.1872 8.85698 11.7763 8.44604 11.2694 8.44604C10.7625 8.44604 10.3516 8.85698 10.3516 9.36389C10.3516 9.87079 10.7625 10.2817 11.2694 10.2817Z" fill="#666666"/>
</svg>
