<svg width="16" height="17" viewBox="0 0 16 17" fill="none" xmlns="http://www.w3.org/2000/svg">
<g id="Group 22022">
<path id="Vector" d="M12.6667 1.50911H12V0.842448C12 0.665637 11.9298 0.496068 11.8047 0.371043C11.6797 0.246019 11.5101 0.175781 11.3333 0.175781C11.1565 0.175781 10.987 0.246019 10.8619 0.371043C10.7369 0.496068 10.6667 0.665637 10.6667 0.842448V1.50911H5.33333V0.842448C5.33333 0.665637 5.2631 0.496068 5.13807 0.371043C5.01305 0.246019 4.84348 0.175781 4.66667 0.175781C4.48986 0.175781 4.32029 0.246019 4.19526 0.371043C4.07024 0.496068 4 0.665637 4 0.842448V1.50911H3.33333C2.4496 1.51017 1.60237 1.8617 0.97748 2.48659C0.352588 3.11149 0.00105857 3.95872 0 4.84245L0 12.8424C0.00105857 13.7262 0.352588 14.5734 0.97748 15.1983C1.60237 15.8232 2.4496 16.1747 3.33333 16.1758H12.6667C13.5504 16.1747 14.3976 15.8232 15.0225 15.1983C15.6474 14.5734 15.9989 13.7262 16 12.8424V4.84245C15.9989 3.95872 15.6474 3.11149 15.0225 2.48659C14.3976 1.8617 13.5504 1.51017 12.6667 1.50911ZM1.33333 4.84245C1.33333 4.31202 1.54405 3.80331 1.91912 3.42823C2.29419 3.05316 2.8029 2.84245 3.33333 2.84245H12.6667C13.1971 2.84245 13.7058 3.05316 14.0809 3.42823C14.456 3.80331 14.6667 4.31202 14.6667 4.84245V5.50911H1.33333V4.84245ZM12.6667 14.8424H3.33333C2.8029 14.8424 2.29419 14.6317 1.91912 14.2567C1.54405 13.8816 1.33333 13.3729 1.33333 12.8424V6.84245H14.6667V12.8424C14.6667 13.3729 14.456 13.8816 14.0809 14.2567C13.7058 14.6317 13.1971 14.8424 12.6667 14.8424Z" fill="#30313D"/>
<path id="Vector_2" d="M8 11.1758C8.55228 11.1758 9 10.7281 9 10.1758C9 9.6235 8.55228 9.17578 8 9.17578C7.44772 9.17578 7 9.6235 7 10.1758C7 10.7281 7.44772 11.1758 8 11.1758Z" fill="#30313D"/>
<path id="Vector_3" d="M4.66309 11.1758C5.21537 11.1758 5.66309 10.7281 5.66309 10.1758C5.66309 9.6235 5.21537 9.17578 4.66309 9.17578C4.1108 9.17578 3.66309 9.6235 3.66309 10.1758C3.66309 10.7281 4.1108 11.1758 4.66309 11.1758Z" fill="#30313D"/>
<path id="Vector_4" d="M11.3369 11.1758C11.8892 11.1758 12.3369 10.7281 12.3369 10.1758C12.3369 9.6235 11.8892 9.17578 11.3369 9.17578C10.7846 9.17578 10.3369 9.6235 10.3369 10.1758C10.3369 10.7281 10.7846 11.1758 11.3369 11.1758Z" fill="#30313D"/>
</g>
</svg>
