<svg width="14" height="14" viewBox="0 0 14 14" fill="none" xmlns="http://www.w3.org/2000/svg">
<path d="M9.45301 5.76982C7.30718 5.76982 5.5606 7.47066 5.5606 9.56149C5.5606 11.6404 7.30718 13.332 9.45301 13.332C11.5988 13.332 13.3454 11.6312 13.3454 9.54037C13.3454 7.46145 11.5988 5.76982 9.45301 5.76982ZM9.45301 12.2487C7.91996 12.2487 6.67272 11.0429 6.67272 9.56149C6.67272 8.06811 7.91996 6.85316 9.45301 6.85316C10.9861 6.85316 12.2333 8.05891 12.2333 9.54037C12.2333 11.0337 10.9861 12.2487 9.45301 12.2487ZM10.4022 9.69907C10.6196 9.91086 10.6196 10.2532 10.4022 10.465C10.2938 10.5706 10.1514 10.6237 10.0091 10.6237C9.86672 10.6237 9.72437 10.5706 9.61594 10.465L9.05988 9.92332C8.95534 9.82149 8.89695 9.68391 8.89695 9.54037V8.45703C8.89695 8.15803 9.14551 7.91537 9.45301 7.91537C9.76052 7.91537 10.0091 8.15803 10.0091 8.45703V9.31612L10.4022 9.69907ZM13.3454 4.1237V5.20703C13.3454 5.50603 13.0969 5.7487 12.7894 5.7487C12.4819 5.7487 12.2333 5.50603 12.2333 5.20703V4.1237C12.2333 3.22778 11.4849 2.4987 10.5651 2.4987H2.7803C1.86058 2.4987 1.11212 3.22778 1.11212 4.1237V4.66536H6.11666C6.4236 4.66536 6.67272 4.90803 6.67272 5.20703C6.67272 5.50603 6.4236 5.7487 6.11666 5.7487H1.11212V10.6237C1.11212 11.5196 1.86058 12.2487 2.7803 12.2487H5.00454C5.31148 12.2487 5.5606 12.4914 5.5606 12.7904C5.5606 13.0894 5.31148 13.332 5.00454 13.332H2.7803C1.24724 13.332 0 12.1171 0 10.6237V4.1237C0 2.63032 1.24724 1.41536 2.7803 1.41536H3.33636V0.873698C3.33636 0.574698 3.58547 0.332031 3.89242 0.332031C4.19936 0.332031 4.44848 0.574698 4.44848 0.873698V1.41536H8.89695V0.873698C8.89695 0.574698 9.14551 0.332031 9.45301 0.332031C9.76052 0.332031 10.0091 0.574698 10.0091 0.873698V1.41536H10.5651C12.0982 1.41536 13.3454 2.63032 13.3454 4.1237Z" fill="#30313D"/>
</svg>
