<svg width="14" height="14" viewBox="0 0 14 14" fill="none" xmlns="http://www.w3.org/2000/svg">
<path d="M2.91977 5.24508C2.40649 5.24508 1.89321 5.0526 1.50825 4.66181L0.17256 3.33194C-0.0549159 3.10447 -0.0549159 2.73701 0.17256 2.50953C0.400037 2.28205 0.767498 2.28205 0.994975 2.50953L2.32484 3.83939C2.65147 4.16602 3.17641 4.16602 3.50305 3.83939L5.5795 1.76294C6.36108 0.981356 7.62678 0.981356 8.40837 1.76294L9.31827 2.67285C9.63324 2.98781 10.1815 2.98781 10.4965 2.67285L13.0046 0.170607C13.232 -0.0568691 13.5995 -0.0568691 13.827 0.170607C14.0544 0.398084 14.0544 0.765545 13.827 0.993022L11.3306 3.48943C10.5781 4.24185 9.25995 4.24185 8.50169 3.48943L7.59179 2.57952C7.26515 2.25289 6.74021 2.25289 6.41358 2.57952L4.33713 4.65597C3.94633 5.04677 3.43305 5.23925 2.92561 5.23925L2.91977 5.24508ZM4.66959 13.4167V8.16727C4.66959 7.84647 4.40712 7.584 4.08632 7.584C3.76552 7.584 3.50305 7.84647 3.50305 8.16727V13.4167C3.50305 13.7375 3.76552 14 4.08632 14C4.40712 14 4.66959 13.7375 4.66959 13.4167ZM1.75323 13.4167V7.00073C1.75323 6.67993 1.49076 6.41746 1.16996 6.41746C0.849157 6.41746 0.586684 6.67993 0.586684 7.00073V13.4167C0.586684 13.7375 0.849157 14 1.16996 14C1.49076 14 1.75323 13.7375 1.75323 13.4167ZM7.58595 13.4167V5.25091C7.58595 4.93011 7.32348 4.66764 7.00268 4.66764C6.68188 4.66764 6.41941 4.93011 6.41941 5.25091V13.4167C6.41941 13.7375 6.68188 14 7.00268 14C7.32348 14 7.58595 13.7375 7.58595 13.4167ZM10.5023 13.4167V7.00073C10.5023 6.67993 10.2398 6.41746 9.91905 6.41746C9.59825 6.41746 9.33577 6.67993 9.33577 7.00073V13.4167C9.33577 13.7375 9.59825 14 9.91905 14C10.2398 14 10.5023 13.7375 10.5023 13.4167ZM13.4187 13.4167V4.66764C13.4187 4.34684 13.1562 4.08437 12.8354 4.08437C12.5146 4.08437 12.2521 4.34684 12.2521 4.66764V13.4167C12.2521 13.7375 12.5146 14 12.8354 14C13.1562 14 13.4187 13.7375 13.4187 13.4167Z" fill="#2580D3"/>
</svg>
