<svg width="35" height="35" viewBox="0 0 35 35" fill="none" xmlns="http://www.w3.org/2000/svg">
<g id="Icon">
<path id="Vector" d="M3.41977 5.24508C2.90649 5.24508 2.39321 5.0526 2.00825 4.66181L0.67256 3.33194C0.445084 3.10447 0.445084 2.73701 0.67256 2.50953C0.900037 2.28205 1.2675 2.28205 1.49497 2.50953L2.82484 3.83939C3.15147 4.16602 3.67641 4.16602 4.00305 3.83939L6.0795 1.76294C6.86108 0.981356 8.12678 0.981356 8.90837 1.76294L9.81827 2.67285C10.1332 2.98781 10.6815 2.98781 10.9965 2.67285L13.5046 0.170607C13.732 -0.0568691 14.0995 -0.0568691 14.327 0.170607C14.5544 0.398084 14.5544 0.765545 14.327 0.993022L11.8306 3.48943C11.0781 4.24185 9.75995 4.24185 9.00169 3.48943L8.09179 2.57952C7.76515 2.25289 7.24021 2.25289 6.91358 2.57952L4.83713 4.65597C4.44633 5.04677 3.93305 5.23925 3.42561 5.23925L3.41977 5.24508ZM5.16959 13.4167V8.16727C5.16959 7.84647 4.90712 7.584 4.58632 7.584C4.26552 7.584 4.00305 7.84647 4.00305 8.16727V13.4167C4.00305 13.7375 4.26552 14 4.58632 14C4.90712 14 5.16959 13.7375 5.16959 13.4167ZM2.25323 13.4167V7.00073C2.25323 6.67993 1.99076 6.41746 1.66996 6.41746C1.34916 6.41746 1.08668 6.67993 1.08668 7.00073V13.4167C1.08668 13.7375 1.34916 14 1.66996 14C1.99076 14 2.25323 13.7375 2.25323 13.4167ZM8.08595 13.4167V5.25091C8.08595 4.93011 7.82348 4.66764 7.50268 4.66764C7.18188 4.66764 6.91941 4.93011 6.91941 5.25091V13.4167C6.91941 13.7375 7.18188 14 7.50268 14C7.82348 14 8.08595 13.7375 8.08595 13.4167ZM11.0023 13.4167V7.00073C11.0023 6.67993 10.7398 6.41746 10.419 6.41746C10.0982 6.41746 9.83577 6.67993 9.83577 7.00073V13.4167C9.83577 13.7375 10.0982 14 10.419 14C10.7398 14 11.0023 13.7375 11.0023 13.4167ZM13.9187 13.4167V4.66764C13.9187 4.34684 13.6562 4.08437 13.3354 4.08437C13.0146 4.08437 12.7521 4.34684 12.7521 4.66764V13.4167C12.7521 13.7375 13.0146 14 13.3354 14C13.6562 14 13.9187 13.7375 13.9187 13.4167Z" fill="#3C3D48"/>
</g>
</svg>
