<svg width="13" height="8" viewBox="0 0 13 8" fill="none" xmlns="http://www.w3.org/2000/svg">
<path d="M1.37794 3.63619C1.1771 3.43534 0.851469 3.43534 0.650629 3.63619C0.44979 3.83703 0.44979 4.16261 0.650629 4.36346L1.37794 3.63619ZM3.75715 6.74268L3.39349 7.10632C3.59433 7.30716 3.91996 7.30716 4.1208 7.10632L3.75715 6.74268ZM9.6065 1.62062C9.80735 1.41978 9.80735 1.09414 9.6065 0.893305C9.40566 0.692466 9.08008 0.692466 8.87923 0.893305L9.6065 1.62062ZM4.1208 3.63619C3.91996 3.43534 3.59433 3.43534 3.39349 3.63619C3.19265 3.83703 3.19265 4.16261 3.39349 4.36346L4.1208 3.63619ZM6.50001 6.74268L6.13637 7.10632C6.33722 7.30716 6.6628 7.30716 6.86364 7.10632L6.50001 6.74268ZM12.3494 1.62062C12.5502 1.41978 12.5502 1.09414 12.3494 0.893305C12.1485 0.692466 11.8229 0.692466 11.6221 0.893305L12.3494 1.62062ZM0.650629 4.36346L3.39349 7.10632L4.1208 6.37905L1.37794 3.63619L0.650629 4.36346ZM4.1208 7.10632L9.6065 1.62062L8.87923 0.893305L3.39349 6.37905L4.1208 7.10632ZM3.39349 4.36346L6.13637 7.10632L6.86364 6.37905L4.1208 3.63619L3.39349 4.36346ZM6.86364 7.10632L12.3494 1.62062L11.6221 0.893305L6.13637 6.37905L6.86364 7.10632Z" fill="#2D7F06"/>
</svg>
