<svg width="23" height="23" viewBox="0 0 23 23" fill="none" xmlns="http://www.w3.org/2000/svg">
<path d="M11.2952 0C9.06118 0 6.87738 0.662449 5.01991 1.90358C3.16243 3.1447 1.7147 4.90876 0.859797 6.97268C0.00489405 9.0366 -0.218788 11.3077 0.217038 13.4987C0.652864 15.6898 1.72862 17.7024 3.30828 19.282C4.88793 20.8617 6.90054 21.9374 9.09158 22.3733C11.2826 22.8091 13.5537 22.5854 15.6176 21.7305C17.6815 20.8756 19.4456 19.4279 20.6867 17.5704C21.9279 15.7129 22.5903 13.5291 22.5903 11.2951C22.5868 8.30057 21.3956 5.42966 19.2781 3.31217C17.1606 1.19469 14.2897 0.00353278 11.2952 0ZM17.0978 8.99402L9.90996 15.155C9.70486 15.3301 9.43911 15.4175 9.17013 15.3982C8.90115 15.379 8.65053 15.2548 8.47239 15.0523L5.3919 11.5313C5.29221 11.4321 5.21399 11.3134 5.16207 11.1826C5.11016 11.0519 5.08566 10.9119 5.09009 10.7713C5.09453 10.6307 5.12781 10.4925 5.18787 10.3653C5.24792 10.2381 5.33348 10.1246 5.43922 10.0318C5.54496 9.93903 5.66864 9.86897 5.80258 9.82598C5.93652 9.78299 6.07787 9.76797 6.21785 9.78187C6.35783 9.79577 6.49347 9.83828 6.61634 9.90677C6.73922 9.97525 6.84671 10.0683 6.93215 10.18L9.34417 12.9381L15.7598 7.43837C15.9679 7.27331 16.2319 7.19532 16.4964 7.2208C16.7608 7.24627 17.005 7.37322 17.1778 7.57498C17.3506 7.77674 17.4385 8.03761 17.423 8.30279C17.4075 8.56798 17.2898 8.81684 17.0947 8.9971L17.0978 8.99402Z" fill="#2D7F06"/>
</svg>
