<svg width="16" height="14" viewBox="0 0 16 14" fill="none" xmlns="http://www.w3.org/2000/svg">
<path d="M12.755 0H3.24552C2.61501 0 2.01032 0.245836 1.56448 0.683427C1.11864 1.12102 0.868164 1.71452 0.868164 2.33337L0.868164 9.33346C0.868164 9.95231 1.11864 10.5458 1.56448 10.9834C2.01032 11.421 2.61501 11.6668 3.24552 11.6668H4.96911L7.61451 13.8619C7.72183 13.9511 7.85787 14 7.99846 14C8.13905 14 8.27508 13.9511 8.3824 13.8619L11.0314 11.6668H12.755C13.3855 11.6668 13.9902 11.421 14.436 10.9834C14.8818 10.5458 15.1323 9.95231 15.1323 9.33346V2.33337C15.1323 1.71452 14.8818 1.12102 14.436 0.683427C13.9902 0.245836 13.3855 0 12.755 0ZM13.9436 9.33346C13.9436 9.64289 13.8184 9.93964 13.5955 10.1584C13.3726 10.3772 13.0702 10.5001 12.755 10.5001H11.0314C10.7504 10.5002 10.4786 10.598 10.2641 10.7761L8.00024 12.6527L5.73759 10.7761C5.52277 10.5977 5.25047 10.5 4.96911 10.5001H3.24552C2.93027 10.5001 2.62792 10.3772 2.405 10.1584C2.18208 9.93964 2.05684 9.64289 2.05684 9.33346V2.33337C2.05684 2.02394 2.18208 1.72719 2.405 1.5084C2.62792 1.2896 2.93027 1.16668 3.24552 1.16668H12.755C13.0702 1.16668 13.3726 1.2896 13.5955 1.5084C13.8184 1.72719 13.9436 2.02394 13.9436 2.33337V9.33346Z" fill="#2580D3"/>
<path d="M5.02573 4.06211H8.04013C8.20003 4.06211 8.35337 4.00101 8.46643 3.89226C8.5795 3.78351 8.64301 3.63602 8.64301 3.48223C8.64301 3.32843 8.5795 3.18094 8.46643 3.07219C8.35337 2.96344 8.20003 2.90234 8.04013 2.90234H5.02573C4.86584 2.90234 4.71249 2.96344 4.59943 3.07219C4.48637 3.18094 4.42285 3.32843 4.42285 3.48223C4.42285 3.63602 4.48637 3.78351 4.59943 3.89226C4.71249 4.00101 4.86584 4.06211 5.02573 4.06211Z" fill="#2580D3"/>
<path d="M10.9993 5.21875H5.02071C4.86215 5.21875 4.71008 5.27984 4.59796 5.38859C4.48584 5.49734 4.42285 5.64484 4.42285 5.79863C4.42285 5.95243 4.48584 6.09992 4.59796 6.20867C4.71008 6.31742 4.86215 6.37851 5.02071 6.37851H10.9993C11.1578 6.37851 11.3099 6.31742 11.422 6.20867C11.5341 6.09992 11.5971 5.95243 11.5971 5.79863C11.5971 5.64484 11.5341 5.49734 11.422 5.38859C11.3099 5.27984 11.1578 5.21875 10.9993 5.21875Z" fill="#2580D3"/>
<path d="M10.9993 7.61914H5.02071C4.86215 7.61914 4.71008 7.68024 4.59796 7.78898C4.48584 7.89773 4.42285 8.04523 4.42285 8.19902C4.42285 8.35282 4.48584 8.50031 4.59796 8.60906C4.71008 8.71781 4.86215 8.7789 5.02071 8.7789H10.9993C11.1578 8.7789 11.3099 8.71781 11.422 8.60906C11.5341 8.50031 11.5971 8.35282 11.5971 8.19902C11.5971 8.04523 11.5341 7.89773 11.422 7.78898C11.3099 7.68024 11.1578 7.61914 10.9993 7.61914Z" fill="#2580D3"/>
</svg>
