<svg width="20" height="23" viewBox="0 0 20 23" fill="none" xmlns="http://www.w3.org/2000/svg">
<path id="Vector" fill-rule="evenodd" clip-rule="evenodd" d="M13.0768 0.47461H8.91639C7.0315 0.474589 5.53854 0.474579 4.37011 0.631676C3.16763 0.793338 2.19435 1.13397 1.42679 1.90152C0.659242 2.66908 0.318607 3.64236 0.156945 4.84485C-0.000152317 6.01327 -0.000142118 7.50622 -0.000121606 9.39109V15.6028C-0.000121606 17.523 1.40711 19.1146 3.24656 19.4025C3.38806 20.1861 3.65888 20.8549 4.20331 21.3994C4.82067 22.0168 5.59797 22.2823 6.52116 22.4064C7.41036 22.5259 8.5409 22.5259 9.94357 22.5259H13.1331C14.5358 22.5259 15.6663 22.5259 16.5556 22.4064C17.4788 22.2823 18.256 22.0168 18.8734 21.3994C19.4907 20.782 19.7563 20.0048 19.8804 19.0816C19.9999 18.1924 19.9999 17.0618 19.9999 15.6591V10.4183C19.9999 9.01568 19.9999 7.88509 19.8804 6.99589C19.7563 6.0727 19.4907 5.2954 18.8734 4.67805C18.3289 4.13361 17.6601 3.86279 16.8765 3.72129C16.5886 1.88184 14.997 0.47461 13.0768 0.47461ZM15.2607 3.57325C14.9501 2.66562 14.0897 2.01307 13.0768 2.01307H8.97424C7.01852 2.01307 5.62912 2.0147 4.57511 2.15641C3.54322 2.29514 2.94871 2.55532 2.51465 2.98938C2.08059 3.42344 1.82041 4.01795 1.68168 5.04984C1.53997 6.10385 1.53834 7.49326 1.53834 9.44897V15.6028C1.53834 16.6157 2.19089 17.4761 3.09851 17.7867C3.07678 17.1612 3.07679 16.4538 3.0768 15.6591V10.4183C3.07678 9.01568 3.07676 7.88509 3.19631 6.99589C3.32043 6.0727 3.58596 5.2954 4.20331 4.67805C4.82067 4.06069 5.59797 3.79516 6.52116 3.67104C7.41036 3.55149 8.5409 3.55151 9.94357 3.55153H13.1331C13.9278 3.55152 14.6352 3.55151 15.2607 3.57325ZM5.29117 5.7659C5.57503 5.48205 5.97357 5.29697 6.72616 5.19579C7.50087 5.09163 8.52767 5.08999 9.99988 5.08999H13.0768C14.549 5.08999 15.5758 5.09163 16.3505 5.19579C17.1032 5.29697 17.5016 5.48205 17.7855 5.7659C18.0694 6.04976 18.2544 6.4483 18.3557 7.20089C18.4598 7.9756 18.4614 9.00238 18.4614 10.4746V15.6028C18.4614 17.075 18.4598 18.1018 18.3557 18.8766C18.2544 19.6292 18.0694 20.0276 17.7855 20.3115C17.5016 20.5954 17.1032 20.7805 16.3505 20.8817C15.5758 20.9858 14.549 20.9874 13.0768 20.9874H9.99988C8.52767 20.9874 7.50087 20.9858 6.72616 20.8817C5.97357 20.7805 5.57503 20.5954 5.29117 20.3115C5.00731 20.0276 4.82224 19.6292 4.72106 18.8766C4.61689 18.1018 4.61526 17.075 4.61526 15.6028V10.4746C4.61526 9.00238 4.61689 7.9756 4.72106 7.20089C4.82224 6.4483 5.00731 6.04976 5.29117 5.7659Z" fill="#30313D"/>
</svg>
