<svg width="15" height="15" viewBox="0 0 15 15" fill="none" xmlns="http://www.w3.org/2000/svg">
<path fill-rule="evenodd" clip-rule="evenodd" d="M9.50178 0.129273H6.73108C5.4758 0.129259 4.48154 0.129252 3.70341 0.233874C2.90259 0.341535 2.25442 0.568388 1.74325 1.07955C1.23208 1.59072 1.00523 2.2389 0.89757 3.03971C0.792949 3.81784 0.792955 4.8121 0.792969 6.06736V10.2042C0.792969 11.483 1.73014 12.5429 2.95515 12.7346C3.04939 13.2565 3.22975 13.7019 3.59232 14.0645C4.00346 14.4757 4.52112 14.6525 5.13593 14.7351C5.72811 14.8147 6.48102 14.8147 7.41515 14.8147H9.53928C10.4734 14.8147 11.2263 14.8147 11.8185 14.7351C12.4333 14.6525 12.9509 14.4757 13.3621 14.0645C13.7733 13.6533 13.9501 13.1357 14.0328 12.5209C14.1123 11.9287 14.1123 11.1758 14.1123 10.2417V6.75145C14.1123 5.81735 14.1123 5.06442 14.0328 4.47224C13.9501 3.85742 13.7733 3.33976 13.3621 2.92863C12.9995 2.56605 12.5541 2.3857 12.0323 2.29146C11.8405 1.06644 10.7806 0.129273 9.50178 0.129273ZM10.9562 2.19286C10.7494 1.58841 10.1764 1.15384 9.50178 1.15384H6.7696C5.46716 1.15384 4.54186 1.15492 3.83993 1.2493C3.15272 1.34169 2.7568 1.51496 2.46772 1.80403C2.17865 2.0931 2.00539 2.48903 1.913 3.17623C1.81862 3.87817 1.81754 4.80347 1.81754 6.10591V10.2042C1.81754 10.8787 2.25212 11.4518 2.85656 11.6586C2.84209 11.242 2.84209 10.7709 2.8421 10.2417V6.75145C2.84209 5.81735 2.84207 5.06442 2.92169 4.47224C3.00435 3.85742 3.18118 3.33976 3.59232 2.92863C4.00346 2.51749 4.52112 2.34066 5.13593 2.25799C5.72811 2.17838 6.48102 2.17839 7.41515 2.1784H9.53928C10.0685 2.1784 10.5396 2.17839 10.9562 2.19286ZM4.3168 3.6531C4.50584 3.46406 4.77126 3.34081 5.27245 3.27343C5.78839 3.20406 6.47221 3.20297 7.45265 3.20297H9.50178C10.4822 3.20297 11.166 3.20406 11.682 3.27343C12.1832 3.34081 12.4486 3.46406 12.6376 3.6531C12.8267 3.84214 12.9499 4.10756 13.0173 4.60876C13.0867 5.12469 13.0878 5.8085 13.0878 6.78895V10.2042C13.0878 11.1846 13.0867 11.8684 13.0173 12.3844C12.9499 12.8856 12.8267 13.151 12.6376 13.34C12.4486 13.5291 12.1832 13.6523 11.682 13.7197C11.166 13.7891 10.4822 13.7902 9.50178 13.7902H7.45265C6.47221 13.7902 5.78839 13.7891 5.27245 13.7197C4.77126 13.6523 4.50584 13.5291 4.3168 13.34C4.12776 13.151 4.00451 12.8856 3.93712 12.3844C3.86775 11.8684 3.86667 11.1846 3.86667 10.2042V6.78895C3.86667 5.8085 3.86775 5.12469 3.93712 4.60876C4.00451 4.10756 4.12776 3.84214 4.3168 3.6531Z" fill="#666666"/>
</svg>
