<svg width="12" height="13" viewBox="0 0 12 13" fill="none" xmlns="http://www.w3.org/2000/svg">
<g id="Icon Container">
<path id="Vector" d="M11.6809 5.37805C11.8805 5.12347 11.9922 4.81164 11.9996 4.48884C12.007 4.16604 11.9096 3.84947 11.7219 3.58611L9.95582 1.12568C9.81705 0.932215 9.63387 0.774511 9.42152 0.665685C9.20917 0.556859 8.97378 0.500056 8.73492 0.5H3.26412C3.02526 0.500056 2.78988 0.556859 2.57752 0.665685C2.36517 0.774511 2.18199 0.932215 2.04322 1.12568L0.277134 3.58611C0.0897938 3.84969 -0.00723678 4.16632 0.0004208 4.48908C0.00807838 4.81184 0.120017 5.12356 0.319648 5.37805L5.99952 12.5L11.6809 5.37805ZM3.62524 4.97984L5.0257 9.67471L1.27896 4.97984H3.62524ZM10.7201 4.97984L6.97584 9.67471L8.3738 4.97984H10.7201ZM7.33046 4.97984L5.99952 9.44923L4.66858 4.97984H7.33046ZM4.66208 3.98432L5.37631 1.49552H6.62273L7.33696 3.98432H4.66208ZM9.14206 1.70408L10.7786 3.98432H8.3778L7.66307 1.49552H8.73492C8.81457 1.49551 8.89307 1.51443 8.96388 1.55071C9.0347 1.58699 9.09578 1.63957 9.14206 1.70408ZM2.85698 1.70408C2.90326 1.63957 2.96435 1.58699 3.03516 1.55071C3.10598 1.51443 3.18447 1.49551 3.26412 1.49552H4.33597L3.62174 3.98432H1.22095L2.85698 1.70408Z" fill="#30313D"/>
</g>
</svg>
