<svg width="13" height="15" viewBox="0 0 13 15" fill="none" xmlns="http://www.w3.org/2000/svg">
<g id="Group 290598">
<path id="Vector" d="M11.4681 2.37486H9.62755C9.48975 1.7048 9.12516 1.10273 8.59523 0.670135C8.0653 0.237539 7.40243 0.000863571 6.71835 0L5.53092 0C4.84684 0.000863571 4.18398 0.237539 3.65405 0.670135C3.12412 1.10273 2.75953 1.7048 2.62173 2.37486H0.781214C0.623751 2.37486 0.472738 2.43741 0.361395 2.54875C0.250052 2.66009 0.1875 2.81111 0.1875 2.96857C0.1875 3.12603 0.250052 3.27705 0.361395 3.38839C0.472738 3.49973 0.623751 3.56228 0.781214 3.56228H1.37493V11.2806C1.37587 12.0676 1.68893 12.8221 2.24544 13.3786C2.80195 13.9351 3.55647 14.2482 4.3435 14.2491H7.90578C8.6928 14.2482 9.44732 13.9351 10.0038 13.3786C10.5603 12.8221 10.8734 12.0676 10.8743 11.2806V3.56228H11.4681C11.6255 3.56228 11.7765 3.49973 11.8879 3.38839C11.9992 3.27705 12.0618 3.12603 12.0618 2.96857C12.0618 2.81111 11.9992 2.66009 11.8879 2.54875C11.7765 2.43741 11.6255 2.37486 11.4681 2.37486ZM5.53092 1.18743H6.71835C7.08662 1.18788 7.44573 1.30224 7.74643 1.51483C8.04714 1.72742 8.27472 2.02782 8.39797 2.37486H3.85131C3.97455 2.02782 4.20213 1.72742 4.50284 1.51483C4.80355 1.30224 5.16266 1.18788 5.53092 1.18743ZM9.68692 11.2806C9.68692 11.753 9.49927 12.206 9.16524 12.54C8.83121 12.874 8.37817 13.0617 7.90578 13.0617H4.3435C3.87111 13.0617 3.41807 12.874 3.08404 12.54C2.75001 12.206 2.56236 11.753 2.56236 11.2806V3.56228H9.68692V11.2806Z" fill="#BB2020"/>
<path id="Vector_2" d="M4.93356 10.6872C5.09102 10.6872 5.24203 10.6247 5.35338 10.5133C5.46472 10.402 5.52727 10.251 5.52727 10.0935V6.53121C5.52727 6.37375 5.46472 6.22274 5.35338 6.11139C5.24203 6.00005 5.09102 5.9375 4.93356 5.9375C4.77609 5.9375 4.62508 6.00005 4.51374 6.11139C4.4024 6.22274 4.33984 6.37375 4.33984 6.53121V10.0935C4.33984 10.251 4.4024 10.402 4.51374 10.5133C4.62508 10.6247 4.77609 10.6872 4.93356 10.6872Z" fill="#BB2020"/>
<path id="Vector_3" d="M7.31246 10.6872C7.46993 10.6872 7.62094 10.6247 7.73228 10.5133C7.84363 10.402 7.90618 10.251 7.90618 10.0935V6.53121C7.90618 6.37375 7.84363 6.22274 7.73228 6.11139C7.62094 6.00005 7.46993 5.9375 7.31246 5.9375C7.155 5.9375 7.00399 6.00005 6.89264 6.11139C6.7813 6.22274 6.71875 6.37375 6.71875 6.53121V10.0935C6.71875 10.251 6.7813 10.402 6.89264 10.5133C7.00399 10.6247 7.155 10.6872 7.31246 10.6872Z" fill="#BB2020"/>
</g>
</svg>
