<svg width="24" height="24" viewBox="0 0 24 24" fill="none" xmlns="http://www.w3.org/2000/svg">
<path d="M22 17.4545V16.3636C22 13.3527 19.76 10.9091 17 10.9091H13V6.54545C14.1 6.54545 15 5.56364 15 4.36364V2.18182C15 0.981818 14.1 0 13 0H11C9.9 0 9 0.981818 9 2.18182V4.36364C9 5.56364 9.9 6.54545 11 6.54545V10.9091H7C4.24 10.9091 2 13.3527 2 16.3636V17.4545C0.9 17.4545 0 18.4364 0 19.6364V21.8182C0 23.0182 0.9 24 2 24H4C5.1 24 6 23.0182 6 21.8182V19.6364C6 18.4364 5.1 17.4545 4 17.4545V16.3636C4 14.5636 5.35 13.0909 7 13.0909H11V17.4545C9.9 17.4545 9 18.4364 9 19.6364V21.8182C9 23.0182 9.9 24 11 24H13C14.1 24 15 23.0182 15 21.8182V19.6364C15 18.4364 14.1 17.4545 13 17.4545V13.0909H17C18.65 13.0909 20 14.5636 20 16.3636V17.4545C18.9 17.4545 18 18.4364 18 19.6364V21.8182C18 23.0182 18.9 24 20 24H22C23.1 24 24 23.0182 24 21.8182V19.6364C24 18.4364 23.1 17.4545 22 17.4545ZM11 2.18182H13V4.36364H11V2.18182ZM4 21.8182H2V19.6364H4V21.8182ZM13 21.8182H11V19.6364H13V21.8182ZM22 21.8182H20V19.6364H22V21.8182Z" fill="#30313D"/>
</svg>
