<svg width="13" height="13" viewBox="0 0 13 13" fill="none" xmlns="http://www.w3.org/2000/svg">
<g id="Icon Container">
<path id="Vector" d="M12.1809 5.37805C12.3805 5.12347 12.4922 4.81164 12.4996 4.48884C12.507 4.16604 12.4096 3.84947 12.2219 3.58611L10.4558 1.12568C10.3171 0.932215 10.1339 0.774511 9.92152 0.665685C9.70917 0.556859 9.47378 0.500056 9.23492 0.5H3.76412C3.52526 0.500056 3.28988 0.556859 3.07752 0.665685C2.86517 0.774511 2.68199 0.932215 2.54322 1.12568L0.777134 3.58611C0.589794 3.84969 0.492763 4.16632 0.500421 4.48908C0.508078 4.81184 0.620017 5.12356 0.819648 5.37805L6.49952 12.5L12.1809 5.37805ZM4.12524 4.97984L5.5257 9.67471L1.77896 4.97984H4.12524ZM11.2201 4.97984L7.47584 9.67471L8.8738 4.97984H11.2201ZM7.83046 4.97984L6.49952 9.44923L5.16858 4.97984H7.83046ZM5.16208 3.98432L5.87631 1.49552H7.12273L7.83696 3.98432H5.16208ZM9.64206 1.70408L11.2786 3.98432H8.8778L8.16307 1.49552H9.23492C9.31457 1.49551 9.39307 1.51443 9.46388 1.55071C9.5347 1.58699 9.59578 1.63957 9.64206 1.70408ZM3.35698 1.70408C3.40326 1.63957 3.46435 1.58699 3.53516 1.55071C3.60598 1.51443 3.68447 1.49551 3.76412 1.49552H4.83597L4.12174 3.98432H1.72095L3.35698 1.70408Z" fill="#30313D"/>
</g>
</svg>
