<svg width="12" height="15" viewBox="0 0 12 15" fill="none" xmlns="http://www.w3.org/2000/svg">
<path d="M10.7694 3.32552L8.679 1.29202C7.8852 0.520858 6.8304 0.0961914 5.709 0.0961914H3C1.3458 0.0961914 0 1.40461 0 3.01286V11.1795C0 12.7878 1.3458 14.0962 3 14.0962H9C10.6542 14.0962 12 12.7878 12 11.1795V6.21244C12 5.12102 11.5626 4.09669 10.7694 3.32552ZM9.921 4.15094C10.1118 4.33586 10.2732 4.54177 10.404 4.76344H7.7994C7.4682 4.76344 7.1994 4.50152 7.1994 4.18011V1.64727C7.4274 1.77444 7.6392 1.93136 7.83 2.11686L9.9204 4.15036L9.921 4.15094ZM10.8 11.1801C10.8 12.1449 9.9924 12.9301 9 12.9301H3C2.0076 12.9301 1.2 12.1449 1.2 11.1801V3.01286C1.2 2.04802 2.0076 1.26286 3 1.26286H5.709C5.8068 1.26286 5.904 1.26752 6 1.27627V4.17952C6 5.14436 6.8076 5.92952 7.8 5.92952H10.7862C10.7952 6.02286 10.8 6.11736 10.8 6.21244V11.1801ZM8.2242 9.49136C8.4588 9.71886 8.4588 10.0881 8.2242 10.3162L7.2564 11.2577C6.9102 11.5943 6.4548 11.7629 6 11.7629C5.5452 11.7629 5.0898 11.5943 4.7436 11.2577L3.7758 10.3162C3.5412 10.0881 3.5412 9.71886 3.7758 9.49136C4.0104 9.26328 4.3896 9.26328 4.6242 9.49136L5.4 10.2456V7.68011C5.4 7.35811 5.6682 7.09677 6 7.09677C6.3318 7.09677 6.6 7.35811 6.6 7.68011V10.2456L7.3758 9.49136C7.6104 9.26328 7.9896 9.26328 8.2242 9.49136Z" fill="white"/>
</svg>
