<svg width="12" height="8" viewBox="0 0 12 8" fill="none" xmlns="http://www.w3.org/2000/svg">
<path d="M10.8072 0.0999935L0.892761 0.099993C0.716462 0.0988045 0.543851 0.158504 0.396936 0.27148C0.250021 0.384456 0.135458 0.545589 0.0678524 0.734337C0.000246824 0.923085 -0.0173379 1.1309 0.0173403 1.33127C0.0520185 1.53165 0.137388 1.71552 0.262566 1.85944L5.22424 7.60077C5.39055 7.79241 5.61551 7.89998 5.85 7.89998C6.08449 7.89998 6.30945 7.79241 6.47576 7.60077L11.4374 1.85944C11.5626 1.71552 11.648 1.53165 11.6827 1.33127C11.7173 1.1309 11.6998 0.923085 11.6321 0.734337C11.5645 0.545589 11.45 0.384456 11.3031 0.27148C11.1561 0.158505 10.9835 0.098805 10.8072 0.0999935Z" fill="#2580D3"/>
</svg>
