<svg width="17" height="20" viewBox="0 0 17 20" fill="none" xmlns="http://www.w3.org/2000/svg">
<path d="M10.1492 4.59999V8.19999H12.3992M11.2154 1H6.99922C6.0051 1 5.19922 1.80589 5.19922 2.8V13.6C5.19922 14.5941 6.0051 15.4 6.99922 15.4H14.1992C15.1933 15.4 15.9992 14.5941 15.9992 13.6V5.71745C15.9992 5.23305 15.804 4.76909 15.4576 4.43044L12.4738 1.51299C12.1375 1.18414 11.6859 1 11.2154 1Z" stroke="#2580D3" stroke-width="1.4" stroke-linecap="round" stroke-linejoin="round"/>
<path d="M12.4015 15.4V17.2C12.4015 18.1941 11.5957 19 10.6015 19H3.40156C2.40745 19 1.60156 18.1941 1.60156 17.2V7.3C1.60156 6.30589 2.40745 5.5 3.40156 5.5H5.20156" stroke="#2580D3" stroke-width="1.4" stroke-linecap="round" stroke-linejoin="round"/>
</svg>
