<svg width="94" height="95" viewBox="0 0 94 95" fill="none" xmlns="http://www.w3.org/2000/svg">
<g clip-path="url(#clip0_16410_46220)">
<path d="M94.0007 44.1921V86.0168C93.1737 90.373 89.9188 93.6287 85.5636 94.4558H43.748C39.2688 93.6057 35.6693 90.0169 35.3041 85.3827C34.8975 80.1925 35.6257 74.4831 35.3064 69.2378C34.4519 67.9971 33.2643 67.193 32.5246 65.7823C32.2697 65.2952 31.4588 63.2343 31.4588 62.8138V57.7684C31.0867 57.9131 31.0522 58.4875 30.7146 58.7678C29.9428 59.4042 27.3724 59.4249 26.5224 58.947C24.9926 58.0877 25.3716 55.6179 27.1403 55.3766C28.089 55.2479 30.1633 55.2181 30.8248 55.9257C31.128 56.2497 31.1326 56.7115 31.4588 56.8516V54.1911C31.4588 54.0348 29.5683 52.376 29.2628 51.9854C26.2629 48.1439 28.3922 42.9744 33.03 42.0025C33.154 38.0944 36.0989 35.1972 40.0544 35.5441C40.8561 31.9553 44.5773 29.7083 48.1377 30.9788C48.6982 29.0052 50.6369 27.1235 52.6859 26.8088C53.4852 26.6847 54.4615 26.9076 55.1644 26.7215C55.9684 26.5078 56.0419 25.6554 57.512 26.1149C58.904 26.5514 58.672 28.1666 58.9591 29.2534L65.3266 35.7256L84.9273 35.7486C89.2366 35.9806 93.4861 39.9095 93.9984 44.1944L94.0007 44.1921ZM35.311 58.1337V62.0786C35.311 64.9689 38.9082 66.9402 41.4487 67.1309C51.2066 67.8615 60.9047 66.4715 65.1818 56.5484C69.583 46.3357 63.4751 37.9037 55.8558 31.6245C54.8106 30.7629 53.7035 30.1012 52.4562 31.1649C50.0052 33.2557 54.9048 35.8129 51.9187 37.4143C49.5504 38.6849 48.581 35.0823 46.7319 34.6986C44.7748 34.2919 43.3575 35.7509 44.1316 37.6647C44.7519 39.1972 48.4409 40.771 46.5757 42.8963C44.3453 45.4374 41.9196 40.2633 39.9763 39.6177C38.5728 39.1513 36.9717 40.1576 37.0269 41.6901C37.0843 43.319 41.2397 46.4207 42.3744 47.8613C44.0214 49.9498 42.2779 52.2152 40.1945 51.1422C39.0437 50.5494 36.9419 47.6361 35.6831 46.6666C33.2781 44.8124 30.5997 47.1835 32.3776 49.6051C34.8171 52.9274 39.5789 56.1831 42.2848 59.5076C43.8445 61.4238 42.7557 63.7328 40.4357 63.0068C39.3009 62.6507 36.6065 58.8574 35.311 58.136V58.1337ZM39.1631 70.7909V84.8244C39.1631 87.9698 42.2504 90.6257 45.31 90.6005C57.8887 89.9503 71.354 91.4735 83.8316 90.6097C87.7573 90.3386 89.8867 88.2018 90.16 84.2799C91.0237 71.8019 89.4984 58.3313 90.1508 45.7498C90.1761 42.6895 87.5207 39.6016 84.376 39.6016H68.145C72.5875 48.585 70.6626 59.4019 63.0111 65.9293C56.4668 71.5124 48.7166 71.2665 40.5345 70.9793C40.0682 70.9633 39.6363 70.7565 39.1677 70.7886L39.1631 70.7909Z" fill="#94989C"/>
<path d="M54.5087 2.79244C56.5945 2.75109 60.3042 8.97977 57.1458 9.99069C55.0623 10.657 54.7017 8.4743 53.985 7.26119C53.4521 6.35825 52.4138 5.71494 52.5562 4.49493C52.6619 3.5874 53.6152 2.81082 54.5087 2.79244Z" fill="#94989C"/>
<path d="M4.24945 53.0561C5.34285 52.994 5.97684 53.936 6.82904 54.4277C8.19809 55.2181 9.96222 55.349 9.62456 57.4812C9.10542 60.7736 2.78623 57.3295 2.49221 55.4639C2.30844 54.2899 2.99986 53.1296 4.24945 53.0561Z" fill="#94989C"/>
<path d="M2.07047 6.25485C3.16386 6.09632 4.27793 7.01534 4.32617 8.14804C4.35144 8.76608 4.01377 9.67821 3.94946 10.3491C3.8392 11.514 4.33766 12.9913 3.12711 13.7449C2.08425 14.3928 0.623324 13.9632 0.237419 12.773C-0.267933 11.213 -0.100248 6.56732 2.07047 6.25485Z" fill="#94989C"/>
<path d="M13.0543 1.14508C13.7389 1.83894 13.6447 3.12098 13.0061 3.81254C12.1424 4.74535 11.0306 4.27205 9.91197 4.38693C8.67845 4.5133 7.59883 5.18878 6.51003 4.29733C5.66012 3.60117 5.48784 2.4409 6.17237 1.56553C7.11645 0.363908 11.9977 0.076713 13.0543 1.14508Z" fill="#94989C"/>
<path d="M2.05434 29.9427C2.69981 29.9312 3.67376 30.5263 3.86671 31.1581C4.05048 31.7554 4.03899 36.0955 3.84834 36.663C3.34069 38.1633 0.754207 38.1863 0.218993 36.4585C-0.00841505 35.7233 -0.0107121 32.0955 0.184537 31.3465C0.398163 30.5194 1.21132 29.9565 2.05664 29.9427H2.05434Z" fill="#94989C"/>
<path d="M30.0474 3.95957C28.9402 2.97851 29.4249 0.958958 30.895 0.609729C31.6507 0.43052 34.9562 0.416734 35.7257 0.572968C37.7264 0.977339 37.7264 3.9343 35.9118 4.34556C35.1675 4.51328 32.0229 4.48341 31.1775 4.38921C30.8353 4.35015 30.2978 4.18473 30.0451 3.95957H30.0474Z" fill="#94989C"/>
<path d="M24.7982 3.95962C24.5455 4.18248 24.008 4.3502 23.6657 4.38926C22.8158 4.48346 19.6826 4.51333 18.9315 4.34561C17.1972 3.95732 17.0732 0.988874 19.1175 0.573016C19.9031 0.414485 22.9927 0.42827 23.8012 0.573016C25.3517 0.853318 25.9765 2.91193 24.7959 3.95732L24.7982 3.95962Z" fill="#94989C"/>
<path d="M1.70411 41.844C2.79521 41.6855 3.82199 42.4506 3.95292 43.5465C4.0517 44.3691 4.07467 47.5535 3.90928 48.2818C3.47744 50.1957 0.378711 50.1474 0.0915794 47.774C-0.00949088 46.9446 -0.0186791 44.1807 0.137521 43.4087C0.284532 42.6849 0.955271 41.952 1.70411 41.8417V41.844Z" fill="#94989C"/>
<path d="M15.0819 55.4203C15.7411 55.271 19.8575 55.2985 20.4065 55.5214C22.1384 56.2198 21.741 58.9241 19.8 59.2228C18.9708 59.3514 15.7319 59.3307 15.0015 59.0941C13.1133 58.4806 13.405 55.8017 15.0819 55.4203Z" fill="#94989C"/>
<path d="M48.6355 1.14509C49.5314 2.05032 49.1179 4.01244 47.8292 4.33869C47.255 4.48344 43.3821 4.49033 42.7482 4.37316C40.9725 4.0492 40.752 1.05548 42.8171 0.607458C43.938 0.363917 47.82 0.317966 48.6355 1.14279V1.14509Z" fill="#94989C"/>
<path d="M58.1795 14.5306C58.9949 15.2842 58.9421 19.2774 58.7078 20.3572C58.2553 22.4411 55.2783 22.255 54.9429 20.4285C54.8281 19.7989 54.835 15.9184 54.9797 15.3463C55.299 14.0872 57.2653 13.6874 58.1795 14.5329V14.5306Z" fill="#94989C"/>
<path d="M0.709837 25.4188C-0.114805 24.6031 -0.0688641 20.7203 0.174623 19.5991C0.622549 17.5336 3.61561 17.7518 3.93949 19.5301C4.05435 20.1643 4.04975 24.0379 3.90504 24.6123C3.57886 25.9036 1.61717 26.3148 0.712134 25.4188H0.709837Z" fill="#94989C"/>
<path d="M39.1628 70.7909C39.6337 70.7588 40.0632 70.9655 40.5295 70.9816C48.7116 71.2688 56.4619 71.5147 63.0062 65.9316C70.6577 59.4042 72.5803 48.5896 68.1401 39.6039H84.3711C87.5158 39.6039 90.1712 42.6918 90.1459 45.7521C89.4958 58.3336 91.0188 71.8019 90.1551 84.2822C89.884 88.2041 87.7524 90.3386 83.8267 90.612C71.3514 91.4759 57.8861 89.9526 45.3051 90.6028C42.2454 90.6281 39.1582 87.9721 39.1582 84.8267V70.7932L39.1628 70.7909Z" fill="white"/>
<path d="M35.3096 58.1337C36.6052 58.8552 39.2996 62.6484 40.4344 63.0045C42.7544 63.7306 43.8432 61.4238 42.2835 59.5054C39.5776 56.1808 34.8158 52.9229 32.3763 49.6029C30.5984 47.1813 33.2745 44.8125 35.6818 46.6643C36.9405 47.6339 39.0424 50.5449 40.1932 51.14C42.2766 52.2129 44.0178 49.9475 42.3731 47.859C41.2383 46.4185 37.083 43.3168 37.0255 41.6878C36.9704 40.1576 38.5715 39.1513 39.975 39.6154C41.9183 40.261 44.344 45.4328 46.5744 42.894C48.4419 40.7688 44.7505 39.195 44.1303 37.6625C43.3562 35.7486 44.7712 34.2897 46.7306 34.6963C48.5774 35.08 49.5491 38.6826 51.9173 37.412C54.9035 35.8107 50.0039 33.2535 52.4548 31.1627C53.6998 30.1012 54.8093 30.7629 55.8545 31.6222C63.4738 37.9014 69.5817 46.3335 65.1805 56.5461C60.9057 66.4693 51.2075 67.857 41.4474 67.1287C38.9091 66.938 35.3096 64.9667 35.3096 62.0763V58.1314V58.1337Z" fill="white"/>
</g>
<defs>
<clipPath id="clip0_16410_46220">
<rect width="94" height="94" fill="white" transform="translate(0 0.455811)"/>
</clipPath>
</defs>
</svg>
