<svg width="12" height="16" viewBox="0 0 12 16" fill="none" xmlns="http://www.w3.org/2000/svg">
<path d="M6.37009 7.84254C8.39477 7.84254 10.0413 6.196 10.0413 4.17133C10.0413 2.14666 8.39477 0.500122 6.37009 0.500122C4.34542 0.500122 2.69889 2.14666 2.69889 4.17133C2.69889 6.196 4.34542 7.84254 6.37009 7.84254ZM6.37009 1.72386C7.71988 1.72386 8.81757 2.82155 8.81757 4.17133C8.81757 5.52111 7.71988 6.6188 6.37009 6.6188C5.02031 6.6188 3.92262 5.52111 3.92262 4.17133C3.92262 2.82155 5.02031 1.72386 6.37009 1.72386ZM11.8769 14.5731C11.8769 14.9108 11.6034 15.185 11.265 15.185C10.9267 15.185 10.6532 14.9108 10.6532 14.5731C10.6532 12.7259 9.47533 11.1527 7.83307 10.5531L6.90487 11.9457L7.57364 14.3871C7.68561 14.7946 7.32583 15.1856 6.83879 15.1856H5.9014C5.41436 15.1856 5.05519 14.7946 5.16655 14.3871L5.83532 11.9457L4.90712 10.5531C3.26486 11.1527 2.08702 12.7259 2.08702 14.5737C2.08702 14.9115 1.8129 15.1856 1.47515 15.1856C1.1374 15.1856 0.863281 14.9115 0.863281 14.5737C0.863281 11.5376 3.334 9.06689 6.37009 9.06689C9.40618 9.06689 11.8769 11.537 11.8769 14.5731Z" fill="#666666"/>
</svg>
