<svg width="12" height="17" viewBox="0 0 12 17" fill="none" xmlns="http://www.w3.org/2000/svg">
<g id="Group 22005">
<path id="Vector" d="M6.00468 8.17578C6.83681 8.17578 7.65025 7.94118 8.34214 7.50166C9.03403 7.06213 9.57329 6.43742 9.89173 5.70652C10.2102 4.97561 10.2935 4.17134 10.1312 3.39542C9.96881 2.6195 9.56811 1.90677 8.9797 1.34736C8.3913 0.787946 7.64162 0.406983 6.82549 0.252642C6.00935 0.0983011 5.1634 0.177514 4.39461 0.480265C3.62582 0.783015 2.96873 1.29571 2.50642 1.9535C2.04412 2.6113 1.79736 3.38466 1.79736 4.17578C1.79848 5.23632 2.2421 6.25312 3.03089 7.00304C3.81967 7.75296 4.88917 8.17472 6.00468 8.17578ZM6.00468 1.50912C6.55943 1.50912 7.10173 1.66551 7.56299 1.95853C8.02424 2.25155 8.38375 2.66802 8.59605 3.15529C8.80834 3.64256 8.86389 4.17874 8.75566 4.69602C8.64744 5.21331 8.3803 5.68846 7.98803 6.0614C7.59576 6.43434 7.09598 6.68832 6.55188 6.79121C6.00779 6.8941 5.44382 6.84129 4.9313 6.63946C4.41877 6.43763 3.98071 6.09583 3.67251 5.6573C3.36431 5.21877 3.1998 4.7032 3.1998 4.17578C3.1998 3.46854 3.49531 2.79026 4.02133 2.29016C4.54735 1.79007 5.26078 1.50912 6.00468 1.50912Z" fill="#30313D"/>
<path id="Vector_2" d="M6.00011 9.77734C4.43845 9.77904 2.94125 10.3864 1.83699 11.4663C0.732729 12.5461 0.111596 14.0102 0.109863 15.5373C0.109863 15.7071 0.178816 15.8699 0.301554 15.9899C0.424291 16.1099 0.590758 16.1773 0.764335 16.1773C0.937911 16.1773 1.10438 16.1099 1.22712 15.9899C1.34985 15.8699 1.41881 15.7071 1.41881 15.5373C1.41881 14.3492 1.90148 13.2097 2.76064 12.3695C3.6198 11.5293 4.78507 11.0573 6.00011 11.0573C7.21514 11.0573 8.38041 11.5293 9.23958 12.3695C10.0987 13.2097 10.5814 14.3492 10.5814 15.5373C10.5814 15.7071 10.6504 15.8699 10.7731 15.9899C10.8958 16.1099 11.0623 16.1773 11.2359 16.1773C11.4095 16.1773 11.5759 16.1099 11.6987 15.9899C11.8214 15.8699 11.8904 15.7071 11.8904 15.5373C11.8886 14.0102 11.2675 12.5461 10.1632 11.4663C9.05897 10.3864 7.56177 9.77904 6.00011 9.77734Z" fill="#30313D"/>
</g>
</svg>
