<svg width="44" height="45" viewBox="0 0 44 45" fill="none" xmlns="http://www.w3.org/2000/svg">
<path d="M26.923 21.202L11.7031 18.5208V38.3331C11.7033 38.5484 11.7459 38.7615 11.8284 38.9602C11.9109 39.159 12.0318 39.3396 12.1841 39.4917C12.3365 39.6437 12.5173 39.7643 12.7162 39.8465C12.9151 39.9287 13.1283 39.9709 13.3435 39.9708H39.606C39.8215 39.9713 40.0349 39.9293 40.2342 39.8473C40.4334 39.7653 40.6145 39.6447 40.7671 39.4926C40.9197 39.3405 41.0409 39.1598 41.1236 38.9609C41.2063 38.7619 41.2489 38.5486 41.2491 38.3331V31.0333L26.923 21.202Z" fill="#185C37"/>
<path d="M26.923 4.22119H13.3435C13.1283 4.22101 12.9151 4.26323 12.7162 4.34543C12.5173 4.42763 12.3365 4.5482 12.1841 4.70027C12.0318 4.85234 11.9109 5.03292 11.8284 5.2317C11.7459 5.43049 11.7033 5.64358 11.7031 5.85882V13.1587L26.923 22.0962L34.9819 24.7774L41.2491 22.0962V13.1587L26.923 4.22119Z" fill="#21A366"/>
<path d="M11.7031 13.1587H26.923V22.0962H11.7031V13.1587Z" fill="#107C41"/>
<path opacity="0.1" d="M22.5959 11.3723H11.7031V33.7161H22.5959C23.0299 33.7139 23.4456 33.5408 23.7529 33.2343C24.0602 32.9277 24.2344 32.5125 24.2376 32.0784V13.0099C24.2344 12.5759 24.0602 12.1606 23.7529 11.8541C23.4456 11.5476 23.0299 11.3745 22.5959 11.3723Z" fill="black"/>
<path opacity="0.2" d="M21.7008 12.2654H11.7031V34.6091H21.7008C22.1348 34.607 22.5505 34.4339 22.8578 34.1273C23.1651 33.8208 23.3392 33.4055 23.3425 32.9715V13.903C23.3392 13.469 23.1651 13.0537 22.8578 12.7472C22.5505 12.4406 22.1348 12.2675 21.7008 12.2654Z" fill="black"/>
<path opacity="0.2" d="M21.7008 12.2654H11.7031V32.8216H21.7008C22.1348 32.8195 22.5505 32.6464 22.8578 32.3398C23.1651 32.0333 23.3392 31.618 23.3425 31.184V13.903C23.3392 13.469 23.1651 13.0537 22.8578 12.7472C22.5505 12.4406 22.1348 12.2675 21.7008 12.2654Z" fill="black"/>
<path opacity="0.2" d="M20.8056 12.2654H11.7031V32.8216H20.8056C21.2397 32.8195 21.6554 32.6464 21.9627 32.3398C22.27 32.0333 22.4441 31.618 22.4474 31.184V13.903C22.4441 13.469 22.27 13.0537 21.9627 12.7472C21.6554 12.4406 21.2397 12.2675 20.8056 12.2654Z" fill="black"/>
<path d="M4.39175 12.2654H20.8065C21.2413 12.265 21.6585 12.4373 21.9663 12.7444C22.2742 13.0515 22.4475 13.4682 22.4482 13.903V30.2903C22.4475 30.7251 22.2742 31.1418 21.9663 31.4489C21.6585 31.756 21.2413 31.9282 20.8065 31.9279H4.39175C4.1764 31.9282 3.96309 31.8862 3.76401 31.804C3.56492 31.7219 3.38398 31.6014 3.23151 31.4493C3.07904 31.2972 2.95804 31.1166 2.87542 30.9177C2.7928 30.7188 2.75018 30.5056 2.75 30.2903V13.903C2.75018 13.6877 2.7928 13.4744 2.87542 13.2756C2.95804 13.0767 3.07904 12.8961 3.23151 12.744C3.38398 12.5919 3.56492 12.4713 3.76401 12.3892C3.96309 12.3071 4.1764 12.265 4.39175 12.2654Z" fill="url(#paint0_linear_16005_77987)"/>
<path d="M7.83789 27.4215L11.2905 22.081L8.12802 16.7708H10.6676L12.3933 20.1711C12.5528 20.4929 12.6683 20.7321 12.7205 20.8916H12.7439C12.8566 20.6331 12.9763 20.3843 13.1014 20.1409L14.9466 16.7763H17.2841L14.0405 22.0563L17.3666 27.4256H14.8793L12.8855 23.698C12.7929 23.5377 12.7143 23.3698 12.6504 23.1961H12.6174C12.5593 23.3654 12.4817 23.5273 12.3864 23.6788L10.3335 27.4215H7.83789Z" fill="white"/>
<path d="M39.6082 4.22119H26.9238V13.1587H41.25V5.85882C41.2498 5.64347 41.2072 5.43026 41.1245 5.23139C41.0419 5.03251 40.9209 4.85187 40.7684 4.69979C40.616 4.5477 40.435 4.42715 40.2359 4.34503C40.0369 4.26291 39.8236 4.22083 39.6082 4.22119Z" fill="#33C481"/>
<path d="M26.9238 22.0962H41.25V31.0337H26.9238V22.0962Z" fill="#107C41"/>
<defs>
<linearGradient id="paint0_linear_16005_77987" x1="6.17925" y1="10.9784" x2="19.019" y2="33.2149" gradientUnits="userSpaceOnUse">
<stop stop-color="#18884F"/>
<stop offset="0.5" stop-color="#117E43"/>
<stop offset="1" stop-color="#0B6631"/>
</linearGradient>
</defs>
</svg>
