<svg width="18" height="18" viewBox="0 0 18 18" fill="none" xmlns="http://www.w3.org/2000/svg">
<g clip-path="url(#clip0_16005_75416)">
<path d="M1.5 4.49976C1.5 3.44966 1.5 2.92461 1.70436 2.52352C1.88413 2.17072 2.17096 1.88388 2.52376 1.70412C2.92485 1.49976 3.4499 1.49976 4.5 1.49976C5.5501 1.49976 6.07515 1.49976 6.47623 1.70412C6.82903 1.88388 7.11587 2.17072 7.29564 2.52352C7.5 2.92461 7.5 3.44966 7.5 4.49976V13.4998C7.5 14.5498 7.5 15.0749 7.29564 15.476C7.11587 15.8288 6.82903 16.1156 6.47623 16.2954C6.07515 16.4998 5.5501 16.4998 4.5 16.4998C3.4499 16.4998 2.92485 16.4998 2.52376 16.2954C2.17096 16.1156 1.88413 15.8288 1.70436 15.476C1.5 15.0749 1.5 14.5498 1.5 13.4998V4.49976Z" stroke="#2580D3" stroke-width="1.3125"/>
<path d="M5.25 14.2498H3.75" stroke="#2580D3" stroke-width="1.3125" stroke-linecap="round"/>
<path d="M9.98527 3.69696L8.3787 5.30353C7.94513 5.73708 7.72837 5.95385 7.61415 6.22951C7.5 6.50517 7.5 6.81173 7.5 7.42485V14.6675L14.2279 7.93964C14.9705 7.19707 15.3417 6.82581 15.4808 6.39769C15.6031 6.02111 15.6031 5.61546 15.4808 5.23888C15.3417 4.81076 14.9705 4.43949 14.2279 3.69696C13.4854 2.95443 13.1141 2.58317 12.6859 2.44407C12.3094 2.3217 11.9038 2.3217 11.5271 2.44407C11.099 2.58317 10.7278 2.95443 9.98527 3.69696Z" stroke="#2580D3" stroke-width="1.3125"/>
<path d="M4.5 16.4998H13.5C14.5501 16.4998 15.0751 16.4998 15.4762 16.2954C15.829 16.1156 16.1158 15.8288 16.2956 15.476C16.5 15.0749 16.5 14.5498 16.5 13.4998C16.5 12.4497 16.5 11.9246 16.2956 11.5235C16.1158 11.1707 15.829 10.8839 15.4762 10.7041C15.0751 10.4998 14.5501 10.4998 13.5 10.4998H11.625" stroke="#2580D3" stroke-width="1.3125"/>
</g>
<defs>
<clipPath id="clip0_16005_75416">
<rect width="18" height="18" fill="white"/>
</clipPath>
</defs>
</svg>
