<svg width="15" height="18" viewBox="0 0 15 18" fill="none" xmlns="http://www.w3.org/2000/svg">
<path d="M13.4618 4.152L10.8488 1.5375C9.8565 0.546 8.538 0 7.13625 0H3.75C1.68225 0 0 1.68225 0 3.75V14.25C0 16.3177 1.68225 18 3.75 18H11.25C13.3177 18 15 16.3177 15 14.25V7.86375C15 6.4605 14.4532 5.1435 13.4618 4.152ZM12.4012 5.21325C12.6397 5.451 12.8415 5.71575 13.005 6.00075H9.74925C9.33525 6.00075 8.99925 5.664 8.99925 5.25075V1.99425C9.28425 2.15775 9.549 2.3595 9.7875 2.598L12.4005 5.2125L12.4012 5.21325ZM13.5 14.2507C13.5 15.4913 12.4905 16.5007 11.25 16.5007H3.75C2.5095 16.5007 1.5 15.4913 1.5 14.2507V3.75C1.5 2.5095 2.5095 1.5 3.75 1.5H7.13625C7.2585 1.5 7.38 1.506 7.5 1.51725V5.25C7.5 6.4905 8.5095 7.5 9.75 7.5H13.4827C13.494 7.62 13.5 7.7415 13.5 7.86375V14.2507ZM10.2802 12.0795C10.5735 12.372 10.5735 12.8468 10.2802 13.14L9.0705 14.3505C8.63775 14.7833 8.0685 15 7.5 15C6.9315 15 6.36225 14.7833 5.9295 14.3505L4.71975 13.14C4.4265 12.8468 4.4265 12.372 4.71975 12.0795C5.013 11.7863 5.487 11.7863 5.78025 12.0795L6.75 13.0492V9.75075C6.75 9.33675 7.08525 9.00075 7.5 9.00075C7.91475 9.00075 8.25 9.33675 8.25 9.75075V13.0492L9.21975 12.0795C9.513 11.7863 9.987 11.7863 10.2802 12.0795Z" fill="#2580D3"/>
</svg>
