<svg width="11" height="13" viewBox="0 0 11 13" fill="none" xmlns="http://www.w3.org/2000/svg">
<path d="M9.72237 2.91537L7.83521 1.07957C7.11858 0.38338 6.16633 0 5.15396 0H2.70833C1.21496 0 0 1.18121 0 2.6331V10.0058C0 11.4577 1.21496 12.6389 2.70833 12.6389H8.125C9.61837 12.6389 10.8333 11.4577 10.8333 10.0058V5.52161C10.8333 4.53631 10.4385 3.61156 9.72237 2.91537ZM8.95646 3.66054C9.12871 3.82748 9.27442 4.01337 9.3925 4.21349H7.04112C6.74212 4.21349 6.49946 3.97704 6.49946 3.68687V1.40028C6.70529 1.51509 6.8965 1.65675 7.06875 1.82421L8.95592 3.66001L8.95646 3.66054ZM9.75 10.0063C9.75 10.8773 9.02092 11.5862 8.125 11.5862H2.70833C1.81242 11.5862 1.08333 10.8773 1.08333 10.0063V2.6331C1.08333 1.76207 1.81242 1.05324 2.70833 1.05324H5.15396C5.24225 1.05324 5.33 1.05745 5.41667 1.06535V3.68634C5.41667 4.55737 6.14575 5.2662 7.04167 5.2662H9.73754C9.74567 5.35046 9.75 5.43577 9.75 5.52161V10.0063ZM7.42462 8.48175C7.63642 8.68713 7.63642 9.02048 7.42462 9.22639L6.55092 10.0764C6.23837 10.3802 5.82725 10.5324 5.41667 10.5324C5.00608 10.5324 4.59496 10.3802 4.28242 10.0764L3.40871 9.22639C3.19692 9.02048 3.19692 8.68713 3.40871 8.48175C3.6205 8.27584 3.96283 8.27584 4.17462 8.48175L4.875 9.16267V6.84659C4.875 6.5559 5.11712 6.31997 5.41667 6.31997C5.71621 6.31997 5.95833 6.5559 5.95833 6.84659V9.16267L6.65871 8.48175C6.8705 8.27584 7.21283 8.27584 7.42462 8.48175Z" fill="#30313D"/>
</svg>
