<svg width="20" height="16" viewBox="0 0 20 16" fill="none" xmlns="http://www.w3.org/2000/svg">
<path d="M19.0495 5.98178C17.8042 4.00683 14.9716 0.693359 10 0.693359C5.02849 0.693359 2.19587 4.00683 0.950576 5.98178C0.565609 6.58811 0.361694 7.28688 0.361694 7.99973C0.361694 8.71259 0.565609 9.41135 0.950576 10.0177C2.19587 11.9926 5.02849 15.3061 10 15.3061C14.9716 15.3061 17.8042 11.9926 19.0495 10.0177C19.4345 9.41135 19.6384 8.71259 19.6384 7.99973C19.6384 7.28688 19.4345 6.58811 19.0495 5.98178ZM17.6805 9.19909C16.6111 10.8926 14.1904 13.7424 10 13.7424C5.80971 13.7424 3.38897 10.8926 2.31952 9.19909C2.0908 8.83869 1.96965 8.4234 1.96965 7.99973C1.96965 7.57607 2.0908 7.16077 2.31952 6.80038C3.38897 5.10689 5.80971 2.25706 10 2.25706C14.1904 2.25706 16.6111 5.10377 17.6805 6.80038C17.9093 7.16077 18.0304 7.57607 18.0304 7.99973C18.0304 8.4234 17.9093 8.83869 17.6805 9.19909Z" fill="white"/>
<path d="M10.007 4.09375C9.21305 4.09375 8.43689 4.32302 7.77671 4.75258C7.11653 5.18213 6.60199 5.79267 6.29814 6.50699C5.99429 7.22131 5.91479 8.00733 6.06969 8.76565C6.22459 9.52396 6.60694 10.2205 7.16837 10.7672C7.72981 11.314 8.44512 11.6863 9.22385 11.8371C10.0026 11.988 10.8098 11.9105 11.5433 11.6147C12.2769 11.3188 12.9038 10.8177 13.345 10.1748C13.7861 9.53198 14.0215 8.77617 14.0215 8.00299C14.0203 6.96658 13.5969 5.97297 12.8443 5.24011C12.0917 4.50726 11.0714 4.09499 10.007 4.09375ZM10.007 10.3485C9.53065 10.3485 9.06495 10.211 8.66884 9.95324C8.27274 9.69551 7.96401 9.32918 7.7817 8.90059C7.59939 8.472 7.55169 8.00039 7.64463 7.5454C7.73757 7.09041 7.96698 6.67247 8.30384 6.34444C8.6407 6.01641 9.06989 5.79302 9.53713 5.70252C10.0044 5.61201 10.4887 5.65846 10.9288 5.83599C11.3689 6.01352 11.7451 6.31415 12.0098 6.69988C12.2745 7.0856 12.4157 7.53909 12.4157 8.00299C12.4157 8.62507 12.162 9.22167 11.7102 9.66154C11.2585 10.1014 10.6459 10.3485 10.007 10.3485Z" fill="white"/>
</svg>
