<svg width="18" height="18" viewBox="0 0 18 18" fill="none" xmlns="http://www.w3.org/2000/svg">
<path d="M9.00033 0.666016C7.35215 0.666016 5.74099 1.15476 4.37058 2.07044C3.00017 2.98611 1.93206 4.2876 1.30133 5.81032C0.670603 7.33304 0.505575 9.00859 0.827119 10.6251C1.14866 12.2416 1.94233 13.7265 3.10777 14.8919C4.27321 16.0573 5.75807 16.851 7.37458 17.1726C8.99108 17.4941 10.6666 17.3291 12.1894 16.6983C13.7121 16.0676 15.0136 14.9995 15.9292 13.6291C16.8449 12.2587 17.3337 10.6475 17.3337 8.99935C17.3313 6.78994 16.4525 4.67172 14.8902 3.10943C13.328 1.54715 11.2097 0.668405 9.00033 0.666016ZM9.00033 15.9438C7.62685 15.9438 6.28421 15.5365 5.1422 14.7734C4.00019 14.0104 3.11011 12.9258 2.5845 11.6569C2.05889 10.3879 1.92137 8.99164 2.18932 7.64455C2.45727 6.29746 3.11867 5.06008 4.08986 4.08888C5.06106 3.11769 6.29844 2.45629 7.64553 2.18834C8.99262 1.92039 10.3889 2.05791 11.6579 2.58352C12.9268 3.10913 14.0114 3.99921 14.7744 5.14122C15.5375 6.28323 15.9448 7.62587 15.9448 8.99935C15.9427 10.8405 15.2105 12.6057 13.9086 13.9076C12.6067 15.2095 10.8415 15.9418 9.00033 15.9438Z" fill="#2580D3"/>
<path d="M9.00022 7.61133H8.30577C8.12159 7.61133 7.94496 7.68449 7.81473 7.81473C7.68449 7.94496 7.61133 8.12159 7.61133 8.30577C7.61133 8.48995 7.68449 8.66659 7.81473 8.79682C7.94496 8.92705 8.12159 9.00022 8.30577 9.00022H9.00022V13.1669C9.00022 13.3511 9.07338 13.5277 9.20361 13.6579C9.33385 13.7882 9.51048 13.8613 9.69466 13.8613C9.87884 13.8613 10.0555 13.7882 10.1857 13.6579C10.3159 13.5277 10.3891 13.3511 10.3891 13.1669V9.00022C10.3891 8.63186 10.2428 8.27859 9.98231 8.01812C9.72184 7.75766 9.36857 7.61133 9.00022 7.61133Z" fill="#2580D3"/>
<path d="M9.00065 6.22005C9.57595 6.22005 10.0423 5.75368 10.0423 5.17839C10.0423 4.60309 9.57595 4.13672 9.00065 4.13672C8.42535 4.13672 7.95898 4.60309 7.95898 5.17839C7.95898 5.75368 8.42535 6.22005 9.00065 6.22005Z" fill="#2580D3"/>
</svg>
