<svg width="23" height="25" viewBox="0 0 23 25" fill="none" xmlns="http://www.w3.org/2000/svg">
<path d="M23.0007 11.6283C22.7632 12.3014 22.5958 12.4179 21.8618 12.4179C21.4393 12.4179 21.0167 12.4227 20.5948 12.4163C20.0607 12.4082 19.6939 12.0733 19.6934 11.6042C19.6928 11.1346 20.059 10.798 20.5914 10.79C21.014 10.7835 21.4365 10.7884 21.8585 10.7884C22.5958 10.7884 22.7632 10.9038 23.0001 11.5747V11.6283H23.0007Z" fill="#F6B100"/>
<path d="M4.70758 11.5575C4.76282 8.08266 7.09639 5.44516 10.5976 4.94707C14.2341 4.42966 17.4552 6.65388 18.1534 10.1614C18.5941 12.3771 17.9352 14.2819 16.4323 15.9506C16.16 16.2528 15.8822 16.5496 15.6177 16.8577C15.3531 17.1658 15.2023 17.5152 15.1714 17.9274C15.1128 18.7126 14.6969 19.2435 13.8983 19.4517C12.3137 19.865 10.729 20.2777 9.1411 20.6787C8.66002 20.8 8.24578 20.5407 8.13255 20.0883C8.01546 19.6224 8.24412 19.2408 8.73956 19.1109C10.2353 18.7185 11.7321 18.3316 13.2305 17.9494C13.4089 17.9038 13.5083 17.8356 13.5376 17.6413C13.6569 16.8614 14.0043 16.1895 14.5572 15.606C14.9173 15.226 15.2575 14.8245 15.5713 14.408C17.1034 12.3744 16.925 9.50929 15.1139 7.84864C13.6464 6.50305 11.8712 6.18316 9.96959 6.72795C8.16017 7.24643 6.9561 8.41919 6.56892 10.2435C6.18892 12.0362 6.52805 13.7076 7.75587 15.1428C8.01491 15.4455 8.359 15.6892 8.69261 15.9206C9.14607 16.2345 9.2836 16.6677 9.01296 17.0901C8.74618 17.5077 8.26787 17.5941 7.79066 17.2957C6.23918 16.3253 5.34 14.9169 4.94122 13.195C4.81694 12.6588 4.7827 12.1033 4.70703 11.5564L4.70758 11.5575Z" fill="#F6B100"/>
<path d="M14.9764 20.5815C14.9786 20.9331 14.7709 21.225 14.4125 21.3163C12.6489 21.7645 10.8842 22.2089 9.11731 22.6442C8.6633 22.7558 8.24574 22.4848 8.13362 22.0441C8.01763 21.5884 8.24243 21.1902 8.7108 21.0721C10.4484 20.632 12.1866 20.1956 13.9275 19.7694C14.5041 19.6283 14.9731 20.0056 14.9764 20.582V20.5815Z" fill="#F6B100"/>
<path d="M11.5004 24.597C10.7713 24.5906 10.151 24.3754 9.59319 23.9819C9.2176 23.7168 9.11101 23.3985 9.27726 23.0609C9.46615 22.6766 9.92734 22.4646 10.3344 22.5843C10.4554 22.6197 10.5774 22.6729 10.6807 22.7432C11.1717 23.0797 11.671 23.0695 12.1819 22.7963C12.262 22.7534 12.341 22.7077 12.4189 22.6605C12.8569 22.3921 13.2634 22.4496 13.5291 22.8178C13.8185 23.2187 13.7467 23.7238 13.3435 24.0034C12.7834 24.3925 12.1565 24.5944 11.5004 24.597Z" fill="#F6B100"/>
<path d="M1.62783 12.4206C1.37155 12.4206 1.11416 12.4286 0.858437 12.419C0.346984 12.3996 -0.00760853 12.054 0.000124019 11.5945C0.00785657 11.1442 0.355269 10.8082 0.855676 10.7959C1.37762 10.783 1.90012 10.7841 2.42207 10.7959C2.92192 10.8072 3.27541 11.1458 3.27928 11.5908C3.28314 12.054 2.93297 12.3991 2.42483 12.419C2.15972 12.4292 1.89349 12.4206 1.62783 12.4211V12.4206Z" fill="#F6B100"/>
<path d="M19.9367 4.31343C19.8285 4.50074 19.7506 4.7149 19.6059 4.87055C19.2623 5.23983 18.8906 5.58494 18.5233 5.93275C18.161 6.27572 17.6517 6.28162 17.3192 5.9569C16.9867 5.63218 16.9945 5.13731 17.348 4.78629C17.7191 4.41701 18.093 4.04989 18.4764 3.69296C18.7404 3.44714 19.0602 3.39991 19.3916 3.5416C19.7152 3.67954 19.8732 3.93771 19.9367 4.31396V4.31343Z" fill="#F6B100"/>
<path d="M5.10994 16.978C5.4684 17.0258 5.72523 17.1723 5.87381 17.4729C6.02791 17.7842 5.99587 18.0939 5.75672 18.3429C5.35738 18.7589 4.94259 19.1636 4.51343 19.5506C4.20082 19.8329 3.71919 19.8028 3.41375 19.5205C3.10003 19.2307 3.0459 18.7476 3.34029 18.4347C3.74791 18.0016 4.17983 17.5894 4.62279 17.1906C4.74651 17.0795 4.94535 17.0467 5.10939 16.978H5.10994Z" fill="#F6B100"/>
<path d="M12.356 2.15128C12.356 2.39173 12.3604 2.63273 12.3554 2.87318C12.3438 3.3863 11.992 3.75181 11.5176 3.74967C11.0492 3.74752 10.699 3.3965 10.688 2.89572C10.6775 2.40569 10.6764 1.91565 10.688 1.42562C10.7007 0.927528 11.0564 0.589387 11.5363 0.595291C11.9964 0.601195 12.3383 0.945777 12.3549 1.42937C12.3632 1.66983 12.3566 1.91028 12.3566 2.15128H12.356Z" fill="#F6B100"/>
<path d="M18.0647 17.0405C18.1757 17.0996 18.3911 17.1699 18.5452 17.3057C18.9125 17.6277 19.2561 17.9761 19.5991 18.3228C19.9399 18.6668 19.9349 19.1515 19.6018 19.473C19.2677 19.795 18.7722 19.7945 18.4187 19.4607C18.057 19.1188 17.698 18.7742 17.3506 18.4189C17.0998 18.1623 17.0429 17.8542 17.1953 17.529C17.3423 17.2155 17.6124 17.0684 18.0647 17.0405Z" fill="#F6B100"/>
<path d="M5.93 5.25856C5.89962 5.68366 5.74773 5.93324 5.43843 6.07708C5.12691 6.222 4.81375 6.19355 4.5652 5.97081C4.15427 5.60261 3.75715 5.21777 3.38101 4.8163C3.08662 4.50231 3.13302 4.02032 3.44343 3.7278C3.75715 3.4326 4.24319 3.40845 4.56465 3.7015C4.95901 4.06112 5.34398 4.432 5.70686 4.82113C5.83334 4.95638 5.88139 5.16034 5.92944 5.25856H5.93Z" fill="#F6B100"/>
</svg>
