<svg width="15" height="15" viewBox="0 0 15 15" fill="none" xmlns="http://www.w3.org/2000/svg">
<g clip-path="url(#clip0_12781_3267)">
<path d="M7.5 14.4941C3.65 14.4941 0.5 11.3441 0.5 7.49414H1.66667C1.66667 10.7025 4.29167 13.3275 7.5 13.3275C10.7083 13.3275 13.3333 10.7025 13.3333 7.49414C13.3333 4.28581 10.7083 1.66081 7.5 1.66081C5.4 1.66081 3.475 2.76914 2.425 4.57747H5.16667V5.74414H0.5V1.07747H1.66667V3.64414C2.95 1.71914 5.16667 0.494141 7.5 0.494141C11.35 0.494141 14.5 3.64414 14.5 7.49414C14.5 11.3441 11.35 14.4941 7.5 14.4941ZM9.425 10.8775L6.91667 8.31081V3.99414H8.08333V7.84414L10.2417 10.0608L9.425 10.8775Z" fill="#3C3D48"/>
</g>
<defs>
<clipPath id="clip0_12781_3267">
<rect width="14" height="14" fill="white" transform="translate(0.5 0.494141)"/>
</clipPath>
</defs>
</svg>
