<svg width="12" height="13" viewBox="0 0 12 13" fill="none" xmlns="http://www.w3.org/2000/svg">
<g clip-path="url(#clip0_18657_110531)">
<path d="M5.86839 12.4262C2.71839 12.4262 0.141113 9.84895 0.141113 6.69895H1.09566C1.09566 9.32395 3.24339 11.4717 5.86839 11.4717C8.49339 11.4717 10.6411 9.32395 10.6411 6.69895C10.6411 4.07395 8.49339 1.92623 5.86839 1.92623C4.1502 1.92623 2.5752 2.83304 1.71611 4.31259H3.9593V5.26713H0.141113V1.44895H1.09566V3.54895C2.14566 1.97395 3.9593 0.97168 5.86839 0.97168C9.01839 0.97168 11.5957 3.54895 11.5957 6.69895C11.5957 9.84895 9.01839 12.4262 5.86839 12.4262ZM7.44339 9.46713L5.39111 7.36713V3.83532H6.34566V6.98532L8.11157 8.79895L7.44339 9.46713Z" fill="#3C3D48"/>
</g>
<defs>
<clipPath id="clip0_18657_110531">
<rect width="11.4545" height="11.4545" fill="white" transform="translate(0.141113 0.97168)"/>
</clipPath>
</defs>
</svg>
