<svg width="16" height="13" viewBox="0 0 16 13" fill="none" xmlns="http://www.w3.org/2000/svg">
<path d="M12.4893 0.887329H3.92275C3.11163 0.888135 2.334 1.15584 1.76045 1.63173C1.1869 2.10762 0.864253 2.75283 0.863281 3.42584L0.863281 9.51827C0.864253 10.1913 1.1869 10.8365 1.76045 11.3124C2.334 11.7883 3.11163 12.056 3.92275 12.0568H12.4893C13.3004 12.056 14.078 11.7883 14.6516 11.3124C15.2251 10.8365 15.5478 10.1913 15.5487 9.51827V3.42584C15.5478 2.75283 15.2251 2.10762 14.6516 1.63173C14.078 1.15584 13.3004 0.888135 12.4893 0.887329ZM3.92275 1.90273H12.4893C12.8557 1.90333 13.2134 1.99489 13.5166 2.16562C13.8198 2.33636 14.0544 2.57846 14.1903 2.86077L9.50444 6.74926C9.1596 7.03424 8.69271 7.19425 8.206 7.19425C7.71929 7.19425 7.25241 7.03424 6.90757 6.74926L2.22169 2.86077C2.35762 2.57846 2.59226 2.33636 2.89541 2.16562C3.19856 1.99489 3.55636 1.90333 3.92275 1.90273ZM12.4893 11.0414H3.92275C3.4359 11.0414 2.96898 10.8809 2.62473 10.5953C2.28047 10.3096 2.08707 9.92222 2.08707 9.51827V4.18739L6.04235 7.46715C6.61669 7.94249 7.39479 8.20943 8.206 8.20943C9.01722 8.20943 9.79532 7.94249 10.3697 7.46715L14.3249 4.18739V9.51827C14.3249 9.92222 14.1315 10.3096 13.7873 10.5953C13.443 10.8809 12.9761 11.0414 12.4893 11.0414Z" fill="#666666"/>
</svg>
