<svg width="16" height="13" viewBox="0 0 16 13" fill="none" xmlns="http://www.w3.org/2000/svg">
<g id="Group 21994">
<path id="Vector" d="M12.6667 0.0898438H3.33333C2.4496 0.0907221 1.60237 0.382394 0.97748 0.900882C0.352588 1.41937 0.00105857 2.12234 0 2.85559L0 9.49338C0.00105857 10.2266 0.352588 10.9296 0.97748 11.4481C1.60237 11.9666 2.4496 12.2582 3.33333 12.2591H12.6667C13.5504 12.2582 14.3976 11.9666 15.0225 11.4481C15.6474 10.9296 15.9989 10.2266 16 9.49338V2.85559C15.9989 2.12234 15.6474 1.41937 15.0225 0.900882C14.3976 0.382394 13.5504 0.0907221 12.6667 0.0898438ZM3.33333 1.19614H12.6667C13.0659 1.19679 13.4557 1.29655 13.786 1.48256C14.1163 1.66858 14.3719 1.93235 14.52 2.23993L9.41467 6.4765C9.03895 6.78699 8.53028 6.96132 8 6.96132C7.46972 6.96132 6.96105 6.78699 6.58533 6.4765L1.48 2.23993C1.6281 1.93235 1.88374 1.66858 2.21403 1.48256C2.54432 1.29655 2.93414 1.19679 3.33333 1.19614ZM12.6667 11.1528H3.33333C2.8029 11.1528 2.29419 10.978 1.91912 10.6668C1.54405 10.3556 1.33333 9.93349 1.33333 9.49338V3.68531L5.64267 7.25865C6.26842 7.77654 7.11617 8.06738 8 8.06738C8.88383 8.06738 9.73158 7.77654 10.3573 7.25865L14.6667 3.68531V9.49338C14.6667 9.93349 14.456 10.3556 14.0809 10.6668C13.7058 10.978 13.1971 11.1528 12.6667 11.1528Z" fill="#30313D"/>
</g>
</svg>
