<svg width="13" height="13" viewBox="0 0 13 13" fill="none" xmlns="http://www.w3.org/2000/svg">
<g id="Icon Container">
<path id="Vector" d="M3.16667 0.5V1.83333M3.16667 1.83333H9.83333M3.16667 1.83333H2.63333C1.8866 1.83333 1.51323 1.83333 1.22801 1.97866C0.977127 2.10649 0.773153 2.31046 0.645327 2.56135C0.5 2.84656 0.5 3.21993 0.5 3.96667V10.3667C0.5 11.1134 0.5 11.4868 0.645327 11.772C0.773153 12.0229 0.977127 12.2269 1.22801 12.3547C1.51323 12.5 1.88659 12.5 2.63333 12.5H10.3667C11.1134 12.5 11.4868 12.5 11.772 12.3547C12.0229 12.2269 12.2269 12.0229 12.3547 11.772C12.5 11.4868 12.5 11.1134 12.5 10.3667V3.96667C12.5 3.21993 12.5 2.84656 12.3547 2.56135C12.2269 2.31046 12.0229 2.10649 11.772 1.97866C11.4868 1.83333 11.1134 1.83333 10.3667 1.83333H9.83333M9.83333 0.5V1.83333" stroke="#30313D" stroke-linecap="round" stroke-linejoin="round"/>
<path id="M" d="M3.5 9.52295V4.5H5.20564L6.31605 7.4901H6.34042L7.45083 4.5H9.15647V9.52295H7.86854V6.61291H7.84417L6.72332 9.52295H5.93315L4.8123 6.61291H4.78794V9.52295H3.5Z" fill="#30313D"/>
</g>
</svg>
