<svg width="82" height="99" viewBox="0 0 82 99" fill="none" xmlns="http://www.w3.org/2000/svg">
<path d="M37.71 20.5327C37.68 14.7627 34.13 10.1727 28.59 8.97273C26.94 8.61273 25.18 8.72273 23.47 8.67273C22.97 8.66273 22.74 8.52273 22.58 8.03273C22.36 7.33273 22.06 6.65273 21.69 6.01273C19.4 2.05273 15.95 -0.0872724 11.37 0.00272759C6.72 0.102728 3.28 2.38273 1.2 6.52273C0.62 7.67273 0.39 9.00273 0 10.2527V12.7827C0.34 13.9427 0.52 15.1727 1.04 16.2427C3.16 20.6527 6.71 23.0827 11.64 23.0627C16.55 23.0527 20.13 20.5927 22.09 16.1827C22.78 14.6327 23.54 14.1927 25.01 14.4327C26.2 14.6227 27.48 14.5827 28.55 15.0527C30.91 16.0927 31.9 18.1027 31.9 20.6627C31.9 23.6327 31.9 26.6027 31.9 29.5727L37.72 23.7527C37.72 22.6827 37.72 21.6027 37.72 20.5327H37.71ZM11.6 17.3327C8.42 17.3327 5.81 14.6927 5.82 11.5227C5.84 8.31273 8.45 5.74273 11.64 5.77273C14.8 5.80273 17.37 8.36273 17.4 11.5227C17.43 14.6527 14.75 17.3327 11.6 17.3327Z" fill="#D8D8D8"/>
<path d="M71.9399 75.413C66.2099 74.243 60.4699 77.573 58.6299 83.173C58.4499 83.733 58.1799 83.883 57.6199 83.873C53.0799 83.853 48.5299 83.873 43.9899 83.853C43.3599 83.853 42.7099 83.803 42.1099 83.653C39.3199 82.913 37.7199 80.773 37.7099 77.753C37.6999 72.343 37.7099 66.943 37.7099 61.533C37.7099 61.283 37.7299 61.023 37.7499 60.733C37.9899 60.713 38.1699 60.693 38.3499 60.693C44.8199 60.693 51.2999 60.693 57.7699 60.673C58.3199 60.673 58.4699 60.913 58.6199 61.363C59.9199 65.093 62.4399 67.663 66.1999 68.853C74.2599 71.413 82.2399 64.563 81.0499 56.193C80.2999 50.883 75.9699 46.753 70.6499 46.283C65.3499 45.813 60.2999 49.113 58.6499 54.193C58.4599 54.773 58.2099 54.953 57.5999 54.953C51.2599 54.933 44.9199 54.933 38.5699 54.933C38.3099 54.933 38.0499 54.913 37.6999 54.893V53.923C37.6999 49.643 37.6999 45.363 37.6999 41.083L31.8799 46.903C31.8799 57.093 31.8799 67.273 31.8799 77.463C31.8799 78.433 31.9399 79.423 32.1299 80.373C33.2599 85.863 37.8799 89.603 43.5699 89.643C48.2699 89.673 52.9699 89.653 57.6799 89.643C58.1599 89.643 58.4099 89.743 58.5799 90.253C59.6899 93.533 61.7999 95.973 65.0199 97.343C66.0699 97.793 67.2199 98.013 68.3299 98.343H70.8599C71.0099 98.293 71.1499 98.223 71.2999 98.193C76.6299 97.383 80.7599 92.963 81.1399 87.633C81.5499 81.843 77.5799 76.573 71.9199 75.423L71.9399 75.413ZM69.5499 52.043C72.7199 51.993 75.3499 54.593 75.3699 57.793C75.3899 60.973 72.7999 63.583 69.5999 63.593C66.4299 63.603 63.7699 60.953 63.7899 57.803C63.8099 54.663 66.3799 52.093 69.5499 52.043ZM69.5599 92.523C66.3999 92.493 63.8299 89.933 63.7999 86.773C63.7699 83.643 66.4499 80.963 69.5999 80.963C72.7499 80.963 75.3899 83.593 75.3799 86.773C75.3599 89.983 72.7599 92.553 69.5699 92.523H69.5599Z" fill="#D8D8D8"/>
<path d="M47.12 23.3232L21.73 48.7132" stroke="#888888" stroke-width="6" stroke-linecap="round"/>
</svg>
