<svg width="23" height="28" viewBox="0 0 23 28" fill="none" xmlns="http://www.w3.org/2000/svg">
<path d="M1.14999 21.5012C1.14999 21.5012 3.64999 21.5012 3.64999 17.7512V10.2512C3.64999 10.2512 3.64999 2.75122 11.15 2.75122C18.65 2.75122 18.65 10.2512 18.65 10.2512V17.7512C18.65 21.5012 21.15 21.5012 21.15 21.5012H1.14999Z" stroke="#2580D3" stroke-width="2" stroke-linecap="round" stroke-linejoin="round"/>
<path d="M13.3125 25.2512C13.0878 25.6256 12.7744 25.939 12.4 26.1637C12.02 26.3831 11.5889 26.4987 11.15 26.4987C10.7112 26.4987 10.2801 26.3831 9.90002 26.1637C9.52563 25.939 9.21226 25.6256 8.98752 25.2512" stroke="#2580D3" stroke-width="2" stroke-linecap="round" stroke-linejoin="round"/>
<path d="M11.15 2.75122V1.50122" stroke="#2580D3" stroke-width="2" stroke-linecap="round" stroke-linejoin="round"/>
</svg>
