<svg width="22" height="26" viewBox="0 0 22 26" fill="none" xmlns="http://www.w3.org/2000/svg">
<path d="M1.15 19.6678C1.15 19.6678 3.37222 19.6678 3.37222 16.3344V9.66776C3.37222 9.66776 3.37222 3.0011 10.0389 3.0011C16.7056 3.0011 16.7056 9.66776 16.7056 9.66776V16.3344C16.7056 19.6678 18.9278 19.6678 18.9278 19.6678H1.15Z" stroke="#FFBF00" stroke-width="2" stroke-linecap="round" stroke-linejoin="round"/>
<path d="M11.9611 23.0011C11.7614 23.3339 11.4828 23.6124 11.15 23.8122C10.8122 24.0072 10.429 24.1099 10.0389 24.1099C9.64883 24.1099 9.26562 24.0072 8.9278 23.8122C8.59501 23.6124 8.31645 23.3339 8.11669 23.0011" stroke="#FFBF00" stroke-width="2" stroke-linecap="round" stroke-linejoin="round"/>
<path d="M10.0389 3.00113V1.89001" stroke="#FFBF00" stroke-width="2" stroke-linecap="round" stroke-linejoin="round"/>
<rect x="11.7056" y="2.44557" width="8.88889" height="8.88889" rx="4.44444" fill="#DC3545" stroke="white" stroke-width="1.11111"/>
</svg>
