<svg width="13" height="18" viewBox="0 0 13 18" fill="none" xmlns="http://www.w3.org/2000/svg">
<path id="Vector" d="M6.18174 8.99948C8.39406 8.99948 10.1932 7.20034 10.1932 4.98802C10.1932 2.7757 8.39406 0.976562 6.18174 0.976562C3.96942 0.976562 2.17028 2.7757 2.17028 4.98802C2.17028 7.20034 3.96942 8.99948 6.18174 8.99948ZM6.18174 2.31372C7.65662 2.31372 8.85605 3.51314 8.85605 4.98802C8.85605 6.4629 7.65662 7.66233 6.18174 7.66233C4.70686 7.66233 3.50744 6.4629 3.50744 4.98802C3.50744 3.51314 4.70686 2.31372 6.18174 2.31372ZM12.1989 16.3538C12.1989 16.7229 11.9001 17.0224 11.5304 17.0224C11.1606 17.0224 10.8618 16.7229 10.8618 16.3538C10.8618 14.3354 9.57477 12.6165 7.78031 11.9613L6.76608 13.483L7.49683 16.1506C7.61918 16.5959 7.22606 17.0231 6.69387 17.0231H5.66961C5.13743 17.0231 4.74497 16.5959 4.86665 16.1506L5.59741 13.483L4.58318 11.9613C2.78872 12.6165 1.5017 14.3354 1.5017 16.3545C1.5017 16.7236 1.20218 17.0231 0.833128 17.0231C0.464073 17.0231 0.164551 16.7236 0.164551 16.3545C0.164551 13.037 2.86426 10.3373 6.18174 10.3373C9.49922 10.3373 12.1989 13.0363 12.1989 16.3538Z" fill="#30313D"/>
</svg>
