<svg width="19" height="19" viewBox="0 0 19 19" fill="none" xmlns="http://www.w3.org/2000/svg">
<g id="Group 27875">
<path id="Vector" d="M9.5 0.0270996C7.71997 0.0270996 5.97991 0.55494 4.49987 1.54387C3.01983 2.53281 1.86628 3.93841 1.18509 5.58295C0.5039 7.22748 0.32567 9.03708 0.672936 10.7829C1.0202 12.5287 1.87737 14.1324 3.13604 15.3911C4.39471 16.6497 5.99836 17.5069 7.74419 17.8542C9.49002 18.2014 11.2996 18.0232 12.9442 17.342C14.5887 16.6608 15.9943 15.5073 16.9832 14.0272C17.9722 12.5472 18.5 10.8071 18.5 9.0271C18.4974 6.64094 17.5484 4.35326 15.8611 2.66599C14.1738 0.978721 11.8862 0.0296804 9.5 0.0270996ZM9.5 16.5271C8.01664 16.5271 6.56659 16.0872 5.33323 15.2631C4.09986 14.439 3.13856 13.2677 2.57091 11.8972C2.00325 10.5268 1.85473 9.01878 2.14411 7.56392C2.4335 6.10906 3.14781 4.77269 4.1967 3.7238C5.2456 2.6749 6.58197 1.9606 8.03683 1.67121C9.49168 1.38182 10.9997 1.53035 12.3701 2.098C13.7406 2.66566 14.9119 3.62695 15.736 4.86032C16.5601 6.09369 17 7.54374 17 9.0271C16.9978 11.0156 16.2069 12.9219 14.8009 14.328C13.3948 15.734 11.4885 16.5249 9.5 16.5271ZM13.25 9.0271C13.25 9.22601 13.171 9.41678 13.0303 9.55743C12.8897 9.69808 12.6989 9.7771 12.5 9.7771H10.25V12.0271C10.25 12.226 10.171 12.4168 10.0303 12.5574C9.88968 12.6981 9.69891 12.7771 9.5 12.7771C9.30109 12.7771 9.11032 12.6981 8.96967 12.5574C8.82902 12.4168 8.75 12.226 8.75 12.0271V9.7771H6.5C6.30109 9.7771 6.11032 9.69808 5.96967 9.55743C5.82902 9.41678 5.75 9.22601 5.75 9.0271C5.75 8.82819 5.82902 8.63742 5.96967 8.49677C6.11032 8.35612 6.30109 8.2771 6.5 8.2771H8.75V6.0271C8.75 5.82819 8.82902 5.63742 8.96967 5.49677C9.11032 5.35612 9.30109 5.2771 9.5 5.2771C9.69891 5.2771 9.88968 5.35612 10.0303 5.49677C10.171 5.63742 10.25 5.82819 10.25 6.0271V8.2771H12.5C12.6989 8.2771 12.8897 8.35612 13.0303 8.49677C13.171 8.63742 13.25 8.82819 13.25 9.0271Z" fill="#2580D3"/>
</g>
</svg>
