<svg width="12" height="13" viewBox="0 0 12 13" fill="none" xmlns="http://www.w3.org/2000/svg">
<path d="M5.99998 12.5C9.27644 12.5 12 9.78234 12 6.5C12 3.22353 9.27057 0.5 5.9941 0.5C2.71174 0.5 0 3.22353 0 6.5C0 9.78234 2.71764 12.5 5.99998 12.5ZM5.99998 11.5C3.22351 11.5 1.00585 9.27646 1.00585 6.5C1.00585 3.72941 3.21764 1.5 5.9941 1.5C8.76467 1.5 10.9941 3.72941 11 6.5C11.0059 9.27646 8.77057 11.5 5.99998 11.5ZM4.48232 9.37058C4.71175 9.37058 4.85292 9.25882 4.89998 9.0353L5.16469 7.77646H6.25881L6.01762 8.92941C5.96469 9.17058 6.13528 9.37058 6.37644 9.37058C6.61174 9.37058 6.76469 9.25882 6.81174 9.0353L7.07645 7.77059H7.68822C7.91761 7.77059 8.08233 7.59999 8.08233 7.3706C8.08233 7.17059 7.94115 7.02352 7.74705 7.02352H7.23527L7.48821 5.83531H8.10585C8.33527 5.83531 8.49998 5.66471 8.49998 5.43529C8.49998 5.23529 8.35878 5.08824 8.16468 5.08824H7.64116L7.87055 3.99412C7.91761 3.75295 7.74115 3.54707 7.49998 3.54707C7.27056 3.54707 7.12351 3.66471 7.07645 3.88235L6.82352 5.08824H5.72939L5.95292 3.99412C6.00587 3.75882 5.84115 3.54707 5.59409 3.54707C5.3588 3.54707 5.21175 3.66471 5.16469 3.88235L4.91762 5.08824H4.29409C4.07057 5.08824 3.89998 5.2647 3.89998 5.48825C3.89998 5.68823 4.04115 5.83531 4.24116 5.83531H4.75293L4.50587 7.02352H3.87646C3.64704 7.02352 3.48235 7.19998 3.48235 7.42353C3.48235 7.62354 3.62352 7.77059 3.8235 7.77059H4.35292L4.11175 8.92941C4.06469 9.17058 4.24116 9.37058 4.48232 9.37058ZM5.27055 7.09412L5.54116 5.77648H6.7294L6.45292 7.09412H5.27055Z" fill="#30313D"/>
</svg>
