<svg width="15" height="14" viewBox="0 0 15 14" fill="none" xmlns="http://www.w3.org/2000/svg">
<path d="M7.50391 0C3.64388 0 0.503906 3.13997 0.503906 7C0.503906 10.86 3.64388 14 7.50391 14C11.3639 14 14.5039 10.86 14.5039 7C14.5039 3.13997 11.3639 0 7.50391 0ZM7.50391 1.16667C10.7327 1.16667 13.3372 3.77116 13.3372 7C13.3372 10.2288 10.7327 12.8333 7.50391 12.8333C4.27507 12.8333 1.67057 10.2288 1.67057 7C1.67057 3.77116 4.27507 1.16667 7.50391 1.16667ZM7.50391 3.5C6.22103 3.5 5.17057 4.55046 5.17057 5.83333H6.33724C6.33724 5.18164 6.85221 4.66667 7.50391 4.66667C8.1556 4.66667 8.67057 5.18164 8.67057 5.83333C8.67057 6.27995 8.38346 6.67643 7.95964 6.81771L7.72266 6.89062C7.24642 7.04785 6.92057 7.50358 6.92057 8.0026V8.75H8.08724V8.0026L8.32422 7.92969C9.222 7.63118 9.83724 6.77897 9.83724 5.83333C9.83724 4.55046 8.78678 3.5 7.50391 3.5ZM6.92057 9.33333V10.5H8.08724V9.33333H6.92057Z" fill="#3C3D48"/>
</svg>
