<svg width="21" height="22" viewBox="0 0 21 22" fill="none" xmlns="http://www.w3.org/2000/svg">
<path d="M2.66309 6.55533C3.64102 4.85974 5.15127 3.53436 6.95948 2.78487C8.76769 2.03537 10.7727 1.90369 12.6634 2.41024C14.5541 2.91679 16.2248 4.03325 17.4161 5.58636C18.6074 7.13948 19.2527 9.04238 19.252 10.9998" stroke="#30313D" stroke-width="2" stroke-linecap="round" stroke-linejoin="round"/>
<path d="M18.0635 15.4444C17.0856 17.14 15.5753 18.4654 13.7671 19.2149C11.9589 19.9644 9.95384 20.0961 8.06314 19.5895C6.17243 19.083 4.5018 17.9665 3.31049 16.4134C2.11919 14.8603 1.47385 12.9574 1.47461 11" stroke="#30313D" stroke-width="2" stroke-linecap="round" stroke-linejoin="round"/>
<path d="M2.58594 1V6.55555H8.14149" stroke="#30313D" stroke-width="2" stroke-linecap="round" stroke-linejoin="round"/>
<path d="M18.1415 21.0009V15.4453H12.5859" stroke="#30313D" stroke-width="2" stroke-linecap="round" stroke-linejoin="round"/>
</svg>
