<svg width="15" height="15" viewBox="0 0 15 15" fill="none" xmlns="http://www.w3.org/2000/svg">
<path d="M2.23292 6.72514C2.65524 3.85518 5.32416 1.87099 8.19411 2.29331C9.17328 2.43739 10.0918 2.8552 10.8439 3.49859L10.1669 4.17562C9.93995 4.4026 9.94 4.77058 10.167 4.9975C10.2759 5.10641 10.4237 5.16763 10.5778 5.16765H13.2429C13.5639 5.16765 13.8241 4.90747 13.8241 4.58651V1.92133C13.824 1.60037 13.5638 1.34024 13.2428 1.34029C13.0887 1.34032 12.941 1.40153 12.832 1.51044L12.0765 2.26593C9.19543 -0.302267 4.77791 -0.048648 2.20971 2.83242C1.29987 3.85308 0.709431 5.11824 0.511548 6.47116C0.433528 6.95081 0.759092 7.40288 1.23871 7.4809C1.28191 7.48793 1.32555 7.49172 1.36933 7.49226C1.80814 7.48752 2.17647 7.16032 2.23292 6.72514Z" fill="white"/>
<path d="M13.4949 7.49512C13.056 7.49986 12.6877 7.82706 12.6313 8.26224C12.2089 11.1322 9.54003 13.1164 6.67007 12.6941C5.6909 12.55 4.77237 12.1322 4.02028 11.4888L4.69732 10.8118C4.92424 10.5848 4.92419 10.2168 4.69718 9.9899C4.58824 9.88099 4.44048 9.81978 4.28643 9.81975H1.62131C1.30035 9.81975 1.04016 10.0799 1.04016 10.4009V13.0661C1.04024 13.387 1.30048 13.6472 1.62144 13.6471C1.77549 13.6471 1.92325 13.5859 2.03219 13.477L2.78768 12.7215C5.66807 15.2899 10.0853 15.0371 12.6538 12.1567C13.5641 11.1358 14.1548 9.87023 14.3526 8.51681C14.431 8.03722 14.1057 7.58493 13.6262 7.50659C13.5827 7.49948 13.5388 7.49563 13.4949 7.49512Z" fill="white"/>
</svg>
