<svg width="14" height="14" viewBox="0 0 14 14" fill="none" xmlns="http://www.w3.org/2000/svg">
<path d="M1.74978 6.23129C2.17621 3.3612 4.87109 1.37691 7.76897 1.79926C8.75767 1.94334 9.68513 2.36117 10.4445 3.00459L9.76091 3.68166C9.53178 3.90864 9.53184 4.27664 9.76105 4.50357C9.87105 4.61249 10.0202 4.67371 10.1758 4.67373H12.8669C13.191 4.67373 13.4537 4.41354 13.4537 4.09256V1.42725C13.4536 1.10628 13.1909 0.846137 12.8668 0.846191C12.7112 0.846219 12.562 0.907433 12.452 1.01635L11.6891 1.77188C8.78003 -0.796445 4.31953 -0.542814 1.72634 2.33839C0.807647 3.3591 0.211469 4.62432 0.0116604 5.97731C-0.0671185 6.45697 0.261613 6.90907 0.745895 6.98709C0.78952 6.99412 0.833586 6.99791 0.877789 6.99845C1.32087 6.99371 1.69278 6.6665 1.74978 6.23129Z" fill="#2580D3"/>
<path d="M13.1222 7C12.6792 7.00474 12.3073 7.33195 12.2503 7.76716C11.8238 10.6373 9.12895 12.6215 6.23107 12.1992C5.24237 12.0551 4.3149 11.6373 3.5555 10.9939L4.23912 10.3168C4.46825 10.0898 4.4682 9.72184 4.23899 9.4949C4.12899 9.38599 3.97979 9.32477 3.82424 9.32474H1.13319C0.809102 9.32474 0.546387 9.58494 0.546387 9.90592V12.5712C0.546469 12.8922 0.80924 13.1523 1.13332 13.1523C1.28887 13.1523 1.43807 13.091 1.54807 12.9821L2.31091 12.2266C5.21932 14.7952 9.67949 14.5424 12.273 11.6618C13.1922 10.6409 13.7886 9.37523 13.9884 8.02174C14.0675 7.54213 13.7391 7.08982 13.2548 7.01147C13.211 7.00436 13.1667 7.00052 13.1222 7Z" fill="#2580D3"/>
</svg>
