<svg width="15" height="15" viewBox="0 0 15 15" fill="none" xmlns="http://www.w3.org/2000/svg">
<g id="Icon Container">
<g id="Icon Container_2">
<path id="Vector" d="M2.23292 6.7349C2.65524 3.86495 5.32416 1.88075 8.19411 2.30308C9.17328 2.44716 10.0918 2.86496 10.8439 3.50835L10.1669 4.18539C9.93995 4.41237 9.94 4.78035 10.167 5.00727C10.2759 5.11618 10.4237 5.17739 10.5778 5.17742H13.2429C13.5639 5.17742 13.8241 4.91724 13.8241 4.59627V1.93109C13.824 1.61013 13.5638 1.35 13.2428 1.35006C13.0887 1.35008 12.941 1.4113 12.832 1.52021L12.0765 2.2757C9.19543 -0.292502 4.77791 -0.0388824 2.20971 2.84219C1.29987 3.86285 0.709431 5.128 0.511548 6.48093C0.433528 6.96057 0.759092 7.41265 1.23871 7.49067C1.28191 7.49769 1.32555 7.50148 1.36933 7.50203C1.80814 7.49729 2.17647 7.17009 2.23292 6.7349Z" fill="white"/>
<path id="Vector_2" d="M13.495 7.50391C13.0562 7.50865 12.6878 7.83585 12.6314 8.27103C12.2091 11.141 9.54015 13.1252 6.67019 12.7029C5.69102 12.5588 4.77249 12.141 4.0204 11.4976L4.69744 10.8206C4.92436 10.5936 4.92431 10.2256 4.6973 9.99869C4.58836 9.88978 4.44061 9.82857 4.28655 9.82854H1.62143C1.30047 9.82854 1.04028 10.0887 1.04028 10.4097V13.0749C1.04036 13.3958 1.3006 13.656 1.62156 13.6559C1.77562 13.6559 1.92337 13.5947 2.03231 13.4858L2.7878 12.7303C5.66819 15.2987 10.0854 15.0459 12.6539 12.1655C13.5642 11.1446 14.1549 9.87902 14.3528 8.5256C14.4311 8.04601 14.1058 7.59372 13.6263 7.51538C13.5829 7.50827 13.539 7.50442 13.495 7.50391Z" fill="white"/>
</g>
</g>
</svg>
