<svg width="11" height="11" viewBox="0 0 11 11" fill="none" xmlns="http://www.w3.org/2000/svg">
<g id="Icon Container">
<g id="Icon Background Container">
<path id="Vector" d="M1.66516 4.93776C1.97666 2.82089 3.94524 1.35735 6.06211 1.66886C6.78434 1.77513 7.46185 2.0833 8.01658 2.55787L7.5172 3.05724C7.34983 3.22466 7.34987 3.49608 7.51731 3.66346C7.59766 3.74379 7.70664 3.78894 7.82027 3.78896H9.7861C10.0228 3.78896 10.2147 3.59705 10.2147 3.36031V1.39448C10.2147 1.15775 10.0227 0.965874 9.786 0.965915C9.67237 0.965935 9.56339 1.01108 9.48303 1.09142L8.92575 1.64866C6.80068 -0.24563 3.54233 -0.0585618 1.64804 2.0665C0.97694 2.81934 0.541438 3.75251 0.395481 4.75043C0.337934 5.10421 0.578068 5.43766 0.931831 5.4952C0.963699 5.50039 0.995888 5.50318 1.02818 5.50358C1.35184 5.50009 1.62352 5.25875 1.66516 4.93776Z" fill="white"/>
<path id="Vector_2" d="M9.97193 5.50586C9.64827 5.50936 9.37659 5.7507 9.33495 6.07169C9.02345 8.18855 7.05487 9.65209 4.938 9.3406C4.21577 9.23433 3.53826 8.92616 2.98353 8.4516L3.4829 7.95222C3.65028 7.7848 3.65024 7.51338 3.4828 7.346C3.40245 7.26567 3.29346 7.22052 3.17984 7.2205H1.21405C0.977311 7.2205 0.7854 7.41241 0.7854 7.64915V9.61498C0.785461 9.85172 0.977412 10.0436 1.21415 10.0435C1.32778 10.0435 1.43676 9.99838 1.51712 9.91804L2.07436 9.3608C4.19893 11.2553 7.45703 11.0688 9.35155 8.94422C10.023 8.19123 10.4587 7.25773 10.6046 6.25946C10.6624 5.90572 10.4225 5.57211 10.0688 5.51432C10.0368 5.50907 10.0044 5.50624 9.97193 5.50586Z" fill="white"/>
</g>
</g>
</svg>
