<svg width="16" height="14" viewBox="0 0 16 14" fill="none" xmlns="http://www.w3.org/2000/svg">
<path d="M12.7968 14C12.6059 13.9435 12.4071 13.9047 12.2252 13.8275C11.6688 13.591 11.3054 13.1699 11.1129 12.6025C11.0827 12.5127 11.0402 12.4963 10.957 12.4963C10.1441 12.4986 9.33162 12.5021 8.51876 12.4963C7.53382 12.4892 6.73628 11.843 6.54063 10.8941C6.50684 10.7306 6.49702 10.5596 6.49663 10.3918C6.49388 8.11797 6.49388 5.84413 6.49584 3.57029C6.49584 3.12838 6.32494 2.78097 5.91714 2.60099C5.73327 2.51983 5.5109 2.5261 5.30582 2.49316C5.05163 2.45238 4.92002 2.52806 4.80098 2.79626C4.46192 3.5597 3.84354 3.98396 2.99453 3.98592C2.14199 3.98788 1.52871 3.5695 1.16255 2.80646C1.07376 2.62138 1.04154 2.40886 0.983398 2.20889C0.983398 2.06302 0.983398 1.91716 0.983398 1.77129C1.05058 1.55563 1.09026 1.32586 1.19044 1.12666C1.55032 0.410672 2.14474 0.017387 2.94778 0.000526305C3.7406 -0.0159423 4.33581 0.354601 4.73183 1.03844C4.79508 1.14784 4.84694 1.26665 4.88544 1.38702C4.91294 1.4725 4.95145 1.49603 5.03866 1.49838C5.3345 1.5074 5.63819 1.48858 5.92381 1.55053C6.88165 1.75874 7.4961 2.55159 7.50043 3.54872C7.50436 4.4741 7.50121 5.39948 7.50121 6.32485C7.50121 6.37818 7.50121 6.43151 7.50121 6.49268C7.56211 6.49542 7.6065 6.49895 7.65129 6.49895C8.74742 6.49895 9.84354 6.49777 10.9397 6.5017C11.045 6.50209 11.0882 6.47033 11.1204 6.37073C11.4064 5.49319 12.2782 4.92189 13.1948 5.00384C14.1145 5.08618 14.8625 5.79904 14.993 6.71736C15.1984 8.16502 13.8179 9.34762 12.4255 8.90572C11.7753 8.69947 11.34 8.2556 11.1153 7.61136C11.0886 7.53451 11.063 7.49177 10.9679 7.49216C9.84904 7.49609 8.73013 7.49452 7.61122 7.49491C7.58018 7.49491 7.54914 7.49883 7.50828 7.50157C7.50553 7.55216 7.50121 7.59647 7.50121 7.64038C7.50121 8.57478 7.49925 9.50917 7.50161 10.4436C7.50318 10.9655 7.77976 11.336 8.26221 11.4631C8.36672 11.4905 8.47869 11.498 8.58712 11.4983C9.37248 11.5011 10.1582 11.4983 10.9436 11.5019C11.0398 11.5023 11.0858 11.4776 11.1176 11.3803C11.4359 10.4126 12.4267 9.83737 13.4175 10.0389C14.3946 10.2377 15.0821 11.1482 15.0106 12.1489C14.9446 13.0707 14.2324 13.8353 13.3103 13.9749C13.2843 13.9788 13.2596 13.9914 13.2345 14H12.7968ZM1.98955 1.99087C1.98641 2.53943 2.43861 2.99428 2.98785 2.99506C3.53238 2.99585 3.99519 2.53238 3.99047 1.99126C3.98576 1.44584 3.5422 1.00315 2.99532 0.99766C2.44333 0.99217 1.99309 1.43682 1.98955 1.99087ZM14.0108 12.0022C14.0135 11.4536 13.5609 10.9984 13.0121 10.9984C12.4672 10.9984 12.0044 11.4623 12.0099 12.0026C12.0154 12.5484 12.4589 12.9907 13.0058 12.9958C13.5582 13.0009 14.008 12.5563 14.0108 12.0022ZM14.0108 6.99262C14.0072 6.44013 13.5523 5.99078 13.0046 5.99862C12.4577 6.00685 12.0134 6.45111 12.0099 6.99418C12.0063 7.53804 12.466 7.99642 13.0133 7.99446C13.566 7.9925 14.0143 7.54275 14.0108 6.99262Z" fill="#2580D3"/>
</svg>
