<svg width="11" height="11" viewBox="0 0 11 11" fill="none" xmlns="http://www.w3.org/2000/svg">
<g id="Result Icon">
<path id="Vector" d="M6.77792 7.16667C9.52333 7.15542 10.5 5.70333 10.5 4.45833C10.4997 4.12532 10.3855 3.80244 10.1763 3.54335C9.96706 3.28426 9.67548 3.10458 9.35 3.03417C9.47039 2.69541 9.56783 2.34893 9.64167 1.99708C9.67867 1.81696 9.67494 1.63084 9.63074 1.45234C9.58655 1.27384 9.50302 1.10748 9.38625 0.965418C9.26801 0.819808 9.11873 0.702454 8.94932 0.621931C8.77991 0.541408 8.59466 0.49975 8.40708 0.500002H2.59292C2.40527 0.499688 2.21993 0.541316 2.05045 0.621841C1.88096 0.702367 1.73162 0.819753 1.61333 0.965418C1.49657 1.10748 1.41303 1.27384 1.36884 1.45234C1.32465 1.63084 1.32092 1.81696 1.35792 1.99708C1.43155 2.34898 1.529 2.69547 1.64958 3.03417C1.32418 3.10466 1.03269 3.28438 0.823561 3.54346C0.614431 3.80254 0.500253 4.12538 0.5 4.45833C0.5 5.70333 1.47667 7.15542 4.22208 7.16667C4.23767 7.25437 4.247 7.34306 4.25 7.43208V8.83333C4.25716 8.94462 4.24051 9.05616 4.20116 9.16051C4.16182 9.26486 4.10068 9.35963 4.02182 9.43849C3.94296 9.51734 3.8482 9.57848 3.74385 9.61783C3.6395 9.65718 3.52796 9.67383 3.41667 9.66667H2.58333V10.5H8.41667V9.66667H7.58667C7.47514 9.67418 7.36329 9.65781 7.2586 9.61864C7.1539 9.57946 7.05878 9.51839 6.97958 9.43951C6.90038 9.36063 6.83893 9.26575 6.79934 9.16121C6.75975 9.05667 6.74293 8.94489 6.75 8.83333V7.43208C6.753 7.34306 6.76233 7.25437 6.77792 7.16667ZM9.04167 3.83333C9.20743 3.83333 9.3664 3.89918 9.48361 4.01639C9.60082 4.1336 9.66667 4.29257 9.66667 4.45833C9.66667 5.31167 8.98708 6.21875 7.115 6.32292C7.18869 6.22613 7.27374 6.13856 7.36833 6.06208C8.07867 5.45255 8.6425 4.69076 9.01792 3.83333H9.04167ZM1.33333 4.45833C1.33333 4.29257 1.39918 4.1336 1.51639 4.01639C1.6336 3.89918 1.79257 3.83333 1.95833 3.83333H1.98208C2.35721 4.69082 2.92092 5.45264 3.63125 6.06208C3.72597 6.13855 3.81117 6.22613 3.885 6.32292C2.01292 6.21875 1.33333 5.31167 1.33333 4.45833ZM5.91667 7.43208V8.83333C5.91197 9.12389 5.98183 9.4108 6.11958 9.66667H4.88042C5.01817 9.4108 5.08803 9.12389 5.08333 8.83333V7.43208C5.0904 7.04674 5.01027 6.66479 4.84894 6.31478C4.68761 5.96477 4.44924 5.65575 4.15167 5.41083C3.125 4.59 2.41667 3.02083 2.17417 1.82917C2.16171 1.77034 2.16274 1.70945 2.17717 1.65107C2.1916 1.59269 2.21907 1.53834 2.2575 1.49208C2.29795 1.44219 2.34909 1.40202 2.40714 1.37454C2.4652 1.34706 2.52869 1.33298 2.59292 1.33333H8.40708C8.47096 1.33329 8.53404 1.34753 8.59171 1.37499C8.64938 1.40246 8.70019 1.44246 8.74042 1.49208C8.77874 1.5384 8.80614 1.59275 8.82057 1.65111C8.83499 1.70947 8.83608 1.77033 8.82375 1.82917C8.57958 3.02083 7.87292 4.59 6.84583 5.4125C6.54898 5.65753 6.31126 5.96639 6.15038 6.31607C5.9895 6.66575 5.90961 7.04723 5.91667 7.43208Z" fill="#656565"/>
</g>
</svg>
