<svg width="41" height="41" viewBox="0 0 41 41" fill="none" xmlns="http://www.w3.org/2000/svg">
<g id="Group 22738">
<path id="Vector" d="M25.2025 27.1667C36.1842 27.1217 40.0908 21.3133 40.0908 16.3333C40.0897 15.0013 39.6328 13.7097 38.7959 12.6734C37.9591 11.637 36.7928 10.9183 35.4908 10.6367C35.9724 9.28165 36.3622 7.89574 36.6575 6.48834C36.8055 5.76783 36.7906 5.02335 36.6138 4.30935C36.437 3.59536 36.1029 2.9299 35.6358 2.36167C35.1629 1.77923 34.5657 1.30982 33.8881 0.987724C33.2105 0.665632 32.4694 0.499001 31.7192 0.500007H8.46249C7.71192 0.498752 6.97056 0.665264 6.29262 0.987365C5.61468 1.30947 5.01729 1.77901 4.54415 2.36167C4.07709 2.9299 3.74295 3.59536 3.56618 4.30935C3.38941 5.02335 3.37448 5.76783 3.52249 6.48834C3.81703 7.89593 4.20682 9.28189 4.68915 10.6367C3.38753 10.9186 2.22158 11.6375 1.38506 12.6738C0.548546 13.7102 0.0918328 15.0015 0.0908203 16.3333C0.0908203 21.3133 3.99749 27.1217 14.9792 27.1667C15.0415 27.5175 15.0788 27.8722 15.0908 28.2283V33.8333C15.1195 34.2785 15.0529 34.7247 14.8955 35.1421C14.7381 35.5595 14.4935 35.9385 14.1781 36.2539C13.8627 36.5694 13.4836 36.8139 13.0662 36.9713C12.6488 37.1287 12.2027 37.1953 11.7575 37.1667H8.42415V40.5H31.7575V37.1667H28.4375C27.9914 37.1967 27.544 37.1312 27.1252 36.9745C26.7064 36.8179 26.3259 36.5736 26.0091 36.258C25.6923 35.9425 25.4465 35.563 25.2882 35.1448C25.1298 34.7267 25.0625 34.2796 25.0908 33.8333V28.2283C25.1028 27.8722 25.1401 27.5175 25.2025 27.1667ZM34.2575 13.8333C34.9205 13.8333 35.5564 14.0967 36.0253 14.5656C36.4941 15.0344 36.7575 15.6703 36.7575 16.3333C36.7575 19.7467 34.0392 23.375 26.5508 23.7917C26.8456 23.4045 27.1858 23.0542 27.5642 22.7483C30.4055 20.3102 32.6608 17.263 34.1625 13.8333H34.2575ZM3.42415 16.3333C3.42415 15.6703 3.68755 15.0344 4.15639 14.5656C4.62523 14.0967 5.26111 13.8333 5.92415 13.8333H6.01915C7.51964 17.2633 9.77449 20.3106 12.6158 22.7483C12.9947 23.0542 13.3355 23.4045 13.6308 23.7917C6.14249 23.375 3.42415 19.7467 3.42415 16.3333ZM21.7575 28.2283V33.8333C21.7387 34.9956 22.0182 36.1432 22.5692 37.1667H17.6125C18.1635 36.1432 18.4429 34.9956 18.4242 33.8333V28.2283C18.4524 26.687 18.1319 25.1592 17.4866 23.7591C16.8412 22.3591 15.8878 21.123 14.6975 20.1433C10.5908 16.86 7.75749 10.5833 6.78749 5.81667C6.73767 5.58134 6.74177 5.33779 6.7995 5.10427C6.85723 4.87076 6.96708 4.65335 7.12082 4.46834C7.28261 4.26876 7.48717 4.10808 7.7194 3.99817C7.95162 3.88826 8.20557 3.83193 8.46249 3.83334H31.7192C31.9747 3.83317 32.227 3.89011 32.4577 3.99997C32.6884 4.10983 32.8916 4.26986 33.0525 4.46834C33.2058 4.65359 33.3154 4.87102 33.3731 5.10445C33.4308 5.33788 33.4351 5.58133 33.3858 5.81667C32.4092 10.5833 29.5825 16.86 25.4742 20.15C24.2868 21.1301 23.3359 22.3656 22.6923 23.7643C22.0488 25.163 21.7293 26.6889 21.7575 28.2283Z" fill="#D0E2FF"/>
</g>
</svg>
