<svg width="18" height="20" viewBox="0 0 18 20" fill="none" xmlns="http://www.w3.org/2000/svg">
<path d="M14.7145 20H3.28592C2.45238 20 1.65299 19.6689 1.06359 19.0794C0.474186 18.4901 0.143066 17.6906 0.143066 16.8571V3.14286C0.143066 2.30931 0.474186 1.50992 1.06359 0.920526C1.65299 0.33112 2.45238 0 3.28592 0H11.8574C12.0846 0.000205714 12.3025 0.09064 12.4631 0.251429L17.6059 5.42857C17.7667 5.58917 17.8571 5.80703 17.8574 6.03429V16.8571C17.8574 17.6906 17.5263 18.4901 16.9368 19.0794C16.3474 19.6689 15.548 20 14.7145 20ZM3.28592 1.71429C2.90704 1.71429 2.54368 1.8648 2.27577 2.13271C2.00787 2.40062 1.85735 2.76398 1.85735 3.14286V16.8571C1.85735 17.236 2.00787 17.5994 2.27577 17.8673C2.54368 18.1352 2.90704 18.2857 3.28592 18.2857H14.7145C15.0934 18.2857 15.4568 18.1352 15.7247 17.8673C15.9926 17.5994 16.1431 17.236 16.1431 16.8571V6.35429L11.5031 1.71429H3.28592Z" fill="white"/>
<path d="M14.4289 19.1433H12.7146V12.0004H5.28606V19.1433H3.57178V11.7147C3.57178 11.3358 3.72229 10.9724 3.9902 10.7045C4.25811 10.4366 4.62147 10.2861 5.00035 10.2861H13.0003C13.3792 10.2861 13.7426 10.4366 14.0105 10.7045C14.2784 10.9724 14.4289 11.3358 14.4289 11.7147V19.1433Z" fill="white"/>
<path d="M9.53752 6.28599H5.03468C4.84107 6.2845 4.64965 6.24488 4.47135 6.16941C4.29306 6.09394 4.13138 5.98407 3.99554 5.84612C3.8597 5.70815 3.75236 5.54478 3.67966 5.36534C3.60695 5.18589 3.57031 4.99389 3.57182 4.80028V0.857422H5.28611V4.57171H9.2861V0.857422H11.0004V4.80028C11.0019 4.99389 10.9653 5.18589 10.8926 5.36534C10.8198 5.54478 10.7125 5.70815 10.5767 5.84612C10.4408 5.98407 10.2791 6.09394 10.1008 6.16941C9.92255 6.24488 9.73112 6.2845 9.53752 6.28599Z" fill="white"/>
</svg>
