<svg width="12" height="16" viewBox="0 0 12 16" fill="none" xmlns="http://www.w3.org/2000/svg">
<path d="M5.99999 7.99967C8.2059 7.99967 9.99983 6.20574 9.99983 3.99983C9.99983 1.79393 8.2059 0 5.99999 0C3.79409 0 2.00016 1.79393 2.00016 3.99983C2.00016 6.20574 3.79409 7.99967 5.99999 7.99967ZM5.99999 1.33328C7.4706 1.33328 8.66655 2.52923 8.66655 3.99983C8.66655 5.47044 7.4706 6.66639 5.99999 6.66639C4.52939 6.66639 3.33344 5.47044 3.33344 3.99983C3.33344 2.52923 4.52939 1.33328 5.99999 1.33328ZM11.9997 15.3327C11.9997 15.7007 11.7018 15.9993 11.3331 15.9993C10.9645 15.9993 10.6665 15.7007 10.6665 15.3327C10.6665 13.3201 9.38319 11.6062 7.59393 10.9529L6.58264 12.4701L7.31127 15.13C7.43327 15.574 7.04128 16 6.51064 16H5.48935C4.9587 16 4.56739 15.574 4.68872 15.13L5.41735 12.4701L4.40606 10.9529C2.6168 11.6062 1.33352 13.3201 1.33352 15.3334C1.33352 15.7013 1.03487 16 0.666883 16C0.298898 16 0.000244141 15.7013 0.000244141 15.3334C0.000244141 12.0255 2.69213 9.33361 5.99999 9.33361C9.30786 9.33361 11.9997 12.0248 11.9997 15.3327Z" fill="#3C3D48"/>
</svg>
