<svg width="22" height="19" viewBox="0 0 22 19" fill="none" xmlns="http://www.w3.org/2000/svg">
<path id="Vector" d="M1 5.05599H14.3333M14.3333 5.05599C14.3333 6.89694 15.8257 8.38932 17.6667 8.38932C19.5077 8.38932 21 6.89693 21 5.05599C21 3.21505 19.5077 1.72266 17.6667 1.72266C15.8257 1.72266 14.3333 3.21505 14.3333 5.05599ZM7.66667 13.9449H21M7.66667 13.9449C7.66667 15.7859 6.17428 17.2782 4.33333 17.2782C2.49239 17.2782 1 15.7859 1 13.9449C1 12.1039 2.49239 10.6115 4.33333 10.6115C6.17428 10.6115 7.66667 12.1039 7.66667 13.9449Z" stroke="white" stroke-width="2" stroke-linecap="round" stroke-linejoin="round"/>
</svg>
