<svg width="14" height="14" viewBox="0 0 14 14" fill="none" xmlns="http://www.w3.org/2000/svg">
<path d="M6.3324 3.35379L9.55299 2.75395C9.85847 3.34694 10.5051 3.76311 11.2398 3.76311C12.2617 3.76312 13.1133 2.95785 13.1133 1.99154C13.1133 1.02521 12.2617 0.219971 11.2397 0.219971C10.3303 0.219971 9.55583 0.85767 9.39629 1.67908L6.11623 2.29C5.75422 1.57346 4.98333 1.0849 4.0791 1.0849C2.82123 1.0849 1.82139 2.03033 1.82139 3.21973C1.82139 4.40913 2.82125 5.35456 4.0791 5.35456C4.42022 5.35456 4.74229 5.2849 5.03067 5.15983L7.42886 7.42751C6.97145 7.89055 6.69163 8.51254 6.69163 9.19727C6.69163 9.27274 6.69523 9.3474 6.70189 9.42122L3.37142 10.4401C3.03541 10.0349 2.51413 9.77103 1.937 9.77103C0.942243 9.77103 0.113281 10.5549 0.113281 11.4955C0.113281 12.4361 0.942243 13.22 1.937 13.22C2.93179 13.22 3.76075 12.4361 3.76075 11.4955C3.76075 11.4835 3.76052 11.4716 3.76027 11.4597L7.03622 10.4575C7.50409 11.2525 8.40129 11.7896 9.43317 11.7896C10.9491 11.7896 12.1747 10.6307 12.1747 9.19729C12.1747 7.76391 10.9491 6.60498 9.43317 6.60498C9.06208 6.60498 8.70849 6.67459 8.38591 6.8005L5.91807 4.46698C6.15672 4.15107 6.30585 3.76951 6.3324 3.35379ZM1.937 12.191C1.52515 12.191 1.2015 11.885 1.2015 11.4955C1.2015 11.1061 1.52515 10.8 1.937 10.8C2.34893 10.8 2.67254 11.1061 2.67254 11.4955C2.67254 11.885 2.34892 12.191 1.937 12.191ZM11.2397 1.26195C11.6718 1.26195 12.0113 1.58297 12.0113 1.99156C12.0113 2.40014 11.6718 2.72114 11.2397 2.72114C10.8076 2.72114 10.4681 2.40013 10.4681 1.99156C10.4681 1.58299 10.8076 1.26195 11.2397 1.26195ZM2.92533 3.21975C2.92533 2.61972 3.44455 2.12878 4.0791 2.12878C4.71367 2.12878 5.23286 2.61972 5.23286 3.21975C5.23286 3.81977 4.71367 4.31071 4.0791 4.31071C3.44457 4.31071 2.92533 3.81977 2.92533 3.21975ZM10.9885 9.1973C10.9885 9.9995 10.2815 10.668 9.43314 10.668C8.58475 10.668 7.87777 9.9995 7.87777 9.1973C7.87777 8.39512 8.58475 7.72661 9.43314 7.72661C10.2815 7.72661 10.9885 8.39511 10.9885 9.1973Z" fill="#30313D"/>
</svg>
