<svg width="15" height="15" viewBox="0 0 15 15" fill="none" xmlns="http://www.w3.org/2000/svg">
<path d="M14.0151 5.40505C13.8958 5.01267 13.6573 4.67038 13.3351 4.4288C13.0128 4.18721 12.6239 4.05916 12.2257 4.06358H9.67667L8.90244 1.57108C8.78069 1.17874 8.54145 0.836482 8.21922 0.593651C7.89698 0.350821 7.50841 0.219971 7.10953 0.219971C6.71066 0.219971 6.32208 0.350821 5.99985 0.593651C5.67762 0.836482 5.43838 1.17874 5.31663 1.57108L4.5424 4.06358H1.99336C1.59647 4.06417 1.20991 4.19428 0.888896 4.43535C0.567881 4.67642 0.32883 5.0161 0.205888 5.40588C0.0829459 5.79567 0.0824017 6.21561 0.204333 6.60573C0.326264 6.99585 0.564434 7.33619 0.884823 7.57815L2.95953 9.145L2.17072 11.6682C2.04325 12.0596 2.04163 12.483 2.16612 12.8754C2.2906 13.2677 2.53452 13.608 2.86151 13.8455C3.1829 14.0907 3.57237 14.222 3.97189 14.2199C4.37141 14.2179 4.75958 14.0825 5.07858 13.8341L7.10953 12.2901L9.14107 13.8323C9.46188 14.076 9.84924 14.2084 10.2475 14.2104C10.6457 14.2124 11.0343 14.0839 11.3574 13.8434C11.6805 13.6029 11.9214 13.2628 12.0456 12.872C12.1697 12.4811 12.1707 12.0597 12.0483 11.6682L11.2595 9.145L13.3366 7.57815C13.6606 7.33923 13.9016 6.99889 14.0238 6.60751C14.146 6.21613 14.143 5.7945 14.0151 5.40505ZM12.6481 6.60489L10.2304 8.43027C10.131 8.5051 10.0572 8.61041 10.0192 8.73119C9.9813 8.85196 9.98127 8.98202 10.0191 9.10281L10.9381 12.0376C10.9846 12.1865 10.9842 12.3467 10.9369 12.4954C10.8897 12.644 10.7981 12.7733 10.6752 12.8647C10.5523 12.9561 10.4045 13.0049 10.2531 13.0041C10.1017 13.0033 9.9544 12.9529 9.83244 12.8602L7.45493 11.0523C7.35479 10.9764 7.23379 10.9354 7.10953 10.9354C6.98528 10.9354 6.86428 10.9764 6.76414 11.0523L4.38662 12.8602C4.26473 12.9542 4.11704 13.0056 3.96495 13.007C3.81287 13.0085 3.66429 12.9598 3.54077 12.8682C3.41725 12.7765 3.3252 12.6466 3.27797 12.4973C3.23074 12.3479 3.23078 12.1869 3.27809 12.0376L4.19992 9.10281C4.2378 8.98202 4.23777 8.85196 4.19984 8.73119C4.16192 8.61041 4.08803 8.5051 3.98872 8.43027L1.57095 6.60489C1.44919 6.51281 1.35871 6.38333 1.31245 6.23496C1.26619 6.08659 1.2665 5.92691 1.31335 5.77874C1.3602 5.63056 1.45118 5.50147 1.57331 5.4099C1.69543 5.31833 1.84245 5.26896 1.99336 5.26885H4.9689C5.09242 5.26885 5.21275 5.22835 5.31257 5.15319C5.41239 5.07803 5.48653 4.97209 5.52433 4.85062L6.42866 1.93929C6.47508 1.79031 6.56607 1.66039 6.68853 1.56822C6.81098 1.47605 6.9586 1.4264 7.11012 1.4264C7.26164 1.4264 7.40925 1.47605 7.53171 1.56822C7.65417 1.66039 7.74515 1.79031 7.79157 1.93929L8.6959 4.85062C8.7337 4.97209 8.80785 5.07803 8.90767 5.15319C9.00748 5.22835 9.12782 5.26885 9.25134 5.26885H12.2269C12.3778 5.26896 12.5248 5.31833 12.6469 5.4099C12.7691 5.50147 12.86 5.63056 12.9069 5.77874C12.9537 5.92691 12.954 6.08659 12.9078 6.23496C12.8615 6.38333 12.7711 6.51281 12.6493 6.60489H12.6481Z" fill="#30313D"/>
</svg>
