<svg width="11" height="11" viewBox="0 0 11 11" fill="none" xmlns="http://www.w3.org/2000/svg">
<g id="Target Icon Container">
<path id="Vector" d="M5.06226 10.5056C3.20268 10.5351 1.16655 8.89814 0.636924 6.67828C0.0719882 4.28178 1.29602 1.84406 3.55576 0.896056C4.45613 0.525099 5.39769 0.395558 6.36867 0.572205C6.60995 0.613422 6.77472 0.81951 6.73941 1.04326C6.7041 1.27879 6.50402 1.41422 6.25098 1.37889C5.1623 1.21402 4.14424 1.39067 3.22033 2.00304C2.13754 2.72729 1.47256 3.74006 1.34898 5.04136C1.19009 6.64295 1.77857 7.94425 3.06733 8.90403C3.93238 9.53995 4.91514 9.79315 5.98616 9.65183C7.54562 9.44574 8.65195 8.60373 9.32282 7.19056C9.64059 6.51341 9.75829 5.78916 9.65825 5.03547C9.64648 4.92359 9.62294 4.81761 9.62294 4.70573C9.61117 4.45254 9.77006 4.28178 10.0172 4.26411C10.2114 4.25234 10.3938 4.41721 10.4233 4.63507C10.6881 6.43098 10.182 7.9678 8.84615 9.20432C7.90459 10.0758 6.76884 10.4997 5.05637 10.5056H5.06226Z" fill="#656565"/>
<path id="Vector_2" d="M5.77485 8.82779C4.03885 8.81602 2.7854 7.89746 2.33228 6.50195C1.78499 4.81203 2.72067 2.95136 4.39782 2.37431C4.89803 2.19767 5.41 2.1329 5.93963 2.20944C6.21033 2.24477 6.36333 2.43319 6.32802 2.67461C6.2986 2.90425 6.06909 3.03379 5.81605 3.00435C5.01572 2.91014 4.31544 3.15744 3.74462 3.71094C2.46762 4.94746 2.89721 7.14376 4.53317 7.8268C6.18679 8.51572 8.01694 7.30275 8.02871 5.51273C8.02871 5.38319 8.01694 5.25365 8.01694 5.12411C8.01106 4.88269 8.14641 4.70604 8.36414 4.68249C8.57011 4.65894 8.77608 4.80614 8.8055 5.03578C8.90554 5.78359 8.79373 6.49606 8.40534 7.14965C7.75213 8.25075 6.77526 8.79246 5.78074 8.83368L5.77485 8.82779Z" fill="#656565"/>
<path id="Vector_3" d="M7.61217 2.24466C7.50625 1.75594 7.71221 1.40264 8.07707 1.10234C8.24773 0.961027 8.39485 0.790269 8.54785 0.637175C8.6832 0.507635 8.8362 0.460529 9.01274 0.542964C9.1834 0.619511 9.24813 0.760828 9.24813 0.937474C9.24813 1.15534 9.24813 1.36731 9.24813 1.58518C9.24813 1.70883 9.28933 1.76182 9.41879 1.75594C9.61887 1.75005 9.82484 1.75594 10.0249 1.75594C10.225 1.75594 10.3898 1.82659 10.4663 2.01502C10.5428 2.19755 10.478 2.36242 10.3427 2.49785C10.0897 2.75104 9.84249 3.01601 9.5718 3.25154C9.47176 3.33986 9.31875 3.38697 9.18929 3.39875C8.91859 3.4223 8.64201 3.39875 8.37131 3.41052C8.2595 3.41641 8.13003 3.46941 8.04765 3.54595C7.45329 4.12889 6.86481 4.7236 6.27634 5.31242C6.15864 5.43018 6.01741 5.54795 5.84675 5.47729C5.72905 5.43018 5.60547 5.32419 5.54074 5.21232C5.45836 5.06511 5.52309 4.91202 5.64667 4.78837C6.14687 4.29376 6.64708 3.79326 7.14139 3.29865C7.15316 3.28687 7.17082 3.26921 7.18259 3.25743C7.51213 2.99835 7.7181 2.69216 7.6004 2.25055L7.61217 2.24466Z" fill="#656565"/>
<path id="Vector_4" d="M3.86135 5.56615C3.84958 5.05388 4.01436 4.67114 4.33213 4.34729C4.5381 4.14121 4.77349 4.11765 4.95592 4.28252C5.13246 4.44739 5.12069 4.68292 4.92061 4.90667C4.50868 5.37184 4.6146 6.01366 5.14423 6.27274C5.43258 6.41406 5.81509 6.35517 6.07402 6.13731C6.16229 6.06665 6.26233 5.9901 6.36826 5.96066C6.5448 5.90767 6.69192 5.98422 6.78019 6.1432C6.86846 6.30218 6.86846 6.46705 6.73311 6.61425C6.28587 7.10298 5.50908 7.2914 4.90295 7.06176C4.27329 6.82034 3.85547 6.20797 3.85547 5.56615H3.86135Z" fill="#656565"/>
</g>
</svg>
