<svg width="16" height="16" viewBox="0 0 16 16" fill="none" xmlns="http://www.w3.org/2000/svg">
<path id="Vector" d="M9.02999 7.99968C9.02999 9.37837 10.1536 10.4996 11.5353 10.4996C12.9169 10.4996 14.0406 9.37837 14.0406 7.99968C14.0406 6.62099 12.9169 5.49978 11.5353 5.49978C10.1536 5.49978 9.02999 6.62099 9.02999 7.99968ZM11.5353 6.74973C12.2261 6.74973 12.7879 7.31033 12.7879 7.99968C12.7879 8.68902 12.2261 9.24962 11.5353 9.24962C10.8444 9.24962 10.2826 8.68902 10.2826 7.99968C10.2826 7.31033 10.8444 6.74973 11.5353 6.74973ZM8.09051 5.49978C9.47217 5.49978 10.5958 4.37858 10.5958 2.99989C10.5958 1.6212 9.47217 0.5 8.09051 0.5C6.70884 0.5 5.58522 1.6212 5.58522 2.99989C5.58522 4.37858 6.70884 5.49978 8.09051 5.49978ZM8.09051 1.74995C8.78134 1.74995 9.34315 2.31055 9.34315 2.99989C9.34315 3.68924 8.78134 4.24984 8.09051 4.24984C7.39967 4.24984 6.83786 3.68924 6.83786 2.99989C6.83786 2.31055 7.39967 1.74995 8.09051 1.74995ZM4.64573 10.4996C6.0274 10.4996 7.15102 9.37837 7.15102 7.99968C7.15102 6.62099 6.0274 5.49978 4.64573 5.49978C3.26407 5.49978 2.14044 6.62099 2.14044 7.99968C2.14044 9.37837 3.26407 10.4996 4.64573 10.4996ZM4.64573 6.74973C5.33657 6.74973 5.89838 7.31033 5.89838 7.99968C5.89838 8.68902 5.33657 9.24962 4.64573 9.24962C3.9549 9.24962 3.39309 8.68902 3.39309 7.99968C3.39309 7.31033 3.9549 6.74973 4.64573 6.74973ZM15.5882 14.8181C15.6195 15.1619 15.3652 15.4656 15.0208 15.4969C15.002 15.4981 14.9826 15.4994 14.9638 15.4994C14.6431 15.4994 14.37 15.255 14.3406 14.9306C14.2717 14.1688 13.879 13.4588 13.2627 12.982C13.247 12.9695 13.1957 12.9751 13.1625 13.0126L12.0094 14.3457C11.891 14.4831 11.7056 14.5888 11.5353 14.5625C11.3549 14.5625 11.1833 14.485 11.0643 14.35L9.89619 13.0213C9.86425 12.9845 9.81289 12.9776 9.79598 12.9913C9.17843 13.4751 8.7995 14.1638 8.73061 14.9313C8.70368 15.2287 8.47194 15.4437 8.18383 15.4819C8.16567 15.485 8.15001 15.4956 8.13122 15.4975C8.1118 15.4987 8.09301 15.5 8.07422 15.5C8.06796 15.5 8.06295 15.4969 8.05731 15.4969C8.05481 15.4969 8.05293 15.4981 8.05042 15.4975C8.04353 15.4975 8.0379 15.4925 8.03101 15.4919C7.72975 15.4706 7.47859 15.2406 7.45103 14.9313C7.38151 14.1582 6.99883 13.4663 6.37376 12.9826C6.35559 12.9695 6.30486 12.9757 6.27355 13.0132L5.12049 14.3463C5.00149 14.4844 4.82737 14.5644 4.64636 14.5631C4.46598 14.5631 4.29437 14.4856 4.17537 14.35L3.00728 13.0213C2.97471 12.9851 2.92335 12.9782 2.90706 12.992C2.28888 13.4757 1.90996 14.1644 1.84106 14.9319C1.81037 15.2756 1.51036 15.5244 1.16088 15.4981C0.8164 15.4669 0.562113 15.1631 0.593429 14.8194C0.692388 13.7213 1.2542 12.697 2.13418 12.0076C2.68284 11.5789 3.47952 11.6626 3.94864 12.197L4.64198 12.9857L5.32467 12.1964C5.79128 11.6558 6.58921 11.567 7.141 11.9951C7.52181 12.2895 7.83935 12.6495 8.09051 13.0482C8.33853 12.6551 8.64981 12.3001 9.0231 12.0076C9.57051 11.5795 10.3684 11.662 10.8376 12.1976L11.5309 12.9857L12.2136 12.1964C12.6802 11.6558 13.4788 11.5683 14.0293 11.9945C14.9193 12.6832 15.4867 13.7126 15.587 14.8188L15.5882 14.8181Z" fill="white"/>
</svg>
