<svg width="42" height="42" viewBox="0 0 42 42" fill="none" xmlns="http://www.w3.org/2000/svg">
<circle cx="21" cy="21" r="20.5" fill="#2580D3" stroke="#CBD5E1"/>
<path d="M22.2522 20.9996C22.2522 22.8378 23.7504 24.3328 25.5926 24.3328C27.4348 24.3328 28.933 22.8378 28.933 20.9996C28.933 19.1613 27.4348 17.6664 25.5926 17.6664C23.7504 17.6664 22.2522 19.1613 22.2522 20.9996ZM25.5926 19.333C26.5137 19.333 27.2628 20.0804 27.2628 20.9996C27.2628 21.9187 26.5137 22.6662 25.5926 22.6662C24.6715 22.6662 23.9224 21.9187 23.9224 20.9996C23.9224 20.0804 24.6715 19.333 25.5926 19.333ZM20.9996 17.6664C22.8418 17.6664 24.34 16.1714 24.34 14.3332C24.34 12.4949 22.8418 11 20.9996 11C19.1574 11 17.6592 12.4949 17.6592 14.3332C17.6592 16.1714 19.1574 17.6664 20.9996 17.6664ZM20.9996 12.6666C21.9207 12.6666 22.6698 13.4141 22.6698 14.3332C22.6698 15.2523 21.9207 15.9998 20.9996 15.9998C20.0785 15.9998 19.3294 15.2523 19.3294 14.3332C19.3294 13.4141 20.0785 12.6666 20.9996 12.6666ZM16.4066 24.3328C18.2488 24.3328 19.7469 22.8378 19.7469 20.9996C19.7469 19.1613 18.2488 17.6664 16.4066 17.6664C14.5643 17.6664 13.0662 19.1613 13.0662 20.9996C13.0662 22.8378 14.5643 24.3328 16.4066 24.3328ZM16.4066 19.333C17.3277 19.333 18.0767 20.0804 18.0767 20.9996C18.0767 21.9187 17.3277 22.6662 16.4066 22.6662C15.4854 22.6662 14.7364 21.9187 14.7364 20.9996C14.7364 20.0804 15.4854 19.333 16.4066 19.333ZM30.9965 30.0908C31.0383 30.5492 30.6992 30.9541 30.2399 30.9958C30.2149 30.9975 30.189 30.9991 30.1639 30.9991C29.7364 30.9991 29.3723 30.6733 29.333 30.2408C29.2412 29.225 28.7175 28.2784 27.8958 27.6426C27.8749 27.6259 27.8065 27.6334 27.7622 27.6834L26.2248 29.4609C26.0669 29.6442 25.8198 29.785 25.5926 29.75C25.3521 29.75 25.1233 29.6467 24.9646 29.4667L23.4072 27.6951C23.3646 27.6459 23.2961 27.6368 23.2736 27.6551C22.4501 28.3001 21.9449 29.2184 21.8531 30.2417C21.8171 30.6383 21.5082 30.925 21.124 30.9758C21.0998 30.98 21.0789 30.9941 21.0539 30.9966C21.028 30.9983 21.0029 31 20.9779 31C20.9695 31 20.9628 30.9958 20.9553 30.9958C20.952 30.9958 20.9495 30.9975 20.9461 30.9966C20.937 30.9966 20.9294 30.99 20.9202 30.9891C20.5186 30.9608 20.1837 30.6542 20.1469 30.2417C20.0543 29.2109 19.544 28.2884 18.7106 27.6434C18.6864 27.6259 18.6187 27.6343 18.577 27.6843L17.0396 29.4617C16.8809 29.6459 16.6487 29.7525 16.4074 29.7509C16.1669 29.7509 15.9381 29.6475 15.7794 29.4667L14.2219 27.6951C14.1785 27.6468 14.11 27.6376 14.0883 27.6559C13.2641 28.3009 12.7589 29.2192 12.667 30.2425C12.6261 30.7008 12.2261 31.0325 11.7601 30.9975C11.3008 30.9558 10.9617 30.5508 11.0035 30.0925C11.1354 28.6284 11.8845 27.2626 13.0578 26.3435C13.7894 25.7719 14.8516 25.8835 15.4771 26.596L16.4015 27.6476L17.3118 26.5952C17.9339 25.8744 18.9979 25.756 19.7336 26.3268C20.2413 26.7193 20.6647 27.1993 20.9996 27.7309C21.3303 27.2068 21.7453 26.7335 22.243 26.3435C22.9729 25.7727 24.0368 25.8827 24.6623 26.5968L25.5868 27.6476L26.497 26.5952C27.1192 25.8744 28.1839 25.7577 28.918 26.326C30.1046 27.2443 30.8612 28.6167 30.9949 30.0917L30.9965 30.0908Z" fill="white"/>
</svg>
