<svg width="16" height="16" viewBox="0 0 16 16" fill="none" xmlns="http://www.w3.org/2000/svg">
<path id="Team Icon" d="M9.00178 7.99965C9.00178 9.47026 10.2003 10.6662 11.6741 10.6662C13.1479 10.6662 14.3464 9.47026 14.3464 7.99965C14.3464 6.52905 13.1479 5.3331 11.6741 5.3331C10.2003 5.3331 9.00178 6.52905 9.00178 7.99965ZM11.6741 6.66638C12.411 6.66638 13.0102 7.26435 13.0102 7.99965C13.0102 8.73496 12.411 9.33293 11.6741 9.33293C10.9372 9.33293 10.3379 8.73496 10.3379 7.99965C10.3379 7.26435 10.9372 6.66638 11.6741 6.66638ZM7.99967 5.3331C9.47344 5.3331 10.672 4.13715 10.672 2.66655C10.672 1.19595 9.47344 0 7.99967 0C6.52589 0 5.32736 1.19595 5.32736 2.66655C5.32736 4.13715 6.52589 5.3331 7.99967 5.3331ZM7.99967 1.33328C8.73656 1.33328 9.33582 1.93125 9.33582 2.66655C9.33582 3.40185 8.73656 3.99983 7.99967 3.99983C7.26278 3.99983 6.66351 3.40185 6.66351 2.66655C6.66351 1.93125 7.26278 1.33328 7.99967 1.33328ZM4.32524 10.6662C5.79902 10.6662 6.99755 9.47026 6.99755 7.99965C6.99755 6.52905 5.79902 5.3331 4.32524 5.3331C2.85146 5.3331 1.65293 6.52905 1.65293 7.99965C1.65293 9.47026 2.85146 10.6662 4.32524 10.6662ZM4.32524 6.66638C5.06213 6.66638 5.6614 7.26435 5.6614 7.99965C5.6614 8.73496 5.06213 9.33293 4.32524 9.33293C3.58835 9.33293 2.98909 8.73496 2.98909 7.99965C2.98909 7.26435 3.58835 6.66638 4.32524 6.66638ZM15.9972 15.2727C16.0306 15.6393 15.7594 15.9633 15.3919 15.9966C15.3719 15.998 15.3512 15.9993 15.3311 15.9993C14.9891 15.9993 14.6978 15.7387 14.6664 15.3927C14.5929 14.58 14.174 13.8227 13.5166 13.3141C13.4999 13.3008 13.4452 13.3068 13.4098 13.3468L12.1798 14.7687C12.0536 14.9154 11.8558 15.028 11.6741 15C11.4817 15 11.2986 14.9174 11.1717 14.7734L9.92573 13.3561C9.89166 13.3168 9.83688 13.3094 9.81884 13.3241C9.16012 13.8401 8.75593 14.5747 8.68244 15.3933C8.65371 15.7107 8.40653 15.94 8.09921 15.9806C8.07984 15.984 8.06313 15.9953 8.04309 15.9973C8.02238 15.9986 8.00234 16 7.9823 16C7.97562 16 7.97027 15.9966 7.96426 15.9966C7.96159 15.9966 7.95958 15.998 7.95691 15.9973C7.94956 15.9973 7.94355 15.992 7.9362 15.9913C7.61485 15.9686 7.34695 15.7233 7.31756 15.3933C7.2434 14.5687 6.83521 13.8307 6.16847 13.3148C6.14909 13.3008 6.09498 13.3074 6.06157 13.3474L4.83164 14.7694C4.70471 14.9167 4.51898 15.002 4.32591 15.0007C4.1335 15.0007 3.95045 14.918 3.82352 14.7734L2.57755 13.3561C2.54281 13.3174 2.48803 13.3101 2.47066 13.3248C1.81127 13.8407 1.40708 14.5754 1.33359 15.394C1.30086 15.7607 0.980847 16.026 0.60806 15.998C0.240618 15.9646 -0.0306215 15.6407 0.00278238 15.274C0.108339 14.1027 0.707604 13.0101 1.64625 12.2748C2.23149 11.8175 3.08128 11.9068 3.58167 12.4768L4.32123 13.3181L5.04944 12.4761C5.54715 11.8995 6.39829 11.8048 6.98686 12.2615C7.39305 12.5755 7.73177 12.9594 7.99967 13.3848C8.26423 12.9654 8.59626 12.5868 8.99443 12.2748C9.57833 11.8182 10.4295 11.9062 10.9299 12.4775L11.6694 13.3181L12.3976 12.4761C12.8953 11.8995 13.7471 11.8062 14.3344 12.2608C15.2837 12.9954 15.889 14.0934 15.9959 15.2733L15.9972 15.2727Z" fill="#2F42ED"/>
</svg>
