<svg width="14" height="15" viewBox="0 0 14 15" fill="none" xmlns="http://www.w3.org/2000/svg">
<path d="M7.87656 7.4997C7.87656 8.78648 8.92527 9.83293 10.2148 9.83293C11.5044 9.83293 12.5531 8.78648 12.5531 7.4997C12.5531 6.21292 11.5044 5.16646 10.2148 5.16646C8.92527 5.16646 7.87656 6.21292 7.87656 7.4997ZM10.2148 6.33308C10.8596 6.33308 11.384 6.85631 11.384 7.4997C11.384 8.14309 10.8596 8.66631 10.2148 8.66631C9.57005 8.66631 9.04569 8.14309 9.04569 7.4997C9.04569 6.85631 9.57005 6.33308 10.2148 6.33308ZM6.99971 5.16646C8.28926 5.16646 9.33798 4.12001 9.33798 2.83323C9.33798 1.54645 8.28926 0.5 6.99971 0.5C5.71015 0.5 4.66144 1.54645 4.66144 2.83323C4.66144 4.12001 5.71015 5.16646 6.99971 5.16646ZM6.99971 1.66662C7.64449 1.66662 8.16884 2.18984 8.16884 2.83323C8.16884 3.47662 7.64449 3.99985 6.99971 3.99985C6.35493 3.99985 5.83057 3.47662 5.83057 2.83323C5.83057 2.18984 6.35493 1.66662 6.99971 1.66662ZM3.78459 9.83293C5.07414 9.83293 6.12286 8.78648 6.12286 7.4997C6.12286 6.21292 5.07414 5.16646 3.78459 5.16646C2.49503 5.16646 1.44632 6.21292 1.44632 7.4997C1.44632 8.78648 2.49503 9.83293 3.78459 9.83293ZM3.78459 6.33308C4.42936 6.33308 4.95372 6.85631 4.95372 7.4997C4.95372 8.14309 4.42936 8.66631 3.78459 8.66631C3.13981 8.66631 2.61545 8.14309 2.61545 7.4997C2.61545 6.85631 3.13981 6.33308 3.78459 6.33308ZM13.9976 13.8636C14.0268 14.1844 13.7895 14.4679 13.4679 14.4971C13.4504 14.4982 13.4323 14.4994 13.4148 14.4994C13.1155 14.4994 12.8606 14.2713 12.8331 13.9686C12.7688 13.2575 12.4023 12.5949 11.8271 12.1498C11.8125 12.1382 11.7645 12.1434 11.7335 12.1784L10.6573 13.4226C10.5469 13.5509 10.3738 13.6495 10.2148 13.625C10.0465 13.625 9.8863 13.5527 9.77523 13.4267L8.68502 12.1866C8.6552 12.1522 8.60727 12.1457 8.59149 12.1586C8.0151 12.6101 7.66144 13.2529 7.59714 13.9692C7.572 14.2468 7.35571 14.4475 7.08681 14.4831C7.06986 14.486 7.05524 14.4959 7.0377 14.4976C7.01958 14.4988 7.00205 14.5 6.98451 14.5C6.97866 14.5 6.97399 14.4971 6.96873 14.4971C6.96639 14.4971 6.96463 14.4982 6.9623 14.4976C6.95587 14.4976 6.9506 14.493 6.94417 14.4924C6.663 14.4726 6.42859 14.2579 6.40286 13.9692C6.33798 13.2476 5.98081 12.6019 5.39741 12.1504C5.38046 12.1382 5.33311 12.144 5.30388 12.179L4.22769 13.4232C4.11662 13.5521 3.95411 13.6268 3.78517 13.6256C3.61682 13.6256 3.45664 13.5533 3.34558 13.4267L2.25536 12.1866C2.22496 12.1527 2.17703 12.1463 2.16183 12.1592C1.58486 12.6106 1.2312 13.2534 1.16689 13.9698C1.13825 14.2906 0.858241 14.5227 0.532053 14.4982C0.210541 14.4691 -0.0267938 14.1856 0.00243458 13.8648C0.0947963 12.8399 0.619153 11.8838 1.44047 11.2405C1.95255 10.8403 2.69612 10.9185 3.13396 11.4172L3.78108 12.1533L4.41826 11.4166C4.85376 10.9121 5.5985 10.8292 6.1135 11.2288C6.46892 11.5035 6.7653 11.8395 6.99971 12.2117C7.2312 11.8448 7.52173 11.5134 7.87013 11.2405C8.38104 10.8409 9.12578 10.9179 9.56362 11.4178L10.2107 12.1533L10.8479 11.4166C11.2834 10.9121 12.0287 10.8304 12.5426 11.2282C13.3732 11.871 13.9029 12.8317 13.9964 13.8642L13.9976 13.8636Z" fill="#30313D"/>
</svg>
