<svg width="17" height="16" viewBox="0 0 17 16" fill="none" xmlns="http://www.w3.org/2000/svg">
<path id="Team Icon" d="M9.2353 7.99965C9.2353 9.47026 10.4441 10.6662 11.9305 10.6662C13.417 10.6662 14.6258 9.47026 14.6258 7.99965C14.6258 6.52905 13.417 5.3331 11.9305 5.3331C10.4441 5.3331 9.2353 6.52905 9.2353 7.99965ZM11.9305 6.66638C12.6738 6.66638 13.2782 7.26435 13.2782 7.99965C13.2782 8.73496 12.6738 9.33293 11.9305 9.33293C11.1873 9.33293 10.5829 8.73496 10.5829 7.99965C10.5829 7.26435 11.1873 6.66638 11.9305 6.66638ZM8.22458 5.3331C9.71101 5.3331 10.9198 4.13715 10.9198 2.66655C10.9198 1.19595 9.71101 0 8.22458 0C6.73815 0 5.52934 1.19595 5.52934 2.66655C5.52934 4.13715 6.73815 5.3331 8.22458 5.3331ZM8.22458 1.33328C8.9678 1.33328 9.57221 1.93125 9.57221 2.66655C9.57221 3.40185 8.9678 3.99983 8.22458 3.99983C7.48137 3.99983 6.87696 3.40185 6.87696 2.66655C6.87696 1.93125 7.48137 1.33328 8.22458 1.33328ZM4.51862 10.6662C6.00505 10.6662 7.21387 9.47026 7.21387 7.99965C7.21387 6.52905 6.00505 5.3331 4.51862 5.3331C3.03219 5.3331 1.82337 6.52905 1.82337 7.99965C1.82337 9.47026 3.03219 10.6662 4.51862 10.6662ZM4.51862 6.66638C5.26183 6.66638 5.86624 7.26435 5.86624 7.99965C5.86624 8.73496 5.26183 9.33293 4.51862 9.33293C3.7754 9.33293 3.17099 8.73496 3.17099 7.99965C3.17099 7.26435 3.7754 6.66638 4.51862 6.66638ZM16.2908 15.2727C16.3245 15.6393 16.0509 15.9633 15.6803 15.9966C15.6601 15.998 15.6392 15.9993 15.619 15.9993C15.274 15.9993 14.9802 15.7387 14.9486 15.3927C14.8744 14.58 14.452 13.8227 13.7889 13.3141C13.7721 13.3008 13.7168 13.3068 13.6811 13.3468L12.4406 14.7687C12.3133 14.9154 12.1138 15.028 11.9305 15C11.7365 15 11.5519 14.9174 11.4238 14.7734L10.1672 13.3561C10.1328 13.3168 10.0776 13.3094 10.0594 13.3241C9.39499 13.8401 8.98734 14.5747 8.91322 15.3933C8.88424 15.7107 8.63493 15.94 8.32498 15.9806C8.30544 15.984 8.28859 15.9953 8.26838 15.9973C8.24749 15.9986 8.22728 16 8.20706 16C8.20033 16 8.19493 15.9966 8.18887 15.9966C8.18618 15.9966 8.18415 15.998 8.18146 15.9973C8.17405 15.9973 8.16798 15.992 8.16057 15.9913C7.83647 15.9686 7.56627 15.7233 7.53662 15.3933C7.46183 14.5687 7.05013 13.8307 6.37766 13.3148C6.35812 13.3008 6.30355 13.3074 6.26986 13.3474L5.02937 14.7694C4.90134 14.9167 4.71402 15.002 4.51929 15.0007C4.32523 15.0007 4.14061 14.918 4.01259 14.7734L2.75593 13.3561C2.72089 13.3174 2.66564 13.3101 2.64812 13.3248C1.98306 13.8407 1.57541 14.5754 1.50129 15.394C1.46827 15.7607 1.14552 16.026 0.76953 15.998C0.398933 15.9646 0.125366 15.6407 0.159056 15.274C0.265519 14.1027 0.869928 13.0101 1.81663 12.2748C2.40689 11.8175 3.26398 11.9068 3.76867 12.4768L4.51458 13.3181L5.24903 12.4761C5.75102 11.8995 6.60946 11.8048 7.20308 12.2615C7.61276 12.5755 7.95438 12.9594 8.22458 13.3848C8.49141 12.9654 8.8263 12.5868 9.22789 12.2748C9.8168 11.8182 10.6752 11.9062 11.1799 12.4775L11.9258 13.3181L12.6603 12.4761C13.1623 11.8995 14.0214 11.8062 14.6137 12.2608C15.5712 12.9954 16.1816 14.0934 16.2894 15.2733L16.2908 15.2727Z" fill="#2D7F06"/>
</svg>
