<svg width="16" height="15" viewBox="0 0 16 15" fill="none" xmlns="http://www.w3.org/2000/svg">
<path d="M8.80692 0.760144C8.80692 0.605602 8.87149 0.45739 8.98643 0.348113C9.10137 0.238836 9.25726 0.177444 9.41981 0.177444C11.0448 0.179141 12.6026 0.793599 13.7516 1.88601C14.9006 2.97841 15.5469 4.45955 15.5487 6.00444C15.5487 6.15898 15.4842 6.30719 15.3692 6.41647C15.2543 6.52575 15.0984 6.58714 14.9358 6.58714C14.7733 6.58714 14.6174 6.52575 14.5025 6.41647C14.3875 6.30719 14.3229 6.15898 14.3229 6.00444C14.3215 4.76853 13.8044 3.58364 12.8852 2.70973C11.966 1.83581 10.7198 1.34423 9.41981 1.34284C9.25726 1.34284 9.10137 1.28145 8.98643 1.17217C8.87149 1.0629 8.80692 0.914685 8.80692 0.760144ZM9.41981 3.67364C10.07 3.67364 10.6936 3.91921 11.1533 4.35632C11.6131 4.79343 11.8714 5.38627 11.8714 6.00444C11.8714 6.15898 11.9359 6.30719 12.0509 6.41647C12.1658 6.52575 12.3217 6.58714 12.4843 6.58714C12.6468 6.58714 12.8027 6.52575 12.9176 6.41647C13.0326 6.30719 13.0972 6.15898 13.0972 6.00444C13.0962 5.07747 12.7084 4.18874 12.019 3.53328C11.3296 2.87781 10.3948 2.50917 9.41981 2.50824C9.25726 2.50824 9.10137 2.56963 8.98643 2.67891C8.87149 2.78819 8.80692 2.9364 8.80692 3.09094C8.80692 3.24548 8.87149 3.3937 8.98643 3.50297C9.10137 3.61225 9.25726 3.67364 9.41981 3.67364ZM14.9928 9.93125C15.348 10.2699 15.5475 10.7286 15.5475 11.2068C15.5475 11.685 15.348 12.1437 14.9928 12.4823L14.4351 13.0936C9.41552 17.6625 -2.79941 6.05222 1.93212 1.26476L2.63694 0.682062C2.9935 0.353814 3.47166 0.172229 3.96796 0.17659C4.46426 0.180952 4.93881 0.370911 5.28892 0.70537C5.30792 0.723434 6.44361 2.12599 6.44361 2.12599C6.7806 2.46257 6.96819 2.90968 6.96739 3.37437C6.96659 3.83906 6.77746 4.28558 6.43932 4.62111L5.72959 5.46952C6.12236 6.37685 6.69984 7.20145 7.42884 7.89594C8.15784 8.59043 9.024 9.14112 9.97754 9.51637L10.8754 8.83753C11.2284 8.51629 11.698 8.33669 12.1866 8.33604C12.6752 8.33539 13.1453 8.51374 13.4992 8.83403C13.4992 8.83403 14.9738 9.91319 14.9928 9.93125ZM14.1495 10.7785C14.1495 10.7785 12.6828 9.70575 12.6638 9.68768C12.5376 9.56866 12.367 9.50187 12.1892 9.50187C12.0114 9.50187 11.8407 9.56866 11.7145 9.68768C11.6979 9.704 10.4617 10.6404 10.4617 10.6404C10.3784 10.7034 10.2793 10.7448 10.1741 10.7603C10.0689 10.7758 9.9612 10.765 9.86171 10.729C8.6264 10.2917 7.50436 9.60712 6.5716 8.72161C5.63884 7.83611 4.91714 6.77036 4.45539 5.59655C4.41445 5.50067 4.4011 5.39615 4.41672 5.29374C4.43234 5.19133 4.47636 5.09473 4.54426 5.01385C4.54426 5.01385 5.52918 3.83796 5.54573 3.82281C5.67092 3.70277 5.74116 3.54056 5.74116 3.37151C5.74116 3.20246 5.67092 3.04026 5.54573 2.92021C5.52673 2.90273 4.39839 1.50716 4.39839 1.50716C4.27024 1.39791 4.10298 1.3394 3.93091 1.34363C3.75884 1.34785 3.59498 1.41449 3.47293 1.52989L2.7681 2.11259C-0.689833 6.06562 9.89542 15.5712 13.5391 12.2976L14.0974 11.6858C14.2282 11.5705 14.3068 11.4115 14.3165 11.2422C14.3263 11.0728 14.2664 10.9066 14.1495 10.7785Z" fill="#666666"/>
</svg>
