<svg width="15" height="13" viewBox="0 0 15 13" fill="none" xmlns="http://www.w3.org/2000/svg">
<path d="M9.83724 2.91667H2.72926L4.82191 0.824892L4.00391 0L0.503906 3.5L4.00391 7L4.82191 6.17482L2.73101 4.08333H9.83724C10.7655 4.08333 11.6557 4.45208 12.3121 5.10846C12.9685 5.76484 13.3372 6.65508 13.3372 7.58333C13.3372 8.51159 12.9685 9.40183 12.3121 10.0582C11.6557 10.7146 10.7655 11.0833 9.83724 11.0833H5.17057V12.25H9.83724C11.0749 12.25 12.2619 11.7583 13.1371 10.8832C14.0122 10.008 14.5039 8.82101 14.5039 7.58333C14.5039 6.34566 14.0122 5.15867 13.1371 4.2835C12.2619 3.40833 11.0749 2.91667 9.83724 2.91667Z" fill="#3C3D48"/>
</svg>
