<svg width="21" height="20" viewBox="0 0 21 20" fill="none" xmlns="http://www.w3.org/2000/svg">
<path fill-rule="evenodd" clip-rule="evenodd" d="M19.4587 0.871209C18.2971 -0.290398 16.4138 -0.290408 15.2522 0.871209L13.5867 2.53672L5.74788 10.3754C5.62081 10.5026 5.53067 10.6618 5.48709 10.8361L4.49559 14.8021C4.41112 15.14 4.51012 15.4974 4.75638 15.7436C5.00265 15.9899 5.36008 16.0889 5.69796 16.0045L9.66391 15.013C9.83831 14.9693 9.99745 14.8792 10.1246 14.7521L17.9063 6.97042L19.6288 5.24788C20.7905 4.08628 20.7905 2.20293 19.6288 1.04132L19.4587 0.871209ZM16.6544 2.27339C17.0415 1.88619 17.6693 1.88619 18.0565 2.27339L18.2267 2.4435C18.6138 2.83071 18.6138 3.4585 18.2267 3.8457L17.2188 4.85357L15.6766 3.25113L16.6544 2.27339ZM14.2742 4.65357L15.8163 6.25602L8.91661 13.1558L6.82016 13.6799L7.34426 11.5835L14.2742 4.65357ZM2.48299 6.11909C2.48299 5.57151 2.92691 5.12759 3.47449 5.12759H8.43197C8.97957 5.12759 9.42347 4.68369 9.42347 4.1361C9.42347 3.58851 8.97957 3.1446 8.43197 3.1446H3.47449C1.83173 3.1446 0.5 4.47633 0.5 6.11909V17.0255C0.5 18.6683 1.83173 20 3.47449 20H14.3809C16.0238 20 17.3554 18.6683 17.3554 17.0255V12.068C17.3554 11.5205 16.9115 11.0765 16.3639 11.0765C15.8163 11.0765 15.3724 11.5205 15.3724 12.068V17.0255C15.3724 17.5731 14.9286 18.017 14.3809 18.017H3.47449C2.92691 18.017 2.48299 17.5731 2.48299 17.0255V6.11909Z" fill="white"/>
</svg>
