<svg width="27" height="26" viewBox="0 0 27 26" fill="none" xmlns="http://www.w3.org/2000/svg">
<rect x="0.681641" y="0.110352" width="25.78" height="25.78" rx="12.89" fill="#2D7F06"/>
<path d="M21.3481 11.2662C20.278 9.56906 17.8438 6.72168 13.5716 6.72168C9.2994 6.72168 6.86523 9.56906 5.79511 11.2662C5.46429 11.7872 5.28906 12.3877 5.28906 13.0003C5.28906 13.6129 5.46429 14.2133 5.79511 14.7344C6.86523 16.4315 9.2994 19.2789 13.5716 19.2789C17.8438 19.2789 20.278 16.4315 21.3481 14.7344C21.6789 14.2133 21.8542 13.6129 21.8542 13.0003C21.8542 12.3877 21.6789 11.7872 21.3481 11.2662ZM20.1717 14.0309C19.2527 15.4862 17.1725 17.9352 13.5716 17.9352C9.97072 17.9352 7.89051 15.4862 6.97148 14.0309C6.77494 13.7212 6.67084 13.3644 6.67084 13.0003C6.67084 12.6362 6.77494 12.2793 6.97148 11.9696C7.89051 10.5144 9.97072 8.06542 13.5716 8.06542C17.1725 8.06542 19.2527 10.5117 20.1717 11.9696C20.3683 12.2793 20.4724 12.6362 20.4724 13.0003C20.4724 13.3644 20.3683 13.7212 20.1717 14.0309Z" fill="white"/>
<path d="M13.5777 9.64258C12.8954 9.64258 12.2284 9.8396 11.6611 10.2087C11.0938 10.5779 10.6516 11.1025 10.3905 11.7164C10.1294 12.3302 10.0611 13.0056 10.1942 13.6573C10.3273 14.3089 10.6559 14.9075 11.1383 15.3773C11.6208 15.8471 12.2355 16.1671 12.9047 16.2967C13.5739 16.4263 14.2675 16.3598 14.8979 16.1055C15.5283 15.8513 16.067 15.4207 16.4461 14.8683C16.8252 14.3158 17.0275 13.6663 17.0275 13.0019C17.0264 12.1113 16.6626 11.2575 16.0159 10.6277C15.3691 9.99792 14.4923 9.64364 13.5777 9.64258ZM13.5777 15.0175C13.1683 15.0175 12.7681 14.8993 12.4278 14.6778C12.0874 14.4564 11.8221 14.1416 11.6654 13.7733C11.5087 13.405 11.4677 12.9997 11.5476 12.6087C11.6275 12.2177 11.8246 11.8586 12.1141 11.5767C12.4036 11.2948 12.7724 11.1028 13.1739 11.025C13.5754 10.9473 13.9916 10.9872 14.3698 11.1397C14.748 11.2923 15.0713 11.5506 15.2987 11.8821C15.5262 12.2136 15.6476 12.6033 15.6476 13.0019C15.6476 13.5365 15.4295 14.0492 15.0413 14.4272C14.6532 14.8052 14.1267 15.0175 13.5777 15.0175Z" fill="white"/>
</svg>
