<svg width="27" height="26" viewBox="0 0 27 26" fill="none" xmlns="http://www.w3.org/2000/svg">
<rect x="0.5" y="0.110352" width="25.78" height="25.78" rx="12.89" fill="#FFD000"/>
<path d="M21.1665 11.2662C20.0963 9.56906 17.6622 6.72168 13.39 6.72168C9.11776 6.72168 6.68359 9.56906 5.61347 11.2662C5.28265 11.7872 5.10742 12.3877 5.10742 13.0003C5.10742 13.6129 5.28265 14.2133 5.61347 14.7344C6.68359 16.4315 9.11776 19.2789 13.39 19.2789C17.6622 19.2789 20.0963 16.4315 21.1665 14.7344C21.4973 14.2133 21.6725 13.6129 21.6725 13.0003C21.6725 12.3877 21.4973 11.7872 21.1665 11.2662ZM19.9901 14.0309C19.0711 15.4862 16.9908 17.9352 13.39 17.9352C9.78908 17.9352 7.70886 15.4862 6.78984 14.0309C6.5933 13.7212 6.48919 13.3644 6.48919 13.0003C6.48919 12.6362 6.5933 12.2793 6.78984 11.9696C7.70886 10.5144 9.78908 8.06542 13.39 8.06542C16.9908 8.06542 19.0711 10.5117 19.9901 11.9696C20.1866 12.2793 20.2907 12.6362 20.2907 13.0003C20.2907 13.3644 20.1866 13.7212 19.9901 14.0309Z" fill="black"/>
<path d="M13.3961 9.64258C12.7138 9.64258 12.0468 9.8396 11.4795 10.2087C10.9122 10.5779 10.47 11.1025 10.2089 11.7164C9.94778 12.3302 9.87947 13.0056 10.0126 13.6573C10.1457 14.3089 10.4742 14.9075 10.9567 15.3773C11.4392 15.8471 12.0539 16.1671 12.7231 16.2967C13.3922 16.4263 14.0859 16.3598 14.7162 16.1055C15.3466 15.8513 15.8854 15.4207 16.2645 14.8683C16.6435 14.3158 16.8459 13.6663 16.8459 13.0019C16.8448 12.1113 16.4809 11.2575 15.8342 10.6277C15.1875 9.99792 14.3107 9.64364 13.3961 9.64258ZM13.3961 15.0175C12.9867 15.0175 12.5865 14.8993 12.2461 14.6778C11.9057 14.4564 11.6404 14.1416 11.4838 13.7733C11.3271 13.405 11.2861 12.9997 11.366 12.6087C11.4458 12.2177 11.643 11.8586 11.9325 11.5767C12.2219 11.2948 12.5907 11.1028 12.9923 11.025C13.3938 10.9473 13.81 10.9872 14.1882 11.1397C14.5664 11.2923 14.8897 11.5506 15.1171 11.8821C15.3445 12.2136 15.4659 12.6033 15.4659 13.0019C15.4659 13.5365 15.2479 14.0492 14.8597 14.4272C14.4715 14.8052 13.945 15.0175 13.3961 15.0175Z" fill="black"/>
</svg>
