<svg width="28" height="24" viewBox="0 0 28 24" fill="none" xmlns="http://www.w3.org/2000/svg">
<path d="M12.8724 13.7143V6.85714C12.8724 6.22857 13.3789 5.71429 13.998 5.71429C14.6171 5.71429 15.1236 6.22857 15.1236 6.85714V13.7143C15.1236 14.3429 14.6171 14.8571 13.998 14.8571C13.3789 14.8571 12.8724 14.3429 12.8724 13.7143ZM13.998 16C13.0638 16 12.3096 16.7657 12.3096 17.7143C12.3096 18.6629 13.0638 19.4286 13.998 19.4286C14.9323 19.4286 15.6865 18.6629 15.6865 17.7143C15.6865 16.7657 14.9323 16 13.998 16ZM27.0327 21.5771C26.2448 23.12 24.5901 24 22.519 24H5.48831C3.40591 24 1.7625 23.12 0.974566 21.5771C0.175374 20.0229 0.400499 18.0343 1.53738 16.3657L10.5874 1.82857C11.3866 0.662857 12.6473 0 13.998 0C15.3488 0 16.6095 0.662857 17.3749 1.79429L26.4699 16.3886C27.6068 18.0571 27.8207 20.0343 27.0215 21.5771H27.0327ZM24.6126 17.6686C24.6126 17.6686 24.5901 17.6457 24.5901 17.6229L15.5064 3.05143C15.1799 2.58286 14.6171 2.28571 13.998 2.28571C13.3789 2.28571 12.8161 2.58286 12.4672 3.09714L3.40591 17.6229C2.70802 18.6286 2.55044 19.7257 2.95566 20.5143C3.34963 21.2914 4.25013 21.7143 5.47706 21.7143H22.4965C23.7234 21.7143 24.6239 21.2914 25.0179 20.5143C25.4231 19.7257 25.2655 18.6286 24.6014 17.6686H24.6126Z" fill="#FFCD29"/>
</svg>
