<svg width="13" height="14" viewBox="0 0 13 14" fill="none" xmlns="http://www.w3.org/2000/svg">
<g id="Icon Container">
<path id="Vector" d="M3.16667 1V2.33333M3.16667 2.33333H9.83333M3.16667 2.33333H2.63333C1.8866 2.33333 1.51323 2.33333 1.22801 2.47866C0.977127 2.60649 0.773153 2.81046 0.645327 3.06135C0.5 3.34656 0.5 3.71993 0.5 4.46667V10.8667C0.5 11.6134 0.5 11.9868 0.645327 12.272C0.773153 12.5229 0.977127 12.7269 1.22801 12.8547C1.51323 13 1.88659 13 2.63333 13H10.3667C11.1134 13 11.4868 13 11.772 12.8547C12.0229 12.7269 12.2269 12.5229 12.3547 12.272C12.5 11.9868 12.5 11.6134 12.5 10.8667V4.46667C12.5 3.71993 12.5 3.34656 12.3547 3.06135C12.2269 2.81046 12.0229 2.60649 11.772 2.47866C11.4868 2.33333 11.1134 2.33333 10.3667 2.33333H9.83333M9.83333 1V2.33333" stroke="#30313D" stroke-linecap="round" stroke-linejoin="round"/>
<path id="W" d="M5.16598 10L4 5H5.17216L5.77835 8.30561H5.8L6.52371 5H7.47629L8.2 8.30561H8.22165L8.82784 5H10L8.83402 10H7.71753L7.00928 6.99931H6.98763L6.28247 10H5.16598Z" fill="#30313D"/>
</g>
</svg>
