<svg width="60" height="60" viewBox="0 0 60 60" fill="none" xmlns="http://www.w3.org/2000/svg">
<path d="M30 4.28571C26.6232 4.28571 23.2794 4.95083 20.1596 6.2431C17.0398 7.53536 14.205 9.42946 11.8173 11.8173C9.42946 14.205 7.53536 17.0398 6.2431 20.1596C4.95083 23.2794 4.28571 26.6232 4.28571 30C4.28571 33.3768 4.95083 36.7206 6.2431 39.8404C7.53536 42.9602 9.42946 45.795 11.8173 48.1827C14.205 50.5705 17.0398 52.4646 20.1596 53.7569C23.2794 55.0492 26.6232 55.7143 30 55.7143C36.8199 55.7143 43.3604 53.0051 48.1827 48.1827C53.0051 43.3604 55.7143 36.8199 55.7143 30C55.7143 23.1801 53.0051 16.6396 48.1827 11.8173C43.3604 6.99489 36.8199 4.28571 30 4.28571ZM30 0C37.9565 0 45.5871 3.1607 51.2132 8.7868C56.8393 14.4129 60 22.0435 60 30C60 37.9565 56.8393 45.5871 51.2132 51.2132C45.5871 56.8393 37.9565 60 30 60C22.0435 60 14.4129 56.8393 8.7868 51.2132C3.1607 45.5871 0 37.9565 0 30C0 22.0435 3.1607 14.4129 8.7868 8.7868C14.4129 3.1607 22.0435 0 30 0Z" fill="#BBCDDE"/>
<path d="M38.5757 15.0002C41.4329 15.0002 42.8615 16.4288 42.8615 19.286C42.8615 22.1431 41.4329 23.5717 38.5757 23.5717C35.7186 23.5717 34.29 22.1431 34.29 19.286C34.29 16.4288 35.7186 15.0002 38.5757 15.0002ZM10.0929 48.6602L7.05859 45.626L19.4915 33.1974C20.5676 32.1208 21.9908 31.461 23.5079 31.3354C25.0249 31.2098 26.5372 31.6267 27.7757 32.5117L37.0329 39.1202C37.4285 39.4022 37.9083 39.5414 38.3934 39.5149C38.8785 39.4885 39.3403 39.2979 39.7029 38.9745L56.4343 24.0002L59.2886 27.1974L42.5615 42.1674C41.4732 43.1413 40.0857 43.7157 38.6275 43.796C37.1692 43.8762 35.7271 43.4575 34.5386 42.6088L25.2815 35.996C24.8688 35.7028 24.3657 35.5653 23.8613 35.6076C23.3569 35.65 22.8837 35.8696 22.5257 36.2274L10.0929 48.656V48.6602Z" fill="#BBCDDE"/>
</svg>
