<svg width="6" height="24" viewBox="0 0 6 24" fill="none" xmlns="http://www.w3.org/2000/svg">
<g id="Action Icon">
<path id="Vector" d="M3.14367 17.5919C4.72238 17.5919 6.00217 18.8717 6.00217 20.4504C6.00217 22.0292 4.72238 23.3089 3.14367 23.3089C1.56495 23.3089 0.285156 22.0292 0.285156 20.4504C0.285156 18.8717 1.56495 17.5919 3.14367 17.5919Z" fill="#666666"/>
<path id="Vector_2" d="M3.14367 9.01685C4.72238 9.01685 6.00217 10.2966 6.00217 11.8754C6.00217 13.4541 4.72238 14.7339 3.14367 14.7339C1.56495 14.7339 0.285156 13.4541 0.285156 11.8754C0.285156 10.2966 1.56495 9.01685 3.14367 9.01685Z" fill="#666666"/>
<path id="Vector_3" d="M6.00217 3.29943C6.00217 1.72072 4.72238 0.440918 3.14367 0.440918C1.56495 0.440918 0.285156 1.72072 0.285156 3.29943C0.285156 4.87814 1.56495 6.15794 3.14367 6.15794C4.72238 6.15794 6.00217 4.87814 6.00217 3.29943Z" fill="#666666"/>
</g>
</svg>
