<svg width="8" height="15" viewBox="0 0 8 15" fill="none" xmlns="http://www.w3.org/2000/svg">
<path id="Vector" d="M7.99998 13.4317V1.56826C8.0012 1.3573 7.93997 1.15076 7.8241 0.974967C7.70823 0.799171 7.54296 0.662086 7.34937 0.581191C7.15579 0.500295 6.94265 0.479254 6.73713 0.520749C6.53161 0.562244 6.34303 0.664396 6.19543 0.814181L0.306872 6.75123C0.110322 6.95023 0 7.21941 0 7.5C0 7.78059 0.110322 8.04978 0.306872 8.24877L6.19543 14.1858C6.34303 14.3356 6.53161 14.4378 6.73713 14.4793C6.94265 14.5207 7.15579 14.4997 7.34937 14.4188C7.54296 14.3379 7.70823 14.2008 7.8241 14.025C7.93997 13.8492 8.0012 13.6427 7.99998 13.4317Z" fill="#2580D3"/>
</svg>
