<svg width="16" height="16" viewBox="0 0 16 16" fill="none" xmlns="http://www.w3.org/2000/svg">
<path id="Vector" d="M14.25 11.0341V10.3523C14.25 8.47045 12.85 6.94318 11.125 6.94318H8.625V4.21591C9.3125 4.21591 9.875 3.60227 9.875 2.85227V1.48864C9.875 0.738636 9.3125 0.125 8.625 0.125H7.375C6.6875 0.125 6.125 0.738636 6.125 1.48864V2.85227C6.125 3.60227 6.6875 4.21591 7.375 4.21591V6.94318H4.875C3.15 6.94318 1.75 8.47045 1.75 10.3523V11.0341C1.0625 11.0341 0.5 11.6477 0.5 12.3977V13.7614C0.5 14.5114 1.0625 15.125 1.75 15.125H3C3.6875 15.125 4.25 14.5114 4.25 13.7614V12.3977C4.25 11.6477 3.6875 11.0341 3 11.0341V10.3523C3 9.22727 3.84375 8.30682 4.875 8.30682H7.375V11.0341C6.6875 11.0341 6.125 11.6477 6.125 12.3977V13.7614C6.125 14.5114 6.6875 15.125 7.375 15.125H8.625C9.3125 15.125 9.875 14.5114 9.875 13.7614V12.3977C9.875 11.6477 9.3125 11.0341 8.625 11.0341V8.30682H11.125C12.1562 8.30682 13 9.22727 13 10.3523V11.0341C12.3125 11.0341 11.75 11.6477 11.75 12.3977V13.7614C11.75 14.5114 12.3125 15.125 13 15.125H14.25C14.9375 15.125 15.5 14.5114 15.5 13.7614V12.3977C15.5 11.6477 14.9375 11.0341 14.25 11.0341ZM7.375 1.48864H8.625V2.85227H7.375V1.48864ZM3 13.7614H1.75V12.3977H3V13.7614ZM8.625 13.7614H7.375V12.3977H8.625V13.7614ZM14.25 13.7614H13V12.3977H14.25V13.7614Z" fill="white"/>
</svg>
