<svg width="21" height="21" viewBox="0 0 21 21" fill="none" xmlns="http://www.w3.org/2000/svg">
<path id="Vector" d="M18.8333 15.0455V14.1364C18.8333 11.6273 16.9667 9.59091 14.6667 9.59091H11.3333V5.95455C12.25 5.95455 13 5.13636 13 4.13636V2.31818C13 1.31818 12.25 0.5 11.3333 0.5H9.66667C8.75 0.5 8 1.31818 8 2.31818V4.13636C8 5.13636 8.75 5.95455 9.66667 5.95455V9.59091H6.33333C4.03333 9.59091 2.16667 11.6273 2.16667 14.1364V15.0455C1.25 15.0455 0.5 15.8636 0.5 16.8636V18.6818C0.5 19.6818 1.25 20.5 2.16667 20.5H3.83333C4.75 20.5 5.5 19.6818 5.5 18.6818V16.8636C5.5 15.8636 4.75 15.0455 3.83333 15.0455V14.1364C3.83333 12.6364 4.95833 11.4091 6.33333 11.4091H9.66667V15.0455C8.75 15.0455 8 15.8636 8 16.8636V18.6818C8 19.6818 8.75 20.5 9.66667 20.5H11.3333C12.25 20.5 13 19.6818 13 18.6818V16.8636C13 15.8636 12.25 15.0455 11.3333 15.0455V11.4091H14.6667C16.0417 11.4091 17.1667 12.6364 17.1667 14.1364V15.0455C16.25 15.0455 15.5 15.8636 15.5 16.8636V18.6818C15.5 19.6818 16.25 20.5 17.1667 20.5H18.8333C19.75 20.5 20.5 19.6818 20.5 18.6818V16.8636C20.5 15.8636 19.75 15.0455 18.8333 15.0455ZM9.66667 2.31818H11.3333V4.13636H9.66667V2.31818ZM3.83333 18.6818H2.16667V16.8636H3.83333V18.6818ZM11.3333 18.6818H9.66667V16.8636H11.3333V18.6818ZM18.8333 18.6818H17.1667V16.8636H18.8333V18.6818Z" fill="#30313D"/>
</svg>
