<svg width="26" height="26" viewBox="0 0 26 26" fill="none" xmlns="http://www.w3.org/2000/svg">
<rect x="0.789773" y="0.539773" width="24.9205" height="24.9205" rx="3.1875" fill="white"/>
<rect x="0.789773" y="0.539773" width="24.9205" height="24.9205" rx="3.1875" stroke="#CBD5E1" stroke-width="0.579545"/>
<path d="M20.8683 11.3014C19.82 9.63892 17.4354 6.84961 13.2504 6.84961C9.06527 6.84961 6.68074 9.63892 5.63244 11.3014C5.30838 11.8119 5.13672 12.4001 5.13672 13.0002C5.13672 13.6003 5.30838 14.1885 5.63244 14.6989C6.68074 16.3614 9.06527 19.1507 13.2504 19.1507C17.4354 19.1507 19.82 16.3614 20.8683 14.6989C21.1923 14.1885 21.364 13.6003 21.364 13.0002C21.364 12.4001 21.1923 11.8119 20.8683 11.3014ZM19.7159 14.0098C18.8156 15.4354 16.7778 17.8344 13.2504 17.8344C9.72291 17.8344 7.68511 15.4354 6.78483 14.0098C6.59229 13.7064 6.49031 13.3568 6.49031 13.0002C6.49031 12.6435 6.59229 12.2939 6.78483 11.9905C7.68511 10.565 9.72291 8.16594 13.2504 8.16594C16.7778 8.16594 18.8156 10.5623 19.7159 11.9905C19.9084 12.2939 20.0104 12.6435 20.0104 13.0002C20.0104 13.3568 19.9084 13.7064 19.7159 14.0098Z" fill="#3C3D48"/>
<path d="M13.2564 9.71094C12.588 9.71094 11.9346 9.90394 11.3789 10.2655C10.8231 10.6271 10.39 11.1411 10.1342 11.7424C9.87842 12.3437 9.81149 13.0054 9.94189 13.6438C10.0723 14.2821 10.3941 14.8685 10.8668 15.3287C11.3394 15.789 11.9415 16.1024 12.5971 16.2294C13.2526 16.3563 13.9321 16.2912 14.5496 16.0421C15.1671 15.793 15.6949 15.3712 16.0663 14.8301C16.4376 14.2889 16.6358 13.6526 16.6358 13.0018C16.6347 12.1293 16.2783 11.2929 15.6448 10.676C15.0113 10.059 14.1523 9.71198 13.2564 9.71094ZM13.2564 14.9763C12.8554 14.9763 12.4633 14.8605 12.1299 14.6435C11.7964 14.4265 11.5365 14.1182 11.3831 13.7574C11.2296 13.3966 11.1894 12.9996 11.2677 12.6166C11.3459 12.2335 11.539 11.8817 11.8226 11.6056C12.1062 11.3294 12.4675 11.1414 12.8608 11.0652C13.2541 10.989 13.6618 11.0281 14.0323 11.1776C14.4028 11.327 14.7195 11.5801 14.9423 11.9048C15.1651 12.2295 15.284 12.6113 15.284 13.0018C15.284 13.5254 15.0704 14.0277 14.6902 14.398C14.3099 14.7682 13.7942 14.9763 13.2564 14.9763Z" fill="#3C3D48"/>
</svg>
