<svg width="17" height="16" viewBox="0 0 17 16" fill="none" xmlns="http://www.w3.org/2000/svg">
<path id="Vector" d="M12.169 6.63053C9.55253 6.63053 7.42285 8.70443 7.42285 11.2539C7.42285 13.7888 9.55253 15.8514 12.169 15.8514C14.7855 15.8514 16.9152 13.7776 16.9152 11.2281C16.9152 8.6932 14.7855 6.63053 12.169 6.63053ZM12.169 14.5305C10.2997 14.5305 8.7789 13.0603 8.7789 11.2539C8.7789 9.43293 10.2997 7.95148 12.169 7.95148C14.0384 7.95148 15.5592 9.42171 15.5592 11.2281C15.5592 13.049 14.0384 14.5305 12.169 14.5305ZM13.3264 11.4216C13.5915 11.6799 13.5915 12.0973 13.3264 12.3555C13.1942 12.4843 13.0206 12.5491 12.8471 12.5491C12.6735 12.5491 12.4999 12.4843 12.3677 12.3555L11.6897 11.6951C11.5622 11.5709 11.491 11.4031 11.491 11.2281V9.90716C11.491 9.54257 11.7941 9.24668 12.169 9.24668C12.544 9.24668 12.8471 9.54257 12.8471 9.90716V10.9547L13.3264 11.4216ZM16.9152 4.62334V5.94429C16.9152 6.30888 16.6121 6.60477 16.2372 6.60477C15.8622 6.60477 15.5592 6.30888 15.5592 5.94429V4.62334C15.5592 3.53091 14.6465 2.64191 13.5251 2.64191H4.03271C2.91126 2.64191 1.99863 3.53091 1.99863 4.62334V5.28382H8.10087C8.47515 5.28382 8.7789 5.57971 8.7789 5.94429C8.7789 6.30888 8.47515 6.60477 8.10087 6.60477H1.99863V12.5491C1.99863 13.6415 2.91126 14.5305 4.03271 14.5305H6.74482C7.11909 14.5305 7.42285 14.8264 7.42285 15.191C7.42285 15.5556 7.11909 15.8514 6.74482 15.8514H4.03271C2.16339 15.8514 0.642578 14.37 0.642578 12.5491V4.62334C0.642578 2.8024 2.16339 1.32095 4.03271 1.32095H4.71074V0.660477C4.71074 0.295894 5.0145 0 5.38877 0C5.76304 0 6.06679 0.295894 6.06679 0.660477V1.32095H11.491V0.660477C11.491 0.295894 11.7941 0 12.169 0C12.544 0 12.8471 0.295894 12.8471 0.660477V1.32095H13.5251C15.3944 1.32095 16.9152 2.8024 16.9152 4.62334Z" fill="#30313D"/>
</svg>
