<svg width="21" height="20" viewBox="0 0 21 20" fill="none" xmlns="http://www.w3.org/2000/svg">
<path id="Vector" d="M14.5431 8.36583C11.2418 8.36583 8.55476 10.9825 8.55476 14.1992C8.55476 17.3975 11.2418 20 14.5431 20C17.8444 20 20.5314 17.3833 20.5314 14.1667C20.5314 10.9683 17.8444 8.36583 14.5431 8.36583ZM14.5431 18.3333C12.1846 18.3333 10.2657 16.4783 10.2657 14.1992C10.2657 11.9017 12.1846 10.0325 14.5431 10.0325C16.9016 10.0325 18.8205 11.8875 18.8205 14.1667C18.8205 16.4642 16.9016 18.3333 14.5431 18.3333ZM16.0034 14.4108C16.3379 14.7367 16.3379 15.2633 16.0034 15.5892C15.8366 15.7517 15.6176 15.8333 15.3986 15.8333C15.1796 15.8333 14.9606 15.7517 14.7938 15.5892L13.9383 14.7558C13.7774 14.5992 13.6876 14.3875 13.6876 14.1667V12.5C13.6876 12.04 14.07 11.6667 14.5431 11.6667C15.0162 11.6667 15.3986 12.04 15.3986 12.5V13.8217L16.0034 14.4108ZM20.5314 5.83333V7.5C20.5314 7.96 20.149 8.33333 19.676 8.33333C19.2029 8.33333 18.8205 7.96 18.8205 7.5V5.83333C18.8205 4.455 17.669 3.33333 16.2541 3.33333H4.27738C2.86242 3.33333 1.71095 4.455 1.71095 5.83333V6.66667H9.41024C9.88246 6.66667 10.2657 7.04 10.2657 7.5C10.2657 7.96 9.88246 8.33333 9.41024 8.33333H1.71095V15.8333C1.71095 17.2117 2.86242 18.3333 4.27738 18.3333H7.69929C8.17151 18.3333 8.55476 18.7067 8.55476 19.1667C8.55476 19.6267 8.17151 20 7.69929 20H4.27738C1.91883 20 0 18.1308 0 15.8333V5.83333C0 3.53583 1.91883 1.66667 4.27738 1.66667H5.13286V0.833333C5.13286 0.373333 5.51611 0 5.98833 0C6.46056 0 6.84381 0.373333 6.84381 0.833333V1.66667H13.6876V0.833333C13.6876 0.373333 14.07 0 14.5431 0C15.0162 0 15.3986 0.373333 15.3986 0.833333V1.66667H16.2541C18.6126 1.66667 20.5314 3.53583 20.5314 5.83333Z" fill="#4294FF"/>
</svg>
