<svg width="16" height="16" viewBox="0 0 16 16" fill="none" xmlns="http://www.w3.org/2000/svg">
<path id="Vector" d="M7.8009 3.74094L11.517 3.04883C11.8694 3.73304 12.6156 4.21324 13.4632 4.21324C14.6424 4.21325 15.625 3.2841 15.625 2.16912C15.625 1.05412 14.6424 0.125 13.4632 0.125C12.4139 0.125 11.5202 0.860807 11.3362 1.80859L7.55148 2.51349C7.13377 1.68671 6.24429 1.12299 5.20094 1.12299C3.74956 1.12299 2.5959 2.21388 2.5959 3.58626C2.5959 4.95864 3.74958 6.04953 5.20094 6.04953C5.59454 6.04953 5.96617 5.96916 6.29891 5.82484L9.06605 8.44139C8.53828 8.97567 8.2154 9.69335 8.2154 10.4834C8.2154 10.5705 8.21956 10.6567 8.22724 10.7418L4.38439 11.9174C3.99669 11.4499 3.39521 11.1455 2.72929 11.1455C1.58149 11.1455 0.625 12.0499 0.625 13.1352C0.625 14.2205 1.58149 15.125 2.72929 15.125C3.87713 15.125 4.83362 14.2205 4.83362 13.1352C4.83362 13.1214 4.83335 13.1076 4.83307 13.0939L8.61301 11.9375C9.15285 12.8549 10.1881 13.4746 11.3787 13.4746C13.1278 13.4746 14.542 12.1374 14.542 10.4834C14.542 8.82954 13.1278 7.49232 11.3787 7.49232C10.9505 7.49232 10.5425 7.57264 10.1703 7.71792L7.32284 5.0254C7.5982 4.66088 7.77027 4.22063 7.8009 3.74094ZM2.72929 13.9377C2.25408 13.9377 1.88063 13.5846 1.88063 13.1352C1.88063 12.6859 2.25408 12.3328 2.72929 12.3328C3.2046 12.3328 3.57799 12.6859 3.57799 13.1352C3.57799 13.5846 3.20458 13.9377 2.72929 13.9377ZM13.4632 1.32729C13.9618 1.32729 14.3535 1.69769 14.3535 2.16914C14.3535 2.64058 13.9618 3.01097 13.4632 3.01097C12.9646 3.01097 12.5729 2.64056 12.5729 2.16914C12.5729 1.69771 12.9646 1.32729 13.4632 1.32729ZM3.86967 3.58628C3.86967 2.89395 4.46877 2.32747 5.20094 2.32747C5.93314 2.32747 6.5322 2.89395 6.5322 3.58628C6.5322 4.27861 5.93314 4.84508 5.20094 4.84508C4.46879 4.84508 3.86967 4.27861 3.86967 3.58628ZM13.1733 10.4835C13.1733 11.4091 12.3576 12.1804 11.3787 12.1804C10.3998 12.1804 9.58402 11.4091 9.58402 10.4835C9.58402 9.55787 10.3998 8.7865 11.3787 8.7865C12.3576 8.7865 13.1733 9.55785 13.1733 10.4835Z" fill="white"/>
</svg>
