<svg width="21" height="21" viewBox="0 0 21 21" fill="none" xmlns="http://www.w3.org/2000/svg">
<path d="M10.0679 5.32125L15.0226 4.39843C15.4926 5.31072 16.4874 5.95098 17.6177 5.95098C19.1898 5.95101 20.5 4.71213 20.5 3.22549C20.5 1.73883 19.1898 0.5 17.6176 0.5C16.2185 0.5 15.027 1.48108 14.7816 2.74478L9.7353 3.68465C9.17837 2.58229 7.99239 1.83066 6.60125 1.83066C4.66608 1.83066 3.12787 3.28517 3.12787 5.11501C3.12787 6.94486 4.66611 8.39937 6.60125 8.39937C7.12605 8.39937 7.62156 8.29221 8.06521 8.09978L11.7547 11.5885C11.051 12.3009 10.6205 13.2578 10.6205 14.3112C10.6205 14.4273 10.6261 14.5422 10.6363 14.6558L5.51252 16.2233C4.99558 15.5999 4.19361 15.1939 3.30572 15.1939C1.77533 15.1939 0.5 16.3999 0.5 17.847C0.5 19.2941 1.77533 20.5 3.30572 20.5C4.83617 20.5 6.11149 19.2941 6.11149 17.847C6.11149 17.8285 6.11114 17.8102 6.11075 17.7918L11.1507 16.25C11.8705 17.4731 13.2508 18.2994 14.8383 18.2994C17.1704 18.2994 19.056 16.5165 19.056 14.3113C19.056 12.1061 17.1704 10.3231 14.8383 10.3231C14.2674 10.3231 13.7234 10.4302 13.2271 10.6239L9.43045 7.03386C9.7976 6.54784 10.027 5.96084 10.0679 5.32125ZM3.30572 18.9169C2.67211 18.9169 2.17418 18.4462 2.17418 17.847C2.17418 17.2478 2.67211 16.777 3.30572 16.777C3.93946 16.777 4.43732 17.2478 4.43732 17.847C4.43732 18.4462 3.93944 18.9169 3.30572 18.9169ZM17.6176 2.10305C18.2824 2.10305 18.8047 2.59692 18.8047 3.22552C18.8047 3.85411 18.2824 4.34796 17.6176 4.34796C16.9529 4.34796 16.4305 3.85408 16.4305 3.22552C16.4305 2.59695 16.9529 2.10305 17.6176 2.10305ZM4.82623 5.11504C4.82623 4.19193 5.62503 3.43663 6.60125 3.43663C7.57752 3.43663 8.37627 4.19193 8.37627 5.11504C8.37627 6.03815 7.57752 6.79345 6.60125 6.79345C5.62506 6.79345 4.82623 6.03815 4.82623 5.11504ZM17.2311 14.3113C17.2311 15.5454 16.1434 16.5739 14.8382 16.5739C13.533 16.5739 12.4454 15.5454 12.4454 14.3113C12.4454 13.0772 13.533 12.0487 14.8382 12.0487C16.1434 12.0487 17.2311 13.0771 17.2311 14.3113Z" fill="#30313D"/>
</svg>
