<svg width="29" height="33" viewBox="0 0 29 33" fill="none" xmlns="http://www.w3.org/2000/svg">
<path fill-rule="evenodd" clip-rule="evenodd" d="M2.69035 0.125081C2.01893 0.11972 1.37268 0.380292 0.892766 0.849876C0.412851 1.31946 0.13828 1.95989 0.129031 2.63126V29.6379C0.125691 29.9754 0.189624 30.3102 0.317097 30.6227C0.44457 30.9353 0.633029 31.2193 0.87147 31.4582C1.10991 31.6971 1.39356 31.8861 1.70585 32.0142C2.01814 32.1423 2.35282 32.2069 2.69035 32.2042H25.6369C25.9745 32.2069 26.3091 32.1423 26.6214 32.0142C26.9337 31.8861 27.2174 31.6971 27.4558 31.4582C27.6943 31.2193 27.8827 30.9353 28.0102 30.6227C28.1377 30.3102 28.2016 29.9754 28.1982 29.6379V10.2901L18.7048 0.125081H2.69035Z" fill="#107CAD"/>
<path fill-rule="evenodd" clip-rule="evenodd" d="M28.1995 10.3249V10.8262H21.7737C21.7737 10.8262 18.6109 10.1946 18.7011 7.46289C18.7011 7.46289 18.8064 10.3249 21.7085 10.3249H28.1995Z" fill="#084968"/>
<path opacity="0.5" fill-rule="evenodd" clip-rule="evenodd" d="M18.711 0.125V7.423C18.7096 7.8182 18.7892 8.20951 18.9447 8.57283C19.1002 8.93615 19.3284 9.26381 19.6153 9.53565C19.9022 9.8075 20.2416 10.0178 20.6128 10.1535C20.9839 10.2893 21.3789 10.3477 21.7735 10.3252H28.1994L18.711 0.125Z" fill="#90D0FE"/>
</svg>
