<svg width="17" height="21" viewBox="0 0 17 21" fill="none" xmlns="http://www.w3.org/2000/svg">
<path d="M10.0476 5.10036V8.70035H12.2976M11.1139 1.50037H6.89765C5.90354 1.50037 5.09766 2.30625 5.09766 3.30036V14.1003C5.09766 15.0945 5.90354 15.9003 6.89765 15.9003H14.0976C15.0918 15.9003 15.8976 15.0945 15.8976 14.1003V6.21782C15.8976 5.73342 15.7024 5.26946 15.356 4.93081L12.3723 2.01336C12.0359 1.68451 11.5843 1.50037 11.1139 1.50037Z" stroke="#30313D" stroke-width="1.4" stroke-linecap="round" stroke-linejoin="round"/>
<path d="M12.3 15.9003V17.7003C12.3 18.6945 11.4941 19.5003 10.5 19.5003H3.3C2.30589 19.5003 1.5 18.6945 1.5 17.7003V7.80036C1.5 6.80625 2.30589 6.00037 3.3 6.00037H5.09999" stroke="#30313D" stroke-width="1.4" stroke-linecap="round" stroke-linejoin="round"/>
</svg>
