<svg width="18" height="19" viewBox="0 0 18 19" fill="none" xmlns="http://www.w3.org/2000/svg">
<path d="M3.10256 9.26199C1.90128 8.83459 1.30064 8.62079 1.12168 8.29669C0.966601 8.01574 0.959344 7.67654 1.10227 7.38927C1.26721 7.05775 1.85818 6.81854 3.04009 6.34015L14.1806 1.8309C15.3446 1.35973 15.9266 1.12416 16.2944 1.24494C16.6135 1.34979 16.8638 1.60009 16.9687 1.91925C17.0895 2.28694 16.8538 2.86896 16.3827 4.03302L11.8735 15.1735C11.3951 16.3554 11.1559 16.9464 10.8243 17.1114C10.5371 17.2543 10.1979 17.247 9.91692 17.0919C9.59281 16.9129 9.37902 16.3123 8.95161 15.111L7.64292 11.4331C7.55979 11.1994 7.51822 11.0826 7.45027 10.985C7.39014 10.8985 7.31509 10.8235 7.22858 10.7633C7.13101 10.6954 7.01415 10.6538 6.78045 10.5707L3.10256 9.26199Z" stroke="#666666" stroke-width="1.6" stroke-linecap="round" stroke-linejoin="round"/>
</svg>
