<svg width="16" height="17" viewBox="0 0 16 17" fill="none" xmlns="http://www.w3.org/2000/svg">
<path d="M16 15.1386H14.6667V8.47192C14.6667 7.94149 14.456 7.43278 14.0809 7.05771C13.7058 6.68264 13.1971 6.47192 12.6667 6.47192H8.66667V4.33459C8.97079 4.20425 9.22998 3.98753 9.41212 3.7113C9.59426 3.43507 9.69134 3.11147 9.69133 2.78059C9.69133 1.84659 8 0.471924 8 0.471924C8 0.471924 6.30867 1.84659 6.30867 2.78059C6.30866 3.11147 6.40574 3.43507 6.58788 3.7113C6.77002 3.98753 7.02921 4.20425 7.33333 4.33459V6.47192H3.33333C2.8029 6.47192 2.29419 6.68264 1.91912 7.05771C1.54405 7.43278 1.33333 7.94149 1.33333 8.47192V15.1386H0V16.4719H16V15.1386ZM3.33333 7.80526H12.6667C12.8435 7.80526 13.013 7.8755 13.1381 8.00052C13.2631 8.12554 13.3333 8.29511 13.3333 8.47192V10.4586C12.7093 10.3919 12.3333 9.99192 12.3333 9.80526H11C11 10.0339 10.5453 10.4719 9.83333 10.4719C9.10733 10.4719 8.66667 10.0093 8.66667 9.80526H7.33333C7.33333 10.0339 6.87867 10.4719 6.16667 10.4719C5.44067 10.4719 5 10.0093 5 9.80526H3.66667C3.66667 10.0153 3.28067 10.3973 2.66667 10.4593V8.47192C2.66667 8.29511 2.7369 8.12554 2.86193 8.00052C2.98695 7.8755 3.15652 7.80526 3.33333 7.80526ZM2.66667 11.7913C3.27913 11.7641 3.86529 11.5345 4.33333 11.1386C4.84758 11.5673 5.49539 11.8029 6.16486 11.8047C6.83434 11.8065 7.48343 11.5744 8 11.1486C8.51657 11.5744 9.16566 11.8065 9.83514 11.8047C10.5046 11.8029 11.1524 11.5673 11.6667 11.1386C12.1348 11.5343 12.721 11.7636 13.3333 11.7906V15.1386H2.66667V11.7913Z" fill="#666666"/>
</svg>
