<svg width="12" height="16" viewBox="0 0 12 16" fill="none" xmlns="http://www.w3.org/2000/svg">
<path d="M5.50681 8.12879C7.53149 8.12879 9.17802 6.48226 9.17802 4.45759C9.17802 2.43291 7.53149 0.786377 5.50681 0.786377C3.48214 0.786377 1.8356 2.43291 1.8356 4.45759C1.8356 6.48226 3.48214 8.12879 5.50681 8.12879ZM5.50681 2.01011C6.85659 2.01011 7.95429 3.1078 7.95429 4.45759C7.95429 5.80737 6.85659 6.90506 5.50681 6.90506C4.15703 6.90506 3.05934 5.80737 3.05934 4.45759C3.05934 3.1078 4.15703 2.01011 5.50681 2.01011ZM11.0136 14.8593C11.0136 15.1971 10.7401 15.4712 10.4018 15.4712C10.0634 15.4712 9.78989 15.1971 9.78989 14.8593C9.78989 13.0121 8.61204 11.439 6.96979 10.8394L6.04159 12.232L6.71036 14.6733C6.82233 15.0808 6.46255 15.4718 5.9755 15.4718H5.03812C4.55108 15.4718 4.19191 15.0808 4.30327 14.6733L4.97204 12.232L4.04384 10.8394C2.40158 11.439 1.22374 13.0121 1.22374 14.86C1.22374 15.1977 0.949619 15.4718 0.611868 15.4718C0.274117 15.4718 0 15.1977 0 14.86C0 11.8239 2.47072 9.35314 5.50681 9.35314C8.5429 9.35314 11.0136 11.8233 11.0136 14.8593Z" fill="#666666"/>
</svg>
