<svg width="13" height="15" viewBox="0 0 13 15" fill="#8A8A8A" xmlns="http://www.w3.org/2000/svg">
<path d="M6.5 8.19976C6.30109 8.19976 6.11032 8.27351 5.96967 8.40478C5.82902 8.53606 5.75 8.7141 5.75 8.89976V10.9998C5.75 11.1854 5.82902 11.3635 5.96967 11.4947C6.11032 11.626 6.30109 11.6998 6.5 11.6998C6.69891 11.6998 6.88968 11.626 7.03033 11.4947C7.17098 11.3635 7.25 11.1854 7.25 10.9998V8.89976C7.25 8.7141 7.17098 8.53606 7.03033 8.40478C6.88968 8.27351 6.69891 8.19976 6.5 8.19976ZM10.25 5.39976V3.99976C10.25 3.0715 9.85491 2.18126 9.15165 1.52488C8.44839 0.868505 7.49456 0.499756 6.5 0.499756C5.50544 0.499756 4.55161 0.868505 3.84835 1.52488C3.14509 2.18126 2.75 3.0715 2.75 3.99976V5.39976C2.15326 5.39976 1.58097 5.62101 1.15901 6.01483C0.737053 6.40866 0.5 6.9428 0.5 7.49976V12.3998C0.5 12.9567 0.737053 13.4909 1.15901 13.8847C1.58097 14.2785 2.15326 14.4998 2.75 14.4998H10.25C10.8467 14.4998 11.419 14.2785 11.841 13.8847C12.2629 13.4909 12.5 12.9567 12.5 12.3998V7.49976C12.5 6.9428 12.2629 6.40866 11.841 6.01483C11.419 5.62101 10.8467 5.39976 10.25 5.39976ZM4.25 3.99976C4.25 3.4428 4.48705 2.90866 4.90901 2.51483C5.33097 2.12101 5.90326 1.89976 6.5 1.89976C7.09674 1.89976 7.66903 2.12101 8.09099 2.51483C8.51295 2.90866 8.75 3.4428 8.75 3.99976V5.39976H4.25V3.99976ZM11 12.3998C11 12.5854 10.921 12.7635 10.7803 12.8947C10.6397 13.026 10.4489 13.0998 10.25 13.0998H2.75C2.55109 13.0998 2.36032 13.026 2.21967 12.8947C2.07902 12.7635 2 12.5854 2 12.3998V7.49976C2 7.3141 2.07902 7.13606 2.21967 7.00478C2.36032 6.87351 2.55109 6.79976 2.75 6.79976H10.25C10.4489 6.79976 10.6397 6.87351 10.7803 7.00478C10.921 7.13606 11 7.3141 11 7.49976V12.3998Z" fill="#8A8A8A"/>
</svg>
