<svg width="17" height="15" viewBox="0 0 17 15" fill="#8A8A8A" xmlns="http://www.w3.org/2000/svg">
<path fill-rule="evenodd" clip-rule="evenodd" d="M2.50212 2.36191C1.98554 2.84158 1.63958 3.61989 1.63958 4.8408V10.1588C1.63958 11.3797 1.98554 12.158 2.50212 12.6377C3.02633 13.1245 3.81615 13.3876 4.86839 13.3876H12.4656C13.5178 13.3876 14.3076 13.1245 14.8319 12.6377C15.3484 12.158 15.6944 11.3797 15.6944 10.1588V4.8408C15.6944 3.61989 15.3484 2.84158 14.8319 2.36191C14.3076 1.87514 13.5178 1.61199 12.4656 1.61199H4.86839C3.81615 1.61199 3.02633 1.87514 2.50212 2.36191ZM1.72669 1.52683C2.53198 0.779058 3.64146 0.472412 4.86839 0.472412H12.4656C13.6925 0.472412 14.802 0.779058 15.6073 1.52683C16.4202 2.2817 16.834 3.40269 16.834 4.8408V10.1588C16.834 11.597 16.4202 12.718 15.6073 13.4728C14.802 14.2206 13.6925 14.5272 12.4656 14.5272H4.86839C3.64146 14.5272 2.53198 14.2206 1.72669 13.4728C0.913759 12.718 0.5 11.597 0.5 10.1588V4.8408C0.5 3.40269 0.913759 2.2817 1.72669 1.52683Z" fill="#8A8A8A"/>
<path fill-rule="evenodd" clip-rule="evenodd" d="M14.2603 3.93676C14.4527 4.18577 14.4068 4.54361 14.1579 4.73602L9.94363 7.9924C9.1912 8.57374 8.14119 8.57374 7.38876 7.9924L3.17455 4.73602C2.92554 4.54361 2.87966 4.18577 3.07207 3.93676C3.26449 3.68775 3.62232 3.64187 3.87134 3.83428L8.0855 7.09062C8.42753 7.35492 8.90486 7.35492 9.24681 7.09062L13.4611 3.83428C13.7101 3.64187 14.0679 3.68775 14.2603 3.93676Z" fill="#8A8A8A"/>
</svg>
