<svg width="17" height="13" viewBox="0 0 17 13" fill="none" xmlns="http://www.w3.org/2000/svg">
<path d="M16.0258 4.83215C15.0237 3.20019 12.7444 0.462158 8.74395 0.462158C4.74351 0.462158 2.46418 3.20019 1.46214 4.83215C1.15237 5.33318 0.988281 5.91059 0.988281 6.49965C0.988281 7.0887 1.15237 7.66611 1.46214 8.16714C2.46418 9.79911 4.74351 12.5371 8.74395 12.5371C12.7444 12.5371 15.0237 9.79911 16.0258 8.16714C16.3355 7.66611 16.4996 7.0887 16.4996 6.49965C16.4996 5.91059 16.3355 5.33318 16.0258 4.83215ZM14.9242 7.49071C14.0637 8.89009 12.1158 11.245 8.74395 11.245C5.37213 11.245 3.42424 8.89009 2.56368 7.49071C2.37964 7.1929 2.28216 6.84973 2.28216 6.49965C2.28216 6.14956 2.37964 5.80639 2.56368 5.50858C3.42424 4.1092 5.37213 1.75429 8.74395 1.75429C12.1158 1.75429 14.0637 4.10662 14.9242 5.50858C15.1083 5.80639 15.2057 6.14956 15.2057 6.49965C15.2057 6.84973 15.1083 7.1929 14.9242 7.49071Z" fill="#6A7383"/>
<path d="M8.744 3.26929C8.10511 3.26929 7.48055 3.45874 6.94933 3.8137C6.4181 4.16865 6.00406 4.67316 5.75957 5.26342C5.51507 5.85369 5.4511 6.5032 5.57574 7.12982C5.70039 7.75645 6.00805 8.33204 6.45982 8.78381C6.91159 9.23558 7.48718 9.54324 8.1138 9.66788C8.74042 9.79252 9.38993 9.72855 9.9802 9.48405C10.5705 9.23956 11.075 8.82552 11.4299 8.29429C11.7849 7.76307 11.9743 7.13852 11.9743 6.49962C11.9733 5.6432 11.6326 4.82214 11.0271 4.21656C10.4215 3.61098 9.60043 3.27031 8.744 3.26929ZM8.744 8.43782C8.36066 8.43782 7.98593 8.32414 7.6672 8.11117C7.34846 7.8982 7.10004 7.59549 6.95334 7.24133C6.80664 6.88717 6.76826 6.49747 6.84305 6.12149C6.91783 5.74552 7.10243 5.40017 7.37349 5.1291C7.64455 4.85804 7.98991 4.67345 8.36588 4.59866C8.74185 4.52388 9.13156 4.56226 9.48572 4.70896C9.83988 4.85565 10.1426 5.10408 10.3556 5.42281C10.5685 5.74155 10.6822 6.11628 10.6822 6.49962C10.6822 7.01366 10.478 7.50665 10.1145 7.87013C9.75104 8.23361 9.25805 8.43782 8.744 8.43782Z" fill="#6A7383"/>
</svg>
