<svg width="17" height="13" viewBox="0 0 24 24" fill="none" xmlns="http://www.w3.org/2000/svg">
  <path d="M3 3L21 21" stroke="#6A7383" stroke-width="2" stroke-linecap="round" stroke-linejoin="round"/>
  <path d="M10.58 10.58C10.21 10.95 10 11.45 10 12C10 13.1 10.9 14 12 14C12.55 14 13.05 13.79 13.42 13.42M17.94 17.94C16.2 19.23 14.13 20 12 20C7 20 2.73 15.64 1 12C1.83 10.33 3.13 8.87 4.76 7.76M9.88 5.19C10.57 5.06 11.28 5 12 5C17 5 21.27 9.36 23 12C22.45 13.01 21.77 13.95 20.98 14.79" stroke="#6A7383" stroke-width="2" stroke-linecap="round" stroke-linejoin="round"/>
</svg>
