<svg width="16" height="16" viewBox="0 0 16 16" fill="none" xmlns="http://www.w3.org/2000/svg">
<path fill-rule="evenodd" clip-rule="evenodd" d="M6.99945 13.332C6.60522 14.8662 5.2128 16 3.55556 16C1.59188 16 0 14.4081 0 12.4444C0 10.7872 1.13381 9.39478 2.66804 9.00055C2.66713 8.96344 2.66667 8.92622 2.66667 8.88889C2.66667 7.05632 3.77578 5.4828 5.35937 4.80298C5.62558 2.10645 7.90013 0 10.6667 0C13.6122 0 16 2.38781 16 5.33333C16 8.09987 13.8936 10.3744 11.197 10.6406C10.5172 12.2242 8.94368 13.3333 7.11111 13.3333C7.07378 13.3333 7.03656 13.3329 6.99945 13.332ZM7.22277 4.44582C9.58866 4.50416 11.4958 6.41134 11.5542 8.77723C13.0884 8.383 14.2222 6.99057 14.2222 5.33333C14.2222 3.36965 12.6303 1.77778 10.6667 1.77778C9.00943 1.77778 7.617 2.91159 7.22277 4.44582ZM6.99849 11.5532C7.03584 11.5548 7.07338 11.5556 7.11111 11.5556C8.58387 11.5556 9.77778 10.3616 9.77778 8.88889C9.77778 7.41613 8.58387 6.22222 7.11111 6.22222C5.63835 6.22222 4.44444 7.41613 4.44444 8.88889C4.44444 8.92662 4.44523 8.96416 4.44678 9.00151C5.69432 9.32351 6.67649 10.3057 6.99849 11.5532ZM3.55556 14.2222C4.5374 14.2222 5.33333 13.4263 5.33333 12.4444C5.33333 11.4626 4.5374 10.6667 3.55556 10.6667C2.57372 10.6667 1.77778 11.4626 1.77778 12.4444C1.77778 13.4263 2.57372 14.2222 3.55556 14.2222Z" fill="#666666"/>
</svg>
