<svg width="17" height="17" viewBox="0 0 17 17" fill="none" xmlns="http://www.w3.org/2000/svg">
<path d="M15.4749 8.50016C15.4749 9.3939 15.2989 10.2789 14.9569 11.1046C14.6148 11.9304 14.1136 12.6806 13.4816 13.3126C12.8496 13.9446 12.0993 14.4459 11.2736 14.7879C10.4479 15.1299 9.56284 15.306 8.6691 15.306C7.77536 15.306 6.89035 15.1299 6.06463 14.7879C5.23891 14.4459 4.48864 13.9446 3.85666 13.3126C3.22468 12.6806 2.72337 11.9304 2.38134 11.1046C2.03932 10.2789 1.86328 9.3939 1.86328 8.50016C1.86328 7.60642 2.03932 6.7214 2.38135 5.89568C2.72337 5.06996 3.22468 4.3197 3.85666 3.68771C4.48864 3.05574 5.23891 2.55442 6.06463 2.2124C6.89035 1.87038 7.77536 1.69434 8.6691 1.69434C9.56284 1.69434 10.4479 1.87038 11.2736 2.2124C12.0993 2.55442 12.8496 3.05574 13.4816 3.68771C14.1136 4.3197 14.6148 5.06996 14.9569 5.89569C15.2989 6.7214 15.4749 7.60642 15.4749 8.50016Z" stroke="#8A8A8A" stroke-width="0.816699"/>
<path d="M11.3939 8.50016C11.3939 9.3939 11.3234 10.2789 11.1866 11.1046C11.0498 11.9304 10.8493 12.6806 10.5965 13.3126C10.3437 13.9446 10.0436 14.4459 9.71331 14.7879C9.38303 15.1299 9.02906 15.306 8.67155 15.306C8.31404 15.306 7.96007 15.1299 7.62978 14.7879C7.29947 14.4459 6.99936 13.9446 6.74657 13.3126C6.49378 12.6806 6.29325 11.9304 6.15644 11.1046C6.01963 10.2789 5.94922 9.3939 5.94922 8.50016C5.94922 7.60642 6.01963 6.7214 6.15644 5.89568C6.29325 5.06996 6.49378 4.3197 6.74657 3.68771C6.99936 3.05574 7.29947 2.55442 7.62978 2.2124C7.96007 1.87038 8.31404 1.69434 8.67155 1.69434C9.02906 1.69434 9.38303 1.87038 9.71331 2.2124C10.0436 2.55442 10.3437 3.05574 10.5965 3.68771C10.8493 4.3197 11.0498 5.06996 11.1866 5.89569C11.3234 6.7214 11.3939 7.60642 11.3939 8.50016Z" stroke="#8A8A8A" stroke-width="0.816699"/>
<path d="M1.86328 8.5H15.4749" stroke="#8A8A8A" stroke-width="0.816699" stroke-linecap="round"/>
</svg>
