<svg width="17" height="16" viewBox="0 0 17 16" fill="none" xmlns="http://www.w3.org/2000/svg">
<g id="Page-1">
<g id="Dribbble-Light-Preview">
<g id="icons">
<path id="edit_text_bar-[#1373]" fill-rule="evenodd" clip-rule="evenodd" d="M2.71921 11.2C2.25553 11.2 1.87922 10.8416 1.87922 10.4V5.6C1.87922 5.1584 2.25553 4.8 2.71921 4.8C3.18289 4.8 3.55923 4.4416 3.55923 4C3.55923 3.5584 3.18289 3.2 2.71921 3.2H1.87922C0.951024 3.2 0.199219 3.916 0.199219 4.8V11.2C0.199219 12.084 0.951024 12.8 1.87922 12.8H2.71921C3.18289 12.8 3.55923 12.4416 3.55923 12C3.55923 11.5584 3.18289 11.2 2.71921 11.2ZM15.3192 3.2H9.43921C8.97553 3.2 8.59922 3.5584 8.59922 4C8.59922 4.4416 8.97553 4.8 9.43921 4.8H14.4792C14.9429 4.8 15.3192 5.1584 15.3192 5.6V10.4C15.3192 10.8416 14.9429 11.2 14.4792 11.2H9.43921C8.97553 11.2 8.59922 11.5584 8.59922 12C8.59922 12.4416 8.97553 12.8 9.43921 12.8H15.3192C16.2474 12.8 16.9992 12.084 16.9992 11.2V4.8C16.9992 3.916 16.2474 3.2 15.3192 3.2ZM8.59922 15.2C8.59922 15.6416 8.22291 16 7.75923 16H4.39922C3.93554 16 3.55923 15.6416 3.55923 15.2C3.55923 14.7584 3.93554 14.4 4.39922 14.4H5.23921V1.6H4.39922C3.93554 1.6 3.55923 1.2416 3.55923 0.8C3.55923 0.3584 3.93554 0 4.39922 0H7.75923C8.22291 0 8.59922 0.3584 8.59922 0.8C8.59922 1.2416 8.22291 1.6 7.75923 1.6H6.91921V14.4H7.75923C8.22291 14.4 8.59922 14.7584 8.59922 15.2Z" fill="#666666"/>
</g>
</g>
</g>
</svg>
