<svg width="15" height="19" viewBox="0 0 15 19" fill="none" xmlns="http://www.w3.org/2000/svg">
<path id="Vector" d="M7.625 9.87463C10.1068 9.87463 12.125 7.85646 12.125 5.37481C12.125 2.89317 10.1068 0.875 7.625 0.875C5.14325 0.875 3.125 2.89317 3.125 5.37481C3.125 7.85646 5.14325 9.87463 7.625 9.87463ZM7.625 2.37494C9.2795 2.37494 10.625 3.72038 10.625 5.37481C10.625 7.02924 9.2795 8.37469 7.625 8.37469C5.9705 8.37469 4.625 7.02924 4.625 5.37481C4.625 3.72038 5.9705 2.37494 7.625 2.37494ZM14.375 18.1243C14.375 18.5383 14.0397 18.8743 13.625 18.8743C13.2102 18.8743 12.875 18.5383 12.875 18.1243C12.875 15.8601 11.4313 13.932 9.41825 13.197L8.2805 14.9039L9.10025 17.8963C9.2375 18.3958 8.7965 18.875 8.1995 18.875H7.0505C6.4535 18.875 6.01325 18.3958 6.14975 17.8963L6.9695 14.9039L5.83175 13.197C3.81875 13.932 2.375 15.8601 2.375 18.125C2.375 18.539 2.039 18.875 1.625 18.875C1.211 18.875 0.875 18.539 0.875 18.125C0.875 14.4037 3.9035 11.3753 7.625 11.3753C11.3465 11.3753 14.375 14.4029 14.375 18.1243Z" fill="#30313D"/>
</svg>
