<svg width="15" height="21" viewBox="0 0 15 21" fill="none" xmlns="http://www.w3.org/2000/svg">
<path id="Vector" d="M7.49969 10.4996C10.2571 10.4996 12.4995 8.25718 12.4995 5.49979C12.4995 2.74241 10.2571 0.5 7.49969 0.5C4.7423 0.5 2.4999 2.74241 2.4999 5.49979C2.4999 8.25718 4.7423 10.4996 7.49969 10.4996ZM7.49969 2.1666C9.33795 2.1666 10.8329 3.66154 10.8329 5.49979C10.8329 7.33805 9.33795 8.83299 7.49969 8.83299C5.66143 8.83299 4.16649 7.33805 4.16649 5.49979C4.16649 3.66154 5.66143 2.1666 7.49969 2.1666ZM14.9994 19.6659C14.9994 20.1258 14.6269 20.4992 14.1661 20.4992C13.7053 20.4992 13.3328 20.1258 13.3328 19.6659C13.3328 17.1501 11.7287 15.0077 9.49211 14.1911L8.22799 16.0877L9.13879 19.4125C9.29128 19.9675 8.8013 20.5 8.138 20.5H6.86138C6.19808 20.5 5.70893 19.9675 5.86059 19.4125L6.77139 16.0877L5.50727 14.1911C3.2707 15.0077 1.6666 17.1501 1.6666 19.6667C1.6666 20.1267 1.29328 20.5 0.833299 20.5C0.373318 20.5 0 20.1267 0 19.6667C0 15.5319 3.36486 12.167 7.49969 12.167C11.6345 12.167 14.9994 15.531 14.9994 19.6659Z" fill="white"/>
</svg>
