<svg width="21" height="22" viewBox="0 0 21 22" fill="none" xmlns="http://www.w3.org/2000/svg">
<rect x="0.370487" y="1.15735" width="19.6366" height="19.6366" rx="9.58452" fill="#C3C3C3"/>
<rect x="0.370487" y="1.15735" width="19.6366" height="19.6366" rx="9.58452" stroke="#818181" stroke-width="0.467537"/>
<path d="M10.19 10.9755C11.4792 10.9755 12.5276 9.92706 12.5276 8.63788C12.5276 7.3487 11.4792 6.30029 10.19 6.30029C8.9008 6.30029 7.85239 7.3487 7.85239 8.63788C7.85239 9.92706 8.9008 10.9755 10.19 10.9755ZM10.19 7.07949C11.0494 7.07949 11.7484 7.77843 11.7484 8.63788C11.7484 9.49734 11.0494 10.1963 10.19 10.1963C9.33052 10.1963 8.63159 9.49734 8.63159 8.63788C8.63159 7.77843 9.33052 7.07949 10.19 7.07949ZM13.6964 15.2611C13.6964 15.4761 13.5222 15.6507 13.3068 15.6507C13.0913 15.6507 12.9172 15.4761 12.9172 15.2611C12.9172 14.0849 12.1672 13.0832 11.1215 12.7014L10.5305 13.5881L10.9563 15.1426C11.0276 15.4021 10.7985 15.651 10.4884 15.651H9.89155C9.58143 15.651 9.35273 15.4021 9.42364 15.1426L9.84947 13.5881L9.25845 12.7014C8.21277 13.0832 7.46279 14.0849 7.46279 15.2614C7.46279 15.4765 7.28825 15.651 7.07319 15.651C6.85813 15.651 6.68359 15.4765 6.68359 15.2614C6.68359 13.3283 8.25679 11.7551 10.19 11.7551C12.1232 11.7551 13.6964 13.3279 13.6964 15.2611Z" fill="#30313D"/>
</svg>
