<svg width="33" height="33" viewBox="0 0 33 33" fill="none" xmlns="http://www.w3.org/2000/svg">
<g clip-path="url(#clip0_15941_70483)">
<path fill-rule="evenodd" clip-rule="evenodd" d="M4.97832 0.722656C3.57385 0.722656 2.43555 1.86197 2.43555 3.26593V30.253C2.43555 31.6579 3.57385 32.7962 4.97832 32.7962H27.9219C29.3264 32.7962 30.4652 31.6579 30.4652 30.253V10.9028L20.9903 0.722656H4.97832Z" fill="#FFC35E"/>
<path opacity="0.5" fill-rule="evenodd" clip-rule="evenodd" d="M20.9902 0.722656V8.02065C20.9902 8.8507 21.5436 10.9238 24.0498 10.9238H30.4656L20.9902 0.722656Z" fill="white"/>
<path d="M8.58934 23.5934V24.7152H6.46849V25.878H8.34369V26.9589H6.46849V28.22H8.58934V29.3418H5.06824V23.5934H8.58934ZM10.8987 26.1646H11.6602C12.217 26.1646 12.4545 25.8862 12.4545 25.444C12.4545 25.0018 12.217 24.7234 11.6602 24.7234H10.8987V26.1646ZM13.8793 25.444C13.8793 26.3939 13.2324 27.2783 11.7667 27.2783H10.8987V29.3418H9.49841V23.5934H11.7667C13.1751 23.5934 13.8793 24.3877 13.8793 25.444ZM18.7845 27.6304C18.7845 28.5966 18.0311 29.3991 16.6882 29.3991C15.4517 29.3991 14.4855 28.785 14.4445 27.6222H15.9349C15.9758 28.0644 16.2542 28.2773 16.6473 28.2773C17.0567 28.2773 17.3187 28.0726 17.3187 27.7368C17.3187 26.6723 14.4445 27.2455 14.4609 25.2065C14.4609 24.1175 15.3535 23.5115 16.5572 23.5115C17.81 23.5115 18.6535 24.1338 18.7108 25.2311H17.1959C17.1713 24.8626 16.9093 24.6415 16.5326 24.6333C16.1969 24.6252 15.943 24.7971 15.943 25.1574C15.943 26.1564 18.7845 25.7061 18.7845 27.6304Z" fill="#794C04"/>
</g>
<defs>
<clipPath id="clip0_15941_70483">
<rect width="32.0791" height="32.0791" fill="white" transform="translate(0.125 0.757812)"/>
</clipPath>
</defs>
</svg>
