<svg width="41" height="41" viewBox="0 0 41 41" fill="none" xmlns="http://www.w3.org/2000/svg">
<g clip-path="url(#clip0_17844_18473)">
<path fill-rule="evenodd" clip-rule="evenodd" d="M6.55211 0.439453C4.80023 0.439453 3.38086 1.85945 3.38086 3.6107V37.2613C3.38086 39.0132 4.80023 40.4326 6.55211 40.4326H35.1609C36.9115 40.4326 38.3321 39.0132 38.3321 37.2613V13.1332L26.5184 0.439453H6.55211Z" fill="#21A366"/>
<path fill-rule="evenodd" clip-rule="evenodd" d="M38.3383 13.1598V13.7848H30.3389C30.3389 13.7848 26.3939 12.9973 26.5083 9.59229C26.5083 9.59229 26.6383 13.1598 30.2608 13.1598H38.3383Z" fill="#025C32"/>
<path opacity="0.5" fill-rule="evenodd" clip-rule="evenodd" d="M26.5234 0.439453V9.54008C26.5234 10.5751 27.2134 13.1601 30.3384 13.1601H38.3378L26.5234 0.439453Z" fill="#DCFFEF"/>
<path d="M9.41161 34.5229L8.24064 32.7624L7.20887 34.5229H5.62028L7.46272 31.5996L5.57934 28.7745H7.20887L8.36347 30.5105L9.37886 28.7745H10.9674L9.14139 31.6733L11.0411 34.5229H9.41161ZM13.1443 33.4421H14.9786V34.5229H11.7441V28.7745H13.1443V33.4421ZM22.1564 28.7745V34.5229H20.7562V31.0755L19.4706 34.5229H18.3405L17.0467 31.0674V34.5229H15.6465V28.7745H17.3006L18.9137 32.7542L20.5105 28.7745H22.1564ZM25.2433 34.5803C24.8229 34.5803 24.4462 34.512 24.1132 34.3756C23.7802 34.2391 23.5127 34.0371 23.3108 33.7696C23.1142 33.5021 23.0105 33.18 22.9996 32.8033H24.4899C24.5118 33.0162 24.5855 33.18 24.711 33.2947C24.8366 33.4038 25.0003 33.4584 25.2023 33.4584C25.4098 33.4584 25.5735 33.412 25.6936 33.3192C25.8137 33.221 25.8738 33.0872 25.8738 32.918C25.8738 32.776 25.8247 32.6587 25.7264 32.5659C25.6336 32.4731 25.5162 32.3966 25.3743 32.3366C25.2378 32.2765 25.0413 32.2083 24.7847 32.1319C24.4135 32.0172 24.1105 31.9026 23.8758 31.788C23.641 31.6733 23.439 31.5041 23.2698 31.2803C23.1006 31.0564 23.016 30.7644 23.016 30.4041C23.016 29.8691 23.2098 29.4515 23.5974 29.1512C23.985 28.8455 24.4899 28.6927 25.1123 28.6927C25.7455 28.6927 26.2559 28.8455 26.6435 29.1512C27.0311 29.4515 27.2386 29.8718 27.2659 30.4123H25.751C25.74 30.2267 25.6718 30.082 25.5462 29.9783C25.4207 29.8691 25.2596 29.8145 25.0631 29.8145C24.8939 29.8145 24.7574 29.8609 24.6537 29.9537C24.55 30.041 24.4981 30.1693 24.4981 30.3386C24.4981 30.5242 24.5855 30.6688 24.7601 30.7726C24.9348 30.8763 25.2078 30.9882 25.579 31.1083C25.9502 31.2339 26.2505 31.354 26.4798 31.4686C26.7145 31.5832 26.9165 31.7497 27.0857 31.9681C27.2549 32.1865 27.3396 32.4676 27.3396 32.8115C27.3396 33.1391 27.2549 33.4366 27.0857 33.7041C26.9219 33.9716 26.6817 34.1845 26.3651 34.3428C26.0485 34.5011 25.6745 34.5803 25.2433 34.5803Z" fill="white"/>
</g>
<defs>
<clipPath id="clip0_17844_18473">
<rect width="40" height="40" fill="white" transform="translate(0.5 0.500488)"/>
</clipPath>
</defs>
</svg>
