<svg width="17" height="19" viewBox="0 0 17 19" fill="none" xmlns="http://www.w3.org/2000/svg">
<g clip-path="url(#clip0_17808_22603)">
<path d="M14.564 4.83648L11.9535 2.30012C10.9429 1.3183 9.59556 0.827393 8.16398 0.827393H4.71135C2.60609 0.909211 0.921875 2.54557 0.921875 4.50921V14.5728C0.921875 16.5365 2.60609 18.1728 4.71135 18.1728H12.2903C14.3956 18.1728 16.0798 16.5365 16.0798 14.5728V8.43648C16.0798 7.12739 15.4903 5.8183 14.564 4.9183V4.83648ZM13.4692 5.90012C13.7219 6.14557 13.8903 6.39103 14.0587 6.63648H10.7745C10.3535 6.63648 10.0166 6.30921 10.0166 5.90012V2.79103C10.2692 2.95467 10.6061 3.1183 10.7745 3.36376L13.385 5.90012H13.4692ZM14.564 14.491C14.564 15.6365 13.5535 16.6183 12.2903 16.6183H4.71135C3.44819 16.6183 2.43766 15.6365 2.43766 14.491V4.50921C2.43766 3.36376 3.44819 2.38194 4.71135 2.38194H8.16398C8.24819 2.38194 8.41661 2.38194 8.50082 2.38194V5.98194C8.50082 7.12739 9.51135 8.10921 10.7745 8.10921H14.564C14.564 8.19103 14.564 8.35467 14.564 8.43648V14.5728V14.491ZM5.72187 12.2819C5.38503 12.0365 5.38503 11.5456 5.72187 11.3001L6.98503 10.1547C7.40609 9.74557 7.99556 9.50012 8.58503 9.50012C9.17451 9.50012 9.76398 9.74557 10.185 10.1547L11.4482 11.3001C11.785 11.5456 11.785 12.0365 11.4482 12.2819C11.1113 12.5274 10.6903 12.5274 10.3535 12.2819L9.34293 11.3819V14.491C9.34293 14.9001 9.00609 15.2274 8.58503 15.2274C8.16398 15.2274 7.82714 14.9001 7.82714 14.491V11.3819L6.81661 12.2819C6.47977 12.5274 6.05872 12.5274 5.72187 12.2819Z" fill="#2580D3"/>
</g>
<defs>
<clipPath id="clip0_17808_22603">
<rect width="16" height="18" fill="white" transform="translate(0.5 0.500122)"/>
</clipPath>
</defs>
</svg>
