<svg width="33" height="33" viewBox="0 0 33 33" fill="none" xmlns="http://www.w3.org/2000/svg">
<g clip-path="url(#clip0_15941_70448)">
<path fill-rule="evenodd" clip-rule="evenodd" d="M4.71219 0.330078C3.30823 0.330078 2.16992 1.46889 2.16992 2.87335V29.8604C2.16992 31.2649 3.30873 32.4032 4.71219 32.4032H27.6563C29.0607 32.4032 30.2 31.2649 30.2 29.8604V10.5097L20.7247 0.330078H4.71219Z" fill="#C2D8FF"/>
<path fill-rule="evenodd" clip-rule="evenodd" d="M30.1866 10.5246V11.0259H23.7713C23.7713 11.0259 20.6075 10.3943 20.6992 7.66406C20.6992 7.66406 20.8035 10.5246 23.7086 10.5246H30.1866Z" fill="#3A57A5"/>
<path opacity="0.5" fill-rule="evenodd" clip-rule="evenodd" d="M20.7129 0.324219V7.62272C20.7129 8.45276 21.2663 10.5254 23.7724 10.5254H30.1878L20.7129 0.324219Z" fill="#1E6DF9"/>
<path d="M4.36316 28.998V23.2496H8.10536V24.3715H5.76342V25.5834H7.51578V26.6725H5.76342V28.998H4.36316ZM8.84131 28.998V23.2496H10.2416V28.998H8.84131ZM11.2563 23.2496H12.6566V27.9171H14.4908V28.998H11.2563V23.2496ZM18.6798 23.2496V24.3715H16.5589V25.5343H18.4341V26.6152H16.5589V27.8762H18.6798V28.998H15.1587V23.2496H18.6798Z" fill="#3A57A5"/>
</g>
<defs>
<clipPath id="clip0_15941_70448">
<rect width="32.0791" height="32.0791" fill="white" transform="translate(0.125 0.363281)"/>
</clipPath>
</defs>
</svg>
