<svg width="237" height="36" viewBox="0 0 237 36" fill="none" xmlns="http://www.w3.org/2000/svg">
<path d="M103.886 27.6109C103.886 28.9094 104.436 29.6668 106.16 29.6668C106.828 29.6668 107.515 29.6095 108.177 29.5077V25.4723H110.513V31.3281C109.139 31.729 107.515 31.9264 106.141 31.9264C102.943 31.9264 101.413 30.5452 101.413 27.9101V22.2326C101.413 19.4957 102.981 18.2163 106.372 18.2163C107.434 18.2163 108.939 18.3372 110.119 18.6555L109.844 20.8514C108.645 20.5904 107.452 20.4886 106.178 20.4886C104.455 20.4886 103.886 21.2078 103.886 22.5699V27.6046V27.6109Z" fill="#929292"/>
<path d="M117.651 24.0277C116.727 24.4478 115.983 24.8869 115.122 25.447V31.7229H112.73V21.9909H114.747L114.903 23.0729C115.434 22.7165 116.57 22.0354 117.414 21.7936L117.651 24.034V24.0277Z" fill="#929292"/>
<path d="M122.654 31.9265C119.381 31.9265 118.494 30.0871 118.494 28.0885V25.6316C118.494 23.633 119.375 21.7936 122.654 21.7936C125.932 21.7936 126.813 23.633 126.813 25.6316V28.0885C126.813 30.0871 125.932 31.9265 122.654 31.9265ZM122.654 23.8685C121.38 23.8685 120.886 24.4478 120.886 25.5489V28.1649C120.886 29.266 121.373 29.8452 122.654 29.8452C123.934 29.8452 124.421 29.266 124.421 28.1649V25.5489C124.421 24.4478 123.928 23.8685 122.654 23.8685Z" fill="#929292"/>
<path d="M131.085 21.9907V28.7885C131.085 29.3104 131.303 29.565 131.846 29.565C132.434 29.565 133.477 29.2022 134.338 28.7439V21.9907H136.73V31.7227H134.907L134.669 30.9016C133.47 31.4999 131.965 31.92 130.847 31.92C129.261 31.92 128.693 30.7807 128.693 29.0431V21.9907H131.085Z" fill="#929292"/>
<path d="M147.248 28.4895C147.248 30.6472 146.305 31.9265 144.088 31.9265C143.245 31.9265 142.283 31.8056 141.54 31.6465V35.6628L139.148 36.0001V21.9909H141.052L141.29 22.812C142.133 22.1946 143.113 21.7936 144.313 21.7936C146.236 21.7936 147.254 22.952 147.254 25.1734V28.4895H147.248ZM141.54 29.5842C142.164 29.7243 142.97 29.8452 143.657 29.8452C144.519 29.8452 144.856 29.4251 144.856 28.5468V25.1097C144.856 24.3077 144.562 23.8685 143.682 23.8685C142.895 23.8685 142.052 24.2695 141.546 24.7469V29.5842H141.54Z" fill="#929292"/>
<path d="M104.373 2.95964H100.726V0.738281H110.494V2.95964H106.846V14.0537H104.373V2.95964Z" fill="#929292"/>
<path d="M114.185 14.251C110.912 14.251 110.026 12.4115 110.026 10.413V7.95609C110.026 5.95751 110.906 4.11804 114.185 4.11804C117.464 4.11804 118.344 5.95751 118.344 7.95609V10.413C118.344 12.4115 117.464 14.251 114.185 14.251ZM114.185 6.19937C112.911 6.19937 112.417 6.77858 112.417 7.87971V10.4957C112.417 11.5968 112.911 12.176 114.185 12.176C115.459 12.176 115.952 11.5968 115.952 10.4957V7.87971C115.952 6.77858 115.465 6.19937 114.185 6.19937Z" fill="#929292"/>
<path d="M120.323 14.0538V0.337341L122.715 0V14.0538H120.323ZM128.442 4.31542L125.638 9.13367L128.561 14.0474H125.932L123.046 9.13367L125.769 4.31542H128.436H128.442Z" fill="#929292"/>
<path d="M135.087 14.0537L133.813 17.9936H131.54L132.739 14.0537H131.896L128.873 4.32178H131.321L133.501 11.7178L135.699 4.32178H138.154L135.094 14.0537H135.087Z" fill="#929292"/>
<path d="M142.913 14.251C139.641 14.251 138.754 12.4115 138.754 10.413V7.95609C138.754 5.95751 139.635 4.11804 142.913 4.11804C146.192 4.11804 147.073 5.95751 147.073 7.95609V10.413C147.073 12.4115 146.192 14.251 142.913 14.251ZM142.913 6.19937C141.639 6.19937 141.146 6.77858 141.146 7.87971V10.4957C141.146 11.5968 141.633 12.176 142.913 12.176C144.194 12.176 144.681 11.5968 144.681 10.4957V7.87971C144.681 6.77858 144.188 6.19937 142.913 6.19937Z" fill="#929292"/>
<path d="M152.644 4.39828C152.644 1.96052 154.036 0.541138 157.29 0.541138C158.508 0.541138 159.763 0.700261 160.838 0.980318L160.563 3.15712C159.501 2.95981 158.271 2.81978 157.365 2.81978C155.66 2.81978 155.111 3.41808 155.111 4.83746V9.95486C155.111 11.3742 155.66 11.9725 157.365 11.9725C158.265 11.9725 159.501 11.8325 160.563 11.6352L160.838 13.812C159.757 14.0921 158.502 14.2512 157.29 14.2512C154.036 14.2512 152.644 12.8318 152.644 10.394V4.39828Z" fill="#929292"/>
<path d="M166.296 14.251C163.024 14.251 162.137 12.4115 162.137 10.413V7.95609C162.137 5.95751 163.018 4.11804 166.296 4.11804C169.575 4.11804 170.456 5.95751 170.456 7.95609V10.413C170.456 12.4115 169.575 14.251 166.296 14.251ZM166.296 6.19937C165.022 6.19937 164.529 6.77858 164.529 7.87971V10.4957C164.529 11.5968 165.016 12.176 166.296 12.176C167.577 12.176 168.064 11.5968 168.064 10.4957V7.87971C168.064 6.77858 167.57 6.19937 166.296 6.19937Z" fill="#929292"/>
<path d="M178.081 14.0537V7.25595C178.081 6.73403 177.862 6.47943 177.319 6.47943C176.732 6.47943 175.689 6.84223 174.827 7.30051V14.0537H172.435V4.31535H174.258L174.496 5.13643C175.695 4.53813 177.2 4.11804 178.318 4.11804C179.904 4.11804 180.473 5.25736 180.473 6.99499V14.0473H178.081V14.0537Z" fill="#929292"/>
<path d="M185.75 14.251C184.732 14.251 183.339 14.0091 182.452 13.6909L182.783 11.8323C183.589 12.0742 184.644 12.2524 185.625 12.2524C186.687 12.2524 186.843 12.0105 186.843 11.2722C186.843 10.6739 186.724 10.3748 185.175 9.99287C182.84 9.41366 182.565 8.81536 182.565 6.9377C182.565 5.06005 183.408 4.11804 186.137 4.11804C187.018 4.11804 188.179 4.23898 188.997 4.45538L188.76 6.39669C188.036 6.25666 186.88 6.11663 186.131 6.11663C185.088 6.11663 184.913 6.3585 184.913 6.9568C184.913 7.73332 184.969 7.79697 186.268 8.13431C188.935 8.85355 189.191 9.21635 189.191 11.2149C189.191 13.0926 188.623 14.251 185.737 14.251H185.75Z" fill="#929292"/>
<path d="M193.513 4.31543V11.1132C193.513 11.6351 193.732 11.8897 194.275 11.8897C194.862 11.8897 195.905 11.5269 196.767 11.0686V4.31543H199.159V14.0474H197.335L197.098 13.2263C195.899 13.8246 194.394 14.2447 193.276 14.2447C191.69 14.2447 191.121 13.1054 191.121 11.3678V4.31543H193.513Z" fill="#929292"/>
<path d="M201.576 14.0538V0.337341L203.968 0V14.0538H201.576Z" fill="#929292"/>
<path d="M211.463 13.8692C210.951 14.0856 209.97 14.2511 209.364 14.2511C207.622 14.2511 206.735 13.4109 206.735 11.6733V6.25676H205.305V4.31546H206.735V1.89679L209.127 1.55945V4.31546H211.575L211.419 6.25676H209.127V11.3551C209.127 11.877 209.364 12.2143 209.989 12.2143C210.339 12.2143 210.776 12.1316 211.188 12.017L211.463 13.8756V13.8692Z" fill="#929292"/>
<path d="M213.011 2.94063V0.120972H215.403V2.94063H213.011ZM213.011 14.0538V4.31546H215.403V14.0474H213.011V14.0538Z" fill="#929292"/>
<path d="M223.466 14.0537V7.25595C223.466 6.73403 223.248 6.47943 222.704 6.47943C222.117 6.47943 221.074 6.84223 220.212 7.30051V14.0537H217.82V4.31535H219.644L219.881 5.13643C221.081 4.53813 222.586 4.11804 223.704 4.11804C225.29 4.11804 225.858 5.25736 225.858 6.99499V14.0473H223.466V14.0537Z" fill="#929292"/>
<path d="M230.879 11.4314C230.567 11.6287 230.311 11.9087 230.311 12.2079C230.311 12.4688 230.467 12.5898 230.842 12.628C231.903 12.7489 232.49 12.8062 233.608 12.9271C235.157 13.1053 235.651 13.8882 235.651 15.2885C235.651 17.3698 234.907 18.1845 231.335 18.1845C230.236 18.1845 228.724 18.0254 227.65 17.6817L227.944 15.8613C228.962 16.1223 230.042 16.2814 231.16 16.2814C233.065 16.2814 233.433 16.1414 233.433 15.4985C233.433 14.9002 233.259 14.7984 232.534 14.722C231.435 14.6011 230.985 14.5438 229.767 14.4038C228.412 14.2447 227.888 13.7864 227.888 12.5452C227.888 11.7432 228.418 11.2277 228.887 10.884C228.006 10.343 227.594 9.4455 227.594 8.26799V7.35144C227.631 5.33376 228.674 4.11169 231.441 4.11169C232.091 4.11169 232.597 4.19444 233.071 4.30901H236.013V5.53107C235.682 5.63291 235.288 5.72839 234.951 5.83022C235.17 6.25031 235.282 6.79133 235.282 7.35144V8.26799C235.282 10.2475 234.108 11.4441 231.441 11.4441C231.248 11.4441 231.066 11.4441 230.892 11.425L230.879 11.4314ZM231.429 6.07846C230.255 6.07846 229.842 6.51764 229.842 7.43419V8.17252C229.842 9.13362 230.311 9.49006 231.429 9.49006C232.547 9.49006 233.04 9.10816 233.04 8.17252V7.43419C233.04 6.51764 232.628 6.07846 231.429 6.07846Z" fill="#929292"/>
<path d="M2.0235 5.02805C1.63004 5.02805 1.40521 5.20627 1.09919 5.47996L0.262306 6.15464L0 6.02098L2.72298 0.808105H33.4377L30.5711 6.15464H30.3525V5.65818C30.3525 5.30174 30.0902 5.02805 29.6468 5.02805H18.7611V30.3095C18.7611 30.6214 18.8048 30.8951 19.0234 31.1179L19.598 31.6589V31.9708H13.3838V31.6589L13.9584 31.1179C14.177 30.8951 14.2644 30.6214 14.2644 30.3095V5.02805H2.0235Z" fill="#929292"/>
<path d="M39.3892 7.09662C36.7474 9.38799 35.3796 12.5768 35.3796 16.3958C35.3796 20.4375 36.7037 23.5372 39.3455 25.6504C41.5501 27.4453 44.017 27.719 47.1459 27.719H60.4111C60.8108 27.719 61.0731 27.5853 61.3791 27.318L62.216 26.5988H62.5658L59.6991 31.9898H47.1397C42.8241 31.9898 39.4266 31.6334 35.9043 28.7119C32.4693 25.835 30.6581 21.7932 30.6581 16.8095C30.6581 12.9905 31.6699 9.62349 33.6996 6.79747C35.1548 4.82434 36.9597 3.2522 39.0769 2.17017C41.5875 0.90991 44.0982 0.820801 46.9648 0.820801H62.166L59.2994 6.16734H59.0808L59.1245 5.76635V5.67724C59.1245 5.3208 58.8185 5.04711 58.3751 5.04711H46.9648C43.6173 5.04711 41.1504 5.58813 39.3829 7.11571L39.3892 7.09662Z" fill="#929292"/>
<path d="M73.0086 7.09662C70.3668 9.38799 68.9991 12.5768 68.9991 16.3958C68.9991 20.4375 70.3231 23.5372 72.9649 25.6504C75.1695 27.4453 77.6364 27.719 80.7653 27.719H87.9912V16.854H78.3421C77.9487 16.854 77.6801 16.9877 77.3741 17.255L76.5372 17.9743L76.2749 17.7961L79.0541 12.5896H92.4941V30.3286C92.4941 30.6405 92.5816 30.9142 92.8002 31.1369L93.331 31.678V31.9898H80.7716C76.4498 31.9898 73.0585 31.6334 69.5362 28.7119C66.1012 25.835 64.29 21.7932 64.29 16.8095C64.29 12.9905 65.3018 9.62349 67.3315 6.79747C68.7867 4.82434 70.5916 3.2522 72.7088 2.17017C75.2194 0.90991 77.7301 0.820801 80.5967 0.820801H92.1007L89.2341 6.16734H88.9718L89.0155 5.76635V5.67724C89.0155 5.3208 88.7094 5.04711 88.266 5.04711H80.5967C77.2492 5.04711 74.7823 5.58813 73.0148 7.11571L73.0086 7.09662Z" fill="#929292"/>
</svg>
