<svg width="24" height="25" viewBox="0 0 24 25" fill="none" xmlns="http://www.w3.org/2000/svg">
<g clip-path="url(#clip0_14249_9566)">
<path d="M20.4844 3.81445C19.3125 2.64258 17.9922 1.75977 16.5234 1.16602C15.0547 0.587891 13.5508 0.298828 12.0117 0.298828C10.4727 0.298828 8.96875 0.587891 7.5 1.16602C6.03125 1.75977 4.71094 2.64258 3.53906 3.81445C2.36719 4.98633 1.48438 6.30664 0.890625 7.77539C0.3125 9.24414 0.0234375 10.748 0.0234375 12.2871C0.0234375 13.8262 0.3125 15.3301 0.890625 16.7988C1.48438 18.2676 2.36719 19.5879 3.53906 20.7598C4.71094 21.9316 6.03125 22.8145 7.5 23.4082C8.96875 23.9863 10.4727 24.2754 12.0117 24.2754C13.5508 24.2754 15.0547 23.9863 16.5234 23.4082C17.9922 22.8145 19.3125 21.9316 20.4844 20.7598C21.6562 19.5879 22.5391 18.2676 23.1328 16.7988C23.7109 15.3301 24 13.8262 24 12.2871C24 10.748 23.7109 9.24414 23.1328 7.77539C22.5391 6.30664 21.6562 4.98633 20.4844 3.81445ZM15.3047 7.63477H13.5703C13.4297 7.63477 13.2773 7.68555 13.1133 7.78711C12.9492 7.88867 12.8672 8.08789 12.8672 8.38477V10.002H15.3047L15.0234 12.7676H12.8672V20.6191H9.63281V12.7676H8.08594V10.002H9.63281V8.24414C9.63281 7.60352 9.84375 6.89648 10.2656 6.12305C10.6875 5.34961 11.5625 4.96289 12.8906 4.96289H15.3047V7.63477Z" fill="#797979"/>
</g>
<defs>
<clipPath id="clip0_14249_9566">
<rect width="24" height="24.6" fill="white" transform="matrix(1 0 0 -1 0 24.5996)"/>
</clipPath>
</defs>
</svg>
