<svg width="25" height="25" viewBox="0 0 25 25" fill="none" xmlns="http://www.w3.org/2000/svg">
<g clip-path="url(#clip0_14249_9548)">
<path d="M6.77734 6.88672L15.4492 18.4883H17.418L8.74609 6.88672H6.77734ZM12.0742 0.839844C10.4492 0.839844 8.91797 1.14453 7.48047 1.75391C6.02734 2.37891 4.76562 3.22656 3.69531 4.29688C2.625 5.36719 1.77734 6.62891 1.15234 8.08203C0.542969 9.51953 0.238281 11.0508 0.238281 12.6758C0.238281 14.3164 0.542969 15.8555 1.15234 17.293C1.77734 18.7305 2.625 19.9883 3.69531 21.0664C4.76562 22.1445 6.02734 22.9883 7.48047 23.5977C8.91797 24.2227 10.4492 24.5352 12.0742 24.5352C13.7148 24.5352 15.2539 24.2227 16.6914 23.5977C18.1289 22.9883 19.3867 22.1445 20.4648 21.0664C21.543 19.9883 22.3867 18.7305 22.9961 17.293C23.6211 15.8555 23.9336 14.3164 23.9336 12.6758C23.9336 11.0508 23.6211 9.51953 22.9961 8.08203C22.3867 6.62891 21.543 5.36719 20.4648 4.29688C19.3867 3.22656 18.1289 2.37891 16.6914 1.75391C15.2539 1.14453 13.7148 0.839844 12.0742 0.839844ZM14.9805 19.4023L11.043 14.1289L6.16797 19.4023H4.90234L10.4805 13.3789L4.94922 5.97266H9.21484L12.8477 10.8242L17.3477 5.97266H18.5898L13.4102 11.5742L19.2695 19.4023H14.9805Z" fill="black"/>
</g>
<defs>
<clipPath id="clip0_14249_9548">
<rect width="24" height="24.6" fill="white" transform="matrix(1 0 0 -1 0.0976562 25)"/>
</clipPath>
</defs>
</svg>
