<svg width="25" height="25" viewBox="0 0 25 25" fill="none" xmlns="http://www.w3.org/2000/svg">
<g clip-path="url(#clip0_14249_9560)">
<path d="M6.77734 6.48633L15.4492 18.0879H17.418L8.74609 6.48633H6.77734ZM12.0742 0.439453C10.4492 0.439453 8.91797 0.744141 7.48047 1.35352C6.02734 1.97852 4.76562 2.82617 3.69531 3.89648C2.625 4.9668 1.77734 6.22852 1.15234 7.68164C0.542969 9.11914 0.238281 10.6504 0.238281 12.2754C0.238281 13.916 0.542969 15.4551 1.15234 16.8926C1.77734 18.3301 2.625 19.5879 3.69531 20.666C4.76562 21.7441 6.02734 22.5879 7.48047 23.1973C8.91797 23.8223 10.4492 24.1348 12.0742 24.1348C13.7148 24.1348 15.2539 23.8223 16.6914 23.1973C18.1289 22.5879 19.3867 21.7441 20.4648 20.666C21.543 19.5879 22.3867 18.3301 22.9961 16.8926C23.6211 15.4551 23.9336 13.916 23.9336 12.2754C23.9336 10.6504 23.6211 9.11914 22.9961 7.68164C22.3867 6.22852 21.543 4.9668 20.4648 3.89648C19.3867 2.82617 18.1289 1.97852 16.6914 1.35352C15.2539 0.744141 13.7148 0.439453 12.0742 0.439453ZM14.9805 19.002L11.043 13.7285L6.16797 19.002H4.90234L10.4805 12.9785L4.94922 5.57227H9.21484L12.8477 10.4238L17.3477 5.57227H18.5898L13.4102 11.1738L19.2695 19.002H14.9805Z" fill="#797979"/>
</g>
<defs>
<clipPath id="clip0_14249_9560">
<rect width="24" height="24.6" fill="white" transform="matrix(1 0 0 -1 0.0976562 24.5996)"/>
</clipPath>
</defs>
</svg>
