<svg width="24" height="25" viewBox="0 0 24 25" fill="none" xmlns="http://www.w3.org/2000/svg">
<g clip-path="url(#clip0_14249_9554)">
<path d="M20.4844 4.21484C19.3125 3.04297 17.9922 2.16016 16.5234 1.56641C15.0547 0.988281 13.5508 0.699219 12.0117 0.699219C10.4727 0.699219 8.96875 0.988281 7.5 1.56641C6.03125 2.16016 4.71094 3.04297 3.53906 4.21484C2.36719 5.38672 1.48438 6.70703 0.890625 8.17578C0.3125 9.64453 0.0234375 11.1484 0.0234375 12.6875C0.0234375 14.2266 0.3125 15.7305 0.890625 17.1992C1.48438 18.668 2.36719 19.9883 3.53906 21.1602C4.71094 22.332 6.03125 23.2148 7.5 23.8086C8.96875 24.3867 10.4727 24.6758 12.0117 24.6758C13.5508 24.6758 15.0547 24.3867 16.5234 23.8086C17.9922 23.2148 19.3125 22.332 20.4844 21.1602C21.6562 19.9883 22.5391 18.668 23.1328 17.1992C23.7109 15.7305 24 14.2266 24 12.6875C24 11.1484 23.7109 9.64453 23.1328 8.17578C22.5391 6.70703 21.6562 5.38672 20.4844 4.21484ZM15.3047 8.03516H13.5703C13.4297 8.03516 13.2773 8.08594 13.1133 8.1875C12.9492 8.28906 12.8672 8.48828 12.8672 8.78516V10.4023H15.3047L15.0234 13.168H12.8672V21.0195H9.63281V13.168H8.08594V10.4023H9.63281V8.64453C9.63281 8.00391 9.84375 7.29688 10.2656 6.52344C10.6875 5.75 11.5625 5.36328 12.8906 5.36328H15.3047V8.03516Z" fill="#3B5998"/>
</g>
<defs>
<clipPath id="clip0_14249_9554">
<rect width="24" height="24.6" fill="white" transform="matrix(1 0 0 -1 0 25)"/>
</clipPath>
</defs>
</svg>
