<svg width="25" height="25" viewBox="0 0 25 25" fill="none" xmlns="http://www.w3.org/2000/svg">
<g clip-path="url(#clip0_14249_9550)">
<path d="M13.3867 11.2461V11.2227C13.3867 11.2227 13.3828 11.2227 13.375 11.2227C13.3672 11.2227 13.3711 11.2305 13.3867 11.2461ZM12.0977 0.699219C10.4414 0.699219 8.88672 1.01172 7.43359 1.63672C5.96484 2.26172 4.6875 3.11719 3.60156 4.20312C2.51562 5.28906 1.66016 6.56641 1.03516 8.03516C0.410156 9.48828 0.0976562 11.043 0.0976562 12.6992C0.0976562 14.3555 0.410156 15.9102 1.03516 17.3633C1.66016 18.832 2.51562 20.1094 3.60156 21.1953C4.6875 22.2812 5.96484 23.1367 7.43359 23.7617C8.88672 24.3867 10.4414 24.6992 12.0977 24.6992C13.7539 24.6992 15.3086 24.3867 16.7617 23.7617C18.2305 23.1367 19.5078 22.2812 20.5938 21.1953C21.6797 20.1094 22.5352 18.832 23.1602 17.3633C23.7852 15.9102 24.0977 14.3555 24.0977 12.6992C24.0977 11.043 23.7852 9.48828 23.1602 8.03516C22.5352 6.56641 21.6797 5.28906 20.5938 4.20312C19.5078 3.11719 18.2305 2.26172 16.7617 1.63672C15.3086 1.01172 13.7539 0.699219 12.0977 0.699219ZM8.93359 18.6055H6.07422V9.98047H8.93359V18.6055ZM7.50391 8.80859C7.00391 8.80859 6.60938 8.66406 6.32031 8.375C6.03125 8.08594 5.88672 7.73047 5.88672 7.30859C5.88672 6.88672 6.03516 6.53125 6.33203 6.24219C6.62891 5.95312 7.02734 5.80859 7.52734 5.80859C8.01172 5.80859 8.39453 5.95312 8.67578 6.24219C8.95703 6.53125 9.10547 6.88672 9.12109 7.30859C9.12109 7.73047 8.97266 8.08594 8.67578 8.375C8.37891 8.66406 7.98828 8.80859 7.50391 8.80859ZM19.2695 18.6055H16.3867V14.0117C16.3867 13.4336 16.2773 12.9648 16.0586 12.6055C15.8398 12.2461 15.4648 12.0664 14.9336 12.0664C14.543 12.0664 14.2266 12.1758 13.9844 12.3945C13.7422 12.6133 13.5664 12.8477 13.457 13.0977C13.4258 13.207 13.4062 13.3203 13.3984 13.4375C13.3906 13.5547 13.3867 13.6758 13.3867 13.8008V18.6289H10.5039C10.5039 18.6289 10.5117 18.2148 10.5273 17.3867C10.5273 16.5742 10.5273 15.6523 10.5273 14.6211C10.5273 13.5898 10.5273 12.6133 10.5273 11.6914C10.5273 10.7695 10.5195 10.207 10.5039 10.0039H13.3867V11.2227C13.5742 10.9414 13.8633 10.6328 14.2539 10.2969C14.6445 9.96094 15.2148 9.79297 15.9648 9.79297C16.9023 9.79297 17.6875 10.1094 18.3203 10.7422C18.9531 11.375 19.2695 12.3477 19.2695 13.6602V18.6055Z" fill="#0077B5"/>
</g>
<defs>
<clipPath id="clip0_14249_9550">
<rect width="24" height="24.6" fill="white" transform="matrix(1 0 0 -1 0.0976562 25)"/>
</clipPath>
</defs>
</svg>
