<svg width="24" height="25" viewBox="0 0 24 25" fill="none" xmlns="http://www.w3.org/2000/svg">
<g clip-path="url(#clip0_14249_9568)">
<path d="M11.9531 0.416016C10.2969 0.416016 8.74219 0.728516 7.28906 1.35352C5.83594 1.97852 4.57031 2.83008 3.49219 3.9082C2.41406 4.98633 1.5625 6.25195 0.9375 7.70508C0.3125 9.1582 0 10.7051 0 12.3457C0 14.002 0.3125 15.5566 0.9375 17.0098C1.5625 18.4629 2.41406 19.7285 3.49219 20.8066C4.57031 21.8848 5.83594 22.7363 7.28906 23.3613C8.74219 23.9863 10.2969 24.2988 11.9531 24.2988C13.5938 24.2988 15.1406 23.9863 16.5938 23.3613C18.0469 22.7363 19.3125 21.8848 20.3906 20.8066C21.4688 19.7285 22.3203 18.4629 22.9453 17.0098C23.5703 15.5566 23.8828 14.002 23.8828 12.3457C23.8828 10.7051 23.5703 9.1582 22.9453 7.70508C22.3203 6.25195 21.4688 4.98633 20.3906 3.9082C19.3125 2.83008 18.0469 1.97852 16.5938 1.35352C15.1406 0.728516 13.5938 0.416016 11.9531 0.416016ZM18.8672 15.3691C18.8672 16.416 18.4961 17.3105 17.7539 18.0527C17.0117 18.7949 16.1172 19.166 15.0703 19.166H8.90625C7.85938 19.166 6.96484 18.7949 6.22266 18.0527C5.48047 17.3105 5.10938 16.416 5.10938 15.3691V9.20508C5.10938 8.1582 5.48047 7.26367 6.22266 6.52148C6.96484 5.7793 7.85938 5.4082 8.90625 5.4082H15.0703C16.1016 5.4082 16.9922 5.7793 17.7422 6.52148C18.4922 7.26367 18.8672 8.1582 18.8672 9.20508V15.3691ZM14.1797 12.3223C14.1797 12.916 13.9648 13.4277 13.5352 13.8574C13.1055 14.2871 12.5859 14.502 11.9766 14.502C11.3828 14.502 10.8711 14.2871 10.4414 13.8574C10.0117 13.4277 9.79688 12.916 9.79688 12.3223C9.79688 11.7129 10.0117 11.1934 10.4414 10.7637C10.8711 10.334 11.3828 10.1191 11.9766 10.1191C12.5859 10.1191 13.1055 10.334 13.5352 10.7637C13.9648 11.1934 14.1797 11.7129 14.1797 12.3223ZM14.8828 6.65039H9.11719C8.35156 6.65039 7.69922 6.91992 7.16016 7.45898C6.62109 7.99805 6.35156 8.65039 6.35156 9.41602V15.1582C6.35156 15.9238 6.62109 16.5762 7.16016 17.1152C7.69922 17.6543 8.35156 17.9238 9.11719 17.9238H14.8828C15.6484 17.9238 16.3008 17.6504 16.8398 17.1035C17.3789 16.5566 17.6484 15.9082 17.6484 15.1582V9.41602C17.6484 8.65039 17.3789 7.99805 16.8398 7.45898C16.3008 6.91992 15.6484 6.65039 14.8828 6.65039ZM11.9766 15.8379C11.0078 15.8379 10.1797 15.4941 9.49219 14.8066C8.80469 14.1191 8.46094 13.291 8.46094 12.3223C8.46094 11.3379 8.80469 10.502 9.49219 9.81445C10.1797 9.12695 11.0078 8.7832 11.9766 8.7832C12.9609 8.7832 13.7969 9.12695 14.4844 9.81445C15.1719 10.502 15.5156 11.3379 15.5156 12.3223C15.5156 13.291 15.1719 14.1191 14.4844 14.8066C13.7969 15.4941 12.9609 15.8379 11.9766 15.8379ZM15.6797 9.46289C15.4453 9.46289 15.25 9.38477 15.0938 9.22852C14.9375 9.07227 14.8594 8.87695 14.8594 8.64258C14.8594 8.4082 14.9375 8.21289 15.0938 8.05664C15.25 7.90039 15.4453 7.82227 15.6797 7.82227C15.9141 7.82227 16.1094 7.90039 16.2656 8.05664C16.4219 8.21289 16.5 8.4082 16.5 8.64258C16.5 8.87695 16.4219 9.07227 16.2656 9.22852C16.1094 9.38477 15.9141 9.46289 15.6797 9.46289Z" fill="#797979"/>
</g>
<defs>
<clipPath id="clip0_14249_9568">
<rect width="24" height="24.6" fill="white" transform="matrix(1 0 0 -1 0 24.5996)"/>
</clipPath>
</defs>
</svg>
