<svg width="24" height="25" viewBox="0 0 24 25" fill="none" xmlns="http://www.w3.org/2000/svg">
<g clip-path="url(#clip0_14249_9556)">
<path d="M11.9531 0.816406C10.2969 0.816406 8.74219 1.12891 7.28906 1.75391C5.83594 2.37891 4.57031 3.23047 3.49219 4.30859C2.41406 5.38672 1.5625 6.65234 0.9375 8.10547C0.3125 9.55859 0 11.1055 0 12.7461C0 14.4023 0.3125 15.957 0.9375 17.4102C1.5625 18.8633 2.41406 20.1289 3.49219 21.207C4.57031 22.2852 5.83594 23.1367 7.28906 23.7617C8.74219 24.3867 10.2969 24.6992 11.9531 24.6992C13.5938 24.6992 15.1406 24.3867 16.5938 23.7617C18.0469 23.1367 19.3125 22.2852 20.3906 21.207C21.4688 20.1289 22.3203 18.8633 22.9453 17.4102C23.5703 15.957 23.8828 14.4023 23.8828 12.7461C23.8828 11.1055 23.5703 9.55859 22.9453 8.10547C22.3203 6.65234 21.4688 5.38672 20.3906 4.30859C19.3125 3.23047 18.0469 2.37891 16.5938 1.75391C15.1406 1.12891 13.5938 0.816406 11.9531 0.816406ZM18.8672 15.7695C18.8672 16.8164 18.4961 17.7109 17.7539 18.4531C17.0117 19.1953 16.1172 19.5664 15.0703 19.5664H8.90625C7.85938 19.5664 6.96484 19.1953 6.22266 18.4531C5.48047 17.7109 5.10938 16.8164 5.10938 15.7695V9.60547C5.10938 8.55859 5.48047 7.66406 6.22266 6.92188C6.96484 6.17969 7.85938 5.80859 8.90625 5.80859H15.0703C16.1016 5.80859 16.9922 6.17969 17.7422 6.92188C18.4922 7.66406 18.8672 8.55859 18.8672 9.60547V15.7695ZM14.1797 12.7227C14.1797 13.3164 13.9648 13.8281 13.5352 14.2578C13.1055 14.6875 12.5859 14.9023 11.9766 14.9023C11.3828 14.9023 10.8711 14.6875 10.4414 14.2578C10.0117 13.8281 9.79688 13.3164 9.79688 12.7227C9.79688 12.1133 10.0117 11.5938 10.4414 11.1641C10.8711 10.7344 11.3828 10.5195 11.9766 10.5195C12.5859 10.5195 13.1055 10.7344 13.5352 11.1641C13.9648 11.5938 14.1797 12.1133 14.1797 12.7227ZM14.8828 7.05078H9.11719C8.35156 7.05078 7.69922 7.32031 7.16016 7.85938C6.62109 8.39844 6.35156 9.05078 6.35156 9.81641V15.5586C6.35156 16.3242 6.62109 16.9766 7.16016 17.5156C7.69922 18.0547 8.35156 18.3242 9.11719 18.3242H14.8828C15.6484 18.3242 16.3008 18.0508 16.8398 17.5039C17.3789 16.957 17.6484 16.3086 17.6484 15.5586V9.81641C17.6484 9.05078 17.3789 8.39844 16.8398 7.85938C16.3008 7.32031 15.6484 7.05078 14.8828 7.05078ZM11.9766 16.2383C11.0078 16.2383 10.1797 15.8945 9.49219 15.207C8.80469 14.5195 8.46094 13.6914 8.46094 12.7227C8.46094 11.7383 8.80469 10.9023 9.49219 10.2148C10.1797 9.52734 11.0078 9.18359 11.9766 9.18359C12.9609 9.18359 13.7969 9.52734 14.4844 10.2148C15.1719 10.9023 15.5156 11.7383 15.5156 12.7227C15.5156 13.6914 15.1719 14.5195 14.4844 15.207C13.7969 15.8945 12.9609 16.2383 11.9766 16.2383ZM15.6797 9.86328C15.4453 9.86328 15.25 9.78516 15.0938 9.62891C14.9375 9.47266 14.8594 9.27734 14.8594 9.04297C14.8594 8.80859 14.9375 8.61328 15.0938 8.45703C15.25 8.30078 15.4453 8.22266 15.6797 8.22266C15.9141 8.22266 16.1094 8.30078 16.2656 8.45703C16.4219 8.61328 16.5 8.80859 16.5 9.04297C16.5 9.27734 16.4219 9.47266 16.2656 9.62891C16.1094 9.78516 15.9141 9.86328 15.6797 9.86328Z" fill="#D52C61"/>
</g>
<defs>
<clipPath id="clip0_14249_9556">
<rect width="24" height="24.6" fill="white" transform="matrix(1 0 0 -1 0 25)"/>
</clipPath>
</defs>
</svg>
