<svg width="24" height="25" viewBox="0 0 24 25" fill="none" xmlns="http://www.w3.org/2000/svg">
<g clip-path="url(#clip0_14249_9564)">
<path d="M14.6969 12.0645L10.7366 9.50941V14.7133L14.6969 12.0645ZM17.1575 7.42314C17.673 7.42314 18.1417 7.63411 18.5635 8.05606C18.9853 8.478 19.1962 8.93119 19.1962 9.41564V15.2759C19.1806 15.8385 18.9541 16.3191 18.5167 16.7176C18.0792 17.1161 17.6418 17.3153 17.2044 17.3153H6.96378C6.40137 17.3153 5.93269 17.0809 5.55775 16.6121C5.18281 16.1433 4.99534 15.7135 4.99534 15.3228V9.41564C4.9641 8.94682 5.175 8.48972 5.62805 8.04433C6.08111 7.59895 6.54197 7.39189 7.01065 7.42314H17.1575ZM0.191406 12.3692C0.191406 14.0101 0.503857 15.5494 1.12876 16.9871C1.75366 18.4405 2.60118 19.7024 3.67133 20.7729C4.74147 21.8434 6.003 22.6912 7.45589 23.3163C8.89317 23.9414 10.432 24.2539 12.0724 24.2539C13.7127 24.2539 15.2515 23.9414 16.6888 23.3163C18.1417 22.6912 19.4032 21.8434 20.4734 20.7729C21.5435 19.7024 22.3911 18.4405 23.016 16.9871C23.6409 15.5494 23.9533 14.0101 23.9533 12.3692C23.9533 10.7283 23.6409 9.18904 23.016 7.75132C22.3911 6.29797 21.5435 5.03605 20.4734 3.96557C19.4032 2.89509 18.1417 2.0473 16.6888 1.4222C15.2515 0.797104 13.7127 0.484554 12.0724 0.484554C10.432 0.484554 8.89317 0.797104 7.45589 1.4222C6.003 2.0473 4.74147 2.89509 3.67133 3.96557C2.60118 5.03605 1.75366 6.29797 1.12876 7.75132C0.503857 9.18904 0.191406 10.7283 0.191406 12.3692Z" fill="#797979"/>
</g>
<defs>
<clipPath id="clip0_14249_9564">
<rect width="23.9025" height="24.6" fill="white" transform="matrix(1 0 0 -1 0.0976562 24.5996)"/>
</clipPath>
</defs>
</svg>
