<svg width="25" height="25" viewBox="0 0 25 25" fill="none" xmlns="http://www.w3.org/2000/svg">
<g clip-path="url(#clip0_14249_9562)">
<path d="M13.3867 10.8457V10.8223C13.3867 10.8223 13.3828 10.8223 13.375 10.8223C13.3672 10.8223 13.3711 10.8301 13.3867 10.8457ZM12.0977 0.298828C10.4414 0.298828 8.88672 0.611328 7.43359 1.23633C5.96484 1.86133 4.6875 2.7168 3.60156 3.80273C2.51562 4.88867 1.66016 6.16602 1.03516 7.63477C0.410156 9.08789 0.0976562 10.6426 0.0976562 12.2988C0.0976562 13.9551 0.410156 15.5098 1.03516 16.9629C1.66016 18.4316 2.51562 19.709 3.60156 20.7949C4.6875 21.8809 5.96484 22.7363 7.43359 23.3613C8.88672 23.9863 10.4414 24.2988 12.0977 24.2988C13.7539 24.2988 15.3086 23.9863 16.7617 23.3613C18.2305 22.7363 19.5078 21.8809 20.5938 20.7949C21.6797 19.709 22.5352 18.4316 23.1602 16.9629C23.7852 15.5098 24.0977 13.9551 24.0977 12.2988C24.0977 10.6426 23.7852 9.08789 23.1602 7.63477C22.5352 6.16602 21.6797 4.88867 20.5938 3.80273C19.5078 2.7168 18.2305 1.86133 16.7617 1.23633C15.3086 0.611328 13.7539 0.298828 12.0977 0.298828ZM8.93359 18.2051H6.07422V9.58008H8.93359V18.2051ZM7.50391 8.4082C7.00391 8.4082 6.60938 8.26367 6.32031 7.97461C6.03125 7.68555 5.88672 7.33008 5.88672 6.9082C5.88672 6.48633 6.03516 6.13086 6.33203 5.8418C6.62891 5.55273 7.02734 5.4082 7.52734 5.4082C8.01172 5.4082 8.39453 5.55273 8.67578 5.8418C8.95703 6.13086 9.10547 6.48633 9.12109 6.9082C9.12109 7.33008 8.97266 7.68555 8.67578 7.97461C8.37891 8.26367 7.98828 8.4082 7.50391 8.4082ZM19.2695 18.2051H16.3867V13.6113C16.3867 13.0332 16.2773 12.5645 16.0586 12.2051C15.8398 11.8457 15.4648 11.666 14.9336 11.666C14.543 11.666 14.2266 11.7754 13.9844 11.9941C13.7422 12.2129 13.5664 12.4473 13.457 12.6973C13.4258 12.8066 13.4062 12.9199 13.3984 13.0371C13.3906 13.1543 13.3867 13.2754 13.3867 13.4004V18.2285H10.5039C10.5039 18.2285 10.5117 17.8145 10.5273 16.9863C10.5273 16.1738 10.5273 15.252 10.5273 14.2207C10.5273 13.1895 10.5273 12.2129 10.5273 11.291C10.5273 10.3691 10.5195 9.80664 10.5039 9.60352H13.3867V10.8223C13.5742 10.541 13.8633 10.2324 14.2539 9.89648C14.6445 9.56055 15.2148 9.39258 15.9648 9.39258C16.9023 9.39258 17.6875 9.70898 18.3203 10.3418C18.9531 10.9746 19.2695 11.9473 19.2695 13.2598V18.2051Z" fill="#797979"/>
</g>
<defs>
<clipPath id="clip0_14249_9562">
<rect width="24" height="24.6" fill="white" transform="matrix(1 0 0 -1 0.0976562 24.5996)"/>
</clipPath>
</defs>
</svg>
