<svg width="24" height="25" viewBox="0 0 24 25" fill="none" xmlns="http://www.w3.org/2000/svg">
<g clip-path="url(#clip0_14249_9552)">
<path d="M14.6969 12.4649L10.7366 9.9098V15.1137L14.6969 12.4649ZM17.1575 7.82353C17.673 7.82353 18.1417 8.0345 18.5635 8.45645C18.9853 8.87839 19.1962 9.33158 19.1962 9.81603V15.6763C19.1806 16.2389 18.9541 16.7195 18.5167 17.118C18.0792 17.5165 17.6418 17.7157 17.2044 17.7157H6.96378C6.40137 17.7157 5.93269 17.4813 5.55775 17.0125C5.18281 16.5437 4.99534 16.1139 4.99534 15.7232V9.81603C4.9641 9.34721 5.175 8.89011 5.62805 8.44473C6.08111 7.99934 6.54197 7.79228 7.01065 7.82353H17.1575ZM0.191406 12.7696C0.191406 14.4105 0.503857 15.9498 1.12876 17.3875C1.75366 18.8409 2.60118 20.1028 3.67133 21.1733C4.74147 22.2438 6.003 23.0916 7.45589 23.7166C8.89317 24.3417 10.432 24.6543 12.0724 24.6543C13.7127 24.6543 15.2515 24.3417 16.6888 23.7166C18.1417 23.0916 19.4032 22.2438 20.4734 21.1733C21.5435 20.1028 22.3911 18.8409 23.016 17.3875C23.6409 15.9498 23.9533 14.4105 23.9533 12.7696C23.9533 11.1287 23.6409 9.58943 23.016 8.15171C22.3911 6.69836 21.5435 5.43644 20.4734 4.36596C19.4032 3.29548 18.1417 2.44769 16.6888 1.82259C15.2515 1.19749 13.7127 0.884945 12.0724 0.884945C10.432 0.884945 8.89317 1.19749 7.45589 1.82259C6.003 2.44769 4.74147 3.29548 3.67133 4.36596C2.60118 5.43644 1.75366 6.69836 1.12876 8.15171C0.503857 9.58943 0.191406 11.1287 0.191406 12.7696Z" fill="#CD201F"/>
</g>
<defs>
<clipPath id="clip0_14249_9552">
<rect width="23.9025" height="24.6" fill="white" transform="matrix(1 0 0 -1 0.0976562 25)"/>
</clipPath>
</defs>
</svg>
