<svg width="17" height="18" viewBox="0 0 17 18" fill="none" xmlns="http://www.w3.org/2000/svg">
<path d="M8.50038 4.57812C6.10118 4.57812 4.11328 6.53175 4.11328 8.96522C4.11328 11.3987 6.06691 13.3523 8.50038 13.3523C10.9338 13.3523 12.8875 11.3644 12.8875 8.96522C12.8875 6.56603 10.8996 4.57812 8.50038 4.57812ZM8.50038 11.7757C6.95804 11.7757 5.68989 10.5076 5.68989 8.96522C5.68989 7.42288 6.95804 6.15474 8.50038 6.15474C10.0427 6.15474 11.3109 7.42288 11.3109 8.96522C11.3109 10.5076 10.0427 11.7757 8.50038 11.7757Z" fill="black"/>
<path d="M13.0584 5.47032C13.6073 5.47032 14.0524 5.02532 14.0524 4.47637C14.0524 3.92743 13.6073 3.48242 13.0584 3.48242C12.5095 3.48242 12.0645 3.92743 12.0645 4.47637C12.0645 5.02532 12.5095 5.47032 13.0584 5.47032Z" fill="black"/>
<path d="M15.629 1.90524C14.7379 0.979838 13.4698 0.5 12.0302 0.5H4.96976C1.9879 0.5 0 2.4879 0 5.46976V12.496C0 13.9698 0.479839 15.2379 1.43952 16.1633C2.36492 17.0544 3.59879 17.5 5.00403 17.5H11.996C13.4698 17.5 14.7036 17.0202 15.5948 16.1633C16.5202 15.2722 17 14.004 17 12.5302V5.46976C17 4.03024 16.5202 2.79637 15.629 1.90524ZM15.4919 12.5302C15.4919 13.5927 15.1149 14.4496 14.498 15.0323C13.881 15.6149 13.0242 15.9234 11.996 15.9234H5.00403C3.97581 15.9234 3.11895 15.6149 2.50202 15.0323C1.88508 14.4153 1.57661 13.5585 1.57661 12.496V5.46976C1.57661 4.44153 1.88508 3.58468 2.50202 2.96774C3.08468 2.38508 3.97581 2.07661 5.00403 2.07661H12.0645C13.0927 2.07661 13.9496 2.38508 14.5665 3.00202C15.1492 3.61895 15.4919 4.47581 15.4919 5.46976V12.5302Z" fill="black"/>
</svg>
