<svg width="18" height="18" viewBox="0 0 18 18" fill="none" xmlns="http://www.w3.org/2000/svg">
<path d="M10 7.70312V7.67188C10 7.67188 9.99479 7.67188 9.98438 7.67188C9.97396 7.67188 9.97917 7.68229 10 7.70312ZM4.0625 17.5156H0.25V6.01562H4.0625V17.5156ZM2.15625 4.45312C1.48958 4.45312 0.963542 4.26042 0.578125 3.875C0.192708 3.48958 0 3.01562 0 2.45312C0 1.89062 0.197917 1.41667 0.59375 1.03125C0.989583 0.645834 1.52083 0.453125 2.1875 0.453125C2.83333 0.453125 3.34375 0.645834 3.71875 1.03125C4.09375 1.41667 4.29167 1.89062 4.3125 2.45312C4.3125 3.01562 4.11458 3.48958 3.71875 3.875C3.32292 4.26042 2.80208 4.45312 2.15625 4.45312ZM17.8438 17.5156H14V11.3906C14 10.6198 13.8542 9.99479 13.5625 9.51562C13.2708 9.03646 12.7708 8.79688 12.0625 8.79688C11.5417 8.79688 11.1198 8.94271 10.7969 9.23438C10.474 9.52604 10.2396 9.83854 10.0938 10.1719C10.0521 10.3177 10.026 10.4688 10.0156 10.625C10.0052 10.7812 10 10.9427 10 11.1094V17.5469H6.15625C6.15625 17.5469 6.16667 16.9948 6.1875 15.8906C6.1875 14.8073 6.1875 13.5781 6.1875 12.2031C6.1875 10.8281 6.1875 9.52604 6.1875 8.29688C6.1875 7.06771 6.17708 6.31771 6.15625 6.04688H10V7.67188C10.25 7.29688 10.6354 6.88542 11.1562 6.4375C11.6771 5.98958 12.4375 5.76562 13.4375 5.76562C14.6875 5.76562 15.7344 6.1875 16.5781 7.03125C17.4219 7.875 17.8438 9.17188 17.8438 10.9219V17.5156Z" fill="#FFF"/>
</svg>
