<svg width="14" height="14" viewBox="0 0 14 14" fill="none" xmlns="http://www.w3.org/2000/svg">
<path d="M7.73649 5.609V5.58483C7.73649 5.58483 7.73246 5.58483 7.7244 5.58483C7.71634 5.58483 7.72037 5.59289 7.73649 5.609ZM3.14295 13.2004H0.193412V4.30347H3.14295V13.2004ZM1.66818 3.09465C1.15241 3.09465 0.745443 2.94556 0.447266 2.64738C0.149089 2.3492 0 1.98253 0 1.54735C0 1.11217 0.153118 0.745495 0.459354 0.447318C0.76559 0.14914 1.17659 5.24521e-05 1.69236 5.24521e-05C2.192 5.24521e-05 2.58689 0.14914 2.87701 0.447318C3.16712 0.745495 3.32024 1.11217 3.33636 1.54735C3.33636 1.98253 3.18324 2.3492 2.87701 2.64738C2.57077 2.94556 2.16783 3.09465 1.66818 3.09465ZM13.8048 13.2004H10.8311V8.46183C10.8311 7.86548 10.7183 7.38195 10.4926 7.01124C10.267 6.64054 9.88014 6.45518 9.33214 6.45518C8.9292 6.45518 8.60281 6.56801 8.35299 6.79365C8.10316 7.0193 7.92184 7.26107 7.80902 7.51895C7.77678 7.63177 7.75663 7.74863 7.74858 7.86951C7.74052 7.99039 7.73649 8.1153 7.73649 8.24425V13.2246H4.76277C4.76277 13.2246 4.77083 12.7975 4.78695 11.9433C4.78695 11.1051 4.78695 10.1542 4.78695 9.09042C4.78695 8.02666 4.78695 7.0193 4.78695 6.06836C4.78695 5.11742 4.77889 4.53718 4.76277 4.32765H7.73649V5.58483C7.9299 5.29471 8.22808 4.97639 8.63102 4.62986C9.03396 4.28333 9.62226 4.11006 10.3959 4.11006C11.363 4.11006 12.1729 4.43644 12.8256 5.08921C13.4784 5.74198 13.8048 6.7453 13.8048 8.09919V13.2004Z" fill="#0077B5"/>
</svg>
