<svg width="14" height="14" viewBox="0 0 14 14" fill="none" xmlns="http://www.w3.org/2000/svg">
<path d="M7.84588 6.22733V6.20357C7.84588 6.20357 7.8418 6.20357 7.83363 6.20357C7.82545 6.20357 7.82954 6.21149 7.84588 6.22733ZM3.18739 13.6899H0.196147V4.94397H3.18739V13.6899ZM1.69177 3.75567C1.16871 3.75567 0.755984 3.60911 0.45359 3.316C0.151197 3.02289 0 2.66243 0 2.23465C0 1.80686 0.155283 1.44641 0.465849 1.15329C0.776416 0.86018 1.19323 0.713623 1.71629 0.713623C2.223 0.713623 2.62347 0.86018 2.91769 1.15329C3.21191 1.44641 3.36719 1.80686 3.38354 2.23465C3.38354 2.66243 3.22825 3.02289 2.91769 3.316C2.60712 3.60911 2.19848 3.75567 1.69177 3.75567ZM14 13.6899H10.9842V9.03172C10.9842 8.44549 10.8698 7.97017 10.641 7.60576C10.4121 7.24135 10.0198 7.05914 9.4641 7.05914C9.05546 7.05914 8.72446 7.17005 8.4711 7.39187C8.21775 7.61368 8.03386 7.85134 7.91944 8.10485C7.88675 8.21576 7.86632 8.33063 7.85814 8.44945C7.84997 8.56828 7.84588 8.69108 7.84588 8.81783V13.7136H4.83012C4.83012 13.7136 4.8383 13.2938 4.85464 12.454C4.85464 11.6301 4.85464 10.6953 4.85464 9.64964C4.85464 8.60393 4.85464 7.61368 4.85464 6.67889C4.85464 5.74409 4.84647 5.17371 4.83012 4.96774H7.84588V6.20357C8.04203 5.91838 8.34443 5.60546 8.75307 5.26481C9.16171 4.92417 9.75832 4.75384 10.5429 4.75384C11.5236 4.75384 12.345 5.07468 13.007 5.71637C13.669 6.35805 14 7.34434 14 8.67523V13.6899Z" fill="white"/>
</svg>
