<svg width="217" height="34" viewBox="0 0 217 34" fill="none" xmlns="http://www.w3.org/2000/svg">
<path fill-rule="evenodd" clip-rule="evenodd" d="M13.7108 2.0903C16.3019 4.69807 18.9192 7.95779 21.8211 10.2001C23.1166 11.2029 24.5836 11.6823 26.524 10.6591C26.5473 10.51 26.5473 10.6708 26.524 10.6591L26.3875 10.7965C24.5313 11.6999 22.4514 12.2086 20.2525 12.2086C15.3026 12.2086 10.9512 9.64173 8.43561 5.75638C7.43053 2.8241 11.3608 -0.280664 13.7137 2.0903H13.7108ZM25.4289 1.82134C23.2851 1.82134 21.5451 3.5696 21.5451 5.73007C21.5451 7.89055 23.2851 9.63588 25.4289 9.63588C27.5727 9.63588 29.3098 7.8847 29.3098 5.73007C29.3098 3.57544 27.5727 1.82134 25.4289 1.82134Z" fill="#358DCC"/>
<path fill-rule="evenodd" clip-rule="evenodd" d="M23.5821 31.8077C20.991 29.1999 18.3738 25.9402 15.4718 23.6979C14.1763 22.6951 12.7093 22.2157 10.7689 23.2389C10.7457 23.2272 10.7457 23.388 10.7689 23.2389L10.9054 23.1015C12.7616 22.1981 14.8415 21.6895 17.0404 21.6895C21.9874 21.6895 26.3417 24.2592 28.8573 28.1416C29.8624 31.0739 25.9321 34.1787 23.5792 31.8077H23.5821ZM11.864 32.0767C14.0078 32.0767 15.7478 30.3255 15.7478 28.1709C15.7478 26.0162 14.0107 24.2651 11.864 24.2651C9.71734 24.2651 7.98315 26.0162 7.98315 28.1709C7.98315 30.3255 9.72315 32.0767 11.864 32.0767Z" fill="#358DCC"/>
<path fill-rule="evenodd" clip-rule="evenodd" d="M36.1679 11.8342C33.5768 14.442 30.3379 17.0761 28.1099 19.9967C27.1135 21.3006 26.6372 22.7769 27.6538 24.7298C27.6422 24.7532 27.802 24.7532 27.6538 24.7298L23.3344 20.3826C21.9458 18.9822 21.9458 16.6931 23.3344 15.2957L31.1832 7.39635C34.3321 4.22727 38.8927 9.09783 36.1679 11.8372V11.8342ZM36.4381 23.6277C36.4381 21.4701 34.701 19.7189 32.5572 19.7189C30.4134 19.7189 28.6734 21.4701 28.6734 23.6277C28.6734 25.7852 30.4134 27.5335 32.5572 27.5335C34.701 27.5335 36.4381 25.7852 36.4381 23.6277Z" fill="url(#paint0_linear_13614_67392)"/>
<path fill-rule="evenodd" clip-rule="evenodd" d="M0.833602 22.0636C3.42472 19.4559 6.66361 16.8218 8.89162 13.9012C9.88798 12.5973 10.3644 11.1209 9.34768 9.17094C9.19953 9.14756 9.3593 9.14756 9.34768 9.17094L13.6672 13.5182C15.0586 14.9186 15.0586 17.2077 13.6672 18.6051L5.8183 26.5044C2.66946 29.6735 -1.89113 24.8029 0.833602 22.0636ZM0.563452 10.2673C0.563452 12.4248 2.30345 14.1731 4.44431 14.1731C6.58518 14.1731 8.32808 12.4248 8.32808 10.2673C8.32808 8.10971 6.59099 6.36145 4.44431 6.36145C2.29764 6.36145 0.563452 8.11263 0.563452 10.2673Z" fill="url(#paint1_linear_13614_67392)"/>
<path d="M52.1109 12.8488V7.42864H47.3761V12.8488H44.9592V0H47.3761V5.28571H52.1109V0H54.5278V12.8488H52.1109Z" fill="white"/>
<path d="M59.5499 3.45276V10.0131C59.5499 10.516 59.762 10.7645 60.2965 10.7645C60.8716 10.7645 61.8883 10.4166 62.7307 9.97219V3.45276H65.0691V12.8489H63.2855L63.0561 12.0566C61.8854 12.6355 60.4098 13.0419 59.3175 13.0419C57.7634 13.0419 57.2086 11.9426 57.2086 10.2645V3.45276H59.547H59.5499Z" fill="white"/>
<path d="M73.2758 12.8488V6.2884C73.2758 5.78556 73.0637 5.53706 72.5292 5.53706C71.9541 5.53706 70.9374 5.88495 70.095 6.32933V12.8517H67.7566V3.4526H69.5402L69.7696 4.24487C70.9403 3.66601 72.4159 3.25964 73.5082 3.25964C74.4087 3.25964 74.9664 3.62508 75.2714 4.26241C76.4014 3.68355 77.8974 3.25964 79.0274 3.25964C80.5814 3.25964 81.1363 4.35888 81.1363 6.03698V12.8488H78.7979V6.2884C78.7979 5.78556 78.5858 5.53706 78.0513 5.53706C77.4762 5.53706 76.3462 5.9025 75.6171 6.32933V12.8517H73.2787L73.2758 12.8488Z" fill="white"/>
<path d="M90.6461 12.8489H88.7289L88.5576 12.2115C87.7152 12.7699 86.7188 13.0418 85.7776 13.0418C84.0725 13.0418 83.3434 11.8637 83.3434 10.244C83.3434 8.33497 84.1684 7.60117 86.0652 7.60117H88.3077V6.61595C88.3077 5.57518 88.0202 5.20682 86.5242 5.20682C85.6818 5.20682 84.7609 5.32376 83.936 5.49624L83.6484 3.70121C84.5315 3.43225 85.8154 3.25684 86.8495 3.25684C89.7834 3.25684 90.6461 4.29761 90.6461 6.65103V12.843V12.8489ZM88.3077 9.29973H86.5823C85.8154 9.29973 85.6033 9.51315 85.6033 10.2265C85.6033 10.8814 85.8154 11.1708 86.5416 11.1708C87.233 11.1708 87.8633 10.9398 88.3048 10.6884V9.29973H88.3077Z" fill="white"/>
<path d="M98.6605 12.8488V6.2884C98.6605 5.78556 98.4485 5.53706 97.914 5.53706C97.3388 5.53706 96.3222 5.88495 95.4798 6.32933V12.8517H93.1414V3.4526H94.9249L95.1544 4.24487C96.3251 3.66601 97.8007 3.25964 98.8929 3.25964C100.447 3.25964 101.002 4.35888 101.002 6.03698V12.8488H98.6635H98.6605Z" fill="white"/>
<path d="M115.358 12.8488L112.424 8.60389H110.123V12.8488H107.707V0H112.941C115.913 0 117.005 1.21618 117.005 3.47313V5.15123C117.005 6.69484 116.43 7.77654 115.088 8.25599L118.251 12.8488H115.358ZM112.848 2.14293H110.126V6.50481H112.848C114.17 6.50481 114.594 6.02243 114.594 4.94073V3.66608C114.594 2.58438 114.135 2.14293 112.848 2.14293Z" fill="white"/>
<path d="M123.622 11.1122C124.522 11.1122 125.464 10.9777 126.477 10.6678L126.841 12.4424C125.786 12.8488 124.52 13.0417 123.41 13.0417C120.476 13.0417 119.462 11.6706 119.462 9.41363V6.92573C119.462 4.93774 120.345 3.25964 123.334 3.25964C126.324 3.25964 126.995 5.01375 126.995 7.03974V9.04527H121.801V9.52765C121.801 10.6649 122.204 11.1093 123.622 11.1093V11.1122ZM121.801 7.15668H124.772V6.69477C124.772 5.80602 124.505 5.18916 123.355 5.18916C122.204 5.18916 121.801 5.80602 121.801 6.69477V7.15668Z" fill="white"/>
<path d="M132 13.0418C131.004 13.0418 129.641 12.8109 128.778 12.501L129.104 10.706C129.891 10.9369 130.925 11.1123 131.884 11.1123C132.918 11.1123 133.072 10.8814 133.072 10.168C133.072 9.58917 132.956 9.29974 131.442 8.9343C129.162 8.37591 128.892 7.79706 128.892 5.98156C128.892 4.16606 129.717 3.2627 132.38 3.2627C133.243 3.2627 134.373 3.37964 135.181 3.59013L134.951 5.46117C134.242 5.32669 133.11 5.19221 132.383 5.19221C131.367 5.19221 131.195 5.42317 131.195 6.00202C131.195 6.75337 131.253 6.81184 132.517 7.13927C135.126 7.83507 135.372 8.18004 135.372 10.1096C135.372 11.9221 134.818 13.0418 131.997 13.0418H132Z" fill="white"/>
<path d="M141.319 13.0417C138.117 13.0417 137.255 11.2671 137.255 9.33762V6.96373C137.255 5.03421 138.117 3.25964 141.319 3.25964C144.52 3.25964 145.382 5.03421 145.382 6.96373V9.33762C145.382 11.2671 144.52 13.0417 141.319 13.0417ZM141.319 5.2681C140.072 5.2681 139.593 5.82649 139.593 6.88772V9.41656C139.593 10.4778 140.072 11.0362 141.319 11.0362C142.565 11.0362 143.044 10.4778 143.044 9.41656V6.88772C143.044 5.82649 142.565 5.2681 141.319 5.2681Z" fill="white"/>
<path d="M149.887 3.45276V10.0131C149.887 10.516 150.099 10.7645 150.634 10.7645C151.209 10.7645 152.226 10.4166 153.068 9.97219V3.45276H155.406V12.8489H153.623L153.393 12.0566C152.223 12.6355 150.747 13.0419 149.655 13.0419C148.101 13.0419 147.546 11.9426 147.546 10.2645V3.45276H149.884H149.887Z" fill="white"/>
<path d="M162.904 5.42012C162.004 5.82649 161.275 6.25039 160.432 6.79124V12.8488H158.094V3.4526H160.069L160.223 4.49336C160.74 4.14547 161.853 3.4906 162.678 3.25964L162.907 5.42012H162.904Z" fill="white"/>
<path d="M164.151 9.4341V6.86725C164.151 4.33842 165.243 3.25964 168.177 3.25964C168.827 3.25964 169.768 3.37658 170.457 3.60754L170.169 5.53706C169.536 5.36457 168.694 5.28564 168.232 5.28564C166.89 5.28564 166.486 5.692 166.486 6.84971V9.45456C166.486 10.6123 166.89 11.0186 168.232 11.0186C168.827 11.0186 169.498 10.9426 170.169 10.7672L170.457 12.6967C169.844 12.9101 168.944 13.0446 168.177 13.0446C165.243 13.0446 164.151 11.9629 164.151 9.43702V9.4341Z" fill="white"/>
<path d="M176.191 11.1122C177.091 11.1122 178.033 10.9777 179.046 10.6678L179.41 12.4424C178.355 12.8488 177.089 13.0417 175.979 13.0417C173.045 13.0417 172.031 11.6706 172.031 9.41363V6.92573C172.031 4.93774 172.914 3.25964 175.903 3.25964C178.892 3.25964 179.563 5.01375 179.563 7.03974V9.04527H174.37V9.52765C174.37 10.6649 174.773 11.1093 176.191 11.1093V11.1122ZM174.37 7.15668H177.341V6.69477C177.341 5.80602 177.074 5.18916 175.924 5.18916C174.773 5.18916 174.37 5.80602 174.37 6.69477V7.15668Z" fill="white"/>
<path d="M52.361 17.2488H54.8708L51.0568 30.0976H47.4925L43.6785 17.2488H46.1882L49.2732 27.9576L52.361 17.2488Z" fill="white"/>
<path d="M56.3673 19.3712V16.6494H58.7057V19.3712H56.3673ZM56.3673 30.0976V20.7014H58.7057V30.0976H56.3673Z" fill="white"/>
<path d="M64.2855 30.2905C63.2892 30.2905 61.9268 30.0595 61.0641 29.7496L61.3894 27.9546C62.1766 28.1856 63.2108 28.361 64.1694 28.361C65.2035 28.361 65.3574 28.13 65.3574 27.4167C65.3574 26.8378 65.2412 26.5484 63.7278 26.183C61.4475 25.6246 61.1774 25.0457 61.1774 23.2302C61.1774 21.4147 62.0023 20.5114 64.6661 20.5114C65.5288 20.5114 66.6588 20.6283 67.4663 20.8388L67.2369 22.7098C66.5281 22.5753 65.3952 22.4409 64.669 22.4409C63.6523 22.4409 63.4809 22.6718 63.4809 23.2507C63.4809 24.002 63.539 24.0605 64.8026 24.3879C67.4112 25.0837 67.6581 25.4287 67.6581 27.3582C67.6581 29.1708 67.1032 30.2905 64.2826 30.2905H64.2855Z" fill="white"/>
<path d="M73.6042 30.2905C70.403 30.2905 69.5403 28.5159 69.5403 26.5864V24.2125C69.5403 22.283 70.403 20.5084 73.6042 20.5084C76.8053 20.5084 77.668 22.283 77.668 24.2125V26.5864C77.668 28.5159 76.8053 30.2905 73.6042 30.2905ZM73.6042 22.5169C72.358 22.5169 71.8787 23.0753 71.8787 24.1365V26.6653C71.8787 27.7266 72.358 28.285 73.6042 28.285C74.8503 28.285 75.3296 27.7266 75.3296 26.6653V24.1365C75.3296 23.0753 74.8503 22.5169 73.6042 22.5169Z" fill="white"/>
<path d="M85.4503 30.0975V23.5372C85.4503 23.0343 85.2383 22.7858 84.7038 22.7858C84.1286 22.7858 83.1119 23.1337 82.2695 23.5781V30.1005H79.9312V20.7043H81.7147L81.9442 21.4966C83.1149 20.9177 84.5905 20.5114 85.6827 20.5114C87.2368 20.5114 87.7916 21.6106 87.7916 23.2887V30.1005H85.4532L85.4503 30.0975Z" fill="white"/>
<path d="M97.2995 30.0975H95.3823L95.2109 29.4602C94.3685 30.0186 93.3721 30.2905 92.431 30.2905C90.7258 30.2905 89.9967 29.1123 89.9967 27.4927C89.9967 25.5836 90.8217 24.8498 92.7185 24.8498H94.9611V23.8646C94.9611 22.8238 94.6735 22.4555 93.1775 22.4555C92.3351 22.4555 91.4143 22.5724 90.5893 22.7449L90.3017 20.9499C91.1848 20.6809 92.4687 20.5055 93.5028 20.5055C96.4367 20.5055 97.2995 21.5463 97.2995 23.8997V30.0917V30.0975ZM94.9611 26.5484H93.2356C92.4687 26.5484 92.2567 26.7618 92.2567 27.4751C92.2567 28.13 92.4687 28.4194 93.1949 28.4194C93.8863 28.4194 94.5166 28.1885 94.9582 27.9371V26.5484H94.9611Z" fill="white"/>
<path d="M104.605 22.6689C103.704 23.0753 102.975 23.4992 102.133 24.04V30.0975H99.7946V20.7014H101.77L101.924 21.7421C102.441 21.3942 103.553 20.7394 104.378 20.5084L104.608 22.6689H104.605Z" fill="white"/>
<path d="M111.582 30.0976L110.336 33.8981H108.111L109.282 30.0976H108.457L105.505 20.7014H107.902L110.031 27.8406L112.178 20.7014H114.574L111.585 30.0976H111.582Z" fill="white"/>
<path d="M119.75 20.7802C119.75 18.4268 121.113 17.0557 124.294 17.0557C125.482 17.0557 126.71 17.2106 127.762 17.4796L127.495 19.5816C126.461 19.3886 125.252 19.2541 124.369 19.2541C122.702 19.2541 122.164 19.833 122.164 21.2041V26.1419C122.164 27.5131 122.702 28.0919 124.369 28.0919C125.252 28.0919 126.458 27.9574 127.495 27.7645L127.762 29.8665C126.708 30.1354 125.482 30.2904 124.294 30.2904C121.11 30.2904 119.75 28.9193 119.75 26.5658V20.7773V20.7802Z" fill="white"/>
<path d="M133.418 30.2905C130.216 30.2905 129.354 28.5159 129.354 26.5864V24.2125C129.354 22.283 130.216 20.5084 133.418 20.5084C136.619 20.5084 137.481 22.283 137.481 24.2125V26.5864C137.481 28.5159 136.619 30.2905 133.418 30.2905ZM133.418 22.5169C132.171 22.5169 131.692 23.0753 131.692 24.1365V26.6653C131.692 27.7266 132.171 28.285 133.418 28.285C134.664 28.285 135.143 27.7266 135.143 26.6653V24.1365C135.143 23.0753 134.664 22.5169 133.418 22.5169Z" fill="white"/>
<path d="M145.266 30.0975V23.5372C145.266 23.0343 145.054 22.7858 144.52 22.7858C143.945 22.7858 142.928 23.1337 142.085 23.5781V30.1005H139.747V20.7043H141.531L141.76 21.4966C142.931 20.9177 144.406 20.5114 145.499 20.5114C147.053 20.5114 147.608 21.6106 147.608 23.2887V30.1005H145.269L145.266 30.0975Z" fill="white"/>
<path d="M153.089 30.2905C152.093 30.2905 150.73 30.0595 149.868 29.7496L150.193 27.9546C150.98 28.1856 152.014 28.361 152.973 28.361C154.007 28.361 154.161 28.13 154.161 27.4167C154.161 26.8378 154.045 26.5484 152.531 26.183C150.251 25.6246 149.981 25.0457 149.981 23.2302C149.981 21.4147 150.806 20.5114 153.47 20.5114C154.332 20.5114 155.462 20.6283 156.27 20.8388L156.04 22.7098C155.332 22.5753 154.199 22.4409 153.473 22.4409C152.456 22.4409 152.285 22.6718 152.285 23.2507C152.285 24.002 152.343 24.0605 153.606 24.3879C156.215 25.0837 156.462 25.4287 156.462 27.3582C156.462 29.1708 155.907 30.2905 153.086 30.2905H153.089Z" fill="white"/>
<path d="M161.008 20.7013V27.2616C161.008 27.7645 161.22 28.013 161.754 28.013C162.33 28.013 163.346 27.6651 164.189 27.2207V20.6984H166.527V30.0945H164.743L164.514 29.3023C163.343 29.8811 161.868 30.2875 160.775 30.2875C159.221 30.2875 158.667 29.1882 158.667 27.5101V20.6984H161.005L161.008 20.7013Z" fill="white"/>
<path d="M169.211 30.0976V16.8628L171.55 16.5354V30.0976H169.211Z" fill="white"/>
<path d="M179.201 29.9251C178.701 30.1385 177.743 30.2905 177.15 30.2905C175.445 30.2905 174.582 29.4807 174.582 27.8026V22.5754H173.182V20.7043H174.582V18.3684L176.921 18.041V20.7043H179.317L179.163 22.5754H176.921V27.4956C176.921 27.9985 177.15 28.3259 177.763 28.3259C178.109 28.3259 178.53 28.2499 178.934 28.133L179.201 29.928V29.9251Z" fill="white"/>
<path d="M187.962 30.0975H186.045L185.873 29.4602C185.031 30.0186 184.035 30.2905 183.094 30.2905C181.388 30.2905 180.659 29.1123 180.659 27.4927C180.659 25.5836 181.484 24.8498 183.381 24.8498H185.624V23.8646C185.624 22.8238 185.336 22.4555 183.84 22.4555C182.998 22.4555 182.077 22.5724 181.252 22.7449L180.964 20.9499C181.847 20.6809 183.131 20.5055 184.165 20.5055C187.099 20.5055 187.962 21.5463 187.962 23.8997V30.0917V30.0975ZM185.624 26.5484H183.898C183.131 26.5484 182.919 26.7618 182.919 27.4751C182.919 28.13 183.131 28.4194 183.858 28.4194C184.549 28.4194 185.179 28.1885 185.621 27.9371V26.5484H185.624Z" fill="white"/>
<path d="M195.976 30.0975V23.5372C195.976 23.0343 195.764 22.7858 195.23 22.7858C194.655 22.7858 193.638 23.1337 192.796 23.5781V30.1005H190.457V20.7043H192.241L192.47 21.4966C193.641 20.9177 195.117 20.5114 196.209 20.5114C197.763 20.5114 198.318 21.6106 198.318 23.2887V30.1005H195.979L195.976 30.0975Z" fill="white"/>
<path d="M200.481 26.6829V24.116C200.481 21.5872 201.574 20.5084 204.507 20.5084C205.158 20.5084 206.099 20.6254 206.788 20.8563L206.5 22.7858C205.867 22.6134 205.024 22.5344 204.563 22.5344C203.221 22.5344 202.817 22.9408 202.817 24.0985V26.7033C202.817 27.861 203.221 28.2674 204.563 28.2674C205.158 28.2674 205.829 28.1914 206.5 28.016L206.788 29.9455C206.175 30.1589 205.274 30.2934 204.507 30.2934C201.574 30.2934 200.481 29.2117 200.481 26.6858V26.6829Z" fill="white"/>
<path d="M213.864 30.0976L212.618 33.8981H210.393L211.564 30.0976H210.739L207.787 20.7014H210.184L212.313 27.8406L214.46 20.7014H216.856L213.867 30.0976H213.864Z" fill="white"/>
<defs>
<linearGradient id="paint0_linear_13614_67392" x1="19.683" y1="17.4737" x2="46.8408" y2="16.4144" gradientUnits="userSpaceOnUse">
<stop stop-color="#F5BA2A"/>
<stop offset="1" stop-color="#F58220"/>
</linearGradient>
<linearGradient id="paint1_linear_13614_67392" x1="17.1472" y1="15.2986" x2="-15.0824" y2="19.2767" gradientUnits="userSpaceOnUse">
<stop stop-color="#F5BA2A"/>
<stop offset="1" stop-color="#F58220"/>
</linearGradient>
</defs>
</svg>
