<svg width="16" height="17" viewBox="0 0 16 17" fill="none" xmlns="http://www.w3.org/2000/svg">
<path fill-rule="evenodd" clip-rule="evenodd" d="M10.6667 1.23383C10.6667 0.813044 11.0078 0.471924 11.4286 0.471924H14.4762C15.3178 0.471924 16 1.15416 16 1.99573V5.04335C16 5.46414 15.6589 5.80526 15.2381 5.80526C14.8173 5.80526 14.4762 5.46414 14.4762 5.04335V3.07221L11.0226 6.52586C10.9845 6.56398 10.9432 6.59718 10.8999 6.6256C11.7085 7.65989 12.1905 8.96198 12.1905 10.3767C12.1905 13.743 9.46156 16.4719 6.09524 16.4719C2.72893 16.4719 0 13.743 0 10.3767C0 7.01036 2.72893 4.28145 6.09524 4.28145C7.50926 4.28145 8.81082 4.76295 9.84488 5.57094C9.8733 5.52746 9.90659 5.48623 9.94476 5.44806L13.397 1.99573H11.4286C11.0078 1.99573 10.6667 1.65461 10.6667 1.23383ZM6.09524 14.9453C3.57205 14.9453 1.52659 12.8999 1.52659 10.3767C1.52659 7.85349 3.57205 5.80804 6.09524 5.80804C8.61844 5.80804 10.6638 7.85349 10.6638 10.3767C10.6638 12.8999 8.61844 14.9453 6.09524 14.9453Z" fill="#2580D3"/>
</svg>
