<svg width="71" height="71" viewBox="0 0 71 71" fill="none" xmlns="http://www.w3.org/2000/svg">
<rect x="1.41942" y="1.31395" width="68.3721" height="68.3721" rx="33.3721" fill="#C3C3C3"/>
<rect x="1.41942" y="1.31395" width="68.3721" height="68.3721" rx="33.3721" stroke="#818181" stroke-width="1.62791"/>
<path d="M51.8843 44.3795V42.6036C51.8843 37.7021 48.2378 33.7241 43.7447 33.7241H37.2331V26.6205C39.0238 26.6205 40.4889 25.0222 40.4889 23.0687V19.5169C40.4889 17.5634 39.0238 15.9651 37.2331 15.9651H33.9773C32.1866 15.9651 30.7215 17.5634 30.7215 19.5169V23.0687C30.7215 25.0222 32.1866 26.6205 33.9773 26.6205V33.7241H27.4657C22.9726 33.7241 19.3261 37.7021 19.3261 42.6036V44.3795C17.5354 44.3795 16.0703 45.9778 16.0703 47.9313V51.4831C16.0703 53.4366 17.5354 55.0349 19.3261 55.0349H22.5819C24.3726 55.0349 25.8378 53.4366 25.8378 51.4831V47.9313C25.8378 45.9778 24.3726 44.3795 22.5819 44.3795V42.6036C22.5819 39.6733 24.7796 37.2759 27.4657 37.2759H33.9773V44.3795C32.1866 44.3795 30.7215 45.9778 30.7215 47.9313V51.4831C30.7215 53.4366 32.1866 55.0349 33.9773 55.0349H37.2331C39.0238 55.0349 40.4889 53.4366 40.4889 51.4831V47.9313C40.4889 45.9778 39.0238 44.3795 37.2331 44.3795V37.2759H43.7447C46.4308 37.2759 48.6285 39.6733 48.6285 42.6036V44.3795C46.8378 44.3795 45.3726 45.9778 45.3726 47.9313V51.4831C45.3726 53.4366 46.8378 55.0349 48.6285 55.0349H51.8843C53.675 55.0349 55.1401 53.4366 55.1401 51.4831V47.9313C55.1401 45.9778 53.675 44.3795 51.8843 44.3795ZM33.9773 19.5169H37.2331V23.0687H33.9773V19.5169ZM22.5819 51.4831H19.3261V47.9313H22.5819V51.4831ZM37.2331 51.4831H33.9773V47.9313H37.2331V51.4831ZM51.8843 51.4831H48.6285V47.9313H51.8843V51.4831Z" fill="#30313D"/>
</svg>
