<svg width="143" height="100" viewBox="0 0 143 100" fill="none" xmlns="http://www.w3.org/2000/svg">
<rect width="143" height="100" rx="3" fill="#EDEDED"/>
<path d="M9.9375 88.1533H7.99219V76.8799H9.74219L15.3359 84.7783H15.4062V76.8799H17.3438V88.1533H15.6094L10.0078 80.2471H9.9375V88.1533ZM25.7266 87.1689C25.0026 87.9346 24.0286 88.3174 22.8047 88.3174C21.5807 88.3174 20.6068 87.9346 19.8828 87.1689C19.1589 86.3981 18.7969 85.346 18.7969 84.0127C18.7969 82.6846 19.1615 81.6351 19.8906 80.8643C20.6198 80.0882 21.5911 79.7002 22.8047 79.7002C24.0234 79.7002 24.9948 80.0882 25.7188 80.8643C26.4479 81.6351 26.8125 82.6846 26.8125 84.0127C26.8125 85.346 26.4505 86.3981 25.7266 87.1689ZM21.3203 86.0518C21.6849 86.5361 22.1797 86.7783 22.8047 86.7783C23.4297 86.7783 23.9245 86.5361 24.2891 86.0518C24.6536 85.5674 24.8359 84.8877 24.8359 84.0127C24.8359 83.1429 24.6536 82.4658 24.2891 81.9814C23.9245 81.4919 23.4297 81.2471 22.8047 81.2471C22.1849 81.2471 21.6901 81.4919 21.3203 81.9814C20.9557 82.4658 20.7734 83.1429 20.7734 84.0127C20.7734 84.8877 20.9557 85.5674 21.3203 86.0518ZM31.4609 76.8799H35.8438C36.9688 76.8799 37.8828 77.2288 38.5859 77.9268C39.2891 78.6195 39.6406 79.5283 39.6406 80.6533C39.6406 81.7731 39.2786 82.682 38.5547 83.3799C37.8359 84.0778 36.9036 84.4268 35.7578 84.4268H33.4766V88.1533H31.4609V76.8799ZM33.4766 78.5283V82.8018H35.3047C36.0286 82.8018 36.5911 82.6143 36.9922 82.2393C37.3932 81.8643 37.5938 81.3356 37.5938 80.6533C37.5938 79.9762 37.3932 79.4528 36.9922 79.083C36.5964 78.7132 36.0365 78.5283 35.3125 78.5283H33.4766ZM40.9219 88.1533V79.8721H42.7891V81.3174H42.8281C42.9688 80.8122 43.2109 80.4215 43.5547 80.1455C43.9036 79.8695 44.3229 79.7314 44.8125 79.7314C44.9844 79.7314 45.1875 79.7575 45.4219 79.8096V81.5674C45.2292 81.4945 44.9661 81.458 44.6328 81.458C44.0807 81.458 43.6484 81.6247 43.3359 81.958C43.0234 82.2913 42.8672 82.7497 42.8672 83.333V88.1533H40.9219ZM49.6797 81.208C49.138 81.208 48.6849 81.3955 48.3203 81.7705C47.9609 82.1403 47.7604 82.6169 47.7188 83.2002H51.5859C51.5651 82.6117 51.3802 82.1325 51.0312 81.7627C50.6823 81.3929 50.2318 81.208 49.6797 81.208ZM51.5938 85.6768H53.4141C53.2891 86.4632 52.8906 87.1012 52.2188 87.5908C51.5469 88.0752 50.724 88.3174 49.75 88.3174C48.5104 88.3174 47.5365 87.9372 46.8281 87.1768C46.1198 86.4111 45.7656 85.3669 45.7656 84.0439C45.7656 82.7314 46.1172 81.6794 46.8203 80.8877C47.5286 80.096 48.4792 79.7002 49.6719 79.7002C50.8438 79.7002 51.7734 80.0778 52.4609 80.833C53.1484 81.583 53.4922 82.5882 53.4922 83.8486V84.4814H47.7031V84.5986C47.7031 85.2653 47.8906 85.8018 48.2656 86.208C48.6458 86.6143 49.1536 86.8174 49.7891 86.8174C50.237 86.8174 50.6224 86.7158 50.9453 86.5127C51.2734 86.3044 51.4896 86.0257 51.5938 85.6768ZM61.9609 79.8721L59.0469 88.1533H56.9062L53.9688 79.8721H56.0469L57.9688 86.3486H58.0078L59.9297 79.8721H61.9609ZM62.9062 88.1533V79.8721H64.8516V88.1533H62.9062ZM64.6406 78.4814C64.4323 78.6846 64.1771 78.7861 63.875 78.7861C63.5729 78.7861 63.3177 78.6846 63.1094 78.4814C62.901 78.2731 62.7969 78.0231 62.7969 77.7314C62.7969 77.4346 62.901 77.1846 63.1094 76.9814C63.3177 76.7731 63.5729 76.6689 63.875 76.6689C64.1771 76.6689 64.4323 76.7731 64.6406 76.9814C64.8542 77.1846 64.9609 77.4346 64.9609 77.7314C64.9609 78.0231 64.8542 78.2731 64.6406 78.4814ZM70.0547 81.208C69.513 81.208 69.0599 81.3955 68.6953 81.7705C68.3359 82.1403 68.1354 82.6169 68.0938 83.2002H71.9609C71.9401 82.6117 71.7552 82.1325 71.4062 81.7627C71.0573 81.3929 70.6068 81.208 70.0547 81.208ZM71.9688 85.6768H73.7891C73.6641 86.4632 73.2656 87.1012 72.5938 87.5908C71.9219 88.0752 71.099 88.3174 70.125 88.3174C68.8854 88.3174 67.9115 87.9372 67.2031 87.1768C66.4948 86.4111 66.1406 85.3669 66.1406 84.0439C66.1406 82.7314 66.4922 81.6794 67.1953 80.8877C67.9036 80.096 68.8542 79.7002 70.0469 79.7002C71.2188 79.7002 72.1484 80.0778 72.8359 80.833C73.5234 81.583 73.8672 82.5882 73.8672 83.8486V84.4814H68.0781V84.5986C68.0781 85.2653 68.2656 85.8018 68.6406 86.208C69.0208 86.6143 69.5286 86.8174 70.1641 86.8174C70.612 86.8174 70.9974 86.7158 71.3203 86.5127C71.6484 86.3044 71.8646 86.0257 71.9688 85.6768ZM86.3281 79.8721L84.0859 88.1533H82.0391L80.4062 82.0986H80.3672L78.7422 88.1533H76.7109L74.4688 79.8721H76.4219L77.8203 86.2314H77.8594L79.4766 79.8721H81.3438L82.9609 86.2314H83.0078L84.4062 79.8721H86.3281Z" fill="#94989C"/>
<path d="M135.992 50.3205C135.988 50.2473 135.974 50.1766 135.949 50.1074C135.942 50.0855 135.936 50.0638 135.927 50.0429C135.89 49.9627 135.843 49.8865 135.778 49.8216C135.778 49.8216 133.151 47.1835 130.522 44.5477C129.207 43.2293 127.891 41.9125 126.902 40.9253C126.171 40.1958 125.69 39.7149 125.35 39.4161C125.345 39.4085 125.34 39.4018 125.335 39.3943C125.334 39.3928 125.333 39.3921 125.332 39.3906L125.326 39.395C124.85 38.9797 124.661 38.9345 124.446 39.0648L104.446 39.0655C103.136 39.0655 102.07 40.1321 102.07 41.4429V80.227C102.07 80.8914 102.329 81.5161 102.801 81.9887C103.265 82.4509 103.906 82.716 104.559 82.716H114.647C115.07 82.716 115.414 82.373 115.414 81.949C115.414 81.525 115.07 81.182 114.647 81.182H104.559C104.308 81.182 104.062 81.0794 103.884 80.9034C103.706 80.7251 103.604 80.4787 103.604 80.227V41.4429C103.604 40.9778 103.982 40.5995 104.446 40.5995L123.976 40.5988C124.005 42.3493 123.973 47.201 123.939 50.3541C123.937 50.5594 124.017 50.7564 124.161 50.9017C124.305 51.0477 124.502 51.1293 124.706 51.1293H134.467V80.3521C134.467 80.5708 134.378 80.7842 134.223 80.9393C134.067 81.0959 133.858 81.182 133.637 81.182H133.288C132.864 81.182 132.521 81.525 132.521 81.949C132.521 82.373 132.864 82.716 133.288 82.716H133.637C134.269 82.716 134.863 82.4696 135.309 82.0232C135.748 81.5835 136.001 80.9745 136.001 80.3521V50.3623C136.001 50.3475 135.993 50.3352 135.992 50.3205ZM125.481 49.5953C125.522 45.5581 125.535 43.1589 125.523 41.7163C127.318 43.5065 130.608 46.8052 133.388 49.5953H125.481Z" fill="#94989C"/>
<path d="M130.104 76.9449C130.076 76.8472 130.028 76.7607 129.969 76.6853C131.078 75.3552 131.746 73.6451 131.746 71.778C131.746 67.542 128.312 64.1079 124.076 64.1079C119.84 64.1079 116.406 67.542 116.406 71.778C116.406 73.7498 117.157 75.5421 118.379 76.9008L115.79 85.7759C115.706 86.0658 115.799 86.3789 116.029 86.5751C116.259 86.7706 116.582 86.8118 116.856 86.6837L119.465 85.4441L121.104 87.8215C121.249 88.0313 121.486 88.1534 121.736 88.1534C121.779 88.1534 121.822 88.1496 121.866 88.1421C122.161 88.0912 122.399 87.874 122.476 87.5848L124.236 81.0181L125.996 87.5848C126.073 87.8732 126.311 88.0904 126.605 88.1421C126.649 88.1496 126.693 88.1534 126.737 88.1534C126.985 88.1534 127.222 88.0327 127.367 87.8238L129.011 85.4583L131.618 86.6852C131.891 86.8126 132.213 86.7698 132.444 86.5736C132.673 86.3781 132.766 86.0658 132.681 85.7759L130.104 76.9449ZM124.076 65.5689C127.5 65.5689 130.285 68.3543 130.285 71.778C130.285 75.2018 127.5 77.9871 124.076 77.9871C120.653 77.9871 117.867 75.2018 117.867 71.778C117.867 68.3543 120.653 65.5689 124.076 65.5689ZM121.425 85.5841L120.357 84.0359C120.142 83.7258 119.736 83.6157 119.396 83.7782L117.742 84.564L119.647 78.0329C120.644 78.7405 121.817 79.2134 123.088 79.3773L121.425 85.5841ZM129.078 83.794C128.738 83.6344 128.335 83.7438 128.121 84.0509L127.05 85.5916L125.372 79.3304C126.637 79.1147 127.794 78.5916 128.767 77.8374L130.732 84.573L129.078 83.794Z" fill="#94989C"/>
<path d="M124.075 75.6129C126.193 75.6129 127.91 73.896 127.91 71.7779C127.91 69.6599 126.193 67.9429 124.075 67.9429C121.957 67.9429 120.24 69.6599 120.24 71.7779C120.24 73.896 121.957 75.6129 124.075 75.6129ZM124.075 69.4769C125.344 69.4769 126.376 70.5091 126.376 71.7779C126.376 73.0468 125.344 74.0789 124.075 74.0789C122.806 74.0789 121.774 73.0468 121.774 71.7779C121.774 70.5091 122.806 69.4769 124.075 69.4769Z" fill="#94989C"/>
</svg>
