<svg width="71" height="71" viewBox="0 0 71 71" fill="none" xmlns="http://www.w3.org/2000/svg">
<circle cx="35.3945" cy="35.5" r="34.186" fill="#C3C3C3" stroke="#818181" stroke-width="1.62791"/>
<path d="M39.2197 35.0881L30.3508 28.1451C29.0094 27.0951 27.1325 27.0934 25.7911 28.1451L16.9206 35.0865C15.7306 36.0193 15.0469 37.4225 15.0469 38.9332V53.4069H41.0934V38.9332C41.0934 37.4209 40.4097 36.0193 39.2197 35.0881ZM37.8376 50.1511H18.3027V38.9332C18.3027 38.4286 18.5306 37.9613 18.9278 37.6504L27.7966 30.7106C27.9562 30.5837 28.1808 30.5853 28.3436 30.7106L37.2125 37.6537C37.6097 37.963 37.8376 38.4318 37.8376 38.9348V50.1511ZM24.8143 38.7558H31.3259V45.2674H24.8143V38.7558ZM44.3492 35.5H47.605V38.7558H44.3492V35.5ZM44.3492 42.0116H47.605V45.2674H44.3492V42.0116ZM37.8376 22.4767H41.0934V25.7325H37.8376V22.4767ZM47.605 25.7325H44.3492V22.4767H47.605V25.7325ZM37.8376 28.9883H41.0934V32.2441H37.8376V28.9883ZM44.3492 28.9883H47.605V32.2441H44.3492V28.9883ZM54.1166 19.2209V53.4069H44.3492V50.1511H50.8608V19.2209C50.8608 18.3223 50.1315 17.593 49.2329 17.593H36.2097C35.3111 17.593 34.5818 18.3223 34.5818 19.2209V27.3246L31.3259 24.7769V19.2209C31.3259 19.1932 31.3259 19.1639 31.3276 19.1362C31.3732 16.4827 33.5448 14.3372 36.2097 14.3372H49.2329C51.9255 14.3372 54.1166 16.5283 54.1166 19.2209Z" fill="#30313D"/>
</svg>
