<svg width="61" height="79" viewBox="0 0 61 79" fill="none" xmlns="http://www.w3.org/2000/svg">
<path d="M30.5 40.5257C41.53 40.5257 50.5 31.5561 50.5 20.5265C50.5 9.49697 41.53 0.527344 30.5 0.527344C19.47 0.527344 10.5 9.49697 10.5 20.5265C10.5 31.5561 19.47 40.5257 30.5 40.5257ZM30.5 7.19373C37.8533 7.19373 43.8333 13.1735 43.8333 20.5265C43.8333 27.8795 37.8533 33.8593 30.5 33.8593C23.1467 33.8593 17.1667 27.8795 17.1667 20.5265C17.1667 13.1735 23.1467 7.19373 30.5 7.19373Z" fill="#C6C6C6"/>
<path d="M60.5 75.1363C60.5 76.9762 59.01 78.4695 57.1667 78.4695C55.3233 78.4695 53.8333 76.9762 53.8333 75.1363C53.8333 65.0734 47.4167 56.5037 38.47 53.2372L33.4133 60.8235L37.0567 74.123C37.6667 76.3429 35.7067 78.4728 33.0533 78.4728H27.9467C25.2933 78.4728 23.3367 76.3429 23.9433 74.123L27.5867 60.8235L22.53 53.2372C13.5833 56.5037 7.16667 65.0734 7.16667 75.1396C7.16667 76.9795 5.67333 78.4728 3.83333 78.4728C1.99333 78.4728 0.5 76.9795 0.5 75.1396C0.5 58.6003 13.96 45.1409 30.5 45.1409C47.04 45.1409 60.5 58.597 60.5 75.1363Z" fill="#898989"/>
</svg>
