<svg width="65" height="61" viewBox="0 0 65 61" fill="none" xmlns="http://www.w3.org/2000/svg">
<g id="no group 1" clip-path="url(#clip0_16465_30379)">
<g id="Group">
<path id="Vector" d="M18.6618 31.3064H11.1523V36.325H18.6618V31.3064Z" fill="#BEBEBE"/>
<path id="Vector_2" d="M54.5263 33.0088H49.5195V38.0274H54.5263V33.0088Z" fill="#BEBEBE"/>
<path id="Vector_3" d="M46.0341 28.4578H41.0273V33.4764H46.0341V28.4578Z" fill="#868686"/>
<path id="Vector_4" d="M16.4208 12.532H11.4141V17.5506H16.4208V12.532Z" fill="#E5E5E5"/>
<path id="Vector_5" d="M26.745 17.5505H21.7383V22.5692H26.745V17.5505Z" fill="#BEBEBE"/>
<path id="Vector_6" d="M54.5263 43.0474H49.5195V48.066H54.5263V43.0474Z" fill="white"/>
<path id="Vector_7" d="M27.5732 35.5195H22.5664V40.5382H27.5732V35.5195Z" fill="#868686"/>
<path id="Vector_8" d="M54.5263 22.9717H49.5195V27.9903H54.5263V22.9717Z" fill="white"/>
<path id="Vector_9" d="M64.5396 20.4634C64.5396 18.4666 63.7483 16.5521 62.3402 15.1406C60.9321 13.7292 59.0209 12.936 57.0301 12.936H52.8955V17.9547H57.0301C57.6937 17.9547 58.3308 18.2195 58.7997 18.6896C59.2699 19.1596 59.5329 19.7982 59.5329 20.4634V55.5939H51.1992V60.6126H64.5396V20.4634Z" fill="#898989"/>
<path id="Vector_10" d="M36.654 43.0474H29.1445V48.066H36.654V43.0474Z" fill="#E5E5E5"/>
<path id="Vector_11" d="M18.404 48.5801H10.8945V53.5987H18.404V48.5801Z" fill="#E5E5E5"/>
<path id="Vector_12" d="M39.4118 33.0088H31.9023V38.0274H39.4118V33.0088Z" fill="white"/>
</g>
<path id="Vector_13" d="M5.46379 55.5918V7.91528C5.46379 7.2501 5.72797 6.61152 6.19692 6.14146C6.66586 5.67139 7.30293 5.40659 7.96653 5.40659H33.0003C33.6639 5.40659 34.301 5.67139 34.7699 6.14146C35.2401 6.61152 35.5031 7.2501 35.5031 7.91528V23.3589H40.5098V7.91528C40.5098 5.91846 39.7185 4.004 38.3104 2.59255C36.9023 1.18109 34.9911 0.387939 33.0003 0.387939H7.96653C5.97445 0.387939 4.06452 1.18109 2.65641 2.59255C1.2483 4.004 0.457031 5.91973 0.457031 7.91528V60.6105H17.98V55.5918" fill="#C6C6C6"/>
</g>
<defs>
<clipPath id="clip0_16465_30379">
<rect width="64.0829" height="60.2225" fill="white" transform="translate(0.457031 0.388672)"/>
</clipPath>
</defs>
</svg>
