<svg width="48" height="48" viewBox="0 0 48 48" fill="none" xmlns="http://www.w3.org/2000/svg">
<path d="M38 0H10C7.34881 0.00317572 4.80712 1.05776 2.93244 2.93244C1.05776 4.80712 0.00317572 7.34881 0 10L0 38C0.00317572 40.6512 1.05776 43.1929 2.93244 45.0676C4.80712 46.9422 7.34881 47.9968 10 48H38C40.6512 47.9968 43.1929 46.9422 45.0676 45.0676C46.9422 43.1929 47.9968 40.6512 48 38V10C47.9968 7.34881 46.9422 4.80712 45.0676 2.93244C43.1929 1.05776 40.6512 0.00317572 38 0ZM10 4H38C39.5913 4 41.1174 4.63214 42.2426 5.75736C43.3679 6.88258 44 8.4087 44 10V38C43.9966 38.891 43.7914 39.7696 43.4 40.57L25.074 22.244C24.1454 21.3151 23.0429 20.5783 21.8294 20.0756C20.616 19.5729 19.3154 19.3141 18.002 19.3141C16.6886 19.3141 15.388 19.5729 14.1746 20.0756C12.9611 20.5783 11.8586 21.3151 10.93 22.244L4 29.172V10C4 8.4087 4.63214 6.88258 5.75736 5.75736C6.88258 4.63214 8.4087 4 10 4ZM10 44C8.4087 44 6.88258 43.3679 5.75736 42.2426C4.63214 41.1174 4 39.5913 4 38V34.828L13.756 25.072C14.3132 24.5144 14.9748 24.0721 15.703 23.7704C16.4312 23.4686 17.2117 23.3133 18 23.3133C18.7883 23.3133 19.5688 23.4686 20.297 23.7704C21.0252 24.0721 21.6868 24.5144 22.244 25.072L40.57 43.4C39.7696 43.7914 38.891 43.9966 38 44H10Z" fill="#94989C"/>
<path d="M32.3072 20.3077C33.5852 20.3077 34.8345 19.9288 35.8971 19.2188C36.9597 18.5088 37.7879 17.4996 38.2769 16.3189C38.766 15.1382 38.8939 13.839 38.6446 12.5856C38.3953 11.3322 37.7799 10.1808 36.8762 9.27719C35.9726 8.37353 34.8212 7.75812 33.5678 7.5088C32.3144 7.25948 31.0152 7.38744 29.8345 7.8765C28.6538 8.36556 27.6447 9.19375 26.9347 10.2563C26.2247 11.3189 25.8457 12.5682 25.8457 13.8462C25.8457 15.5599 26.5265 17.2034 27.7382 18.4152C28.95 19.627 30.5935 20.3077 32.3072 20.3077ZM32.3072 11.077C32.8549 11.077 33.3903 11.2394 33.8457 11.5437C34.3011 11.8479 34.6561 12.2804 34.8657 12.7864C35.0753 13.2925 35.1301 13.8493 35.0233 14.3864C34.9164 14.9236 34.6527 15.417 34.2654 15.8043C33.8781 16.1916 33.3847 16.4554 32.8475 16.5622C32.3103 16.6691 31.7535 16.6142 31.2475 16.4046C30.7415 16.195 30.309 15.8401 30.0047 15.3847C29.7004 14.9293 29.538 14.3939 29.538 13.8462C29.538 13.1117 29.8298 12.4074 30.3491 11.888C30.8684 11.3687 31.5728 11.077 32.3072 11.077Z" fill="#94989C"/>
</svg>
