<svg width="41" height="41" viewBox="0 0 41 41" fill="none" xmlns="http://www.w3.org/2000/svg">
<g clip-path="url(#clip0_17846_22504)">
<path fill-rule="evenodd" clip-rule="evenodd" d="M6.19016 0.348633C4.43891 0.348633 3.01953 1.76863 3.01953 3.51988V37.1705C3.01953 38.9224 4.43891 40.3418 6.19016 40.3418H34.7989C36.5495 40.3418 37.9702 38.9224 37.9702 37.1705V13.0424L26.1564 0.348633H6.19016Z" fill="#F31A51"/>
<path d="M9.36217 31.2556C9.5264 32.2478 10.3884 33.0045 11.4272 33.0045H23.9865C25.1426 33.0045 26.0797 32.0674 26.0797 30.9113V26.9238M9.36217 31.2556C9.34363 31.1436 9.33398 31.0286 9.33398 30.9113V18.352C9.33398 17.196 10.2711 16.2588 11.4272 16.2588H23.9865C25.1426 16.2588 26.0797 17.196 26.0797 18.352V26.9238M9.36217 31.2556L13.3609 27.2568C14.0727 26.6341 15.1135 26.566 15.9004 27.0905L16.4333 27.4458C17.1917 27.9514 18.1903 27.908 18.9021 27.3387L21.6736 25.1214C22.38 24.5562 23.3641 24.5119 24.115 24.9963C24.1982 25.05 24.2723 25.1164 24.3423 25.1866L26.0797 26.9238M16.6602 21.4918C16.6602 22.6479 15.7231 23.585 14.567 23.585C13.411 23.585 12.4738 22.6479 12.4738 21.4918C12.4738 20.3358 13.411 19.3986 14.567 19.3986C15.7231 19.3986 16.6602 20.3358 16.6602 21.4918Z" stroke="white" stroke-width="1.25903" stroke-linecap="round" stroke-linejoin="round"/>
<path fill-rule="evenodd" clip-rule="evenodd" d="M37.9993 13.0659V13.6909H30C28.4762 13.6909 26.055 12.9034 26.17 9.49902C26.17 9.49902 26.3 13.0659 29.9218 13.0659H37.9993Z" fill="#B6141C"/>
<path opacity="0.5" fill-rule="evenodd" clip-rule="evenodd" d="M26.1855 0.346191V9.44682C26.1855 10.4818 26.8755 13.0662 30.0005 13.0662H37.9999L26.1855 0.346191Z" fill="white"/>
</g>
<defs>
<clipPath id="clip0_17846_22504">
<rect width="40" height="40" fill="white" transform="translate(0.5 0.500488)"/>
</clipPath>
</defs>
</svg>
