<svg width="33" height="33" viewBox="0 0 33 33" fill="none" xmlns="http://www.w3.org/2000/svg">
<g clip-path="url(#clip0_15941_70469)">
<path fill-rule="evenodd" clip-rule="evenodd" d="M4.80058 0.576172C3.39612 0.576172 2.25781 1.71498 2.25781 3.11944V30.1065C2.25781 31.5115 3.39612 32.6498 4.80058 32.6498H27.7442C29.1481 32.6498 30.2874 31.5115 30.2874 30.1065V10.7563L20.8131 0.576172H4.80058Z" fill="#6305D6"/>
<path fill-rule="evenodd" clip-rule="evenodd" d="M30.3104 10.7746V11.2759H23.8951C22.673 11.2759 20.7313 10.6443 20.8235 7.91406C20.8235 7.91406 20.9277 10.7746 23.8324 10.7746H30.3104Z" fill="#2F0562"/>
<path opacity="0.5" fill-rule="evenodd" clip-rule="evenodd" d="M20.8359 0.574219V7.87272C20.8359 8.70276 21.3893 10.7754 23.8955 10.7754H30.3108L20.8359 0.574219Z" fill="#BB84FF"/>
<path d="M6.27513 26.0162H7.03668C7.5935 26.0162 7.83097 25.7378 7.83097 25.2956C7.83097 24.8534 7.5935 24.575 7.03668 24.575H6.27513V26.0162ZM9.25579 25.2956C9.25579 26.2455 8.60889 27.1298 7.14313 27.1298H6.27513V29.1934H4.87488V23.445H7.14313C8.55157 23.445 9.25579 24.2392 9.25579 25.2956ZM12.1384 23.445C13.9726 23.445 15.1518 24.6077 15.1518 26.3192C15.1518 28.0224 13.9726 29.1934 12.1384 29.1934H9.98477V23.445H12.1384ZM11.385 27.9814H12.0483C13.1046 27.9814 13.727 27.3755 13.727 26.3192C13.727 25.2628 13.1046 24.6405 12.0483 24.6405H11.385V27.9814ZM20.1105 27.4819C20.1105 28.4482 19.3571 29.2507 18.0142 29.2507C16.7777 29.2507 15.8115 28.6365 15.7705 27.4738H17.2609C17.3018 27.9159 17.5802 28.1288 17.9733 28.1288C18.3827 28.1288 18.6447 27.9241 18.6447 27.5884C18.6447 26.5239 15.7705 27.0971 15.7869 25.0581C15.7869 23.969 16.6795 23.3631 17.8832 23.3631C19.1361 23.3631 19.9795 23.9854 20.0368 25.0827H18.5219C18.4973 24.7142 18.2353 24.4931 17.8586 24.4849C17.5229 24.4767 17.2691 24.6487 17.2691 25.009C17.2691 26.008 20.1105 25.5576 20.1105 27.4819Z" fill="white"/>
</g>
<defs>
<clipPath id="clip0_15941_70469">
<rect width="32.0791" height="32.0791" fill="white" transform="translate(0.125 0.601562)"/>
</clipPath>
</defs>
</svg>
