<svg width="33" height="33" viewBox="0 0 33 33" fill="none" xmlns="http://www.w3.org/2000/svg">
<g clip-path="url(#clip0_15941_70440)">
<path fill-rule="evenodd" clip-rule="evenodd" d="M4.68925 0.164062C3.28479 0.164062 2.14648 1.30287 2.14648 2.70733V29.6944C2.14648 31.0993 3.28479 32.2377 4.68925 32.2377H27.6328C29.0368 32.2377 30.1761 31.0993 30.1761 29.6944V10.3442L20.7017 0.164062H4.68925Z" fill="#F31A51"/>
<path d="M7.23549 24.951C7.36721 25.7467 8.05854 26.3535 8.8916 26.3535H18.9639C19.891 26.3535 20.6426 25.602 20.6426 24.6748V21.4769M7.23549 24.951C7.22063 24.8611 7.21289 24.7689 7.21289 24.6748V14.6025C7.21289 13.6754 7.96447 12.9238 8.8916 12.9238H18.9639C19.891 12.9238 20.6426 13.6754 20.6426 14.6025V21.4769M7.23549 24.951L10.4424 21.744C11.0132 21.2446 11.848 21.19 12.479 21.6107L12.9064 21.8955C13.5146 22.301 14.3154 22.2663 14.8863 21.8097L17.109 20.0314C17.6755 19.5782 18.4647 19.5426 19.0669 19.9311C19.1337 19.9742 19.1931 20.0275 19.2492 20.0837L20.6426 21.4769M13.0884 17.1206C13.0884 18.0478 12.3368 18.7993 11.4097 18.7993C10.4825 18.7993 9.73096 18.0478 9.73096 17.1206C9.73096 16.1935 10.4825 15.4419 11.4097 15.4419C12.3368 15.4419 13.0884 16.1935 13.0884 17.1206Z" stroke="white" stroke-width="1.25903" stroke-linecap="round" stroke-linejoin="round"/>
<path fill-rule="evenodd" clip-rule="evenodd" d="M30.199 10.3625V10.8637H23.7837C22.5617 10.8637 20.6199 10.2322 20.7122 7.50195C20.7122 7.50195 20.8164 10.3625 23.7211 10.3625H30.199Z" fill="#B6141C"/>
<path opacity="0.5" fill-rule="evenodd" clip-rule="evenodd" d="M20.7246 0.162109V7.46061C20.7246 8.29065 21.278 10.3633 23.7842 10.3633H30.1995L20.7246 0.162109Z" fill="white"/>
</g>
<defs>
<clipPath id="clip0_15941_70440">
<rect width="32.0791" height="32.0791" fill="white" transform="translate(0.125 0.285156)"/>
</clipPath>
</defs>
</svg>
