<svg width="11" height="12" viewBox="0 0 11 12" fill="none" xmlns="http://www.w3.org/2000/svg">
<path d="M10.7001 4.25C9.97963 2.2123 8.03795 0.75175 5.75397 0.75H5.74603C3.46205 0.75175 1.52025 2.2123 0.79995 4.25C0.606283 4.79752 0.5 5.38622 0.5 6C0.5 6.61378 0.6064 7.2026 0.79995 7.75C1.52083 9.78887 3.46427 11.25 5.75 11.25C8.03573 11.25 9.97917 9.78887 10.7001 7.75C10.8936 7.20248 11 6.61378 11 6C11 5.38622 10.8937 4.79752 10.7001 4.25Z" fill="#D52B1E"/>
<path d="M9.01367 4.725H6.91367V2.625H5.11367V4.725H3.01367V6.525H5.11367V8.625H6.91367V6.525H9.01367V4.725Z" fill="#F3F4F5"/>
</svg>
