<svg width="16" height="16" viewBox="0 0 16 16" fill="none" xmlns="http://www.w3.org/2000/svg">
<path d="M12.6667 4V2.66667C12.6667 1.95942 12.3857 1.28115 11.8856 0.781049C11.3855 0.280952 10.7072 0 10 0L6 0C5.29276 0 4.61448 0.280952 4.11438 0.781049C3.61428 1.28115 3.33333 1.95942 3.33333 2.66667V4C2.4496 4.00106 1.60237 4.35259 0.97748 4.97748C0.352588 5.60237 0.00105857 6.4496 0 7.33333L0 10.6667C0.00105857 11.5504 0.352588 12.3976 0.97748 13.0225C1.60237 13.6474 2.4496 13.9989 3.33333 14C3.33333 14.5304 3.54405 15.0391 3.91912 15.4142C4.29419 15.7893 4.8029 16 5.33333 16H10.6667C11.1971 16 11.7058 15.7893 12.0809 15.4142C12.456 15.0391 12.6667 14.5304 12.6667 14C13.5504 13.9989 14.3976 13.6474 15.0225 13.0225C15.6474 12.3976 15.9989 11.5504 16 10.6667V7.33333C15.9989 6.4496 15.6474 5.60237 15.0225 4.97748C14.3976 4.35259 13.5504 4.00106 12.6667 4ZM4.66667 2.66667C4.66667 2.31304 4.80714 1.97391 5.05719 1.72386C5.30724 1.47381 5.64638 1.33333 6 1.33333H10C10.3536 1.33333 10.6928 1.47381 10.9428 1.72386C11.1929 1.97391 11.3333 2.31304 11.3333 2.66667V4H4.66667V2.66667ZM11.3333 14C11.3333 14.1768 11.2631 14.3464 11.1381 14.4714C11.013 14.5964 10.8435 14.6667 10.6667 14.6667H5.33333C5.15652 14.6667 4.98695 14.5964 4.86193 14.4714C4.7369 14.3464 4.66667 14.1768 4.66667 14V11.3333C4.66667 11.1565 4.7369 10.987 4.86193 10.8619C4.98695 10.7369 5.15652 10.6667 5.33333 10.6667H10.6667C10.8435 10.6667 11.013 10.7369 11.1381 10.8619C11.2631 10.987 11.3333 11.1565 11.3333 11.3333V14ZM14.6667 10.6667C14.6667 11.1971 14.456 11.7058 14.0809 12.0809C13.7058 12.456 13.1971 12.6667 12.6667 12.6667V11.3333C12.6667 10.8029 12.456 10.2942 12.0809 9.91912C11.7058 9.54405 11.1971 9.33333 10.6667 9.33333H5.33333C4.8029 9.33333 4.29419 9.54405 3.91912 9.91912C3.54405 10.2942 3.33333 10.8029 3.33333 11.3333V12.6667C2.8029 12.6667 2.29419 12.456 1.91912 12.0809C1.54405 11.7058 1.33333 11.1971 1.33333 10.6667V7.33333C1.33333 6.8029 1.54405 6.29419 1.91912 5.91912C2.29419 5.54405 2.8029 5.33333 3.33333 5.33333H12.6667C13.1971 5.33333 13.7058 5.54405 14.0809 5.91912C14.456 6.29419 14.6667 6.8029 14.6667 7.33333V10.6667Z" fill="#2580D3"/>
<path d="M12 6.66577H10.6667C10.4899 6.66577 10.3203 6.73601 10.1953 6.86103C10.0702 6.98606 10 7.15563 10 7.33244C10 7.50925 10.0702 7.67882 10.1953 7.80384C10.3203 7.92887 10.4899 7.9991 10.6667 7.9991H12C12.1768 7.9991 12.3464 7.92887 12.4714 7.80384C12.5964 7.67882 12.6667 7.50925 12.6667 7.33244C12.6667 7.15563 12.5964 6.98606 12.4714 6.86103C12.3464 6.73601 12.1768 6.66577 12 6.66577Z" fill="#2580D3"/>
</svg>
