<svg width="14" height="14" viewBox="0 0 14 14" fill="none" xmlns="http://www.w3.org/2000/svg">
<g id="Icon Container">
<path id="Vector" d="M1.75076 6.23067C2.1772 3.36086 4.87209 1.37677 7.76998 1.79908C8.75868 1.94315 9.68616 2.36093 10.4456 3.00429L9.76194 3.68129C9.53281 3.90825 9.53286 4.27621 9.76208 4.50312C9.87208 4.61203 10.0213 4.67324 10.1768 4.67326H12.8679C13.192 4.67326 13.4547 4.41309 13.4547 4.09215V1.42711C13.4547 1.10617 13.1919 0.846052 12.8678 0.846106C12.7123 0.846134 12.5631 0.907342 12.4531 1.01625L11.6902 1.7717C8.78105 -0.796365 4.32052 -0.54276 1.72733 2.33816C0.808628 3.35876 0.212446 4.62385 0.012637 5.97671C-0.0661423 6.45632 0.262591 6.90837 0.746875 6.98639C0.790501 6.99342 0.834566 6.9972 0.87877 6.99775C1.32185 6.99301 1.69377 6.66583 1.75076 6.23067Z" fill="#2580D3"/>
<path id="Vector_2" d="M13.1218 7.00195C12.6787 7.00669 12.3068 7.33387 12.2498 7.76904C11.8234 10.6388 9.1285 12.6229 6.23061 12.2007C5.24191 12.0566 4.31443 11.6388 3.55503 10.9954L4.23865 10.3184C4.46778 10.0915 4.46773 9.72352 4.23852 9.49661C4.12852 9.3877 3.97932 9.32649 3.82377 9.32646H1.1327C0.808615 9.32646 0.545898 9.58663 0.545898 9.90758V12.5726C0.545981 12.8936 0.808753 13.1537 1.13284 13.1536C1.28839 13.1536 1.43758 13.0924 1.54758 12.9835L2.31043 12.228C5.21886 14.7964 9.67905 14.5435 12.2725 11.6633C13.1917 10.6425 13.7882 9.37694 13.988 8.02359C14.0671 7.54403 13.7386 7.09176 13.2544 7.01342C13.2106 7.00631 13.1662 7.00247 13.1218 7.00195Z" fill="#2580D3"/>
</g>
</svg>
