<svg width="19" height="18" viewBox="0 0 19 18" fill="none" xmlns="http://www.w3.org/2000/svg">
<g id="Icon Container">
<g id="Icon Container_2">
<path id="Vector" d="M2.7507 8.01086C3.29898 4.32111 6.76384 1.77013 10.4897 2.3131C11.7609 2.49833 12.9534 3.03548 13.9297 3.86266L13.0508 4.73308C12.7562 5.0249 12.7563 5.49799 13.051 5.78973C13.1924 5.92975 13.3842 6.00845 13.5842 6.00848H17.0442C17.4609 6.00848 17.7987 5.67398 17.7987 5.26134V1.83486C17.7986 1.42222 17.4607 1.08778 17.044 1.08785C16.8441 1.08789 16.6522 1.16658 16.5108 1.3066L15.5299 2.2779C11.7896 -1.0239 6.05468 -0.697834 2.72057 3.0062C1.53938 4.31841 0.772866 5.94495 0.515969 7.68434C0.414681 8.30099 0.837338 8.88219 1.45999 8.9825C1.51608 8.99154 1.57273 8.9964 1.62957 8.9971C2.19924 8.99101 2.67742 8.57035 2.7507 8.01086Z" fill="white"/>
<path id="Vector_2" d="M17.3712 9.00195C16.8015 9.00805 16.3233 9.42871 16.2501 9.9882C15.7018 13.6779 12.2369 16.2289 8.51106 15.686C7.23987 15.5008 6.04741 14.9636 5.07103 14.1364L5.94997 13.266C6.24457 12.9742 6.2445 12.5011 5.9498 12.2094C5.80837 12.0693 5.61655 11.9906 5.41655 11.9906H1.95661C1.53993 11.9906 1.20215 12.3251 1.20215 12.7378V16.1642C1.20225 16.5769 1.5401 16.9113 1.95678 16.9112C2.15678 16.9112 2.3486 16.8325 2.49003 16.6925L3.47083 15.7212C7.21024 19.0233 12.9448 18.6983 16.2793 14.9951C17.4611 13.6826 18.228 12.0555 18.4848 10.3155C18.5865 9.69891 18.1642 9.11742 17.5417 9.0167C17.4853 9.00756 17.4283 9.00262 17.3712 9.00195Z" fill="white"/>
</g>
</g>
</svg>
