<svg width="14" height="14" viewBox="0 0 14 14" fill="none" xmlns="http://www.w3.org/2000/svg">
<g id="Group 25117">
<g id="Group">
<path id="Vector" d="M1.73292 6.231C2.15524 3.36104 4.82416 1.37684 7.69411 1.79917C8.67328 1.94325 9.59182 2.36106 10.3439 3.00445L9.66687 3.68148C9.43994 3.90846 9.44 4.27644 9.667 4.50336C9.77594 4.61227 9.9237 4.67349 10.0778 4.67351H12.7429C13.0639 4.67351 13.3241 4.41333 13.3241 4.09237V1.42719C13.324 1.10623 13.0638 0.846097 12.7428 0.846151C12.5887 0.846179 12.441 0.90739 12.332 1.0163L11.5765 1.77179C8.69543 -0.796408 4.27791 -0.542789 1.70971 2.33828C0.799865 3.35894 0.209431 4.6241 0.0115481 5.97702C-0.0664719 6.45667 0.259092 6.90874 0.738708 6.98676C0.781913 6.99379 0.825554 6.99758 0.869331 6.99812C1.30814 6.99338 1.67647 6.66618 1.73292 6.231Z" fill="white"/>
<path id="Vector_2" d="M12.9938 7.00195C12.5549 7.00669 12.1866 7.33389 12.1302 7.76908C11.7078 10.639 9.03893 12.6232 6.16897 12.2009C5.1898 12.0568 4.27127 11.639 3.51918 10.9957L4.19622 10.3186C4.42314 10.0916 4.42309 9.72366 4.19608 9.49674C4.08714 9.38783 3.93939 9.32661 3.78533 9.32659H1.12021C0.799247 9.32659 0.539062 9.58677 0.539062 9.90773V12.5729C0.539144 12.8939 0.799383 13.154 1.12034 13.1539C1.27439 13.1539 1.42215 13.0927 1.53109 12.9838L2.28658 12.2283C5.16697 14.7968 9.58417 14.544 12.1527 11.6635C13.063 10.6427 13.6537 9.37707 13.8515 8.02365C13.9299 7.54406 13.6046 7.09177 13.1251 7.01342C13.0816 7.00631 13.0377 7.00247 12.9938 7.00195Z" fill="white"/>
</g>
</g>
</svg>
