<svg width="30" height="30" viewBox="0 0 30 30" fill="none" xmlns="http://www.w3.org/2000/svg">
<g id="Group 22738">
<path id="Vector" d="M18.8337 20C27.07 19.9663 30 15.61 30 11.875C29.9992 10.876 29.6565 9.90731 29.0288 9.13004C28.4012 8.35278 27.5264 7.81373 26.55 7.6025C26.9112 6.58624 27.2035 5.5468 27.425 4.49125C27.536 3.95087 27.5248 3.39251 27.3922 2.85701C27.2597 2.32152 27.0091 1.82243 26.6587 1.39625C26.304 0.959425 25.8562 0.607362 25.348 0.365793C24.8397 0.124224 24.284 -0.000749336 23.7212 5.27794e-06H6.27875C5.71582 -0.000935668 5.1598 0.123948 4.65135 0.365524C4.14289 0.6071 3.69486 0.959261 3.34 1.39625C2.9897 1.82243 2.7391 2.32152 2.60652 2.85701C2.47394 3.39251 2.46275 3.95087 2.57375 4.49125C2.79466 5.54695 3.087 6.58642 3.44875 7.6025C2.47253 7.81398 1.59807 8.35313 0.970682 9.13037C0.343294 9.90762 0.00075937 10.8761 0 11.875C0 15.61 2.93 19.9663 11.1662 20C11.213 20.2631 11.241 20.5292 11.25 20.7962V25C11.2715 25.3339 11.2215 25.6685 11.1035 25.9815C10.9855 26.2946 10.802 26.5789 10.5655 26.8155C10.3289 27.052 10.0446 27.2355 9.73154 27.3535C9.41849 27.4715 9.08388 27.5215 8.75 27.5H6.25V30H23.75V27.5H21.26C20.9254 27.5226 20.5899 27.4734 20.2758 27.3559C19.9617 27.2384 19.6763 27.0552 19.4387 26.8185C19.2011 26.5819 19.0168 26.2972 18.898 25.9836C18.7792 25.67 18.7288 25.3347 18.75 25V20.7962C18.759 20.5292 18.787 20.2631 18.8337 20ZM25.625 10C26.1223 10 26.5992 10.1975 26.9508 10.5492C27.3025 10.9008 27.5 11.3777 27.5 11.875C27.5 14.435 25.4613 17.1563 19.845 17.4688C20.0661 17.1784 20.3212 16.9157 20.605 16.6863C22.736 14.8576 24.4275 12.5723 25.5538 10H25.625ZM2.5 11.875C2.5 11.3777 2.69754 10.9008 3.04917 10.5492C3.40081 10.1975 3.87772 10 4.375 10H4.44625C5.57162 12.5725 7.26275 14.8579 9.39375 16.6863C9.67792 16.9157 9.9335 17.1784 10.155 17.4688C4.53875 17.1563 2.5 14.435 2.5 11.875ZM16.25 20.7962V25C16.2359 25.8717 16.4455 26.7324 16.8588 27.5H13.1412C13.5545 26.7324 13.7641 25.8717 13.75 25V20.7962C13.7712 19.6402 13.5308 18.4944 13.0468 17.4443C12.5628 16.3943 11.8477 15.4673 10.955 14.7325C7.875 12.27 5.75 7.5625 5.0225 3.9875C4.98513 3.81101 4.98821 3.62834 5.03151 3.45321C5.07481 3.27807 5.1572 3.11501 5.2725 2.97625C5.39384 2.82657 5.54726 2.70606 5.72143 2.62363C5.8956 2.54119 6.08606 2.49895 6.27875 2.5H23.7212C23.9129 2.49988 24.1021 2.54258 24.2751 2.62498C24.4482 2.70738 24.6006 2.82739 24.7213 2.97625C24.8362 3.11519 24.9184 3.27826 24.9617 3.45334C25.005 3.62841 25.0082 3.81099 24.9712 3.9875C24.2387 7.5625 22.1187 12.27 19.0375 14.7375C18.1469 15.4726 17.4338 16.3992 16.9511 17.4482C16.4685 18.4973 16.2288 19.6417 16.25 20.7962Z" fill="#2580D3"/>
</g>
</svg>
