<svg width="17" height="18" viewBox="0 0 17 18" fill="none" xmlns="http://www.w3.org/2000/svg">
<g id="Group 289890">
<path id="Vector" d="M13.6426 18H3.35689C2.6067 18 1.88725 17.702 1.35679 17.1715C0.826328 16.6411 0.52832 15.9216 0.52832 15.1714V2.82857C0.52832 2.07838 0.826328 1.35893 1.35679 0.828473C1.88725 0.298008 2.6067 0 3.35689 0H11.0712C11.2757 0.000185143 11.4718 0.081576 11.6163 0.226286L16.2449 4.88571C16.3896 5.03025 16.471 5.22633 16.4712 5.43086V15.1714C16.4712 15.9216 16.1732 16.6411 15.6427 17.1715C15.1122 17.702 14.3927 18 13.6426 18ZM3.35689 1.54286C3.0159 1.54286 2.68888 1.67832 2.44776 1.91944C2.20664 2.16056 2.07118 2.48758 2.07118 2.82857V15.1714C2.07118 15.5124 2.20664 15.8395 2.44776 16.0806C2.68888 16.3217 3.0159 16.4571 3.35689 16.4571H13.6426C13.9836 16.4571 14.3107 16.3217 14.5518 16.0806C14.7929 15.8395 14.9283 15.5124 14.9283 15.1714V5.71886L10.7523 1.54286H3.35689Z" fill="white"/>
<path id="Vector_2" d="M13.3847 17.2292H11.8419V10.8007H5.15614V17.2292H3.61328V10.5435C3.61328 10.2026 3.74874 9.87547 3.98986 9.63437C4.23098 9.39328 4.558 9.25781 4.899 9.25781H12.099C12.44 9.25781 12.7671 9.39328 13.0081 9.63437C13.2492 9.87547 13.3847 10.2026 13.3847 10.5435V17.2292Z" fill="white"/>
<path id="Vector_3" d="M8.98245 5.6572H4.92989C4.75564 5.65585 4.58337 5.6202 4.4229 5.55227C4.26243 5.48435 4.11692 5.38547 3.99466 5.26131C3.87241 5.13714 3.7758 4.99011 3.71038 4.82861C3.64494 4.66711 3.61196 4.49431 3.61332 4.32006V0.771484H5.15618V4.11434H8.75617V0.771484H10.299V4.32006C10.3004 4.49431 10.2674 4.66711 10.202 4.82861C10.1365 4.99011 10.0399 5.13714 9.91773 5.26131C9.79544 5.38547 9.64989 5.48435 9.48944 5.55227C9.32898 5.6202 9.15669 5.65585 8.98245 5.6572Z" fill="white"/>
</g>
</svg>
