<svg width="24" height="25" viewBox="0 0 24 25" fill="none" xmlns="http://www.w3.org/2000/svg">
<path d="M23.8317 9.3887C23.6271 8.71606 23.2184 8.12927 22.666 7.71513C22.1135 7.30099 21.4467 7.08147 20.7642 7.08905H16.3944L15.0671 2.8162C14.8584 2.14361 14.4483 1.55688 13.8959 1.1406C13.3435 0.724314 12.6774 0.5 11.9936 0.5C11.3098 0.5 10.6437 0.724314 10.0913 1.1406C9.53886 1.55688 9.12874 2.14361 8.92002 2.8162L7.59278 7.08905H3.22299C2.54261 7.09005 1.87994 7.31311 1.32962 7.72636C0.779313 8.13962 0.369512 8.72194 0.158754 9.39013C-0.0520035 10.0583 -0.0529364 10.7782 0.156089 11.447C0.365114 12.1158 0.773405 12.6992 1.32264 13.114L4.87929 15.8L3.52704 20.1256C3.30851 20.7965 3.30575 21.5223 3.51915 22.195C3.73255 22.8676 4.1507 23.451 4.71126 23.8581C5.26221 24.2784 5.92987 24.5035 6.61476 24.5C7.29964 24.4964 7.96509 24.2644 8.51195 23.8385L11.9936 21.1917L15.4762 23.8354C16.0262 24.2532 16.6902 24.4802 17.3729 24.4836C18.0556 24.4871 18.7218 24.2668 19.2757 23.8545C19.8295 23.4422 20.2426 22.8592 20.4554 22.1891C20.6682 21.5191 20.6699 20.7966 20.4601 20.1256L19.1079 15.8L22.6685 13.114C23.224 12.7044 23.6371 12.121 23.8466 11.4501C24.0561 10.7791 24.0509 10.0563 23.8317 9.3887ZM21.4883 11.4456L17.3435 14.5748C17.1733 14.7031 17.0466 14.8836 16.9816 15.0907C16.9166 15.2977 16.9165 15.5207 16.9815 15.7277L18.5568 20.7589C18.6365 21.014 18.6358 21.2888 18.5548 21.5435C18.4738 21.7983 18.3167 22.0199 18.1061 22.1766C17.8955 22.3334 17.6422 22.4171 17.3826 22.4157C17.123 22.4143 16.8705 22.328 16.6614 22.169L12.5857 19.0698C12.414 18.9395 12.2066 18.8693 11.9936 18.8693C11.7806 18.8693 11.5731 18.9395 11.4015 19.0698L7.32573 22.169C7.11678 22.3301 6.86358 22.4183 6.60286 22.4207C6.34214 22.4231 6.08745 22.3397 5.8757 22.1826C5.66395 22.0255 5.50615 21.8028 5.42518 21.5468C5.34422 21.2908 5.34429 21.0148 5.42539 20.7589L7.00567 15.7277C7.0706 15.5207 7.07055 15.2977 7.00553 15.0907C6.94052 14.8836 6.81385 14.7031 6.64361 14.5748L2.49886 11.4456C2.29012 11.2877 2.13502 11.0658 2.05572 10.8114C1.97641 10.5571 1.97695 10.2833 2.05726 10.0293C2.13757 9.7753 2.29354 9.554 2.5029 9.39702C2.71225 9.24004 2.96428 9.15541 3.22299 9.15522H8.32391C8.53567 9.15522 8.74195 9.08579 8.91307 8.95695C9.08418 8.8281 9.21129 8.64649 9.27608 8.43826L10.8264 3.44741C10.9059 3.19202 11.0619 2.96929 11.2718 2.81129C11.4818 2.65329 11.7348 2.56816 11.9946 2.56816C12.2543 2.56816 12.5074 2.65329 12.7173 2.81129C12.9272 2.96929 13.0832 3.19202 13.1628 3.44741L14.7131 8.43826C14.7779 8.64649 14.905 8.8281 15.0761 8.95695C15.2472 9.08579 15.4535 9.15522 15.6652 9.15522H20.7662C21.0249 9.15541 21.2769 9.24004 21.4863 9.39702C21.6956 9.554 21.8516 9.7753 21.9319 10.0293C22.0122 10.2833 22.0127 10.5571 21.9334 10.8114C21.8541 11.0658 21.699 11.2877 21.4903 11.4456H21.4883Z" fill="#30313D"/>
</svg>
