<svg width="31" height="31" viewBox="0 0 31 31" fill="none" xmlns="http://www.w3.org/2000/svg">
<g id="Group 22737">
<path id="Vector" d="M14.1262 30.9988C8.36836 31.0899 2.06386 26.0215 0.423962 19.1481C-1.32526 11.7278 2.46473 4.17978 9.46163 1.24446C12.2495 0.095857 15.1648 -0.305243 18.1713 0.241712C18.9184 0.369334 19.4286 1.00745 19.3192 1.70026C19.2099 2.42953 18.5904 2.84886 17.8069 2.73947C14.436 2.22898 11.2837 2.77593 8.42302 4.67204C5.07034 6.91456 3.01136 10.0504 2.62872 14.0797C2.13675 19.0387 3.95886 23.0679 7.94928 26.0397C10.6278 28.0088 13.6707 28.7927 16.9869 28.3552C21.8155 27.7171 25.2411 25.1099 27.3183 20.7343C28.3022 18.6376 28.6667 16.3951 28.3569 14.0614C28.3205 13.715 28.2476 13.3869 28.2476 13.0404C28.2111 12.2565 28.7031 11.7278 29.4684 11.6731C30.0697 11.6366 30.6345 12.1471 30.7257 12.8217C31.5456 18.3824 29.9786 23.1409 25.8424 26.9696C22.927 29.6679 19.4103 30.9806 14.108 30.9988H14.1262Z" fill="#2580D3"/>
<path id="Vector_2" d="M16.3324 25.8036C10.9572 25.7672 7.07606 22.923 5.67303 18.6021C3.97847 13.3695 6.87563 7.60828 12.0686 5.82156C13.6174 5.27461 15.2027 5.07406 16.8426 5.31107C17.6807 5.42046 18.1545 6.00388 18.0452 6.75138C17.9541 7.46242 17.2434 7.86352 16.4599 7.77237C13.9819 7.48066 11.8135 8.24639 10.0461 9.96018C6.09212 13.7889 7.42226 20.5893 12.4877 22.7042C17.6079 24.8373 23.2746 21.0816 23.3111 15.5391C23.3111 15.138 23.2746 14.7369 23.2746 14.3358C23.2564 13.5883 23.6755 13.0414 24.3497 12.9684C24.9874 12.8955 25.6251 13.3513 25.7162 14.0623C26.026 16.3778 25.6798 18.5838 24.4772 20.6076C22.4547 24.0169 19.43 25.6942 16.3506 25.8219L16.3324 25.8036Z" fill="#2580D3"/>
<path id="Vector_3" d="M22.022 5.42137C21.694 3.90813 22.3318 2.81422 23.4615 1.8844C23.9899 1.44683 24.4454 0.918109 24.9192 0.444082C25.3383 0.0429821 25.812 -0.102872 26.3586 0.152373C26.8871 0.389387 27.0875 0.82695 27.0875 1.3739C27.0875 2.04848 27.0875 2.70483 27.0875 3.37941C27.0875 3.76227 27.215 3.92636 27.6159 3.90813C28.2354 3.8899 28.8732 3.90813 29.4927 3.90813C30.1122 3.90813 30.6224 4.12691 30.8593 4.71033C31.0961 5.27551 30.8957 5.78601 30.4766 6.20534C29.6931 6.98931 28.9278 7.80974 28.0896 8.53901C27.7799 8.81249 27.3061 8.95834 26.9053 8.9948C26.0671 9.06773 25.2107 8.9948 24.3725 9.03127C24.0263 9.0495 23.6255 9.21359 23.3704 9.4506C21.5301 11.2556 19.7079 13.097 17.8858 14.9201C17.5214 15.2848 17.0841 15.6494 16.5557 15.4306C16.1913 15.2848 15.8086 14.9566 15.6082 14.6102C15.3531 14.1544 15.5535 13.6804 15.9362 13.2975C17.485 11.766 19.0338 10.2163 20.5643 8.68486C20.6008 8.6484 20.6554 8.59371 20.6919 8.55724C21.7123 7.75504 22.35 6.80699 21.9856 5.4396L22.022 5.42137Z" fill="#2580D3"/>
<path id="Vector_4" d="M10.4069 15.7056C10.3705 14.1195 10.8806 12.9344 11.8646 11.9316C12.5023 11.2935 13.2312 11.2206 13.796 11.7311C14.3427 12.2416 14.3062 12.9708 13.6867 13.6637C12.4112 15.104 12.7392 17.0912 14.3791 17.8934C15.2719 18.331 16.4563 18.1487 17.258 17.4741C17.5313 17.2553 17.8411 17.0183 18.1691 16.9272C18.7157 16.7631 19.1712 17.0001 19.4446 17.4923C19.7179 17.9846 19.7179 18.4951 19.2988 18.9509C17.914 20.4641 15.5088 21.0475 13.632 20.3365C11.6824 19.589 10.3887 17.6929 10.3887 15.7056H10.4069Z" fill="#2580D3"/>
</g>
</svg>
