<svg width="14" height="14" viewBox="0 0 14 14" fill="none" xmlns="http://www.w3.org/2000/svg">
<path id="Vector" d="M7.7568 6.99938C7.7568 8.11088 8.66266 9.01479 9.77657 9.01479C10.8905 9.01479 11.7963 8.11088 11.7963 6.99938C11.7963 5.88787 10.8905 4.98396 9.77657 4.98396C8.66266 4.98396 7.7568 5.88787 7.7568 6.99938ZM9.77657 5.99167C10.3335 5.99167 10.7865 6.44362 10.7865 6.99938C10.7865 7.55513 10.3335 8.00708 9.77657 8.00708C9.21961 8.00708 8.76668 7.55513 8.76668 6.99938C8.76668 6.44362 9.21961 5.99167 9.77657 5.99167ZM6.99938 4.98396C8.11329 4.98396 9.01915 4.08004 9.01915 2.96854C9.01915 1.85704 8.11329 0.953125 6.99938 0.953125C5.88548 0.953125 4.97962 1.85704 4.97962 2.96854C4.97962 4.08004 5.88548 4.98396 6.99938 4.98396ZM6.99938 1.96083C7.55634 1.96083 8.00927 2.41279 8.00927 2.96854C8.00927 3.52429 7.55634 3.97625 6.99938 3.97625C6.44243 3.97625 5.9895 3.52429 5.9895 2.96854C5.9895 2.41279 6.44243 1.96083 6.99938 1.96083ZM4.2222 9.01479C5.33611 9.01479 6.24197 8.11088 6.24197 6.99938C6.24197 5.88787 5.33611 4.98396 4.2222 4.98396C3.1083 4.98396 2.20243 5.88787 2.20243 6.99938C2.20243 8.11088 3.1083 9.01479 4.2222 9.01479ZM4.2222 5.99167C4.77915 5.99167 5.23209 6.44362 5.23209 6.99938C5.23209 7.55513 4.77915 8.00708 4.2222 8.00708C3.66525 8.00708 3.21232 7.55513 3.21232 6.99938C3.21232 6.44362 3.66525 5.99167 4.2222 5.99167ZM13.044 12.4964C13.0693 12.7735 12.8643 13.0184 12.5866 13.0436C12.5714 13.0446 12.5558 13.0456 12.5406 13.0456C12.2821 13.0456 12.0619 12.8486 12.0382 12.5871C11.9827 11.9729 11.6661 11.4005 11.1692 11.0161C11.1566 11.006 11.1152 11.0106 11.0884 11.0408L10.1588 12.1155C10.0634 12.2264 9.91391 12.3115 9.77657 12.2903C9.63114 12.2903 9.49279 12.2279 9.39685 12.119L8.45513 11.0478C8.42938 11.0181 8.38797 11.0126 8.37434 11.0237C7.87647 11.4136 7.57098 11.9689 7.51544 12.5876C7.49372 12.8275 7.30689 13.0008 7.07462 13.0315C7.05998 13.034 7.04735 13.0426 7.03221 13.0441C7.01655 13.0451 7.0014 13.0461 6.98626 13.0461C6.98121 13.0461 6.97717 13.0436 6.97262 13.0436C6.9706 13.0436 6.96909 13.0446 6.96707 13.0441C6.96151 13.0441 6.95697 13.0401 6.95142 13.0396C6.70854 13.0224 6.50606 12.837 6.48384 12.5876C6.42779 11.9644 6.11927 11.4066 5.61534 11.0166C5.6007 11.006 5.55979 11.0111 5.53455 11.0413L4.60495 12.116C4.50901 12.2274 4.36864 12.2919 4.22271 12.2909C4.07728 12.2909 3.93893 12.2284 3.84299 12.119L2.90127 11.0478C2.87502 11.0186 2.83361 11.0131 2.82048 11.0242C2.32211 11.4141 2.01662 11.9694 1.96107 12.5881C1.93633 12.8652 1.69446 13.0658 1.41271 13.0446C1.13499 13.0194 0.929981 12.7746 0.955228 12.4974C1.03501 11.6122 1.48794 10.7863 2.19739 10.2306C2.63971 9.88495 3.282 9.95247 3.6602 10.3833L4.21917 11.0191L4.76956 10.3828C5.14574 9.94692 5.78904 9.87537 6.23389 10.2205C6.5409 10.4578 6.7969 10.7481 6.99938 11.0695C7.19934 10.7526 7.4503 10.4664 7.75124 10.2306C8.19256 9.88545 8.83586 9.95196 9.21406 10.3838L9.77303 11.0191L10.3234 10.3828C10.6996 9.94692 11.3434 9.87638 11.7872 10.22C12.5048 10.7753 12.9622 11.6051 13.043 12.4969L13.044 12.4964Z" fill="#30313D"/>
</svg>
