<svg width="16" height="16" viewBox="0 0 16 16" fill="none" xmlns="http://www.w3.org/2000/svg">
<path id="Vector" d="M9.31417 7.62468C9.31417 9.00337 10.4378 10.1246 11.8195 10.1246C13.2011 10.1246 14.3247 9.00337 14.3247 7.62468C14.3247 6.24599 13.2011 5.12478 11.8195 5.12478C10.4378 5.12478 9.31417 6.24599 9.31417 7.62468ZM11.8195 6.37473C12.5103 6.37473 13.0721 6.93533 13.0721 7.62468C13.0721 8.31402 12.5103 8.87462 11.8195 8.87462C11.1286 8.87462 10.5668 8.31402 10.5668 7.62468C10.5668 6.93533 11.1286 6.37473 11.8195 6.37473ZM8.37469 5.12478C9.75635 5.12478 10.88 4.00358 10.88 2.62489C10.88 1.2462 9.75635 0.125 8.37469 0.125C6.99302 0.125 5.8694 1.2462 5.8694 2.62489C5.8694 4.00358 6.99302 5.12478 8.37469 5.12478ZM8.37469 1.37495C9.06552 1.37495 9.62733 1.93555 9.62733 2.62489C9.62733 3.31424 9.06552 3.87484 8.37469 3.87484C7.68385 3.87484 7.12204 3.31424 7.12204 2.62489C7.12204 1.93555 7.68385 1.37495 8.37469 1.37495ZM4.92991 10.1246C6.31158 10.1246 7.4352 9.00337 7.4352 7.62468C7.4352 6.24599 6.31158 5.12478 4.92991 5.12478C3.54825 5.12478 2.42462 6.24599 2.42462 7.62468C2.42462 9.00337 3.54825 10.1246 4.92991 10.1246ZM4.92991 6.37473C5.62075 6.37473 6.18256 6.93533 6.18256 7.62468C6.18256 8.31402 5.62075 8.87462 4.92991 8.87462C4.23908 8.87462 3.67727 8.31402 3.67727 7.62468C3.67727 6.93533 4.23908 6.37473 4.92991 6.37473ZM15.8724 14.4431C15.9037 14.7869 15.6494 15.0906 15.3049 15.1219C15.2862 15.1231 15.2667 15.1244 15.2479 15.1244C14.9273 15.1244 14.6542 14.88 14.6248 14.5556C14.5559 13.7938 14.1632 13.0838 13.5469 12.607C13.5312 12.5945 13.4798 12.6001 13.4466 12.6376L12.2936 13.9707C12.1752 14.1081 11.9898 14.2138 11.8195 14.1875C11.6391 14.1875 11.4675 14.11 11.3485 13.975L10.1804 12.6463C10.1484 12.6095 10.0971 12.6026 10.0802 12.6163C9.46261 13.1001 9.08368 13.7888 9.01479 14.5563C8.98786 14.8537 8.75612 15.0687 8.46801 15.1069C8.44985 15.11 8.43419 15.1206 8.4154 15.1225C8.39598 15.1237 8.37719 15.125 8.3584 15.125C8.35214 15.125 8.34713 15.1219 8.34149 15.1219C8.33899 15.1219 8.33711 15.1231 8.3346 15.1225C8.32771 15.1225 8.32208 15.1175 8.31519 15.1169C8.01393 15.0956 7.76277 14.8656 7.73521 14.5563C7.66569 13.7832 7.28301 13.0913 6.65794 12.6076C6.63977 12.5945 6.58904 12.6007 6.55773 12.6382L5.40467 13.9713C5.28567 14.1094 5.11155 14.1894 4.93054 14.1881C4.75016 14.1881 4.57855 14.1106 4.45955 13.975L3.29145 12.6463C3.25889 12.6101 3.20753 12.6032 3.19124 12.617C2.57306 13.1007 2.19414 13.7894 2.12524 14.5569C2.09455 14.9006 1.79454 15.1494 1.44506 15.1231C1.10058 15.0919 0.846292 14.7881 0.877608 14.4444C0.976567 13.3463 1.53838 12.322 2.41836 11.6326C2.96702 11.2039 3.7637 11.2876 4.23282 11.822L4.92616 12.6107L5.60885 11.8214C6.07546 11.2808 6.87339 11.192 7.42518 11.6201C7.80599 11.9145 8.12353 12.2745 8.37469 12.6732C8.62271 12.2801 8.93399 11.9251 9.30728 11.6326C9.85469 11.2045 10.6526 11.287 11.1217 11.8226L11.8151 12.6107L12.4978 11.8214C12.9644 11.2808 13.7629 11.1933 14.3135 11.6195C15.2035 12.3082 15.7709 13.3376 15.8711 14.4438L15.8724 14.4431Z" fill="white"/>
</svg>
