<svg width="15" height="15" viewBox="0 0 15 15" fill="none" xmlns="http://www.w3.org/2000/svg">
<g id="Group">
<g id="Group_2">
<g id="Group_3">
<path id="Vector" d="M8.65674 12.3289H6.23376C6.01281 12.3289 5.83474 12.1495 5.83474 11.9299V11.6495C5.83737 11.4084 5.82555 11.2391 5.80018 11.1446C5.66411 10.6463 5.30403 10.2285 4.95533 9.8234C4.84026 9.69084 4.73176 9.56441 4.632 9.4371C4.13017 8.79881 3.86328 8.03409 3.86328 7.223C3.86328 5.24295 5.4751 3.63257 7.45531 3.63257C9.43509 3.63257 11.0465 5.24295 11.0465 7.223C11.0465 8.03453 10.7809 8.80013 10.2778 9.43798C10.1898 9.55085 10.0883 9.66897 9.98242 9.79365C9.62541 10.2136 9.22683 10.6822 9.08945 11.177C9.06538 11.2653 9.05357 11.4242 9.05532 11.6464V11.929C9.05532 12.1495 8.87725 12.3289 8.65674 12.3289ZM6.63365 11.53H8.25772C8.2621 11.2194 8.29229 11.0663 8.31985 10.9665C8.50492 10.3003 8.96344 9.75909 9.36815 9.28398C9.47447 9.15886 9.56766 9.04949 9.65035 8.94537C10.0411 8.44839 10.248 7.85385 10.248 7.22344C10.248 5.68349 8.99582 4.43054 7.45575 4.43054C5.91568 4.43054 4.66263 5.68349 4.66263 7.22344C4.66263 7.85254 4.86914 8.44751 5.26028 8.9445C5.3526 9.06262 5.45366 9.17855 5.56086 9.30236C5.92968 9.73065 6.38689 10.2613 6.57153 10.9355C6.59865 11.0409 6.63015 11.2015 6.63365 11.53Z" fill="#DD7A01"/>
</g>
<g id="Group_4">
<path id="Vector_2" d="M8.65403 13.3851H6.23105C6.0101 13.3851 5.83203 13.2061 5.83203 12.9852C5.83203 12.7647 6.0101 12.5867 6.23105 12.5867H8.65403C8.87454 12.5867 9.05261 12.7647 9.05261 12.9852C9.05261 13.2061 8.87454 13.3851 8.65403 13.3851Z" fill="#DD7A01"/>
</g>
<g id="Group_5">
<path id="Vector_3" d="M8.04888 14.4404H6.83739C6.61645 14.4404 6.4375 14.2615 6.4375 14.0415C6.4375 13.821 6.61645 13.6416 6.83739 13.6416H8.04888C8.26852 13.6416 8.4479 13.821 8.4479 14.0415C8.4479 14.2615 8.26852 14.4404 8.04888 14.4404Z" fill="#DD7A01"/>
</g>
</g>
<g id="Group_6">
<path id="Vector_4" d="M13.8397 7.62146H12.2436C12.0231 7.62146 11.8438 7.4434 11.8438 7.22247C11.8438 7.00198 12.0231 6.82349 12.2436 6.82349H13.8397C14.0602 6.82349 14.2383 7.00198 14.2383 7.22247C14.2383 7.4434 14.0602 7.62146 13.8397 7.62146Z" fill="#DD7A01"/>
</g>
<g id="Group_7">
<path id="Vector_5" d="M2.66696 7.62146H1.07045C0.849945 7.62146 0.671875 7.4434 0.671875 7.22247C0.671875 7.00198 0.849945 6.82349 1.07045 6.82349H2.66652C2.88703 6.82349 3.06642 7.00198 3.06642 7.22247C3.06686 7.4434 2.88747 7.62146 2.66696 7.62146Z" fill="#DD7A01"/>
</g>
<g id="Group_8">
<path id="Vector_6" d="M7.45067 2.83522C7.22973 2.83522 7.05078 2.65716 7.05078 2.43623V0.839415C7.05078 0.619361 7.22973 0.44043 7.45067 0.44043C7.67162 0.44043 7.84969 0.619361 7.84969 0.839415V2.43579C7.84969 2.65672 7.67162 2.83522 7.45067 2.83522Z" fill="#DD7A01"/>
</g>
<g id="Group_9">
<path id="Vector_7" d="M11.9644 12.1356C11.8629 12.1356 11.761 12.0967 11.6827 12.0184L10.5543 10.8897C10.3986 10.7344 10.3986 10.481 10.5543 10.3249C10.7105 10.1691 10.963 10.17 11.1187 10.3257L12.2471 11.454C12.4033 11.6102 12.4033 11.8635 12.2471 12.0192C12.1692 12.0976 12.0677 12.1356 11.9644 12.1356Z" fill="#DD7A01"/>
</g>
<g id="Group_10">
<path id="Vector_8" d="M4.06633 4.23712C3.96483 4.23712 3.86245 4.19819 3.7837 4.11988L2.65621 2.99205C2.50001 2.83586 2.50001 2.58256 2.65621 2.42638C2.8124 2.27063 3.06485 2.27063 3.22061 2.42638L4.34897 3.55465C4.50516 3.71039 4.50516 3.96413 4.34897 4.11988C4.27109 4.19819 4.16915 4.23712 4.06633 4.23712Z" fill="#DD7A01"/>
</g>
<g id="Group_11">
<path id="Vector_9" d="M2.93841 12.1353C2.83647 12.1353 2.73452 12.0973 2.65621 12.0189C2.50001 11.8632 2.50001 11.6099 2.65621 11.4537L3.78545 10.3246C3.94033 10.1688 4.19278 10.1688 4.34897 10.3246C4.50516 10.4808 4.50516 10.7341 4.34897 10.8902L3.22061 12.0189C3.14229 12.0968 3.04079 12.1353 2.93841 12.1353Z" fill="#DD7A01"/>
</g>
<g id="Group_12">
<path id="Vector_10" d="M10.8441 4.23742C10.7422 4.23742 10.6402 4.19848 10.5615 4.12017C10.4066 3.96443 10.4066 3.71156 10.5615 3.55582L11.6898 2.42755C11.8447 2.27181 12.0989 2.27093 12.2542 2.42667C12.4104 2.58286 12.4104 2.83528 12.2542 2.99147L11.1267 4.1193C11.0489 4.19761 10.9469 4.23742 10.8441 4.23742Z" fill="#DD7A01"/>
</g>
</g>
</svg>
