<svg width="334" height="95" viewBox="0 0 334 95" fill="none" xmlns="http://www.w3.org/2000/svg">
<path d="M13.7932 24.781V14.3273H4.66123V24.781H0V0H4.66123V10.1943H13.7932V0H18.4544V24.781H13.7932Z" fill="#2580D3"/>
<path d="M28.14 6.65912V19.3118C28.14 20.2816 28.549 20.7609 29.5798 20.7609C30.6891 20.7609 32.65 20.0899 34.2747 19.2329V6.65912H38.7846V24.7811H35.3447L34.9021 23.2531C32.6444 24.3695 29.7983 25.1532 27.6918 25.1532C24.6945 25.1532 23.6245 23.0332 23.6245 19.7967V6.65912H28.1344H28.14Z" fill="#2580D3"/>
<path d="M54.6128 24.7808V12.1281C54.6128 11.1583 54.2038 10.679 53.1729 10.679C52.0637 10.679 50.1028 11.35 48.4781 12.207V24.7864H43.9681V6.65879H47.408L47.8506 8.18681C50.1084 7.0704 52.9544 6.28665 55.061 6.28665C56.7977 6.28665 57.8734 6.99146 58.4616 8.22064C60.641 7.10423 63.5262 6.28665 65.7056 6.28665C68.7029 6.28665 69.7729 8.40671 69.7729 11.6432V24.7808H65.263V12.1281C65.263 11.1583 64.854 10.679 63.8232 10.679C62.7139 10.679 60.5345 11.3838 59.1283 12.207V24.7864H54.6184L54.6128 24.7808Z" fill="#2580D3"/>
<path d="M88.1145 24.7811H84.4169L84.0863 23.5519C82.4616 24.6288 80.54 25.1532 78.7248 25.1532C75.4362 25.1532 74.03 22.8809 74.03 19.7572C74.03 16.0753 75.6211 14.66 79.2794 14.66H83.6045V12.7599C83.6045 10.7526 83.0499 10.0422 80.1646 10.0422C78.5399 10.0422 76.7639 10.2677 75.1729 10.6004L74.6182 7.13835C76.3214 6.61962 78.7976 6.28131 80.7921 6.28131C86.4505 6.28131 88.1145 8.2886 88.1145 12.8275V24.7698V24.7811ZM83.6045 17.936H80.2767C78.7976 17.936 78.3887 18.3476 78.3887 19.7234C78.3887 20.9864 78.7976 21.5446 80.1982 21.5446C81.5316 21.5446 82.7473 21.0992 83.5989 20.6142V17.936H83.6045Z" fill="#2580D3"/>
<path d="M103.571 24.7808V12.1281C103.571 11.1583 103.162 10.679 102.131 10.679C101.022 10.679 99.0613 11.35 97.4366 12.207V24.7864H92.9266V6.65879H96.3665L96.8091 8.18681C99.0669 7.0704 101.913 6.28665 104.019 6.28665C107.017 6.28665 108.087 8.40671 108.087 11.6432V24.7808H103.577H103.571Z" fill="#2580D3"/>
<path d="M135.775 24.781L130.116 16.594H125.679V24.781H121.018V0H131.113C136.845 0 138.951 2.34559 138.951 6.69848V9.93494C138.951 12.912 137.842 14.9983 135.254 15.923L141.355 24.781H135.775ZM130.934 4.13298H125.685V12.5455H130.934C133.483 12.5455 134.301 11.6152 134.301 9.52898V7.07061C134.301 4.98439 133.416 4.13298 130.934 4.13298Z" fill="#2580D3"/>
<path d="M151.713 21.4315C153.45 21.4315 155.265 21.1722 157.22 20.5745L157.921 23.997C155.887 24.7808 153.444 25.1529 151.304 25.1529C145.646 25.1529 143.69 22.5085 143.69 18.1556V13.3573C143.69 9.52312 145.394 6.28665 151.158 6.28665C156.923 6.28665 158.218 9.66972 158.218 13.5772V17.4451H148.2V18.3755C148.2 20.5688 148.979 21.4259 151.713 21.4259V21.4315ZM148.2 13.8027H153.932V12.9118C153.932 11.1977 153.416 10.008 151.198 10.008C148.979 10.008 148.2 11.1977 148.2 12.9118V13.8027Z" fill="#2580D3"/>
<path d="M167.871 25.1532C165.95 25.1532 163.322 24.7078 161.658 24.1101L162.286 20.6481C163.804 21.0936 165.798 21.4319 167.647 21.4319C169.642 21.4319 169.938 20.9864 169.938 19.6106C169.938 18.4942 169.714 17.936 166.796 17.2312C162.398 16.1543 161.877 15.0379 161.877 11.5364C161.877 8.03491 163.468 6.29263 168.605 6.29263C170.269 6.29263 172.448 6.51817 174.006 6.92414L173.563 10.5327C172.196 10.2734 170.011 10.014 168.611 10.014C166.65 10.014 166.319 10.4594 166.319 11.5759C166.319 13.0249 166.431 13.1377 168.868 13.7692C173.899 15.1112 174.376 15.7765 174.376 19.4979C174.376 22.9937 173.306 25.1532 167.866 25.1532H167.871Z" fill="#2580D3"/>
<path d="M185.844 25.1529C179.67 25.1529 178.006 21.7304 178.006 18.009V13.4306C178.006 9.70919 179.67 6.28665 185.844 6.28665C192.018 6.28665 193.682 9.70919 193.682 13.4306V18.009C193.682 21.7304 192.018 25.1529 185.844 25.1529ZM185.844 10.1603C183.44 10.1603 182.516 11.2372 182.516 13.284V18.1612C182.516 20.208 183.44 21.2849 185.844 21.2849C188.247 21.2849 189.172 20.208 189.172 18.1612V13.284C189.172 11.2372 188.247 10.1603 185.844 10.1603Z" fill="#2580D3"/>
<path d="M202.37 6.65912V19.3118C202.37 20.2816 202.779 20.7609 203.81 20.7609C204.919 20.7609 206.88 20.0899 208.505 19.2329V6.65912H213.014V24.7811H209.575L209.132 23.2531C206.874 24.3695 204.028 25.1532 201.922 25.1532C198.924 25.1532 197.854 23.0332 197.854 19.7967V6.65912H202.364H202.37Z" fill="#2580D3"/>
<path d="M227.476 10.4535C225.739 11.2372 224.333 12.0548 222.708 13.0979V24.7808H218.198V6.65879H222.008L222.305 8.66608C223.302 7.9951 225.448 6.73209 227.039 6.28665L227.481 10.4535H227.476Z" fill="#2580D3"/>
<path d="M229.879 18.1951V13.2445C229.879 8.36724 231.985 6.28665 237.644 6.28665C238.899 6.28665 240.714 6.51219 242.042 6.95763L241.487 10.679C240.266 10.3463 238.641 10.1941 237.75 10.1941C235.162 10.1941 234.383 10.9778 234.383 13.2107V18.2345C234.383 20.4673 235.162 21.2511 237.75 21.2511C238.899 21.2511 240.193 21.1045 241.487 20.7662L242.042 24.4876C240.859 24.8992 239.123 25.1585 237.644 25.1585C231.985 25.1585 229.879 23.0723 229.879 18.2007V18.1951Z" fill="#2580D3"/>
<path d="M253.101 21.4315C254.838 21.4315 256.653 21.1722 258.608 20.5745L259.308 23.997C257.275 24.7808 254.832 25.1529 252.692 25.1529C247.033 25.1529 245.078 22.5085 245.078 18.1556V13.3573C245.078 9.52312 246.781 6.28665 252.546 6.28665C258.311 6.28665 259.605 9.66972 259.605 13.5772V17.4451H249.588V18.3755C249.588 20.5688 250.367 21.4259 253.101 21.4259V21.4315ZM249.588 13.8027H255.319V12.9118C255.319 11.1977 254.804 10.008 252.585 10.008C250.367 10.008 249.588 11.1977 249.588 12.9118V13.8027Z" fill="#2580D3"/>
<path d="M16.7457 33.267H21.5862L14.2302 58.0479H7.356L0 33.267H4.8405L10.7903 53.9206L16.7457 33.267Z" fill="#2580D3"/>
<path d="M24.4722 37.3604V32.111H28.9821V37.3604H24.4722ZM24.4722 58.0478V39.9259H28.9821V58.0478H24.4722Z" fill="#2580D3"/>
<path d="M39.7442 58.4201C37.8226 58.4201 35.1951 57.9746 33.5311 57.3769L34.1586 53.9149C35.6769 54.3604 37.6713 54.6987 39.5201 54.6987C41.5146 54.6987 41.8115 54.2532 41.8115 52.8775C41.8115 51.761 41.5874 51.2028 38.6686 50.498C34.2706 49.4211 33.7496 48.3047 33.7496 44.8032C33.7496 41.3017 35.3407 39.5594 40.4781 39.5594C42.1421 39.5594 44.3214 39.785 45.8789 40.191L45.4363 43.7996C44.0693 43.5402 41.8844 43.2808 40.4837 43.2808C38.5229 43.2808 38.1923 43.7263 38.1923 44.8427C38.1923 46.2918 38.3044 46.4045 40.7415 47.036C45.7724 48.378 46.2486 49.0433 46.2486 52.7647C46.2486 56.2605 45.1786 58.4201 39.7386 58.4201H39.7442Z" fill="#2580D3"/>
<path d="M57.7163 58.42C51.5425 58.42 49.8785 54.9975 49.8785 51.2761V46.6977C49.8785 42.9763 51.5425 39.5538 57.7163 39.5538C63.8902 39.5538 65.5542 42.9763 65.5542 46.6977V51.2761C65.5542 54.9975 63.8902 58.42 57.7163 58.42ZM57.7163 43.4274C55.3129 43.4274 54.3885 44.5044 54.3885 46.5511V51.4284C54.3885 53.4751 55.3129 54.5521 57.7163 54.5521C60.1198 54.5521 61.0442 53.4751 61.0442 51.4284V46.5511C61.0442 44.5044 60.1198 43.4274 57.7163 43.4274Z" fill="#2580D3"/>
<path d="M80.5636 58.0479V45.3952C80.5636 44.4254 80.1546 43.9462 79.1238 43.9462C78.0145 43.9462 76.0537 44.6171 74.429 45.4742V58.0535H69.919V39.9316H73.3589L73.8015 41.4596C76.0593 40.3432 78.9053 39.5594 81.0118 39.5594C84.0091 39.5594 85.0792 41.6795 85.0792 44.916V58.0535H80.5692L80.5636 58.0479Z" fill="#2580D3"/>
<path d="M103.417 58.0479H99.719L99.3885 56.8187C97.7638 57.8957 95.8422 58.42 94.027 58.42C90.7384 58.42 89.3322 56.1477 89.3322 53.024C89.3322 49.3421 90.9232 47.9269 94.5816 47.9269H98.9067V46.0267C98.9067 44.0194 98.3521 43.309 95.4668 43.309C93.8421 43.309 92.0661 43.5345 90.475 43.8672L89.9204 40.4052C91.6235 39.8865 94.0998 39.5482 96.0943 39.5482C101.753 39.5482 103.417 41.5554 103.417 46.0944V58.0366V58.0479ZM98.9067 51.2028H95.5789C94.0998 51.2028 93.6908 51.6144 93.6908 52.9902C93.6908 54.2532 94.0998 54.8114 95.5004 54.8114C96.8338 54.8114 98.0495 54.366 98.9011 53.8811V51.2028H98.9067Z" fill="#2580D3"/>
<path d="M117.507 43.7206C115.77 44.5044 114.364 45.3219 112.739 46.365V58.0479H108.229V39.9259H112.039L112.335 41.9332C113.333 41.2623 115.478 39.9992 117.07 39.5538L117.512 43.7206H117.507Z" fill="#2580D3"/>
<path d="M130.963 58.0477L128.56 65.3777H124.268L126.526 58.0477H124.935L119.243 39.9258H123.865L127.971 53.6949L132.112 39.9258H136.734L130.969 58.0477H130.963Z" fill="#2580D3"/>
<path d="M146.717 40.0779C146.717 35.539 149.344 32.8945 155.479 32.8945C157.77 32.8945 160.14 33.1934 162.168 33.7121L161.653 37.7662C159.658 37.394 157.328 37.1346 155.625 37.1346C152.409 37.1346 151.372 38.2511 151.372 40.8955V50.4188C151.372 53.0633 152.409 54.1797 155.625 54.1797C157.328 54.1797 159.653 53.9203 161.653 53.5482L162.168 57.6022C160.135 58.1209 157.77 58.4198 155.479 58.4198C149.339 58.4198 146.717 55.7754 146.717 51.2364V40.0723V40.0779Z" fill="#2580D3"/>
<path d="M173.076 58.42C166.902 58.42 165.238 54.9975 165.238 51.2761V46.6977C165.238 42.9763 166.902 39.5538 173.076 39.5538C179.25 39.5538 180.914 42.9763 180.914 46.6977V51.2761C180.914 54.9975 179.25 58.42 173.076 58.42ZM173.076 43.4274C170.673 43.4274 169.748 44.5044 169.748 46.5511V51.4284C169.748 53.4751 170.673 54.5521 173.076 54.5521C175.479 54.5521 176.404 53.4751 176.404 51.4284V46.5511C176.404 44.5044 175.479 43.4274 173.076 43.4274Z" fill="#2580D3"/>
<path d="M195.928 58.0479V45.3952C195.928 44.4254 195.519 43.9462 194.488 43.9462C193.379 43.9462 191.418 44.6171 189.793 45.4742V58.0535H185.283V39.9316H188.723L189.166 41.4596C191.424 40.3432 194.27 39.5594 196.376 39.5594C199.373 39.5594 200.443 41.6795 200.443 44.916V58.0535H195.933L195.928 58.0479Z" fill="#2580D3"/>
<path d="M211.016 58.4201C209.094 58.4201 206.466 57.9746 204.802 57.3769L205.43 53.9149C206.948 54.3604 208.943 54.6987 210.791 54.6987C212.786 54.6987 213.083 54.2532 213.083 52.8775C213.083 51.761 212.859 51.2028 209.94 50.498C205.542 49.4211 205.021 48.3047 205.021 44.8032C205.021 41.3017 206.612 39.5594 211.75 39.5594C213.413 39.5594 215.593 39.785 217.15 40.191L216.708 43.7996C215.341 43.5402 213.156 43.2808 211.755 43.2808C209.794 43.2808 209.464 43.7263 209.464 44.8427C209.464 46.2918 209.576 46.4045 212.013 47.036C217.044 48.378 217.52 49.0433 217.52 52.7647C217.52 56.2605 216.45 58.4201 211.01 58.4201H211.016Z" fill="#2580D3"/>
<path d="M226.288 39.9256V52.5783C226.288 53.5481 226.697 54.0274 227.728 54.0274C228.837 54.0274 230.798 53.3564 232.423 52.4994V39.92H236.933V58.0419H233.493L233.05 56.5139C230.792 57.6303 227.946 58.4141 225.84 58.4141C222.843 58.4141 221.772 56.294 221.772 53.0576V39.92H226.282L226.288 39.9256Z" fill="#2580D3"/>
<path d="M242.109 58.0479V32.5226L246.619 31.8911V58.0479H242.109Z" fill="#2580D3"/>
<path d="M261.376 57.7152C260.413 58.1268 258.564 58.42 257.421 58.42C254.132 58.42 252.468 56.8582 252.468 53.6217V43.5402H249.768V39.9316H252.468V35.4265L256.978 34.795V39.9316H261.6L261.303 43.5402H256.978V53.0297C256.978 53.9995 257.421 54.631 258.603 54.631C259.27 54.631 260.082 54.4844 260.861 54.2589L261.376 57.7209V57.7152Z" fill="#2580D3"/>
<path d="M278.274 58.0479H274.576L274.246 56.8187C272.621 57.8957 270.699 58.42 268.884 58.42C265.595 58.42 264.189 56.1477 264.189 53.024C264.189 49.3421 265.78 47.9269 269.439 47.9269H273.764V46.0267C273.764 44.0194 273.209 43.309 270.324 43.309C268.699 43.309 266.923 43.5345 265.332 43.8672L264.777 40.4052C266.481 39.8865 268.957 39.5482 270.951 39.5482C276.61 39.5482 278.274 41.5554 278.274 46.0944V58.0366V58.0479ZM273.764 51.2028H270.436C268.957 51.2028 268.548 51.6144 268.548 52.9902C268.548 54.2532 268.957 54.8114 270.357 54.8114C271.691 54.8114 272.907 54.366 273.758 53.8811V51.2028H273.764Z" fill="#2580D3"/>
<path d="M293.731 58.0479V45.3952C293.731 44.4254 293.322 43.9462 292.291 43.9462C291.181 43.9462 289.221 44.6171 287.596 45.4742V58.0535H283.086V39.9316H286.526L286.968 41.4596C289.226 40.3432 292.072 39.5594 294.179 39.5594C297.176 39.5594 298.246 41.6795 298.246 44.916V58.0535H293.736L293.731 58.0479Z" fill="#2580D3"/>
<path d="M302.419 51.4622V46.5116C302.419 41.6344 304.526 39.5538 310.184 39.5538C311.439 39.5538 313.254 39.7793 314.582 40.2248L314.027 43.9462C312.806 43.6135 311.181 43.4612 310.29 43.4612C307.702 43.4612 306.923 44.245 306.923 46.4778V51.5017C306.923 53.7345 307.702 54.5182 310.29 54.5182C311.439 54.5182 312.733 54.3716 314.027 54.0333L314.582 57.7547C313.4 58.1663 311.663 58.4257 310.184 58.4257C304.526 58.4257 302.419 56.3395 302.419 51.4678V51.4622Z" fill="#2580D3"/>
<path d="M328.229 58.0477L325.826 65.3777H321.535L323.792 58.0477H322.201L316.509 39.9258H321.131L325.238 53.6949L329.378 39.9258H334L328.235 58.0477H328.229Z" fill="#2580D3"/>
<path d="M2.16251 90V72.22H13.178V74.2161H4.38039V79.921H12.7221V81.8924H4.38039V88.0039H13.178V90H2.16251ZM15.7778 90V77.1856H17.9217V79.0092H17.971C18.661 77.814 19.9671 76.9392 21.9139 76.9392C24.7232 76.9392 26.3497 78.7628 26.3497 81.683V90H24.2057V82.0649C24.2057 79.9826 23.2323 78.8367 21.2609 78.8367C19.2401 78.8367 17.9217 80.2783 17.9217 82.4592V90H15.7778ZM29.1959 90V72.22H31.3399V79.231H31.3892C32.0792 77.7894 33.4715 76.9392 35.3813 76.9392C38.1044 76.9392 39.965 79.0462 39.965 82.1512V90H37.821V82.5208C37.821 80.2044 36.6381 78.8367 34.6421 78.8367C32.6583 78.8367 31.3399 80.3399 31.3399 82.5208V90H29.1959ZM46.4338 90.2464C43.8832 90.2464 42.1705 88.7062 42.1705 86.3775V86.3528C42.1705 84.1719 43.8709 82.8042 46.8157 82.6317L50.4875 82.4223V81.3503C50.4875 79.7855 49.4649 78.8367 47.6782 78.8367C46.0271 78.8367 44.9921 79.6253 44.7457 80.7712L44.7211 80.8821H42.651L42.6634 80.7465C42.8482 78.6396 44.6841 76.9392 47.7029 76.9392C50.734 76.9392 52.6315 78.5779 52.6315 81.1408V90H50.4875V87.9177H50.4383C49.6866 89.3223 48.1464 90.2464 46.4338 90.2464ZM44.3637 86.3775C44.3637 87.6096 45.3741 88.3859 46.9143 88.3859C48.935 88.3859 50.4875 86.9935 50.4875 85.133V84.0857L47.0622 84.2951C45.3495 84.3937 44.3637 85.1576 44.3637 86.3528V86.3775ZM55.3545 90V77.1856H57.4985V79.0092H57.5478C58.2378 77.814 59.5439 76.9392 61.4907 76.9392C64.3 76.9392 65.9264 78.7628 65.9264 81.683V90H63.7825V82.0649C63.7825 79.9826 62.8091 78.8367 60.8376 78.8367C58.8169 78.8367 57.4985 80.2783 57.4985 82.4592V90H55.3545ZM73.9724 90.2464C70.3375 90.2464 68.0334 87.6589 68.0334 83.5805V83.5682C68.0334 79.5267 70.3868 76.9392 73.9477 76.9392C77.139 76.9392 79.0242 79.0585 79.2953 81.2517L79.3076 81.3503H77.2129L77.1883 81.2517C76.8679 79.9703 75.8329 78.8367 73.9477 78.8367C71.7175 78.8367 70.2266 80.6849 70.2266 83.5928V83.6051C70.2266 86.5869 71.7545 88.3489 73.9724 88.3489C75.722 88.3489 76.8433 87.3632 77.2006 85.9339L77.2252 85.8353H79.3322L79.3199 85.9216C78.9749 88.3612 76.8679 90.2464 73.9724 90.2464ZM86.5773 90.2464C82.8932 90.2464 80.6753 87.6712 80.6753 83.6421V83.6298C80.6753 79.6622 82.9424 76.9392 86.4418 76.9392C89.9411 76.9392 92.0727 79.539 92.0727 83.3833V84.1719H82.8439C82.8932 86.8087 84.3471 88.3489 86.6266 88.3489C88.253 88.3489 89.3989 87.5357 89.7686 86.4391L89.8055 86.3282H91.9125L91.8879 86.4514C91.4689 88.5707 89.3743 90.2464 86.5773 90.2464ZM86.4294 78.8367C84.5689 78.8367 83.1149 80.1058 82.8808 82.4962H89.8918C89.6823 80.0072 88.3023 78.8367 86.4294 78.8367ZM104.887 90L98.332 72.22H100.661L105.959 87.3386H106.008L111.307 72.22H113.635L107.08 90H104.887ZM116.174 75.017C115.434 75.017 114.831 74.4133 114.831 73.674C114.831 72.9224 115.434 72.3309 116.174 72.3309C116.925 72.3309 117.517 72.9224 117.517 73.674C117.517 74.4133 116.925 75.017 116.174 75.017ZM115.102 90V77.1856H117.246V90H115.102ZM124.712 90.2464C121.694 90.2464 119.87 88.7062 119.611 86.4144L119.599 86.3035H121.743L121.768 86.4268C122.026 87.7082 122.975 88.4598 124.725 88.4598C126.462 88.4598 127.497 87.7328 127.497 86.5746V86.5623C127.497 85.6382 127.017 85.1207 125.563 84.7634L123.53 84.2705C121.115 83.6914 119.944 82.5701 119.944 80.7219V80.7096C119.944 78.504 121.878 76.9392 124.651 76.9392C127.46 76.9392 129.247 78.5779 129.407 80.7219L129.419 80.8821H127.374L127.362 80.7958C127.189 79.5513 126.24 78.7258 124.651 78.7258C123.098 78.7258 122.137 79.4774 122.137 80.611V80.6233C122.137 81.4981 122.716 82.1019 124.133 82.4469L126.166 82.9398C128.754 83.5682 129.69 84.5909 129.69 86.4144V86.4268C129.69 88.6693 127.571 90.2464 124.712 90.2464ZM133.128 75.017C132.389 75.017 131.785 74.4133 131.785 73.674C131.785 72.9224 132.389 72.3309 133.128 72.3309C133.88 72.3309 134.471 72.9224 134.471 73.674C134.471 74.4133 133.88 75.017 133.128 75.017ZM132.056 90V77.1856H134.2V90H132.056ZM142.431 90.2464C138.87 90.2464 136.492 87.6712 136.492 83.5928V83.5682C136.492 79.4897 138.882 76.9392 142.418 76.9392C145.955 76.9392 148.357 79.4774 148.357 83.5682V83.5928C148.357 87.6836 145.967 90.2464 142.431 90.2464ZM142.443 88.3489C144.698 88.3489 146.164 86.5993 146.164 83.5928V83.5682C146.164 80.5617 144.686 78.8367 142.418 78.8367C140.188 78.8367 138.685 80.574 138.685 83.5682V83.5928C138.685 86.6116 140.176 88.3489 142.443 88.3489ZM150.526 90V77.1856H152.67V79.0092H152.719C153.409 77.814 154.715 76.9392 156.662 76.9392C159.471 76.9392 161.098 78.7628 161.098 81.683V90H158.954V82.0649C158.954 79.9826 157.981 78.8367 156.009 78.8367C153.988 78.8367 152.67 80.2783 152.67 82.4592V90H150.526ZM167.579 90.2464C165.028 90.2464 163.316 88.7062 163.316 86.3775V86.3528C163.316 84.1719 165.016 82.8042 167.961 82.6317L171.633 82.4223V81.3503C171.633 79.7855 170.61 78.8367 168.823 78.8367C167.172 78.8367 166.137 79.6253 165.891 80.7712L165.866 80.8821H163.796L163.809 80.7465C163.993 78.6396 165.829 76.9392 168.848 76.9392C171.879 76.9392 173.777 78.5779 173.777 81.1408V90H171.633V87.9177H171.583C170.832 89.3223 169.292 90.2464 167.579 90.2464ZM165.509 86.3775C165.509 87.6096 166.519 88.3859 168.06 88.3859C170.08 88.3859 171.633 86.9935 171.633 85.133V84.0857L168.207 84.2951C166.495 84.3937 165.509 85.1576 165.509 86.3528V86.3775ZM176.5 90V77.1856H178.644V79.3542H178.693C179.124 77.8756 180.233 76.9392 181.675 76.9392C182.044 76.9392 182.365 77.0008 182.537 77.0254V79.1078C182.365 79.0462 181.909 78.9846 181.391 78.9846C179.728 78.9846 178.644 80.1428 178.644 82.0896V90H176.5ZM185.519 94.3125C185.1 94.3125 184.644 94.2632 184.373 94.214V92.4643C184.558 92.5013 184.804 92.5382 185.063 92.5382C186.419 92.5382 187.17 92.1932 187.688 90.7393L187.946 90.0123L183.19 77.1856H185.482L189.018 87.8561H189.068L192.616 77.1856H194.871L189.869 90.8009C188.957 93.2529 187.836 94.3125 185.519 94.3125ZM209.497 90.2957C204.556 90.2957 201.377 86.6978 201.377 81.1039V81.0915C201.377 75.4976 204.544 71.9243 209.497 71.9243C213.193 71.9243 216.064 74.1668 216.742 77.5306L216.767 77.6538H214.524L214.438 77.3828C213.748 75.2265 211.998 73.9697 209.497 73.9697C205.948 73.9697 203.656 76.7667 203.656 81.0915V81.1039C203.656 85.4287 205.961 88.2503 209.497 88.2503C211.986 88.2503 213.711 87.0182 214.487 84.6771L214.524 84.5662H216.767L216.742 84.6894C216.064 88.0902 213.218 90.2957 209.497 90.2957ZM224.369 90.2464C220.808 90.2464 218.43 87.6712 218.43 83.5928V83.5682C218.43 79.4897 220.82 76.9392 224.357 76.9392C227.893 76.9392 230.296 79.4774 230.296 83.5682V83.5928C230.296 87.6836 227.905 90.2464 224.369 90.2464ZM224.381 88.3489C226.636 88.3489 228.102 86.5993 228.102 83.5928V83.5682C228.102 80.5617 226.624 78.8367 224.357 78.8367C222.126 78.8367 220.623 80.574 220.623 83.5682V83.5928C220.623 86.6116 222.114 88.3489 224.381 88.3489ZM232.464 90V77.1856H234.608V79.0092H234.657C235.347 77.814 236.653 76.9392 238.6 76.9392C241.41 76.9392 243.036 78.7628 243.036 81.683V90H240.892V82.0649C240.892 79.9826 239.919 78.8367 237.947 78.8367C235.927 78.8367 234.608 80.2783 234.608 82.4592V90H232.464ZM250.318 90.2464C247.299 90.2464 245.476 88.7062 245.217 86.4144L245.205 86.3035H247.349L247.373 86.4268C247.632 87.7082 248.581 88.4598 250.33 88.4598C252.068 88.4598 253.103 87.7328 253.103 86.5746V86.5623C253.103 85.6382 252.622 85.1207 251.168 84.7634L249.135 84.2705C246.72 83.6914 245.55 82.5701 245.55 80.7219V80.7096C245.55 78.504 247.484 76.9392 250.256 76.9392C253.066 76.9392 254.852 78.5779 255.013 80.7219L255.025 80.8821H252.979L252.967 80.7958C252.795 79.5513 251.846 78.7258 250.256 78.7258C248.704 78.7258 247.743 79.4774 247.743 80.611V80.6233C247.743 81.4981 248.322 82.1019 249.739 82.4469L251.772 82.9398C254.36 83.5682 255.296 84.5909 255.296 86.4144V86.4268C255.296 88.6693 253.177 90.2464 250.318 90.2464ZM261.9 90.2464C259.091 90.2464 257.465 88.4228 257.465 85.5026V77.1856H259.608V85.1207C259.608 87.203 260.582 88.3489 262.553 88.3489C264.574 88.3489 265.892 86.9073 265.892 84.7264V77.1856H268.036V90H265.892V88.1764H265.843C265.153 89.3716 263.847 90.2464 261.9 90.2464ZM270.944 90V72.22H273.088V90H270.944ZM280.148 90.2464C277.795 90.2464 276.637 89.1868 276.637 86.7348V78.9599H274.764V77.1856H276.637V73.7233H278.855V77.1856H281.294V78.9599H278.855V86.7225C278.855 88.0902 279.458 88.4721 280.604 88.4721C280.863 88.4721 281.11 88.4352 281.294 88.4228V90.1602C281.023 90.1971 280.567 90.2464 280.148 90.2464ZM284.806 75.017C284.067 75.017 283.463 74.4133 283.463 73.674C283.463 72.9224 284.067 72.3309 284.806 72.3309C285.558 72.3309 286.149 72.9224 286.149 73.674C286.149 74.4133 285.558 75.017 284.806 75.017ZM283.734 90V77.1856H285.878V90H283.734ZM288.798 90V77.1856H290.942V79.0092H290.991C291.681 77.814 292.988 76.9392 294.934 76.9392C297.744 76.9392 299.37 78.7628 299.37 81.683V90H297.226V82.0649C297.226 79.9826 296.253 78.8367 294.281 78.8367C292.261 78.8367 290.942 80.2783 290.942 82.4592V90H288.798ZM307.527 94.559C304.36 94.559 302.364 93.0681 301.945 91.1705L301.921 91.0597H304.077L304.126 91.1705C304.533 92.0947 305.753 92.6614 307.502 92.6614C309.757 92.6614 311.039 91.417 311.039 89.4332V87.7944H310.989C310.225 89.2114 308.747 90.1232 306.911 90.1232C303.683 90.1232 301.477 87.5234 301.477 83.5189V83.5066C301.477 79.5267 303.707 76.9392 306.96 76.9392C308.771 76.9392 310.201 77.9249 310.989 79.3542H311.039V77.1856H313.182V89.6427C313.182 92.6122 311.002 94.559 307.527 94.559ZM307.379 88.2257C309.56 88.2257 311.039 86.3651 311.039 83.5189V83.5066C311.039 80.6849 309.548 78.8367 307.379 78.8367C305.1 78.8367 303.67 80.6603 303.67 83.5066V83.5189C303.67 86.4268 305.1 88.2257 307.379 88.2257Z" fill="#666666"/>
</svg>
