<svg width="33" height="33" viewBox="0 0 33 33" fill="none" xmlns="http://www.w3.org/2000/svg">
<g clip-path="url(#clip0_15941_70495)">
<path fill-rule="evenodd" clip-rule="evenodd" d="M4.97882 0.869141C3.57385 0.869141 2.43555 2.00795 2.43555 3.41241V30.3995C2.43555 31.8044 3.57385 32.9427 4.97882 32.9427H27.9224C29.3264 32.9427 30.4657 31.8044 30.4657 30.3995V11.0492L20.9913 0.869141H4.97882Z" fill="#F9CA06"/>
<path fill-rule="evenodd" clip-rule="evenodd" d="M30.4698 11.07V11.5713H24.0545C24.0545 11.5713 20.8907 10.9397 20.9824 8.20898C20.9824 8.20898 21.0867 11.07 23.9918 11.07H30.4698Z" fill="#F7BC04"/>
<path opacity="0.5" fill-rule="evenodd" clip-rule="evenodd" d="M20.9941 0.869141V8.16764C20.9941 8.99769 21.5475 11.0708 24.0537 11.0708H30.469L20.9941 0.869141Z" fill="white"/>
<path d="M4.23754 24.7641V23.6422H8.68396V24.7641H7.16088V29.3906H5.76062V24.7641H4.23754ZM12.9078 29.3906L11.7368 27.6301L10.7051 29.3906H9.11648L10.9589 26.4673L9.07554 23.6422H10.7051L11.8597 25.3782L12.8751 23.6422H14.4636L12.6376 26.541L14.5373 29.3906H12.9078ZM14.9291 24.7641V23.6422H19.3755V24.7641H17.8525V29.3906H16.4522V24.7641H14.9291Z" fill="#5B4B06"/>
</g>
<defs>
<clipPath id="clip0_15941_70495">
<rect width="32.0791" height="32.0791" fill="white" transform="translate(0.125 0.917969)"/>
</clipPath>
</defs>
</svg>
