<svg width="76" height="18" viewBox="0 0 76 18" fill="none" xmlns="http://www.w3.org/2000/svg">
<g clip-path="url(#clip0_14066_92514)">
<path d="M1.02148 11.6582C1.02148 14.1655 1.02148 15.4191 1.8004 16.198C2.57931 16.977 3.83295 16.977 6.34023 16.977H11.659C14.1662 16.977 15.4199 16.977 16.1988 16.198C16.9777 15.4191 16.9777 14.1655 16.9777 11.6582" stroke="#2580D3" stroke-width="2" stroke-linecap="round" stroke-linejoin="round"/>
<path d="M8.997 12.5454V1.02148M8.997 1.02148L12.5428 4.89974M8.997 1.02148L5.45117 4.89974" stroke="#2580D3" stroke-width="2" stroke-linecap="round" stroke-linejoin="round"/>
</g>
<path d="M30.6719 14.6875C27.8438 14.6875 26.1016 13.0078 26.1016 10.5391V3.22656H27.8516V10.3984C27.8516 12.0391 28.875 13.1406 30.6719 13.1406C32.4688 13.1406 33.4844 12.0391 33.4844 10.3984V3.22656H35.2266V10.5391C35.2266 13.0078 33.5078 14.6875 30.6719 14.6875ZM37.1016 17.2344V6.28125H38.7891V7.69531H38.8281C39.3203 6.71875 40.2266 6.125 41.3984 6.125C43.4922 6.125 44.8359 7.76562 44.8359 10.3906V10.3984C44.8359 13.0156 43.4844 14.6641 41.4219 14.6641C40.2578 14.6641 39.3125 14.0703 38.8281 13.1172H38.7891V17.2344H37.1016ZM40.9609 13.2109C42.2891 13.2109 43.1172 12.1328 43.1172 10.3984V10.3906C43.1172 8.64062 42.2812 7.57031 40.9609 7.57031C39.6797 7.57031 38.7812 8.67969 38.7812 10.3906V10.3984C38.7812 12.1016 39.6875 13.2109 40.9609 13.2109ZM46.2109 14.5V3.22656H47.8984V14.5H46.2109ZM53.1641 14.6641C50.8047 14.6641 49.2656 13.0312 49.2656 10.3906V10.375C49.2656 7.75 50.8203 6.125 53.1562 6.125C55.5 6.125 57.0625 7.74219 57.0625 10.375V10.3906C57.0625 13.0391 55.5156 14.6641 53.1641 14.6641ZM53.1719 13.25C54.4922 13.25 55.3359 12.2031 55.3359 10.3906V10.375C55.3359 8.57812 54.4766 7.53906 53.1562 7.53906C51.8594 7.53906 50.9922 8.57812 50.9922 10.375V10.3906C50.9922 12.2109 51.8516 13.25 53.1719 13.25ZM60.7812 14.6484C59.1406 14.6484 58.0391 13.6406 58.0391 12.1641V12.1484C58.0391 10.7188 59.1484 9.84375 61.0938 9.72656L63.3281 9.59375V8.97656C63.3281 8.07031 62.7422 7.52344 61.6953 7.52344C60.7188 7.52344 60.1172 7.98438 59.9766 8.64062L59.9609 8.71094H58.3672L58.375 8.625C58.4922 7.21094 59.7188 6.125 61.7422 6.125C63.75 6.125 65.0234 7.1875 65.0234 8.83594V14.5H63.3281V13.2031H63.2969C62.8203 14.0859 61.8672 14.6484 60.7812 14.6484ZM59.7422 12.125C59.7422 12.8438 60.3359 13.2969 61.2422 13.2969C62.4297 13.2969 63.3281 12.4922 63.3281 11.4219V10.7812L61.3203 10.9062C60.3047 10.9688 59.7422 11.4141 59.7422 12.1094V12.125ZM69.7344 14.6641C67.6406 14.6641 66.2969 13.0078 66.2969 10.3906V10.3828C66.2969 7.76562 67.6562 6.125 69.7188 6.125C70.8828 6.125 71.8203 6.71094 72.3125 7.67969H72.3438V3.22656H74.0391V14.5H72.3438V13.1094H72.3125C71.8203 14.0703 70.9141 14.6641 69.7344 14.6641ZM70.1797 13.2109C71.4531 13.2109 72.3516 12.1016 72.3516 10.3906V10.3828C72.3516 8.67969 71.4453 7.57031 70.1797 7.57031C68.8516 7.57031 68.0234 8.64844 68.0234 10.3828V10.3906C68.0234 12.1406 68.8438 13.2109 70.1797 13.2109Z" fill="#2580D3"/>
<defs>
<clipPath id="clip0_14066_92514">
<rect width="18" height="18" fill="white"/>
</clipPath>
</defs>
</svg>
