<svg width="38" height="38" viewBox="0 0 38 38" fill="none" xmlns="http://www.w3.org/2000/svg">
<g id="Upload Icon Container">
<path id="Vector" d="M18.7419 3.10873C16.6419 3.10873 14.5625 3.52235 12.6224 4.32596C10.6824 5.12957 8.91954 6.30744 7.43466 7.79233C5.94978 9.27721 4.77191 11.04 3.96829 12.9801C3.16468 14.9202 2.75107 16.9996 2.75107 19.0995C2.75107 21.1995 3.16468 23.2788 3.96829 25.2189C4.77191 27.159 5.94978 28.9218 7.43466 30.4067C8.91954 31.8916 10.6824 33.0695 12.6224 33.8731C14.5625 34.6767 16.6419 35.0903 18.7419 35.0903C22.9829 35.0903 27.0502 33.4056 30.049 30.4067C33.0479 27.4079 34.7326 23.3405 34.7326 19.0995C34.7326 14.8585 33.0479 10.7912 30.049 7.79233C27.0502 4.79347 22.9829 3.10873 18.7419 3.10873ZM18.7419 0.443604C23.6897 0.443604 28.4349 2.40913 31.9336 5.90779C35.4322 9.40646 37.3978 14.1517 37.3978 19.0995C37.3978 24.0474 35.4322 28.7926 31.9336 32.2912C28.4349 35.7899 23.6897 37.7554 18.7419 37.7554C13.794 37.7554 9.04879 35.7899 5.55013 32.2912C2.05147 28.7926 0.0859375 24.0474 0.0859375 19.0995C0.0859375 14.1517 2.05147 9.40646 5.55013 5.90779C9.04879 2.40913 13.794 0.443604 18.7419 0.443604Z" fill="#2580D3"/>
<path id="Vector_2" d="M24.0759 9.77173C25.8527 9.77173 26.7411 10.6601 26.7411 12.4369C26.7411 14.2136 25.8527 15.102 24.0759 15.102C22.2992 15.102 21.4108 14.2136 21.4108 12.4369C21.4108 10.6601 22.2992 9.77173 24.0759 9.77173ZM6.36348 30.7037L4.47656 28.8168L12.2081 21.0879C12.8773 20.4184 13.7624 20.0081 14.7058 19.93C15.6491 19.8519 16.5896 20.1111 17.3598 20.6615L23.1165 24.7711C23.3625 24.9464 23.6609 25.033 23.9625 25.0165C24.2642 25.0001 24.5514 24.8816 24.7769 24.6805L35.1815 15.3685L36.9565 17.3567L26.5545 26.666C25.8778 27.2717 25.0149 27.6288 24.1081 27.6787C23.2013 27.7286 22.3045 27.4683 21.5654 26.9405L15.8087 22.8282C15.5521 22.6459 15.2392 22.5604 14.9255 22.5867C14.6119 22.6131 14.3177 22.7496 14.095 22.9721L6.36348 30.701V30.7037Z" fill="#2580D3"/>
</g>
</svg>
