<svg width="87" height="55" viewBox="0 0 87 55" fill="none" xmlns="http://www.w3.org/2000/svg">
<g clip-path="url(#clip0_17886_18048)">
<path d="M49.462 15.9905C49.462 16.7043 48.8837 17.2813 48.1712 17.2813H44.2986V21.1539C44.2986 21.8677 43.7203 22.4447 43.0078 22.4447C42.2952 22.4447 41.7169 21.8677 41.7169 21.1539V17.2813H37.8444C37.1318 17.2813 36.5535 16.7043 36.5535 15.9905C36.5535 15.2766 37.1318 14.6996 37.8444 14.6996H41.7169V10.8271C41.7169 10.1132 42.2952 9.5362 43.0078 9.5362C43.7203 9.5362 44.2986 10.1132 44.2986 10.8271V14.6996H48.1712C48.8837 14.6996 49.462 15.2766 49.462 15.9905ZM58.498 6.9545V25.0264C58.498 28.5853 55.6026 31.4807 52.0438 31.4807H33.9718C30.413 31.4807 27.5176 28.5853 27.5176 25.0264V6.9545C27.5176 3.39562 30.413 0.500244 33.9718 0.500244H52.0438C55.6026 0.500244 58.498 3.39562 58.498 6.9545ZM55.9163 6.9545C55.9163 4.81943 54.1788 3.08195 52.0438 3.08195H33.9718C31.8368 3.08195 30.0993 4.81943 30.0993 6.9545V25.0264C30.0993 27.1615 31.8368 28.899 33.9718 28.899H52.0438C54.1788 28.899 55.9163 27.1615 55.9163 25.0264V6.9545Z" fill="#2580D3"/>
</g>
<path d="M5.4375 51.97H4.20703V42.1057H5.4375V51.97ZM7.16699 51.97V44.8606H8.28809V45.9954H8.31543C8.52051 45.5989 8.81445 45.2913 9.19727 45.0725C9.58008 44.8492 10.0381 44.7375 10.5713 44.7375C11.346 44.7375 11.9499 44.9722 12.3828 45.4417C12.8158 45.9065 13.0322 46.5445 13.0322 47.3557V51.97H11.8428V47.5676C11.8428 46.9889 11.7061 46.5491 11.4326 46.2483C11.1592 45.943 10.7513 45.7903 10.209 45.7903C9.64844 45.7903 9.19954 45.9726 8.8623 46.3372C8.52507 46.7017 8.35645 47.1848 8.35645 47.7864V51.97H7.16699ZM14.4268 46.8225C14.4268 46.2118 14.6729 45.7128 15.165 45.3254C15.6618 44.9335 16.2998 44.7375 17.0791 44.7375C17.8128 44.7375 18.4235 44.9335 18.9111 45.3254C19.3988 45.7174 19.6562 46.2141 19.6836 46.8157H18.5488C18.5078 46.4693 18.3529 46.1982 18.084 46.0022C17.8197 45.8062 17.471 45.7083 17.0381 45.7083C16.6051 45.7083 16.2565 45.8062 15.9922 46.0022C15.7279 46.1936 15.5957 46.4465 15.5957 46.761C15.5957 47.2441 15.9899 47.5859 16.7783 47.7864L17.8789 48.053C18.5944 48.2353 19.098 48.4722 19.3896 48.7639C19.6859 49.051 19.834 49.4566 19.834 49.9807C19.834 50.6005 19.5697 51.1086 19.041 51.5051C18.5124 51.8971 17.8333 52.093 17.0039 52.093C16.2292 52.093 15.5889 51.9016 15.083 51.5188C14.5817 51.1314 14.2992 50.621 14.2354 49.9875H15.4248C15.557 50.7441 16.1084 51.1223 17.0791 51.1223C17.5576 51.1223 17.9359 51.0289 18.2139 50.842C18.4964 50.6506 18.6377 50.3931 18.6377 50.0696C18.6377 49.8144 18.5534 49.6116 18.3848 49.4612C18.2207 49.3108 17.9404 49.1832 17.5439 49.0784L16.293 48.7571C15.0488 48.4381 14.4268 47.7932 14.4268 46.8225ZM21.4541 43.1448H22.6436V44.8606H24.0244V45.8381H22.6436V50.0627C22.6436 50.3863 22.7142 50.6256 22.8555 50.7805C22.9967 50.9309 23.2201 51.0061 23.5254 51.0061C23.7168 51.0061 23.8809 50.9947 24.0176 50.9719V51.97C23.8626 52.0064 23.612 52.0247 23.2656 52.0247C22.6139 52.0247 22.1491 51.8788 21.8711 51.5872C21.5931 51.2955 21.4541 50.8079 21.4541 50.1243V45.8381H20.3945V44.8606H21.4541V43.1448ZM25.3574 51.97V44.8606H26.5469V51.97H25.3574ZM25.9521 43.6643C25.7516 43.6643 25.5785 43.5914 25.4326 43.4456C25.2868 43.2997 25.2139 43.1265 25.2139 42.926C25.2139 42.7209 25.2868 42.5478 25.4326 42.4065C25.5785 42.2607 25.7516 42.1877 25.9521 42.1877C26.1572 42.1877 26.3327 42.2607 26.4785 42.4065C26.6243 42.5478 26.6973 42.7209 26.6973 42.926C26.6973 43.1265 26.6243 43.2997 26.4785 43.4456C26.3327 43.5914 26.1572 43.6643 25.9521 43.6643ZM28.5361 43.1448H29.7256V44.8606H31.1064V45.8381H29.7256V50.0627C29.7256 50.3863 29.7962 50.6256 29.9375 50.7805C30.0788 50.9309 30.3021 51.0061 30.6074 51.0061C30.7988 51.0061 30.9629 50.9947 31.0996 50.9719V51.97C30.9447 52.0064 30.694 52.0247 30.3477 52.0247C29.696 52.0247 29.2311 51.8788 28.9531 51.5872C28.6751 51.2955 28.5361 50.8079 28.5361 50.1243V45.8381H27.4766V44.8606H28.5361V43.1448ZM38.2158 44.8606V51.97H37.0879V50.8147H37.0605C36.6185 51.6669 35.8665 52.093 34.8047 52.093C34.0345 52.093 33.4307 51.8606 32.9932 51.3958C32.5602 50.9264 32.3438 50.2861 32.3438 49.4749V44.8606H33.5332V49.2629C33.5332 50.4478 34.0801 51.0403 35.1738 51.0403C35.748 51.0403 36.1992 50.8603 36.5273 50.5002C36.86 50.1357 37.0264 49.648 37.0264 49.0374V44.8606H38.2158ZM40.1436 43.1448H41.333V44.8606H42.7139V45.8381H41.333V50.0627C41.333 50.3863 41.4036 50.6256 41.5449 50.7805C41.6862 50.9309 41.9095 51.0061 42.2148 51.0061C42.4062 51.0061 42.5703 50.9947 42.707 50.9719V51.97C42.5521 52.0064 42.3014 52.0247 41.9551 52.0247C41.3034 52.0247 40.8385 51.8788 40.5605 51.5872C40.2826 51.2955 40.1436 50.8079 40.1436 50.1243V45.8381H39.084V44.8606H40.1436V43.1448ZM46.6309 45.7698C46.0794 45.7698 45.6214 45.9612 45.2568 46.344C44.8968 46.7222 44.6986 47.2099 44.6621 47.8069H48.5244C48.5107 47.2053 48.3307 46.7154 47.9844 46.3372C47.638 45.9589 47.1868 45.7698 46.6309 45.7698ZM48.4971 49.9329H49.666C49.5612 50.5618 49.2331 51.079 48.6816 51.4846C48.1348 51.8902 47.4762 52.093 46.7061 52.093C45.6898 52.093 44.89 51.7649 44.3066 51.1086C43.7233 50.4524 43.4316 49.5637 43.4316 48.4426C43.4316 47.3306 43.7233 46.4351 44.3066 45.7561C44.8945 45.0771 45.6761 44.7375 46.6514 44.7375C47.6084 44.7375 48.3649 45.0588 48.9209 45.7014C49.4769 46.344 49.7549 47.2053 49.7549 48.2854V48.7366H44.6553V48.8049C44.6553 49.4885 44.8421 50.0354 45.2158 50.4456C45.5895 50.8557 46.0954 51.0608 46.7334 51.0608C47.18 51.0608 47.5605 50.9583 47.875 50.7532C48.1895 50.5481 48.3968 50.2747 48.4971 49.9329ZM60.002 50.8625V51.97H54.0137V42.1057H55.2441V50.8625H60.002ZM63.9121 52.093C62.9186 52.093 62.1211 51.7626 61.5195 51.1018C60.918 50.4364 60.6172 49.5409 60.6172 48.4153C60.6172 47.2896 60.918 46.3964 61.5195 45.7356C62.1211 45.0702 62.9186 44.7375 63.9121 44.7375C64.901 44.7375 65.6963 45.0702 66.2979 45.7356C66.8994 46.3964 67.2002 47.2896 67.2002 48.4153C67.2002 49.5364 66.8994 50.4296 66.2979 51.095C65.6963 51.7603 64.901 52.093 63.9121 52.093ZM62.3877 50.3499C62.766 50.8147 63.2741 51.0471 63.9121 51.0471C64.5501 51.0471 65.056 50.817 65.4297 50.3567C65.8034 49.8918 65.9902 49.2447 65.9902 48.4153C65.9902 47.5859 65.8034 46.941 65.4297 46.4807C65.056 46.0159 64.5501 45.7834 63.9121 45.7834C63.2741 45.7834 62.766 46.0159 62.3877 46.4807C62.014 46.9456 61.8271 47.5904 61.8271 48.4153C61.8271 49.2402 62.014 49.885 62.3877 50.3499ZM71.2949 50.9788C71.9147 50.9788 72.4137 50.7418 72.792 50.2678C73.1702 49.7939 73.3594 49.1672 73.3594 48.3879C73.3594 47.6041 73.1702 46.9752 72.792 46.5012C72.4137 46.0227 71.9147 45.7834 71.2949 45.7834C70.6797 45.7834 70.1875 46.0204 69.8184 46.4944C69.4538 46.9638 69.2715 47.595 69.2715 48.3879C69.2715 49.1809 69.4538 49.8121 69.8184 50.2815C70.1875 50.7463 70.6797 50.9788 71.2949 50.9788ZM71.3359 54.6497C70.5566 54.6497 69.8867 54.4514 69.3262 54.0549C68.7656 53.663 68.4352 53.164 68.335 52.5579H69.5586C69.6771 52.886 69.9004 53.148 70.2285 53.344C70.5566 53.54 70.9417 53.6379 71.3838 53.6379C71.9945 53.6379 72.4753 53.4762 72.8262 53.1526C73.1816 52.829 73.3594 52.4006 73.3594 51.8674V50.7463H73.332C73.1087 51.1383 72.7965 51.4504 72.3955 51.6829C71.9945 51.9107 71.5479 52.0247 71.0557 52.0247C70.1488 52.0247 69.4219 51.6943 68.875 51.0334C68.3281 50.3726 68.0547 49.4908 68.0547 48.3879C68.0547 47.276 68.3281 46.3896 68.875 45.7288C69.4264 45.068 70.1624 44.7375 71.083 44.7375C71.5843 44.7375 72.0355 44.8538 72.4365 45.0862C72.8376 45.3186 73.1566 45.6422 73.3936 46.0569H73.4141V44.8606H74.5488V51.8264C74.5488 52.6786 74.2572 53.3622 73.6738 53.8772C73.0905 54.3922 72.3112 54.6497 71.3359 54.6497ZM79.0469 52.093C78.0534 52.093 77.2559 51.7626 76.6543 51.1018C76.0527 50.4364 75.752 49.5409 75.752 48.4153C75.752 47.2896 76.0527 46.3964 76.6543 45.7356C77.2559 45.0702 78.0534 44.7375 79.0469 44.7375C80.0358 44.7375 80.8311 45.0702 81.4326 45.7356C82.0342 46.3964 82.335 47.2896 82.335 48.4153C82.335 49.5364 82.0342 50.4296 81.4326 51.095C80.8311 51.7603 80.0358 52.093 79.0469 52.093ZM77.5225 50.3499C77.9007 50.8147 78.4089 51.0471 79.0469 51.0471C79.6849 51.0471 80.1908 50.817 80.5645 50.3567C80.9382 49.8918 81.125 49.2447 81.125 48.4153C81.125 47.5859 80.9382 46.941 80.5645 46.4807C80.1908 46.0159 79.6849 45.7834 79.0469 45.7834C78.4089 45.7834 77.9007 46.0159 77.5225 46.4807C77.1488 46.9456 76.9619 47.5904 76.9619 48.4153C76.9619 49.2402 77.1488 49.885 77.5225 50.3499Z" fill="#838383"/>
<defs>
<clipPath id="clip0_17886_18048">
<rect width="30.9804" height="30.9804" fill="white" transform="translate(27.5176 0.500244)"/>
</clipPath>
</defs>
</svg>
