<svg width="32" height="32" viewBox="0 0 32 32" fill="none" xmlns="http://www.w3.org/2000/svg">
<rect x="0.372093" y="0.372093" width="31.2558" height="31.2558" rx="15.6279" fill="#C3C3C3"/>
<rect x="0.372093" y="0.372093" width="31.2558" height="31.2558" rx="15.6279" stroke="#ffff" stroke-width="0.744186"/>
<path d="M15.9999 15.9996C18.3597 15.9996 20.2788 14.0805 20.2788 11.7207C20.2788 9.36092 18.3597 7.44183 15.9999 7.44183C13.6401 7.44183 11.721 9.36092 11.721 11.7207C11.721 14.0805 13.6401 15.9996 15.9999 15.9996ZM15.9999 8.86813C17.5731 8.86813 18.8525 10.1475 18.8525 11.7207C18.8525 13.2939 17.5731 14.5733 15.9999 14.5733C14.4267 14.5733 13.1473 13.2939 13.1473 11.7207C13.1473 10.1475 14.4267 8.86813 15.9999 8.86813ZM22.4182 23.8442C22.4182 24.2379 22.0994 24.5574 21.7051 24.5574C21.3107 24.5574 20.9919 24.2379 20.9919 23.8442C20.9919 21.6913 19.6191 19.8577 17.705 19.1589L16.6232 20.782L17.4026 23.6275C17.5332 24.1024 17.1138 24.5581 16.5462 24.5581H15.4536C14.8859 24.5581 14.4673 24.1024 14.5971 23.6275L15.3766 20.782L14.2947 19.1589C12.3807 19.8577 11.0078 21.6913 11.0078 23.845C11.0078 24.2386 10.6883 24.5581 10.2947 24.5581C9.90103 24.5581 9.58154 24.2386 9.58154 23.845C9.58154 20.3063 12.4612 17.4266 15.9999 17.4266C19.5385 17.4266 22.4182 20.3056 22.4182 23.8442Z" fill="#30313D"/>
</svg>
