<svg width="16" height="21" viewBox="0 0 16 21" fill="none" xmlns="http://www.w3.org/2000/svg">
<path id="Vector" d="M7.99969 10.4996C10.7571 10.4996 12.9995 8.25718 12.9995 5.49979C12.9995 2.74241 10.7571 0.5 7.99969 0.5C5.2423 0.5 2.9999 2.74241 2.9999 5.49979C2.9999 8.25718 5.2423 10.4996 7.99969 10.4996ZM7.99969 2.1666C9.83794 2.1666 11.3329 3.66153 11.3329 5.49979C11.3329 7.33805 9.83794 8.83299 7.99969 8.83299C6.16143 8.83299 4.66649 7.33805 4.66649 5.49979C4.66649 3.66153 6.16143 2.1666 7.99969 2.1666ZM15.4994 19.6659C15.4994 20.1258 15.1269 20.4992 14.6661 20.4992C14.2053 20.4992 13.8328 20.1258 13.8328 19.6659C13.8328 17.1501 12.2287 15.0077 9.99211 14.1911L8.72799 16.0877L9.63879 19.4125C9.79128 19.9675 9.3013 20.5 8.63799 20.5H7.36138C6.69808 20.5 6.20893 19.9675 6.36059 19.4125L7.27139 16.0877L6.00727 14.1911C3.7707 15.0077 2.1666 17.1501 2.1666 19.6667C2.1666 20.1267 1.79328 20.5 1.3333 20.5C0.873318 20.5 0.5 20.1267 0.5 19.6667C0.5 15.5319 3.86486 12.167 7.99969 12.167C12.1345 12.167 15.4994 15.531 15.4994 19.6659Z" fill="#30313D"/>
</svg>
