<svg width="21" height="20" viewBox="0 0 21 20" fill="none" xmlns="http://www.w3.org/2000/svg">
<g id="triangle-warning 1" clip-path="url(#clip0_13302_47511)">
<path id="Vector" d="M9.54248 10.834V5.83398C9.54248 5.37565 9.91748 5.00065 10.3758 5.00065C10.8341 5.00065 11.2091 5.37565 11.2091 5.83398V10.834C11.2091 11.2923 10.8341 11.6673 10.3758 11.6673C9.91748 11.6673 9.54248 11.2923 9.54248 10.834ZM10.3758 12.5007C9.68415 12.5007 9.12582 13.059 9.12582 13.7507C9.12582 14.4423 9.68415 15.0007 10.3758 15.0007C11.0675 15.0007 11.6258 14.4423 11.6258 13.7507C11.6258 13.059 11.0675 12.5007 10.3758 12.5007ZM20.0258 16.5673C19.4425 17.6923 18.2175 18.334 16.6841 18.334H4.07582C2.53415 18.334 1.31748 17.6923 0.734149 16.5673C0.142482 15.434 0.309149 13.984 1.15082 12.7673L7.85082 2.16732C8.44248 1.31732 9.37582 0.833984 10.3758 0.833984C11.3758 0.833984 12.3091 1.31732 12.8758 2.14232L19.6091 12.784C20.4508 14.0007 20.6091 15.4423 20.0175 16.5673H20.0258ZM18.2341 13.7173C18.2341 13.7173 18.2175 13.7007 18.2175 13.684L11.4925 3.05898C11.2508 2.71732 10.8341 2.50065 10.3758 2.50065C9.91748 2.50065 9.50082 2.71732 9.24248 3.09232L2.53415 13.684C2.01748 14.4173 1.90082 15.2173 2.20082 15.7923C2.49248 16.359 3.15915 16.6673 4.06748 16.6673H16.6675C17.5758 16.6673 18.2425 16.359 18.5341 15.7923C18.8342 15.2173 18.7175 14.4173 18.2258 13.7173H18.2341Z" fill="#E05757"/>
</g>
<defs>
<clipPath id="clip0_13302_47511">
<rect width="20" height="20" fill="white" transform="translate(0.375)"/>
</clipPath>
</defs>
</svg>
