<svg width="20" height="20" viewBox="0 0 20 20" fill="none" xmlns="http://www.w3.org/2000/svg">
<g id="Clip path group">
<mask id="mask0_14509_63359" style="mask-type:luminance" maskUnits="userSpaceOnUse" x="0" y="0" width="20" height="20">
<g id="clip0_1_1825">
<path id="Vector" d="M20 0H0V20H20V0Z" fill="white"/>
</g>
</mask>
<g mask="url(#mask0_14509_63359)">
<g id="style=linear">
<g id="web">
<path id="vector" d="M17.526 6.93208C17.912 7.87787 18.125 8.91325 18.125 10H19.375C19.375 8.74858 19.1294 7.55293 18.6833 6.45978L17.526 6.93208ZM18.125 10C18.125 10.5772 18.0649 11.1398 17.9508 11.682L19.174 11.9394C19.3058 11.3131 19.375 10.6643 19.375 10H18.125ZM17.9508 11.682C17.2907 14.8189 14.819 17.2907 11.682 17.9508L11.9394 19.174C15.5612 18.4119 18.4119 15.5612 19.174 11.9394L17.9508 11.682ZM11.682 17.9508C11.1398 18.0649 10.5772 18.125 10 18.125V19.375C10.6643 19.375 11.3131 19.3058 11.9394 19.174L11.682 17.9508ZM10 18.125C9.42267 18.125 8.86017 18.0649 8.31797 17.9508L8.06058 19.174C8.68683 19.3058 9.33567 19.375 10 19.375V18.125ZM1.875 10C1.875 8.91242 2.08834 7.87624 2.47488 6.92987L1.31768 6.45722C0.870917 7.55106 0.625 8.74758 0.625 10H1.875ZM8.31797 17.9508C5.18103 17.2907 2.70927 14.8189 2.04919 11.682L0.825978 11.9394C1.58809 15.5612 4.43873 18.4119 8.06058 19.174L8.31797 17.9508ZM2.04919 11.682C1.93511 11.1398 1.875 10.5772 1.875 10H0.625C0.625 10.6643 0.694192 11.3131 0.825978 11.9394L2.04919 11.682ZM2.47488 6.92987C3.48089 4.4668 5.66151 2.60817 8.31796 2.04919L8.06058 0.825978C4.99193 1.47168 2.47807 3.61617 1.31768 6.45722L2.47488 6.92987ZM8.31796 2.04919C8.86017 1.93511 9.42267 1.875 10 1.875V0.625C9.33567 0.625 8.68683 0.694192 8.06058 0.825978L8.31796 2.04919ZM10 1.875C10.5772 1.875 11.1398 1.93511 11.682 2.04919L11.9394 0.825978C11.3131 0.694192 10.6643 0.625 10 0.625V1.875ZM11.682 2.04919C14.3392 2.60833 16.5204 4.46792 17.526 6.93208L18.6833 6.45978C17.5234 3.61747 15.009 1.47187 11.9394 0.825978L11.682 2.04919ZM11.2153 1.62757C11.4568 2.3845 12.3513 5.29684 12.7179 7.9735L13.9563 7.80384C13.5742 5.01387 12.6511 2.01529 12.4062 1.2476L11.2153 1.62757ZM12.7179 7.9735C12.8163 8.691 12.875 9.38067 12.875 10H14.125C14.125 9.30675 14.0596 8.5575 13.9563 7.80384L12.7179 7.9735ZM17.8518 6.12702C16.891 6.41843 15.0861 6.93033 13.2237 7.27405L13.4506 8.50333C15.3788 8.14742 17.2341 7.62061 18.2147 7.32321L17.8518 6.12702ZM13.2237 7.27405C12.0941 7.48253 10.9649 7.625 10 7.625V8.875C11.0728 8.875 12.2858 8.71825 13.4506 8.50333L13.2237 7.27405ZM12.875 10C12.875 10.9174 12.7462 11.984 12.5539 13.0592L13.7844 13.2792C13.9831 12.1683 14.125 11.021 14.125 10H12.875ZM12.5539 13.0592C12.1326 15.416 11.4247 17.7161 11.2153 18.3724L12.4062 18.7524C12.6208 18.0797 13.3484 15.7178 13.7844 13.2792L12.5539 13.0592ZM18.3724 11.2153C17.7161 11.4247 15.416 12.1326 13.0592 12.5539L13.2792 13.7844C15.7178 13.3484 18.0797 12.6208 18.7524 12.4062L18.3724 11.2153ZM13.0592 12.5539C11.984 12.7462 10.9174 12.875 10 12.875V14.125C11.021 14.125 12.1683 13.9831 13.2792 13.7844L13.0592 12.5539ZM10 12.875C9.08258 12.875 8.01602 12.7462 6.94081 12.5539L6.7208 13.7844C7.83172 13.9831 8.979 14.125 10 14.125V12.875ZM6.94081 12.5539C4.58397 12.1326 2.28388 11.4247 1.62757 11.2153L1.2476 12.4062C1.92031 12.6208 4.28227 13.3484 6.7208 13.7844L6.94081 12.5539ZM5.875 10C5.875 11.021 6.01693 12.1683 6.21556 13.2792L7.44605 13.0592C7.2538 11.984 7.125 10.9174 7.125 10H5.875ZM6.21556 13.2792C6.65157 15.7178 7.3792 18.0797 7.59384 18.7524L8.78467 18.3724C8.57525 17.7161 7.86745 15.416 7.44605 13.0592L6.21556 13.2792ZM7.59384 1.2476C7.34889 2.01529 6.42583 5.01387 6.04362 7.80384L7.28205 7.9735C7.64874 5.29684 8.54317 2.3845 8.78467 1.62757L7.59384 1.2476ZM6.04362 7.80384C5.94038 8.5575 5.875 9.30675 5.875 10H7.125C7.125 9.38067 7.18377 8.691 7.28205 7.9735L6.04362 7.80384ZM10 7.625C9.03508 7.625 7.90592 7.48253 6.77627 7.27405L6.54941 8.50333C7.71414 8.71825 8.92717 8.875 10 8.875V7.625ZM6.77627 7.27405C4.91322 6.93021 3.10767 6.41807 2.14714 6.12671L1.7843 7.32289C2.76458 7.62023 4.62048 8.14729 6.54941 8.50333L6.77627 7.27405ZM17.8167 6.14125C17.8266 6.13608 17.8387 6.13099 17.8518 6.12702L18.2147 7.32321C18.2775 7.30415 18.3366 7.27974 18.3927 7.25062L17.8167 6.14125ZM1.57021 7.22674C1.63602 7.26698 1.7074 7.29957 1.7843 7.32289L2.14714 6.12671C2.17486 6.13512 2.2004 6.14692 2.22236 6.16035L1.57021 7.22674Z" fill="black"/>
</g>
</g>
</g>
</g>
</svg>
