<svg width="21" height="21" viewBox="0 0 21 21" fill="none" xmlns="http://www.w3.org/2000/svg">
<g id="style=linear">
<g id="web">
<path id="vector" d="M18.1177 7.40198C18.5315 8.41607 18.7599 9.52623 18.7599 10.6915H20.1002C20.1002 9.34967 19.8369 8.06767 19.3586 6.89557L18.1177 7.40198ZM18.7599 10.6915C18.7599 11.3104 18.6955 11.9136 18.5732 12.4949L19.8847 12.7709C20.026 12.0994 20.1002 11.4038 20.1002 10.6915H18.7599ZM18.5732 12.4949C17.8654 15.8584 15.2152 18.5087 11.8516 19.2165L12.1276 20.528C16.011 19.7109 19.0676 16.6543 19.8847 12.7709L18.5732 12.4949ZM11.8516 19.2165C11.2703 19.3388 10.6671 19.4032 10.0482 19.4032V20.7435C10.7605 20.7435 11.4561 20.6694 12.1276 20.528L11.8516 19.2165ZM10.0482 19.4032C9.42912 19.4032 8.826 19.3388 8.24464 19.2165L7.96866 20.528C8.64015 20.6694 9.33584 20.7435 10.0482 20.7435V19.4032ZM1.33637 10.6915C1.33637 9.52533 1.56512 8.41433 1.97957 7.3996L0.738802 6.89283C0.25977 8.06566 -0.00390625 9.3486 -0.00390625 10.6915H1.33637ZM8.24464 19.2165C4.88116 18.5087 2.23088 15.8584 1.52314 12.4949L0.211586 12.7709C1.02874 16.6543 4.08524 19.7109 7.96866 20.528L8.24464 19.2165ZM1.52314 12.4949C1.40082 11.9136 1.33637 11.3104 1.33637 10.6915H-0.00390625C-0.00390625 11.4038 0.0702824 12.0994 0.211586 12.7709L1.52314 12.4949ZM1.97957 7.3996C3.05824 4.75866 5.39634 2.76579 8.24463 2.16645L7.96866 0.854896C4.6784 1.54723 1.983 3.8466 0.738802 6.89283L1.97957 7.3996ZM8.24463 2.16645C8.826 2.04413 9.42912 1.97968 10.0482 1.97968V0.639404C9.33584 0.639404 8.64015 0.713593 7.96866 0.854896L8.24463 2.16645ZM10.0482 1.97968C10.6671 1.97968 11.2703 2.04413 11.8516 2.16645L12.1276 0.854897C11.4561 0.713594 10.7605 0.639404 10.0482 0.639404V1.97968ZM11.8516 2.16645C14.7008 2.76597 17.0395 4.75985 18.1177 7.40198L19.3586 6.89557C18.1149 3.84798 15.4189 1.54744 12.1276 0.854897L11.8516 2.16645ZM11.3513 1.71438C11.6102 2.52597 12.5692 5.64864 12.9624 8.51861L14.2902 8.3367C13.8804 5.34523 12.8907 2.1301 12.6281 1.30697L11.3513 1.71438ZM12.9624 8.51861C13.0678 9.28793 13.1308 10.0274 13.1308 10.6915H14.4711C14.4711 9.94814 14.4009 9.14478 14.2902 8.3367L12.9624 8.51861ZM18.467 6.53877C17.4368 6.85124 15.5015 7.4001 13.5047 7.76864L13.7479 9.08671C15.8154 8.70509 17.8047 8.14023 18.8561 7.82135L18.467 6.53877ZM13.5047 7.76864C12.2935 7.99218 11.0828 8.14494 10.0482 8.14494V9.48521C11.1985 9.48521 12.4991 9.31714 13.7479 9.08671L13.5047 7.76864ZM13.1308 10.6915C13.1308 11.6751 12.9926 12.8187 12.7865 13.9716L14.1059 14.2074C14.3189 13.0163 14.4711 11.7862 14.4711 10.6915H13.1308ZM12.7865 13.9716C12.3347 16.4986 11.5758 18.9648 11.3513 19.6685L12.6281 20.076C12.8583 19.3546 13.6384 16.8221 14.1059 14.2074L12.7865 13.9716ZM19.0252 11.9946C18.3215 12.2191 15.8553 12.9781 13.3282 13.4298L13.5641 14.7492C16.1788 14.2817 18.7113 13.5016 19.4327 13.2714L19.0252 11.9946ZM13.3282 13.4298C12.1754 13.636 11.0318 13.7741 10.0482 13.7741V15.1144C11.1429 15.1144 12.373 14.9622 13.5641 14.7492L13.3282 13.4298ZM10.0482 13.7741C9.06448 13.7741 7.92089 13.636 6.76803 13.4298L6.53213 14.7492C7.72328 14.9622 8.95341 15.1144 10.0482 15.1144V13.7741ZM6.76803 13.4298C4.24097 12.9781 1.77478 12.2191 1.07107 11.9946L0.663658 13.2714C1.38495 13.5016 3.91749 14.2817 6.53213 14.7492L6.76803 13.4298ZM5.62525 10.6915C5.62525 11.7862 5.77743 13.0163 5.9904 14.2074L7.30976 13.9716C7.10362 12.8187 6.96552 11.6751 6.96552 10.6915H5.62525ZM5.9904 14.2074C6.4579 16.8221 7.23808 19.3546 7.46822 20.076L8.74505 19.6685C8.52051 18.9648 7.76159 16.4986 7.30976 13.9716L5.9904 14.2074ZM7.46822 1.30697C7.20558 2.1301 6.21586 5.34523 5.80605 8.3367L7.13391 8.51861C7.52709 5.64864 8.48611 2.52597 8.74505 1.71438L7.46822 1.30697ZM5.80605 8.3367C5.69535 9.14478 5.62525 9.94814 5.62525 10.6915H6.96552C6.96552 10.0274 7.02853 9.28793 7.13391 8.51861L5.80605 8.3367ZM10.0482 8.14494C9.01355 8.14494 7.80283 7.99218 6.5916 7.76864L6.34836 9.08671C7.59721 9.31714 8.89784 9.48521 10.0482 9.48521V8.14494ZM6.5916 7.76864C4.594 7.39997 2.65807 6.85084 1.62816 6.53844L1.23912 7.82101C2.2902 8.13983 4.28012 8.70495 6.34836 9.08671L6.5916 7.76864ZM18.4293 6.55403C18.44 6.54849 18.453 6.54303 18.467 6.53877L18.8561 7.82135C18.9234 7.80092 18.9868 7.77475 19.0469 7.74352L18.4293 6.55403ZM1.00956 7.71792C1.08013 7.76107 1.15666 7.796 1.23912 7.82101L1.62816 6.53844C1.65788 6.54746 1.68527 6.56011 1.70881 6.57451L1.00956 7.71792Z" fill="#727272"/>
</g>
</g>
</svg>
