<svg width="20" height="20" viewBox="0 0 20 20" fill="none" xmlns="http://www.w3.org/2000/svg">
<path d="M9.99739 18.3332C14.5998 18.3332 18.3307 14.6022 18.3307 9.99984C18.3307 5.39746 14.5998 1.6665 9.99739 1.6665C5.39502 1.6665 1.66406 5.39746 1.66406 9.99984C1.66406 14.6022 5.39502 18.3332 9.99739 18.3332Z" stroke="#727272" stroke-width="1.25"/>
<path d="M5 3.9256C5.6502 4.5177 6.98962 6.13613 7.14567 7.87297C7.29153 9.49641 8.36308 10.8157 10 10.8335C10.6291 10.8403 11.2652 10.3859 11.2637 9.75683C11.2632 9.56225 11.2311 9.36333 11.1808 9.18041C11.1109 8.92583 11.1047 8.63308 11.25 8.3335C11.7582 7.28561 12.7578 7.00414 13.5499 6.43505C13.9012 6.18265 14.2216 5.91639 14.3629 5.70192C14.7531 5.10981 15.1432 3.9256 14.9481 3.3335" stroke="#727272" stroke-width="1.25"/>
<path d="M18.3359 10.8335C18.0614 11.6093 17.8672 13.646 14.7678 13.6783C14.7678 13.6783 12.0231 13.6783 11.1997 15.2301C10.5409 16.4714 10.9252 17.8162 11.1997 18.3335" stroke="#727272" stroke-width="1.25"/>
</svg>
