<svg width="33" height="33" viewBox="0 0 33 33" fill="none" xmlns="http://www.w3.org/2000/svg">
<g clip-path="url(#clip0_15941_70455)">
<path fill-rule="evenodd" clip-rule="evenodd" d="M4.80304 0.478516C3.39807 0.478516 2.25977 1.61732 2.25977 3.02179V30.0088C2.25977 31.4138 3.39807 32.5521 4.80304 32.5521H27.7466C29.1506 32.5521 30.2899 31.4138 30.2899 30.0088V10.6581L20.8155 0.478516H4.80304Z" fill="#FC7B24"/>
<path fill-rule="evenodd" clip-rule="evenodd" d="M30.2999 10.6906V11.1919H23.8846C23.8846 11.1919 20.7208 10.5603 20.8125 7.83008C20.8125 7.83008 20.9168 10.6906 23.8219 10.6906H30.2999Z" fill="#FB5C1B"/>
<path opacity="0.5" fill-rule="evenodd" clip-rule="evenodd" d="M20.8242 0.490234V7.78873C20.8242 8.61878 21.3776 10.6914 23.8838 10.6914H30.2991L20.8242 0.490234Z" fill="white"/>
<path d="M8.07372 28.9941L6.90275 27.2336L5.87098 28.9941H4.28239L6.12483 26.0708L4.24145 23.2457H5.87098L7.02558 24.9817L8.04097 23.2457H9.62956L7.8035 26.1445L9.70325 28.9941H8.07372ZM10.4062 28.9941V23.2457H12.0603L13.6735 27.2254L15.2702 23.2457H16.9161V28.9941H15.5159V25.5467L14.2303 28.9941H13.1002L11.8064 25.5385V28.9941H10.4062ZM17.9231 23.2457H19.3233V27.9132H21.1576V28.9941H17.9231V23.2457Z" fill="white"/>
</g>
<defs>
<clipPath id="clip0_15941_70455">
<rect width="32.0791" height="32.0791" fill="white" transform="translate(0.125 0.441406)"/>
</clipPath>
</defs>
</svg>
