<svg width="19" height="14" viewBox="0 0 19 14" fill="none" xmlns="http://www.w3.org/2000/svg">
<path d="M12.9395 6.59656L7.65908 3.18977V10.1284L12.9395 6.59656ZM16.2202 0.408089C16.9076 0.408089 17.5325 0.689383 18.0949 1.25197C18.6574 1.81456 18.9386 2.41882 18.9386 3.06475V10.8785C18.9177 11.6286 18.6157 12.2693 18.0325 12.8007C17.4492 13.332 16.866 13.5977 16.2827 13.5977H2.62862C1.87874 13.5977 1.25384 13.2851 0.753914 12.66C0.253992 12.0349 0.00403162 11.4619 0.00403162 10.941V3.06475C-0.0376285 2.43966 0.243578 1.83019 0.84765 1.23634C1.45172 0.6425 2.06621 0.366415 2.69111 0.408089H16.2202Z" fill="#CD201F"/>
</svg>
