<svg width="73" height="74" viewBox="0 0 73 74" fill="none" xmlns="http://www.w3.org/2000/svg">
<rect x="0.978278" y="1.28126" width="71.0191" height="71.0191" rx="34.6641" fill="#C3C3C3"/>
<rect x="0.978278" y="1.28126" width="71.0191" height="71.0191" rx="34.6641" stroke="#818181" stroke-width="1.69093"/>
<path d="M36.4879 36.79C42.0832 36.79 46.6335 32.2398 46.6335 26.6448C46.6335 21.0497 42.0832 16.4996 36.4879 16.4996C30.8926 16.4996 26.3423 21.0497 26.3423 26.6448C26.3423 32.2398 30.8926 36.79 36.4879 36.79ZM36.4879 19.8814C40.2181 19.8814 43.2516 22.9148 43.2516 26.6448C43.2516 30.3748 40.2181 33.4082 36.4879 33.4082C32.7577 33.4082 29.7242 30.3748 29.7242 26.6448C29.7242 22.9148 32.7577 19.8814 36.4879 19.8814ZM51.7063 55.3894C51.7063 56.3228 50.9504 57.0803 50.0153 57.0803C49.0803 57.0803 48.3244 56.3228 48.3244 55.3894C48.3244 50.2847 45.0694 45.9375 40.5309 44.2805L37.9658 48.1289L39.814 54.8754C40.1234 56.0015 39.1291 57.082 37.7832 57.082H35.1927C33.8467 57.082 32.8541 56.0015 33.1618 54.8754L35.01 48.1289L32.4449 44.2805C27.9064 45.9375 24.6514 50.2847 24.6514 55.3911C24.6514 56.3245 23.8939 57.082 22.9605 57.082C22.0271 57.082 21.2695 56.3245 21.2695 55.3911C21.2695 47.0011 28.0975 40.1734 36.4879 40.1734C44.8783 40.1734 51.7063 46.9994 51.7063 55.3894Z" fill="#30313D"/>
</svg>
