<svg width="130" height="30" viewBox="0 0 130 30" fill="none" xmlns="http://www.w3.org/2000/svg">
<g clip-path="url(#paint0_diamond_17857_90545_clip_path)" data-figma-skip-parse="true"><g transform="matrix(-0.164464 0.0160714 -0.00371901 -0.0380579 114.107 15)"><rect x="0" y="0" width="702.087" height="706.6" fill="url(#paint0_diamond_17857_90545)" opacity="1" shape-rendering="crispEdges"/><rect x="0" y="0" width="702.087" height="706.6" transform="scale(1 -1)" fill="url(#paint0_diamond_17857_90545)" opacity="1" shape-rendering="crispEdges"/><rect x="0" y="0" width="702.087" height="706.6" transform="scale(-1 1)" fill="url(#paint0_diamond_17857_90545)" opacity="1" shape-rendering="crispEdges"/><rect x="0" y="0" width="702.087" height="706.6" transform="scale(-1)" fill="url(#paint0_diamond_17857_90545)" opacity="1" shape-rendering="crispEdges"/></g></g><rect width="129.643" height="30" rx="15" data-figma-gradient-fill="{&#34;type&#34;:&#34;GRADIENT_DIAMOND&#34;,&#34;stops&#34;:[{&#34;color&#34;:{&#34;r&#34;:0.14509804546833038,&#34;g&#34;:0.50196081399917603,&#34;b&#34;:0.82745099067687988,&#34;a&#34;:1.0},&#34;position&#34;:0.0},{&#34;color&#34;:{&#34;r&#34;:0.10847777873277664,&#34;g&#34;:0.28093871474266052,&#34;b&#34;:0.67916667461395264,&#34;a&#34;:1.0},&#34;position&#34;:0.50},{&#34;color&#34;:{&#34;r&#34;:0.14518517255783081,&#34;g&#34;:0.19288888573646545,&#34;b&#34;:0.62222212553024292,&#34;a&#34;:1.0},&#34;position&#34;:1.0}],&#34;stopsVar&#34;:[{&#34;color&#34;:{&#34;r&#34;:0.14509804546833038,&#34;g&#34;:0.50196081399917603,&#34;b&#34;:0.82745099067687988,&#34;a&#34;:1.0},&#34;position&#34;:0.0},{&#34;color&#34;:{&#34;r&#34;:0.10847777873277664,&#34;g&#34;:0.28093871474266052,&#34;b&#34;:0.67916667461395264,&#34;a&#34;:1.0},&#34;position&#34;:0.50},{&#34;color&#34;:{&#34;r&#34;:0.14518517255783081,&#34;g&#34;:0.19288888573646545,&#34;b&#34;:0.62222212553024292,&#34;a&#34;:1.0},&#34;position&#34;:1.0}],&#34;transform&#34;:{&#34;m00&#34;:-328.92855834960938,&#34;m01&#34;:-7.4380173683166504,&#34;m02&#34;:282.29043579101562,&#34;m10&#34;:32.142864227294922,&#34;m11&#34;:-76.115699768066406,&#34;m12&#34;:36.986412048339844},&#34;opacity&#34;:1.0,&#34;blendMode&#34;:&#34;NORMAL&#34;,&#34;visible&#34;:true}"/>
<g clip-path="url(#clip0_17857_90545)">
<path d="M17.523 10.0898C17.4631 9.55973 17.1101 8.79647 16.7099 8.43401C16.4141 8.16664 15.9629 8.11148 16.1284 7.59196C16.3437 6.91643 17.2735 7.70963 17.5215 7.99066C18.5453 9.15105 18.7113 11.2501 17.9007 12.5692C17.7163 12.8686 17.5157 13.1533 17.1149 12.9668C16.7141 12.7803 16.9694 12.2503 17.2026 12.0334C17.2015 11.932 15.9645 11.2265 15.737 11.3247C15.4649 11.5858 17.0949 13.7138 17.3381 14.0043C18.3378 15.2004 19.7703 16.5714 21.0993 17.3872C21.4827 17.6225 21.904 17.8731 22.3553 17.943L21.935 16.8404C22.1415 16.8419 22.6694 16.6077 22.8285 16.7069C22.8932 16.7469 23.0823 17.2107 23.1143 17.3147C23.2593 17.778 23.3397 18.2524 22.9599 18.6264L9.90778 24.3264C9.57369 24.4488 9.32785 24.224 9.2832 23.9046L14.968 10.7916C15.6367 9.92271 16.7808 10.7753 17.523 11.1141C17.4968 10.7863 17.5593 10.4107 17.523 10.0898ZM15.2632 12.5324L15.1455 12.5991L13.743 15.8743C13.9804 17.341 15.7276 18.2834 17.0387 18.6631C17.7967 18.8827 19.142 19.1123 19.9095 18.9904C20.2567 18.9353 20.7778 18.5507 21.1471 18.4677C20.8666 18.2403 20.5356 18.0864 20.2378 17.881C18.4113 16.6192 16.5722 14.6809 15.3793 12.8113C15.3252 12.7262 15.2779 12.6338 15.2632 12.5329V12.5324ZM18.4686 19.5719C16.5139 19.3854 14.3949 18.5245 13.3469 16.7884L12.0037 19.9118C12.3194 20.9986 13.7015 21.1378 14.6596 21.256C15.819 20.7108 17.2362 20.2916 18.3477 19.6864C18.3966 19.6596 18.4633 19.6365 18.4691 19.5719H18.4686ZM13.5828 21.7256C12.8537 21.6001 12.1193 21.2723 11.666 20.6756L10.5891 23.0378L13.5828 21.7256Z" fill="white"/>
<path d="M20.4341 13.6137C21.0256 14.2272 21.6008 14.856 22.0935 15.5557C23.3127 15.333 24.6212 15.5809 25.4559 16.5496C25.6655 16.7928 25.9235 17.0906 25.6897 17.4163C25.2868 17.9779 24.7914 17.0927 24.5099 16.8653C23.7424 16.246 22.5243 16.2249 21.6528 16.6357C21.3891 16.7602 21.1601 17.0917 20.8186 16.7891C20.4446 16.4577 20.836 16.0406 21.1769 15.8951L21.1947 15.8241L19.6855 14.0823L20.1504 13.3731C20.2991 13.3594 20.35 13.526 20.4341 13.6137Z" fill="white"/>
<path d="M15.0747 7.56357C14.9129 7.72326 14.7248 7.86246 14.5904 8.05157C14.4916 8.37778 14.9187 9.18569 14.5956 9.38267C14.302 9.56127 13.7089 9.01864 13.399 8.95613C13.035 8.9824 12.4519 9.64847 12.1341 9.33067C11.9213 9.11792 12.2239 8.40089 12.2076 8.1041C12.0379 7.81308 11.3682 7.44958 11.4275 7.09868C11.4911 6.72466 12.3862 6.82342 12.6746 6.68842C12.8695 6.36431 13.1946 5.16716 13.6774 5.84426C13.8035 6.02076 13.9821 6.576 14.1097 6.67319C14.385 6.88278 15.466 6.64639 15.3594 7.24103C15.3289 7.41175 15.1734 7.46639 15.0742 7.56462L15.0747 7.56357ZM13.649 7.21214C13.5613 7.12179 13.493 6.81449 13.3985 6.70155C13.1395 7.21214 13.0428 7.37236 12.4267 7.38496C12.7991 7.75057 12.9625 7.9276 12.7944 8.48704C12.9945 8.46603 13.1405 8.28217 13.347 8.27324C13.6002 8.26221 13.7567 8.49072 14.0026 8.48651C13.7872 7.94808 13.9421 7.749 14.3177 7.38444C14.1313 7.31247 13.7903 7.3566 13.6496 7.21162L13.649 7.21214Z" fill="white"/>
<path d="M26.4396 11.7052C26.5672 11.8282 26.7936 12.5804 26.9265 12.6629C27.2317 12.791 28.1158 12.687 28.1778 13.0957C28.2172 13.3536 27.528 13.8385 27.3746 14.0528C27.3552 14.3916 27.7208 15.1218 27.3945 15.3403C27.0683 15.5588 26.5115 14.9584 26.1717 14.9069C24.9062 15.7122 24.695 15.4979 25.0286 14.0376C24.8106 13.8296 23.957 13.2265 24.3221 12.8972C24.497 12.7396 25.2382 12.7637 25.4966 12.6802C25.6668 12.4275 25.8292 11.6569 26.1627 11.6349C26.2373 11.6301 26.3855 11.6543 26.439 11.7058L26.4396 11.7052ZM27.1351 13.3205C26.6003 13.3767 26.3902 13.1614 26.2163 12.6902C25.9337 13.1325 25.9116 13.3542 25.296 13.3458C25.1531 13.4219 25.5508 13.651 25.5828 13.6909C25.7656 13.9168 25.6001 14.2199 25.6122 14.4757C25.8281 14.4489 25.9889 14.2135 26.2174 14.2188C26.3529 14.222 26.7595 14.5245 26.8204 14.4751C26.7673 14.2939 26.6707 14.0118 26.7258 13.8301C26.7558 13.7313 27.217 13.3899 27.1356 13.3205H27.1351Z" fill="white"/>
<path d="M26.1227 9.65969C26.4143 9.97855 26.1611 10.2323 25.9299 10.4581C24.8489 11.5156 23.4952 12.4338 22.4052 13.4996C22.0186 13.8615 21.4712 13.58 21.6325 13.0421C21.654 12.9696 21.8641 12.7842 21.9361 12.7153C23.0361 11.6605 24.3562 10.7366 25.4614 9.6744C25.6279 9.50262 25.9515 9.47268 26.1227 9.65969Z" fill="white"/>
<path d="M18.6941 13.9886C18.4893 13.7496 18.6448 13.4738 18.7787 13.249L18.2051 12.6643L18.5218 11.9021L19.283 12.5314L20.9892 10.1413C21.5213 9.7988 21.9326 10.2317 21.6316 10.7837C21.1993 11.5769 20.1686 12.928 19.5924 13.6823C19.4479 13.8714 19.2693 14.1882 18.9914 14.1393C18.9342 14.1294 18.7293 14.0296 18.6941 13.9886Z" fill="white"/>
<path d="M25.8562 7.36412C25.8562 8.05962 25.2925 8.62326 24.597 8.62326C23.9015 8.62326 23.3379 8.05962 23.3379 7.36412C23.3379 6.66863 23.9015 6.10498 24.597 6.10498C25.2925 6.10498 25.8562 6.66863 25.8562 7.36412ZM25.2305 7.36412C25.2305 7.0169 24.949 6.73481 24.6012 6.73481C24.2535 6.73481 23.9719 7.01637 23.9719 7.36412C23.9719 7.71187 24.2535 7.99343 24.6012 7.99343C24.949 7.99343 25.2305 7.71187 25.2305 7.36412Z" fill="white"/>
<path d="M21.2888 8.17128C21.2888 8.79008 20.7872 9.29227 20.1679 9.29227C19.5485 9.29227 19.0469 8.79061 19.0469 8.17128C19.0469 7.55195 19.5485 7.05029 20.1679 7.05029C20.7872 7.05029 21.2888 7.55195 21.2888 8.17128ZM20.6569 8.1718C20.6569 7.9018 20.4379 7.68275 20.1679 7.68275C19.8979 7.68275 19.6788 7.9018 19.6788 8.1718C19.6788 8.44181 19.8979 8.66086 20.1679 8.66086C20.4379 8.66086 20.6569 8.44181 20.6569 8.1718Z" fill="white"/>
<path d="M26.667 20.1431C26.667 20.7629 26.1643 21.2656 25.5444 21.2656C24.9246 21.2656 24.4219 20.7629 24.4219 20.1431C24.4219 19.5232 24.9246 19.0205 25.5444 19.0205C26.1643 19.0205 26.667 19.5232 26.667 20.1431ZM26.0335 20.142C26.0335 19.8694 25.8123 19.6488 25.5402 19.6488C25.2681 19.6488 25.047 19.8699 25.047 20.142C25.047 20.4141 25.2681 20.6353 25.5402 20.6353C25.8123 20.6353 26.0335 20.4141 26.0335 20.142Z" fill="white"/>
</g>
<path d="M39.2662 20H37.2136V9.75142H39.0034L43.7903 16.4276H43.8471V9.75142H45.8997V20H44.1241L39.3301 13.2884H39.2662V20ZM51.1409 13.7571C50.6911 13.7571 50.3146 13.911 50.0116 14.2187C49.7133 14.5265 49.5452 14.9195 49.5074 15.3977H52.7389C52.7152 14.91 52.5566 14.5147 52.263 14.2116C51.9742 13.9086 51.6002 13.7571 51.1409 13.7571ZM52.7673 17.6705H54.6707C54.5571 18.4186 54.183 19.0223 53.5485 19.4815C52.9188 19.9361 52.1352 20.1634 51.1977 20.1634C50.0282 20.1634 49.1096 19.813 48.442 19.1122C47.7791 18.4115 47.4477 17.4503 47.4477 16.2287C47.4477 15.0118 47.7791 14.0412 48.442 13.3168C49.1049 12.5876 49.9974 12.223 51.1196 12.223C52.2228 12.223 53.1011 12.5687 53.7545 13.2599C54.4079 13.9512 54.7346 14.8769 54.7346 16.0369V16.669H49.486V16.7969C49.486 17.3414 49.6447 17.7841 49.9619 18.125C50.2839 18.4612 50.7076 18.6293 51.2332 18.6293C51.612 18.6293 51.9387 18.544 52.2133 18.3736C52.4879 18.1984 52.6726 17.964 52.7673 17.6705ZM66.7372 12.3864L64.7201 20H62.5113L61.1335 14.6165H61.0909L59.7201 20H57.5397L55.5156 12.3864H57.6037L58.7542 18.0327H58.7968L60.1463 12.3864H62.1349L63.4914 18.0327H63.5341L64.6917 12.3864H66.7372ZM67.8875 20V9.75142H69.9613V20H67.8875ZM72.6244 22.8196C72.1699 22.8196 71.9094 22.8125 71.8431 22.7983V21.2003C71.8858 21.2098 72.0586 21.2145 72.3616 21.2145C72.7451 21.2145 73.0363 21.1482 73.2352 21.0156C73.4341 20.8878 73.569 20.6723 73.64 20.3693C73.64 20.3646 73.6519 20.3054 73.6755 20.1918C73.6992 20.0781 73.7087 20.0166 73.7039 20.0071L71.0548 12.3864H73.3346L74.9539 18.3381H74.9895L76.6088 12.3864H78.7963L76.1755 20.1705C75.8488 21.1458 75.418 21.83 74.8829 22.223C74.3526 22.6207 73.5998 22.8196 72.6244 22.8196ZM92.0983 20H89.9534V15.6818H85.3369V20H83.192V9.75142H85.3369V13.9134H89.9534V9.75142H92.0983V20ZM93.9517 20V12.3864H96.0255V20H93.9517ZM95.777 11.2358C95.5639 11.4441 95.3011 11.5483 94.9886 11.5483C94.6761 11.5483 94.4133 11.4441 94.2003 11.2358C93.9872 11.0275 93.8806 10.7741 93.8806 10.4759C93.8806 10.1728 93.9872 9.91951 94.2003 9.71591C94.4133 9.50758 94.6761 9.40341 94.9886 9.40341C95.3011 9.40341 95.5639 9.50758 95.777 9.71591C95.99 9.91951 96.0966 10.1728 96.0966 10.4759C96.0966 10.7741 95.99 11.0275 95.777 11.2358ZM97.7014 20V12.3864H99.7042V13.7571H99.7468C99.8794 13.2741 100.102 12.9048 100.414 12.6491C100.727 12.3935 101.108 12.2656 101.558 12.2656C101.776 12.2656 101.972 12.2917 102.147 12.3437V14.169C101.953 14.0885 101.702 14.0483 101.395 14.0483C100.883 14.0483 100.485 14.1974 100.201 14.4957C99.9173 14.794 99.7753 15.2107 99.7753 15.7457V20H97.7014ZM106.451 13.7571C106.001 13.7571 105.625 13.911 105.322 14.2187C105.024 14.5265 104.855 14.9195 104.818 15.3977H108.049C108.025 14.91 107.867 14.5147 107.573 14.2116C107.284 13.9086 106.91 13.7571 106.451 13.7571ZM108.078 17.6705H109.981C109.867 18.4186 109.493 19.0223 108.859 19.4815C108.229 19.9361 107.445 20.1634 106.508 20.1634C105.338 20.1634 104.42 19.813 103.752 19.1122C103.089 18.4115 102.758 17.4503 102.758 16.2287C102.758 15.0118 103.089 14.0412 103.752 13.3168C104.415 12.5876 105.308 12.223 106.43 12.223C107.533 12.223 108.411 12.5687 109.065 13.2599C109.718 13.9512 110.045 14.8769 110.045 16.0369V16.669H104.796V16.7969C104.796 17.3414 104.955 17.7841 105.272 18.125C105.594 18.4612 106.018 18.6293 106.543 18.6293C106.922 18.6293 107.249 18.544 107.524 18.3736C107.798 18.1984 107.983 17.964 108.078 17.6705ZM114.235 20.1207C113.283 20.1207 112.528 19.768 111.969 19.0625C111.411 18.357 111.131 17.3958 111.131 16.179C111.131 14.9716 111.411 14.0175 111.969 13.3168C112.533 12.616 113.293 12.2656 114.249 12.2656C114.789 12.2656 115.262 12.3958 115.67 12.6562C116.082 12.9167 116.382 13.2623 116.572 13.6932H116.614V9.75142H118.688V20H116.643V18.6932H116.607C116.418 19.1241 116.112 19.4697 115.691 19.7301C115.269 19.9905 114.784 20.1207 114.235 20.1207ZM114.938 13.9276C114.417 13.9276 114.005 14.1312 113.702 14.5384C113.404 14.9455 113.255 15.4972 113.255 16.1932C113.255 16.8939 113.404 17.4455 113.702 17.848C114.005 18.2505 114.417 18.4517 114.938 18.4517C115.454 18.4517 115.864 18.2505 116.167 17.848C116.474 17.4408 116.628 16.8892 116.628 16.1932C116.628 15.5019 116.474 14.9527 116.167 14.5455C115.864 14.1335 115.454 13.9276 114.938 13.9276Z" fill="white"/>
<defs>
<clipPath id="paint0_diamond_17857_90545_clip_path"><rect width="129.643" height="30" rx="15"/></clipPath><linearGradient id="paint0_diamond_17857_90545" x1="0" y1="0" x2="500" y2="500" gradientUnits="userSpaceOnUse">
<stop stop-color="#2580D3"/>
<stop offset="0.5" stop-color="#1C48AD"/>
<stop offset="1" stop-color="#25319F"/>
</linearGradient>
<clipPath id="clip0_17857_90545">
<rect width="18.8966" height="18.7211" fill="white" transform="translate(9.2832 5.6394)"/>
</clipPath>
</defs>
</svg>
