<svg width="27" height="27" viewBox="0 0 27 27" fill="none" xmlns="http://www.w3.org/2000/svg">
<path d="M9.5 11.0082C9.5 10.2171 9.7346 9.44372 10.1741 8.78592C10.6137 8.12812 11.2384 7.61544 11.9693 7.31268C12.7001 7.00993 13.5044 6.93072 14.2804 7.08507C15.0563 7.2394 15.7691 7.62036 16.3284 8.17977C16.8879 8.73919 17.2688 9.45192 17.4232 10.2278C17.5775 11.0038 17.4983 11.8081 17.1955 12.539C16.8928 13.2698 16.3801 13.8946 15.7223 14.3341C15.0645 14.7737 14.2911 15.0082 13.5 15.0082V16.3415M25.5 13.6749C25.5 20.3023 20.1275 25.6749 13.5 25.6749C6.87259 25.6749 1.5 20.3023 1.5 13.6749C1.5 7.04745 6.87259 1.67487 13.5 1.67487C20.1275 1.67487 25.5 7.04745 25.5 13.6749Z" stroke="#30313D" stroke-width="2" stroke-linecap="round" stroke-linejoin="round"/>
<path d="M14.0333 21.9415C14.7697 21.9415 15.3667 21.3446 15.3667 20.6082C15.3667 19.8718 14.7697 19.2748 14.0333 19.2748C13.297 19.2748 12.7 19.8718 12.7 20.6082C12.7 21.3446 13.297 21.9415 14.0333 21.9415Z" fill="#30313D"/>
</svg>
