<svg width="24" height="24" viewBox="0 0 24 24" fill="none" xmlns="http://www.w3.org/2000/svg">
<path d="M12 0C12.568 0 13.0286 0.460512 13.0286 1.02857C13.0286 1.59663 12.568 2.05714 12 2.05714C6.50872 2.05714 2.05714 6.50872 2.05714 12C2.05714 17.4913 6.50872 21.9429 12 21.9429C12.568 21.9429 13.0286 22.4034 13.0286 22.9714C13.0286 23.5395 12.568 24 12 24C5.37259 24 0 18.6274 0 12C0 5.37259 5.37259 0 12 0Z" fill="white"/>
<path d="M18.1299 8.61299C17.7282 8.21132 17.7282 7.56005 18.1299 7.15837C18.5316 6.7567 19.1827 6.7567 19.5844 7.15837L23.6987 11.2727C24.1004 11.6744 24.1004 12.3255 23.6987 12.7272L19.5844 16.8415C19.1827 17.2432 18.5316 17.2432 18.1299 16.8415C17.7282 16.4398 17.7282 15.7887 18.1299 15.387L20.4882 13.0285H9.25715C8.68909 13.0285 8.22858 12.568 8.22858 12C8.22858 11.4319 8.68909 10.9714 9.25715 10.9714H20.4882L18.1299 8.61299Z" fill="white"/>
</svg>
