<svg width="27" height="26" viewBox="0 0 27 26" fill="none" xmlns="http://www.w3.org/2000/svg">
<path d="M13.6448 13.9359C13.5608 13.9239 13.4528 13.9239 13.3568 13.9359C11.2448 13.8639 9.56479 12.1359 9.56479 10.0119C9.56479 7.83992 11.3168 6.07593 13.5008 6.07593C15.6728 6.07593 17.4367 7.83992 17.4367 10.0119C17.4247 12.1359 15.7568 13.8639 13.6448 13.9359Z" stroke="#30313D" stroke-width="2" stroke-linecap="round" stroke-linejoin="round"/>
<path d="M21.5877 21.856C19.4517 23.812 16.6197 25 13.4997 25C10.3797 25 7.5477 23.812 5.41171 21.856C5.53171 20.7281 6.25171 19.6241 7.5357 18.7601C10.8237 16.5761 16.1997 16.5761 19.4637 18.7601C20.7477 19.6241 21.4677 20.7281 21.5877 21.856Z" stroke="#30313D" stroke-width="2" stroke-linecap="round" stroke-linejoin="round"/>
<path d="M13.4999 24.9999C20.1273 24.9999 25.4999 19.6273 25.4999 12.9999C25.4999 6.37255 20.1273 1 13.4999 1C6.87255 1 1.5 6.37255 1.5 12.9999C1.5 19.6273 6.87255 24.9999 13.4999 24.9999Z" stroke="#30313D" stroke-width="2" stroke-linecap="round" stroke-linejoin="round"/>
</svg>
