<svg width="25" height="27" viewBox="0 0 25 27" fill="none" xmlns="http://www.w3.org/2000/svg">
<path d="M12.5009 8.88983C11.6216 8.88983 10.762 9.15057 10.0309 9.63909C9.29983 10.1276 8.73 10.8219 8.3935 11.6343C8.05701 12.4467 7.96897 13.3406 8.14051 14.203C8.31205 15.0654 8.73548 15.8576 9.35724 16.4793C9.97899 17.1011 10.7712 17.5245 11.6336 17.696C12.496 17.8676 13.3899 17.7795 14.2022 17.443C15.0146 17.1066 15.7089 16.5367 16.1975 15.8056C16.686 15.0745 16.9467 14.2149 16.9467 13.3356C16.9467 12.1565 16.4783 11.0257 15.6446 10.192C14.8108 9.35823 13.68 8.88983 12.5009 8.88983ZM12.5009 15.5586C12.0613 15.5586 11.6315 15.4282 11.2659 15.1839C10.9004 14.9397 10.6154 14.5925 10.4472 14.1863C10.279 13.7801 10.2349 13.3332 10.3207 12.902C10.4065 12.4708 10.6182 12.0747 10.9291 11.7638C11.2399 11.4529 11.636 11.2412 12.0672 11.1555C12.4984 11.0697 12.9454 11.1137 13.3516 11.2819C13.7578 11.4502 14.1049 11.7351 14.3492 12.1007C14.5934 12.4662 14.7238 12.896 14.7238 13.3356C14.7238 13.9252 14.4896 14.4906 14.0727 14.9075C13.6559 15.3244 13.0905 15.5586 12.5009 15.5586Z" fill="#30313D"/>
<path d="M22.8298 15.4492L22.3364 15.1647C22.5585 13.9559 22.5585 12.7168 22.3364 11.508L22.8298 11.2235C23.2093 11.0045 23.542 10.713 23.8088 10.3655C24.0756 10.018 24.2714 9.62134 24.3849 9.19819C24.4985 8.77503 24.5275 8.33366 24.4705 7.89928C24.4134 7.46489 24.2714 7.04599 24.0524 6.6665C23.8335 6.28701 23.542 5.95436 23.1945 5.68753C22.847 5.42071 22.4503 5.22495 22.0272 5.11142C21.604 4.99789 21.1627 4.96882 20.7283 5.02587C20.2939 5.08292 19.875 5.22496 19.4955 5.4439L19.0009 5.72954C18.0668 4.93143 16.9932 4.31272 15.8344 3.90454V3.33436C15.8344 2.45003 15.4831 1.60193 14.8577 0.976612C14.2324 0.351298 13.3843 0 12.5 0C11.6157 0 10.7676 0.351298 10.1423 0.976612C9.51694 1.60193 9.16564 2.45003 9.16564 3.33436V3.90454C8.00682 4.31418 6.93367 4.93441 6.00022 5.73399L5.5034 5.44612C4.73698 5.00396 3.82631 4.88436 2.97171 5.11365C2.11712 5.34293 1.38861 5.9023 0.946442 6.66872C0.504278 7.43514 0.384682 8.34581 0.613964 9.20041C0.843246 10.055 1.40262 10.7835 2.16904 11.2257L2.66253 11.5102C2.44036 12.719 2.44036 13.9581 2.66253 15.1669L2.16904 15.4514C1.40262 15.8936 0.843246 16.6221 0.613964 17.4767C0.384682 18.3313 0.504278 19.242 0.946442 20.0084C1.38861 20.7748 2.11712 21.3342 2.97171 21.5635C3.82631 21.7927 4.73698 21.6732 5.5034 21.231L5.998 20.9453C6.93247 21.7436 8.00637 22.3623 9.16564 22.7704V23.3405C9.16564 24.2249 9.51694 25.073 10.1423 25.6983C10.7676 26.3236 11.6157 26.6749 12.5 26.6749C13.3843 26.6749 14.2324 26.3236 14.8577 25.6983C15.4831 25.073 15.8344 24.2249 15.8344 23.3405V22.7704C16.9932 22.3607 18.0663 21.7405 18.9998 20.9409L19.4966 21.2277C20.263 21.6698 21.1737 21.7894 22.0283 21.5601C22.8829 21.3309 23.6114 20.7715 24.0536 20.0051C24.4957 19.2386 24.6153 18.328 24.386 17.4734C24.1568 16.6188 23.5974 15.8903 22.831 15.4481L22.8298 15.4492ZM19.9979 11.2524C20.3743 12.6162 20.3743 14.0565 19.9979 15.4203C19.9321 15.6577 19.9471 15.9102 20.0405 16.1381C20.1338 16.366 20.3002 16.5565 20.5136 16.6796L21.7184 17.3754C21.9738 17.5227 22.1602 17.7656 22.2366 18.0504C22.313 18.3352 22.2731 18.6387 22.1257 18.8942C21.9784 19.1496 21.7355 19.336 21.4507 19.4124C21.1659 19.4888 20.8624 19.4489 20.6069 19.3015L19.3999 18.6035C19.1864 18.4798 18.9378 18.4307 18.6933 18.464C18.4488 18.4972 18.2223 18.6108 18.0495 18.7869C17.0602 19.7968 15.8139 20.5174 14.445 20.8709C14.2061 20.9323 13.9944 21.0715 13.8433 21.2665C13.6922 21.4615 13.6102 21.7012 13.6103 21.9479V23.3405C13.6103 23.6353 13.4932 23.918 13.2848 24.1264C13.0764 24.3349 12.7937 24.452 12.4989 24.452C12.2041 24.452 11.9214 24.3349 11.713 24.1264C11.5045 23.918 11.3874 23.6353 11.3874 23.3405V21.949C11.3876 21.7023 11.3056 21.4626 11.1545 21.2676C11.0034 21.0726 10.7917 20.9334 10.5527 20.872C9.18381 20.5171 7.93785 19.7949 6.9494 18.7836C6.7766 18.6074 6.5501 18.4938 6.3056 18.4606C6.0611 18.4274 5.8125 18.4765 5.59899 18.6002L4.39417 19.2971C4.26772 19.3712 4.12785 19.4196 3.98263 19.4394C3.8374 19.4593 3.68968 19.4502 3.54797 19.4128C3.40626 19.3753 3.27336 19.3102 3.15692 19.2211C3.04049 19.1321 2.94281 19.0209 2.86952 18.894C2.79623 18.767 2.74877 18.6268 2.72988 18.4815C2.71098 18.3361 2.72103 18.1885 2.75943 18.047C2.79784 17.9056 2.86384 17.7731 2.95365 17.6572C3.04346 17.5414 3.15529 17.4445 3.28272 17.372L4.48753 16.6763C4.70087 16.5532 4.86729 16.3627 4.96063 16.1348C5.05398 15.9068 5.06897 15.6543 5.00325 15.417C4.62686 14.0531 4.62686 12.6128 5.00325 11.249C5.06778 11.0122 5.05208 10.7606 4.95858 10.5336C4.86509 10.3066 4.69906 10.1169 4.48642 9.99419L3.28161 9.29842C3.02618 9.15103 2.83977 8.90822 2.76338 8.62339C2.68699 8.33855 2.72687 8.03504 2.87426 7.77962C3.02165 7.5242 3.26446 7.33778 3.54929 7.26139C3.83412 7.185 4.13764 7.22488 4.39306 7.37227L5.6001 8.07026C5.81303 8.19421 6.06111 8.24389 6.30534 8.2115C6.54958 8.1791 6.77614 8.06648 6.9494 7.89132C7.93869 6.88139 9.18501 6.16081 10.5538 5.80735C10.7935 5.74573 11.0058 5.6059 11.157 5.41C11.3082 5.21411 11.3897 4.97336 11.3885 4.7259V3.33436C11.3885 3.03959 11.5056 2.75688 11.7141 2.54844C11.9225 2.34001 12.2052 2.22291 12.5 2.22291C12.7948 2.22291 13.0775 2.34001 13.2859 2.54844C13.4944 2.75688 13.6115 3.03959 13.6115 3.33436V4.7259C13.6113 4.9726 13.6933 5.21232 13.8444 5.40731C13.9955 5.6023 14.2072 5.74147 14.4462 5.8029C15.8155 6.15762 17.0618 6.87977 18.0506 7.89132C18.2234 8.06745 18.4499 8.18107 18.6944 8.21427C18.9389 8.24748 19.1875 8.19838 19.401 8.07471L20.6058 7.37783C20.7323 7.3037 20.8721 7.25531 21.0174 7.23545C21.1626 7.2156 21.3103 7.22466 21.452 7.26213C21.5937 7.29959 21.7266 7.36472 21.8431 7.45376C21.9595 7.54279 22.0572 7.65398 22.1305 7.78092C22.2038 7.90786 22.2512 8.04805 22.2701 8.1934C22.289 8.33876 22.279 8.48641 22.2406 8.62787C22.2022 8.76933 22.1362 8.90179 22.0463 9.01764C21.9565 9.13348 21.8447 9.23042 21.7173 9.30287L20.5125 9.99864C20.3002 10.1217 20.1347 10.3115 20.0416 10.5385C19.9485 10.7654 19.9331 11.0157 19.9979 11.2524Z" fill="#30313D"/>
</svg>
