<svg width="18" height="14" viewBox="0 0 18 14" fill="none" xmlns="http://www.w3.org/2000/svg">
<path d="M9.17631 12.1485C8.48571 12.1485 7.81038 12.1485 7.13464 12.1485C6.0909 12.1477 5.04677 12.1529 4.00303 12.1441C1.77937 12.1244 -0.0096031 10.3028 3.8792e-05 8.07671C0.00727021 6.40715 1.09439 4.84793 2.63388 4.31628C2.79378 4.74401 2.95407 5.17173 3.10433 5.57297C2.80181 5.78442 2.49488 5.95455 2.24098 6.18366C1.08716 7.22367 1.14742 9.12956 2.34704 10.1174C2.86368 10.5431 3.45425 10.7466 4.12235 10.7454C5.7217 10.7421 7.32105 10.7442 8.9204 10.7442H9.17671V12.1485H9.17631Z" fill="#E2E5EE"/>
<path d="M15.4371 5.90686C15.6958 5.52247 15.9521 5.1421 16.2161 4.75049C16.6849 5.05262 17.0477 5.44142 17.3429 5.89081C18.2762 7.3108 18.2139 9.20666 17.1682 10.5496C16.3856 11.5543 15.3431 12.0924 14.0623 12.1441C13.716 12.1582 13.3689 12.1461 13.0021 12.1461V13.0646C12.0508 12.5145 11.1356 11.9852 10.2031 11.4464C11.132 10.9123 12.0455 10.3871 12.986 9.84624V10.7121C14.2744 10.8405 15.4744 10.7113 16.2502 9.38762C16.8777 8.31711 16.6086 6.86623 15.6468 6.0814C15.5797 6.02683 15.5134 5.97066 15.4371 5.90686Z" fill="#E2E5EE"/>
<path d="M15.153 5.33345C15.153 5.74793 15.1691 6.16282 15.1494 6.5765C15.1129 7.34166 14.7384 7.90821 14.0567 8.24927C13.3954 8.58029 12.7325 8.53896 12.1106 8.13973C11.5377 7.77179 11.2272 7.23092 11.2123 6.55001C11.1942 5.7351 11.1959 4.91897 11.2111 4.10405C11.2304 3.07407 12.103 2.2411 13.1548 2.22424C14.2013 2.20779 15.0996 3.02311 15.1474 4.05069C15.1671 4.47761 15.1506 4.90613 15.1506 5.33345C15.1514 5.33345 15.1518 5.33345 15.1526 5.33345H15.153ZM14.1093 5.3154C14.1093 4.95508 14.1109 4.59437 14.1093 4.23406C14.1061 3.68877 13.7188 3.2787 13.1978 3.26586C12.6912 3.25342 12.2729 3.64624 12.2617 4.18591C12.246 4.94666 12.2468 5.70781 12.2613 6.46856C12.2713 7.00903 12.6775 7.38901 13.1982 7.38339C13.7068 7.37817 14.1025 6.97051 14.1089 6.43686C14.1137 6.06331 14.1097 5.68935 14.1097 5.3154H14.1093Z" fill="#E2E5EE"/>
<path d="M9.27882 2.3053C9.30493 2.33459 9.32261 2.35264 9.33828 2.37271C9.52911 2.62067 9.71954 2.86904 9.92242 3.13306C9.40537 3.51985 8.91122 3.92149 8.5838 4.52135C8.74972 4.52135 8.89314 4.51412 9.03576 4.52255C9.98549 4.57752 10.7355 5.26043 10.8814 6.19933C11.0196 7.08848 10.5013 7.98565 9.65325 8.3247C8.80556 8.66335 7.80723 8.36402 7.28737 7.60568C7.01297 7.20564 6.90611 6.75585 6.95151 6.27437C7.09975 4.70391 7.76544 3.41874 9.05505 2.47823C9.12937 2.42406 9.20048 2.36629 9.27922 2.3053H9.27882ZM8.92448 5.56818C8.40221 5.5722 7.99364 5.97945 7.99564 6.49425C7.99765 7.00783 8.41145 7.41349 8.93332 7.41389C9.42626 7.41429 9.84207 6.98817 9.84006 6.48462C9.83845 5.97905 9.42425 5.56457 8.92408 5.56858L8.92448 5.56818Z" fill="#E2E5EE"/>
<path d="M4.94572 5.88117V4.8556C5.30648 4.79702 5.57766 4.63251 5.66564 4.25695C5.75483 3.87617 5.54552 3.49499 5.18636 3.37663C4.79707 3.24823 4.39412 3.42237 4.24105 3.79592C4.17075 3.96766 4.12093 4.14821 4.05143 4.35525C3.71999 4.25294 3.39337 4.15223 3.06836 4.05192C3.25678 3.0765 3.79271 2.46541 4.57651 2.31936C5.32858 2.17893 6.05936 2.48588 6.45347 3.1074C6.90624 3.8208 6.83754 4.5334 6.22568 5.37842C6.58203 5.77163 6.77848 6.23306 6.73991 6.77593C6.71219 7.16674 6.57439 7.51622 6.31928 7.81555C5.79139 8.43506 4.95415 8.63729 4.21092 8.30667C3.40944 7.95037 3.09086 7.24057 3.10211 6.3779C3.42832 6.33337 3.75695 6.28803 4.10687 6.24028C4.13138 6.39997 4.15709 6.54201 4.17517 6.68525C4.2286 7.10656 4.53553 7.40388 4.92442 7.40709C5.31412 7.4103 5.64234 7.11859 5.69055 6.72658C5.73595 6.35584 5.47923 6.01679 5.07146 5.90966C5.0329 5.89963 4.99352 5.892 4.94572 5.88117Z" fill="#E2E5EE"/>
<path d="M14.4453 1.41654C14.4437 0.649769 15.1086 -0.0118755 15.8683 0.000161716C16.6352 0.0121989 17.2708 0.650973 17.2744 1.41293C17.278 2.17609 16.6107 2.84094 15.8522 2.83011C15.0853 2.81927 14.4469 2.17769 14.4453 1.41654ZM16.219 1.41413C16.2182 1.22515 16.0463 1.05984 15.8526 1.06224C15.6666 1.06465 15.5075 1.22194 15.5035 1.40731C15.4991 1.60392 15.6586 1.76722 15.8558 1.76803C16.0523 1.76883 16.2194 1.60552 16.2186 1.41413H16.219Z" fill="#E2E5EE"/>
</svg>
