<svg width="18" height="17" viewBox="0 0 18 17" fill="none" xmlns="http://www.w3.org/2000/svg">
<g clip-path="url(#clip0_13557_64215)">
<path d="M6.84988 10.2804H4.10938V13.0216H6.84988V10.2804Z" fill="#E2E5EE"/>
<path d="M5.59571 6.89318L6.06116 7.25789V5.59442C5.67368 5.43845 5.23813 5.44431 4.85475 5.61318C4.73809 5.66478 4.62554 5.73104 4.5212 5.81313L4.05634 6.17725L1.72266 8.00373C2.03159 8.39482 2.50289 8.64461 3.03048 8.64461H3.12779L5.36592 6.89318C5.43333 6.83982 5.52771 6.84041 5.5963 6.89318H5.59571Z" fill="#E2E5EE"/>
<path d="M1.72344 6.35192C1.48837 6.05464 1.3471 5.67586 1.3471 5.26425V1.3832H6.06194V4.7764C6.1956 4.83035 6.32339 4.90305 6.44122 4.99511L6.5016 5.04261L7.40904 5.75326V1.3832C7.40904 0.620358 6.80466 0 6.06194 0H1.3471C0.604377 0 0 0.620358 0 1.3832V5.26425C0 5.99366 0.246792 6.66503 0.657722 7.19627C0.699928 7.15757 0.742721 7.11945 0.788445 7.08369L1.72344 6.35192Z" fill="#E2E5EE"/>
<path d="M10.1742 8.73602L7.62476 6.74009L7.40904 6.57122L6.5016 5.86056L6.44122 5.81307C6.32339 5.72101 6.1956 5.64772 6.06194 5.59436V7.25783L7.40904 8.31268L9.32945 9.81608C9.49651 9.94625 9.59265 10.1438 9.59265 10.3555V15.0774H1.37055V10.3549C1.37055 10.1427 1.46668 9.94566 1.63375 9.8149L1.74103 9.73106L3.12857 8.64514H3.03126C2.50427 8.64514 2.03296 8.39476 1.72344 8.00426L0.788445 8.73602C0.742721 8.77179 0.699342 8.8099 0.657722 8.8486C0.238585 9.23735 0 9.77738 0 10.3555V16.4489H10.9626V10.3555C10.9626 9.71874 10.6748 9.12887 10.1742 8.73661V8.73602Z" fill="#E2E5EE"/>
<path d="M11.2947 5.44543H9.62873V3.06309C9.62873 2.12434 10.3726 1.3615 11.2859 1.3615H15.1179V3.61309C15.5981 3.64944 16.0483 3.79779 16.4439 4.03291V1.3615C16.4439 0.610976 15.8495 0 15.1179 0H11.2859C9.64104 0 8.30273 1.3744 8.30273 3.06309V5.44543C8.30273 6.19596 8.89715 6.80693 9.62873 6.80693H11.2777V5.66648C11.2777 5.59143 11.2836 5.51755 11.2947 5.44601V5.44543Z" fill="#E2E5EE"/>
<path d="M16.4435 4.67616C16.0478 4.44044 15.5976 4.2921 15.1175 4.25633C15.0419 4.25047 14.9657 4.24695 14.8883 4.24695H13.1602C12.4708 4.24695 11.8981 4.76763 11.7943 5.44603C11.7832 5.51815 11.7773 5.59145 11.7773 5.6665V14.8945C11.7773 15.6772 12.3975 16.314 13.1602 16.314H14.8883C16.6036 16.314 17.9993 14.881 17.9993 13.1196V7.44079C17.9993 6.26106 17.3727 5.22908 16.4435 4.67616ZM16.6171 13.1196C16.6171 14.0988 15.8415 14.8939 14.8889 14.8939H13.1608V5.6665H14.8889C15.4013 5.6665 15.862 5.89694 16.1792 6.26165C16.4517 6.57534 16.6176 6.98872 16.6176 7.44079V13.1196H16.6171Z" fill="#E2E5EE"/>
</g>
<defs>
<clipPath id="clip0_13557_64215">
<rect width="18" height="16.4483" fill="white"/>
</clipPath>
</defs>
</svg>
