<svg width="15" height="20" viewBox="0 0 15 20" fill="none" xmlns="http://www.w3.org/2000/svg">
<path d="M10.1873 13.6579C10.1873 13.8764 10.1958 14.0949 10.1849 14.3122C10.1655 14.7152 9.9688 15.0138 9.60949 15.1935C9.26111 15.3683 8.91151 15.3464 8.58377 15.1352C8.28151 14.941 8.11885 14.6569 8.11035 14.2976C8.10064 13.8679 8.10185 13.4382 8.11035 13.0097C8.12006 12.4671 8.58012 12.0289 9.13365 12.0192C9.68476 12.0107 10.1582 12.4404 10.1837 12.9818C10.1946 13.2063 10.1849 13.4321 10.1849 13.6579H10.1861H10.1873ZM9.63741 13.6494C9.63741 13.46 9.63741 13.2695 9.63741 13.0801C9.6362 12.7924 9.43227 12.5763 9.15672 12.5703C8.88966 12.5642 8.66995 12.7706 8.66388 13.0546C8.65538 13.4552 8.6566 13.8558 8.66388 14.2576C8.66874 14.5428 8.88359 14.7419 9.15793 14.7395C9.4262 14.737 9.63377 14.5222 9.63741 14.2406C9.63984 14.0439 9.63741 13.8473 9.63741 13.6494Z" fill="#E2E5EE"/>
<path d="M7.09359 12.0629C7.10694 12.0786 7.11665 12.0884 7.12515 12.0981C7.2259 12.2292 7.32544 12.359 7.43226 12.4986C7.16035 12.7026 6.89937 12.9138 6.727 13.2294C6.8144 13.2294 6.88966 13.2258 6.96492 13.2294C7.46504 13.2585 7.86076 13.6178 7.93724 14.1131C8.01007 14.5817 7.73695 15.0539 7.29024 15.2323C6.84353 15.4107 6.31792 15.2529 6.04358 14.8536C5.89913 14.6424 5.84329 14.4057 5.86635 14.1519C5.94404 13.3253 6.29485 12.648 6.97463 12.1527C7.01347 12.1236 7.0511 12.0932 7.09237 12.0616L7.09359 12.0629ZM6.90786 13.7817C6.63231 13.7841 6.41746 13.9978 6.41867 14.2697C6.41867 14.5404 6.63717 14.754 6.91272 14.754C7.17249 14.754 7.39099 14.5295 7.38978 14.2648C7.38978 13.999 7.17128 13.7805 6.90786 13.7817Z" fill="#E2E5EE"/>
<path d="M4.81158 13.9469V13.4067C5.00216 13.3764 5.14418 13.289 5.19031 13.0911C5.23765 12.8908 5.12719 12.6893 4.93782 12.6274C4.73268 12.5594 4.52025 12.6517 4.44013 12.8483C4.4025 12.9394 4.37701 13.0341 4.34059 13.1433C4.16579 13.0899 3.99342 13.0365 3.82227 12.9831C3.9218 12.4696 4.20342 12.1479 4.61614 12.0702C5.01187 11.9962 5.39667 12.1576 5.60424 12.4854C5.84216 12.8617 5.80696 13.2368 5.48407 13.6811C5.67222 13.8886 5.7754 14.1314 5.75476 14.4167C5.7402 14.623 5.66737 14.8063 5.53262 14.9641C5.25465 15.2907 4.81401 15.3975 4.42192 15.2227C3.99949 15.0345 3.83198 14.6607 3.83805 14.2067C4.01042 14.1836 4.18279 14.1593 4.3673 14.1338C4.38065 14.2176 4.394 14.2928 4.40371 14.3681C4.43163 14.5902 4.59308 14.7468 4.79823 14.7481C5.00337 14.7493 5.17696 14.5963 5.20123 14.39C5.22551 14.1945 5.08956 14.0161 4.8747 13.9602C4.85406 13.9554 4.83343 13.9505 4.80794 13.9457L4.81158 13.9469Z" fill="#E2E5EE"/>
<path d="M11.9805 7.90173C11.9793 7.08357 12.6882 6.37709 13.499 6.39045C14.3172 6.4038 14.9958 7.08479 14.9994 7.89809C15.003 8.7126 14.2917 9.42151 13.482 9.41058C12.6639 9.39844 11.9829 8.71381 11.9805 7.90173ZM13.8729 7.8993C13.8729 7.6978 13.6884 7.52178 13.482 7.52421C13.283 7.52664 13.1142 7.69415 13.1094 7.89202C13.1045 8.10202 13.2745 8.2756 13.4857 8.27682C13.6957 8.27682 13.8741 8.10323 13.8729 7.8993Z" fill="#E2E5EE"/>
<path d="M4.69335 18.681C4.28792 18.681 4.76133 18.6835 4.69335 18.681V18.681Z" fill="#E2E5EE"/>
<path d="M13.36 11.6865C13.0796 11.2593 12.8114 10.883 12.4533 10.5528C12.3731 10.4787 12.293 10.4035 12.2166 10.3246C11.5416 9.63145 10.7259 9.09006 9.82764 8.70647C10.8 7.90531 11.4203 6.6975 11.4203 5.34038C11.419 2.92718 9.43191 0.960693 6.98473 0.960693C4.53754 0.960693 2.55042 2.92718 2.55042 5.34159C2.55042 6.68778 3.17071 7.8956 4.14303 8.70768C3.56037 8.95896 3.01534 9.28428 2.52007 9.67272C1.51619 10.4593 0.684684 11.4802 0.225837 12.7074C0.0498242 13.3908 0.0024828 13.8205 5.50384e-05 14.3364C-0.00358661 15.0611 0.17364 15.7446 0.485608 16.3466C1.19816 17.7183 2.62204 18.6627 4.2717 18.6773C4.55454 18.6797 4.66621 18.6809 4.69292 18.6821C4.75726 18.6821 4.84101 18.6821 4.95391 18.6821V17.1854C4.24136 17.1866 3.05661 16.9694 2.50551 16.5154C1.59388 15.7652 1.30012 14.5185 1.64972 13.4612C1.69828 13.3338 1.75047 13.2075 1.80631 13.0849C2.13042 12.3785 2.58926 11.7485 3.15008 11.2313C4.16488 10.2942 5.51108 9.7237 6.98594 9.7237C8.7485 9.7237 10.3278 10.5394 11.3778 11.8213C11.7007 12.2158 11.9726 12.6552 12.185 13.1274C12.2056 13.1699 12.2238 13.2136 12.242 13.2561C12.2493 13.2743 12.2566 13.2913 12.2639 13.3095C12.2785 13.3459 12.293 13.3823 12.3064 13.4188C12.571 14.1701 12.5237 15.0296 12.1097 15.7348C11.2819 17.1478 10.0012 17.285 8.62711 17.1478V16.224C7.62323 16.8006 6.64848 17.3614 5.65796 17.932C6.65334 18.5073 7.6293 19.0718 8.6441 19.6593V18.6797C9.03497 18.6797 9.40642 18.6931 9.77544 18.6773C11.1423 18.6214 12.2542 18.0485 13.0893 16.9754C13.2447 16.7763 13.377 16.5651 13.4911 16.3466C14.2013 14.9895 14.2182 12.9927 13.36 11.6865ZM6.98473 8.12016C5.42489 8.12016 4.15274 6.86987 4.15274 5.34159C4.15274 3.81331 5.42489 2.56302 6.98473 2.56302C8.54457 2.56302 9.81671 3.81331 9.81671 5.34159C9.81671 6.86987 8.54457 8.12016 6.98473 8.12016Z" fill="#E2E5EE"/>
</svg>
