<svg width="14" height="19" viewBox="0 0 14 19" fill="none" xmlns="http://www.w3.org/2000/svg">
<path d="M6.74972 9.6588C9.23137 9.6588 11.2495 7.64064 11.2495 5.15899C11.2495 2.67735 9.23137 0.65918 6.74972 0.65918C4.26807 0.65918 2.24991 2.67735 2.24991 5.15899C2.24991 7.64064 4.26807 9.6588 6.74972 9.6588ZM6.74972 2.15912C8.40415 2.15912 9.74959 3.50456 9.74959 5.15899C9.74959 6.81342 8.40415 8.15887 6.74972 8.15887C5.09529 8.15887 3.74984 6.81342 3.74984 5.15899C3.74984 3.50456 5.09529 2.15912 6.74972 2.15912ZM13.4994 17.9085C13.4994 18.3224 13.1642 18.6584 12.7495 18.6584C12.3347 18.6584 11.9995 18.3224 11.9995 17.9085C11.9995 15.6443 10.5558 13.7161 8.54289 12.9812L7.40519 14.6881L8.22491 17.6805C8.36215 18.1799 7.92117 18.6592 7.32419 18.6592H6.17524C5.57827 18.6592 5.13804 18.1799 5.27453 17.6805L6.09425 14.6881L4.95654 12.9812C2.94363 13.7161 1.49994 15.6443 1.49994 17.9092C1.49994 18.3232 1.16395 18.6592 0.749969 18.6592C0.335986 18.6592 0 18.3232 0 17.9092C0 14.1879 3.02837 11.1595 6.74972 11.1595C10.4711 11.1595 13.4994 14.1871 13.4994 17.9085Z" fill="#E2E5EE"/>
</svg>
