<svg width="14" height="16" viewBox="0 0 14 16" fill="none" xmlns="http://www.w3.org/2000/svg">
<path d="M11.9001 15.9606H2.09994C1.5472 15.9606 1.0052 15.7362 0.614821 15.3446C0.21847 14.9482 0 14.4217 0 13.8606V4.05984C0 3.90822 0.0489469 3.76137 0.139678 3.63959L2.23962 0.838699C2.37213 0.663195 2.57986 0.559326 2.79952 0.559326H11.2005C11.4201 0.559326 11.6279 0.663195 11.7604 0.838699L13.8603 3.63959C13.9511 3.76137 14 3.90822 14 4.05984V13.8606C14 14.4217 13.7815 14.9494 13.3852 15.3458C12.9888 15.7433 12.4612 15.9606 11.9001 15.9606ZM1.40036 4.29265V13.8606C1.40036 14.048 1.47318 14.2235 1.6057 14.356C1.73821 14.4886 1.91609 14.5614 2.10113 14.5614H11.9013C12.0887 14.5614 12.2642 14.4886 12.3967 14.356C12.5292 14.2235 12.6008 14.048 12.6008 13.8606V4.29265L10.8507 1.95858H3.15051L1.40036 4.29265Z" fill="#E2E5EE"/>
<path d="M13.3004 4.75948H0.699582C0.312782 4.75948 0 4.44548 0 4.05986C0 3.67423 0.313976 3.36023 0.699582 3.36023H13.3004C13.6872 3.36023 14 3.67423 14 4.05986C14 4.44548 13.686 4.75948 13.3004 4.75948Z" fill="#E2E5EE"/>
<path d="M9.80058 10.3601C9.41378 10.3601 9.101 10.0461 9.101 9.66043C9.101 9.10765 8.87656 8.56681 8.48618 8.17522C8.08983 7.77765 7.56216 7.56036 7.00106 7.56036C6.43996 7.56036 5.91229 7.77884 5.51594 8.17522C5.11959 8.57159 4.90112 9.09929 4.90112 9.66043C4.90112 10.0473 4.58714 10.3601 4.20154 10.3601C3.81593 10.3601 3.50195 10.0461 3.50195 9.66043C3.50195 8.7256 3.86607 7.84689 4.52745 7.18547C5.18883 6.52405 6.06749 6.15991 7.00225 6.15991C7.93702 6.15991 8.81687 6.52405 9.47705 7.18547C10.1372 7.84689 10.5026 8.7256 10.5026 9.66043C10.5026 10.0473 10.1886 10.3601 9.80297 10.3601H9.80058Z" fill="#E2E5EE"/>
</svg>
