<svg width="14" height="14" viewBox="0 0 14 14" fill="none" xmlns="http://www.w3.org/2000/svg">
<path d="M7.78108 4.50567L8.59367 3.66742L9.5445 4.58908L11.4275 2.73758L12.2453 3.56942L10.2293 5.55217C10.0497 5.73242 9.80525 5.83333 9.54508 5.83333C9.28492 5.83333 9.04108 5.73183 8.85733 5.54808L7.78108 4.50567ZM5.83333 4.08333C5.83333 1.83167 7.66558 0 9.91667 0C12.1677 0 14 1.83167 14 4.08333C14 6.335 12.1677 8.16667 9.91667 8.16667C7.66558 8.16667 5.83333 6.335 5.83333 4.08333ZM7 4.08333C7 5.69158 8.30842 7 9.91667 7C11.5249 7 12.8333 5.69158 12.8333 4.08333C12.8333 2.47508 11.5249 1.16667 9.91667 1.16667C8.30842 1.16667 7 2.47508 7 4.08333ZM11.6667 9.91667H13.7083V11.9583C13.7083 13.0842 12.7925 14 11.6667 14H4.95833C3.8325 14 2.91667 13.0842 2.91667 11.9583V4.08333H0V2.04167C0 0.915833 0.915833 0 2.04167 0H6.61733C6.20608 0.3325 5.84617 0.72625 5.551 1.16667H3.88617C4.01275 1.43208 4.08333 1.729 4.08333 2.04167V11.9583C4.08333 12.4407 4.47592 12.8333 4.95833 12.8333C5.44075 12.8333 5.83333 12.4407 5.83333 11.9583V9.91667H10.5V9.30067C10.9048 9.25575 11.2951 9.16533 11.6667 9.03408V9.91667ZM2.91667 2.04167C2.91667 1.55925 2.52408 1.16667 2.04167 1.16667C1.55925 1.16667 1.16667 1.55925 1.16667 2.04167V2.91667H2.91667V2.04167ZM7 11.0833V11.9583C7 12.2716 6.92942 12.5679 6.80283 12.8333H11.6667C12.1491 12.8333 12.5417 12.4407 12.5417 11.9583V11.0833H7Z" fill="white"/>
</svg>
