<svg width="14" height="18" viewBox="0 0 14 18" fill="none" xmlns="http://www.w3.org/2000/svg">
<g clip-path="url(#clip0_13557_64199)">
<path d="M13.171 17.5594H0.829034C0.371326 17.5594 0 17.1968 0 16.7499V7.2825C0 6.83563 0.371326 6.47309 0.829034 6.47309C1.28674 6.47309 1.65807 6.83563 1.65807 7.2825V15.9411H12.3425V12.447C12.3425 12.0001 12.7139 11.6376 13.1716 11.6376C13.6293 11.6376 14.0006 12.0001 14.0006 12.447V16.7505C14.0006 17.1974 13.6293 17.5599 13.1716 17.5599L13.171 17.5594ZM7 14.1168C6.54229 14.1168 6.17097 13.7542 6.17097 13.3073V11.5345H4.35513C3.89742 11.5345 3.52609 11.172 3.52609 10.7251C3.52609 10.2782 3.89742 9.9157 4.35513 9.9157H6.17097V8.14285C6.17097 7.69598 6.54229 7.33345 7 7.33345C7.45771 7.33345 7.82903 7.69598 7.82903 8.14285V9.9157H9.64427C10.102 9.9157 10.4733 10.2782 10.4733 10.7251C10.4733 11.172 10.102 11.5345 9.64427 11.5345H7.82903V13.3073C7.82903 13.7542 7.45771 14.1168 7 14.1168ZM13.171 9.8132C12.7133 9.8132 12.3419 9.45067 12.3419 9.0038V7.23096H9.64427C8.31194 7.23096 7.05219 6.00104 7.05219 4.70025V2.06705H1.65807V2.97895C1.65807 3.42582 1.28674 3.78835 0.829034 3.78835C0.371326 3.78835 0 3.42582 0 2.97895V1.25765C0 0.810776 0.371326 0.448242 0.829034 0.448242H8.76305C8.9826 0.448242 9.19376 0.533751 9.34913 0.685441L13.757 4.9884C13.9124 5.14009 14 5.34625 14 5.56061V9.0038C14 9.45067 13.6287 9.8132 13.171 9.8132ZM8.71026 2.35052V4.70025C8.71026 5.11784 9.21656 5.61215 9.64427 5.61215H12.0516L8.70966 2.34993L8.71026 2.35052Z" fill="#E2E5EE"/>
</g>
<defs>
<clipPath id="clip0_13557_64199">
<rect width="14" height="17.1111" fill="white" transform="translate(0 0.448242)"/>
</clipPath>
</defs>
</svg>
