<svg width="512" height="512" viewBox="0 0 512 512" fill="none" xmlns="http://www.w3.org/2000/svg">
<path d="M128 477.752C165.654 499.534 209.371 512 256 512C302.629 512 346.346 499.534 384 477.752L384 34.2483C346.346 12.4665 302.629 -3.55685e-06 256 -5.59506e-06C209.371 -7.63327e-06 165.654 12.4665 128 34.2482L128 477.752Z" fill="#FFDA44"/>
<path d="M-1.00613e-05 255.911C0.0345708 154.729 58.7696 67.2685 144 25.7354L144 486.264C58.7695 444.731 0.0345009 357.271 -4.05867e-05 256.089C-4.05854e-05 256.059 -4.05841e-05 256.03 -4.05828e-05 256C-4.05815e-05 255.97 -1.00626e-05 255.94 -1.00613e-05 255.911Z" fill="#0052B4"/>
<path d="M512 256C512 154.78 453.256 67.2808 368 25.7353L368 486.264C453.256 444.719 512 357.22 512 256Z" fill="#D80027"/>
<path d="M256 345.043C256 304.192 256 256 256 256H322.783V289.391C322.783 295.192 311.653 316.448 284.18 333.913C273.775 340.529 263.004 342.657 256 345.043Z" fill="#D80027"/>
<path d="M189.217 189.218H256V256.001H189.217V189.218Z" fill="#D80027"/>
<path d="M289.391 166.957C289.391 154.662 279.424 144.696 267.13 144.696C263.07 144.696 259.276 145.8 256 147.698C252.723 145.8 248.93 144.696 244.87 144.696C232.576 144.696 222.609 154.662 222.609 166.957H166.957V278.26C166.957 319.696 199.863 343.659 225.668 356.081C223.737 359.379 222.609 363.206 222.609 367.305C222.609 379.6 232.576 389.566 244.87 389.566C248.93 389.566 252.724 388.462 256 386.564C259.277 388.462 263.07 389.566 267.13 389.566C279.424 389.566 289.391 379.6 289.391 367.305C289.391 363.206 288.263 359.379 286.331 356.081C312.136 343.659 345.043 319.697 345.043 278.26V166.957H289.391ZM311.652 278.26C311.652 284.061 311.652 301.712 284.18 319.178C273.774 325.794 263.004 330.084 256 332.469C248.996 330.084 238.226 325.794 227.82 319.178C200.348 301.712 200.348 284.061 200.348 278.26V200.348H311.652V278.26Z" fill="#FF9811"/>
</svg>
