<svg width="512" height="512" viewBox="0 0 512 512" fill="none" xmlns="http://www.w3.org/2000/svg">
<path d="M128 477.752C165.654 499.534 209.371 512 256 512C302.629 512 346.346 499.534 384 477.752L384 34.2483C346.346 12.4665 302.629 -3.55685e-06 256 -5.59506e-06C209.371 -7.63327e-06 165.654 12.4665 128 34.2482L128 477.752Z" fill="#D80027"/>
<path d="M-1.00613e-05 255.911C0.0345708 154.729 58.7696 67.2685 144 25.7354L144 486.264C58.7695 444.731 0.0345009 357.271 -4.05867e-05 256.089C-4.05854e-05 256.059 -4.05841e-05 256.03 -4.05828e-05 256C-4.05815e-05 255.97 -1.00626e-05 255.94 -1.00613e-05 255.911Z" fill="#333333"/>
<path d="M512 256C512 154.78 453.256 67.2808 368 25.7353L368 486.264C453.256 444.719 512 357.22 512 256Z" fill="#496E2D"/>
<path d="M256 166.957C206.822 166.957 166.957 206.823 166.957 256C166.957 305.177 206.823 345.043 256 345.043C305.177 345.043 345.043 305.177 345.043 256C345.043 206.823 305.178 166.957 256 166.957ZM256 311.652C225.264 311.652 200.348 286.735 200.348 256C200.348 225.265 225.265 200.348 256 200.348C286.735 200.348 311.652 225.265 311.652 256C311.652 286.735 286.736 311.652 256 311.652Z" fill="#FFDA44"/>
<path d="M256 222.609C243.705 222.609 233.739 232.575 233.739 244.87V278.261H278.261V244.87C278.261 232.575 268.295 222.609 256 222.609Z" fill="#FFDA44"/>
</svg>
