<svg width="512" height="512" viewBox="0 0 512 512" fill="none" xmlns="http://www.w3.org/2000/svg">
<circle cx="256" cy="256" r="256" fill="#A2001D"/>
<path d="M358.4 307.2H153.6L256 512L358.4 307.2Z" fill="#F3F3F3"/>
<path d="M153.6 307.2L102.4 204.8H409.6L358.4 307.2H153.6Z" fill="#0052B4"/>
<path d="M51.1924 102.385C97.898 40.2139 172.253 0 256 0C339.747 0 414.102 40.2138 460.807 102.385L409.6 204.8H102.4L51.1924 102.385Z" fill="#333333"/>
<path d="M367.304 204.8H144.696L190.176 183.406L165.957 139.361L215.342 148.806L221.602 98.917L256 135.611L290.4 98.917L296.656 148.806L346.043 139.361L321.826 183.408L367.304 204.8Z" fill="#FFDA44"/>
</svg>
