<svg width="512" height="512" viewBox="0 0 512 512" fill="none" xmlns="http://www.w3.org/2000/svg">
<g clip-path="url(#clip0_623_81709)">
<path d="M170 497.196C196.879 506.781 225.83 512 256 512C397.385 512 512 397.385 512 256C512 114.615 397.385 0 256 0C225.83 0 196.879 5.21905 170 14.8036L110 256L170 497.196Z" fill="#FFC635"/>
<path d="M170 497.197V14.8037C70.9186 50.1346 0 144.785 0 256C0 367.215 70.9186 461.866 170 497.197Z" fill="#0052B4"/>
<path d="M136 189L143 203.7L158.9 200L151.7 214.7L164.4 224.7L148.5 228.4V244.7L135.9 234.5L123.2 244.7V228.4L107.3 224.8L120.1 214.7L113 200L128.9 203.7L136 189ZM90.9998 146L97.9998 160.7L113.9 157L106.7 171.7L119.4 181.7L103.5 185.4V201.7L90.8998 191.5L78.1998 201.7V185.4L62.2998 181.8L75.0998 171.7L67.9998 157L83.8998 160.7L90.9998 146ZM110 238L115.6 255H133.4L118.9 265.5L124.4 282.5L109.9 272L95.4998 282.5L101 265.5L86.4998 255H104.5L110 238ZM39.9998 204L46.9998 218.7L62.8998 215L55.6998 229.7L68.3998 239.7L52.4998 243.4V259.7L39.8998 249.5L27.1998 259.7V243.4L11.2998 239.8L24.0998 229.7L16.9998 215L32.8998 218.7L39.9998 204ZM90.9998 303L84.9998 320L67.9998 312L75.9998 329L58.9998 335L75.9998 341L67.9998 358L84.9998 350L90.9998 367L96.9998 350L114 358L106 341L123 335L106 329L114 312L96.9998 320L90.9998 303Z" fill="#EEEEEE"/>
<path d="M276 222C271.491 222 267.167 223.791 263.979 226.979C260.791 230.167 259 234.491 259 239H208C208 243.509 209.791 247.833 212.979 251.021C216.167 254.209 220.491 256 225 256C225 260.509 226.791 264.833 229.979 268.021C233.167 271.209 237.491 273 242 273C242 277.509 243.791 281.833 246.979 285.021C250.167 288.209 254.491 290 259 290H330V222H276Z" fill="#0052B4"/>
<path d="M384 222C388.509 222 392.833 223.791 396.021 226.979C399.209 230.167 401 234.491 401 239H452C452 243.509 450.209 247.833 447.021 251.021C443.833 254.209 439.509 256 435 256C435 260.509 433.209 264.833 430.021 268.021C426.833 271.209 422.509 273 418 273C418 277.509 416.209 281.833 413.021 285.021C409.833 288.209 405.509 290 401 290H330V222H384Z" fill="#EEEEEE"/>
<path d="M285.5 222V290C285.5 324 330 334 330 334C330 334 374.5 324 374.5 290V222H285.5Z" fill="#0052B4"/>
<path d="M294.4 226L291.9 233.5L318.7 243.5L291.9 253.5L294.4 261L330 247.7L365.7 261L368.2 253.5L341.3 243.5L368.2 233.5L365.7 226L330 239.3L294.4 226ZM319.4 257.2V276H313.2V266.8H298.2V306H361.9V267.2H346.9V276H339.4V257.2H319.4Z" fill="#EEEEEE"/>
<path d="M330 328.2C334.971 328.2 339 324.171 339 319.2C339 314.23 334.971 310.2 330 310.2C325.029 310.2 321 314.23 321 319.2C321 324.171 325.029 328.2 330 328.2Z" fill="#EEEEEE"/>
</g>
<defs>
<clipPath id="clip0_623_81709">
<rect width="512" height="512" fill="white"/>
</clipPath>
</defs>
</svg>
