<svg width="512" height="512" viewBox="0 0 512 512" fill="none" xmlns="http://www.w3.org/2000/svg">
<g clip-path="url(#clip0_623_81715)">
<path d="M170 497.196C196.879 506.781 225.83 512 256 512C397.385 512 512 397.385 512 256C512 114.615 397.385 0 256 0C225.83 0 196.879 5.21905 170 14.8036L110 256L170 497.196Z" fill="#FF9811"/>
<path d="M170 497.197V14.8037C70.9186 50.1346 0 144.785 0 256C0 367.215 70.9186 461.866 170 497.197Z" fill="#333333"/>
<path d="M341 282C347 279 354 279 359 282C354 279 353 271 354 265C356 259 361 252 367 251C361 252 354 248 350 244C346 239 344 231 346 225C344 231 336 234 330 234C324 234 317 231 314 225C316 231 314 239 310 244C307 248 300 252 294 251C300 252 304 259 306 265C307 271 306 279 301 282C306 279 314 279 319 282C325 284 330 290 330 297C330 290 335 284 341 282Z" fill="#333333"/>
<path d="M358 237C372 255 433 237 403 200C374 163 343 218 358 237Z" fill="#EEEEEE"/>
<path d="M330 224C353 224 377 165 330 165C283 165 307 224 330 224Z" fill="#EEEEEE"/>
<path d="M303 237C317 218 286 163 257 200C227 237 288 255 302 237H303ZM345 290C324 301 328 363 371 343C413 323 366 280 345 290Z" fill="#EEEEEE"/>
<path d="M315 290C294 280 247 323 289 343C332 363 336 301 315 290ZM364 267C359 289 411 325 421 280C432 234 369 244 364 267Z" fill="#EEEEEE"/>
<path d="M296 267C290 244 228 234 239 280C249 325 301 289 296 267ZM136 189L143 204L159 200L152 215L164 225L149 228V245L136 234L123 245V228L107 225L120 215L113 200L129 204L136 189ZM91 146L98 161L114 157L107 172L119 182L104 185V202L91 191L78 202V185L62 182L75 172L68 157L84 161L91 146ZM110 238L116 255H133L119 266L124 283L110 272L96 283L101 266L87 255H105L110 238ZM40 204L47 219L63 215L56 230L68 240L52 243V260L40 249L27 260V243L11 240L24 230L17 215L33 219L40 204ZM91 303L85 320L68 312L76 329L59 335L76 341L68 358L85 350L91 367L97 350L114 358L106 341L123 335L106 329L114 312L97 320L91 303Z" fill="#EEEEEE"/>
</g>
<defs>
<clipPath id="clip0_623_81715">
<rect width="512" height="512" fill="white"/>
</clipPath>
</defs>
</svg>
