<svg width="512" height="512" viewBox="0 0 512 512" fill="none" xmlns="http://www.w3.org/2000/svg">
<path d="M512 256C512 397.385 397.385 512 256 512C114.615 512 0 397.385 0 256L256 0C397.385 0 512 114.615 512 256Z" fill="#002266"/>
<path d="M256 0V256H0C0 114.615 114.615 0 256 0Z" fill="#002266"/>
<path d="M217.562 256H256V217.562L140.688 102.25H256V0C114.615 0 0 114.615 0 256H102.25V140.688L217.562 256Z" fill="#EEEEEE"/>
<path d="M256 76.625V25.375H144.743C92.7292 50.5133 50.5133 92.7292 25.375 144.743V256H76.625V76.625H256Z" fill="#D80027"/>
<path d="M256 230.375V256L102.25 102.25H127.875L256 230.375Z" fill="#D80027"/>
<path d="M400.09 185H360.09C347.945 188.445 336.883 194.939 327.956 203.866C319.029 212.793 312.535 223.855 309.09 236V276C312.535 288.145 319.029 299.207 327.956 308.134C336.883 317.061 347.945 323.555 360.09 327H400.09C412.235 323.555 423.297 317.061 432.224 308.134C441.151 299.207 447.645 288.145 451.09 276V236C447.645 223.855 441.151 212.793 432.224 203.866C423.297 194.939 412.235 188.445 400.09 185Z" fill="#EEEEEE"/>
<path d="M380.09 182C373.317 182.08 366.588 183.089 360.09 185V236H309.09C307.179 242.498 306.17 249.227 306.09 256C306.17 262.773 307.179 269.502 309.09 276H360.09V327C366.588 328.911 373.317 329.92 380.09 330C386.862 329.92 393.592 328.911 400.09 327V276H451.09C453 269.502 454.01 262.773 454.09 256C454.01 249.227 453 242.498 451.09 236H400.09V185C393.592 183.089 386.862 182.08 380.09 182Z" fill="#D80027"/>
<path d="M380.09 295L377.09 303L369.09 299L373.09 307L365.09 310L373.09 313L369.09 321L377.09 317L380.09 325L383.09 317L391.09 321L387.09 313L395.09 310L387.09 307L391.09 299L383.09 303L380.09 295ZM434.09 241L431.09 249L423.09 245L427.09 253L419.09 256L427.09 259L423.09 267L431.09 263L434.09 271L437.09 263L445.09 267L441.09 259L449.09 256L441.09 253L445.09 245L437.09 249L434.09 241ZM326.09 241L323.09 249L315.09 245L319.09 253L311.09 256L319.09 259L315.09 267L323.09 263L326.09 271L329.09 263L337.09 267L333.09 259L341.09 256L333.09 253L337.09 245L329.09 249L326.09 241ZM380.09 187L377.09 195L369.09 191L373.09 199L365.09 202L373.09 205L369.09 213L377.09 209L380.09 217L383.09 209L391.09 213L387.09 205L395.09 202L387.09 199L391.09 191L383.09 195L380.09 187ZM370.09 239C368.571 239.205 367.161 239.903 366.077 240.987C364.993 242.071 364.295 243.481 364.09 245V250H361.09V248C361.09 245 358.09 242 355.09 242L354.09 244V256L356.09 257H364.09C363.943 257.867 363.989 258.756 364.224 259.604C364.459 260.452 364.878 261.237 365.45 261.905C366.023 262.573 366.735 263.107 367.537 263.469C368.339 263.831 369.21 264.012 370.09 264V266H367.09C366.34 265.985 365.596 266.139 364.914 266.45C364.231 266.761 363.628 267.222 363.148 267.798C362.667 268.374 362.323 269.051 362.14 269.779C361.957 270.506 361.94 271.265 362.09 272L363.09 273H375.09L377.09 272V264L394.09 263V266H391.09C389.764 266 388.492 266.527 387.554 267.464C386.617 268.402 386.09 269.674 386.09 271L387.09 273H400.09L401.09 271V255C404.09 255 406.09 253 406.09 250C406.09 248 404.09 245 401.09 245H385.09L383.09 244L385.09 242H401.09V239H385.09C383.764 239 382.492 239.527 381.554 240.464C380.617 241.402 380.09 242.674 380.09 244C380.09 246 382.09 249 385.09 249H401.09L403.09 250L401.09 252H383.09C382.21 252.012 381.339 251.831 380.537 251.469C379.735 251.107 379.023 250.573 378.45 249.905C377.878 249.237 377.459 248.452 377.224 247.604C376.989 246.756 376.943 245.867 377.09 245C376.848 243.322 376.005 241.788 374.717 240.685C373.43 239.581 371.785 238.983 370.09 239Z" fill="#FFDA44"/>
</svg>
