<svg width="512" height="512" viewBox="0 0 512 512" fill="none" xmlns="http://www.w3.org/2000/svg">
<path d="M512 256C512 397.385 397.385 512 256 512C114.615 512 0 397.385 0 256L256 0C397.385 0 512 114.615 512 256Z" fill="#002266"/>
<path d="M256 0V256H0C0 114.615 114.615 0 256 0Z" fill="#002266"/>
<path d="M217.562 256H256V217.562L140.688 102.25H256V0C114.615 0 0 114.615 0 256H102.25V140.688L217.562 256Z" fill="#EEEEEE"/>
<path d="M256 76.625V25.375H144.743C92.7292 50.5133 50.5133 92.7292 25.375 144.743V256H76.625V76.625H256Z" fill="#D80027"/>
<path d="M256 230.375V256L102.25 102.25H127.875L256 230.375Z" fill="#D80027"/>
<path d="M384.009 330C424.878 330 458.009 296.869 458.009 256C458.009 215.131 424.878 182 384.009 182C343.14 182 310.009 215.131 310.009 256C310.009 296.869 343.14 330 384.009 330Z" fill="#EEEEEE"/>
<path d="M407.009 322.1L384.009 312L361.009 322.2L384.009 256.1L407.009 322.1ZM407.009 189.9L384.009 200L361.009 189.8L384.009 255.9L407.009 189.9ZM317.909 279L328.109 256L317.909 233L384.009 256L317.909 279ZM450.109 279L440.009 256L450.209 233L384.109 256L450.109 279Z" fill="#338AF3"/>
<path d="M379.008 228V233H374.008V243H379.008V252.4C376.024 249.911 372.2 248.66 368.322 248.903C364.444 249.147 360.806 250.866 358.156 253.708C355.506 256.55 354.045 260.299 354.074 264.184C354.102 268.07 355.617 271.797 358.308 274.6V284H410.008V274.6C412.699 271.797 414.214 268.07 414.242 264.184C414.271 260.299 412.81 256.55 410.16 253.708C407.51 250.866 403.872 249.147 399.994 248.903C396.116 248.66 392.292 249.911 389.308 252.4V243H394.308V233H389.308V228H379.008Z" fill="#FFC635"/>
</svg>
