<svg width="512" height="512" viewBox="0 0 512 512" fill="none" xmlns="http://www.w3.org/2000/svg">
<g clip-path="url(#clip0_623_81725)">
<path d="M36.988 388.624L256 416L475.012 388.624C498.485 349.944 512 304.55 512 256C512 207.45 498.485 162.056 475.012 123.376L256 96L36.988 123.376C13.515 162.056 0 207.45 0 256C0 304.55 13.515 349.944 36.988 388.624Z" fill="#0052B4"/>
<path fill-rule="evenodd" clip-rule="evenodd" d="M449.31 88.1638C460.002 100.468 469.539 113.803 477.752 128H34.248C42.4605 113.803 51.9972 100.468 62.6891 88.1638L256 64L449.31 88.1638ZM256 448L62.6891 423.836C51.9972 411.532 42.4605 398.197 34.248 384H477.752C469.539 398.197 460.002 411.532 449.31 423.836L256 448Z" fill="#333333"/>
<path fill-rule="evenodd" clip-rule="evenodd" d="M256 0C336.844 0 408.936 37.4744 455.852 96H56.1479C103.064 37.4744 175.156 0 256 0ZM256 512C336.844 512 408.936 474.526 455.852 416H56.1479C103.064 474.526 175.156 512 256 512Z" fill="#496E2D"/>
<path d="M245 144C139 176 144 256 178 330L138 368L211 341V243C235 208 277 208 301 243V341L374 368L334 330C368 256 373 176 267 144L256 190L245 144ZM256 227L247 254H219L242 271L233 299L256 282L279 299L270 271L294 254H265L256 227Z" fill="#EEEEEE"/>
</g>
<defs>
<clipPath id="clip0_623_81725">
<rect width="512" height="512" fill="white"/>
</clipPath>
</defs>
</svg>
