<svg width="512" height="512" viewBox="0 0 512 512" fill="none" xmlns="http://www.w3.org/2000/svg">
<path d="M512 256C512 397.385 397.385 512 256 512C114.615 512 0 397.385 0 256L256 0C397.385 0 512 114.615 512 256Z" fill="#002266"/>
<path d="M256 0V256H0C0 114.615 114.615 0 256 0Z" fill="#002266"/>
<path d="M217.562 256H256V217.562L140.688 102.25H256V0C114.615 0 0 114.615 0 256H102.25V140.688L217.562 256Z" fill="#EEEEEE"/>
<path d="M256 76.625V25.375H144.743C92.7292 50.5133 50.5133 92.7292 25.375 144.743V256H76.625V76.625H256Z" fill="#D80027"/>
<path d="M256 230.375V256L102.25 102.25H127.875L256 230.375Z" fill="#D80027"/>
<path d="M313 267L320 282L335 278L328 293L341 303L325 306V322L312 312L300 322V306L284 303L297 293L290 278L306 282L313 267ZM379 206L386 221L401 217L394 232L407 242L391 246V262L378 252L366 262V246L350 242L363 232L356 217L372 221L379 206ZM380 352L420 323H370L410 352L395 304L380 352ZM379 381L384 396L398 389L391 404L406 409L391 414L398 429L384 422L379 437L373 422L359 429L366 414L351 409L366 404L359 389L373 396L379 381ZM436 267L428 281H412L420 295L412 309H428L436 322L444 309H460L452 295L460 281H444L436 267Z" fill="#EEEEEE"/>
<path d="M370 93V101H362V118H370V133C365.094 128.491 358.597 126.116 351.94 126.398C345.282 126.679 339.009 129.593 334.5 134.5C329.992 139.407 327.617 145.903 327.898 152.561C328.179 159.218 331.094 165.491 336 170V185H421V170C425.907 165.491 428.821 159.218 429.103 152.561C429.384 145.903 427.009 139.407 422.5 134.5C417.992 129.593 411.718 126.679 405.061 126.398C398.403 126.116 391.907 128.491 387 133V118H395V101H387V93H370Z" fill="#FFDA44"/>
</svg>
