<svg width="512" height="512" viewBox="0 0 512 512" fill="none" xmlns="http://www.w3.org/2000/svg">
<path d="M512 256C512 397.385 397.385 512 256 512C114.615 512 0 397.385 0 256L256 0C397.385 0 512 114.615 512 256Z" fill="#002266"/>
<path d="M256 0V256H0C0 114.615 114.615 0 256 0Z" fill="#002266"/>
<path d="M217.562 256H256V217.562L140.688 102.25H256V0C114.615 0 0 114.615 0 256H102.25V140.688L217.562 256Z" fill="#EEEEEE"/>
<path d="M256 76.625V25.375H144.743C92.7292 50.5133 50.5133 92.7292 25.375 144.743V256H76.625V76.625H256Z" fill="#D80027"/>
<path d="M256 230.375V256L102.25 102.25H127.875L256 230.375Z" fill="#D80027"/>
<path d="M382 330C422.869 330 456 296.869 456 256C456 215.131 422.869 182 382 182C341.131 182 308 215.131 308 256C308 296.869 341.131 330 382 330Z" fill="#FFDA44"/>
<path d="M397 299.8C345.6 307.6 343.8 275.8 343.8 275.8C341.8 252.9 365.2 246.2 372.2 233.5C379.2 220.9 362.9 219 363.9 227.1C364.9 235.3 360.1 236.7 359.9 237.3C359.6 238 352.6 244.9 351.6 243.6C350.6 242.3 354.5 237.3 354.5 237.3C354.5 237.3 351.5 235.6 350.3 231.7C347.1 222.9 363.3 201 380.2 215.8C397 230.6 374.6 247.8 368.8 256.2C363 264.5 363.2 270.8 366.8 271.9C370.5 273.1 373.3 269.4 374.8 263.8C376.3 258.5 385.6 241.1 405.3 246.9C420 251.3 418.2 257.4 430 254.2C434.1 293.8 397 299.8 397 299.8Z" fill="#333333"/>
</svg>
