<svg width="512" height="512" viewBox="0 0 512 512" fill="none" xmlns="http://www.w3.org/2000/svg">
<circle cx="256" cy="256" r="256" fill="#338AF3"/>
<path fill-rule="evenodd" clip-rule="evenodd" d="M25.7354 368C21.2042 358.702 17.2196 349.088 13.8235 339.2H498.177C494.78 349.088 490.796 358.702 486.265 368H25.7354ZM64.2362 425.6C56.2248 416.549 48.8444 406.926 42.1638 396.8H469.836C463.156 406.926 455.775 416.549 447.764 425.6H64.2362Z" fill="#FFDA44"/>
<path d="M123.946 176.857L64 150.401L123.946 123.944L150.401 64L176.856 123.944L236.8 150.401L176.856 176.857L150.401 236.801L123.946 176.857Z" fill="#EEEEEE"/>
<path d="M150.4 97.04L166.737 134.061L203.759 150.401L166.737 166.739L150.4 203.76L134.06 166.739L97.0391 150.401L134.06 134.061L150.4 97.04Z" fill="#D80027"/>
</svg>
