<svg width="512" height="512" viewBox="0 0 512 512" fill="none" xmlns="http://www.w3.org/2000/svg">
<g clip-path="url(#clip0_623_81751)">
<g clip-path="url(#clip1_623_81751)">
<path d="M74.9729 74.9882L223.99 288.01L437.012 437.027C483.343 390.699 512 326.696 512 256C512 115.567 398.923 1.54448 258.852 0.0152813L253.148 0.0152815C183.583 0.774745 120.677 29.2807 74.9729 74.9882Z" fill="#FFDA44"/>
<path d="M74.9728 74.9885L437.012 437.027C390.685 483.349 326.688 512 256 512C114.644 512 0.0474862 397.432 3.57087e-06 256.088C-6.26824e-06 256.059 -1.11888e-05 256.029 -1.11901e-05 256C-1.11914e-05 255.971 -6.27849e-06 255.941 3.54783e-06 255.912C0.0237201 185.259 28.6697 121.296 74.9728 74.9885Z" fill="#0052B4"/>
</g>
<path fill-rule="evenodd" clip-rule="evenodd" d="M12.6097 176.422C19.2409 156.128 28.3397 136.949 39.5516 119.241L42.7767 129.167H77.6507L49.437 149.666L60.2137 182.833L32 162.334L12.6097 176.422ZM361.57 489.288C365.731 487.402 369.832 485.408 373.87 483.31L369.437 469.666L397.651 449.167H362.777L352 416L341.223 449.167H306.349L334.563 469.666L323.786 502.833L352 482.334L361.57 489.288ZM96 160L106.777 193.167H141.651L113.437 213.666L124.214 246.833L96 226.334L67.7863 246.833L78.563 213.666L50.3493 193.167H85.2233L96 160ZM170.777 257.167L160 224L149.223 257.167H114.349L142.563 277.666L131.786 310.833L160 290.334L188.214 310.833L177.437 277.666L205.651 257.167H170.777ZM224 288L234.777 321.167H269.651L241.437 341.666L252.214 374.833L224 354.334L195.786 374.833L206.563 341.666L178.349 321.167H213.223L224 288ZM298.777 385.167L288 352L277.223 385.167H242.349L270.563 405.666L259.786 438.833L288 418.334L316.214 438.833L305.437 405.666L333.651 385.167H298.777Z" fill="#EEEEEE"/>
</g>
<defs>
<clipPath id="clip0_623_81751">
<rect width="512" height="512" fill="white"/>
</clipPath>
<clipPath id="clip1_623_81751">
<rect width="512" height="512" fill="white" transform="translate(0 512) rotate(-90)"/>
</clipPath>
</defs>
</svg>
