<svg width="512" height="512" viewBox="0 0 512 512" fill="none" xmlns="http://www.w3.org/2000/svg">
<path d="M376 29.8097C340.208 10.7813 299.363 -7.14082e-06 256 -5.24537e-06C212.637 -3.34991e-06 171.792 10.7813 136 29.8097L136 482.19C171.792 501.219 212.637 512 256 512C299.363 512 340.208 501.219 376 482.19L376 29.8097Z" fill="#FFDA44"/>
<path d="M344 15.526C442.034 51.4112 512 145.535 512 256C512 366.465 442.034 460.588 344 496.474L344 15.526Z" fill="#D80027"/>
<path d="M168 15.526L168 496.474C69.9657 460.588 -5.68287e-06 366.465 -1.05114e-05 256C-1.534e-05 145.535 69.9657 51.4112 168 15.526Z" fill="#333333"/>
</svg>
