<svg width="512" height="512" viewBox="0 0 512 512" fill="none" xmlns="http://www.w3.org/2000/svg">
<g clip-path="url(#clip0_623_81775)">
<path fill-rule="evenodd" clip-rule="evenodd" d="M284.939 1.61755V510.382C275.44 511.451 265.784 512 256 512C114.615 512 0 397.385 0 256C0 114.615 114.615 0 256 0C265.784 0 275.44 0.548887 284.939 1.61755Z" fill="#EEEEEE"/>
<path fill-rule="evenodd" clip-rule="evenodd" d="M256 512C397.282 512 511.833 397.552 512 256.31V255.69C511.833 114.448 397.282 0 256 0C219.577 0 184.93 7.60668 153.562 21.3181L228.267 51.2L100.267 102.4L228.267 153.6L100.267 204.8L228.267 256L100.267 307.2L228.267 358.4L100.267 409.6L228.267 460.8L153.562 490.682C184.93 504.393 219.577 512 256 512Z" fill="#D80027"/>
</g>
<defs>
<clipPath id="clip0_623_81775">
<rect width="512" height="512" fill="white"/>
</clipPath>
</defs>
</svg>
