<svg width="512" height="512" viewBox="0 0 512 512" fill="none" xmlns="http://www.w3.org/2000/svg">
<g clip-path="url(#clip0_623_81810)">
<g clip-path="url(#clip1_623_81810)">
<path d="M437.011 74.9727L223.99 223.99L74.9727 437.011C121.3 483.343 185.303 512 256 512C396.433 512 510.455 398.923 511.984 258.852V253.147C511.225 183.583 482.719 120.676 437.011 74.9727Z" fill="#0052B4"/>
<path d="M437.012 74.9728L74.9729 437.012C28.6506 390.685 0 326.688 0 256C0 114.644 114.568 0.0474912 255.912 1.47571e-05C255.941 4.91931e-06 255.971 0 256 0C256.029 0 256.059 4.91419e-06 256.088 1.47418e-05C326.741 0.0237344 390.704 28.6697 437.012 74.9728Z" fill="#EEEEEE"/>
</g>
<path fill-rule="evenodd" clip-rule="evenodd" d="M0.715441 275.285C0.241309 268.918 0 262.487 0 256C0 114.615 114.615 0 256 0C262.487 0 268.918 0.241309 275.285 0.715441L0.715441 275.285Z" fill="#FFDA44"/>
<path fill-rule="evenodd" clip-rule="evenodd" d="M287 197.005L266.909 207.908L267 207.999C264.678 222.83 257.704 236.54 247.084 247.155C236.464 257.769 222.747 264.739 207.909 267.06L197 287.05L186.091 266.97C171.253 264.648 157.536 257.678 146.916 247.064C136.296 236.449 129.322 222.739 127 207.908L107 197.005L127 186.101C129.322 171.271 136.296 157.56 146.916 146.946C157.536 136.332 171.253 129.361 186.091 127.04L197 107.05L207.909 127.04C222.747 129.361 236.464 136.332 247.084 146.946C257.704 157.56 264.678 171.271 267 186.101L287 197.005ZM197 257.05C181.087 257.05 165.826 250.729 154.574 239.477C143.321 228.225 137 212.963 137 197.05C137 181.137 143.321 165.876 154.574 154.624C165.826 143.372 181.087 137.05 197 137.05C212.913 137.05 228.174 143.372 239.426 154.624C250.679 165.876 257 181.137 257 197.05C257 212.963 250.679 228.225 239.426 239.477C228.174 250.729 212.913 257.05 197 257.05Z" fill="#333333"/>
<path d="M196.9 163.6L206.6 180.3H225.9L216.3 197L225.9 213.7H206.6L197 230.4L187.3 213.7H168.1L177.7 197L168.1 180.3H187.3L196.9 163.6Z" fill="#D80027"/>
</g>
<defs>
<clipPath id="clip0_623_81810">
<rect width="512" height="512" fill="white"/>
</clipPath>
<clipPath id="clip1_623_81810">
<rect width="512" height="512" fill="white"/>
</clipPath>
</defs>
</svg>
