<svg width="512" height="512" viewBox="0 0 512 512" fill="none" xmlns="http://www.w3.org/2000/svg">
<g clip-path="url(#clip0_623_81819)">
<circle cx="256" cy="257" r="256" fill="#0052B4"/>
<path fill-rule="evenodd" clip-rule="evenodd" d="M256 481C379.712 481 480 380.712 480 257C480 133.288 379.712 33 256 33C132.288 33 32 133.288 32 257C32 380.712 132.288 481 256 481ZM256 513C397.385 513 512 398.385 512 257C512 115.615 397.385 1 256 1C114.615 1 0 115.615 0 257C0 398.385 114.615 513 256 513Z" fill="#D80027"/>
<path d="M100.2 256.1L256 158.1L411.8 256.1L256 354.1L100.2 256.1Z" fill="#EEEEEE"/>
<path d="M167 300.6H367.3L322.8 233.8L300.5 256.1L278.3 245.1L256 278.4H211.5L189.2 256.1L167 300.6Z" fill="#496E2D"/>
<path d="M256 189.3L261.5 206.3H279.5L264.9 216.8L270.5 233.8L256 223.3L241.5 233.8L247.1 216.8L232.6 206.3H250.5L256 189.3Z" fill="#FFC635"/>
<path fill-rule="evenodd" clip-rule="evenodd" d="M416.414 240.1L272 149.262V16H240V149.263L95.587 240.1H0V272.1H95.5863L240 362.938V496.2H272V362.938L416.414 272.1H512V240.1H416.414ZM130.251 256.1L256 335.198L381.75 256.1L256 177.002L130.251 256.1Z" fill="#D80027"/>
</g>
<defs>
<clipPath id="clip0_623_81819">
<rect width="512" height="512" fill="white"/>
</clipPath>
</defs>
</svg>
