<svg width="512" height="512" viewBox="0 0 512 512" fill="none" xmlns="http://www.w3.org/2000/svg">
<circle cx="256" cy="256" r="256" fill="#338AF3"/>
<path fill-rule="evenodd" clip-rule="evenodd" d="M500.245 333.913C507.882 309.636 512 283.799 512 257C512 229.464 507.652 202.943 499.606 178.087H12.3937C4.34754 202.943 0 229.464 0 257C0 283.799 4.11785 309.636 11.7553 333.913H500.245Z" fill="#EEEEEE"/>
<path fill-rule="evenodd" clip-rule="evenodd" d="M508.315 300.523C510.738 286.378 512 271.836 512 257C512 241.464 510.616 226.251 507.965 211.478H4.03541C1.38399 226.251 0 241.464 0 257C0 271.836 1.26205 286.378 3.68466 300.523H508.315Z" fill="#333333"/>
</svg>
