<svg width="512" height="512" viewBox="0 0 512 512" fill="none" xmlns="http://www.w3.org/2000/svg">
<g clip-path="url(#clip0_623_81885)">
<circle cx="256" cy="256" r="256" fill="#EEEEEE"/>
<path fill-rule="evenodd" clip-rule="evenodd" d="M4.43509 303.696C2.30812 292.408 0.922055 280.859 0.329346 269.101C10.8267 269.17 16.1133 274.01 21.3999 278.85C26.7249 283.725 32.0499 288.6 42.6999 288.6C53.4125 288.6 58.7624 283.714 64.1062 278.833C69.4374 273.964 74.7624 269.1 85.3999 269.1C96.0499 269.1 101.4 273.975 106.75 278.85C112.1 283.725 117.45 288.6 128.1 288.6C138.75 288.6 144.075 283.725 149.4 278.85C154.725 273.975 160.05 269.1 170.7 269.1C181.412 269.1 186.762 273.987 192.106 278.867C197.437 283.737 202.762 288.6 213.4 288.6C224.037 288.6 229.362 283.737 234.694 278.867C240.037 273.987 245.387 269.1 256.1 269.1C266.812 269.1 272.162 273.987 277.506 278.867C282.837 283.737 288.162 288.6 298.8 288.6C309.437 288.6 314.762 283.737 320.094 278.867C325.437 273.987 330.787 269.1 341.5 269.1C352.15 269.1 357.475 273.975 362.8 278.85C368.125 283.725 373.45 288.6 384.1 288.6C394.812 288.6 400.162 283.714 405.506 278.833C410.837 273.964 416.162 269.1 426.8 269.1C437.45 269.1 442.8 273.975 448.15 278.85C453.5 283.725 458.85 288.6 469.5 288.6C480.162 288.6 485.487 283.714 490.806 278.833C496.057 274.014 501.302 269.202 511.67 269.102C511.077 280.873 509.689 292.435 507.558 303.734C499.845 304.912 495.366 309.022 490.883 313.135C485.564 318.015 480.239 322.9 469.5 322.9C458.787 322.9 453.437 318.014 448.094 313.133C442.762 308.264 437.437 303.4 426.8 303.4C416.162 303.4 410.837 308.264 405.506 313.133C400.162 318.014 394.812 322.9 384.1 322.9C373.45 322.9 368.125 318.025 362.8 313.15C357.475 308.275 352.15 303.4 341.5 303.4C330.787 303.4 325.437 308.287 320.094 313.167C314.762 318.036 309.437 322.9 298.8 322.9C288.162 322.9 282.837 318.036 277.506 313.167C272.162 308.287 266.812 303.4 256.1 303.4C245.387 303.4 240.037 308.287 234.694 313.167C229.362 318.036 224.037 322.9 213.4 322.9C202.762 322.9 197.437 318.036 192.106 313.167C186.762 308.287 181.412 303.4 170.7 303.4C160.062 303.4 154.762 308.264 149.456 313.133C144.137 318.014 138.812 322.9 128.1 322.9C117.387 322.9 112.037 318.014 106.694 313.133C101.362 308.264 96.0375 303.4 85.3999 303.4C74.7624 303.4 69.4374 308.264 64.1062 313.133C58.7624 318.014 53.4125 322.9 42.6999 322.9C32.0499 322.9 26.7249 318.025 21.3999 313.15C16.8513 308.986 12.3027 304.822 4.43509 303.696ZM37.2137 388.995C27.7521 373.463 19.8978 356.845 13.882 339.37C16.7409 341.115 19.1242 343.292 21.5062 345.467C26.8374 350.337 32.1624 355.2 42.7999 355.2C53.4375 355.2 58.7624 350.337 64.0937 345.467C69.4374 340.587 74.7874 335.7 85.4999 335.7C96.1499 335.7 101.475 340.575 106.8 345.45C112.125 350.325 117.45 355.2 128.1 355.2C138.812 355.2 144.162 350.314 149.506 345.433C154.837 340.564 160.162 335.7 170.8 335.7C181.45 335.7 186.8 340.575 192.15 345.45C197.5 350.325 202.85 355.2 213.5 355.2C224.15 355.2 229.475 350.325 234.8 345.45C240.125 340.575 245.45 335.7 256.1 335.7C266.812 335.7 272.162 340.587 277.506 345.467C282.837 350.337 288.162 355.2 298.8 355.2C309.437 355.2 314.762 350.337 320.094 345.467C325.437 340.587 330.787 335.7 341.5 335.7C352.212 335.7 357.562 340.587 362.906 345.467C368.237 350.337 373.562 355.2 384.2 355.2C394.837 355.2 400.162 350.337 405.494 345.467C410.837 340.587 416.187 335.7 426.9 335.7C437.55 335.7 442.875 340.575 448.2 345.45C453.525 350.325 458.85 355.2 469.5 355.2C480.189 355.2 485.539 350.315 490.883 345.434C493.132 343.381 495.38 341.328 498.025 339.64C492.013 357.04 484.177 373.59 474.746 389.061C473.147 389.344 471.409 389.5 469.5 389.5C458.85 389.5 453.525 384.625 448.2 379.75C442.875 374.875 437.55 370 426.9 370C416.187 370 410.837 374.887 405.494 379.767C400.162 384.636 394.837 389.5 384.2 389.5C373.562 389.5 368.237 384.637 362.906 379.767C357.562 374.887 352.212 370 341.5 370C330.787 370 325.437 374.887 320.094 379.767C314.762 384.636 309.437 389.5 298.8 389.5C288.162 389.5 282.837 384.637 277.506 379.767C272.162 374.887 266.812 370 256.1 370C245.462 370 240.162 374.864 234.856 379.733C229.537 384.614 224.212 389.5 213.5 389.5C202.787 389.5 197.437 384.614 192.094 379.733C186.762 374.864 181.437 370 170.8 370C160.162 370 154.837 374.864 149.506 379.733C144.162 384.614 138.812 389.5 128.1 389.5C117.45 389.5 112.125 384.625 106.8 379.75C101.475 374.875 96.1499 370 85.4999 370C74.7874 370 69.4374 374.887 64.0937 379.767C58.7624 384.636 53.4375 389.5 42.7999 389.5C40.754 389.5 38.9045 389.32 37.2137 388.995ZM180.909 500.81C131.97 485.818 89.2692 456.553 57.6611 417.87C60.0111 416.273 62.0591 414.403 64.1062 412.533C69.4374 407.664 74.7624 402.8 85.3999 402.8C96.0499 402.8 101.4 407.675 106.75 412.55C112.1 417.425 117.45 422.3 128.1 422.3C138.75 422.3 144.075 417.425 149.4 412.55C154.725 407.675 160.05 402.8 170.7 402.8C181.412 402.8 186.762 407.687 192.106 412.567C197.437 417.436 202.762 422.3 213.4 422.3C224.037 422.3 229.362 417.436 234.694 412.567C240.037 407.687 245.387 402.8 256.1 402.8C266.812 402.8 272.162 407.687 277.506 412.567C282.837 417.436 288.162 422.3 298.8 422.3C309.437 422.3 314.762 417.436 320.094 412.567C325.437 407.686 330.787 402.8 341.5 402.8C352.15 402.8 357.475 407.675 362.8 412.55C368.125 417.425 373.45 422.3 384.1 422.3C394.812 422.3 400.162 417.414 405.506 412.533C410.837 407.664 416.162 402.8 426.8 402.8C437.45 402.8 442.8 407.675 448.15 412.55C450.15 414.372 452.15 416.195 454.426 417.762C423.131 456.104 380.944 485.206 332.584 500.348L260.7 490.7L180.909 500.81Z" fill="#0052B4"/>
<path fill-rule="evenodd" clip-rule="evenodd" d="M138.547 483.526C142.907 481.399 147.327 479.39 151.802 477.5L114.102 408.8L191.902 423.7L201.902 345L256.102 403L310.302 345L320.202 423.8L398.102 408.8L360.402 477.5C364.831 479.38 369.206 481.377 373.523 483.49C338.328 501.709 298.366 512 256 512C213.662 512 173.725 501.722 138.547 483.526Z" fill="#FFC635"/>
<g clip-path="url(#clip1_623_81885)">
<path fill-rule="evenodd" clip-rule="evenodd" d="M512 256C512 114.615 397.385 0 256 0C114.615 0 0 114.615 0 256H512Z" fill="#0052B4"/>
<path fill-rule="evenodd" clip-rule="evenodd" d="M502.243 326.243C496.433 346.649 488.155 366.016 477.752 384H464L320 240V384H192V240L48.0001 384H34.2483C23.8453 366.016 15.5671 346.649 9.75705 326.243L144 192H8.06519C21.0162 141.682 48.8813 97.3506 86.6673 64H144L119.431 39.4313C158.955 14.4553 205.789 0 256 0C306.211 0 353.045 14.4553 392.569 39.4313L368 64H425.333C463.119 97.3506 490.984 141.682 503.935 192H368L502.243 326.243Z" fill="#EEEEEE"/>
<path fill-rule="evenodd" clip-rule="evenodd" d="M493.392 160C483.992 136.779 471.284 115.251 455.852 96H288V1.9806C277.517 0.673387 266.837 0 256 0C245.163 0 234.483 0.673387 224 1.9806V96H56.1482C40.7164 115.251 28.0084 136.779 18.6086 160H224V384H288V160H493.392ZM498.437 338.437L352 192L320 192L489.376 361.376C492.751 353.913 495.778 346.26 498.437 338.437ZM33.4283 382.572L192 224L192 192L22.6244 361.376C25.9039 368.627 29.5115 375.699 33.4283 382.572ZM129.428 33.4282L160 64H192L150.624 22.6243C143.373 25.9038 136.301 29.5114 129.428 33.4282ZM338.437 13.5628L320 32V64L361.376 22.6243C353.913 19.2495 346.26 16.2222 338.437 13.5628Z" fill="#D80027"/>
</g>
<path fill-rule="evenodd" clip-rule="evenodd" d="M181 88.0013V168H331V88H293.5L293.5 88H331L312.25 131.275L293.5 88.0005L274.75 131.275L256 88.0005L237.25 131.275L218.5 88.0005L199.75 131.275L181 88.0013ZM280.101 88H256L256 88L280.101 88ZM242.601 88L218.5 88L218.5 88H242.601Z" fill="#FFC635"/>
</g>
<defs>
<clipPath id="clip0_623_81885">
<rect width="512" height="512" fill="white"/>
</clipPath>
<clipPath id="clip1_623_81885">
<rect width="512" height="256" fill="white"/>
</clipPath>
</defs>
</svg>
