<svg width="512" height="512" viewBox="0 0 512 512" fill="none" xmlns="http://www.w3.org/2000/svg">
<path d="M128 477.752C165.654 499.534 209.371 512 256 512C302.629 512 346.346 499.534 384 477.752L384 34.2483C346.346 12.4665 302.629 -3.55685e-06 256 -5.59506e-06C209.371 -7.63327e-06 165.654 12.4665 128 34.2482L128 477.752Z" fill="#EEEEEE"/>
<path d="M-1.00613e-05 255.911C0.0345708 154.729 58.7696 67.2685 144 25.7354L144 486.264C58.7695 444.731 0.0345009 357.271 -4.05867e-05 256.089C-4.05854e-05 256.059 -4.05841e-05 256.03 -4.05828e-05 256C-4.05815e-05 255.97 -1.00626e-05 255.94 -1.00613e-05 255.911Z" fill="#D80027"/>
<path d="M512 256C512 154.78 453.256 67.2808 368 25.7353L368 486.264C453.256 444.719 512 357.22 512 256Z" fill="#D80027"/>
<path d="M300.522 289.391L345.043 267.13L322.783 256V233.739L278.261 256L300.522 211.478H278.261L256 178.087L233.739 211.478H211.478L233.739 256L189.217 233.739V256L166.957 267.13L211.478 289.391L200.348 311.652H244.87V345.043H267.13V311.652H311.652L300.522 289.391Z" fill="#D80027"/>
</svg>
