<svg width="512" height="512" viewBox="0 0 512 512" fill="none" xmlns="http://www.w3.org/2000/svg">
<g clip-path="url(#clip0_623_81944)">
<path d="M437.011 74.9727L223.99 223.99L74.9727 437.011C121.3 483.343 185.303 512 256 512C396.433 512 510.455 398.923 511.984 258.852V253.147C511.225 183.583 482.719 120.676 437.011 74.9727Z" fill="#D80027"/>
<path d="M437.012 74.9728L74.9729 437.012C28.6506 390.685 0 326.688 0 256C0 114.644 114.568 0.0474912 255.912 1.47571e-05C255.941 4.91931e-06 255.971 0 256 0C256.029 0 256.059 4.91419e-06 256.088 1.47418e-05C326.741 0.0237344 390.704 28.6697 437.012 74.9728Z" fill="#6DA544"/>
<path d="M372.18 27.8203C420.303 52.3712 459.629 91.6979 484.18 139.82L139.82 484.18C91.6979 459.629 52.3712 420.303 27.8203 372.18L372.18 27.8203Z" fill="#FFDA44"/>
</g>
<defs>
<clipPath id="clip0_623_81944">
<rect width="512" height="512" fill="white"/>
</clipPath>
</defs>
</svg>
