<svg width="512" height="512" viewBox="0 0 512 512" fill="none" xmlns="http://www.w3.org/2000/svg">
<g clip-path="url(#clip0_623_81949)">
<circle cx="256" cy="256" r="256" fill="#EEEEEE"/>
<path fill-rule="evenodd" clip-rule="evenodd" d="M500.767 180.767C508.07 204.555 512 229.818 512 256H448L416 224L384 256H320L256 192V128L288 96L256 64V0C282.182 0 307.445 3.93034 331.233 11.2332L352 32L361.376 22.6243C418.06 48.2593 463.741 93.9396 489.376 150.624L480 160L500.767 180.767Z" fill="#338AF3"/>
<path fill-rule="evenodd" clip-rule="evenodd" d="M128 34.248V256H0C0 161.244 51.4814 78.5117 128 34.248Z" fill="#333333"/>
<path fill-rule="evenodd" clip-rule="evenodd" d="M477.752 128C489.21 147.808 498.091 169.294 503.935 192H448V256H384V128H477.752ZM384 34.2481V128H256V63.9998H320V8.06494C342.705 13.9089 364.192 22.7895 384 34.2481ZM320 192H256V256H320V192Z" fill="#FFDA44"/>
<path d="M291 291C259 291 223 299 209 310C204 314 202 320 202 326C202 336 209 344 219 346L194 353C185.47 340.184 174.069 329.534 160.703 321.896C147.336 314.258 132.372 309.842 117 309C114.613 308.602 112.166 309.169 110.197 310.575C108.228 311.982 106.898 314.113 106.5 316.5C106.102 318.887 106.669 321.334 108.076 323.303C109.482 325.272 111.613 326.602 114 327C147 339 159 340 171 364C150 357 136 388 123 401C120 402 119 405 119 408C119 413 123 417 128 417L134 415C147 405 160 382 178 387C235 403 244 400 283 394C252 403 253 415 275 430C264 447 250 447 234 452C230 453 227 457 227 461C227 466 231 470 236 470L241 469C260 460 281 451 301 436C300 428 288 419 309 412C318 420 323 431 350 428C354 435 360 440 357 456L345 459C340 459 337 463 337 468C337 473 341 477 346 477C349 477 352 475 353 473L371 459C373 444 369 430 363 417C349 415 346 402 340 388C352 394 362 400 372 385C358 380 344 372 333 381C294 357 278 362 253 357C262 349 264 337 261 320C287 313 330 297 357 346C360 305 327 292 291 291Z" fill="#333333"/>
</g>
<defs>
<clipPath id="clip0_623_81949">
<rect width="512" height="512" fill="white"/>
</clipPath>
</defs>
</svg>
