<svg width="512" height="512" viewBox="0 0 512 512" fill="none" xmlns="http://www.w3.org/2000/svg">
<path d="M512 256C512 397.385 397.385 512 256 512C114.615 512 0 397.385 0 256L256 0C397.385 0 512 114.615 512 256Z" fill="#002266"/>
<path d="M256 0V256H0C0 114.615 114.615 0 256 0Z" fill="#002266"/>
<path d="M217.562 256H256V217.562L140.688 102.25H256V0C114.615 0 0 114.615 0 256H102.25V140.688L217.562 256Z" fill="#EEEEEE"/>
<path d="M256 76.625V25.375H144.743C92.7292 50.5133 50.5133 92.7292 25.375 144.743V256H76.625V76.625H256Z" fill="#D80027"/>
<path d="M256 230.375V256L102.25 102.25H127.875L256 230.375Z" fill="#D80027"/>
<path d="M383.999 140.162L390.163 159.124H410.099L393.97 170.843L400.132 189.806L383.999 178.086L367.869 189.806L374.03 170.843L357.901 159.124H377.838L383.999 140.162Z" fill="#EEEEEE"/>
<path d="M302.091 174.091L319.854 183.141L333.954 169.043L330.834 188.737L348.599 197.788L328.906 200.905L325.788 220.601L316.735 202.835L297.043 205.954L311.144 191.856L302.091 174.091Z" fill="#EEEEEE"/>
<path d="M268.162 255.999L287.124 249.838L287.127 229.903L298.843 246.03L317.806 239.868L306.086 255.999L317.806 272.132L298.843 265.971L287.127 282.099V262.163L268.162 255.999Z" fill="#EEEEEE"/>
<path d="M302.091 337.908L311.141 320.143L297.043 306.046L316.736 309.165L325.788 291.399L328.906 311.093L348.599 314.21L330.834 323.263L333.954 342.957L319.854 328.855L302.091 337.908Z" fill="#EEEEEE"/>
<path d="M383.999 371.838L377.838 352.875H357.9L374.03 341.156L367.869 322.194L383.999 333.913L400.132 322.194L393.971 341.156L410.099 352.875H390.163L383.999 371.838Z" fill="#EEEEEE"/>
<path d="M465.908 337.908L448.143 328.859L434.046 342.957L437.165 323.263L419.399 314.212L439.093 311.093L442.212 291.399L451.263 309.165L470.956 306.046L456.855 320.144L465.908 337.908Z" fill="#EEEEEE"/>
<path d="M499.837 255.999L480.874 262.163V282.099L469.155 265.969L450.193 272.132L461.913 255.999L450.193 239.868L469.155 246.03L480.874 229.903V249.838L499.837 255.999Z" fill="#EEEEEE"/>
<path d="M465.908 174.093L456.859 191.857L470.956 205.955L451.263 202.835L442.212 220.602L439.093 200.906L419.399 197.788L437.165 188.737L434.046 169.045L448.144 183.142L465.908 174.093Z" fill="#EEEEEE"/>
</svg>
