<svg width="512" height="512" viewBox="0 0 512 512" fill="none" xmlns="http://www.w3.org/2000/svg">
<g clip-path="url(#clip0_623_81988)">
<circle cx="256" cy="256" r="256" fill="#EEEEEE"/>
<path d="M288 1.98009C277.68 0.693195 267.169 0.0205877 256.505 -1.12122e-05L255.495 -1.1168e-05C244.831 0.0205887 234.32 0.693197 224 1.98009L224 224L1.98053 224C0.673354 234.483 -1.16638e-05 245.163 -1.11901e-05 256C-1.07164e-05 266.837 0.673397 277.517 1.98065 288L224 288L224 510.019C234.483 511.326 245.163 512 256 512C266.837 512 277.517 511.326 288 510.019L288 288L510.019 288C511.327 277.517 512 266.837 512 255.999C512 245.163 511.327 234.483 510.019 224L288 224L288 1.98009Z" fill="#D80027"/>
<path d="M0 245.585C5.46421 109.029 117.896 0 255.792 0C255.861 0 255.931 2.75698e-05 256 8.2699e-05V256H0V245.585Z" fill="#D80027"/>
<path fill-rule="evenodd" clip-rule="evenodd" d="M103.63 50.2633C106.935 58.01 114.892 63.1953 124 63.1953H182C185 63.1953 188 61.1953 188 58.1953C188 55.1953 185 53.1953 182 53.1953H128C122.083 53.1953 116.167 48.8196 113.486 43.3044C116.61 41.2076 119.782 39.1778 123 37.2171C123.01 40.205 125.007 42.1953 128 42.1953H182C191 42.1953 198 49.1953 198 58.1953C198 67.1953 191 74.1953 182 74.1953V129.195C182 131.195 180 133.195 178 133.195H136C134 133.195 132 131.195 132 129.195C132 119.195 140 111.195 150 111.195H159V102.195H102V130.195C102 133.195 100 135.195 97 135.195H56C53 135.195 51 133.195 51 130.195C51 120.195 59 112.195 70 112.195H78V103.195C75.156 103.199 72.3411 102.624 69.7258 101.507C67.1105 100.389 64.7494 98.7525 62.7857 96.6953C61.4478 95.2937 60.3134 93.7169 59.4116 92.0115C72.4382 76.4123 87.2866 62.3872 103.63 50.2633ZM133.429 31.1953C140.062 27.5715 146.872 24.2327 153.844 21.1953H182V31.1953H133.429ZM63.7365 160.932C68.0499 156.619 73.9 154.195 80 154.195C85.925 154.453 91.5214 156.99 95.6208 161.275C99.7201 165.561 102.006 171.265 102 177.195C102 189.195 112 198.195 124 198.195H182C185 198.195 188 196.195 188 193.195C188 190.195 185 188.195 182 188.195H128C120 188.195 112 180.195 112 172.195C112 163.195 120 156.195 128 156.195H182V166.195H128C125 166.195 123 169.195 123 172.195C123 175.195 125 177.195 128 177.195H182C191 177.195 198 184.195 198 193.195C198 202.195 191 209.195 182 209.195V264.195C182 266.195 180 268.195 178 268.195H136C134 268.195 132 266.195 132 264.195C132 254.195 140 246.195 150 246.195H159V237.195H102V265.195C102 268.195 100 270.195 97 270.195H56C53 270.195 51 268.195 51 265.195C51 255.195 59 247.195 70 247.195H78V238.195C75.156 238.199 72.3411 237.624 69.7258 236.507C67.1105 235.389 64.7494 233.753 62.7857 231.695C60.822 229.638 59.2967 227.203 58.3021 224.539C57.3076 221.875 56.8646 219.036 57 216.195H30C28 216.195 26 214.195 26 212.195V170.195C26 168.195 28 166.195 30 166.195C40 166.195 48 174.195 48 184.195V193.195H57V177.195C57 171.095 59.4232 165.245 63.7365 160.932Z" fill="#FFDA44"/>
</g>
<defs>
<clipPath id="clip0_623_81988">
<rect width="512" height="512" fill="white"/>
</clipPath>
</defs>
</svg>
