<svg width="512" height="512" viewBox="0 0 512 512" fill="none" xmlns="http://www.w3.org/2000/svg">
<g clip-path="url(#clip0_623_82023)">
<path d="M437.027 437.011L288.01 223.99L74.9884 74.9726C28.6569 121.3 -6.58579e-05 185.303 -6.89481e-05 256C-7.50866e-05 396.433 113.077 510.455 253.147 511.984L258.852 511.984C328.417 511.225 391.323 482.719 437.027 437.011Z" fill="#0052B4"/>
<path d="M437.027 437.012L74.9885 74.9729C121.315 28.6505 185.312 -1.428e-05 256 -1.11901e-05C397.356 -5.01127e-06 511.953 114.568 512 255.912C512 255.941 512 255.971 512 256C512 256.029 512 256.059 512 256.088C511.976 326.741 483.33 390.704 437.027 437.012Z" fill="#6DA544"/>
</g>
<path d="M95.3249 367.304L102.35 381.993L118.213 378.326L111.109 392.977L123.867 403.094L107.983 406.673L108.027 422.956L95.3249 412.769L82.6229 422.956L82.6669 406.673L66.783 403.094L79.5409 392.977L72.4359 378.326L88.2999 381.993L95.3249 367.304Z" fill="#EEEEEE"/>
<path d="M49.372 244.87L56.397 259.559L72.26 255.891L65.157 270.543L77.9129 280.66L62.03 284.239L62.074 300.522L49.372 290.336L36.671 300.522L36.714 284.239L20.8311 280.66L33.588 270.543L26.484 255.891L42.347 259.559L49.372 244.87Z" fill="#EEEEEE"/>
<path d="M95.3249 144.696L102.35 159.385L118.213 155.717L111.11 170.369L123.867 180.486L107.983 184.065L108.027 200.348L95.3249 190.162L82.6229 200.348L82.6669 184.065L66.7839 180.486L79.5399 170.369L72.4359 155.717L88.2999 159.385L95.3249 144.696Z" fill="#EEEEEE"/>
<path d="M152.408 222.608L159.433 237.297L175.297 233.629L168.192 248.282L180.949 258.398L165.066 261.978L165.109 278.26L152.408 268.074L139.706 278.26L139.75 261.978L123.867 258.398L136.623 248.282L129.52 233.629L145.383 237.297L152.408 222.608Z" fill="#EEEEEE"/>
<path d="M111.591 289.392L117.117 306.398H134.997L120.531 316.908L126.057 333.913L111.591 323.404L97.1248 333.913L102.651 316.908L88.1848 306.398H106.065L111.591 289.392Z" fill="#EEEEEE"/>
<path d="M255.999 322.782C292.882 322.782 322.782 292.882 322.782 255.999C322.782 219.116 292.882 189.216 255.999 189.216C219.116 189.216 189.216 219.116 189.216 255.999C189.216 292.882 219.116 322.782 255.999 322.782Z" fill="#FFDA44"/>
<path d="M255.999 300.521H278.26C278.26 300.521 287.906 283.456 278.26 267.13L300.521 244.869L289.391 222.608H278.261C278.261 222.608 272.696 239.304 250.435 239.304C228.174 239.304 222.609 222.608 222.609 222.608H211.479L222.609 244.869L211.479 267.13L222.609 278.26C222.609 278.26 233.739 255.999 256 267.13C255.999 267.13 265.46 281.043 255.999 300.521Z" fill="#6DA544"/>
<path d="M422.152 140.223C422.677 137.488 422.956 134.667 422.956 131.779C422.956 111.979 410.028 95.2079 392.156 89.4219C397.617 100.522 400.695 113.006 400.695 126.214C400.695 130.668 400.337 135.038 399.664 139.303C396.974 134.97 393.519 131.011 389.298 127.652C373.397 115 351.668 114.665 335.603 125.32C348.006 128.028 359.998 133.533 370.605 141.972C378.909 148.58 385.619 157.518 390.757 166.146L322.782 187.431C389.565 198.561 445.217 154.04 445.217 154.04C439.05 141.708 429.474 139.628 422.152 140.223Z" fill="#FFDA44"/>
<defs>
<clipPath id="clip0_623_82023">
<rect width="512" height="512" fill="white" transform="translate(512) rotate(90)"/>
</clipPath>
</defs>
</svg>
