<svg width="512" height="512" viewBox="0 0 512 512" fill="none" xmlns="http://www.w3.org/2000/svg">
<path d="M0 245.585C5.46421 109.029 117.896 0 255.792 0C255.861 0 255.931 2.75698e-05 256 8.2699e-05V256H0V245.585Z" fill="#0052B4"/>
<path d="M266.415 -1.07349e-05C402.971 5.4642 512 117.896 512 255.792C512 255.861 512 255.931 512 256L256 256L256 -1.11901e-05L266.415 -1.07349e-05Z" fill="#D80027"/>
<path d="M512 266.415C506.536 402.971 394.104 512 256.208 512C256.139 512 256.069 512 256 512L256 256L512 256L512 266.415Z" fill="#0052B4"/>
<path d="M245.585 512C109.029 506.536 1.54601e-05 394.104 3.35431e-05 256.208C3.35522e-05 256.139 6.1131e-05 256.069 0.000116269 256L256 256L256 512L245.585 512Z" fill="#D80027"/>
<path d="M288 1.97972C298.894 3.33818 309.575 5.38118 320 8.06426L320 192L503.935 192C506.618 202.424 508.661 213.106 510.019 224L480 256L510.019 288C508.661 298.894 506.618 309.575 503.935 320L320 320L320 503.934C309.575 506.617 298.894 508.66 288 510.019L256 480L224 510.019C213.106 508.66 202.424 506.617 192 503.934L192 320L8.06517 320C5.38206 309.575 3.33907 298.894 1.98058 288L32 256L1.98046 224C3.3389 213.106 5.38185 202.424 8.06491 192L192 192L192 8.06426C202.424 5.38119 213.106 3.33819 224 1.97973L256 31.9997L288 1.97972Z" fill="#EEEEEE"/>
<path d="M288 1.98009C277.68 0.693195 267.169 0.0205877 256.505 -1.12122e-05L255.495 -1.1168e-05C244.831 0.0205887 234.32 0.693197 224 1.98009L224 224L1.98053 224C0.673354 234.483 -1.16638e-05 245.163 -1.11901e-05 256C-1.07164e-05 266.837 0.673397 277.517 1.98065 288L224 288L224 510.019C234.483 511.326 245.163 512 256 512C266.837 512 277.517 511.326 288 510.019L288 288L510.019 288C511.327 277.517 512 266.837 512 255.999C512 245.163 511.327 234.483 510.019 224L288 224L288 1.98009Z" fill="#EEEEEE"/>
<path d="M208.025 205.359V258.665C208.025 285.161 229.504 306.64 256 306.64C282.497 306.64 303.975 285.161 303.975 258.665V205.359H208.025Z" fill="#D80027"/>
<path fill-rule="evenodd" clip-rule="evenodd" d="M208.025 256H256V205.359H208.025V256ZM303.975 256H256.001V306.64H256.12C282.561 306.575 303.975 285.122 303.975 258.665V256Z" fill="#0052B4"/>
<path fill-rule="evenodd" clip-rule="evenodd" d="M240.902 245.837L239.357 250.592C238.503 253.219 238.283 256.01 238.715 258.737C239.147 261.465 240.219 264.052 241.842 266.286C243.465 268.52 245.594 270.339 248.055 271.592C250.516 272.846 253.238 273.5 256 273.5C258.762 273.5 261.484 272.846 263.945 271.592C266.406 270.339 268.535 268.52 270.158 266.286C271.781 264.052 272.853 261.465 273.285 258.737C273.717 256.01 273.497 253.219 272.643 250.592L271.098 245.837L280.609 242.747L282.154 247.502C283.495 251.629 283.84 256.015 283.161 260.302C282.483 264.588 280.799 268.653 278.248 272.164C275.697 275.675 272.352 278.532 268.485 280.503C264.618 282.473 260.34 283.5 256 283.5C251.66 283.5 247.382 282.473 243.515 280.503C239.648 278.532 236.303 275.675 233.752 272.164C231.201 268.653 229.517 264.588 228.839 260.302C228.16 256.015 228.505 251.629 229.846 247.502L231.391 242.747L240.902 245.837Z" fill="#6DA544"/>
</svg>
