<svg width="512" height="512" viewBox="0 0 512 512" fill="none" xmlns="http://www.w3.org/2000/svg">
<g clip-path="url(#clip0_623_82070)">
<circle cx="256" cy="256" r="256" fill="#338AF3"/>
<path fill-rule="evenodd" clip-rule="evenodd" d="M489.993 360C504.138 328.222 512 293.029 512 256C512 218.971 504.138 183.778 489.993 152H22.0071C7.86172 183.778 0 218.971 0 256C0 293.029 7.86172 328.222 22.0071 360H489.993Z" fill="#EEEEEE"/>
<path fill-rule="evenodd" clip-rule="evenodd" d="M499.251 176C502.666 186.389 505.434 197.072 507.507 208H4.49219C6.56524 197.072 9.33294 186.389 12.7476 176H499.251Z" fill="#333333"/>
<path fill-rule="evenodd" clip-rule="evenodd" d="M12.7476 336C9.33294 325.611 6.56524 314.928 4.49219 304H507.507C505.434 314.928 502.666 325.611 499.251 336H12.7476Z" fill="#D80027"/>
<path fill-rule="evenodd" clip-rule="evenodd" d="M507.507 304C510.457 288.452 512 272.406 512 256C512 239.594 510.457 223.548 507.507 208H4.49266C1.54331 223.548 0 239.594 0 256C0 272.406 1.54331 288.452 4.49266 304H507.507Z" fill="#6DA544"/>
<path fill-rule="evenodd" clip-rule="evenodd" d="M510.019 288C511.327 277.517 512 266.837 512 256C512 245.163 511.327 234.483 510.019 224H1.9806C0.673387 234.483 0 245.163 0 256C0 266.837 0.673387 277.517 1.9806 288H510.019Z" fill="#FFDA44"/>
<path fill-rule="evenodd" clip-rule="evenodd" d="M304.322 289.966C314.088 278.73 320 264.056 320 248C320 212.654 291.346 184 256 184C220.654 184 192 212.654 192 248C192 264.056 197.912 278.73 207.678 289.966L178 301V328H334V301L304.322 289.966Z" fill="#EEEEEE"/>
<path fill-rule="evenodd" clip-rule="evenodd" d="M230.437 225.582C234.871 220.526 240.705 216.899 247.2 215.158L243.059 199.704C233.507 202.263 224.928 207.598 218.408 215.033C211.888 222.468 207.719 231.669 206.428 241.474C205.137 251.278 206.783 261.245 211.156 270.114C215.53 278.984 222.436 286.357 231 291.301L239 277.445C233.176 274.082 228.481 269.069 225.506 263.038C222.532 257.007 221.413 250.229 222.291 243.562C223.169 236.895 226.004 230.638 230.437 225.582ZM281.563 225.582C277.129 220.526 271.295 216.899 264.8 215.158L268.941 199.704C278.493 202.263 287.072 207.598 293.592 215.033C300.112 222.468 304.281 231.669 305.572 241.474C306.863 251.278 305.217 261.245 300.844 270.114C296.47 278.984 289.564 286.357 281 291.301L273 277.445C278.824 274.082 283.519 269.069 286.494 263.038C289.468 257.007 290.587 250.229 289.709 243.562C288.831 236.895 285.996 230.638 281.563 225.582Z" fill="#6DA544"/>
<circle cx="256" cy="248" r="24" fill="#FFC635"/>
</g>
<defs>
<clipPath id="clip0_623_82070">
<rect width="512" height="512" fill="white"/>
</clipPath>
</defs>
</svg>
