<svg width="512" height="512" viewBox="0 0 512 512" fill="none" xmlns="http://www.w3.org/2000/svg">
<g clip-path="url(#clip0_623_82111)">
<path d="M477.752 384C499.534 346.346 512 302.629 512 256C512 209.371 499.534 165.654 477.752 128L34.2483 128C12.4665 165.654 0 209.371 0 256C0 302.629 12.4665 346.346 34.2482 384L477.752 384Z" fill="#EEEEEE"/>
<path d="M255.911 512C154.729 511.965 67.2685 453.23 25.7354 368L486.264 368C444.731 453.23 357.271 511.965 256.089 512C256.059 512 256.03 512 256 512C255.97 512 255.94 512 255.911 512Z" fill="#496E2D"/>
<path d="M256 0C154.78 0 67.2808 58.7445 25.7354 144L486.264 144C444.719 58.7445 357.22 0 256 0Z" fill="#333333"/>
<path d="M0 245.585C2.66508 178.982 30.7761 118.927 74.8766 74.877L256 256L74.8767 437.124C30.7761 393.073 2.66509 333.018 0 266.415V245.585Z" fill="#D80027"/>
<path d="M333.513 185.509C343.414 180.887 354.176 178.397 365.101 178.2C371.451 178.03 377.797 178.634 384.001 180C366.719 183.886 351.274 193.538 340.208 207.369C329.141 221.2 323.112 238.386 323.112 256.1C323.112 273.813 329.141 290.999 340.208 304.83C351.274 318.662 366.719 328.314 384.001 332.2C373.353 334.651 362.308 334.837 351.583 332.746C340.858 330.656 330.692 326.335 321.744 320.065C312.795 313.794 305.264 305.713 299.638 296.346C294.013 286.979 290.418 276.534 289.087 265.689C287.756 254.843 288.718 243.839 291.912 233.389C295.106 222.94 300.459 213.278 307.626 205.029C314.792 196.781 323.612 190.13 333.513 185.509Z" fill="#D80027"/>
<path d="M398.3 240.1L387.3 206.1L376.2 240.1H340.4L369.4 261.1L358.3 295.1L387.2 274.1L416.2 295.1L405.1 261.1L434.1 240.1H398.3Z" fill="#D80027"/>
</g>
<defs>
<clipPath id="clip0_623_82111">
<rect width="512" height="512" fill="white"/>
</clipPath>
</defs>
</svg>
