<svg width="512" height="512" viewBox="0 0 512 512" fill="none" xmlns="http://www.w3.org/2000/svg">
<path d="M256 512C397.217 512 511.727 397.658 512 256.505V256L256 224L0.000488281 256C0.000488281 397.385 114.616 512 256 512Z" fill="#338AF3"/>
<path d="M512 255.495V256H0.000488281C0.000488281 114.615 114.616 0 256 0C397.217 0 511.727 114.342 512 255.495Z" fill="#6DA544"/>
<path fill-rule="evenodd" clip-rule="evenodd" d="M102.385 51.1924L512 256L102.385 460.807C40.2139 414.102 0 339.747 0 256C0 172.253 40.2139 97.898 102.385 51.1924Z" fill="#D80027"/>
<path d="M133.565 150.261C84.466 150.261 44.522 190.206 44.522 239.304V272.695C44.522 321.794 84.467 361.738 133.565 361.738C182.663 361.738 222.608 321.793 222.608 272.695V239.304C222.609 190.206 182.664 150.261 133.565 150.261ZM189.217 272.696C189.217 297.568 172.815 318.677 150.26 325.786V289.392L173.884 265.768L150.273 242.157L150.26 233.754V222.61H116.87V256L93.262 279.607L116.87 303.214V325.787C94.315 318.678 77.913 297.569 77.913 272.697V239.306C77.913 208.619 102.879 183.654 133.565 183.654C164.251 183.654 189.217 208.62 189.217 239.306V272.696Z" fill="#FFDA44"/>
</svg>
