<svg width="512" height="512" viewBox="0 0 512 512" fill="none" xmlns="http://www.w3.org/2000/svg">
<g clip-path="url(#clip0_623_82139)">
<g clip-path="url(#clip1_623_82139)">
<path d="M74.9726 74.9882L223.99 288.01L437.011 437.027C483.343 390.699 512 326.696 512 256C512 115.567 398.923 1.54448 258.852 0.0152813L253.147 0.0152815C183.583 0.774745 120.676 29.2807 74.9726 74.9882Z" fill="#EEEEEE"/>
<path d="M74.9728 74.9885L437.012 437.027C390.685 483.349 326.688 512 256 512C114.644 512 0.0474862 397.432 3.57087e-06 256.088C-6.26824e-06 256.059 -1.11888e-05 256.029 -1.11901e-05 256C-1.11914e-05 255.971 -6.27849e-06 255.941 3.54783e-06 255.912C0.0237201 185.259 28.6697 121.296 74.9728 74.9885Z" fill="#EEEEEE"/>
<path d="M45.8154 109.815C63.1882 84.8834 84.8835 63.188 109.815 45.8152L466.185 402.185C448.812 427.116 427.117 448.812 402.185 466.185L45.8154 109.815Z" fill="#338AF3"/>
</g>
<path d="M211 181L257 197.4L301 181V143L283 152L256 125L229 152L211 143V181Z" fill="#FFC635"/>
<path d="M186 181V284C186 302.565 193.375 320.37 206.503 333.497C219.63 346.625 237.435 354 256 354C274.565 354 292.37 346.625 305.497 333.497C318.625 320.37 326 302.565 326 284V181H186Z" fill="#0052B4"/>
</g>
<defs>
<clipPath id="clip0_623_82139">
<rect width="512" height="512" fill="white"/>
</clipPath>
<clipPath id="clip1_623_82139">
<rect width="512" height="512" fill="white" transform="translate(0 512) rotate(-90)"/>
</clipPath>
</defs>
</svg>
