<svg width="512" height="512" viewBox="0 0 512 512" fill="none" xmlns="http://www.w3.org/2000/svg">
<g clip-path="url(#clip0_623_82142)">
<path d="M256 0C317.029 0 373.069 21.355 417.057 57L469.04 114C480.785 131.586 490.41 150.707 497.551 171L510.487 228C511.487 237.196 512 246.538 512 256C512 265.805 511.449 275.482 510.376 285L497.551 341C490.41 361.293 480.785 380.414 469.04 398L417.057 455C373.069 490.645 317.029 512 256 512C194.972 512 138.932 490.645 94.9435 455L42.9609 398C31.2159 380.414 21.5905 361.293 14.4498 341L1.62493 285C0.551737 275.482 0.000488281 265.805 0.000488281 256C0.000488281 246.538 0.513825 237.196 1.51417 228L14.4498 171C21.5905 150.707 31.2159 131.586 42.9609 114L94.9435 57C138.932 21.355 194.972 0 256 0Z" fill="#FFDA44"/>
<path d="M497.551 171C503.938 189.15 508.337 208.238 510.487 228H1.51416C3.66395 208.238 8.06295 189.15 14.4498 171H497.551Z" fill="#D80027"/>
<path d="M417.057 57C437.114 73.2524 454.665 92.4756 469.04 114H42.9608C57.3363 92.4756 74.8871 73.2524 94.9435 57H417.057Z" fill="#D80027"/>
<path d="M497.551 341C503.83 323.156 508.188 304.406 510.376 285H1.62493C3.813 304.406 8.17074 323.156 14.4498 341H497.551Z" fill="#D80027"/>
<path d="M469.04 398H42.9608C57.3363 419.524 74.8871 438.748 94.9435 455H417.057C437.114 438.748 454.665 419.524 469.04 398Z" fill="#D80027"/>
<path d="M0 245.585C5.46421 109.029 117.896 0 255.792 0C255.861 0 255.931 2.75698e-05 256 8.2699e-05V256H0V245.585Z" fill="#4A1F63"/>
<path d="M210.9 121.8V144H199.7V121.8H177.5V144H166.4V99.5H121.8V144H110.8V121.8H88.4V144H77.4V121.8H55V188.5H233V121.8H210.9Z" fill="#EEEEEE"/>
</g>
<defs>
<clipPath id="clip0_623_82142">
<rect width="512" height="512" fill="white"/>
</clipPath>
</defs>
</svg>
