<svg width="512" height="512" viewBox="0 0 512 512" fill="none" xmlns="http://www.w3.org/2000/svg">
<g clip-path="url(#clip0_623_82149)">
<circle cx="256" cy="256" r="256" fill="#D80027"/>
<path d="M459.431 100.569L304 256L459.431 411.431C445.625 429.473 429.473 445.625 411.431 459.431L256 304L100.569 459.431C82.5272 445.625 66.3753 429.473 52.5693 411.431L208 256L52.5693 100.569C66.3753 82.5272 82.5272 66.3753 100.569 52.5693L256 208L411.431 52.5693C429.473 66.3753 445.625 82.5272 459.431 100.569Z" fill="#496E2D"/>
<path d="M288 1.98009C277.68 0.693195 267.169 0.0205877 256.505 -1.12122e-05L255.495 -1.1168e-05C244.831 0.0205887 234.32 0.693197 224 1.98009L224 224L1.98053 224C0.673354 234.483 -1.16638e-05 245.163 -1.11901e-05 256C-1.07164e-05 266.837 0.673397 277.517 1.98065 288L224 288L224 510.019C234.483 511.326 245.163 512 256 512C266.837 512 277.517 511.326 288 510.019L288 288L510.019 288C511.327 277.517 512 266.837 512 255.999C512 245.163 511.327 234.483 510.019 224L288 224L288 1.98009Z" fill="#EEEEEE"/>
</g>
<defs>
<clipPath id="clip0_623_82149">
<rect width="512" height="512" fill="white"/>
</clipPath>
</defs>
</svg>
