<svg width="512" height="512" viewBox="0 0 512 512" fill="none" xmlns="http://www.w3.org/2000/svg">
<path d="M477.752 384C499.534 346.346 512 302.629 512 256C512 209.371 499.534 165.654 477.752 128L34.2483 128C12.4665 165.654 0 209.371 0 256C0 302.629 12.4665 346.346 34.2482 384L477.752 384Z" fill="#FFDA44"/>
<path d="M255.911 512C154.729 511.965 67.2685 453.23 25.7354 368L486.264 368C444.731 453.23 357.271 511.965 256.089 512C256.059 512 256.03 512 256 512C255.97 512 255.94 512 255.911 512Z" fill="#D80027"/>
<path d="M256 0C154.78 0 67.2808 58.7445 25.7354 144L486.264 144C444.719 58.7445 357.22 0 256 0Z" fill="#D80027"/>
</svg>
