<svg width="512" height="512" viewBox="0 0 512 512" fill="none" xmlns="http://www.w3.org/2000/svg">
<g clip-path="url(#clip0_623_82157)">
<path d="M477.752 384C499.534 346.346 512 302.629 512 256C512 209.371 499.534 165.654 477.752 128L34.2483 128C12.4665 165.654 0 209.371 0 256C0 302.629 12.4665 346.346 34.2482 384L477.752 384Z" fill="#EEEEEE"/>
<path d="M255.911 512C154.729 511.965 67.2685 453.23 25.7354 368L486.264 368C444.731 453.23 357.271 511.965 256.089 512C256.059 512 256.03 512 256 512C255.97 512 255.94 512 255.911 512Z" fill="#496E2D"/>
<path d="M256 0C154.78 0 67.2808 58.7445 25.7354 144L486.264 144C444.719 58.7445 357.22 0 256 0Z" fill="#0052B4"/>
<path d="M0 245.585C2.66508 178.982 30.7761 118.927 74.8766 74.877L256 256L74.8767 437.124C30.7761 393.073 2.66509 333.018 0 266.415V245.585Z" fill="#D80027"/>
<path d="M345 229L333 240L373 280L333 320L344 331L384 291L424 331L435 320L395 280L435 240L424 229L384 269L345 229Z" fill="#85693D"/>
<path d="M384 181L405 243L351 205H417L364 244L384 181Z" fill="#D80027"/>
</g>
<defs>
<clipPath id="clip0_623_82157">
<rect width="512" height="512" fill="white"/>
</clipPath>
</defs>
</svg>
