<svg width="512" height="512" viewBox="0 0 512 512" fill="none" xmlns="http://www.w3.org/2000/svg">
<g clip-path="url(#clip0_623_82170)">
<path fill-rule="evenodd" clip-rule="evenodd" d="M496.398 344.207C460.456 442.133 366.387 512 256 512C145.613 512 51.5439 442.133 15.6021 344.207H496.398Z" fill="#333333"/>
<path fill-rule="evenodd" clip-rule="evenodd" d="M477.752 384C499.534 346.346 512 302.629 512 256C512 235.808 509.662 216.162 505.243 197.317H6.75743C2.33777 216.162 0 235.808 0 256C0 302.629 12.4665 346.346 34.2482 384H477.752Z" fill="#496E2D"/>
<path fill-rule="evenodd" clip-rule="evenodd" d="M512 256C512 183.113 481.539 117.34 432.653 70.7168H79.3468C30.4608 117.34 0 183.113 0 256H512Z" fill="#EEEEEE"/>
<path fill-rule="evenodd" clip-rule="evenodd" d="M477.752 128H34.248C78.5117 51.4814 161.244 0 256 0C350.756 0 433.488 51.4814 477.752 128Z" fill="#D80027"/>
<path d="M256 134.111L270.369 178.334H316.868L279.25 205.666L293.619 249.888L256 222.557L218.382 249.888L232.751 205.666L195.133 178.334H241.632L256 134.111Z" fill="#333333"/>
</g>
<defs>
<clipPath id="clip0_623_82170">
<rect width="512" height="512" fill="white"/>
</clipPath>
</defs>
</svg>
