<svg width="512" height="512" viewBox="0 0 512 512" fill="none" xmlns="http://www.w3.org/2000/svg">
<g clip-path="url(#clip0_623_82215)">
<circle cx="256" cy="257" r="256" fill="#6DA544"/>
<path fill-rule="evenodd" clip-rule="evenodd" d="M75.4814 75.4814C54.6092 96.2393 37.2969 120.573 24.5405 147.486L64 256L24.1298 365.643C36.7217 392.471 53.8323 416.756 74.4814 437.519L256 256L75.4814 75.4814Z" fill="#0052B4"/>
<path fill-rule="evenodd" clip-rule="evenodd" d="M12.2841 178.426C18.9938 157.598 28.2992 137.936 39.8193 119.819L176 256L39.0449 392.955C27.6348 374.785 18.4439 355.081 11.8525 334.221L64 256L12.2841 178.426Z" fill="#EEEEEE"/>
<path fill-rule="evenodd" clip-rule="evenodd" d="M13.3101 338.69C4.67817 313.035 0 285.564 0 257C0 227.881 4.86164 199.898 13.8175 173.817L96 256L13.3101 338.69Z" fill="#D80027"/>
<path d="M384 182.08L400.596 233.158H454.302L410.853 264.725L427.449 315.803L384 284.235L340.551 315.803L357.147 264.725L313.698 233.158H367.404L384 182.08Z" fill="#FFDA44"/>
</g>
<defs>
<clipPath id="clip0_623_82215">
<rect width="512" height="512" fill="white"/>
</clipPath>
</defs>
</svg>
