<svg width="512" height="512" viewBox="0 0 512 512" fill="none" xmlns="http://www.w3.org/2000/svg">
<g clip-path="url(#clip0_623_82234)">
<path d="M482.19 376C501.219 340.208 512 299.363 512 256C512 212.637 501.219 171.792 482.19 136H29.8097C10.7813 171.792 0 212.637 0 256C0 299.363 10.7813 340.208 29.8097 376H482.19Z" fill="#D80027"/>
<path d="M496.474 344C460.589 442.034 366.465 512 256 512C145.535 512 51.4113 442.034 15.5261 344H496.474Z" fill="#6DA544"/>
<path d="M496.474 168H15.5264C51.4116 69.9657 145.535 0 256 0C366.465 0 460.589 69.9657 496.474 168Z" fill="#6DA544"/>
<path d="M85.0513 198.112L99.4202 242.335H145.919L108.301 269.666L122.67 313.889L85.0513 286.558L47.433 313.889L61.8019 269.666L24.1837 242.335H70.6824L85.0513 198.112Z" fill="#FFDA44"/>
<path d="M256 198.112L270.369 242.335H316.868L279.25 269.666L293.619 313.889L256 286.558L218.382 313.889L232.751 269.666L195.133 242.335H241.632L256 198.112Z" fill="#FFDA44"/>
<path d="M426.95 198.112L441.319 242.335H487.817L450.199 269.666L464.568 313.889L426.95 286.558L389.331 313.889L403.7 269.666L366.082 242.335H412.581L426.95 198.112Z" fill="#FFDA44"/>
</g>
<defs>
<clipPath id="clip0_623_82234">
<rect width="512" height="512" fill="white"/>
</clipPath>
</defs>
</svg>
