<svg width="512" height="512" viewBox="0 0 512 512" fill="none" xmlns="http://www.w3.org/2000/svg">
<g clip-path="url(#clip0_623_82250)">
<circle cx="256" cy="256" r="256" fill="#EEEEEE"/>
<path d="M345.1 216.8C345.123 194.323 337.42 172.521 323.281 155.049C309.141 137.576 289.426 125.495 267.438 120.831C245.451 116.166 222.528 119.201 202.512 129.428C182.497 139.654 166.604 156.45 157.5 177L145.5 220.8L156.5 232L134.3 276.5L156.6 287.6L145.4 298.7V310L156.6 321.1V343.4L167.7 354.4L201.1 343.4C201.1 343.4 201.1 354.4 212.2 365.6C223.3 376.8 234.5 399 234.5 399C234.5 399 267.9 410.1 290.1 376.8C312.4 343.4 334.7 332.2 334.7 332.2L313.2 289.3C323.275 280.121 331.325 268.941 336.835 256.475C342.345 244.008 345.194 230.53 345.2 216.9L345.1 216.8Z" fill="#333333"/>
<path d="M353.1 254.3C398.4 246.7 405.9 158.1 405.9 158.1H343.6C375.8 236.1 342.1 241.3 342.1 241.3C284.564 212.948 226.693 185.279 168.5 158.3C167.2 160 162.6 164.3 157 178.1C151.4 191.8 150 204.1 150 204.1C210.104 225.942 270.51 246.944 331.2 267.1C340.4 273 351.6 290.8 345.3 343.7L405.3 326.8C405.3 326.8 384.9 272.7 353.1 254.3Z" fill="#ACABB1"/>
</g>
<defs>
<clipPath id="clip0_623_82250">
<rect width="512" height="512" fill="white"/>
</clipPath>
</defs>
</svg>
