<svg width="512" height="512" viewBox="0 0 512 512" fill="none" xmlns="http://www.w3.org/2000/svg">
<g clip-path="url(#clip0_623_82253)">
<path d="M256 0C317.028 0 373.069 21.355 417.057 57L469.04 114C480.785 131.586 490.41 150.707 497.551 171L510.486 228C511.487 237.196 512 246.538 512 256C512 265.805 511.449 275.482 510.376 285L497.551 341C490.41 361.293 480.785 380.414 469.04 398L417.057 455C373.069 490.645 317.028 512 256 512C194.972 512 138.931 490.645 94.9431 455L42.9604 398C31.2154 380.414 21.59 361.293 14.4493 341L1.62444 285C0.551248 275.482 0 265.805 0 256C0 246.538 0.513337 237.196 1.51368 228L14.4493 171C21.59 150.707 31.2154 131.586 42.9604 114L94.9431 57C138.931 21.355 194.972 0 256 0Z" fill="#333333"/>
<path d="M497.552 171C503.939 189.15 508.338 208.238 510.487 228H1.51465C3.66444 208.238 8.06344 189.15 14.4503 171H497.552Z" fill="#EEEEEE"/>
<path d="M417.058 57C437.114 73.2524 454.665 92.4756 469.041 114H42.9613C57.3368 92.4756 74.8876 73.2524 94.944 57H417.058Z" fill="#EEEEEE"/>
<path d="M497.552 341C503.831 323.156 508.188 304.406 510.377 285H1.62541C3.81349 304.406 8.17123 323.156 14.4503 341H497.552Z" fill="#EEEEEE"/>
<path d="M469.041 398H42.9613C57.3368 419.524 74.8876 438.748 94.944 455H417.058C437.114 438.748 454.665 419.524 469.041 398Z" fill="#EEEEEE"/>
<path fill-rule="evenodd" clip-rule="evenodd" d="M1.5625 227.556C15.712 99.557 124.23 0 256 0V227.556H1.5625Z" fill="#EEEEEE"/>
<path fill-rule="evenodd" clip-rule="evenodd" d="M134.707 30.5019C137.159 29.1803 139.635 27.8974 142.134 26.6542C144.603 27.398 146.4 29.689 146.4 32.3999C146.4 35.7136 143.714 38.3999 140.4 38.3999C137.087 38.3999 134.4 35.7136 134.4 32.3999C134.4 31.7366 134.508 31.0984 134.707 30.5019ZM126.523 35.1092C127.292 34.6573 128.064 34.2093 128.839 33.7653L147 72L128 86L109 72L126.523 35.1092ZM16.7445 164.741C17.4286 162.949 18.1323 161.166 18.8552 159.393C19.8963 158.523 21.2366 158 22.6992 158C26.0129 158 28.6992 160.686 28.6992 164C28.6992 167.314 26.0129 170 22.6992 170C19.6364 170 17.1096 167.705 16.7445 164.741ZM203 72L222 86L241 72L222 32L203 72ZM240.1 32.3999C240.1 35.7136 237.413 38.3999 234.1 38.3999C230.786 38.3999 228.1 35.7136 228.1 32.3999C228.1 29.0862 230.786 26.3999 234.1 26.3999C237.413 26.3999 240.1 29.0862 240.1 32.3999ZM210.1 38.3999C213.413 38.3999 216.1 35.7136 216.1 32.3999C216.1 29.0862 213.413 26.3999 210.1 26.3999C206.786 26.3999 204.1 29.0862 204.1 32.3999C204.1 35.7136 206.786 38.3999 210.1 38.3999ZM228.1 20.3999C228.1 23.7136 225.413 26.3999 222.1 26.3999C218.786 26.3999 216.1 23.7136 216.1 20.3999C216.1 17.0862 218.786 14.3999 222.1 14.3999C225.413 14.3999 228.1 17.0862 228.1 20.3999ZM156 138L175 152L194 138L175 98L156 138ZM193.199 98.2002C193.199 101.514 190.513 104.2 187.199 104.2C183.886 104.2 181.199 101.514 181.199 98.2002C181.199 94.8865 183.886 92.2002 187.199 92.2002C190.513 92.2002 193.199 94.8865 193.199 98.2002ZM163.199 104.2C166.513 104.2 169.199 101.514 169.199 98.2002C169.199 94.8865 166.513 92.2002 163.199 92.2002C159.886 92.2002 157.199 94.8865 157.199 98.2002C157.199 101.514 159.886 104.2 163.199 104.2ZM181.199 86.2002C181.199 89.5139 178.513 92.2002 175.199 92.2002C171.886 92.2002 169.199 89.5139 169.199 86.2002C169.199 82.8865 171.886 80.2002 175.199 80.2002C178.513 80.2002 181.199 82.8865 181.199 86.2002ZM63 138L82 152L100 138L82 98L63 138ZM99.5 98.2002C99.5 101.514 96.8137 104.2 93.5 104.2C90.1863 104.2 87.5 101.514 87.5 98.2002C87.5 94.8865 90.1863 92.2002 93.5 92.2002C96.8137 92.2002 99.5 94.8865 99.5 98.2002ZM69.5 104.2C72.8137 104.2 75.5 101.514 75.5 98.2002C75.5 94.8865 72.8137 92.2002 69.5 92.2002C66.1863 92.2002 63.5 94.8865 63.5 98.2002C63.5 101.514 66.1863 104.2 69.5 104.2ZM87.5 86.2002C87.5 89.5139 84.8137 92.2002 81.5 92.2002C78.1863 92.2002 75.5 89.5139 75.5 86.2002C75.5 82.8865 78.1863 80.2002 81.5 80.2002C84.8137 80.2002 87.5 82.8865 87.5 86.2002ZM16 204L35 218L54 204L35 164L16 204ZM52.6992 164C52.6992 167.314 50.0129 170 46.6992 170C43.3855 170 40.6992 167.314 40.6992 164C40.6992 160.686 43.3855 158 46.6992 158C50.0129 158 52.6992 160.686 52.6992 164ZM40.6992 152C40.6992 155.314 38.0129 158 34.6992 158C31.3855 158 28.6992 155.314 28.6992 152C28.6992 148.686 31.3855 146 34.6992 146C38.0129 146 40.6992 148.686 40.6992 152ZM109 204L128 218L147 204L128 164L109 204ZM146.4 164C146.4 167.314 143.714 170 140.4 170C137.087 170 134.4 167.314 134.4 164C134.4 160.686 137.087 158 140.4 158C143.714 158 146.4 160.686 146.4 164ZM116.4 170C119.714 170 122.4 167.314 122.4 164C122.4 160.686 119.714 158 116.4 158C113.087 158 110.4 160.686 110.4 164C110.4 167.314 113.087 170 116.4 170ZM134.4 152C134.4 155.314 131.714 158 128.4 158C125.087 158 122.4 155.314 122.4 152C122.4 148.686 125.087 146 128.4 146C131.714 146 134.4 148.686 134.4 152ZM203 204L222 218L241 204L222 164L203 204ZM240.1 164C240.1 167.314 237.413 170 234.1 170C230.786 170 228.1 167.314 228.1 164C228.1 160.686 230.786 158 234.1 158C237.413 158 240.1 160.686 240.1 164ZM210.1 170C213.413 170 216.1 167.314 216.1 164C216.1 160.686 213.413 158 210.1 158C206.786 158 204.1 160.686 204.1 164C204.1 167.314 206.786 170 210.1 170ZM228.1 152C228.1 155.314 225.413 158 222.1 158C218.786 158 216.1 155.314 216.1 152C216.1 148.686 218.786 146 222.1 146C225.413 146 228.1 148.686 228.1 152Z" fill="#333333"/>
</g>
<defs>
<clipPath id="clip0_623_82253">
<rect width="512" height="512" fill="white"/>
</clipPath>
</defs>
</svg>
