<svg width="512" height="512" viewBox="0 0 512 512" fill="none" xmlns="http://www.w3.org/2000/svg">
<g clip-path="url(#clip0_623_82261)">
<circle cx="256" cy="256" r="256" fill="#0052B4"/>
<path d="M256 52L460 256L256 460L52 256L256 52Z" fill="#FCFCFC"/>
<path d="M232 463L244 164H268L280 463H232Z" fill="#85693D"/>
<path d="M293 172C324 158 335 149 383 150C343 132 306 127 275 150C284 127 302 96 334 73C279 82 252 109 248 141C234 109 193 96 148 96C198 123 184 123 221 159C189 154 153 168 117 209C166 182 189 191 221 195C206.804 204.063 195.435 216.927 188.187 232.13C180.939 247.333 178.103 264.265 180 281C216 236 211 249 257 209C275 249 297 258 306 295C315 258 306 218 288 204C324 218 356 227 374 254C365 191 324 182 293 172Z" fill="#6DA544"/>
</g>
<defs>
<clipPath id="clip0_623_82261">
<rect width="512" height="512" fill="white"/>
</clipPath>
</defs>
</svg>
