<svg width="512" height="512" viewBox="0 0 512 512" fill="none" xmlns="http://www.w3.org/2000/svg">
<g clip-path="url(#clip0_623_82280)">
<circle cx="256" cy="256" r="256" fill="#EEEEEE"/>
<path d="M288 1.98009C277.68 0.693195 267.169 0.0205877 256.505 -1.12122e-05L255.495 -1.1168e-05C244.831 0.0205887 234.32 0.693197 224 1.98009L224 224L1.98053 224C0.673354 234.483 -1.16638e-05 245.163 -1.11901e-05 256C-1.07164e-05 266.837 0.673397 277.517 1.98065 288L224 288L224 510.019C234.483 511.326 245.163 512 256 512C266.837 512 277.517 511.326 288 510.019L288 288L510.019 288C511.327 277.517 512 266.837 512 255.999C512 245.163 511.327 234.483 510.019 224L288 224L288 1.98009Z" fill="#D80027"/>
<path d="M256 104L212 180H125L168 256L125 332H212L256 408L300 332H387L344 256L387 180H300L256 104Z" fill="#818085"/>
<path d="M256 131L220 193H147L184 256L147 319H220L256 382L292 319H365L328 256L365 193H292L256 131Z" fill="#EEEEEE"/>
<path d="M259 195C254 195 254 200 254 200V239H251V206C251 206 251 200 246 200C240 200 240 206 240 206V241L237 242V217C237 217 237 211 232 211C226 211 226 217 226 217V260C226 270 231 280 238 286V307H274V290C283 285 290 276 292 265C292 259 294 254 296 249L300 235C300 235 301 230 296 228C291 226 289 231 289 231L281 250H278V203C278 203 278 198 273 198C267 198 267 203 267 203V239H265V200C265 200 265 195 259 195Z" fill="#D80027"/>
<path d="M245 38V49H234V71H245V92C239 86 231 83 223 83C216.362 82.9291 209.857 84.8618 204.334 88.5458C198.812 92.2297 194.529 97.4936 192.045 103.65C189.561 109.806 188.991 116.568 190.41 123.053C191.83 129.538 195.172 135.444 200 140V160H312V140C318 133 322 125 322 116C321.887 109.68 319.961 103.526 316.451 98.2694C312.942 93.0125 307.997 88.8741 302.203 86.3462C296.41 83.8183 290.013 83.0073 283.772 84.0095C277.532 85.0118 271.71 87.7852 267 92V71H278V49H267V38H245Z" fill="#FFC635"/>
</g>
<defs>
<clipPath id="clip0_623_82280">
<rect width="512" height="512" fill="white"/>
</clipPath>
</defs>
</svg>
