<svg width="512" height="512" viewBox="0 0 512 512" fill="none" xmlns="http://www.w3.org/2000/svg">
<g clip-path="url(#clip0_623_82314)">
<circle cx="256" cy="256" r="256" fill="#6DA544"/>
<path fill-rule="evenodd" clip-rule="evenodd" d="M509.409 292.562C511.116 280.621 512 268.414 512 256C512 243.58 511.116 231.367 509.406 219.419H2.59381C0.884454 231.367 0 243.58 0 256C0 268.414 0.883552 280.621 2.5912 292.562H509.409ZM487.373 365.696H24.6271C37.6472 393.11 55.3957 417.842 76.8188 438.839H435.181C456.604 417.842 474.353 393.11 487.373 365.696ZM24.6358 146.285H487.364C474.341 118.871 456.589 94.139 435.163 73.1426H76.8375C55.4108 94.139 37.6589 118.871 24.6358 146.285Z" fill="#EEEEEE"/>
<path fill-rule="evenodd" clip-rule="evenodd" d="M2.59253 219.429C20.3381 95.3675 127.032 0 256 0V219.429H2.59253Z" fill="#D80027"/>
<path d="M128.6 187.7L117.5 165.4V120.9L145.3 98.5999L173.1 120.9V154.3L184.3 143.1V165.4L162 187.7H128.6ZM68.7 119.4L71.7 128.4H81.2L73.5 134.1L76.5 143.1L68.7 137.5L61 143.1L64 134.1L56.3 128.5H65.8L68.7 119.4ZM91 97.0999L94 106.2H103.5L95.8 111.8L98.8 120.8L91 115.3L83.3 120.9L86.3 111.9L78.5 106.2H88L91 97.0999ZM113.3 74.8999L116.2 83.8999H125.7L118 89.5999L121 98.5999L113.3 92.9999L105.5 98.5999L108.5 89.5999L100.8 83.8999H110.3L113.3 74.8999ZM221.9 119.4L218.9 128.4H209.4L217.1 134.1L214.1 143.1L221.9 137.5L229.6 143.1L226.6 134.1L234.3 128.5H224.8L221.9 119.4ZM199.6 97.0999L196.6 106.2H187.1L194.8 111.8L191.8 120.8L199.6 115.3L207.3 120.9L204.3 111.9L212.1 106.2H202.5L199.6 97.0999ZM177.3 74.8999L174.3 83.8999H164.9L172.6 89.5999L169.6 98.5999L177.3 92.9999L185.1 98.5999L182.1 89.5999L189.8 83.8999H180.3L177.3 74.8999ZM145.3 63.7L142.3 72.7999H132.8L140.6 78.3999L137.6 87.3999L145.4 81.8999L153.1 87.4999L150.1 78.4999L157.9 72.7999H148.3L145.3 63.7Z" fill="#EEEEEE"/>
</g>
<defs>
<clipPath id="clip0_623_82314">
<rect width="512" height="512" fill="white"/>
</clipPath>
</defs>
</svg>
