<svg width="512" height="512" viewBox="0 0 512 512" fill="none" xmlns="http://www.w3.org/2000/svg">
<g clip-path="url(#clip0_623_82326)">
<g clip-path="url(#clip1_623_82326)">
<path d="M437.027 437.012L288.01 223.99L74.9884 74.9729C28.6569 121.3 -6.58579e-05 185.304 -6.89481e-05 256C-7.50866e-05 396.433 113.077 510.455 253.147 511.984L258.852 511.984C328.417 511.225 391.323 482.719 437.027 437.012Z" fill="#FFDA44"/>
<path d="M437.027 437.012L74.9885 74.9729C121.315 28.6505 185.312 -1.428e-05 256 -1.11901e-05C397.356 -5.01127e-06 511.953 114.568 512 255.912C512 255.941 512 255.971 512 256C512 256.029 512 256.059 512 256.088C511.976 326.741 483.33 390.704 437.027 437.012Z" fill="#6DA544"/>
</g>
<path d="M256 71.4241L297.44 198.963H431.542L323.051 277.786L364.491 405.325L256 326.502L147.509 405.325L188.949 277.786L80.4576 198.963H214.56L256 71.4241Z" fill="#D80027"/>
</g>
<defs>
<clipPath id="clip0_623_82326">
<rect width="512" height="512" fill="white"/>
</clipPath>
<clipPath id="clip1_623_82326">
<rect width="512" height="512" fill="white" transform="translate(512) rotate(90)"/>
</clipPath>
</defs>
</svg>
