<svg width="512" height="512" viewBox="0 0 512 512" fill="none" xmlns="http://www.w3.org/2000/svg">
<circle cx="256" cy="256" r="256" fill="#EEEEEE"/>
<path d="M288 1.98009C277.68 0.693195 267.169 0.0205877 256.505 -1.12122e-05L255.495 -1.1168e-05C244.831 0.0205887 234.32 0.693197 224 1.98009L224 224L1.98053 224C0.673354 234.483 -1.16638e-05 245.163 -1.11901e-05 256C-1.07164e-05 266.837 0.673397 277.517 1.98065 288L224 288L224 510.019C234.483 511.326 245.163 512 256 512C266.837 512 277.517 511.326 288 510.019L288 288L510.019 288C511.327 277.517 512 266.837 512 255.999C512 245.163 511.327 234.483 510.019 224L288 224L288 1.98009Z" fill="#D80027"/>
<path d="M328.348 267.13L345.043 278.261V233.739L328.348 244.87H267.13V183.652L278.261 166.957H233.739L244.87 183.652V244.87H183.652L166.957 233.739V278.261L183.652 267.13H244.87V328.348L233.739 345.043H278.261L267.13 328.348V267.13H328.348Z" fill="#FFDA44"/>
</svg>
