<svg width="512" height="512" viewBox="0 0 512 512" fill="none" xmlns="http://www.w3.org/2000/svg">
<path d="M482.19 376C501.219 340.208 512 299.363 512 256C512 212.637 501.219 171.792 482.19 136H29.8097C10.7813 171.792 0 212.637 0 256C0 299.363 10.7813 340.208 29.8097 376H482.19Z" fill="#EEEEEE"/>
<path d="M496.474 344C460.589 442.034 366.465 512 256 512C145.535 512 51.4116 442.034 15.5264 344H496.474Z" fill="#D80027"/>
<path d="M496.474 168H15.5264C51.4116 69.9657 145.535 0 256 0C366.465 0 460.589 69.9657 496.474 168Z" fill="#6DA544"/>
<path d="M0 245.585C2.66508 178.982 30.7761 118.927 74.8766 74.8767L256 256L74.8767 437.123C30.7761 393.073 2.66509 333.018 0 266.415V245.585Z" fill="#0052B4"/>
<path d="M300.521 211.478V267.13C300.521 301.21 345.043 311.653 345.043 311.653C345.043 311.653 389.565 301.21 389.565 267.13V211.478H300.521Z" fill="#BDBCC1"/>
<path d="M333.912 257.113H356.173V289.391H333.912V257.113Z" fill="#85693D"/>
<path d="M367.302 244.87C367.302 232.575 357.336 222.609 345.041 222.609C332.746 222.609 322.78 232.575 322.78 244.87C316.633 244.87 311.65 249.853 311.65 256C311.65 262.147 316.633 267.13 322.78 267.13H367.302C373.449 267.13 378.432 262.147 378.432 256C378.432 249.853 373.45 244.87 367.302 244.87Z" fill="#6DA544"/>
</svg>
