<svg width="512" height="512" viewBox="0 0 512 512" fill="none" xmlns="http://www.w3.org/2000/svg">
<path d="M128 477.752C165.654 499.534 209.371 512 256 512C302.629 512 346.346 499.534 384 477.752L384 34.2483C346.346 12.4665 302.629 -3.55685e-06 256 -5.59506e-06C209.371 -7.63327e-06 165.654 12.4665 128 34.2482L128 477.752Z" fill="#EEEEEE"/>
<path d="M-1.00613e-05 255.911C0.0345708 154.729 58.7696 67.2685 144 25.7354L144 486.264C58.7695 444.731 0.0345009 357.271 -4.05867e-05 256.089C-4.05854e-05 256.059 -4.05841e-05 256.03 -4.05828e-05 256C-4.05815e-05 255.97 -1.00626e-05 255.94 -1.00613e-05 255.911Z" fill="#338AF3"/>
<path d="M512 256C512 154.78 453.256 67.2808 368 25.7353L368 486.264C453.256 444.719 512 357.22 512 256Z" fill="#338AF3"/>
<path d="M318.963 193.037L295.352 216.648C305.423 226.719 311.653 240.632 311.653 256C311.653 286.736 286.736 311.652 256.001 311.652C225.266 311.652 200.348 286.736 200.348 256C200.348 240.632 206.578 226.719 216.649 216.648L193.038 193.037C176.923 209.149 166.957 231.41 166.957 256C166.957 305.178 206.823 345.043 256 345.043C305.177 345.043 345.043 305.177 345.043 256C345.043 231.411 335.077 209.15 318.963 193.037Z" fill="#6DA544"/>
<path d="M322.898 299.288L279.612 256.002L320.815 214.797L318.948 193.035L307.152 181.237L256 232.389L204.848 181.237L193.052 193.035L191.185 214.797L232.388 256.002L189.101 299.288L212.713 322.898L256 279.613L299.287 322.898L322.898 299.288Z" fill="#ACABB1"/>
</svg>
