<svg width="512" height="512" viewBox="0 0 512 512" fill="none" xmlns="http://www.w3.org/2000/svg">
<circle cx="256" cy="256" r="256" fill="#0052B4"/>
<path fill-rule="evenodd" clip-rule="evenodd" d="M256.077 1.11935e-05C309.578 0.0156622 359.243 16.4433 400.311 44.5219L111.689 44.5219C152.758 16.4432 202.423 0.0156575 255.924 1.11868e-05C255.949 3.7291e-06 255.975 0 256 0C256.026 0 256.051 3.73133e-06 256.077 1.11935e-05ZM256 512C309.53 512 359.223 495.57 400.31 467.479L111.69 467.479C152.778 495.57 202.47 512 256 512Z" fill="#D80027"/>
<path d="M241.513 417.597C238.015 414.597 155.826 343.149 155.826 256C155.826 168.851 238.014 97.4021 241.513 94.4031L256 81.9851L270.487 94.4021C273.985 97.4021 356.174 168.85 356.174 256C356.174 343.15 273.986 414.599 270.487 417.597L256 430.015L241.513 417.597Z" fill="#D80027"/>
<path d="M333.913 256C333.913 178.087 256 111.304 256 111.304C256 111.304 178.087 178.089 178.087 256C178.087 279.835 185.384 302.624 195.506 322.783H316.494C326.616 302.624 333.913 279.835 333.913 256Z" fill="#338AF3"/>
<path d="M333.913 256C333.913 279.835 326.616 302.624 316.494 322.783L256 333.913L195.506 322.783C185.384 302.625 178.087 279.835 178.087 256H333.913Z" fill="#0052B4"/>
<path d="M256 400.696C256 400.696 293.528 368.519 316.494 322.783H195.506C218.472 368.519 256 400.696 256 400.696Z" fill="#FFDA44"/>
<path d="M205.913 211.478H306.087L256 261.565L205.913 211.478Z" fill="#6DA544"/>
<path d="M239.304 244.87H272.695V345.044H239.304V244.87Z" fill="#A2001D"/>
</svg>
