<svg width="512" height="512" viewBox="0 0 512 512" fill="none" xmlns="http://www.w3.org/2000/svg">
<path d="M256 512C397.217 512 511.727 397.658 512 256.505V256L256 224L0.000488281 256C0.000488281 397.385 114.616 512 256 512Z" fill="#6DA544"/>
<path d="M512 255.495V256H0.000488281C0.000488281 114.615 114.616 0 256 0C397.217 0 511.727 114.342 512 255.495Z" fill="#FFDA44"/>
<path fill-rule="evenodd" clip-rule="evenodd" d="M189.217 503.202C80.2173 473.827 0 374.281 0 256C0 137.719 80.2173 38.1732 189.217 8.79834V503.202Z" fill="#D80027"/>
<path d="M94.6085 182.08L111.205 233.158H164.911L121.461 264.725L138.058 315.803L94.6085 284.235L51.1594 315.803L67.7555 264.725L24.3064 233.158H78.0124L94.6085 182.08Z" fill="#333333"/>
</svg>
