<svg width="512" height="512" viewBox="0 0 512 512" fill="none" xmlns="http://www.w3.org/2000/svg">
<circle cx="256" cy="256" r="256" fill="#6DA544"/>
<path fill-rule="evenodd" clip-rule="evenodd" d="M102.385 51.1924C40.2139 97.898 0 172.253 0 256C0 339.747 40.2139 414.102 102.385 460.807L512 256L102.385 51.1924Z" fill="#FFDA44"/>
<path fill-rule="evenodd" clip-rule="evenodd" d="M102.385 51.1924L512 256L102.385 460.807C94.9387 455.213 87.8074 449.223 81.0225 442.867L454.757 256L81.0225 69.1328C87.8074 62.7769 94.9387 56.7863 102.385 51.1924Z" fill="#EEEEEE"/>
<path fill-rule="evenodd" clip-rule="evenodd" d="M74.9808 74.9805C28.6538 121.307 0 185.307 0 256C0 326.692 28.6537 390.692 74.9805 437.019L256 256L74.9808 74.9805Z" fill="#D80027"/>
<path fill-rule="evenodd" clip-rule="evenodd" d="M74.9808 74.9805C68.9387 81.0226 63.1972 87.3653 57.7807 93.9843L219.796 256L57.7805 418.015C63.197 424.634 68.9385 430.977 74.9806 437.019L256 256L74.9808 74.9805Z" fill="#333333"/>
</svg>
