<svg width="512" height="512" viewBox="0 0 512 512" fill="none" xmlns="http://www.w3.org/2000/svg">
<g clip-path="url(#clip0_623_82427)">
<circle cx="256" cy="256" r="256" fill="#D80027"/>
<path d="M256 256C226.296 256 197.808 267.8 176.804 288.804C155.8 309.808 144 338.296 144 368C144 397.704 155.8 426.192 176.804 447.196C197.808 468.2 226.296 480 256 480C285.704 480 314.192 468.2 335.196 447.196C356.2 426.192 368 397.704 368 368C368 338.296 356.2 309.808 335.196 288.804C314.192 267.8 285.704 256 256 256Z" fill="#FFDA44"/>
<path d="M228.3 42V74L200.6 90L228.3 106V138L256 122L283.7 138V106L311.4 90L283.7 74V42L256 58L228.3 42Z" fill="#FFDA44"/>
<path fill-rule="evenodd" clip-rule="evenodd" d="M450.441 89.4733L450 93.0001L451.822 91.0985C460.487 101.377 468.357 112.348 475.338 123.916L463 141L497 175L443 190L462 172L438 155L414 172L433 190L379 175L413 141L400 123L388 149L383 122L397 105L385 72.0001L395 51.0001L401.995 45.6836C404.969 47.752 407.898 49.8819 410.778 52.0714L403 69.0001L426 93.0001L423 69.0001L425.769 64.3857C434.553 72.1744 442.798 80.558 450.441 89.4733ZM480.861 133.533C483.449 138.274 485.891 143.105 488.181 148.022L488 149L480.861 133.533ZM396.685 469.912C437.404 443.078 470.008 404.929 490.019 359.941L481 341L456 322L473 359L450 383L453 359L438 334L423 359L426 383L403 359L420 322L395 341L385 362L413 431L379 465L396.685 469.912Z" fill="#FFDA44"/>
<path fill-rule="evenodd" clip-rule="evenodd" d="M101.222 52.0714C104.102 49.8819 107.031 47.752 110.005 45.6836L117 51.0001L127 72.0001L115 105L129 122L124 149L112 123L99 141L133 175L79 190L98 172L74 155L50 172L69 190L15 175L49 141L36.6615 123.916C43.6426 112.348 51.5128 101.377 60.1777 91.0985L62 93.0001L61.5592 89.4733C69.2017 80.558 77.4468 72.1744 86.2314 64.3856L89 69.0001L86 93.0001L109 69.0001L101.222 52.0714ZM115.315 469.912C74.5957 443.078 41.9922 404.929 21.9806 359.941L31 341L56 322L39 359L62 383L59 359L74 334L89 359L86 383L109 359L92 322L117 341L127 362L99 431L133 465L115.315 469.912ZM23.8189 148.022C26.1093 143.105 28.5512 138.274 31.1387 133.533L24 149L23.8189 148.022Z" fill="#FFDA44"/>
</g>
<defs>
<clipPath id="clip0_623_82427">
<rect width="512" height="512" fill="white"/>
</clipPath>
</defs>
</svg>
