<svg width="512" height="512" viewBox="0 0 512 512" fill="none" xmlns="http://www.w3.org/2000/svg">
<g clip-path="url(#clip0_623_82453)">
<circle cx="256" cy="256" r="256" fill="#496E2D"/>
<path d="M228.998 172C228.036 171.611 226.96 171.611 225.998 172C220.998 177 207.998 189 204.998 208C199.998 233 213.998 260 238.998 275C239.818 275.441 240.765 275.582 241.678 275.4C242.591 275.217 243.411 274.722 243.998 274C244.37 273.557 244.641 273.039 244.794 272.482C244.946 271.924 244.976 271.34 244.881 270.769C244.786 270.199 244.568 269.656 244.243 269.178C243.918 268.7 243.493 268.298 242.998 268C220.998 254 208.998 231 212.998 209C215.998 193 226.998 182 231.998 179C232.424 178.625 232.765 178.163 232.998 177.646C233.232 177.128 233.352 176.567 233.352 176C233.352 175.432 233.232 174.871 232.998 174.354C232.765 173.837 232.424 173.375 231.998 173C231.592 172.638 231.117 172.363 230.601 172.191C230.085 172.019 229.54 171.954 228.998 172Z" fill="#FFDA44"/>
<path d="M283 172C282.458 171.954 281.913 172.019 281.397 172.191C280.881 172.363 280.406 172.638 280 173C279.628 173.443 279.357 173.961 279.204 174.519C279.052 175.076 279.022 175.66 279.117 176.231C279.212 176.801 279.43 177.344 279.755 177.822C280.08 178.3 280.505 178.702 281 179C285 183 296 193 299 209C303 231 292 254 269 268C268.505 268.298 268.08 268.7 267.755 269.178C267.43 269.656 267.212 270.199 267.117 270.77C267.022 271.34 267.052 271.924 267.204 272.482C267.357 273.039 267.628 273.557 268 274C268.587 274.723 269.407 275.218 270.32 275.4C271.233 275.583 272.18 275.441 273 275C298 260 312 233 307 208C304 189 291 177 286 173C285.594 172.638 285.119 172.363 284.603 172.191C284.087 172.019 283.542 171.954 283 172ZM255 176C255 176 243 182 243 194C243 206 262 218 262 227C262 237 253 240 253 240V262H259V243C259 243 278 234 271 208C266 190 255 194 255 176Z" fill="#EEEEEE"/>
<path d="M179 300L191 344L256 376L321 344L333 300H179Z" fill="#0052B4"/>
<path d="M243 267L227 287L222 278H190L180 300H333L322 278H290L285 287L269 267H256H243Z" fill="#333333"/>
<path d="M256 141C232 141 210 154 194 175C178 196 169 224 169 256C169 269 170 282 173 294L160 308C168.045 331.825 181.439 352.117 198.511 366.343C215.583 380.57 235.577 388.102 256 388C276.423 388.102 296.417 380.57 313.489 366.343C330.561 352.117 343.955 331.825 352 308L339 294C342 282 344 269 344 256C344 224 334 196 318 175C311.017 164.906 301.778 156.578 291.016 150.676C280.254 144.774 268.265 141.461 256 141ZM256 148C278 148 298 159 313 179C328.699 201.608 337.113 228.475 337.113 256C337.113 283.525 328.699 310.392 313 333C306.758 342.51 298.321 350.381 288.402 355.95C278.482 361.519 267.37 364.623 256 365C234 365 214 353 199 333C185 314 176 286 176 256C176 226 185 199 199 179C214 159 234 148 256 148Z" fill="#FFDA44"/>
<path d="M260 264C260 261.791 258.209 260 256 260C253.791 260 252 261.791 252 264V283C252 285.209 253.791 287 256 287C258.209 287 260 285.209 260 283V264Z" fill="#D80027"/>
</g>
<defs>
<clipPath id="clip0_623_82453">
<rect width="512" height="512" fill="white"/>
</clipPath>
</defs>
</svg>
