<svg width="512" height="512" viewBox="0 0 512 512" fill="none" xmlns="http://www.w3.org/2000/svg">
<g clip-path="url(#clip0_623_82478)">
<path d="M481.933 376.483C438.838 457.128 353.827 512 256 512C158.173 512 73.1627 457.128 30.0674 376.483L256 320L481.933 376.483Z" fill="#EEEEEE"/>
<path d="M477.752 384C499.534 346.346 512 302.629 512 256L256 192L0 256C0 302.629 12.4665 346.346 34.2482 384H477.752Z" fill="#D80027"/>
<path d="M471.592 117.898C497.168 157.741 512 205.139 512 256H0C0 205.139 14.8325 157.741 40.4079 117.898L256 64L471.592 117.898Z" fill="#EEEEEE"/>
<path d="M477.752 128H34.248C78.5117 51.4814 161.244 0 256 0C350.756 0 433.488 51.4814 477.752 128Z" fill="#D80027"/>
</g>
<defs>
<clipPath id="clip0_623_82478">
<rect width="512" height="512" fill="white"/>
</clipPath>
</defs>
</svg>
