<svg width="512" height="512" viewBox="0 0 512 512" fill="none" xmlns="http://www.w3.org/2000/svg">
<g clip-path="url(#clip0_623_82504)">
<path d="M256 512C397.217 512 511.727 397.658 512 256.505V256L256 224L0.000488281 256C0.000488281 397.385 114.616 512 256 512Z" fill="#338AF3"/>
<path d="M512 255.495V256H0.000488281C0.000488281 114.615 114.616 0 256 0C397.217 0 511.727 114.342 512 255.495Z" fill="#EEEEEE"/>
<path d="M256 384C326.692 384 384 326.692 384 256C384 185.308 326.692 128 256 128C185.308 128 128 185.308 128 256C128 326.692 185.308 384 256 384Z" fill="#D80027"/>
</g>
<defs>
<clipPath id="clip0_623_82504">
<rect width="512" height="512" fill="white"/>
</clipPath>
</defs>
</svg>
