<svg width="512" height="512" viewBox="0 0 512 512" fill="none" xmlns="http://www.w3.org/2000/svg">
<g clip-path="url(#clip0_623_82482)">
<path fill-rule="evenodd" clip-rule="evenodd" d="M441.289 79.3529L256 96L70.7109 79.3529C117.334 30.4634 183.11 0 256 0C328.891 0 394.666 30.4634 441.289 79.3529Z" fill="#D80027"/>
<path fill-rule="evenodd" clip-rule="evenodd" d="M488.234 148.135L256 169L23.7661 148.135C36.8929 119.921 55.01 94.4978 76.9831 73L435.017 73C456.99 94.4978 475.107 119.921 488.234 148.135Z" fill="#EEEEEE"/>
<path fill-rule="evenodd" clip-rule="evenodd" d="M509.38 219.235L256 242L2.62012 219.235C6.33957 193.373 13.9249 168.76 24.7715 146L487.228 146C498.075 168.76 505.66 193.373 509.38 219.235Z" fill="#333333"/>
<path fill-rule="evenodd" clip-rule="evenodd" d="M509.312 293.231C511.083 281.077 512 268.645 512 256C512 243.435 511.095 231.081 509.346 219L2.65418 219C0.905281 231.081 0 243.435 0 256C0 268.645 0.916858 281.077 2.68772 293.231L256 315L509.312 293.231Z" fill="#FFDA44"/>
<path fill-rule="evenodd" clip-rule="evenodd" d="M25.895 368.326C14.4815 344.989 6.51374 319.66 2.6543 293L509.346 293C505.487 319.66 497.519 344.989 486.105 368.326L256 389L25.895 368.326Z" fill="#4A1F63"/>
<path fill-rule="evenodd" clip-rule="evenodd" d="M85.1499 446.65C60.0589 424.15 39.435 396.769 24.7715 366L487.228 366C472.565 396.769 451.941 424.15 426.85 446.65L256 462L85.1499 446.65Z" fill="#338AF3"/>
<path fill-rule="evenodd" clip-rule="evenodd" d="M435.017 439C388.857 484.162 325.679 512 256 512C186.321 512 123.143 484.162 76.9832 439L435.017 439Z" fill="#6DA544"/>
</g>
<defs>
<clipPath id="clip0_623_82482">
<rect width="512" height="512" fill="white"/>
</clipPath>
</defs>
</svg>
