<svg width="512" height="512" viewBox="0 0 512 512" fill="none" xmlns="http://www.w3.org/2000/svg">
<g clip-path="url(#clip0_623_82519)">
<path d="M29.8096 136C10.7813 171.792 -1.42816e-05 212.637 -1.04907e-05 256C-6.69983e-06 299.363 10.7813 340.208 29.8097 376L482.19 376C501.219 340.208 512 299.363 512 256C512 212.637 501.219 171.792 482.19 136L29.8096 136Z" fill="#EEEEEE"/>
<path d="M15.5262 168C51.4115 69.9657 145.535 3.068e-05 256 2.10229e-05C366.465 1.13657e-05 460.589 69.9657 496.474 168L15.5262 168Z" fill="#D80027"/>
<path d="M15.526 344L496.474 344C460.588 442.034 366.465 512 256 512C145.535 512 51.4112 442.034 15.526 344Z" fill="#6DA544"/>
<path d="M256 95.9L275.4 179.5L331.5 114.5L309.9 197.5L389.7 166.1L332 229.6L417.3 238.8L336.6 268.1L408 316L323 304.5L363.8 380L293.8 330.3L295 416L256 339.6L217.1 416L218.3 330.2L148.3 379.9L189.1 304.4L104.1 315.9L175.4 268L94.7 238.7L180 229.4L122.3 166L202.1 197.5L180.5 114.4L236.5 179.4L256 95.9Z" fill="#FFC635"/>
</g>
<defs>
<clipPath id="clip0_623_82519">
<rect width="512" height="512" fill="white"/>
</clipPath>
</defs>
</svg>
