<svg width="512" height="512" viewBox="0 0 512 512" fill="none" xmlns="http://www.w3.org/2000/svg">
<g clip-path="url(#clip0_623_82567)">
<circle cx="256" cy="256" r="256" fill="#6DA544"/>
<path d="M253.9 161.3C247.628 149.879 245.071 136.788 246.583 123.846C248.094 110.905 253.6 98.7558 262.335 89.0877C271.07 79.4197 282.6 72.713 295.322 69.8999C308.044 67.0868 321.327 68.3071 333.324 73.391C345.321 78.475 355.435 87.1701 362.263 98.2678C369.09 109.365 372.29 122.314 371.419 135.315C370.547 148.315 365.647 160.721 357.4 170.808C349.153 180.895 337.968 188.163 325.4 191.6C321.01 193.041 316.963 195.369 313.511 198.439C310.058 201.51 307.274 205.258 305.332 209.45C303.389 213.642 302.329 218.189 302.218 222.808C302.106 227.426 302.946 232.019 304.684 236.3C306.423 240.581 309.023 244.458 312.323 247.692C315.623 250.925 319.553 253.446 323.869 255.096C328.184 256.747 332.793 257.492 337.409 257.286C342.024 257.081 346.548 255.928 350.7 253.9C362.121 247.629 375.212 245.071 388.153 246.583C401.095 248.095 413.244 253.601 422.912 262.335C432.58 271.07 439.287 282.6 442.1 295.322C444.913 308.045 443.693 321.327 438.609 333.324C433.525 345.321 424.83 355.436 413.732 362.263C402.634 369.09 389.685 372.29 376.685 371.419C363.685 370.548 351.279 365.648 341.192 357.4C331.104 349.153 323.837 337.968 320.4 325.4C318.959 321.01 316.631 316.963 313.561 313.511C310.49 310.059 306.742 307.275 302.55 305.332C298.358 303.389 293.811 302.329 289.192 302.218C284.573 302.106 279.981 302.946 275.7 304.684C271.419 306.423 267.542 309.023 264.308 312.323C261.075 315.624 258.554 319.553 256.904 323.869C255.253 328.184 254.508 332.793 254.713 337.409C254.919 342.025 256.072 346.549 258.1 350.7C264.371 362.121 266.929 375.212 265.417 388.154C263.905 401.095 258.399 413.244 249.664 422.912C240.93 432.58 229.4 439.287 216.678 442.1C203.955 444.913 190.673 443.693 178.676 438.609C166.679 433.525 156.564 424.83 149.737 413.732C142.91 402.635 139.709 389.686 140.581 376.685C141.452 363.685 146.352 351.279 154.6 341.192C162.847 331.105 174.032 323.837 186.6 320.4C190.99 318.959 195.037 316.631 198.489 313.561C201.941 310.49 204.725 306.742 206.668 302.55C208.611 298.358 209.671 293.812 209.782 289.193C209.893 284.574 209.054 279.981 207.315 275.7C205.577 271.42 202.977 267.542 199.677 264.308C196.376 261.075 192.446 258.555 188.131 256.904C183.816 255.253 179.207 254.508 174.591 254.714C169.975 254.919 165.451 256.072 161.3 258.1C149.879 264.371 136.788 266.929 123.846 265.417C110.905 263.906 98.7555 258.4 89.0875 249.665C79.4194 240.93 72.7128 229.4 69.8997 216.678C67.0866 203.955 68.3068 190.673 73.3908 178.676C78.4747 166.679 87.1698 156.564 98.2675 149.737C109.365 142.91 122.314 139.71 135.315 140.581C148.315 141.453 160.721 146.353 170.808 154.6C180.895 162.847 188.163 174.032 191.6 186.6C193.04 190.99 195.368 195.037 198.439 198.489C201.51 201.941 205.258 204.725 209.45 206.668C213.642 208.611 218.188 209.671 222.807 209.782C227.426 209.894 232.019 209.054 236.3 207.316C240.58 205.577 244.458 202.977 247.691 199.677C250.925 196.377 253.445 192.447 255.096 188.131C256.746 183.816 257.492 179.207 257.286 174.591C257.081 169.976 255.928 165.451 253.9 161.3Z" fill="#EEEEEE"/>
</g>
<defs>
<clipPath id="clip0_623_82567">
<rect width="512" height="512" fill="white"/>
</clipPath>
</defs>
</svg>
