<svg width="512" height="512" viewBox="0 0 512 512" fill="none" xmlns="http://www.w3.org/2000/svg">
<g clip-path="url(#clip0_623_82561)">
<circle cx="256" cy="256" r="256" fill="#D80027"/>
<path d="M288 1.98009C277.68 0.693195 267.169 0.0205877 256.505 -1.12122e-05L255.495 -1.1168e-05C244.831 0.0205887 234.32 0.693197 224 1.98009L224 224L1.98053 224C0.673354 234.483 -1.16638e-05 245.163 -1.11901e-05 256C-1.07164e-05 266.837 0.673397 277.517 1.98065 288L224 288L224 510.019C234.483 511.326 245.163 512 256 512C266.837 512 277.517 511.326 288 510.019L288 288L510.019 288C511.327 277.517 512 266.837 512 255.999C512 245.163 511.327 234.483 510.019 224L288 224L288 1.98009Z" fill="#EEEEEE"/>
<path fill-rule="evenodd" clip-rule="evenodd" d="M256 480C379.712 480 480 379.712 480 256C480 132.288 379.712 32 256 32C132.288 32 32 132.288 32 256C32 379.712 132.288 480 256 480ZM256 512C397.385 512 512 397.385 512 256C512 114.615 397.385 0 256 0C114.615 0 0 114.615 0 256C0 397.385 114.615 512 256 512Z" fill="#0052B4"/>
<path d="M432 176L400 112H112L80 176H144L124 136H244L224 176H288L268 136H388L368 176H432Z" fill="#0052B4"/>
</g>
<defs>
<clipPath id="clip0_623_82561">
<rect width="512" height="512" fill="white"/>
</clipPath>
</defs>
</svg>
