<svg width="512" height="512" viewBox="0 0 512 512" fill="none" xmlns="http://www.w3.org/2000/svg">
<g clip-path="url(#clip0_623_82619)">
<circle cx="256" cy="256" r="256" fill="#0052B4"/>
<path d="M144 126V267V362C144 370.837 151.163 378 160 378H239.969C248.418 378 255.411 384.569 255.938 393.002L256 394L256.062 393.002C256.589 384.569 263.582 378 272.031 378H352C360.837 378 368 370.837 368 362V267V126H144Z" fill="#EEEEEE"/>
<path d="M330.7 229.597C320.2 229.597 314.7 226.297 309.9 223.397C305.4 220.697 301.6 218.397 293.3 218.397C285 218.397 281.3 220.697 276.7 223.397C271.9 226.397 266.4 229.597 256 229.597C245.6 229.597 240.1 226.297 235.3 223.397C230.8 220.697 226.9 218.397 218.7 218.397C210.5 218.397 206.6 220.697 202.1 223.397C197.2 226.397 191.8 229.597 181.3 229.597C173.923 229.732 166.688 227.564 160.6 223.397C156.1 220.697 152.2 218.397 144 218.397L136 214.397L144 210.397C154.4 210.397 159.9 213.697 164.7 216.597C169.2 219.297 173.1 221.597 181.3 221.597C189.5 221.597 193.4 219.297 197.9 216.597C202.8 213.597 208.2 210.397 218.7 210.397C229.1 210.397 234.6 213.697 239.4 216.597C243.9 219.297 247.8 221.597 256 221.597C264.2 221.597 268.1 219.297 272.6 216.597C277.4 213.597 282.9 210.397 293.3 210.397C303.8 210.397 309.3 213.697 314.1 216.597C318.6 219.297 322.4 221.597 330.7 221.597C339 221.597 342.7 219.297 347.3 216.597C352.1 213.597 357.6 210.397 368 210.397L376 214.397L368 218.397C359.8 218.397 355.9 220.697 351.4 223.397C346.6 226.397 341.1 229.597 330.7 229.597ZM330.7 253.597C320.2 253.597 314.7 250.297 309.9 247.397C305.4 244.697 301.6 242.397 293.3 242.397C285 242.397 281.3 244.697 276.7 247.397C271.9 250.397 266.4 253.597 256 253.597C245.6 253.597 240.1 250.297 235.3 247.397C230.8 244.697 226.9 242.397 218.7 242.397C210.5 242.397 206.6 244.697 202.1 247.397C197.2 250.397 191.8 253.597 181.3 253.597C173.923 253.732 166.688 251.564 160.6 247.397C156.1 244.697 152.2 242.397 144 242.397L136 238.397L144 234.397C154.4 234.397 159.9 237.697 164.7 240.597C169.2 243.297 173.1 245.597 181.3 245.597C189.5 245.597 193.4 243.297 197.9 240.597C202.8 237.597 208.2 234.397 218.7 234.397C229.1 234.397 234.6 237.697 239.4 240.597C243.9 243.297 247.8 245.597 256 245.597C264.2 245.597 268.1 243.297 272.6 240.597C277.4 237.597 282.9 234.397 293.3 234.397C303.8 234.397 309.3 237.697 314.1 240.597C318.6 243.297 322.4 245.597 330.7 245.597C339 245.597 342.7 243.297 347.3 240.597C352.1 237.597 357.6 234.397 368 234.397L376 238.397L368 242.397C359.8 242.397 355.9 244.697 351.4 247.397C346.6 250.397 341.1 253.597 330.7 253.597ZM330.7 277.597C320.2 277.597 314.7 274.297 309.9 271.397C305.4 268.697 301.6 266.397 293.3 266.397C285 266.397 281.3 268.697 276.7 271.397C271.9 274.397 266.4 277.597 256 277.597C245.6 277.597 240.1 274.297 235.3 271.397C230.8 268.697 226.9 266.397 218.7 266.397C210.5 266.397 206.6 268.697 202.1 271.397C197.2 274.397 191.8 277.597 181.3 277.597C173.923 277.732 166.688 275.564 160.6 271.397C156.1 268.697 152.2 266.397 144 266.397L136 262.397L144 258.397C154.4 258.397 159.9 261.697 164.7 264.597C169.2 267.297 173.1 269.597 181.3 269.597C189.5 269.597 193.4 267.297 197.9 264.597C202.8 261.597 208.2 258.397 218.7 258.397C229.1 258.397 234.6 261.697 239.4 264.597C243.9 267.297 247.8 269.597 256 269.597C264.2 269.597 268.1 267.297 272.6 264.597C277.4 261.597 282.9 258.397 293.3 258.397C303.8 258.397 309.3 261.697 314.1 264.597C318.6 267.297 322.4 269.597 330.7 269.597C339 269.597 342.7 267.297 347.3 264.597C352.1 261.597 357.6 258.397 368 258.397L376 262.397L368 266.397C359.8 266.397 355.9 268.697 351.4 271.397C346.6 274.397 341.1 277.597 330.7 277.597ZM330.7 301.597C320.2 301.597 314.7 298.297 309.9 295.397C305.4 292.697 301.6 290.397 293.3 290.397C285 290.397 281.3 292.697 276.7 295.397C271.9 298.397 266.4 301.597 256 301.597C245.6 301.597 240.1 298.297 235.3 295.397C230.8 292.697 226.9 290.397 218.7 290.397C210.5 290.397 206.6 292.697 202.1 295.397C197.2 298.397 191.8 301.597 181.3 301.597C173.923 301.732 166.688 299.564 160.6 295.397C156.1 292.697 152.2 290.397 144 290.397L136 286.397L144 282.397C154.4 282.397 159.9 285.697 164.7 288.597C169.2 291.297 173.1 293.597 181.3 293.597C189.5 293.597 193.4 291.297 197.9 288.597C202.8 285.597 208.2 282.397 218.7 282.397C229.1 282.397 234.6 285.697 239.4 288.597C243.9 291.297 247.8 293.597 256 293.597C264.2 293.597 268.1 291.297 272.6 288.597C277.4 285.597 282.9 282.397 293.3 282.397C303.8 282.397 309.3 285.697 314.1 288.597C318.6 291.297 322.4 293.597 330.7 293.597C339 293.597 342.7 291.297 347.3 288.597C352.1 285.597 357.6 282.397 368 282.397L376 286.397L368 290.397C359.8 290.397 355.9 292.697 351.4 295.397C346.6 298.397 341.1 301.597 330.7 301.597Z" fill="#0052B4"/>
</g>
<defs>
<clipPath id="clip0_623_82619">
<rect width="512" height="512" fill="white"/>
</clipPath>
</defs>
</svg>
