<svg width="512" height="512" viewBox="0 0 512 512" fill="none" xmlns="http://www.w3.org/2000/svg">
<g clip-path="url(#clip0_623_82628)">
<circle cx="256" cy="256" r="256" fill="#EEEEEE"/>
<path d="M288 1.98009C277.68 0.693195 267.169 0.0205877 256.505 -1.12122e-05L255.495 -1.1168e-05C244.831 0.0205887 234.32 0.693197 224 1.98009L224 224L1.98053 224C0.673354 234.483 -1.16638e-05 245.163 -1.11901e-05 256C-1.07164e-05 266.837 0.673397 277.517 1.98065 288L224 288L224 510.019C234.483 511.326 245.163 512 256 512C266.837 512 277.517 511.326 288 510.019L288 288L510.019 288C511.327 277.517 512 266.837 512 255.999C512 245.163 511.327 234.483 510.019 224L288 224L288 1.98009Z" fill="#D80027"/>
<path d="M373.59 312.35C353.29 312.35 335.59 326.05 330.49 345.65L373.59 356.85L416.69 345.65C414.209 336.11 408.63 327.663 400.83 321.636C393.029 315.609 383.448 312.343 373.59 312.35ZM329.09 412.45L384.69 423.65V399.95C400.39 395.95 412.69 383.55 416.69 367.95L373.59 356.85H317.89L329.09 390.25V412.45Z" fill="#333333"/>
<path d="M416.69 345.65H317.89V390.25H329.09V367.95H416.69C418.578 360.636 418.578 352.963 416.69 345.65Z" fill="#ACABB1"/>
<path d="M373.59 88.3501C353.29 88.3501 335.59 102.05 330.49 121.65L373.59 132.85L416.69 121.65C414.209 112.11 408.63 103.663 400.83 97.6361C393.029 91.6091 383.448 88.3429 373.59 88.3501ZM329.09 188.45L384.69 199.65V175.95C400.39 171.95 412.69 159.55 416.69 143.95L373.59 132.85H317.89L329.09 166.25V188.45Z" fill="#333333"/>
<path d="M416.69 121.65H317.89V166.25H329.09V143.95H416.69C418.578 136.636 418.578 128.963 416.69 121.65Z" fill="#ACABB1"/>
<path d="M149.59 312.35C129.29 312.35 111.59 326.05 106.49 345.65L149.59 356.85L192.69 345.65C190.209 336.11 184.63 327.663 176.83 321.636C169.029 315.609 159.448 312.343 149.59 312.35ZM105.09 412.45L160.69 423.65V399.95C176.39 395.95 188.69 383.55 192.69 367.95L149.59 356.85H93.8901L105.09 390.25V412.45Z" fill="#333333"/>
<path d="M192.69 345.65H93.8901V390.25H105.09V367.95H192.69C194.578 360.636 194.578 352.963 192.69 345.65Z" fill="#ACABB1"/>
<path d="M149.59 88.3501C129.29 88.3501 111.59 102.05 106.49 121.65L149.59 132.85L192.69 121.65C190.209 112.11 184.63 103.663 176.83 97.6361C169.029 91.6091 159.448 88.3429 149.59 88.3501ZM105.09 188.45L160.69 199.65V175.95C176.39 171.95 188.69 159.55 192.69 143.95L149.59 132.85H93.8901L105.09 166.25V188.45Z" fill="#333333"/>
<path d="M192.69 121.65H93.8901V166.25H105.09V143.95H192.69C194.578 136.636 194.578 128.963 192.69 121.65Z" fill="#ACABB1"/>
</g>
<defs>
<clipPath id="clip0_623_82628">
<rect width="512" height="512" fill="white"/>
</clipPath>
</defs>
</svg>
