<svg width="512" height="512" viewBox="0 0 512 512" fill="none" xmlns="http://www.w3.org/2000/svg">
<g clip-path="url(#clip0_623_82625)">
<g clip-path="url(#clip1_623_82625)">
<path d="M74.9726 74.9885L223.99 288.01L437.011 437.027C483.343 390.7 512 326.696 512 256C512 115.567 398.923 1.54472 258.852 0.0155254L253.147 0.0155257C183.583 0.774989 120.676 29.2809 74.9726 74.9885Z" fill="#D80027"/>
<path d="M74.9728 74.9885L437.012 437.027C390.685 483.349 326.688 512 256 512C114.644 512 0.0474862 397.432 3.57087e-06 256.088C-6.26824e-06 256.059 -1.11888e-05 256.029 -1.11901e-05 256C-1.11914e-05 255.971 -6.27849e-06 255.941 3.54783e-06 255.912C0.0237201 185.259 28.6697 121.296 74.9728 74.9885Z" fill="#FFDA44"/>
</g>
<g clip-path="url(#clip2_623_82625)">
<path d="M403.4 160L365.6 193.7L387.2 288.1C388.421 293.361 388.19 298.855 386.531 303.994C384.871 309.134 381.846 313.726 377.779 317.279C373.712 320.833 368.756 323.214 363.44 324.169C358.125 325.124 352.65 324.616 347.6 322.7L347 322.4L256 287.4L196.2 312.6L189.9 315.2L196.4 318.5L277.6 358.3L271.6 424.3L271.5 426.3C271.303 427.022 270.966 427.699 270.507 428.291C270.049 428.883 269.479 429.378 268.829 429.75C268.179 430.121 267.462 430.361 266.719 430.455C265.976 430.55 265.222 430.497 264.5 430.3C263.778 430.103 263.101 429.766 262.51 429.307C261.918 428.849 261.422 428.278 261.05 427.628C260.679 426.978 260.439 426.262 260.345 425.519C260.25 424.776 260.303 424.022 260.5 423.3L250.5 373.8L157.9 345.3C152.707 343.761 148.033 340.831 144.384 336.827C140.736 332.823 138.252 327.897 137.202 322.583C136.152 317.269 136.574 311.769 138.425 306.678C140.275 301.587 143.483 297.099 147.7 293.7L148.2 293.3L224 232L232.1 167.6L233 160.8L226.9 164.8L151.9 215.3L97.5002 177L96.0002 176C95.3633 175.503 94.8392 174.877 94.4626 174.163C94.0861 173.448 93.8657 172.662 93.816 171.856C93.7663 171.05 93.8885 170.242 94.1744 169.487C94.4604 168.732 94.9036 168.046 95.4747 167.475C96.0458 166.903 96.7317 166.46 97.487 166.174C98.2423 165.888 99.0497 165.766 99.8558 165.816C100.662 165.866 101.448 166.086 102.163 166.462C102.877 166.839 103.504 167.363 104 168L152 184L223 118.1C226.934 114.395 231.804 111.834 237.086 110.692C242.368 109.55 247.861 109.871 252.974 111.62C258.087 113.369 262.626 116.48 266.102 120.617C269.578 124.755 271.859 129.762 272.7 135.1V135.7L288 232L339.7 271.2L345.2 275.4L344.7 268.1L338.6 177.8L398.8 149.9L400.5 149.2C401.247 148.886 402.053 148.735 402.863 148.758C403.673 148.78 404.469 148.974 405.198 149.329C405.927 149.683 406.572 150.188 407.09 150.812C407.608 151.435 407.988 152.162 408.203 152.943C408.418 153.724 408.464 154.543 408.337 155.343C408.211 156.144 407.916 156.908 407.471 157.585C407.026 158.263 406.441 158.837 405.757 159.271C405.072 159.705 404.303 159.987 403.5 160.1L403.4 160Z" fill="#EEEEEE"/>
<path d="M281.2 307.2C273.342 295.479 269.613 281.476 270.6 267.4C314.6 247.1 337.2 196.4 321.3 149.4L291 159.7C295.983 174.43 295.433 190.471 289.452 204.826C283.471 219.18 272.468 230.866 258.5 237.7C239.145 224.07 215.44 218.063 191.93 220.831C168.42 223.599 146.759 234.947 131.1 252.7L155.1 273.9C165.292 262.147 179.438 254.538 194.861 252.511C210.285 250.484 225.917 254.18 238.8 262.9C236.764 284.77 242.346 306.672 254.6 324.9C261.551 335.428 270.522 344.472 280.993 351.51C291.463 358.548 303.226 363.439 315.6 365.9L321.9 334.4C313.655 332.779 305.814 329.541 298.828 324.873C291.842 320.204 285.851 314.197 281.2 307.2Z" fill="#FF9811"/>
</g>
</g>
<defs>
<clipPath id="clip0_623_82625">
<rect width="512" height="512" fill="white"/>
</clipPath>
<clipPath id="clip1_623_82625">
<rect width="512" height="512" fill="white" transform="translate(0 512) rotate(-90)"/>
</clipPath>
<clipPath id="clip2_623_82625">
<rect width="512" height="512" fill="white"/>
</clipPath>
</defs>
</svg>
