<svg width="512" height="512" viewBox="0 0 512 512" fill="none" xmlns="http://www.w3.org/2000/svg">
<g clip-path="url(#clip0_623_82679)">
<path fill-rule="evenodd" clip-rule="evenodd" d="M194.887 7.34009C205.744 4.68071 216.874 2.71391 228.226 1.4892L260 211L228 422H196L164 211L194.887 7.34009Z" fill="#EEEEEE"/>
<path fill-rule="evenodd" clip-rule="evenodd" d="M88.9604 450C34.4863 403.054 0 333.554 0 256C0 135.278 83.5616 34.0735 196 7.07013V450H88.9604Z" fill="#496E2D"/>
<path fill-rule="evenodd" clip-rule="evenodd" d="M35.4765 125.9C42.1783 114.564 49.729 103.791 58.0413 93.6662L97.9999 185L147 73L178 87L116 225L178 363L147 377L97.9999 265L48.9999 377L24.8068 366.074C23.3794 363.081 22.0083 360.057 20.6951 357.001L79.9999 225L35.4765 125.9Z" fill="#EEEEEE"/>
<path d="M98 80L81 96L65 224L81 354L98 370L115 354L130 223L115 96L98 80Z" fill="#EEEEEE"/>
<path d="M154 148L144 224L154 302C167.783 278.631 175.356 252.123 176 225C176 197 166 171 154 148ZM42 148L51 222L42 302C28.2173 278.631 20.6438 252.123 20 225C20 197 30 171 42 148Z" fill="#333333"/>
<path d="M42 148V302C52.8503 320.846 65.9459 338.307 81 354V96C70 108 55 126 42 148ZM154 148C143.15 129.154 130.054 111.693 115 96V354C126 342 141 324 154 302V148Z" fill="#A2001D"/>
<path fill-rule="evenodd" clip-rule="evenodd" d="M450.891 422C488.998 377.304 512 319.338 512 256C512 114.615 397.385 0 256 0C246.538 0 237.196 0.513337 228 1.51368V422H450.891Z" fill="#D80027"/>
<path fill-rule="evenodd" clip-rule="evenodd" d="M467.077 400.895C420.924 468 343.6 512 256 512C184.528 512 119.896 482.711 73.4541 435.48L85.9999 433L161 441L216 390L257 408L363 352L467.077 400.895Z" fill="#333333"/>
</g>
<defs>
<clipPath id="clip0_623_82679">
<rect width="512" height="512" fill="white"/>
</clipPath>
</defs>
</svg>
