<svg width="512" height="512" viewBox="0 0 512 512" fill="none" xmlns="http://www.w3.org/2000/svg">
<path d="M481.933 376.483C438.837 457.128 353.827 512 256 512C158.173 512 73.1625 457.128 30.0671 376.483L256 320L481.933 376.483Z" fill="#0052B4"/>
<path d="M477.752 384C499.534 346.346 512 302.629 512 256L256 192L0 256C0 302.629 12.4665 346.346 34.2482 384H477.752Z" fill="#D80027"/>
<path d="M471.592 117.898C497.168 157.741 512 205.139 512 256H0C0 205.139 14.8325 157.741 40.4079 117.898L256 64L471.592 117.898Z" fill="#EEEEEE"/>
<path d="M477.752 128H34.2483C78.5119 51.4814 161.244 0 256 0C350.756 0 433.488 51.4814 477.752 128Z" fill="#FFC635"/>
<path d="M0 245.585C2.66508 178.982 30.7761 118.927 74.8766 74.8767L256 256L74.8767 437.123C30.7761 393.073 2.66509 333.018 0 266.415V245.585Z" fill="#6DA544"/>
<path d="M67.5251 255.259C67.5251 217.961 93.7381 186.802 128.742 179.158C123.362 177.983 117.78 177.346 112.046 177.346C69.0151 177.346 34.1331 212.228 34.1331 255.259C34.1331 298.29 69.0151 333.172 112.046 333.172C117.779 333.172 123.361 332.535 128.742 331.36C93.7381 323.715 67.5251 292.557 67.5251 255.259Z" fill="#EEEEEE"/>
<path d="M127.883 188.476L132.028 201.23H145.438L134.588 209.113L138.733 221.867L127.883 213.985L117.033 221.867L121.178 209.113L110.328 201.23H123.738L127.883 188.476Z" fill="#EEEEEE"/>
<path d="M127.883 221.867L132.028 234.622H145.438L134.588 242.504L138.733 255.259L127.883 247.376L117.033 255.259L121.178 242.504L110.328 234.622H123.738L127.883 221.867Z" fill="#EEEEEE"/>
<path d="M127.883 255.259L132.028 268.013H145.438L134.588 275.896L138.733 288.65L127.883 280.767L117.033 288.65L121.178 275.896L110.328 268.013H123.738L127.883 255.259Z" fill="#EEEEEE"/>
<path d="M127.883 288.65L132.028 301.404H145.438L134.588 309.287L138.733 322.041L127.883 314.159L117.033 322.041L121.178 309.287L110.328 301.404H123.738L127.883 288.65Z" fill="#EEEEEE"/>
</svg>
