<svg width="512" height="512" viewBox="0 0 512 512" fill="none" xmlns="http://www.w3.org/2000/svg">
<g clip-path="url(#clip0_623_82697)">
<path d="M437.012 74.9739L223.99 223.991L74.9729 437.013C121.3 483.344 185.304 512.001 256 512.001C396.433 512.001 510.455 398.924 511.984 258.853L511.984 253.149C511.225 183.584 482.719 120.678 437.012 74.9739Z" fill="#D80027"/>
<path d="M437.012 74.9738L74.9729 437.013C28.6506 390.686 7.14e-06 326.689 5.59506e-06 256.001C2.50563e-06 114.645 114.568 0.0484653 255.912 0.000985727C255.941 0.000975888 255.971 0.000970968 256 0.000970967C256.029 0.000970967 256.059 0.00097588 256.088 0.000985707C326.741 0.0247038 390.704 28.6707 437.012 74.9738Z" fill="#6DA544"/>
<path d="M372.18 27.821C420.303 52.372 459.629 91.6986 484.18 139.821L139.82 484.181C91.6976 459.63 52.371 420.304 27.8201 372.181L372.18 27.821Z" fill="#FFDA44"/>
<path d="M402.185 45.8164C427.117 63.1892 448.812 84.8845 466.185 109.816L109.815 466.186C84.8835 448.813 63.1882 427.118 45.8154 402.186L402.185 45.8164Z" fill="#333333"/>
</g>
<path d="M151.598 308.184L175.493 320.36L194.456 301.396L190.261 327.884L214.156 340.059L187.668 344.255L183.473 370.743L171.297 346.848L144.809 351.043L163.773 332.08L151.598 308.184Z" fill="#EEEEEE"/>
<path d="M308.252 151.545L332.147 163.721L351.111 144.757L346.915 171.245L370.811 183.42L344.323 187.616L340.127 214.104L327.952 190.209L301.464 194.404L320.428 175.441L308.252 151.545Z" fill="#EEEEEE"/>
<defs>
<clipPath id="clip0_623_82697">
<rect width="512" height="512" fill="white" transform="translate(0 0.000976562)"/>
</clipPath>
</defs>
</svg>
