<svg width="512" height="512" viewBox="0 0 512 512" fill="none" xmlns="http://www.w3.org/2000/svg">
<g clip-path="url(#clip0_623_82700)">
<path d="M482.19 376C501.219 340.208 512 299.363 512 256C512 212.637 501.219 171.792 482.19 136H29.8097C10.7813 171.792 0 212.637 0 256C0 299.363 10.7813 340.208 29.8097 376H482.19Z" fill="#EEEEEE"/>
<path d="M496.474 344C460.589 442.034 366.465 512 256 512C145.535 512 51.4114 442.034 15.5262 344H496.474Z" fill="#FFDA44"/>
<path d="M496.474 168H15.5264C51.4116 69.9657 145.535 0 256 0C366.465 0 460.589 69.9657 496.474 168Z" fill="#D80027"/>
<path d="M255.999 71.4238L297.439 198.963H431.541L323.05 277.786L364.49 405.325L255.999 326.502L147.508 405.325L188.948 277.786L80.457 198.963H214.559L255.999 71.4238Z" fill="#EEEEEE"/>
<path fill-rule="evenodd" clip-rule="evenodd" d="M297.439 198.963L255.999 71.4238L214.559 198.963H80.457L188.948 277.786L147.508 405.325L255.999 326.502L364.49 405.325L323.05 277.786L431.541 198.963H297.439ZM382.299 214.963H285.814L255.999 123.201L226.184 214.963H129.7L207.757 271.675L177.942 363.436L255.999 306.725L334.056 363.436L304.241 271.675L382.299 214.963Z" fill="#333333"/>
</g>
<defs>
<clipPath id="clip0_623_82700">
<rect width="512" height="512" fill="white"/>
</clipPath>
</defs>
</svg>
