<svg width="512" height="512" viewBox="0 0 512 512" fill="none" xmlns="http://www.w3.org/2000/svg">
<g clip-path="url(#clip0_623_82779)">
<path fill-rule="evenodd" clip-rule="evenodd" d="M91.9879 59.4313L247.8 43.9004L508.893 296.001C503.126 332.753 489.54 366.912 469.89 396.719L112.8 429.1L9.79041 185.64C24.0529 135.637 53.1367 91.8828 91.9879 59.4313Z" fill="#EEEEEE"/>
<path fill-rule="evenodd" clip-rule="evenodd" d="M508.404 299C510.769 285.019 512 270.653 512 256C512 114.615 397.385 0 256 0C188.613 0 127.307 26.0371 81.5931 68.6H178C208.553 68.6 237.855 80.7371 259.459 102.341C281.063 123.945 293.2 153.247 293.2 183.8C293.2 214.353 281.063 243.655 259.459 265.259C237.855 286.863 208.553 299 178 299H508.404Z" fill="#333333"/>
<path fill-rule="evenodd" clip-rule="evenodd" d="M17.6119 162.5L178 162.5C195.649 163.176 212.35 170.662 224.598 183.387C236.845 196.113 243.687 213.088 243.687 230.75C243.687 248.412 236.845 265.387 224.598 278.113C212.35 290.838 195.649 298.324 178 299C190.077 298.442 201.475 293.252 209.824 284.509C218.174 275.765 222.833 264.14 222.833 252.05C222.833 239.96 218.174 228.335 209.824 219.591C201.475 210.848 190.077 205.658 178 205.1C153.096 205.1 129.212 214.993 111.603 232.603C93.993 250.212 84.1 274.096 84.1 299C84.1 323.904 93.993 347.788 111.603 365.397C129.212 383.007 153.096 392.9 178 392.9H472.359C426.97 464.484 347.034 512 256 512C114.615 512 0 397.385 0 256C0 223.003 6.24288 191.464 17.6119 162.5Z" fill="#D80027"/>
</g>
<defs>
<clipPath id="clip0_623_82779">
<rect width="512" height="512" fill="white"/>
</clipPath>
</defs>
</svg>
