<svg width="512" height="512" viewBox="0 0 512 512" fill="none" xmlns="http://www.w3.org/2000/svg">
<path d="M128 477.752C165.654 499.534 209.371 512 256 512C302.629 512 346.346 499.534 384 477.752L384 34.2483C346.346 12.4665 302.629 -3.55685e-06 256 -5.59506e-06C209.371 -7.63327e-06 165.654 12.4665 128 34.2482L128 477.752Z" fill="#FFDA44"/>
<path d="M-1.00613e-05 255.911C0.0345708 154.729 58.7696 67.2685 144 25.7354L144 486.264C58.7695 444.731 0.0345009 357.271 -4.05867e-05 256.089C-4.05854e-05 256.059 -4.05841e-05 256.03 -4.05828e-05 256C-4.05815e-05 255.97 -1.00626e-05 255.94 -1.00613e-05 255.911Z" fill="#0052B4"/>
<path d="M512 256C512 154.78 453.256 67.2808 368 25.7353L368 486.264C453.256 444.719 512 357.22 512 256Z" fill="#D80027"/>
<path d="M345.043 201.419H283.826C283.826 186.051 271.368 173.593 256 173.593C240.632 173.593 228.174 186.051 228.174 201.419H166.957C166.957 216.55 180.138 228.815 195.267 228.815H194.355C194.355 243.947 206.621 256.214 221.753 256.214C221.753 269.611 231.375 280.743 244.083 283.123L222.493 331.865C232.838 336.07 244.144 338.407 256 338.407C267.855 338.407 279.162 336.07 289.506 331.865L267.917 283.123C280.625 280.743 290.247 269.611 290.247 256.214C305.379 256.214 317.645 243.947 317.645 228.815H316.732C331.863 228.815 345.043 216.549 345.043 201.419Z" fill="#FF9811"/>
<path d="M256 239.304L219.826 256V289.391L256 311.652L292.174 289.391V256L256 239.304Z" fill="#0052B4"/>
<path d="M219.826 222.609H292.174V256H219.826V222.609Z" fill="#D80027"/>
</svg>
