<svg width="512" height="512" viewBox="0 0 512 512" fill="none" xmlns="http://www.w3.org/2000/svg">
<circle cx="256" cy="256" r="256" fill="#0052B4"/>
<path fill-rule="evenodd" clip-rule="evenodd" d="M95.5497 455.49C88.3634 449.703 81.4963 443.535 74.979 437.018L437.018 74.9795C473.395 111.356 498.876 158.63 508.143 211.484L95.5497 455.49Z" fill="#EEEEEE"/>
<path fill-rule="evenodd" clip-rule="evenodd" d="M84.7308 446.273C81.3999 443.273 78.1481 440.187 74.979 437.018L437.018 74.979C455.298 93.259 470.827 114.291 482.929 137.4L84.7308 446.273Z" fill="#FF9811"/>
<path d="M160 40L170.353 121.363L200 90.718L188.284 131.716L229.282 120L198.637 149.647L280 160L198.637 170.353L229.282 200L188.284 188.284L200 229.282L170.353 198.637L160 280L149.647 198.637L120 229.282L131.716 188.284L90.718 200L121.363 170.353L40 160L121.363 149.647L90.718 120L131.716 131.716L120 90.718L149.647 121.363L160 40Z" fill="#EEEEEE"/>
</svg>
