<svg width="512" height="512" viewBox="0 0 512 512" fill="none" xmlns="http://www.w3.org/2000/svg">
<g clip-path="url(#clip0_623_82857)">
<circle cx="256" cy="256" r="256" fill="#0052B4"/>
<path d="M288 1.98009C277.68 0.693195 267.169 0.0205877 256.505 -1.12122e-05L255.495 -1.1168e-05C244.831 0.0205887 234.32 0.693197 224 1.98009L224 224L1.98053 224C0.673354 234.483 -1.16638e-05 245.163 -1.11901e-05 256C-1.07164e-05 266.837 0.673397 277.517 1.98065 288L224 288L224 510.019C234.483 511.326 245.163 512 256 512C266.837 512 277.517 511.326 288 510.019L288 288L510.019 288C511.327 277.517 512 266.837 512 255.999C512 245.163 511.327 234.483 510.019 224L288 224L288 1.98009Z" fill="#EEEEEE"/>
<path fill-rule="evenodd" clip-rule="evenodd" d="M132.251 163.534C131.091 164.675 130.426 166.227 130.4 167.854H130.5C130.5 168.676 130.663 169.491 130.981 170.249C131.299 171.008 131.765 171.696 132.351 172.273C132.937 172.85 133.633 173.305 134.396 173.611C135.16 173.916 135.977 174.067 136.8 174.054H187.8V205.754H136.7C127.124 205.057 118.166 200.762 111.628 193.731C105.089 186.7 101.455 177.455 101.455 167.854C101.455 158.252 105.089 149.007 111.628 141.976C118.166 134.945 127.124 130.65 136.7 129.954H149.9C151.544 129.954 153.121 129.3 154.284 128.138C155.447 126.975 156.1 125.398 156.1 123.754C156.1 122.109 155.447 120.532 154.284 119.369C153.121 118.207 151.544 117.554 149.9 117.554H121.4C108.8 117.454 98.7998 109.254 98.7998 99.2535C98.7998 89.1535 109.1 80.8535 121.7 80.8535C127.8 80.8535 133.3 82.8535 137.4 85.8535H149.8C159.528 86.353 168.693 90.5693 175.402 97.6315C182.11 104.694 185.851 114.063 185.851 123.804C185.851 133.544 182.11 142.913 175.402 149.976C168.693 157.038 159.528 161.254 149.8 161.754H136.6C134.973 161.753 133.411 162.393 132.251 163.534ZM355.8 167.854C355.826 166.228 356.491 164.676 357.651 163.535C358.811 162.394 360.373 161.754 362 161.754H375.2C384.928 161.255 394.093 157.039 400.802 149.977C407.51 142.914 411.251 133.545 411.251 123.804C411.251 114.064 407.51 104.695 400.802 97.6325C394.093 90.5702 384.928 86.354 375.2 85.8545H362.8C358.7 82.8545 353.2 80.8545 347.1 80.8545C334.5 80.8545 324.2 89.1545 324.2 99.2545C324.2 109.254 334.2 117.454 346.8 117.554H375.3C376.944 117.554 378.521 118.208 379.684 119.37C380.847 120.533 381.5 122.11 381.5 123.754C381.5 125.399 380.847 126.976 379.684 128.139C378.521 129.301 376.944 129.954 375.3 129.954H362.1C352.524 130.651 343.566 134.946 337.028 141.977C330.489 149.008 326.855 158.253 326.855 167.854C326.855 177.456 330.489 186.701 337.028 193.732C343.566 200.763 352.524 205.058 362.1 205.754H413.2V174.054H362.2C361.377 174.068 360.56 173.917 359.796 173.612C359.033 173.306 358.337 172.851 357.751 172.274C357.165 171.697 356.699 171.009 356.381 170.25C356.063 169.492 355.9 168.677 355.9 167.854H355.8ZM132.251 388.926C131.091 390.067 130.426 391.618 130.4 393.245H130.5C130.5 394.068 130.663 394.882 130.981 395.641C131.299 396.4 131.765 397.088 132.351 397.665C132.937 398.242 133.633 398.697 134.396 399.002C135.16 399.308 135.977 399.458 136.8 399.445H187.8V431.145H136.7C127.124 430.449 118.166 426.154 111.628 419.123C105.089 412.092 101.455 402.846 101.455 393.245C101.455 383.644 105.089 374.398 111.628 367.367C118.166 360.336 127.124 356.041 136.7 355.345H149.9C151.544 355.345 153.121 354.692 154.284 353.529C155.447 352.366 156.1 350.789 156.1 349.145C156.1 347.501 155.447 345.924 154.284 344.761C153.121 343.598 151.544 342.945 149.9 342.945H121.4C108.8 342.845 98.7998 334.645 98.7998 324.645C98.7998 314.545 109.1 306.245 121.7 306.245C127.8 306.245 133.3 308.245 137.4 311.245H149.8C159.528 311.745 168.693 315.961 175.402 323.023C182.11 330.085 185.851 339.454 185.851 349.195C185.851 358.936 182.11 368.305 175.402 375.367C168.693 382.429 159.528 386.646 149.8 387.145H136.6C134.973 387.145 133.411 387.784 132.251 388.926ZM357.651 388.927C356.491 390.068 355.826 391.619 355.8 393.246H355.9C355.9 394.069 356.063 394.883 356.381 395.642C356.699 396.401 357.165 397.089 357.751 397.666C358.337 398.243 359.033 398.698 359.796 399.003C360.56 399.309 361.377 399.459 362.2 399.446H413.2V431.146H362.1C352.524 430.45 343.566 426.155 337.028 419.124C330.489 412.093 326.855 402.847 326.855 393.246C326.855 383.645 330.489 374.399 337.028 367.368C343.566 360.337 352.524 356.042 362.1 355.346H375.3C376.944 355.346 378.521 354.693 379.684 353.53C380.847 352.367 381.5 350.79 381.5 349.146C381.5 347.502 380.847 345.925 379.684 344.762C378.521 343.599 376.944 342.946 375.3 342.946H346.8C334.2 342.846 324.2 334.646 324.2 324.646C324.2 314.546 334.5 306.246 347.1 306.246C353.2 306.246 358.7 308.246 362.8 311.246H375.2C384.928 311.746 394.093 315.962 400.802 323.024C407.51 330.086 411.251 339.455 411.251 349.196C411.251 358.937 407.51 368.306 400.802 375.368C394.093 382.43 384.928 386.647 375.2 387.146H362C360.373 387.146 358.811 387.785 357.651 388.927Z" fill="#EEEEEE"/>
</g>
<defs>
<clipPath id="clip0_623_82857">
<rect width="512" height="512" fill="white"/>
</clipPath>
</defs>
</svg>
