<svg width="512" height="512" viewBox="0 0 512 512" fill="none" xmlns="http://www.w3.org/2000/svg">
<path d="M512 255.999C512 114.783 397.658 0.272759 256.505 -1.42086e-06L256 -1.39876e-06L224 256L256 512C397.385 512 512 397.384 512 255.999Z" fill="#D80027"/>
<path d="M255.495 -1.1168e-05L256 -1.11901e-05L256 512C114.615 512 -5.00999e-06 397.384 -1.11901e-05 256C-1.73629e-05 114.783 114.342 0.272761 255.495 -1.1168e-05Z" fill="#EEEEEE"/>
<path d="M160 128V96H128.001V128H96V159.999H128.001V192H160V159.999H192V128H160Z" fill="#818085"/>
</svg>
