<svg width="512" height="512" viewBox="0 0 512 512" fill="none" xmlns="http://www.w3.org/2000/svg">
<path d="M376 29.8097C340.208 10.7813 299.363 1.94808e-06 256 1.43099e-06C212.637 9.13888e-07 171.792 10.7813 136 29.8097L136 482.19C171.792 501.219 212.637 512 256 512C299.363 512 340.208 501.219 376 482.19L376 29.8097Z" fill="#EEEEEE"/>
<path d="M344 15.5262C442.034 51.4115 512 145.535 512 256C512 366.465 442.034 460.589 344 496.474L344 15.5262Z" fill="#496E2D"/>
<path d="M168 15.526L168 496.474C69.9657 460.588 1.55034e-06 366.465 2.86762e-06 256C4.1849e-06 145.535 69.9657 51.4112 168 15.526Z" fill="#496E2D"/>
</svg>
