<svg width="512" height="512" viewBox="0 0 512 512" fill="none" xmlns="http://www.w3.org/2000/svg">
<g clip-path="url(#clip0_623_82915)">
<circle cx="256" cy="256" r="256" fill="#0052B4"/>
<path fill-rule="evenodd" clip-rule="evenodd" d="M506.974 306.732C510.27 290.334 512 273.369 512 256C512 221.747 505.273 189.064 493.067 159.203L352.797 18.9329C322.936 6.72737 290.253 0 256 0C238.631 0 221.666 1.72977 205.268 5.02644L506.974 306.732ZM467.307 400.56L111.44 44.6927C85.2567 62.6396 62.5778 85.3265 44.6402 111.516L400.484 467.36C426.674 449.422 449.36 426.743 467.307 400.56ZM306.625 506.995L5.00485 205.375C1.72222 221.74 0 238.669 0 256C0 290.313 6.75083 323.05 18.9968 352.954L159.14 493.042C189.019 505.263 221.723 512 256 512C273.331 512 290.26 510.278 306.625 506.995Z" fill="#EEEEEE"/>
<path fill-rule="evenodd" clip-rule="evenodd" d="M334.797 20.1295C332.746 18.0714 330.308 16.4383 327.625 15.3241C324.941 14.2098 322.064 13.6362 319.159 13.6362C316.253 13.6362 313.376 14.2098 310.693 15.3241C308.009 16.4383 305.572 18.0714 303.521 20.1295C303.27 20.369 303.025 20.6144 302.785 20.8654C294.601 29.7082 290.159 41.3772 290.392 53.4241C290.624 65.471 295.514 76.9596 304.034 85.4796C312.554 93.9996 324.042 98.8889 336.089 99.1217C348.136 99.3545 359.805 94.9127 368.648 86.7281C368.899 86.4887 369.144 86.2433 369.384 85.9922C371.46 83.9391 373.109 81.4943 374.234 78.7995C375.359 76.1047 375.939 73.2134 375.939 70.2931C375.939 67.3728 375.359 64.4816 374.234 61.7868C373.109 59.092 371.46 56.6472 369.384 54.594C365.246 50.4747 359.646 48.162 353.807 48.162C347.969 48.162 342.368 50.4747 338.231 54.594C337.772 55.0435 337.156 55.2952 336.514 55.2952C335.872 55.2952 335.255 55.0435 334.797 54.594C334.347 54.1355 334.095 53.519 334.095 52.8769C334.095 52.2348 334.347 51.6184 334.797 51.1598C338.879 47.0276 341.168 41.4531 341.168 35.6447C341.168 29.8362 338.879 24.2617 334.797 20.1295ZM457.446 142.779C455.395 140.721 452.958 139.088 450.274 137.973C447.591 136.859 444.714 136.286 441.808 136.286C438.903 136.286 436.026 136.859 433.342 137.973C430.659 139.088 428.221 140.721 426.17 142.779C425.921 142.978 425.675 143.182 425.434 143.392C421.102 147.717 417.663 152.852 415.315 158.506C412.968 164.159 411.756 170.22 411.751 176.341C411.739 188.705 416.639 200.566 425.373 209.316C434.107 218.066 445.959 222.989 458.323 223C470.686 223.012 482.547 218.111 491.297 209.378C491.548 209.138 491.794 208.893 492.033 208.642C494.091 206.591 495.724 204.153 496.839 201.47C497.953 198.787 498.526 195.909 498.526 193.004C498.526 190.098 497.953 187.221 496.839 184.538C495.724 181.854 494.091 179.417 492.033 177.366C487.896 173.247 482.295 170.934 476.457 170.934C470.618 170.934 465.018 173.247 460.88 177.366C460.422 177.815 459.805 178.067 459.163 178.067C458.521 178.067 457.905 177.815 457.446 177.366C457.205 177.137 457.013 176.861 456.881 176.555C456.75 176.25 456.682 175.92 456.682 175.588C456.682 175.255 456.75 174.926 456.881 174.62C457.013 174.314 457.205 174.038 457.446 173.809C461.528 169.677 463.817 164.103 463.817 158.294C463.817 152.486 461.528 146.911 457.446 142.779ZM140.494 91.6212C138.443 89.5631 136.006 87.93 133.322 86.8158C130.639 85.7015 127.762 85.1279 124.856 85.1279C121.95 85.1279 119.073 85.7015 116.39 86.8158C113.706 87.93 111.269 89.5631 109.218 91.6212C108.967 91.8607 108.722 92.1061 108.482 92.3571C100.298 101.2 95.856 112.869 96.0888 124.916C96.3216 136.963 101.211 148.451 109.731 156.971C118.251 165.491 129.74 170.381 141.786 170.613C153.833 170.846 165.502 166.404 174.345 158.22C174.596 157.98 174.841 157.735 175.081 157.484C177.139 155.433 178.772 152.996 179.886 150.312C181.001 147.629 181.574 144.752 181.574 141.846C181.574 138.941 181.001 136.063 179.886 133.38C178.772 130.697 177.139 128.259 175.081 126.208C170.944 122.089 165.343 119.776 159.505 119.776C153.666 119.776 148.065 122.089 143.928 126.208C143.469 126.658 142.853 126.91 142.211 126.91C141.569 126.91 140.952 126.658 140.494 126.208C140.044 125.75 139.793 125.133 139.793 124.491C139.793 123.849 140.044 123.233 140.494 122.774C144.613 118.637 146.926 113.036 146.926 107.198C146.926 101.359 144.613 95.7586 140.494 91.6212ZM263.143 214.271C261.092 212.212 258.655 210.579 255.972 209.465C253.288 208.351 250.411 207.777 247.505 207.777C244.6 207.777 241.723 208.351 239.039 209.465C236.356 210.579 233.919 212.212 231.868 214.271C231.617 214.51 231.371 214.755 231.132 215.006C222.947 223.849 218.505 235.518 218.738 247.565C218.971 259.612 223.86 271.101 232.38 279.621C240.9 288.141 252.389 293.03 264.436 293.263C276.483 293.496 288.152 289.054 296.994 280.869C297.246 280.63 297.491 280.384 297.73 280.133C299.789 278.082 301.422 275.645 302.536 272.962C303.65 270.278 304.224 267.401 304.224 264.496C304.224 261.59 303.65 258.713 302.536 256.029C301.422 253.346 299.789 250.909 297.73 248.858C293.593 244.738 287.992 242.426 282.154 242.426C276.316 242.426 270.715 244.738 266.577 248.858C266.119 249.307 265.502 249.559 264.86 249.559C264.218 249.559 263.602 249.307 263.143 248.858C262.694 248.399 262.442 247.783 262.442 247.141C262.442 246.499 262.694 245.882 263.143 245.424C267.263 241.286 269.575 235.685 269.575 229.847C269.575 224.009 267.263 218.408 263.143 214.271ZM378.621 332.115C381.304 333.229 383.742 334.862 385.793 336.92C389.912 341.057 392.225 346.658 392.225 352.496C392.225 358.335 389.912 363.936 385.793 368.073C385.343 368.531 385.091 369.148 385.091 369.79C385.091 370.432 385.343 371.049 385.793 371.507C386.251 371.957 386.868 372.208 387.51 372.208C388.152 372.208 388.768 371.957 389.227 371.507C393.364 367.388 398.965 365.075 404.803 365.075C410.642 365.075 416.242 367.388 420.38 371.507C422.438 373.558 424.071 375.995 425.185 378.679C426.299 381.362 426.873 384.239 426.873 387.145C426.873 390.051 426.299 392.928 425.185 395.611C424.071 398.295 422.438 400.732 420.38 402.783C420.14 403.034 419.895 403.279 419.644 403.519C410.801 411.703 399.132 416.145 387.085 415.912C375.038 415.679 363.55 410.79 355.03 402.27C346.51 393.75 341.62 382.261 341.388 370.215C341.155 358.168 345.597 346.499 353.781 337.656C354.021 337.405 354.266 337.159 354.517 336.92C356.568 334.862 359.005 333.229 361.689 332.115C364.372 331 367.249 330.427 370.155 330.427C373.06 330.427 375.937 331 378.621 332.115ZM60.3442 282.538C63.0276 283.653 65.4648 285.286 67.5158 287.344C71.5979 291.476 73.887 297.051 73.887 302.859C73.887 308.668 71.5979 314.242 67.5158 318.374C67.2746 318.603 67.0825 318.879 66.9512 319.185C66.82 319.491 66.7523 319.82 66.7523 320.153C66.7523 320.485 66.82 320.815 66.9512 321.12C67.0825 321.426 67.2746 321.702 67.5158 321.931C67.9743 322.38 68.5908 322.632 69.2329 322.632C69.875 322.632 70.4914 322.38 70.95 321.931C75.0874 317.812 80.6881 315.499 86.5265 315.499C92.3648 315.499 97.9655 317.812 102.103 321.931C104.161 323.982 105.794 326.419 106.908 329.103C108.023 331.786 108.596 334.663 108.596 337.569C108.596 340.474 108.023 343.351 106.908 346.035C105.794 348.718 104.161 351.156 102.103 353.207C101.863 353.458 101.618 353.703 101.367 353.943C92.6168 362.676 80.7555 367.577 68.3923 367.565C56.0291 367.554 44.1769 362.631 35.443 353.881C26.7091 345.131 21.8088 333.27 21.8203 320.906C21.8318 308.543 26.7541 296.691 35.5043 287.957C35.7451 287.747 35.9905 287.543 36.2402 287.344C38.2912 285.286 40.7284 283.653 43.4118 282.538C46.0953 281.424 48.9724 280.851 51.878 280.851C54.7836 280.851 57.6607 281.424 60.3442 282.538ZM182.994 405.188C185.677 406.302 188.114 407.935 190.165 409.993C194.285 414.131 196.597 419.731 196.597 425.57C196.597 431.408 194.285 437.009 190.165 441.146C189.716 441.605 189.464 442.221 189.464 442.863C189.464 443.505 189.716 444.122 190.165 444.58C190.624 445.03 191.24 445.282 191.882 445.282C192.524 445.282 193.141 445.03 193.599 444.58C197.737 440.461 203.337 438.148 209.176 438.148C215.014 438.148 220.615 440.461 224.752 444.58C226.81 446.631 228.443 449.069 229.558 451.752C230.672 454.436 231.246 457.313 231.246 460.218C231.246 463.124 230.672 466.001 229.558 468.684C228.443 471.368 226.81 473.805 224.752 475.856C224.513 476.107 224.267 476.352 224.016 476.592C215.174 484.776 203.505 489.218 191.458 488.985C179.411 488.753 167.922 483.863 159.402 475.343C150.882 466.823 145.993 455.335 145.76 443.288C145.527 431.241 149.969 419.572 158.154 410.729C158.393 410.478 158.639 410.233 158.89 409.993C160.941 407.935 163.378 406.302 166.061 405.188C168.745 404.074 171.622 403.5 174.527 403.5C177.433 403.5 180.31 404.074 182.994 405.188Z" fill="#D80027"/>
</g>
<defs>
<clipPath id="clip0_623_82915">
<rect width="512" height="512" fill="white"/>
</clipPath>
</defs>
</svg>
