<svg width="512" height="512" viewBox="0 0 512 512" fill="none" xmlns="http://www.w3.org/2000/svg">
<circle cx="256" cy="256" r="256" fill="#002266"/>
<path fill-rule="evenodd" clip-rule="evenodd" d="M510.019 288C511.327 277.517 512 266.837 512 256C512 245.163 511.327 234.483 510.019 224H1.9806C0.673387 234.483 0 245.163 0 256C0 266.837 0.673387 277.517 1.9806 288H510.019Z" fill="#FFDA44"/>
<path d="M144 288L154.353 329.363L184 298.718L172.284 339.716L213.282 328L182.637 357.647L224 368L182.637 378.353L213.282 408L172.284 396.284L184 437.282L154.353 406.637L144 448L133.647 406.637L104 437.282L115.716 396.284L74.718 408L105.363 378.353L64 368L105.363 357.647L74.718 328L115.716 339.716L104 298.718L133.647 329.363L144 288Z" fill="#EEEEEE"/>
</svg>
