<svg width="512" height="512" viewBox="0 0 512 512" fill="none" xmlns="http://www.w3.org/2000/svg">
<g clip-path="url(#clip0_623_82946)">
<circle cx="256" cy="256" r="256" fill="#FFDA44"/>
<path d="M256 0V256H0C0 114.615 114.615 0 256 0Z" fill="#002266"/>
<path d="M217.562 256H256V217.562L140.688 102.25H256V0C114.615 0 0 114.615 0 256H102.25V140.688L217.562 256Z" fill="#EEEEEE"/>
<path d="M256 76.625V25.375H144.743C92.7292 50.5133 50.5133 92.7292 25.375 144.743V256H76.625V76.625H256Z" fill="#D80027"/>
<path d="M256 230.375V256L102.25 102.25H127.875L256 230.375Z" fill="#D80027"/>
<path fill-rule="evenodd" clip-rule="evenodd" d="M51.0004 110.194C83.6922 110.194 110.194 83.6922 110.194 51.0004C110.194 49.2187 110.115 47.4555 109.961 45.7139C84.9195 63.1375 63.1375 84.9195 45.7139 109.961C47.4555 110.115 49.2187 110.194 51.0004 110.194Z" fill="#002266"/>
<path fill-rule="evenodd" clip-rule="evenodd" d="M77.2855 72.7048L85.7933 98.8892L65.9561 84.4766C69.6074 80.4335 73.386 76.5075 77.2855 72.7048Z" fill="#FFDA44"/>
<path d="M180.252 24.2473L186.259 42.7328L205.696 42.7328L189.971 54.1575L195.977 72.643L180.252 61.2184L164.528 72.643L170.534 54.1575L154.809 42.7328L174.246 42.7328L180.252 24.2473Z" fill="#FFDA44"/>
<path d="M51.0001 153.5L57.0064 171.986L76.4432 171.986L60.7185 183.41L66.7248 201.896L51.0001 190.471L35.2753 201.896L41.2816 183.41L25.5569 171.986L44.9937 171.986L51.0001 153.5Z" fill="#FFDA44"/>
</g>
<defs>
<clipPath id="clip0_623_82946">
<rect width="512" height="512" fill="white"/>
</clipPath>
</defs>
</svg>
