<svg width="512" height="512" viewBox="0 0 512 512" fill="none" xmlns="http://www.w3.org/2000/svg">
<g clip-path="url(#clip0_623_82967)">
<path fill-rule="evenodd" clip-rule="evenodd" d="M492.384 354.452C505.021 324.144 512 290.887 512 256C512 221.113 505.021 187.856 492.384 157.548L256 128L19.616 157.548C6.9786 187.856 0 221.113 0 256C0 290.887 6.9786 324.144 19.616 354.452L256 384L492.384 354.452Z" fill="#FF9811"/>
<path fill-rule="evenodd" clip-rule="evenodd" d="M492.384 157.548C497.016 168.657 500.888 180.163 503.935 192H8.06506C11.1117 180.163 14.9837 168.657 19.6159 157.548L256 128L492.384 157.548ZM492.384 354.452C497.016 343.343 500.888 331.837 503.935 320H8.06506C11.1117 331.837 14.9837 343.343 19.6159 354.452L256 384L492.384 354.452Z" fill="#EEEEEE"/>
<path fill-rule="evenodd" clip-rule="evenodd" d="M493.391 160H18.6085C56.5853 66.1814 148.564 0 256 0C363.436 0 455.415 66.1814 493.391 160Z" fill="#338AF3"/>
<path fill-rule="evenodd" clip-rule="evenodd" d="M493.391 352C455.415 445.819 363.436 512 256 512C148.564 512 56.5853 445.819 18.6085 352H493.391Z" fill="#6DA544"/>
<path d="M256 416C344.366 416 416 344.366 416 256C416 167.634 344.366 96 256 96C167.634 96 96 167.634 96 256C96 344.366 167.634 416 256 416Z" fill="#EEEEEE"/>
<path d="M256 384C326.692 384 384 326.692 384 256C384 185.308 326.692 128 256 128C185.308 128 128 185.308 128 256C128 326.692 185.308 384 256 384Z" fill="#338AF3"/>
<path d="M207 139V207H139L188 256L139 305H207V373L256 324L305 373V305H373L324 256L373 207H305V139L256 188L207 139Z" fill="#FF9811"/>
</g>
<defs>
<clipPath id="clip0_623_82967">
<rect width="512" height="512" fill="white"/>
</clipPath>
</defs>
</svg>
