<svg width="512" height="512" viewBox="0 0 512 512" fill="none" xmlns="http://www.w3.org/2000/svg">
<circle cx="256" cy="256" r="256" fill="#EEEEEE"/>
<path d="M245.585 512C109.029 506.536 -5.15338e-06 394.104 -1.1181e-05 256.208C-1.11841e-05 256.139 1.63827e-05 256.069 7.15089e-05 256L256 256L256 512L245.585 512Z" fill="#0052B4"/>
<path d="M266.415 -1.07349e-05C402.971 5.4642 512 117.896 512 255.792C512 255.861 512 255.931 512 256L256 256L256 -1.11901e-05L266.415 -1.07349e-05Z" fill="#D80027"/>
<path d="M150.08 76.1599L166.676 127.237H220.382L176.933 158.805L193.529 209.882L150.08 178.315L106.631 209.882L123.227 158.805L79.7779 127.237H133.484L150.08 76.1599Z" fill="#0052B4"/>
<path d="M361.92 288L378.516 339.077H432.222L388.773 370.645L405.369 421.723L361.92 390.155L318.471 421.723L335.067 370.645L291.618 339.077H345.324L361.92 288Z" fill="#D80027"/>
</svg>
