<svg width="512" height="512" viewBox="0 0 512 512" fill="none" xmlns="http://www.w3.org/2000/svg">
<path d="M477.752 384C499.534 346.346 512 302.629 512 256C512 209.371 499.534 165.654 477.752 128L34.2483 128C12.4665 165.654 0 209.371 0 256C0 302.629 12.4665 346.346 34.2482 384L477.752 384Z" fill="#EEEEEE"/>
<path d="M255.911 512C154.729 511.965 67.2685 453.23 25.7354 368L486.264 368C444.731 453.23 357.271 511.965 256.089 512C256.059 512 256.03 512 256 512C255.97 512 255.94 512 255.911 512Z" fill="#D80027"/>
<path d="M256 0C154.78 0 67.2808 58.7445 25.7354 144L486.264 144C444.719 58.7445 357.22 0 256 0Z" fill="#D80027"/>
<path d="M345.043 256C345.043 305.178 305.177 333.913 256 333.913C206.823 333.913 166.957 305.178 166.957 256C166.957 206.822 206.823 166.957 256 166.957C305.177 166.957 345.043 206.822 345.043 256Z" fill="#FFC635"/>
<path d="M345.043 256C345.043 305.178 305.177 345.043 256 345.043C206.823 345.043 166.957 305.178 166.957 256" fill="#0052B4"/>
<path fill-rule="evenodd" clip-rule="evenodd" d="M267.131 200.348H244.87V278.261H267.131V200.348ZM200.348 233.739H222.609V278.261H200.348V233.739ZM289.391 233.739H311.652V278.261H289.391V233.739Z" fill="#D80027"/>
</svg>
