<svg width="512" height="512" viewBox="0 0 512 512" fill="none" xmlns="http://www.w3.org/2000/svg">
<g clip-path="url(#clip0_623_83007)">
<path fill-rule="evenodd" clip-rule="evenodd" d="M11.7983 178.95C41.4706 84.8169 124.067 14.1661 224.689 1.89551L256 87.9999L224 176L128 208L11.7983 178.95Z" fill="#FF9811"/>
<path fill-rule="evenodd" clip-rule="evenodd" d="M511.484 272.387C511.826 266.969 512 261.505 512 256C512 245.076 511.316 234.312 509.988 223.748L256 192L2.01209 223.748C0.684202 234.312 0 245.076 0 256C0 261.505 0.173738 266.969 0.51603 272.387L32 296L6.80723 314.895C23.6306 386.35 70.3934 446.254 133.131 480.641L256 496L378.869 480.641C441.607 446.254 488.369 386.35 505.193 314.895L480 296L511.484 272.387Z" fill="#EEEEEE"/>
<path fill-rule="evenodd" clip-rule="evenodd" d="M224 1.9806C234.483 0.673387 245.163 0 256 0C386.548 0 494.272 97.718 510.019 224H1.98043C4.04318 207.458 7.68416 191.406 12.7479 176H224V1.9806ZM503.935 320C507.919 304.518 510.492 288.47 511.508 272H0.491699C1.50734 288.47 4.08023 304.518 8.06495 320H503.935ZM486.264 368H25.7353C34.0984 385.162 44.3236 401.25 56.148 416H455.852C467.676 401.25 477.901 385.162 486.264 368ZM405.271 464H106.729C148.749 494.209 200.297 512 256 512C311.703 512 363.251 494.209 405.271 464Z" fill="#496E2D"/>
<path fill-rule="evenodd" clip-rule="evenodd" d="M376.2 165.7C396.826 165.7 415.476 157.238 428.867 143.597C416.179 171.387 388.145 190.7 355.6 190.7C311.141 190.7 275.1 154.659 275.1 110.2C275.1 74.2984 298.603 43.8857 331.062 33.5088C313.626 47.0073 302.4 68.1427 302.4 91.8999C302.4 132.658 335.441 165.7 376.2 165.7ZM387.485 68.5597L370 76L388.434 80.4241L390 100L400.269 83.2647L420 88L406.573 72.9929L417 56L398.436 63.8994L386 50L387.485 68.5597Z" fill="#EEEEEE"/>
</g>
<defs>
<clipPath id="clip0_623_83007">
<rect width="512" height="512" fill="white"/>
</clipPath>
</defs>
</svg>
