<svg width="512" height="512" viewBox="0 0 512 512" fill="none" xmlns="http://www.w3.org/2000/svg">
<g clip-path="url(#clip0_623_83024)">
<circle cx="256" cy="256" r="256" fill="#338AF3"/>
<path fill-rule="evenodd" clip-rule="evenodd" d="M24.7719 366.001C8.88982 332.675 0 295.376 0 256C0 216.625 8.88971 179.325 24.7716 146H170.667V366.001H24.7719Z" fill="#EEEEEE"/>
<path fill-rule="evenodd" clip-rule="evenodd" d="M14.5664 170.667C40.2761 97.9274 97.9269 40.2765 170.666 14.5669V170.667H14.5664Z" fill="#D80027"/>
<path fill-rule="evenodd" clip-rule="evenodd" d="M14.5664 170.667C40.2761 97.9274 97.9269 40.2765 170.666 14.5669V22.4L107.28 85.3333L170.666 148.267V170.667H149.333L85.3329 107.124L21.3329 170.667H14.5664Z" fill="#6DA544"/>
<path fill-rule="evenodd" clip-rule="evenodd" d="M51.1807 102.4C65.7479 83.0062 83.0055 65.7487 102.399 51.1814V68.2667H170.666V102.4H102.399V170.667H68.266V102.4H51.1807Z" fill="#EEEEEE"/>
<path fill-rule="evenodd" clip-rule="evenodd" d="M170.667 497.433C97.9279 471.724 40.2771 414.073 14.5674 341.334H170.667V497.433Z" fill="#D80027"/>
<path fill-rule="evenodd" clip-rule="evenodd" d="M51.1824 409.601C45.5113 402.051 40.2478 394.177 35.4248 386.012C37.9867 379.822 44.0852 375.468 51.2008 375.468H119.467C128.893 375.468 136.534 383.109 136.534 392.534C136.534 401.96 128.893 409.601 119.467 409.601H51.2008C51.1947 409.601 51.1886 409.601 51.1824 409.601ZM125.99 476.577C110.134 467.211 95.3749 456.183 81.9533 443.734H119.467C128.893 443.734 136.534 451.375 136.534 460.801C136.534 467.916 132.18 474.015 125.99 476.577Z" fill="#FFDA44"/>
<path d="M345.004 155.119V300.024H308.319C286.308 300.024 286.308 270.676 286.308 270.676H198.265V300.024H216.607L351.424 329.372L484.406 300.024V278.013H411.036C411.036 278.013 411.036 300.024 389.025 300.024H359.678V155.119H345.004Z" fill="#FFDA44"/>
<path d="M359.678 147.782V177.13C331.247 167.042 303.733 184.467 286.308 147.782C316.573 168.876 333.081 138.611 359.678 147.782ZM293.645 189.97C293.645 189.97 271.634 211.981 278.971 256.002H212.938C212.938 256.002 242.286 204.644 293.645 189.97ZM308.319 285.35H395.445C367.014 241.329 395.445 189.97 395.445 189.97H308.319C308.319 189.97 271.634 241.329 308.319 285.35ZM400.948 263.339C395.407 243.932 396.702 223.21 404.616 204.644H462.395C462.395 204.644 447.721 233.992 461.478 263.339H400.948ZM308.319 300.024H484.406C484.406 300.024 477.069 300.024 469.732 322.035C462.395 344.046 455.058 366.057 418.373 366.057H286.308C250.54 366.057 238.618 320.201 216.607 300.024H308.319Z" fill="#FFDA44"/>
</g>
<defs>
<clipPath id="clip0_623_83024">
<rect width="512" height="512" fill="white"/>
</clipPath>
</defs>
</svg>
