<svg width="512" height="512" viewBox="0 0 512 512" fill="none" xmlns="http://www.w3.org/2000/svg">
<g clip-path="url(#clip0_623_83066)">
<path fill-rule="evenodd" clip-rule="evenodd" d="M190.565 503.561C80.8792 474.646 0 374.768 0 256C0 137.232 80.8792 37.3538 190.565 8.43896L230.6 256L190.565 503.561Z" fill="#0052B4"/>
<path fill-rule="evenodd" clip-rule="evenodd" d="M256 512C397.385 512 512 397.385 512 256C512 114.615 397.385 0 256 0C232.89 0 210.496 3.06213 189.2 8.80277V503.197C210.496 508.938 232.89 512 256 512Z" fill="#EEEEEE"/>
<path d="M91.7998 89V130.8C91.7998 140.772 95.7612 150.336 102.813 157.387C109.864 164.439 119.428 168.4 129.4 168.4C139.372 168.4 148.936 164.439 155.987 157.387C163.038 150.336 167 140.772 167 130.8V89H91.7998Z" fill="#D80027"/>
<path d="M129.4 146C121 146 114.1 139.2 114.1 130.8V111.3H144.7V130.8C144.7 139.2 137.8 146.1 129.4 146.1V146Z" fill="#EEEEEE"/>
<path d="M278.3 267.1H211.5C211.122 261.457 208.613 256.168 204.482 252.305C200.351 248.442 194.906 246.293 189.25 246.293C183.594 246.293 178.15 248.442 174.019 252.305C169.887 256.168 167.379 261.457 167 267.1H100.2C100.382 273.078 102.886 278.75 107.179 282.913C111.473 287.076 117.22 289.403 123.2 289.4H122.4C122.4 301.7 132.4 311.7 144.7 311.7C144.7 323.9 154.7 333.9 167 333.9H211.5C223.8 333.9 233.7 323.9 233.7 311.7C246 311.7 256 301.7 256 289.4H255.3C261.281 289.403 267.027 287.076 271.321 282.913C275.615 278.75 278.118 273.078 278.3 267.1ZM287.4 231.5L281.6 240.9L288.6 249.3L278 246.6L272.1 256L271.3 245L260.6 242.3L270.9 238.2L270.1 227.2L277.1 235.6L287.4 231.5ZM253.4 202.9L251 213.7L260.6 219.2L249.6 220.4L247.3 231.1L242.8 221.1L231.8 222.2L240 214.8L235.6 204.8L245.1 210.3L253.4 202.9ZM211.4 187.7L213 198.6L223.9 200.6L213.9 205.3L215.5 216.3L207.8 208.3L197.9 213.2L203.1 203.4L195.4 195.4L206.3 197.4L211.4 187.7ZM167 187.7L172.1 197.4L183 195.4L175.3 203.4L180.5 213.2L170.6 208.3L162.9 216.3L164.5 205.3L154.5 200.5L165.5 198.5L167 187.7ZM125 202.9L133.2 210.3L142.8 204.8L138.3 214.8L146.5 222.2L135.5 221.1L131 231.1L128.7 220.4L117.7 219.2L127.3 213.7L125 202.9ZM91.0002 231.5L101.2 235.6L108.2 227.2L107.5 238.2L117.7 242.3L107 245L106.2 256L100.4 246.6L89.7002 249.3L96.7002 240.9L91.0002 231.5Z" fill="#FFC635"/>
</g>
<defs>
<clipPath id="clip0_623_83066">
<rect width="512" height="512" fill="white"/>
</clipPath>
</defs>
</svg>
