<svg width="512" height="512" viewBox="0 0 512 512" fill="none" xmlns="http://www.w3.org/2000/svg">
<g clip-path="url(#clip0_623_83074)">
<path d="M384 34.2482C346.346 12.4665 302.629 -7.63327e-06 256 -5.59506e-06C209.371 -3.55685e-06 165.654 12.4665 128 34.2482L128 477.752C165.654 499.534 209.371 512 256 512C302.629 512 346.346 499.534 384 477.752L384 34.2482Z" fill="#FFDA44"/>
<path d="M512 256.089C511.965 357.271 453.23 444.731 368 486.265L368 25.7355C453.23 67.2687 511.965 154.729 512 255.911C512 255.941 512 255.97 512 256C512 256.03 512 256.06 512 256.089Z" fill="#0052B4"/>
<path d="M-1.00652e-05 256C-5.64072e-06 357.22 58.7445 444.719 144 486.265L144 25.7356C58.7445 67.281 -1.44896e-05 154.78 -1.00652e-05 256Z" fill="#0052B4"/>
<path d="M328.4 278.3L345.1 300.5V211.5L328.4 233.7H278.4V183.7L300.6 167H211.6L233.8 183.7V233.7H183.8L167.1 211.5V300.5L183.8 278.3H233.8V328.3L211.6 345H300.6L278.4 328.3V278.3H328.4Z" fill="#D80027"/>
<path d="M323.001 244.9H267.001V189.2H245.001V245H189.301V267H245.001V322.7H267.001V267H322.701L323.001 244.9Z" fill="#EEEEEE"/>
</g>
<defs>
<clipPath id="clip0_623_83074">
<rect width="512" height="512" fill="white"/>
</clipPath>
</defs>
</svg>
