<svg width="512" height="512" viewBox="0 0 512 512" fill="none" xmlns="http://www.w3.org/2000/svg">
<g clip-path="url(#clip0_623_83104)">
<path fill-rule="evenodd" clip-rule="evenodd" d="M455.852 416C408.936 474.526 336.845 512 256 512C175.156 512 103.064 474.526 56.1484 416H455.852Z" fill="#4A1F63"/>
<path fill-rule="evenodd" clip-rule="evenodd" d="M76.9827 439C49.7152 412.322 28.3858 379.6 15.1621 343H496.837C483.613 379.6 462.284 412.322 435.017 439H76.9827Z" fill="#0052B4"/>
<path fill-rule="evenodd" clip-rule="evenodd" d="M24.7713 366C10.784 336.65 2.22016 304.218 0.375977 270H511.623C509.779 304.218 501.215 336.65 487.228 366H24.7713Z" fill="#338AF3"/>
<path fill-rule="evenodd" clip-rule="evenodd" d="M509.346 293C511.095 280.919 512 268.565 512 256C512 243.435 511.095 231.081 509.346 219H2.65418C0.905281 231.081 0 243.435 0 256C0 268.565 0.905281 280.919 2.65418 293H509.346Z" fill="#496E2D"/>
<path fill-rule="evenodd" clip-rule="evenodd" d="M509.346 219H2.6543C7.68475 184.251 19.6948 151.762 37.2171 123H474.783C492.305 151.762 504.315 184.251 509.346 219Z" fill="#FFDA44"/>
<path fill-rule="evenodd" clip-rule="evenodd" d="M408.015 50C441.688 74.8902 469.042 107.84 487.228 146H24.7715C42.9575 107.84 70.3118 74.8902 103.985 50H408.015Z" fill="#FF9811"/>
<path fill-rule="evenodd" clip-rule="evenodd" d="M76.9834 73C123.143 27.8384 186.321 0 256 0C325.68 0 388.857 27.8384 435.017 73H76.9834Z" fill="#D80027"/>
<circle cx="256" cy="256" r="112" fill="#85693D"/>
<path fill-rule="evenodd" clip-rule="evenodd" d="M360 256C360 313.438 313.438 360 256 360C198.562 360 152 313.438 152 256C152 198.562 198.562 152 256 152C313.438 152 360 198.562 360 256ZM320 256C320 291.346 291.346 320 256 320C220.654 320 192 291.346 192 256C192 220.654 220.654 192 256 192C291.346 192 320 220.654 320 256ZM256 312C286.928 312 312 286.928 312 256C312 225.072 286.928 200 256 200C225.072 200 200 225.072 200 256C200 286.928 225.072 312 256 312Z" fill="#FFC635"/>
<path fill-rule="evenodd" clip-rule="evenodd" d="M212 232C212 223.163 219.163 216 228 216C236.837 216 244 223.163 244 232C244 240.837 236.837 248 228 248C219.163 248 212 240.837 212 232ZM228 224C223.582 224 220 227.582 220 232C220 236.418 223.582 240 228 240C232.418 240 236 236.418 236 232C236 227.582 232.418 224 228 224Z" fill="#85693D"/>
<path fill-rule="evenodd" clip-rule="evenodd" d="M268 232C268 223.163 275.163 216 284 216C292.837 216 300 223.163 300 232C300 240.837 292.837 248 284 248C275.163 248 268 240.837 268 232ZM284 224C279.582 224 276 227.582 276 232C276 236.418 279.582 240 284 240C288.418 240 292 236.418 292 232C292 227.582 288.418 224 284 224Z" fill="#85693D"/>
<path fill-rule="evenodd" clip-rule="evenodd" d="M224 264L288 264C296.837 264 304 271.163 304 280C304 288.837 296.837 296 288 296L224 296C215.163 296 208 288.837 208 280C208 271.163 215.163 264 224 264ZM224 272L223.978 272L226 272L226 278L238 278L238 272L242 272L242 278L254 278L254 272H238L224 272ZM216.252 278C216.976 275.189 219.189 272.976 222 272.252L222 278L216.252 278ZM216 280L216 279.977V280.023L216 280ZM222 287.748C219.189 287.024 216.976 284.811 216.252 282L222 282L222 287.748ZM238 288L226 288L226 282L238 282L238 288ZM254 288L242 288L242 282L254 282L254 288ZM270 288H258L258 282.001L270 282.001L270 288ZM286 288L274 288L274 282.001L286 282.001L286 288ZM295.748 282.001C295.024 284.812 292.811 287.025 290 287.748L290 282.001L295.748 282.001ZM290 272.252C292.812 272.976 295.025 275.189 295.748 278.001L290 278.001L290 272.252ZM270.283 272L286 272L286 278.001L274 278.001L274 272L270.283 272ZM254.049 272L270 272L270 278.001L258 278.001L258 272L254.049 272Z" fill="#85693D"/>
</g>
<defs>
<clipPath id="clip0_623_83104">
<rect width="512" height="512" fill="white"/>
</clipPath>
</defs>
</svg>
