<svg width="512" height="512" viewBox="0 0 512 512" fill="none" xmlns="http://www.w3.org/2000/svg">
<g clip-path="url(#clip0_623_83124)">
<circle cx="256" cy="256" r="256" fill="#0052B4"/>
<path d="M245.585 512C178.982 509.335 118.927 481.224 74.8767 437.123L256 256L437.123 437.123C393.073 481.224 333.018 509.335 266.415 512L245.585 512Z" fill="#D80027"/>
<path fill-rule="evenodd" clip-rule="evenodd" d="M510.05 287.756C511.337 277.351 512 266.753 512 256C512 245.247 511.337 234.649 510.05 224.244L256 256L460.812 102.391C446.248 83.0038 428.996 65.7516 409.609 51.188L256 256L287.756 1.95032C277.351 0.662989 266.753 0 256 0C245.247 0 234.649 0.662989 224.244 1.95032L256 256L102.391 51.188C83.0038 65.7516 65.7516 83.0038 51.188 102.391L256 256L1.95032 224.244C0.662989 234.649 0 245.247 0 256C0 266.753 0.662989 277.351 1.95032 287.756L256 256L510.05 287.756Z" fill="#FFDA44"/>
</g>
<defs>
<clipPath id="clip0_623_83124">
<rect width="512" height="512" fill="white"/>
</clipPath>
</defs>
</svg>
