<svg width="512" height="512" viewBox="0 0 512 512" fill="none" xmlns="http://www.w3.org/2000/svg">
<path d="M136 482.19C171.792 501.219 212.637 512 256 512C299.363 512 340.208 501.219 376 482.19L376 29.8097C340.208 10.7813 299.363 -3.34991e-06 256 -5.24537e-06C212.637 -7.14082e-06 171.792 10.7813 136 29.8096L136 482.19Z" fill="#FFDA44"/>
<path d="M168 496.474C69.9657 460.589 -1.534e-05 366.465 -1.05114e-05 256C-5.68287e-06 145.535 69.9657 51.4116 168 15.5264L168 496.474Z" fill="#0052B4"/>
<path d="M344 496.474L344 15.5264C442.034 51.4116 512 145.535 512 256C512 366.465 442.034 460.589 344 496.474Z" fill="#D80027"/>
</svg>
