<svg width="512" height="512" viewBox="0 0 512 512" fill="none" xmlns="http://www.w3.org/2000/svg">
<g clip-path="url(#clip0_623_83155)">
<circle cx="256" cy="256" r="256" fill="#FFDA44"/>
<path fill-rule="evenodd" clip-rule="evenodd" d="M455.852 416C408.936 474.526 336.844 512 256 512C175.156 512 103.064 474.526 56.1479 416H455.852Z" fill="#A2001D"/>
<path fill-rule="evenodd" clip-rule="evenodd" d="M49.8608 407.827C46.8617 403.761 43.98 399.604 41.2207 395.36L228.989 395.36L241.455 407.827H49.8608ZM470.779 395.36C468.02 399.604 465.138 403.761 462.139 407.827H270.544L283.01 395.36H470.779Z" fill="#A2001D"/>
<path fill-rule="evenodd" clip-rule="evenodd" d="M279.504 29.2202L255.999 52.7311L232.491 29.2202V52.7311L208.98 52.7253L232.491 76.2333L208.986 99.7442H232.491V123.252L255.999 99.7442L279.507 123.252V99.7442L303.015 99.7471L279.507 76.2391L303.012 52.7311H279.507L279.504 29.2202ZM240.801 49.2841V61.0381H229.044L244.242 76.2333L229.05 91.4314H240.801V103.188L255.999 87.9902L271.192 103.185V91.4314H282.949L267.75 76.2333L282.949 61.0381H271.192V49.2841L255.999 64.4822L240.801 49.2841ZM135.513 102.734L159.021 79.2261V102.734H182.529L159.021 126.245L182.529 149.753L159.021 149.747L159.024 173.258L135.516 149.747L112.008 173.258V149.747H88.5L112.008 126.239L88.5 102.731H112.008V79.2261L135.513 102.734ZM120.315 111.041V99.2899L135.513 114.488L150.708 99.2899V111.041H162.465L147.267 126.239L162.462 141.437H150.708V153.188L135.516 137.996L120.315 153.194V141.437H108.567L123.759 126.239L108.564 111.041H120.315ZM399.994 79.2261L376.486 102.734L352.975 79.2261V102.734H329.473L352.981 126.245L329.473 149.747H352.981V173.258L376.486 149.747L399.994 173.258V149.753H423.502L399.994 126.245L423.502 102.734H399.994V79.2261ZM361.288 99.2899V111.047H349.537L364.732 126.242L349.537 141.437H361.288V153.194L376.486 137.996L391.681 153.194V141.437H403.435L388.243 126.242L403.438 111.047H391.681V99.2929L376.486 114.488L361.288 99.2899ZM249.766 234.619V422.506H262.235V234.619L329.458 167.393V143.885L294.199 108.623L264.814 138.008V161.513L285.385 182.084L308.893 158.576L294.199 143.885L285.385 152.699L291.262 158.576L285.385 164.45L273.631 152.699L294.199 132.128L320.644 158.576L256 223.22L191.353 158.576L217.801 132.128L238.366 152.699L226.615 164.45L220.738 158.576L226.615 152.699L217.801 143.885L203.107 158.576L226.615 182.084L247.186 161.513V138.008L217.801 108.623L182.539 143.885V167.393L249.766 234.619ZM241.457 238.061V255.692L167.847 182.084L141.402 208.529L161.97 229.1L173.724 217.346L167.847 211.469L161.97 217.346L153.156 208.529L167.847 193.835L191.355 217.346L170.784 237.914H147.281L117.891 208.529L153.156 173.27H176.666L241.457 238.061ZM270.547 238.061V255.692L344.157 182.084L370.602 208.529L350.031 229.1L338.28 217.346L344.157 211.469L350.031 217.346L358.845 208.529L344.157 193.835L320.646 217.346L341.217 237.914H364.723L394.11 208.529L358.845 173.27H335.337L270.547 238.061ZM241.455 407.831V267.449L197.23 223.22L167.845 252.605V276.119L185.473 293.747L211.921 267.299L197.23 252.611L188.416 261.425L194.293 267.299L188.416 273.176L176.659 261.425L197.23 240.854L228.989 272.61V407.83L241.455 407.831ZM283.011 407.83V272.61L314.77 240.854L335.341 261.425L323.584 273.176L317.707 267.299L323.584 261.425L314.77 252.611L300.076 267.299L326.521 293.747L344.155 276.119V252.611L314.77 223.226L270.544 267.449V407.831L283.011 407.83Z" fill="#A2001D"/>
</g>
<defs>
<clipPath id="clip0_623_83155">
<rect width="512" height="512" fill="white"/>
</clipPath>
</defs>
</svg>
