<svg width="512" height="512" viewBox="0 0 512 512" fill="none" xmlns="http://www.w3.org/2000/svg">
<g clip-path="url(#clip0_623_83142)">
<path d="M482.19 376C501.219 340.208 512 299.363 512 256C512 212.637 501.219 171.792 482.19 136H29.8097C10.7813 171.792 0 212.637 0 256C0 299.363 10.7813 340.208 29.8097 376H482.19Z" fill="#496E2D"/>
<path d="M496.474 344C460.589 442.034 366.465 512 256 512C145.535 512 51.4116 442.034 15.5264 344H496.474Z" fill="#D80027"/>
<path d="M496.474 168H15.5264C51.4116 69.9657 145.535 0 256 0C366.465 0 460.589 69.9657 496.474 168Z" fill="#496E2D"/>
<path fill-rule="evenodd" clip-rule="evenodd" d="M96 56.1479V288H510.019C507.232 310.356 501.561 331.818 493.391 352H96V455.852C37.4744 408.936 0 336.844 0 256C0 175.156 37.4744 103.064 96 56.1479Z" fill="#EEEEEE"/>
<path fill-rule="evenodd" clip-rule="evenodd" d="M57.9874 93.7321C60.6597 90.475 63.4108 87.285 66.2377 84.165C73.4675 95.4824 77.8038 110.392 69.0853 124.781C67.1644 128.016 64.7315 130.653 61.9833 132.684C65.1564 134.77 67.9745 137.625 70.1696 141.243L70.1821 141.264L70.1945 141.285C80.8366 159.15 71.7179 177.829 61.6664 189.48L61.507 189.665L61.3331 189.836L43.8642 207.037C34.8407 217.577 30.1205 230.209 36.6891 241.028L36.7062 241.056L36.723 241.085C41.574 249.276 51.7741 250.161 57.4897 244.879C63.3792 239.364 64.3977 232.115 61.1623 227.627C57.4573 222.488 51.6343 223.435 49.6414 226.527C47.4462 229.971 49.5346 232.494 50.9968 232.861C54.211 233.667 56.1629 236.927 55.3567 240.141C54.5504 243.355 51.2912 245.307 48.0771 244.501C37.6658 241.889 33.4887 229.522 39.533 220.061L39.5369 220.055L39.5408 220.048C47.1171 208.252 63.3888 210.196 70.8963 220.609C78.8735 231.674 74.288 245.601 65.6741 253.654L65.6638 253.664L65.6535 253.674C64.7728 254.489 63.8465 255.228 62.8827 255.89C63.6845 256.478 64.4594 257.12 65.2028 257.815L65.2095 257.821L65.2162 257.828C73.7129 265.828 78.1845 279.988 70.2726 291.057C62.7777 301.544 46.5008 303.519 38.9149 291.665C32.5973 282.021 37.1508 269.663 47.4271 267.063C50.6396 266.25 53.9028 268.195 54.7156 271.408C55.5285 274.62 53.5832 277.883 50.3707 278.696C48.7865 279.097 46.7415 281.732 48.9619 285.103L48.9875 285.142L49.0124 285.181C51.0027 288.307 56.7982 289.273 60.5099 284.08C63.8114 279.46 62.6779 271.925 56.9974 266.571C51.062 261.025 40.8817 261.871 35.9113 270.109C29.4248 281.12 34.1086 293.949 43.079 304.52L60.5486 321.871L60.7217 322.043L60.8802 322.228C70.8853 333.926 80.2104 352.753 69.3939 370.759C67.408 374.132 64.8712 376.862 62.0025 378.938C64.9113 380.979 67.4962 383.686 69.5407 387.056L69.5532 387.077L69.5655 387.098C78.2184 401.623 73.8075 416.686 66.4535 428.073C63.6291 424.963 60.8802 421.784 58.2096 418.538C62.7623 410.192 64.0097 401.238 59.2687 393.26C54.3098 385.112 44.1041 384.248 38.1519 389.762C38.052 389.855 37.9536 389.949 37.8565 390.044C35.7268 386.586 33.6771 383.073 31.7098 379.508C31.9059 379.356 32.1037 379.208 32.3032 379.063C31.7954 378.688 31.2989 378.291 30.8148 377.872C27.1708 371.153 23.8188 364.253 20.7758 357.188C20.6998 352.696 21.9242 348.15 24.8865 344.005C32.3896 333.508 48.6938 331.54 56.269 343.437L56.2729 343.443L56.2768 343.449C62.2749 352.92 58.1711 365.359 47.732 368C44.5195 368.813 41.2563 366.868 40.4435 363.655C39.6306 360.443 41.5759 357.18 44.7884 356.367C46.2229 356.004 48.3844 353.422 46.1429 349.876C44.1491 346.755 38.3586 345.793 34.6492 350.983C31.378 355.56 32.4335 362.925 38.3264 368.491C44.0242 373.803 54.1991 372.938 59.0626 364.654L59.0792 364.626L59.0961 364.598C65.6979 353.629 60.9362 340.838 51.9153 330.209L34.4456 312.858L34.2725 312.686L34.114 312.501C24.0596 300.745 14.9812 281.952 25.591 263.986L25.6032 263.965L25.6156 263.945C27.8047 260.305 30.6174 257.431 33.786 255.328C30.9273 253.271 28.398 250.568 26.4146 247.228C15.5658 229.323 24.9323 210.61 34.9337 199.017L35.0931 198.832L35.267 198.661L52.7358 181.46C61.708 170.978 66.3516 158.308 59.8975 147.447C54.9387 139.299 44.7331 138.435 38.781 143.949C33.1044 149.252 32.0066 156.67 35.2729 161.201C38.9801 166.343 44.8081 165.392 46.7974 162.295L46.8226 162.255L46.8484 162.217C49.0196 158.949 47.0532 156.372 45.4383 155.967C42.2242 155.16 40.2722 151.901 41.0785 148.687C41.8848 145.473 45.1439 143.521 48.3581 144.327C58.6038 146.897 63.2356 159.184 56.8693 168.818C49.2824 180.571 33.0382 178.62 25.5389 168.218C22.14 163.504 21.0193 158.229 21.5147 153.113C24.0933 147.245 26.8857 141.492 29.8821 135.864C30.118 135.628 30.3573 135.396 30.5998 135.17L30.6066 135.164L30.6133 135.157C31.2672 134.551 31.9456 133.985 32.6452 133.461C32.29 133.218 31.9398 132.964 31.5951 132.7C33.5582 129.135 35.6037 125.622 37.7292 122.163C37.8218 122.253 37.9156 122.342 38.0108 122.431C43.7265 127.714 53.9264 126.828 58.7773 118.637L58.794 118.609L58.8111 118.581C63.5632 110.753 62.407 101.978 57.9874 93.7321ZM55.4601 96.8621C50.0473 103.674 44.9743 110.768 40.2666 118.118C41.2421 121.077 44.3531 122.824 47.4231 122.054C57.8343 119.442 62.0117 107.075 55.9672 97.6143L55.9633 97.6082L55.9594 97.6021C55.7969 97.3491 55.6304 97.1025 55.4601 96.8621ZM55.6944 415.432C55.8809 415.172 56.063 414.905 56.2403 414.631C62.6069 404.997 57.9747 392.71 47.7291 390.14C44.5938 389.354 41.4156 391.192 40.5133 394.266C42.2928 397.033 44.1241 399.765 46.006 402.458C46.3592 402.782 46.6709 403.205 46.8842 403.707C49.7109 407.701 52.6491 411.611 55.6944 415.432Z" fill="#FFC635"/>
</g>
<defs>
<clipPath id="clip0_623_83142">
<rect width="512" height="512" fill="white"/>
</clipPath>
</defs>
</svg>
