<svg width="512" height="512" viewBox="0 0 512 512" fill="none" xmlns="http://www.w3.org/2000/svg">
<g clip-path="url(#clip0_623_83189)">
<path fill-rule="evenodd" clip-rule="evenodd" d="M231.149 1.19092L263 256L231.149 510.809C219.932 509.729 208.927 507.924 198.18 505.444L167 256L198.18 6.55675C208.927 4.07582 219.932 2.27145 231.149 1.19092Z" fill="#FFDA44"/>
<path fill-rule="evenodd" clip-rule="evenodd" d="M199 6.36865V505.631C187.314 502.974 175.933 499.517 164.915 495.322L135 256L164.915 16.6779C175.933 12.4824 187.314 9.02578 199 6.36865Z" fill="#496E2D"/>
<path fill-rule="evenodd" clip-rule="evenodd" d="M256 512C397.385 512 512 397.385 512 256C512 114.615 397.385 0 256 0C247.565 0 239.226 0.407933 231 1.20515V510.795C239.226 511.592 247.565 512 256 512Z" fill="#0052B4"/>
<path fill-rule="evenodd" clip-rule="evenodd" d="M167 496.105C69.4902 459.948 0 366.089 0 256C0 145.911 69.4902 52.0522 167 15.8945V496.105Z" fill="#D80027"/>
<path d="M199 132L188 148L199 164C223.4 164 246.8 173.693 264.054 190.946C281.307 208.2 291 231.6 291 256C291 280.4 281.307 303.8 264.054 321.054C246.8 338.307 223.4 348 199 348L188 364L199 380C231.887 380 263.427 366.936 286.681 343.681C309.936 320.427 323 288.887 323 256C323 223.113 309.936 191.573 286.681 168.319C263.427 145.064 231.887 132 199 132Z" fill="#D80027"/>
<path d="M199 132C166.113 132 134.573 145.064 111.319 168.319C88.0642 191.573 75 223.113 75 256C75 288.887 88.0642 320.427 111.319 343.681C134.573 366.936 166.113 380 199 380V348C174.6 348 151.2 338.307 133.946 321.054C116.693 303.8 107 280.4 107 256C107 231.6 116.693 208.2 133.946 190.946C151.2 173.693 174.6 164 199 164V132Z" fill="#0052B4"/>
</g>
<defs>
<clipPath id="clip0_623_83189">
<rect width="512" height="512" fill="white"/>
</clipPath>
</defs>
</svg>
