<svg width="512" height="512" viewBox="0 0 512 512" fill="none" xmlns="http://www.w3.org/2000/svg">
<g clip-path="url(#clip0_623_83203)">
<path d="M437.011 74.9727L223.99 223.99L74.9727 437.011C121.3 483.343 185.303 512 256 512C396.433 512 510.455 398.923 511.984 258.852V253.147C511.225 183.583 482.719 120.676 437.011 74.9727Z" fill="#496E2D"/>
<path d="M437.012 74.9728L74.9729 437.012C28.6506 390.685 0 326.688 0 256C0 114.644 114.568 0.0474912 255.912 1.47571e-05C255.941 4.91931e-06 255.971 0 256 0C256.029 0 256.059 4.91419e-06 256.088 1.47418e-05C326.741 0.0237344 390.704 28.6697 437.012 74.9728Z" fill="#0052B4"/>
<path d="M447.871 86.7566L86.5486 448.079C78.541 441.018 70.9783 433.464 63.9082 425.464L425.256 64.1162C433.256 71.1864 440.81 78.749 447.871 86.7566Z" fill="#FFDA44"/>
</g>
<path d="M97.3767 92.2598L102.904 109.267H120.785L106.319 119.776L111.844 136.783L97.3767 126.272L82.9097 136.783L88.4367 119.776L73.9697 109.267H91.8517L97.3767 92.2598Z" fill="#EEEEEE"/>
<path d="M188.716 92.2598L194.243 109.267H212.123L197.657 119.776L203.183 136.783L188.716 126.272L174.249 136.783L179.776 119.776L165.309 109.267H183.19L188.716 92.2598Z" fill="#EEEEEE"/>
<path d="M97.3767 181.307L102.904 198.314H120.785L106.319 208.824L111.844 225.831L97.3767 215.32L82.9097 225.831L88.4367 208.824L73.9697 198.314H91.8517L97.3767 181.307Z" fill="#EEEEEE"/>
<path d="M188.716 181.307L194.243 198.314H212.123L197.657 208.824L203.183 225.831L188.716 215.32L174.249 225.831L179.776 208.824L165.309 198.314H183.19L188.716 181.307Z" fill="#EEEEEE"/>
<path d="M143.047 136.782L148.574 153.789H166.454L151.988 164.299L157.514 181.306L143.047 170.795L128.58 181.306L134.106 164.299L119.639 153.789H137.521L143.047 136.782Z" fill="#EEEEEE"/>
<defs>
<clipPath id="clip0_623_83203">
<rect width="512" height="512" fill="white"/>
</clipPath>
</defs>
</svg>
