<svg width="512" height="512" viewBox="0 0 512 512" fill="none" xmlns="http://www.w3.org/2000/svg">
<path d="M482.19 376C501.219 340.208 512 299.363 512 256C512 212.638 501.219 171.793 482.19 136H29.8097C10.7813 171.793 0 212.638 0 256C0 299.363 10.7813 340.208 29.8097 376H482.19Z" fill="#EEEEEE"/>
<path d="M496.474 344C460.589 442.035 366.465 512 256 512C145.535 512 51.4113 442.035 15.5261 344H496.474Z" fill="#333333"/>
<path d="M496.474 168H15.5264C51.4116 69.9662 145.535 0.000488281 256 0.000488281C366.465 0.000488281 460.589 69.9662 496.474 168Z" fill="#D80027"/>
<path d="M0 245.586C2.66508 178.982 30.7761 118.928 74.8766 74.8774L256 256.001L74.8767 437.124C30.7761 393.074 2.66509 333.019 0 266.416V245.586Z" fill="#496E2D"/>
</svg>
