<svg width="512" height="512" viewBox="0 0 512 512" fill="none" xmlns="http://www.w3.org/2000/svg">
<g clip-path="url(#clip0_623_83230)">
<path d="M512 256C512 397.385 397.385 512 256 512C114.615 512 0 397.385 0 256L256 0C397.385 0 512 114.615 512 256Z" fill="#002266"/>
<path d="M256 0V256H0C0 114.615 114.615 0 256 0Z" fill="#002266"/>
<path d="M217.562 256H256V217.562L140.688 102.25H256V0C114.615 0 0 114.615 0 256H102.25V140.688L217.562 256Z" fill="#EEEEEE"/>
<path d="M256 76.625V25.375H144.743C92.7292 50.5133 50.5133 92.7292 25.375 144.743V256H76.625V76.625H256Z" fill="#D80027"/>
<path d="M256 230.375V256L102.25 102.25H127.875L256 230.375Z" fill="#D80027"/>
<path d="M336 233.5L384 153.5L432 233.5H336Z" fill="#6DA544"/>
<path d="M384 281.5C410.51 281.5 432 260.01 432 233.5C432 206.99 410.51 185.5 384 185.5C357.49 185.5 336 206.99 336 233.5C336 260.01 357.49 281.5 384 281.5Z" fill="#ACABB1"/>
<path d="M336 233.5V310.5C336 346.5 384 358.5 384 358.5C384 358.5 432 346.5 432 310.5V233.5H336Z" fill="#338AF3"/>
<path d="M336 233.5C336 224.663 328.837 217.5 320 217.5C311.163 217.5 304 224.663 304 233.5V329.5C304 338.337 311.163 345.5 320 345.5C328.837 345.5 336 338.337 336 329.5V233.5Z" fill="#85693D"/>
<path d="M464 233.5C464 224.663 456.837 217.5 448 217.5C439.163 217.5 432 224.663 432 233.5V329.5C432 338.337 439.163 345.5 448 345.5C456.837 345.5 464 338.337 464 329.5V233.5Z" fill="#85693D"/>
<path d="M384 249.5L336 316.5C338 327.5 345 335.5 352 342.5L384 297.5L416 342.5C424 335.5 430 327.5 432 316.5L384 249.5Z" fill="#6DA544"/>
</g>
<defs>
<clipPath id="clip0_623_83230">
<rect width="512" height="512" fill="white"/>
</clipPath>
</defs>
</svg>
