<svg width="512" height="512" viewBox="0 0 512 512" fill="none" xmlns="http://www.w3.org/2000/svg">
<g clip-path="url(#clip0_623_83232)">
<path d="M512 256C512 397.385 397.385 512 256 512C114.615 512 0 397.385 0 256L256 0C397.385 0 512 114.615 512 256Z" fill="#002266"/>
<path d="M256 0V256H0C0 114.615 114.615 0 256 0Z" fill="#002266"/>
<path d="M217.562 256H256V217.562L140.688 102.25H256V0C114.615 0 0 114.615 0 256H102.25V140.688L217.562 256Z" fill="#EEEEEE"/>
<path d="M256 76.625V25.375H144.743C92.7292 50.5133 50.5133 92.7292 25.375 144.743V256H76.625V76.625H256Z" fill="#D80027"/>
<path d="M256 230.375V256L102.25 102.25H127.875L256 230.375Z" fill="#D80027"/>
<path d="M304 152H464V232L384 264L304 232V152Z" fill="#EEEEEE"/>
<path d="M384 164C380.287 164 376.726 165.475 374.1 168.101C371.475 170.726 370 174.287 370 178H328C328 181.713 329.475 185.274 332.1 187.899C334.726 190.525 338.287 192 342 192C342 195.713 343.475 199.274 346.1 201.899C348.726 204.525 352.287 206 356 206C356 209.713 357.475 213.274 360.1 215.899C362.726 218.525 366.287 220 370 220H398C401.713 220 405.274 218.525 407.9 215.899C410.525 213.274 412 209.713 412 206C415.713 206 419.274 204.525 421.9 201.899C424.525 199.274 426 195.713 426 192C429.713 192 433.274 190.525 435.9 187.899C438.525 185.274 440 181.713 440 178H398C398 174.287 396.525 170.726 393.9 168.101C391.274 165.475 387.713 164 384 164Z" fill="#333333"/>
<path d="M304 232V280C304 341 384 360 384 360C384 360 464 341 464 280V232H304Z" fill="#338AF3"/>
<path d="M388 245C379 245 373 253 363 246C368 258 377 255 385 256V262H371C371 262 357 282 371 300H385V305H371C362 305 362 294 362 294H328V305H335C344 313 348 331 362 331H414C429 331 431 322 434 314C437 307 439 306 440 305V297H411C411 297 411 305 403 305H391V299H405C394 282 405 262 405 262H391V246L387 245H388ZM365 262C345 268 334 288 334 288H359C357 271 365 262 365 262ZM409 268C405.671 275.199 404.964 283.335 407 291H431C426 279 431 268 431 268H409Z" fill="#EEEEEE"/>
</g>
<defs>
<clipPath id="clip0_623_83232">
<rect width="512" height="512" fill="white"/>
</clipPath>
</defs>
</svg>
