<svg width="512" height="512" viewBox="0 0 512 512" fill="none" xmlns="http://www.w3.org/2000/svg">
<g clip-path="url(#clip0_623_83234)">
<path d="M512 256C512 397.385 397.385 512 256 512C114.615 512 0 397.385 0 256L256 0C397.385 0 512 114.615 512 256Z" fill="#002266"/>
<path d="M256 0V256H0C0 114.615 114.615 0 256 0Z" fill="#002266"/>
<path d="M217.562 256H256V217.562L140.688 102.25H256V0C114.615 0 0 114.615 0 256H102.25V140.688L217.562 256Z" fill="#EEEEEE"/>
<path d="M256 76.625V25.375H144.743C92.7292 50.5133 50.5133 92.7292 25.375 144.743V256H76.625V76.625H256Z" fill="#D80027"/>
<path d="M256 230.375V256L102.25 102.25H127.875L256 230.375Z" fill="#D80027"/>
<path d="M336 204L384 124L432 204H336Z" fill="#EEEEEE"/>
<path fill-rule="evenodd" clip-rule="evenodd" d="M296.675 358.586C300.384 360.699 304.213 362.7 308.05 364.536L308.644 364.817L307.333 367.721L306.058 370.546L308.883 371.821C320.696 377.159 333.115 381.24 345.797 383.955C358.332 386.638 371.198 388 384.028 388C396.857 388 409.723 386.638 422.262 383.955C434.94 381.24 447.36 377.159 459.177 371.821L462.002 370.546L460.727 367.721L459.416 364.817L460.009 364.536C463.852 362.7 467.68 360.699 471.385 358.587L476 355.954L471.435 353.235C468.196 351.302 464.984 349.254 461.873 347.142C461.753 343.102 461.514 339.048 461.164 335.068L460.741 330.254L456.544 332.647C452.771 334.796 448.86 336.802 444.912 338.611L438.718 341.446L440.494 346.309C422.506 353.539 403.543 357.201 384.028 357.201C364.512 357.201 345.379 353.506 327.317 346.208L329.342 341.441L323.144 338.606C319.2 336.802 315.284 334.796 311.511 332.643L307.268 330.227L306.886 335.095C306.573 339.089 306.375 343.157 306.297 347.207C303.159 349.3 299.919 351.321 296.648 353.221L292 355.927L296.675 358.591L296.675 358.586Z" fill="#EEEEEE"/>
<path d="M384 252C410.51 252 432 230.51 432 204C432 177.49 410.51 156 384 156C357.49 156 336 177.49 336 204C336 230.51 357.49 252 384 252Z" fill="#338AF3"/>
<path d="M336 204V252L384 284L432 252V204H336Z" fill="#338AF3"/>
<path d="M336 204C336 195.163 328.837 188 320 188C311.163 188 304 195.163 304 204V300C304 308.837 311.163 316 320 316C328.837 316 336 308.837 336 300V204Z" fill="#FF9811"/>
<path d="M464 204C464 195.163 456.837 188 448 188C439.163 188 432 195.163 432 204V300C432 308.837 439.163 316 448 316C456.837 316 464 308.837 464 300V204Z" fill="#FF9811"/>
<path d="M336 252V281C336 317 384 329 384 329C384 329 432 317 432 281V252H336ZM384 204L368 252H400L384 204Z" fill="#EEEEEE"/>
<path d="M368 252L384 300L400 252H368Z" fill="#338AF3"/>
</g>
<defs>
<clipPath id="clip0_623_83234">
<rect width="512" height="512" fill="white"/>
</clipPath>
</defs>
</svg>
