<svg width="512" height="512" viewBox="0 0 512 512" fill="none" xmlns="http://www.w3.org/2000/svg">
<path d="M384 34.2482C346.346 12.4665 302.629 -7.63327e-06 256 -5.59506e-06C209.371 -3.55685e-06 165.654 12.4665 128 34.2482L128 477.752C165.654 499.534 209.371 512 256 512C302.629 512 346.346 499.534 384 477.752L384 34.2482Z" fill="#FFDA44"/>
<path d="M512 256.089C511.965 357.271 453.23 444.731 368 486.265L368 25.7355C453.23 67.2687 511.965 154.729 512 255.911C512 255.941 512 255.97 512 256C512 256.03 512 256.06 512 256.089Z" fill="#D80027"/>
<path d="M-1.00652e-05 256C-5.64072e-06 357.22 58.7445 444.719 144 486.265L144 25.7356C58.7445 67.281 -1.44896e-05 154.78 -1.00652e-05 256Z" fill="#496E2D"/>
<path d="M256.001 157.552L278.104 225.578H349.631L291.765 267.62L313.867 335.646L256.001 293.604L198.135 335.646L220.238 267.62L162.372 225.578H233.898L256.001 157.552Z" fill="#496E2D"/>
</svg>
