<svg width="512" height="512" viewBox="0 0 512 512" fill="none" xmlns="http://www.w3.org/2000/svg">
<g clip-path="url(#clip0_623_83253)">
<path d="M482.19 376C501.219 340.208 512 299.363 512 256C512 212.637 501.219 171.792 482.19 136H29.8097C10.7813 171.792 0 212.637 0 256C0 299.363 10.7813 340.208 29.8097 376H482.19Z" fill="#EEEEEE"/>
<path d="M496.474 344C460.589 442.034 366.465 512 256 512C145.535 512 51.4116 442.034 15.5264 344H496.474Z" fill="#D80027"/>
<path d="M496.474 168H15.5264C51.4116 69.9657 145.535 0 256 0C366.465 0 460.589 69.9657 496.474 168Z" fill="#496E2D"/>
<path d="M256 200.3L269.8 242.9H314.5L278.4 269L292.2 311.6L256 285.3L219.8 311.6L233.6 269L197.5 242.8H242.2L256 200.3Z" fill="#333333"/>
<path fill-rule="evenodd" clip-rule="evenodd" d="M332 50V102C332 110.2 325.4 116.9 317.2 116.9V139C327.022 139 336.444 135.105 343.399 128.169C350.353 121.233 354.274 111.822 354.3 102V50H332.1H332ZM172.5 102C172.5 110.2 165.9 116.9 157.7 116.9V139C167.505 138.974 176.901 135.067 183.834 128.134C190.767 121.201 194.674 111.805 194.7 102V50H172.5V102ZM298.699 50H320.899V102H298.699V50ZM265.299 79.8C265.299 80.7813 264.91 81.7224 264.216 82.4163C263.522 83.1102 262.581 83.5 261.599 83.5C260.618 83.5 259.677 83.1102 258.983 82.4163C258.289 81.7224 257.899 80.7813 257.899 79.8V50H235.599V79.7C235.599 80.1859 235.504 80.667 235.318 81.1159C235.132 81.5648 234.859 81.9727 234.516 82.3163C234.172 82.6599 233.764 82.9324 233.315 83.1184C232.866 83.3043 232.385 83.4 231.899 83.4C231.414 83.4 230.932 83.3043 230.483 83.1184C230.035 82.9324 229.627 82.6599 229.283 82.3163C228.94 81.9727 228.667 81.5648 228.481 81.1159C228.295 80.667 228.199 80.1859 228.199 79.7V50H205.899V79.7C205.899 83.1144 206.572 86.4953 207.879 89.6498C209.185 92.8042 211.1 95.6705 213.515 98.0848C218.391 102.961 225.004 105.7 231.899 105.7C237.198 105.69 242.366 104.049 246.699 101C251.073 104.034 256.277 105.64 261.599 105.6C262.599 105.6 263.799 105.6 264.799 105.4C264.018 108.636 262.175 111.516 259.565 113.583C256.955 115.649 253.728 116.781 250.399 116.8V139C260.222 139 269.643 135.105 276.598 128.169C283.553 121.233 287.473 111.822 287.499 102V50H265.299V79.7V79.8ZM239.299 116.9H205.999L205.899 139H239.299V116.9Z" fill="#EEEEEE"/>
</g>
<defs>
<clipPath id="clip0_623_83253">
<rect width="512" height="512" fill="white"/>
</clipPath>
</defs>
</svg>
