<svg width="512" height="512" viewBox="0 0 512 512" fill="none" xmlns="http://www.w3.org/2000/svg">
<path d="M482.19 376C501.219 340.208 512 299.363 512 256C512 212.637 501.219 171.792 482.19 136H29.8097C10.7813 171.792 0 212.637 0 256C0 299.363 10.7813 340.208 29.8097 376H482.19Z" fill="#A2001D"/>
<path d="M496.474 344C460.589 442.034 366.465 512 256 512C145.535 512 51.4116 442.034 15.5264 344H496.474Z" fill="#496E2D"/>
<path d="M496.474 168H15.5264C51.4116 69.9657 145.535 0 256 0C366.465 0 460.589 69.9657 496.474 168Z" fill="#333333"/>
<path fill-rule="evenodd" clip-rule="evenodd" d="M493.391 160C497.58 170.348 501.112 181.032 503.935 192L8.06494 192C10.888 181.032 14.4197 170.348 18.6084 160L493.391 160ZM493.391 352C497.58 341.652 501.112 330.968 503.935 320L8.06494 320C10.888 330.968 14.4197 341.652 18.6084 352L493.391 352Z" fill="#EEEEEE"/>
<path d="M0 245.585C2.66508 178.982 30.7761 118.927 74.8766 74.877L256 256L74.8767 437.124C30.7761 393.073 2.66509 333.018 0 266.415V245.585Z" fill="#338AF3"/>
<path d="M106.089 182.081L122.685 233.158H176.391L132.942 264.726L149.538 315.803L106.089 284.235L62.6399 315.803L79.2359 264.726L35.7868 233.158H89.4929L106.089 182.081Z" fill="#FFDA44"/>
</svg>
