<svg width="512" height="512" viewBox="0 0 512 512" fill="none" xmlns="http://www.w3.org/2000/svg">
<path d="M482.19 376C501.219 340.208 512 299.363 512 256C512 212.637 501.219 171.792 482.19 136H29.8097C10.7813 171.792 0 212.637 0 256C0 299.363 10.7813 340.208 29.8097 376H482.19Z" fill="#EEEEEE"/>
<path d="M496.474 344C460.589 442.034 366.465 512 256 512C145.535 512 51.4113 442.034 15.5261 344H496.474Z" fill="#333333"/>
<path d="M496.474 168H15.5264C51.4116 69.9657 145.535 0 256 0C366.465 0 460.589 69.9657 496.474 168Z" fill="#D80027"/>
<path d="M145.28 182.081L161.876 233.159H215.582L172.133 264.726L188.729 315.804L145.28 284.236L101.831 315.804L118.427 264.726L74.9778 233.159H128.684L145.28 182.081Z" fill="#496E2D"/>
<path d="M366.72 182.081L383.316 233.159H437.022L393.573 264.726L410.169 315.804L366.72 284.236L323.271 315.804L339.867 264.726L296.418 233.159H350.124L366.72 182.081Z" fill="#496E2D"/>
</svg>
