<svg width="512" height="512" viewBox="0 0 512 512" fill="none" xmlns="http://www.w3.org/2000/svg">
<path d="M482.19 376C501.219 340.208 512 299.363 512 256C512 212.637 501.219 171.792 482.19 136H29.8097C10.7813 171.792 0 212.637 0 256C0 299.363 10.7813 340.208 29.8097 376H482.19Z" fill="#EEEEEE"/>
<path d="M496.474 344C460.589 442.034 366.465 512 256 512C145.535 512 51.4113 442.034 15.5261 344H496.474Z" fill="#333333"/>
<path d="M496.474 168H15.5264C51.4116 69.9657 145.535 0 256 0C366.465 0 460.589 69.9657 496.474 168Z" fill="#496E2D"/>
<path d="M89.92 182.081L106.516 233.159H160.222L116.773 264.726L133.369 315.804L89.92 284.236L46.4709 315.804L63.067 264.726L19.6179 233.159H73.3239L89.92 182.081Z" fill="#D80027"/>
<path d="M256 182.081L272.596 233.159H326.302L282.853 264.726L299.449 315.804L256 284.236L212.551 315.804L229.147 264.726L185.698 233.159H239.404L256 182.081Z" fill="#D80027"/>
<path d="M422.08 182.081L438.676 233.159H492.382L448.933 264.726L465.529 315.804L422.08 284.236L378.631 315.804L395.227 264.726L351.778 233.159H405.484L422.08 182.081Z" fill="#D80027"/>
</svg>
