<svg width="512" height="512" viewBox="0 0 512 512" fill="none" xmlns="http://www.w3.org/2000/svg">
<path fill-rule="evenodd" clip-rule="evenodd" d="M256 512C397.385 512 512 397.385 512 256C512 114.615 397.385 0 256 0C114.615 0 0 114.615 0 256C0 397.385 114.615 512 256 512Z" fill="#D80027"/>
<path fill-rule="evenodd" clip-rule="evenodd" d="M68.8499 81.3251L255.999 255.998L17.1713 163.63C29.0723 132.881 46.7408 105.003 68.8499 81.3251ZM152.095 21.9648L255.999 255.998L5.29326e-10 255.999C5.29326e-10 256 0 256 0 256C0 288.567 6.08125 319.714 17.1701 348.367L255.999 255.998L443.152 430.673C465.261 406.995 482.929 379.117 494.83 348.367L255.999 255.998L512 255.999C512 223.432 505.918 192.285 494.829 163.632L255.999 255.998L443.15 81.3252C419.825 56.3448 391.557 36.0387 359.906 21.9651L255.999 255.998L256 0C219.008 0 183.849 7.84605 152.095 21.9648Z" fill="#002266"/>
<circle cx="256" cy="255.999" r="89.0441" fill="#FFDA44"/>
<path fill-rule="evenodd" clip-rule="evenodd" d="M68.8491 430.674L256 256L443.151 430.674C396.425 480.716 329.866 512 256 512C182.134 512 115.575 480.716 68.8491 430.674Z" fill="#EEEEEE"/>
<path d="M256 356.887L280 380.887H232L256 356.887Z" fill="#FF9811"/>
<path d="M254.887 293.454C254.312 295.421 253.738 296.84 252.86 298.375C251.972 299.927 250.374 301.087 248.615 302.365C246.358 304.004 243.835 305.836 242.203 308.937C240.143 312.85 239.317 315.583 239.096 317.474C238.904 316.646 238.793 315.766 238.681 314.715C238.388 313.009 238.845 310.277 239.172 308.324C239.486 306.449 239.68 305.291 238.974 306.45C238.787 306.746 238.225 307.361 237.444 308.217C234.593 311.339 228.82 317.66 227.68 323.378C226.813 326.723 226.52 328.889 227.68 332.233C228.76 336.266 230.084 337.738 233.532 341.572C233.788 341.856 234.055 342.154 234.335 342.466C234.847 342.931 234.453 340.724 234.044 338.433C233.76 336.84 233.468 335.206 233.468 334.399C233.18 333.021 233.832 334.303 234.845 336.298C235.857 338.291 237.23 340.993 238.389 342.466C239.831 344.433 240.708 345.612 242.735 347.387C245.629 349.943 252.002 354.474 251.417 353.685C249.967 351.572 249.704 350.469 249.458 349.435C249.36 349.024 249.264 348.624 249.098 348.175C248.231 345.022 248.231 342.466 249.098 338.923C249.389 337.425 250.129 335.827 250.75 334.486C251.353 333.183 251.844 332.124 251.699 331.637C251.884 330.27 252.181 331.806 252.522 333.569C252.721 334.599 252.936 335.707 253.151 336.359C254.027 339.343 255.569 342.726 256.843 345.523C258.092 348.264 259.084 350.44 258.94 351.122C258.647 351.513 263.286 348.168 265.312 346.002C267.986 343.342 269.493 338.693 270.246 336.371C270.552 335.426 270.734 334.867 270.818 334.982C273.137 337.936 272.27 343.247 271.978 343.837C271.685 344.426 275.457 341.472 276.899 339.505C281.245 334.193 280.085 329.862 278.351 323.762C277.824 322.154 277.24 321.032 276.65 319.901C275.94 318.54 275.223 317.164 274.589 314.907C274.278 313.625 275.156 310.896 275.701 309.202C276.161 307.772 276.384 307.078 275.457 308.609C274.887 309.305 273.696 310.242 272.318 311.326C270.183 313.007 267.599 315.04 266.19 317.073C266.095 317.214 265.994 317.36 265.888 317.508C266.088 316.629 266.308 315.806 266.711 314.744L266.699 314.744C266.929 314.253 267.073 313.807 267.21 313.381C267.43 312.7 267.633 312.071 268.145 311.395C268.74 310.608 264.977 313.192 263.437 314.743C261.902 316.042 261.055 316.991 260.413 318.451C260.645 316.04 262.727 310.759 262.993 310.384C263.286 309.595 263.568 307.827 263.286 306.45V306.443C262.993 304.476 261.259 299.945 261.551 301.721C261.844 305.264 259.817 308.019 256.63 310.973C254.69 312.588 252.582 314.421 250.556 316.635C250.843 313.775 251.359 310.781 253.445 308.416C256.59 304.746 258.594 300.301 257.498 295.428C257.206 293.262 255.764 288.931 255.764 289.917C255.764 290.765 255.546 291.39 255.311 292.066C255.163 292.488 255.009 292.931 254.897 293.461L254.887 293.454Z" fill="#D80027"/>
<circle cx="256" cy="432" r="32" fill="#FFDA44"/>
<circle cx="256" cy="432" r="24" fill="#FF9811"/>
<path d="M280 432.005C280 445.254 269.264 456 256.02 456C242.776 456 232 445.254 232 432.005C232 425.372 237.372 419.98 244.007 419.98C250.647 419.98 256.002 425.372 256.002 432.005C256.002 438.64 261.368 444.021 268.01 444.021C274.64 444.02 280 438.64 280 432.005Z" fill="#002266"/>
<path d="M133.004 414.657L168.266 372.633C175.364 364.175 187.975 363.071 196.434 370.169C204.893 377.267 205.996 389.878 198.898 398.337L198.057 399.34C195.229 402.258 191.488 404.344 187.181 405.104L133.004 414.657Z" fill="#6DA544"/>
<path d="M378.996 414.657L343.734 372.633C336.636 364.175 324.025 363.071 315.566 370.169C307.107 377.267 306.004 389.878 313.102 398.337L313.943 399.34C316.771 402.258 320.512 404.344 324.819 405.104L378.996 414.657Z" fill="#6DA544"/>
</svg>
