<svg width="512" height="512" viewBox="0 0 512 512" fill="none" xmlns="http://www.w3.org/2000/svg">
<g clip-path="url(#clip0_623_83372)">
<circle cx="256" cy="256" r="256" fill="#0052B4"/>
<path fill-rule="evenodd" clip-rule="evenodd" d="M487.137 366.191C481.577 377.835 475.162 388.992 467.974 399.582H128.696L112.696 382.887L128.696 366.191H487.137ZM496.499 343.93L241.828 343.93L144.696 343.93L411.826 121.321C409.53 132.356 408.487 144.109 408.487 155.825C408.487 200.97 435.196 279.448 505.077 315.386C502.763 325.128 499.892 334.655 496.499 343.93Z" fill="#FFDA44"/>
<path d="M188.072 133.565L193.598 150.571H211.478L197.013 161.082L202.539 178.087L188.072 167.578L173.607 178.087L179.132 161.082L164.665 150.571H182.546L188.072 133.565Z" fill="#EEEEEE"/>
<path d="M115.438 256L122.346 277.259H144.696L126.613 290.394L133.521 311.652L115.438 298.514L97.3557 311.652L104.263 290.394L86.1807 277.259H108.531L115.438 256Z" fill="#EEEEEE"/>
<path d="M115.438 77.9131L122.346 99.1721H144.696L126.613 112.307L133.521 133.565L115.438 120.427L97.3557 133.565L104.263 112.307L86.1807 99.1721H108.531L115.438 77.9131Z" fill="#EEEEEE"/>
<path d="M59.7858 178.087L66.6938 199.346H89.0428L70.9608 212.481L77.8688 233.739L59.7858 220.601L41.7038 233.739L48.6108 212.481L30.5288 199.346H52.8778L59.7858 178.087Z" fill="#EEEEEE"/>
</g>
<defs>
<clipPath id="clip0_623_83372">
<rect width="512" height="512" fill="white"/>
</clipPath>
</defs>
</svg>
