<svg width="512" height="512" viewBox="0 0 512 512" fill="none" xmlns="http://www.w3.org/2000/svg">
<g clip-path="url(#clip0_623_83408)">
<circle cx="256" cy="256" r="256" fill="#D80027"/>
<path fill-rule="evenodd" clip-rule="evenodd" d="M503.935 320C509.2 299.544 512 278.099 512 256C512 233.901 509.2 212.456 503.935 192H8.06512C2.80019 212.456 0 233.901 0 256C0 278.099 2.80019 299.544 8.06512 320H503.935Z" fill="#6DA544"/>
<path fill-rule="evenodd" clip-rule="evenodd" d="M136.442 83.0429C143.764 86.2464 149.833 91.7637 153.718 98.7485C160.651 110.724 160.502 124.469 154.083 132.88L128.982 107.779L140.368 96.3926L123.092 94.0368L103.853 113.276L113.669 123.092L121.914 114.847L146.141 139.073C137.758 142.71 127.098 140.086 118.773 132.123L96 152.933L103.067 160L119.558 141.939C130.077 151.289 144.075 153.681 154.648 147.58L167.067 160L174.135 152.933L162.202 141C169.917 131.003 170.561 115.327 162.748 101.89C160.06 96.9742 156.3 92.7276 151.745 89.4648C147.191 86.2021 141.96 84.0071 136.442 83.0429ZM119.558 80.6871L135.264 69.1697L150.969 80.6871L144.96 62.059L160.785 50.454H141.217L135.264 32L129.311 50.454H109.742L125.567 62.059L119.558 80.6871ZM135.264 63.4721L128.589 68.5153L131.154 60.3671L124.27 55.1656H132.792L135.264 47.3129L137.736 55.1656H146.258L139.373 60.3671L141.939 68.5153L135.264 63.4721Z" fill="#FFDA44"/>
</g>
<defs>
<clipPath id="clip0_623_83408">
<rect width="512" height="512" fill="white"/>
</clipPath>
</defs>
</svg>
