<svg width="512" height="512" viewBox="0 0 512 512" fill="none" xmlns="http://www.w3.org/2000/svg">
<g clip-path="url(#clip0_623_83414)">
<path d="M74.9726 74.9887L223.99 288.01L437.011 437.027C483.343 390.7 512 326.697 512 256C512 115.567 398.923 1.54497 258.852 0.0157696L253.147 0.0157698C183.583 0.775233 120.676 29.2812 74.9726 74.9887Z" fill="#D80027"/>
<path d="M74.9728 74.9885L437.012 437.027C390.685 483.349 326.688 512 256 512C114.644 512 0.0474862 397.432 3.57087e-06 256.088C-6.26824e-06 256.059 -1.11888e-05 256.029 -1.11901e-05 256C-1.11914e-05 255.971 -6.27849e-06 255.941 3.54783e-06 255.912C0.0237201 185.259 28.6697 121.296 74.9728 74.9885Z" fill="#D80027"/>
<path d="M27.8198 139.82C52.3707 91.6972 91.6974 52.3706 139.82 27.8196L484.18 372.18C459.629 420.302 420.302 459.629 372.18 484.18L27.8198 139.82Z" fill="#EEEEEE"/>
<path d="M45.8154 109.815C63.1882 84.8834 84.8835 63.188 109.815 45.8152L466.185 402.185C448.812 427.116 427.117 448.812 402.185 466.185L45.8154 109.815Z" fill="#333333"/>
</g>
<defs>
<clipPath id="clip0_623_83414">
<rect width="512" height="512" fill="white" transform="translate(0 512) rotate(-90)"/>
</clipPath>
</defs>
</svg>
