<svg width="512" height="512" viewBox="0 0 512 512" fill="none" xmlns="http://www.w3.org/2000/svg">
<g clip-path="url(#clip0_623_83458)">
<circle cx="256" cy="256" r="256" fill="#D80027"/>
<path d="M256 70L5 256L256 442L507 256L256 70Z" fill="#002266"/>
<path d="M256 130L85 256L256 382L427 256L256 130ZM242.6 124.3L277.3 99.3002H234.6L269.3 124.3L256 83.7002L242.6 124.3ZM46.5 277.4L73.7 244.3L32.3 255.4L72.4001 270.4L49 234.6L46.5 277.4ZM465.5 277.4L438.3 244.3L479.7 255.4L439.6 270.4L463 234.6L465.5 277.4ZM319.8 173.4L347 140.3L305.6 151.4L345.7 166.4L322.3 130.6L319.8 173.4ZM390.1 225.4L417.3 192.3L375.9 203.4L416 218.4L392.6 182.6L390.1 225.4ZM192.2 173.4L165 140.3L206.4 151.4L166.3 166.4L189.7 130.6L192.2 173.4ZM121.9 225.4L94.7 192.3L136.1 203.4L96 218.4L119.4 182.6L121.9 225.4ZM108.9 329.4L136.1 296.3L94.6 307.4L134.8 322.4L111.4 286.6L108.9 329.4ZM179.2 381.4L206.4 348.3L165 359.4L205.1 374.4L181.7 338.6L179.2 381.4ZM242.7 428.3L277.4 403.4H234.7L269.4 428.3L256.1 387.7L242.7 428.3ZM403.1 329.4L375.9 296.3L417.4 307.4L377.2 322.4L400.6 286.6L403.1 329.4ZM332.8 381.4L305.6 348.3L347 359.4L306.9 374.4L330.3 338.6L332.8 381.4Z" fill="#EEEEEE"/>
<path d="M242.7 204.7L277.4 179.7H234.7L269.4 204.7L256.1 164L242.7 204.7ZM203.5 307.7L238.2 282.7H195.5L230.2 307.7L216.9 267L203.5 307.7ZM281.7 307.7L316.4 282.7H273.7L308.4 307.7L295.1 267L281.7 307.7ZM242.6 303.3L277.3 328.3H234.6L269.3 303.3L256 344L242.6 303.3ZM160 223H352V255H160V223Z" fill="#002266"/>
</g>
<defs>
<clipPath id="clip0_623_83458">
<rect width="512" height="512" fill="white"/>
</clipPath>
</defs>
</svg>
