<svg width="512" height="512" viewBox="0 0 512 512" fill="none" xmlns="http://www.w3.org/2000/svg">
<g clip-path="url(#clip0_623_83461)">
<path fill-rule="evenodd" clip-rule="evenodd" d="M512 256C512 141.318 436.591 44.2493 332.653 11.6736L324 16L299.29 3.64489C285.218 1.24824 270.755 0 256 0C241.245 0 226.782 1.24824 212.71 3.64489L188 16L179.347 11.6736C75.4092 44.2493 0 141.318 0 256L256 320L512 256Z" fill="#D80027"/>
<path fill-rule="evenodd" clip-rule="evenodd" d="M256 512C397.385 512 512 397.385 512 256H0C0 397.385 114.615 512 256 512Z" fill="#0052B4"/>
<path fill-rule="evenodd" clip-rule="evenodd" d="M505.302 197.57L256 256L483.943 139.357C493.297 157.6 500.526 177.114 505.302 197.57ZM449.409 88.2776L256 256L405.956 48.4938C421.927 60.0555 436.51 73.4158 449.409 88.2776ZM349.171 17.4829L256 256L291.654 2.46289C311.659 5.2505 330.924 10.3501 349.171 17.4829ZM220.346 2.46289L256 256L162.829 17.4829C181.076 10.3501 200.341 5.2505 220.346 2.46289ZM106.044 48.4938L256 256L62.216 88.7099C75.2071 73.6748 89.9185 60.1675 106.044 48.4938ZM28.0566 139.357L256 256L6.69824 197.57C11.4739 177.114 18.7024 157.6 28.0566 139.357Z" fill="#FFDA44"/>
<path d="M256 128L339 384L122 225H390L173 384L256 128Z" fill="#FF9811"/>
</g>
<defs>
<clipPath id="clip0_623_83461">
<rect width="512" height="512" fill="white"/>
</clipPath>
</defs>
</svg>
