<svg width="512" height="512" viewBox="0 0 512 512" fill="none" xmlns="http://www.w3.org/2000/svg">
<g clip-path="url(#clip0_623_83472)">
<path d="M503.202 322.783C508.939 301.492 512 279.104 512 256L503.202 189.218C496.784 165.404 487.018 142.965 474.438 122.435L415.379 55.652C371.675 20.8387 316.323 0.0256442 256.111 0H255.889C195.677 0.0256336 140.325 20.8387 96.6209 55.652L37.5621 122.435C24.9824 142.965 15.2155 165.404 8.79798 189.218L0 256L2.41187e-05 256.112C0.00992806 279.176 3.0698 301.527 8.7982 322.783L37.5622 389.565C53.2303 415.135 73.262 437.741 96.621 456.348L256 512L415.379 456.348C438.738 437.741 458.77 415.135 474.438 389.565L503.202 322.783Z" fill="#EEEEEE"/>
<path d="M503.202 189.217C508.939 210.508 512 232.896 512 256H0C0 232.896 3.06051 210.508 8.79822 189.217H503.202Z" fill="#D80027"/>
<path d="M415.379 55.6519C438.738 74.2588 458.77 96.8653 474.438 122.435H37.5622C53.2303 96.8653 73.262 74.2588 96.621 55.6519H415.379Z" fill="#D80027"/>
<path d="M474.438 389.565C487.018 369.035 496.784 346.596 503.202 322.782H8.79796C15.2155 346.596 24.9823 369.035 37.5621 389.565H474.438Z" fill="#D80027"/>
<path d="M415.379 456.348H96.6208C140.299 491.141 195.611 511.95 255.781 512H256.219C316.389 511.95 371.701 491.141 415.379 456.348Z" fill="#D80027"/>
<path d="M0 245.585C5.46421 109.029 117.896 0 255.792 0C255.861 0 255.931 2.75698e-05 256 8.2699e-05V256H0V245.585Z" fill="#0052B4"/>
<path d="M209.862 174.172L211.414 187.362L199.776 192.017L212.19 195.121L212.966 207.534L219.948 196.672L232.362 199L223.828 189.69L230.034 178.828L218.397 184.259L209.862 174.172ZM98.1379 174.172L89.6034 183.483L77.9655 178.828L84.1724 189.69L75.6379 199L88.8276 196.672L95.0345 207.534L95.8103 195.121L108.224 192.017L96.5862 187.362L98.1379 174.172ZM232.362 137.707L224.603 147.793L212.966 143.914L219.948 154L212.966 164.086L224.603 160.207L232.362 170.293V157.879L244 154L232.362 150.121V137.707ZM76.4138 137.707V150.121L64 154L76.4138 157.879V170.293L83.3966 160.207L95.8103 164.086L88.0517 154L95.8103 143.914L83.3966 147.793L76.4138 137.707ZM213.741 100.466L212.19 112.879L199.776 115.983L211.414 120.638L209.862 133.828L218.397 124.517L230.034 129.172L223.828 118.31L232.362 109L219.948 111.328L213.741 100.466ZM95.0345 100.466L88.8276 111.328L75.6379 109L84.1724 118.31L77.9655 129.172L89.6034 124.517L98.1379 133.828L96.5862 120.638L108.224 115.983L95.8103 112.879L95.0345 100.466ZM199 75.6379L189.69 84.1724L178.828 77.9655L184.259 89.6034L174.172 98.1379L187.362 96.5862L192.017 108.224L195.121 95.8103L207.534 95.0345L196.672 88.8276L199 75.6379ZM109 75.6379L111.328 88.0517L100.466 95.0345L112.879 95.8103L115.983 108.224L121.414 96.5862L133.828 98.1379L124.517 89.6034L129.172 77.9655L118.31 84.1724L109 75.6379ZM154 64L150.121 75.6379H137.707L147.793 83.3966L143.914 95.0345L154 88.0517L164.086 95.0345L160.207 83.3966L170.293 75.6379H157.879L154 64ZM199 232.362L189.69 223.828L178.828 230.034L184.259 218.397L174.172 209.862L187.362 211.414L192.017 199.776L195.121 212.19L207.534 212.966L196.672 219.172L199 232.362ZM109 232.362L111.328 219.948L100.466 212.966L112.879 212.19L115.983 199.776L121.414 211.414L133.828 209.862L124.517 218.397L129.172 230.034L118.31 223.828L109 232.362ZM154 244L150.121 232.362H137.707L147.793 224.603L143.914 212.966L154 219.948L164.086 212.966L160.207 224.603L170.293 232.362H157.879L154 244Z" fill="#EEEEEE"/>
</g>
<defs>
<clipPath id="clip0_623_83472">
<rect width="512" height="512" fill="white"/>
</clipPath>
</defs>
</svg>
