<svg width="512" height="512" viewBox="0 0 512 512" fill="none" xmlns="http://www.w3.org/2000/svg">
<circle cx="256" cy="256" r="256" fill="#D80027"/>
<path d="M478.571 129.428L352 256L478.571 382.572C455.789 422.548 422.547 455.789 382.571 478.572L256 352L129.428 478.572C89.4519 455.789 56.2101 422.548 33.4277 382.572L160 256L33.4277 129.428C56.2101 89.4524 89.4519 56.2106 129.428 33.4282L256 160L382.571 33.4282C422.547 56.2106 455.789 89.4524 478.571 129.428Z" fill="#EEEEEE"/>
<path d="M459.431 100.569L304 256L459.431 411.431C445.625 429.473 429.473 445.625 411.431 459.431L256 304L100.569 459.431C82.5272 445.625 66.3753 429.473 52.5693 411.431L208 256L52.5693 100.569C66.3753 82.5272 82.5272 66.3753 100.569 52.5693L256 208L411.431 52.5693C429.473 66.3753 445.625 82.5272 459.431 100.569Z" fill="#0052B4"/>
<path d="M256.006 232.016L261.391 248.588H278.816L264.719 258.83L270.103 275.402L256.006 265.16L241.91 275.402L247.294 258.83L233.197 248.588H250.622L256.006 232.016Z" fill="#EEEEEE"/>
<path d="M308.165 284.176L313.549 300.748H330.974L316.877 310.99L322.261 327.561L308.165 317.319L294.068 327.561L299.452 310.99L285.355 300.748H302.78L308.165 284.176Z" fill="#EEEEEE"/>
<path d="M203.85 284.179L209.235 300.751H226.659L212.563 310.993L217.947 327.564L203.85 317.322L189.753 327.564L195.138 310.993L181.041 300.751H198.466L203.85 284.179Z" fill="#EEEEEE"/>
<path d="M360.323 336.334L365.707 352.906H383.132L369.035 363.148L374.42 379.72L360.323 369.478L346.226 379.72L351.611 363.148L337.514 352.906H354.938L360.323 336.334Z" fill="#EEEEEE"/>
<path d="M151.692 336.339L157.077 352.911H174.501L160.404 363.153L165.789 379.725L151.692 369.483L137.595 379.725L142.98 363.153L128.883 352.911H146.307L151.692 336.339Z" fill="#EEEEEE"/>
<path d="M412.481 388.494L417.866 405.066H435.29L421.193 415.308L426.578 431.88L412.481 421.638L398.384 431.88L403.769 415.308L389.672 405.066H407.097L412.481 388.494Z" fill="#EEEEEE"/>
<path d="M99.5338 388.497L104.918 405.069H122.343L108.246 415.311L113.631 431.883L99.5338 421.641L85.4369 431.883L90.8214 415.311L76.7246 405.069H94.1493L99.5338 388.497Z" fill="#EEEEEE"/>
<path d="M203.847 179.858L209.232 196.43H226.656L212.56 206.672L217.944 223.244L203.847 213.002L189.75 223.244L195.135 206.672L181.038 196.43H198.463L203.847 179.858Z" fill="#EEEEEE"/>
<path d="M308.168 179.864L313.552 196.436H330.977L316.88 206.678L322.264 223.249L308.168 213.007L294.071 223.249L299.455 206.678L285.358 196.436H302.783L308.168 179.864Z" fill="#EEEEEE"/>
<path d="M151.689 127.699L157.074 144.271H174.498L160.401 154.513L165.786 171.085L151.689 160.843L137.592 171.085L142.977 154.513L128.88 144.271H146.305L151.689 127.699Z" fill="#EEEEEE"/>
<path d="M360.326 127.704L365.71 144.275H383.135L369.038 154.517L374.423 171.089L360.326 160.847L346.229 171.089L351.613 154.517L337.517 144.275H354.941L360.326 127.704Z" fill="#EEEEEE"/>
<path d="M99.5309 75.541L104.915 92.1129H122.34L108.243 102.355L113.628 118.927L99.5309 108.685L85.434 118.927L90.8185 102.355L76.7217 92.1129H94.1463L99.5309 75.541Z" fill="#EEEEEE"/>
<path d="M412.485 75.5454L417.869 92.1173H435.294L421.197 102.359L426.582 118.931L412.485 108.689L398.388 118.931L403.773 102.359L389.676 92.1173H407.1L412.485 75.5454Z" fill="#EEEEEE"/>
</svg>
