<svg width="512" height="512" viewBox="0 0 512 512" fill="none" xmlns="http://www.w3.org/2000/svg">
<g clip-path="url(#clip0_623_83482)">
<path d="M482.19 376C501.219 340.208 512 299.363 512 256C512 212.637 501.219 171.792 482.19 136H29.8097C10.7813 171.792 0 212.637 0 256C0 299.363 10.7813 340.208 29.8097 376H482.19Z" fill="#EEEEEE"/>
<path d="M496.474 344C460.589 442.034 366.465 512 256 512C145.535 512 51.4116 442.034 15.5264 344H496.474Z" fill="#0052B4"/>
<path d="M496.474 168H15.5264C51.4116 69.9657 145.535 0 256 0C366.465 0 460.589 69.9657 496.474 168Z" fill="#0052B4"/>
<path d="M344.3 299.799C333.994 328.062 314.062 351.791 288.004 366.823C261.945 381.854 231.425 387.227 201.8 381.999C172.168 376.781 145.322 361.291 125.974 338.249C106.627 315.207 96.0141 286.087 96 255.999C96.0141 225.912 106.627 196.791 125.974 173.749C145.322 150.707 172.168 135.217 201.8 129.999C231.425 124.771 261.945 130.144 288.004 145.175C314.062 160.207 333.994 183.936 344.3 212.199L224 255.999L344.3 299.799Z" fill="#D80027"/>
<path d="M224 320C259.346 320 288 291.346 288 256C288 220.654 259.346 192 224 192C188.654 192 160 220.654 160 256C160 291.346 188.654 320 224 320Z" fill="#FFDA44"/>
</g>
<defs>
<clipPath id="clip0_623_83482">
<rect width="512" height="512" fill="white"/>
</clipPath>
</defs>
</svg>
