<svg width="512" height="512" viewBox="0 0 512 512" fill="none" xmlns="http://www.w3.org/2000/svg">
<g clip-path="url(#clip0_623_83501)">
<circle cx="256" cy="256" r="256" fill="#EEEEEE"/>
<path fill-rule="evenodd" clip-rule="evenodd" d="M510.696 282C511.558 273.451 512 264.777 512 256C512 231.73 508.623 208.248 502.312 186H9.68792C3.37743 208.248 0 231.73 0 256C0 264.777 0.441684 273.451 1.30404 282H510.696ZM498.245 339H13.7549C26.2215 375.394 46.6587 408.088 72.9835 435H439.017C465.341 408.088 485.779 375.394 498.245 339Z" fill="#D80027"/>
<path d="M130.801 60.7378L141.838 94.705H177.553L148.659 115.698L159.696 149.665L130.801 128.672L101.907 149.665L112.944 115.698L84.0495 94.705H119.765L130.801 60.7378Z" fill="#D80027"/>
<path d="M256 60.7378L267.036 94.705H302.751L273.857 115.698L284.894 149.665L256 128.672L227.105 149.665L238.142 115.698L209.248 94.705H244.963L256 60.7378Z" fill="#D80027"/>
<path d="M381.199 60.7378L392.235 94.705H427.951L399.056 115.698L410.093 149.665L381.199 128.672L352.305 149.665L363.341 115.698L334.447 94.705H370.162L381.199 60.7378Z" fill="#D80027"/>
</g>
<defs>
<clipPath id="clip0_623_83501">
<rect width="512" height="512" fill="white"/>
</clipPath>
</defs>
</svg>
