<svg width="512" height="512" viewBox="0 0 512 512" fill="none" xmlns="http://www.w3.org/2000/svg">
<g clip-path="url(#clip0_623_83510)">
<circle cx="256" cy="256" r="256" fill="#EEEEEE"/>
<path d="M459.431 100.569L304 256L459.431 411.431C445.625 429.473 429.473 445.625 411.431 459.431L256 304L100.569 459.431C82.5272 445.625 66.3753 429.473 52.5693 411.431L208 256L52.5693 100.569C66.3753 82.5272 82.5272 66.3753 100.569 52.5693L256 208L411.431 52.5693C429.473 66.3753 445.625 82.5272 459.431 100.569Z" fill="#D80027"/>
<path d="M256 352C309.019 352 352 309.019 352 256C352 202.981 309.019 160 256 160C202.981 160 160 202.981 160 256C160 309.019 202.981 352 256 352Z" fill="#FFC635"/>
<path d="M256 320C291.346 320 320 291.346 320 256C320 220.654 291.346 192 256 192C220.654 192 192 220.654 192 256C192 291.346 220.654 320 256 320Z" fill="#6DA544"/>
</g>
<defs>
<clipPath id="clip0_623_83510">
<rect width="512" height="512" fill="white"/>
</clipPath>
</defs>
</svg>
