<svg width="512" height="512" viewBox="0 0 512 512" fill="none" xmlns="http://www.w3.org/2000/svg">
<g clip-path="url(#clip0_623_83513)">
<path fill-rule="evenodd" clip-rule="evenodd" d="M501.868 184.455L448 256L501.868 327.544C470.912 434.11 372.552 512 256 512C140.384 512 42.6699 435.358 10.8906 330.109L330.109 10.8906C412.752 35.8441 477.757 101.451 501.868 184.455Z" fill="#D80027"/>
<path fill-rule="evenodd" clip-rule="evenodd" d="M497.551 341C506.909 314.404 512 285.796 512 256C512 226.204 506.909 197.596 497.551 171H341L277 256L341 341H497.551Z" fill="#EEEEEE"/>
<path fill-rule="evenodd" clip-rule="evenodd" d="M14.4493 341C5.09052 314.404 0 285.796 0 256C0 114.615 114.615 0 256 0C285.796 0 314.404 5.09052 341 14.4493V341H14.4493Z" fill="#002266"/>
<path d="M184 133C173.391 133 163.217 137.214 155.716 144.716C148.214 152.217 144 162.391 144 173V233H224V173C224 162.391 219.786 152.217 212.284 144.716C204.783 137.214 194.609 133 184 133Z" fill="#FFDA44"/>
<path d="M167 105L219 68H155L207 105L187 44L167 105ZM268 167L305 219V155L268 207L329 187L268 167ZM206 268L154 305H218L166 268L186 329L206 268ZM105 207L68 155V219L105 167L44 187L105 207ZM230 115L293 125L248 80L258 143L287 86L230 115ZM258 230L248 293L293 248L230 258L287 287L258 230ZM143 258L80 248L125 293L115 230L86 287L143 258ZM115 143L125 80L80 125L143 115L86 86L115 143Z" fill="#EEEEEE"/>
</g>
<defs>
<clipPath id="clip0_623_83513">
<rect width="512" height="512" fill="white"/>
</clipPath>
</defs>
</svg>
