<svg width="512" height="512" viewBox="0 0 512 512" fill="none" xmlns="http://www.w3.org/2000/svg">
<g clip-path="url(#clip0_623_83524)">
<path fill-rule="evenodd" clip-rule="evenodd" d="M0 256L32 320L17.453 349.094C34.9158 393.808 64.5875 432.408 102.37 460.796L256 480L409.63 460.796C447.412 432.408 477.084 393.808 494.547 349.094L480 320L512 256C512 114.615 397.385 0 256 0C114.615 0 0 114.615 0 256Z" fill="#EEEEEE"/>
<path fill-rule="evenodd" clip-rule="evenodd" d="M471.592 117.898C486.055 140.43 497.083 165.377 503.935 192H256V211L173 128H256L384 96L471.592 117.898ZM477.752 384C489.375 363.908 498.345 342.089 504.184 319.023L256 288L7.81592 319.023C13.6552 342.089 22.6257 363.908 34.2484 384H477.752ZM128 256V173L211 256H128Z" fill="#002266"/>
<path fill-rule="evenodd" clip-rule="evenodd" d="M503.935 320C509.2 299.544 512 278.099 512 256H256V225L159 128H128L256 256H96V96H256V128H477.752C463.816 103.91 446.068 82.3017 425.333 64H256V32H131.968C90.0104 55.2821 55.2821 90.0104 32 131.968V256H0C0 278.099 2.80019 299.544 8.06512 320H503.935ZM425.333 448H86.6672C131.796 487.831 191.075 512 256 512C320.925 512 380.204 487.831 425.333 448Z" fill="#D80027"/>
<path d="M256 0V256H0C0 114.615 114.615 0 256 0Z" fill="#002266"/>
<path d="M217.562 256H256V217.562L140.688 102.25H256V0C114.615 0 0 114.615 0 256H102.25V140.688L217.562 256Z" fill="#EEEEEE"/>
<path d="M256 76.625V25.375H144.743C92.7292 50.5133 50.5133 92.7292 25.375 144.743V256H76.625V76.625H256Z" fill="#D80027"/>
<path d="M256 230.375V256L102.25 102.25H127.875L256 230.375Z" fill="#D80027"/>
</g>
<defs>
<clipPath id="clip0_623_83524">
<rect width="512" height="512" fill="white"/>
</clipPath>
</defs>
</svg>
