<svg width="512" height="512" viewBox="0 0 512 512" fill="none" xmlns="http://www.w3.org/2000/svg">
<g clip-path="url(#clip0_623_83553)">
<path fill-rule="evenodd" clip-rule="evenodd" d="M232.271 510.915C102.011 498.943 0 389.384 0 256C0 122.616 102.011 13.0571 232.271 1.08496L296 256L232.271 510.915Z" fill="#002266"/>
<path fill-rule="evenodd" clip-rule="evenodd" d="M232 1.1102C239.901 0.375558 247.907 0 256 0C397.385 0 512 114.615 512 256L372 320L232 256V1.1102Z" fill="#D80027"/>
<path fill-rule="evenodd" clip-rule="evenodd" d="M256 512C397.385 512 512 397.385 512 256H232V510.89C239.901 511.624 247.907 512 256 512Z" fill="#EEEEEE"/>
<path fill-rule="evenodd" clip-rule="evenodd" d="M232 510.89C101.869 498.791 0 389.292 0 256C0 122.708 101.869 13.2096 232 1.11035V510.89Z" fill="#002266"/>
<path d="M91 294L156 247H76L141 294L116 218L91 294Z" fill="#EEEEEE"/>
<path fill-rule="evenodd" clip-rule="evenodd" d="M33.2872 129.676C38.2522 120.941 43.7162 112.527 49.6405 104.473C58.7609 100.918 68.176 98.0925 77.7376 96.0448C90.277 93.3621 103.143 92 115.972 92C128.802 92 141.668 93.3621 154.203 96.0448C166.885 98.7598 179.304 102.841 191.117 108.179L193.942 109.454L192.667 112.279L191.356 115.183L191.95 115.464C195.787 117.3 199.616 119.301 203.325 121.413V121.409L208 124.073L203.352 126.779C200.081 128.679 196.841 130.7 193.703 132.793C193.625 136.843 193.427 140.911 193.114 144.905L192.732 149.773L188.489 147.357C184.716 145.204 180.8 143.198 176.856 141.394L170.658 138.559L172.683 133.792C154.621 126.494 135.488 122.799 115.972 122.799C96.457 122.799 77.4937 126.461 59.506 133.691L61.2822 138.554L55.0885 141.389C51.1403 143.198 47.2289 145.204 43.4556 147.353L39.2589 149.746L38.8356 144.932C38.4859 140.952 38.2466 136.898 38.1269 132.858C36.5369 131.778 34.9203 130.715 33.2872 129.676ZM49.6175 407.496C43.7202 399.476 38.2793 391.099 33.3329 382.404C35.0085 381.363 36.6665 380.295 38.2972 379.207C38.3754 375.157 38.5733 371.089 38.8862 367.095L39.2682 362.227L43.5108 364.643C47.2842 366.796 51.2001 368.802 55.1437 370.606L61.3421 373.441L59.3174 378.208C77.3787 385.506 96.5122 389.201 116.028 389.201C135.543 389.201 154.506 385.539 172.494 378.309L170.718 373.445L176.912 370.611C180.86 368.802 184.771 366.796 188.544 364.647L192.741 362.254L193.164 367.068C193.514 371.048 193.753 375.102 193.873 379.142C196.984 381.254 200.196 383.302 203.435 385.235L208 387.954L203.385 390.587C199.68 392.699 195.852 394.7 192.009 396.536L191.416 396.817L192.727 399.721L194.002 402.546L191.177 403.821C179.36 409.159 166.94 413.24 154.262 415.955C141.723 418.638 128.857 420 116.028 420C103.198 420 90.3322 418.638 77.7974 415.955C68.2042 413.901 58.7611 411.066 49.6175 407.496ZM24 224H64V288H24V224ZM168 224H208V288H168V224Z" fill="#FFC635"/>
</g>
<defs>
<clipPath id="clip0_623_83553">
<rect width="512" height="512" fill="white"/>
</clipPath>
</defs>
</svg>
