<svg width="512" height="512" viewBox="0 0 512 512" fill="none" xmlns="http://www.w3.org/2000/svg">
<g clip-path="url(#clip0_623_83573)">
<path fill-rule="evenodd" clip-rule="evenodd" d="M442.932 430.909C485.772 385.143 512 323.634 512 256C512 188.366 485.772 126.858 442.932 81.0918L432 256L442.932 430.909Z" fill="#002266"/>
<path fill-rule="evenodd" clip-rule="evenodd" d="M448 86.6677V425.333C437.295 437.462 425.458 448.569 412.655 458.488L400 256L412.655 53.5127C425.458 63.4321 437.295 74.5388 448 86.6677Z" fill="#EEEEEE"/>
<path fill-rule="evenodd" clip-rule="evenodd" d="M416 56.1481V455.852C372.173 490.985 316.541 512 256 512C114.615 512 0 397.385 0 256C0 114.615 114.615 0 256 0C316.541 0 372.173 21.015 416 56.1481Z" fill="#D80027"/>
<path d="M208 416C296.366 416 368 344.366 368 256C368 167.634 296.366 96 208 96C119.634 96 48 167.634 48 256C48 344.366 119.634 416 208 416Z" fill="#EEEEEE"/>
<path d="M208 384C278.692 384 336 326.692 336 256C336 185.308 278.692 128 208 128C137.308 128 80 185.308 80 256C80 326.692 137.308 384 208 384Z" fill="#002266"/>
<path d="M145 284L205 367V265L145 348L243 316L145 284ZM160 156L138 256L214 188L112 199L201 250L160 156ZM307 205L265 298L244 198L319 267L217 256L307 205Z" fill="#EEEEEE"/>
</g>
<defs>
<clipPath id="clip0_623_83573">
<rect width="512" height="512" fill="white"/>
</clipPath>
</defs>
</svg>
