<svg width="512" height="512" viewBox="0 0 512 512" fill="none" xmlns="http://www.w3.org/2000/svg">
<g clip-path="url(#clip0_623_83585)">
<path d="M256 512C397.217 512 511.727 397.658 512 256.505V256L256 224L0.000488281 256C0.000488281 397.385 114.616 512 256 512Z" fill="#D80027"/>
<path d="M512 255.495V256H0.000488281C0.000488281 114.615 114.616 0 256 0C397.217 0 511.727 114.342 512 255.495Z" fill="#EEEEEE"/>
<path fill-rule="evenodd" clip-rule="evenodd" d="M170.667 497.433C71.2369 462.289 0 367.464 0 256C0 144.536 71.2369 49.7098 170.667 14.5664V497.433Z" fill="#002266"/>
<path d="M85.3321 182.08L101.928 233.158H155.634L112.185 264.725L128.781 315.803L85.3321 284.235L41.883 315.803L58.4791 264.725L15.03 233.158H68.736L85.3321 182.08Z" fill="#EEEEEE"/>
</g>
<defs>
<clipPath id="clip0_623_83585">
<rect width="512" height="512" fill="white"/>
</clipPath>
</defs>
</svg>
