<svg width="512" height="512" viewBox="0 0 512 512" fill="none" xmlns="http://www.w3.org/2000/svg">
<path fill-rule="evenodd" clip-rule="evenodd" d="M496.089 345.044C506.378 317.312 512 287.312 512 256C512 224.687 506.378 194.687 496.089 166.955H15.9113C5.62185 194.687 0 224.687 0 256C0 287.312 5.62174 317.312 15.911 345.044H496.089Z" fill="#D80027"/>
<path fill-rule="evenodd" clip-rule="evenodd" d="M499.929 178.089H12.0715C45.0338 74.8013 141.782 0 256 0C370.219 0 466.966 74.8013 499.929 178.089Z" fill="#338AF3"/>
<path fill-rule="evenodd" clip-rule="evenodd" d="M255.362 511.999C141.421 511.721 44.9719 437.006 12.0713 333.91H499.929C467.028 437.006 370.579 511.721 256.638 511.999H255.362Z" fill="#6DA544"/>
<path fill-rule="evenodd" clip-rule="evenodd" d="M505.934 311.652C509.906 293.735 512 275.112 512 256C512 236.888 509.906 218.266 505.934 200.35H6.0658C2.09426 218.266 0 236.888 0 256C0 275.112 2.09435 293.735 6.06606 311.652H505.934Z" fill="#EEEEEE"/>
<path d="M116.986 105.045C116.986 81.068 133.837 61.038 156.34 56.124C152.882 55.368 149.293 54.959 145.607 54.959C117.945 54.959 95.5203 77.383 95.5203 105.046C95.5203 132.709 117.943 155.133 145.607 155.133C149.293 155.133 152.881 154.723 156.34 153.968C133.838 149.052 116.986 129.022 116.986 105.045Z" fill="#EEEEEE"/>
<path d="M185.944 127.812L189.334 138.247H200.306L191.43 144.697L194.82 155.132L185.944 148.684L177.066 155.132L180.457 144.697L171.58 138.247H182.552L185.944 127.812Z" fill="#EEEEEE"/>
<path d="M220.964 127.812L224.355 138.247H235.327L226.45 144.697L229.841 155.132L220.964 148.684L212.087 155.132L215.478 144.697L206.602 138.247H217.573L220.964 127.812Z" fill="#EEEEEE"/>
<path d="M255.985 127.812L259.375 138.247H270.348L261.471 144.697L264.861 155.132L255.985 148.684L247.107 155.132L250.499 144.697L241.621 138.247H252.594L255.985 127.812Z" fill="#EEEEEE"/>
<path d="M291.006 127.812L294.397 138.247H305.368L296.492 144.697L299.883 155.132L291.006 148.684L282.128 155.132L285.52 144.697L276.642 138.247H287.614L291.006 127.812Z" fill="#EEEEEE"/>
<path d="M326.026 127.812L329.417 138.247H340.389L331.513 144.697L334.904 155.132L326.026 148.684L317.149 155.132L320.54 144.697L311.664 138.247H322.635L326.026 127.812Z" fill="#EEEEEE"/>
<path d="M220.964 91.3848L224.355 101.819H235.327L226.45 108.27L229.841 118.704L220.964 112.255L212.087 118.704L215.478 108.27L206.602 101.819H217.573L220.964 91.3848Z" fill="#EEEEEE"/>
<path d="M255.985 91.3848L259.375 101.819H270.348L261.471 108.27L264.861 118.704L255.985 112.255L247.107 118.704L250.499 108.27L241.621 101.819H252.594L255.985 91.3848Z" fill="#EEEEEE"/>
<path d="M291.006 91.3848L294.397 101.819H305.368L296.492 108.27L299.883 118.704L291.006 112.255L282.128 118.704L285.52 108.27L276.642 101.819H287.614L291.006 91.3848Z" fill="#EEEEEE"/>
<path d="M326.026 91.3848L329.417 101.819H340.389L331.513 108.27L334.904 118.704L326.026 112.255L317.149 118.704L320.54 108.27L311.664 101.819H322.635L326.026 91.3848Z" fill="#EEEEEE"/>
<path d="M255.985 54.957L259.375 65.393H270.348L261.471 71.842L264.861 82.278L255.985 75.829L247.107 82.278L250.499 71.842L241.621 65.393H252.594L255.985 54.957Z" fill="#EEEEEE"/>
<path d="M291.006 54.957L294.397 65.393H305.368L296.492 71.842L299.883 82.278L291.006 75.829L282.128 82.278L285.52 71.842L276.642 65.393H287.614L291.006 54.957Z" fill="#EEEEEE"/>
<path d="M326.026 54.957L329.417 65.393H340.389L331.513 71.842L334.904 82.278L326.026 75.829L317.149 82.278L320.54 71.842L311.664 65.393H322.635L326.026 54.957Z" fill="#EEEEEE"/>
</svg>
