<svg width="512" height="512" viewBox="0 0 512 512" fill="none" xmlns="http://www.w3.org/2000/svg">
<circle cx="256" cy="256" r="256" fill="#FFDA44"/>
<path fill-rule="evenodd" clip-rule="evenodd" d="M384 477.752C460.519 433.488 512 350.756 512 256C512 161.244 460.519 78.5117 384 34.248V477.752Z" fill="#6DA544"/>
<path fill-rule="evenodd" clip-rule="evenodd" d="M128 34.248V477.752C51.4814 433.488 0 350.756 0 256C0 161.244 51.4814 78.5117 128 34.248Z" fill="#0052B4"/>
<path d="M200.348 322.783L155.825 256L200.347 189.217L244.871 256L200.348 322.783Z" fill="#6DA544"/>
<path d="M311.652 322.783L267.13 256L311.652 189.217L356.174 256L311.652 322.783Z" fill="#6DA544"/>
<path d="M256 411.826L211.478 345.043L256 278.261L300.522 345.043L256 411.826Z" fill="#6DA544"/>
</svg>
