<svg width="512" height="512" viewBox="0 0 512 512" fill="none" xmlns="http://www.w3.org/2000/svg">
<path d="M256 512C397.216 512 511.727 397.658 512 256.505V256L256 224L0 256C0 397.385 114.615 512 256 512Z" fill="#6DA544"/>
<path d="M512 255.495V256H0C0 114.615 114.615 0 256 0C397.216 0 511.727 114.342 512 255.495Z" fill="#D80027"/>
<path fill-rule="evenodd" clip-rule="evenodd" d="M509.842 289.394C511.266 278.464 512 267.318 512 256C512 244.684 511.266 233.539 509.842 222.611H222.606C199.628 199.634 137.463 137.469 74.9781 74.9834C28.6527 121.31 0 185.309 0 256C0 326.693 28.6541 390.693 74.9813 437.02L222.609 289.394H509.842Z" fill="#333333"/>
<path fill-rule="evenodd" clip-rule="evenodd" d="M511.766 267.039C511.922 263.378 512 259.698 512 256C512 252.24 511.919 248.498 511.759 244.778H213.2L59.871 91.4629C55.0707 97.1789 50.5157 103.108 46.2221 109.233L192.849 255.907L46.127 402.631C50.4258 408.772 54.9873 414.716 59.7952 420.447L213.203 267.039H511.766Z" fill="#FFDA44"/>
<path d="M54.5879 310.572V289.129C75.9858 289.129 93.3928 271.721 93.3928 250.325C93.3928 235.186 81.0758 222.87 65.9379 222.87C55.6249 222.87 47.2339 231.26 47.2339 241.575C47.2339 248.17 52.5989 253.536 59.1949 253.536C62.9229 253.536 65.9559 250.501 65.9559 246.773H87.3978C87.3978 262.326 74.7458 274.978 59.1959 274.978C40.7769 274.979 25.7939 259.993 25.7939 241.577C25.7939 219.44 43.8039 201.431 65.9389 201.431C92.9008 201.431 114.837 223.367 114.837 250.328C114.836 283.545 87.8088 310.572 54.5879 310.572Z" fill="#FFDA44"/>
</svg>
