<svg width="512" height="512" viewBox="0 0 512 512" fill="none" xmlns="http://www.w3.org/2000/svg">
<g clip-path="url(#clip0_623_83641)">
<circle cx="256" cy="256" r="256" fill="#D80027"/>
<path d="M384 232L312 160H456L384 232ZM360 256L288 184V328L360 256ZM384 280L312 352H456L384 280ZM408 256L480 184V328L408 256Z" fill="#EEEEEE"/>
<path d="M0 245.585C5.46421 109.029 117.896 0 255.792 0C255.861 0 255.931 2.75698e-05 256 8.2699e-05V256H0V245.585Z" fill="#EEEEEE"/>
<path fill-rule="evenodd" clip-rule="evenodd" d="M1.98047 224C9.20162 166.091 35.7643 114.188 74.9999 74.9609V224H1.98047Z" fill="#002266"/>
<path fill-rule="evenodd" clip-rule="evenodd" d="M75 74.9608C96.2903 53.675 121.312 36.1213 149 23.3652V223.999H75V74.9608Z" fill="#EEEEEE"/>
<path fill-rule="evenodd" clip-rule="evenodd" d="M149 23.3656C172.321 12.6214 197.533 5.28085 224 1.98047V224H149V23.3656Z" fill="#D80027"/>
</g>
<defs>
<clipPath id="clip0_623_83641">
<rect width="512" height="512" fill="white"/>
</clipPath>
</defs>
</svg>
