<svg width="512" height="512" viewBox="0 0 512 512" fill="none" xmlns="http://www.w3.org/2000/svg">
<g clip-path="url(#clip0_623_83645)">
<path fill-rule="evenodd" clip-rule="evenodd" d="M115.178 42.1777L469.822 396.821C450.688 425.815 425.816 450.688 396.822 469.821L42.1782 115.178C61.3119 86.184 86.1845 61.3114 115.178 42.1777Z" fill="#EEEEEE"/>
<path fill-rule="evenodd" clip-rule="evenodd" d="M163.299 17.2998L219 73.0002L293 146L366 219V220L439 293L494.7 348.701C482.063 381.219 462.972 410.515 439 435.017V366H366V293H293V219H219V146H146V73.0002H76.9829C101.485 49.0284 130.781 29.9374 163.299 17.2998Z" fill="#FFDA44"/>
<path fill-rule="evenodd" clip-rule="evenodd" d="M221.356 2.32422L293 72.9999L439 219L509.676 290.644C506.072 317.282 498.371 342.619 487.228 366H439V293H366V219H293V146H219V72.9999H146V24.7715C169.381 13.6288 194.718 5.92793 221.356 2.32422Z" fill="#FF9811"/>
<path fill-rule="evenodd" clip-rule="evenodd" d="M509.346 293C511.095 280.919 512 268.565 512 256C512 242.349 510.931 228.947 508.873 215.873L439 146L366 73L296.127 3.12656C283.053 1.06855 269.651 0 256 0C243.435 0 231.081 0.905281 219 2.65418V73H293V146H366V219H439V293H509.346Z" fill="#D80027"/>
<path fill-rule="evenodd" clip-rule="evenodd" d="M293 2.6543C404.771 18.8351 493.165 107.229 509.346 219H439V146H366V73.0001H293V2.6543Z" fill="#4A1F63"/>
<path fill-rule="evenodd" clip-rule="evenodd" d="M366 24.7715V72.9999H435.017C414.942 53.3589 391.648 36.9944 366 24.7715ZM439 76.983C458.641 97.0582 475.005 120.352 487.228 146H439V76.983Z" fill="#0052B4"/>
<path fill-rule="evenodd" clip-rule="evenodd" d="M73.0002 76.9834V146H146V219H219V293H292V366H365V439H435.017C410.334 463.149 380.786 482.345 347.98 494.98L292 439L219 366L146 293V292L73.0002 219L17.2998 163.3C29.9374 130.782 49.0284 101.485 73.0002 76.9834Z" fill="#6DA544"/>
<path fill-rule="evenodd" clip-rule="evenodd" d="M24.7715 146H72.9999V219H146V293H219V366H292V439H366V487.228C342.369 498.49 316.74 506.236 289.79 509.79L219 439L72.9999 293L2.32422 221.356C5.92793 194.718 13.6288 169.381 24.7715 146Z" fill="#0052B4"/>
<path fill-rule="evenodd" clip-rule="evenodd" d="M2.65418 219H73V293H146V366H219V439H292V509.489C280.238 511.144 268.219 512 256 512C242.349 512 228.947 510.931 215.873 508.873L146 439L73 366L3.12656 296.127C1.06855 283.053 0 269.651 0 256C0 243.435 0.905281 231.081 2.65418 219Z" fill="#4A1F63"/>
<path fill-rule="evenodd" clip-rule="evenodd" d="M219 509.346C106.895 493.117 18.3081 404.244 2.51123 292H72.9998V366H146V439H219V509.346Z" fill="#D80027"/>
<path fill-rule="evenodd" clip-rule="evenodd" d="M146 487.228V439H76.983C97.0582 458.641 120.352 475.005 146 487.228ZM72.9999 435.017C53.3589 414.942 36.9944 391.648 24.7715 366H72.9999V435.017Z" fill="#FF9811"/>
</g>
<defs>
<clipPath id="clip0_623_83645">
<rect width="512" height="512" fill="white"/>
</clipPath>
</defs>
</svg>
