<svg width="512" height="512" viewBox="0 0 512 512" fill="none" xmlns="http://www.w3.org/2000/svg">
<g clip-path="url(#clip0_623_83702)">
<path d="M29.8097 136C10.7814 171.792 1.42816e-05 212.637 1.04907e-05 256C6.69983e-06 299.363 10.7813 340.208 29.8097 376L482.19 376C501.219 340.208 512 299.363 512 256C512 212.637 501.219 171.792 482.19 136L29.8097 136Z" fill="#EEEEEE"/>
<path d="M15.5262 168C51.4114 69.9657 145.535 -3.068e-05 256 -2.10229e-05C366.465 -1.13657e-05 460.589 69.9657 496.474 168L15.5262 168Z" fill="#0052B4"/>
<path d="M15.526 344L496.474 344C460.588 442.034 366.465 512 256 512C145.535 512 51.4112 442.034 15.526 344Z" fill="#D80027"/>
<path d="M256 66L298.657 197.287H436.7L325.021 278.426L367.679 409.713L256 328.574L144.32 409.713L186.978 278.426L75.2988 197.287H213.342L256 66Z" fill="#D80027"/>
<path fill-rule="evenodd" clip-rule="evenodd" d="M298.657 197.287L256 66L213.342 197.287H75.2988L186.978 278.426L144.32 409.713L256 328.574L367.679 409.713L325.021 278.426L436.7 197.287H298.657ZM375.147 217.287H284.126L256 130.721L227.873 217.287H136.853L210.489 270.787L182.363 357.353L256 303.852L329.637 357.353L301.51 270.787L375.147 217.287Z" fill="#FFC635"/>
</g>
<defs>
<clipPath id="clip0_623_83702">
<rect width="512" height="512" fill="white"/>
</clipPath>
</defs>
</svg>
