<svg width="512" height="512" viewBox="0 0 512 512" fill="none" xmlns="http://www.w3.org/2000/svg">
<circle cx="256" cy="256" r="256" fill="#496E2D"/>
<path fill-rule="evenodd" clip-rule="evenodd" d="M511.999 256.511V257.489C511.821 352.789 459.57 435.869 382.183 479.793L382.183 256H511.998C511.999 256.17 511.999 256.34 511.999 256.511Z" fill="#FF9811"/>
<path fill-rule="evenodd" clip-rule="evenodd" d="M303.87 508.532V256H426.667V447.814C392.677 478.236 350.51 499.71 303.87 508.532Z" fill="#333333"/>
<path fill-rule="evenodd" clip-rule="evenodd" d="M278.783 512H255.999V256H341.332V498.433C321.491 505.446 300.528 510.082 278.783 512Z" fill="#D80027"/>
<path d="M473.043 166.957H406.26C406.26 154.663 396.293 144.696 383.999 144.696C371.705 144.696 361.738 154.663 361.738 166.957H294.955C294.955 179.252 305.664 189.218 317.957 189.218H317.216C317.216 201.513 327.181 211.479 339.477 211.479C339.477 223.774 349.442 233.74 361.738 233.74H406.26C418.554 233.74 428.521 223.774 428.521 211.479C440.815 211.479 450.782 201.513 450.782 189.218H450.041C462.335 189.217 473.043 179.251 473.043 166.957Z" fill="#FF9811"/>
</svg>
