<svg width="18" height="18" viewBox="0 0 18 18" fill="none" xmlns="http://www.w3.org/2000/svg">
<path d="M11.1368 9.56025L7.05075 6.3615C6.43275 5.87775 5.568 5.877 4.95 6.3615L0.86325 9.5595C0.315 9.98925 0 10.6357 0 11.3317V18H12V11.3317C12 10.635 11.685 9.98925 11.1368 9.56025ZM10.5 16.5H1.5V11.3317C1.5 11.0992 1.605 10.884 1.788 10.7408L5.874 7.5435C5.9475 7.485 6.051 7.48575 6.126 7.5435L10.212 10.7423C10.395 10.8848 10.5 11.1007 10.5 11.3325V16.5ZM4.5 11.25H7.5V14.25H4.5V11.25ZM13.5 9.75H15V11.25H13.5V9.75ZM13.5 12.75H15V14.25H13.5V12.75ZM10.5 3.75H12V5.25H10.5V3.75ZM15 5.25H13.5V3.75H15V5.25ZM10.5 6.75H12V8.25H10.5V6.75ZM13.5 6.75H15V8.25H13.5V6.75ZM18 2.25V18H13.5V16.5H16.5V2.25C16.5 1.836 16.164 1.5 15.75 1.5H9.75C9.336 1.5 9 1.836 9 2.25V5.9835L7.5 4.80975V2.25C7.5 2.23725 7.5 2.22375 7.50075 2.211C7.52175 0.9885 8.52225 0 9.75 0H15.75C16.9905 0 18 1.0095 18 2.25Z" fill="#E2E5EE"/>
</svg>
