<svg width="18" height="18" viewBox="0 0 18 18" fill="none" xmlns="http://www.w3.org/2000/svg">
<path d="M8.61108 4.33913L13.0704 3.50859C13.4933 4.32965 14.3887 4.90588 15.4059 4.90588C16.8209 4.90591 18 3.79091 18 2.45294C18 1.11495 16.8209 0 15.4059 0C14.1467 0 13.0743 0.882968 12.8534 2.0203L8.31177 2.86619C7.81053 1.87406 6.74315 1.19759 5.49113 1.19759C3.74947 1.19759 2.36508 2.50665 2.36508 4.15351C2.36508 5.80037 3.74949 7.10943 5.49113 7.10943C5.96345 7.10943 6.4094 7.01299 6.80869 6.83981L10.1293 9.97967C9.49593 10.6208 9.10848 11.482 9.10848 12.4301C9.10848 12.5346 9.11347 12.638 9.12269 12.7402L4.51126 14.1509C4.04602 13.5899 3.32425 13.2245 2.52515 13.2245C1.14779 13.2245 0 14.3099 0 15.6123C0 16.9147 1.14779 18 2.52515 18C3.90255 18 5.05034 16.9147 5.05034 15.6123C5.05034 15.5957 5.05002 15.5792 5.04968 15.5626L9.58561 14.175C10.2334 15.2758 11.4757 16.0195 12.9045 16.0195C15.0034 16.0195 16.7004 14.4149 16.7004 12.4301C16.7004 10.4455 15.0034 8.84079 12.9045 8.84079C12.3906 8.84079 11.9011 8.93717 11.4544 9.1115L8.0374 5.88047C8.36784 5.44306 8.57432 4.91475 8.61108 4.33913ZM2.52515 16.5753C1.9549 16.5753 1.50676 16.1516 1.50676 15.6123C1.50676 15.073 1.9549 14.6493 2.52515 14.6493C3.09552 14.6493 3.54359 15.073 3.54359 15.6123C3.54359 16.1516 3.09549 16.5753 2.52515 16.5753ZM15.4059 1.44275C16.0041 1.44275 16.4742 1.88723 16.4742 2.45296C16.4742 3.0187 16.0041 3.46316 15.4059 3.46316C14.8076 3.46316 14.3374 3.01868 14.3374 2.45296C14.3374 1.88725 14.8076 1.44275 15.4059 1.44275ZM3.89361 4.15353C3.89361 3.32274 4.61253 2.64297 5.49113 2.64297C6.36977 2.64297 7.08864 3.32274 7.08864 4.15353C7.08864 4.98433 6.36977 5.6641 5.49113 5.6641C4.61255 5.6641 3.89361 4.98433 3.89361 4.15353ZM15.058 12.4302C15.058 13.5409 14.0791 14.4665 12.9044 14.4665C11.7297 14.4665 10.7508 13.5409 10.7508 12.4302C10.7508 11.3194 11.7297 10.3938 12.9044 10.3938C14.0791 10.3938 15.058 11.3194 15.058 12.4302Z" fill="#E2E5EE"/>
</svg>
