<svg width="18" height="18" viewBox="0 0 18 18" fill="none" xmlns="http://www.w3.org/2000/svg">
<path d="M3 9.75H5.25V11.25H3V9.75ZM6.75 11.25H9V9.75H6.75V11.25ZM3 14.25H5.25V12.75H3V14.25ZM6.75 14.25H9V12.75H6.75V14.25ZM3 5.25H5.25V3.75H3V5.25ZM6.75 5.25H9V3.75H6.75V5.25ZM3 8.25H5.25V6.75H3V8.25ZM6.75 8.25H9V6.75H6.75V8.25ZM18 6V18H0V2.25C0 1.65326 0.237053 1.08097 0.65901 0.65901C1.08097 0.237053 1.65326 0 2.25 0L9.75 0C10.3467 0 10.919 0.237053 11.341 0.65901C11.7629 1.08097 12 1.65326 12 2.25V3.75H15.75C16.3467 3.75 16.919 3.98705 17.341 4.40901C17.7629 4.83097 18 5.40326 18 6ZM10.5 2.25C10.5 2.05109 10.421 1.86032 10.2803 1.71967C10.1397 1.57902 9.94891 1.5 9.75 1.5H2.25C2.05109 1.5 1.86032 1.57902 1.71967 1.71967C1.57902 1.86032 1.5 2.05109 1.5 2.25V16.5H10.5V2.25ZM16.5 6C16.5 5.80109 16.421 5.61032 16.2803 5.46967C16.1397 5.32902 15.9489 5.25 15.75 5.25H12V16.5H16.5V6ZM13.5 11.25H15V9.75H13.5V11.25ZM13.5 14.25H15V12.75H13.5V14.25ZM13.5 8.25H15V6.75H13.5V8.25Z" fill="#E2E5EE"/>
</svg>
