<svg width="20" height="20" viewBox="0 0 20 20" fill="none" xmlns="http://www.w3.org/2000/svg">
<path d="M18.6894 14.6739L12.7356 2.68316C12.485 2.17825 12.0958 1.75284 11.6122 1.45529C11.1287 1.15774 10.5703 1 10.0004 1C9.43049 1 8.87204 1.15774 8.38852 1.45529C7.905 1.75284 7.51581 2.17825 7.26521 2.68316L1.31064 14.6739C1.08314 15.1319 0.977603 15.6395 1.00396 16.1489C1.03032 16.6583 1.18771 17.1527 1.4613 17.5855C1.73489 18.0182 2.11567 18.3752 2.56777 18.6227C3.01987 18.8701 3.52839 19 4.04543 19H15.9538C16.4709 19.0001 16.9795 18.8704 17.4317 18.6229C17.8839 18.3755 18.2648 18.0186 18.5385 17.5858C18.8122 17.153 18.9696 16.6585 18.996 16.1491C19.0224 15.6396 18.9169 15.132 18.6894 14.6739ZM15.7863 12.2404H4.21369L6.07902 8.48512H13.921L15.7863 12.2404ZM8.62956 3.3441C8.7549 3.09174 8.94949 2.87913 9.19121 2.73043C9.43293 2.58173 9.71208 2.5029 9.99695 2.5029C10.2818 2.5029 10.561 2.58173 10.8027 2.73043C11.0444 2.87913 11.239 3.09174 11.3644 3.3441L13.1741 6.983H6.82514L8.62956 3.3441ZM17.2435 16.7881C17.1086 17.0067 16.9183 17.1868 16.6913 17.3109C16.4644 17.4349 16.2087 17.4986 15.9492 17.4956H4.04543C3.78666 17.4961 3.53202 17.4316 3.30555 17.3081C3.07909 17.1845 2.88828 17.0061 2.75112 16.7896C2.61397 16.5731 2.53501 16.3258 2.52169 16.0708C2.50837 15.8159 2.56113 15.5618 2.67499 15.3326L3.46832 13.7426H16.5309L17.3212 15.3348C17.4378 15.563 17.4923 15.8171 17.4792 16.0723C17.4661 16.3275 17.386 16.575 17.2466 16.7904L17.2435 16.7881Z" fill="white"/>
</svg>
