<svg width="20" height="20" viewBox="0 0 20 20" fill="none" xmlns="http://www.w3.org/2000/svg">
<path d="M11.127 9.99961C11.127 11.654 12.4754 12.9995 14.1334 12.9995C15.7914 12.9995 17.1397 11.654 17.1397 9.99961C17.1397 8.34518 15.7914 6.99974 14.1334 6.99974C12.4754 6.99974 11.127 8.34518 11.127 9.99961ZM14.1334 8.49968C14.9624 8.49968 15.6365 9.1724 15.6365 9.99961C15.6365 10.8268 14.9624 11.4995 14.1334 11.4995C13.3044 11.4995 12.6302 10.8268 12.6302 9.99961C12.6302 9.1724 13.3044 8.49968 14.1334 8.49968ZM9.99962 6.99974C11.6576 6.99974 13.006 5.6543 13.006 3.99987C13.006 2.34544 11.6576 1 9.99962 1C8.34162 1 6.99328 2.34544 6.99328 3.99987C6.99328 5.6543 8.34162 6.99974 9.99962 6.99974ZM9.99962 2.49994C10.8286 2.49994 11.5028 3.17266 11.5028 3.99987C11.5028 4.82708 10.8286 5.49981 9.99962 5.49981C9.17062 5.49981 8.49645 4.82708 8.49645 3.99987C8.49645 3.17266 9.17062 2.49994 9.99962 2.49994ZM5.8659 12.9995C7.5239 12.9995 8.87224 11.654 8.87224 9.99961C8.87224 8.34518 7.5239 6.99974 5.8659 6.99974C4.2079 6.99974 2.85955 8.34518 2.85955 9.99961C2.85955 11.654 4.2079 12.9995 5.8659 12.9995ZM5.8659 8.49968C6.6949 8.49968 7.36907 9.1724 7.36907 9.99961C7.36907 10.8268 6.6949 11.4995 5.8659 11.4995C5.0369 11.4995 4.36272 10.8268 4.36272 9.99961C4.36272 9.1724 5.0369 8.49968 5.8659 8.49968ZM18.9969 18.1818C19.0344 18.5942 18.7293 18.9587 18.3159 18.9962C18.2934 18.9977 18.2701 18.9992 18.2475 18.9992C17.8627 18.9992 17.535 18.706 17.4997 18.3168C17.417 17.4025 16.9458 16.5506 16.2062 15.9784C16.1874 15.9634 16.1258 15.9701 16.086 16.0151L14.7023 17.6148C14.5603 17.7798 14.3378 17.9065 14.1334 17.875C13.9169 17.875 13.711 17.782 13.5682 17.62L12.1664 16.0256C12.1281 15.9814 12.0665 15.9731 12.0462 15.9896C11.3051 16.5701 10.8504 17.3965 10.7677 18.3175C10.7354 18.6745 10.4573 18.9325 10.1116 18.9782C10.0898 18.982 10.071 18.9947 10.0485 18.997C10.0252 18.9985 10.0026 19 9.98008 19C9.97257 19 9.96655 18.9962 9.95979 18.9962C9.95678 18.9962 9.95453 18.9977 9.95152 18.997C9.94326 18.997 9.93649 18.991 9.92822 18.9902C9.56671 18.9647 9.26532 18.6887 9.23225 18.3175C9.14883 17.3898 8.68961 16.5596 7.93952 15.9791C7.91773 15.9634 7.85685 15.9709 7.81927 16.0159L6.4356 17.6155C6.2928 17.7813 6.08386 17.8773 5.86665 17.8758C5.65019 17.8758 5.44426 17.7828 5.30146 17.62L3.89975 16.0256C3.86066 15.9821 3.79903 15.9739 3.77949 15.9904C3.03768 16.5708 2.58297 17.3973 2.50029 18.3183C2.46346 18.7307 2.10345 19.0292 1.68407 18.9977C1.2707 18.9602 0.965551 18.5957 1.00313 18.1833C1.12188 16.8656 1.79605 15.6364 2.85203 14.8092C3.51042 14.2947 4.46644 14.3952 5.02938 15.0364L5.86139 15.9829L6.68062 15.0356C7.24055 14.3869 8.19807 14.2804 8.86022 14.7942C9.31718 15.1474 9.69824 15.5794 9.99962 16.0578C10.2973 15.5861 10.6708 15.1601 11.1187 14.8092C11.7756 14.2954 12.7331 14.3944 13.2961 15.0371L14.1281 15.9829L14.9473 15.0356C15.5073 14.3869 16.4655 14.2819 17.1262 14.7934C18.1942 15.6199 18.8751 16.8551 18.9954 18.1825L18.9969 18.1818Z" fill="white"/>
</svg>
