<svg width="20" height="20" viewBox="0 0 20 20" fill="none" xmlns="http://www.w3.org/2000/svg">
<path d="M18.8738 7.66653C18.7203 7.16204 18.4138 6.72196 17.9995 6.41135C17.5851 6.10074 17.085 5.93611 16.5731 5.94179H13.2958L12.3004 2.73715C12.1438 2.23271 11.8362 1.79266 11.4219 1.48045C11.0076 1.16824 10.508 1 9.99518 1C9.48234 1 8.98275 1.16824 8.56845 1.48045C8.15415 1.79266 7.84655 2.23271 7.69001 2.73715L6.69458 5.94179H3.41724C2.90696 5.94254 2.40995 6.10983 1.99722 6.41977C1.58448 6.72972 1.27713 7.16645 1.11907 7.6676C0.960997 8.16875 0.960298 8.70868 1.11707 9.21026C1.27384 9.71185 1.58005 10.1494 1.99198 10.4605L4.65947 12.475L3.64528 15.7192C3.48139 16.2223 3.47931 16.7667 3.63936 17.2712C3.79942 17.7757 4.11303 18.2132 4.53344 18.5186C4.94666 18.8338 5.4474 19.0026 5.96107 19C6.47473 18.9973 6.97382 18.8233 7.38396 18.5039L9.99518 16.5188L12.6072 18.5016C13.0196 18.8149 13.5177 18.9851 14.0297 18.9877C14.5417 18.9903 15.0413 18.8251 15.4567 18.5159C15.8721 18.2067 16.1819 17.7694 16.3415 17.2669C16.5012 16.7643 16.5024 16.2225 16.3451 15.7192L15.3309 12.475L18.0014 10.4605C18.418 10.1533 18.7278 9.71576 18.885 9.21255C19.0421 8.70934 19.0382 8.16725 18.8738 7.66653ZM17.1162 9.20918L14.0077 11.5561C13.88 11.6523 13.785 11.7877 13.7362 11.943C13.6875 12.0983 13.6874 12.2655 13.7361 12.4208L14.9176 16.1941C14.9774 16.3855 14.9768 16.5916 14.9161 16.7826C14.8554 16.9737 14.7376 17.1399 14.5796 17.2575C14.4216 17.375 14.2316 17.4378 14.0369 17.4368C13.8422 17.4357 13.6529 17.371 13.4961 17.2518L10.4393 14.9273C10.3105 14.8296 10.1549 14.777 9.99518 14.777C9.83543 14.777 9.67985 14.8296 9.5511 14.9273L6.4943 17.2518C6.33758 17.3726 6.14769 17.4387 5.95215 17.4405C5.75661 17.4424 5.56559 17.3798 5.40677 17.262C5.24796 17.1441 5.12961 16.9771 5.06889 16.7851C5.00816 16.5931 5.00822 16.3861 5.06904 16.1941L6.25425 12.4208C6.30295 12.2655 6.30292 12.0983 6.25415 11.943C6.20539 11.7877 6.11039 11.6523 5.98271 11.5561L2.87414 9.20918C2.71759 9.09079 2.60127 8.92432 2.54179 8.73356C2.48231 8.5428 2.48271 8.3375 2.54295 8.14699C2.60318 7.95648 2.72016 7.7905 2.87717 7.67277C3.03419 7.55503 3.22321 7.49156 3.41724 7.49142H7.24293C7.40175 7.49141 7.55647 7.43934 7.6848 7.34271C7.81314 7.24608 7.90847 7.10987 7.95706 6.9537L9.11977 3.21056C9.17946 3.01901 9.29644 2.85197 9.45389 2.73347C9.61133 2.61496 9.80112 2.55112 9.99593 2.55112C10.1907 2.55112 10.3805 2.61496 10.538 2.73347C10.6954 2.85197 10.8124 3.01901 10.8721 3.21056L12.0348 6.9537C12.0834 7.10987 12.1787 7.24608 12.3071 7.34271C12.4354 7.43934 12.5901 7.49141 12.7489 7.49142H16.5746C16.7687 7.49156 16.9577 7.55503 17.1147 7.67277C17.2717 7.7905 17.3887 7.95648 17.4489 8.14699C17.5092 8.3375 17.5096 8.5428 17.4501 8.73356C17.3906 8.92432 17.2743 9.09079 17.1177 9.20918H17.1162Z" fill="white"/>
</svg>
