<svg width="20" height="20" viewBox="0 0 20 20" fill="none" xmlns="http://www.w3.org/2000/svg">
<path d="M11.8993 10.498L8.26733 7.65467C7.718 7.22467 6.94933 7.224 6.4 7.65467L2.76733 10.4973C2.28 10.8793 2 11.454 2 12.0727V18H12.6667V12.0727C12.6667 11.4533 12.3867 10.8793 11.8993 10.498ZM11.3333 16.6667H3.33333V12.0727C3.33333 11.866 3.42667 11.6747 3.58933 11.5473L7.22133 8.70533C7.28667 8.65333 7.37867 8.654 7.44533 8.70533L11.0773 11.5487C11.24 11.6753 11.3333 11.8673 11.3333 12.0733V16.6667ZM6 12H8.66667V14.6667H6V12ZM14 10.6667H15.3333V12H14V10.6667ZM14 13.3333H15.3333V14.6667H14V13.3333ZM11.3333 5.33333H12.6667V6.66667H11.3333V5.33333ZM15.3333 6.66667H14V5.33333H15.3333V6.66667ZM11.3333 8H12.6667V9.33333H11.3333V8ZM14 8H15.3333V9.33333H14V8ZM18 4V18H14V16.6667H16.6667V4C16.6667 3.632 16.368 3.33333 16 3.33333H10.6667C10.2987 3.33333 10 3.632 10 4V7.31867L8.66667 6.27533V4C8.66667 3.98867 8.66667 3.97667 8.66733 3.96533C8.686 2.87867 9.57533 2 10.6667 2H16C17.1027 2 18 2.89733 18 4Z" fill="#FFFFFF"/>
</svg>
