<svg width="19" height="18" viewBox="0 0 19 18" fill="none" xmlns="http://www.w3.org/2000/svg">
<path d="M17.5238 16.5H3.80952C3.20331 16.5 2.62193 16.2629 2.19328 15.841C1.76463 15.419 1.52381 14.8467 1.52381 14.25V0.75C1.52381 0.551088 1.44354 0.360322 1.30065 0.21967C1.15777 0.0790176 0.963974 0 0.761905 0C0.559835 0 0.366042 0.0790176 0.223157 0.21967C0.0802719 0.360322 0 0.551088 0 0.75L0 14.25C0.0012098 15.2442 0.402958 16.1973 1.11712 16.9003C1.83128 17.6033 2.79955 17.9988 3.80952 18H17.5238C17.7259 18 17.9197 17.921 18.0626 17.7803C18.2054 17.6397 18.2857 17.4489 18.2857 17.25C18.2857 17.0511 18.2054 16.8603 18.0626 16.7197C17.9197 16.579 17.7259 16.5 17.5238 16.5Z" fill="#E2E5EE"/>
<path d="M4.5744 15C4.77647 15 4.97027 14.921 5.11315 14.7803C5.25604 14.6397 5.33631 14.4489 5.33631 14.25V9C5.33631 8.80109 5.25604 8.61032 5.11315 8.46967C4.97027 8.32902 4.77647 8.25 4.5744 8.25C4.37234 8.25 4.17854 8.32902 4.03566 8.46967C3.89277 8.61032 3.8125 8.80109 3.8125 9V14.25C3.8125 14.4489 3.89277 14.6397 4.03566 14.7803C4.17854 14.921 4.37234 15 4.5744 15Z" fill="#E2E5EE"/>
<path d="M7.61719 7.5V14.25C7.61719 14.4489 7.69746 14.6397 7.84034 14.7803C7.98323 14.921 8.17702 15 8.37909 15C8.58116 15 8.77496 14.921 8.91784 14.7803C9.06072 14.6397 9.141 14.4489 9.141 14.25V7.5C9.141 7.30109 9.06072 7.11032 8.91784 6.96967C8.77496 6.82902 8.58116 6.75 8.37909 6.75C8.17702 6.75 7.98323 6.82902 7.84034 6.96967C7.69746 7.11032 7.61719 7.30109 7.61719 7.5Z" fill="#E2E5EE"/>
<path d="M11.4297 9.75V14.25C11.4297 14.4489 11.51 14.6397 11.6528 14.7803C11.7957 14.921 11.9895 15 12.1916 15C12.3937 15 12.5875 14.921 12.7303 14.7803C12.8732 14.6397 12.9535 14.4489 12.9535 14.25V9.75C12.9535 9.55109 12.8732 9.36032 12.7303 9.21967C12.5875 9.07902 12.3937 9 12.1916 9C11.9895 9 11.7957 9.07902 11.6528 9.21967C11.51 9.36032 11.4297 9.55109 11.4297 9.75Z" fill="#E2E5EE"/>
<path d="M15.2344 6.75V14.25C15.2344 14.4489 15.3146 14.6397 15.4575 14.7803C15.6004 14.921 15.7942 15 15.9963 15C16.1983 15 16.3921 14.921 16.535 14.7803C16.6779 14.6397 16.7582 14.4489 16.7582 14.25V6.75C16.7582 6.55109 16.6779 6.36032 16.535 6.21967C16.3921 6.07902 16.1983 6 15.9963 6C15.7942 6 15.6004 6.07902 15.4575 6.21967C15.3146 6.36032 15.2344 6.55109 15.2344 6.75Z" fill="#E2E5EE"/>
<path d="M4.57424 6.7486C4.7763 6.74855 4.97006 6.66951 5.11291 6.52885L7.8451 3.83935C7.99032 3.70317 8.1832 3.6272 8.38377 3.6272C8.58433 3.6272 8.77721 3.70317 8.92243 3.83935L10.5773 5.46835C11.0059 5.89016 11.5872 6.12712 12.1933 6.12712C12.7994 6.12712 13.3807 5.89016 13.8093 5.46835L18.0653 1.27885C18.2041 1.13739 18.2809 0.947943 18.2791 0.751296C18.2774 0.554648 18.1973 0.366539 18.056 0.227482C17.9147 0.0884264 17.7236 0.00954967 17.5239 0.00784085C17.3241 0.00613204 17.1317 0.0817278 16.988 0.218346L12.732 4.4071C12.5891 4.5477 12.3953 4.62669 12.1933 4.62669C11.9913 4.62669 11.7975 4.5477 11.6546 4.4071L9.99977 2.77885C9.57113 2.35704 8.98986 2.12008 8.38377 2.12008C7.77768 2.12008 7.1964 2.35704 6.76777 2.77885L4.03558 5.46835C3.92905 5.57324 3.85652 5.70686 3.82713 5.85232C3.79775 5.99779 3.81283 6.14856 3.87049 6.28559C3.92814 6.42261 4.02577 6.53973 4.15104 6.62215C4.2763 6.70456 4.42358 6.74856 4.57424 6.7486Z" fill="#E2E5EE"/>
</svg>
