<svg width="18" height="18" viewBox="0 0 18 18" fill="none" xmlns="http://www.w3.org/2000/svg">
<path d="M15 3H11.25C11.25 2.20435 10.9339 1.44129 10.3713 0.87868C9.80871 0.316071 9.04565 0 8.25 0L3 0C2.20435 0 1.44129 0.316071 0.87868 0.87868C0.316071 1.44129 0 2.20435 0 3L0 17.25C0 17.4489 0.0790176 17.6397 0.21967 17.7803C0.360322 17.921 0.551088 18 0.75 18C0.948912 18 1.13968 17.921 1.28033 17.7803C1.42098 17.6397 1.5 17.4489 1.5 17.25V9.75H7.5C7.5 10.5456 7.81607 11.3087 8.37868 11.8713C8.94129 12.4339 9.70435 12.75 10.5 12.75H15C15.7956 12.75 16.5587 12.4339 17.1213 11.8713C17.6839 11.3087 18 10.5456 18 9.75V6C18 5.20435 17.6839 4.44129 17.1213 3.87868C16.5587 3.31607 15.7956 3 15 3ZM1.5 8.25V3C1.5 2.60218 1.65804 2.22064 1.93934 1.93934C2.22064 1.65804 2.60218 1.5 3 1.5H8.25C8.64782 1.5 9.02936 1.65804 9.31066 1.93934C9.59196 2.22064 9.75 2.60218 9.75 3V6.75C9.75 7.14782 9.59196 7.52936 9.31066 7.81066C9.02936 8.09196 8.64782 8.25 8.25 8.25H1.5ZM16.5 9.75C16.5 10.1478 16.342 10.5294 16.0607 10.8107C15.7794 11.092 15.3978 11.25 15 11.25H10.5C10.1022 11.25 9.72064 11.092 9.43934 10.8107C9.15804 10.5294 9 10.1478 9 9.75V9.6435C9.64211 9.47771 10.2112 9.10384 10.6183 8.58032C11.0254 8.05681 11.2475 7.41316 11.25 6.75V4.5H15C15.3978 4.5 15.7794 4.65804 16.0607 4.93934C16.342 5.22064 16.5 5.60218 16.5 6V9.75Z" fill="white"/>
</svg>
