<svg width="23" height="20" viewBox="0 0 23 20" fill="none" xmlns="http://www.w3.org/2000/svg">
<path d="M22.4771 9.49618C22.1076 6.74875 20.6688 4.24032 18.4532 2.48073C16.2376 0.721148 13.4114 -0.157547 10.5491 0.0232515C7.68683 0.20405 5.00322 1.43077 3.04374 3.45408C1.08427 5.47739 -0.0040254 8.14544 6.96449e-05 10.916C-0.00535155 12.3989 0.305774 13.8669 0.914024 15.2285C1.52227 16.5901 2.41459 17.816 3.53526 18.8296C4.39234 19.5961 5.52166 20.0149 6.68957 19.9996H15.8751C17.1089 20.0024 18.2943 19.5361 19.1751 18.7015C20.4304 17.522 21.3827 16.0753 21.956 14.477C22.5293 12.8786 22.7078 11.173 22.4771 9.49618ZM17.8604 17.3989C17.3312 17.9025 16.6179 18.1842 15.8751 18.1829H6.68957C6.00235 18.1965 5.33577 17.9557 4.82652 17.5098C3.8929 16.6651 3.14951 15.6437 2.64272 14.5092C2.13594 13.3747 1.87664 12.1515 1.88099 10.916C1.88192 9.63719 2.16198 8.37299 2.7029 7.20583C3.24382 6.03867 4.03344 4.99478 5.02025 4.14228C6.73485 2.64884 8.96364 1.82538 11.2724 1.83231C11.6413 1.83246 12.0099 1.85247 12.3765 1.89226C14.1405 2.09013 15.8103 2.76662 17.1926 3.84336C18.5749 4.9201 19.6131 6.35303 20.1869 7.9762C20.7608 9.59937 20.8468 11.3463 20.435 13.0148C20.0233 14.6832 19.1306 16.2049 17.8604 17.4035V17.3989ZM7.34225 14.8083C7.52059 14.9769 7.62227 15.2071 7.62491 15.4481C7.62756 15.6892 7.53095 15.9214 7.35636 16.0936C7.18176 16.2659 6.94347 16.3641 6.6939 16.3666C6.44434 16.3692 6.20394 16.2759 6.0256 16.1073C4.95814 15.0973 4.22622 13.8032 3.92312 12.39C3.62002 10.9767 3.75948 9.5083 4.32373 8.17189C4.88798 6.83548 5.85145 5.69162 7.09133 4.88612C8.33121 4.08062 9.79135 3.64996 11.2856 3.64904C11.6453 3.64894 12.0045 3.67352 12.3606 3.72261C12.4828 3.73964 12.6004 3.77977 12.7067 3.84072C12.8129 3.90166 12.9056 3.98222 12.9796 4.0778C13.0536 4.17337 13.1073 4.28209 13.1378 4.39773C13.1682 4.51338 13.1748 4.63369 13.1571 4.75179C13.1409 4.87054 13.1003 4.98496 13.0377 5.08833C12.975 5.19169 12.8916 5.28191 12.7923 5.35368C12.693 5.42545 12.5799 5.47732 12.4596 5.50624C12.3392 5.53516 12.2141 5.54055 12.0916 5.52208C10.9146 5.3597 9.71455 5.56056 8.66275 6.09599C7.61094 6.63142 6.76111 7.47406 6.23454 8.50366C5.70796 9.53326 5.53154 10.6972 5.73047 11.8294C5.92939 12.9616 6.49348 14.0041 7.34225 14.8083ZM18.7331 9.87769C18.7839 10.2216 18.8094 10.5686 18.8093 10.916C18.8123 11.884 18.6134 12.8427 18.2243 13.7347C17.8352 14.6268 17.2639 15.4341 16.5447 16.1082C16.3661 16.2768 16.1254 16.37 15.8757 16.3673C15.626 16.3646 15.3876 16.2661 15.213 16.0936C15.0384 15.9211 14.9419 15.6887 14.9447 15.4475C14.9475 15.2063 15.0494 14.976 15.228 14.8074C15.8634 14.2092 16.3433 13.4742 16.6284 12.6626C16.9134 11.8509 16.9956 10.9857 16.8682 10.1375C16.8325 9.89886 16.8964 9.65632 17.0459 9.46323C17.1954 9.27013 17.4182 9.1423 17.6652 9.10785C17.9123 9.0734 18.1634 9.13515 18.3633 9.27953C18.5632 9.4239 18.6956 9.63907 18.7312 9.87769H18.7331ZM13.0969 10.4509C13.2101 10.844 13.1853 11.2622 13.0264 11.6402C12.8675 12.0183 12.5835 12.3349 12.2186 12.5406C11.8538 12.7462 11.4287 12.8294 11.0098 12.7771C10.5908 12.7248 10.2016 12.54 9.90291 12.2515C9.60421 11.9629 9.41284 11.587 9.35869 11.1824C9.30454 10.7777 9.39066 10.3671 9.6036 10.0147C9.81653 9.66236 10.1443 9.38801 10.5357 9.23454C10.9271 9.08107 11.3601 9.05713 11.7671 9.16644L15.323 5.73192C15.4098 5.64516 15.5135 5.57596 15.6283 5.52835C15.743 5.48074 15.8664 5.45568 15.9913 5.45464C16.1162 5.45359 16.24 5.47657 16.3556 5.52224C16.4712 5.56792 16.5762 5.63537 16.6645 5.72066C16.7528 5.80594 16.8226 5.90737 16.8699 6.019C16.9172 6.13063 16.941 6.25025 16.9399 6.37086C16.9388 6.49147 16.9129 6.61067 16.8636 6.72149C16.8143 6.83232 16.7426 6.93255 16.6528 7.01634L13.0969 10.4509Z" fill="#E2E5EE"/>
</svg>
