<svg width="20" height="12" viewBox="0 0 20 12" fill="none" xmlns="http://www.w3.org/2000/svg">
<path d="M8.127 9.12339C7.438 10.2059 7.902 11.095 8.859 11.5942C9.815 12.0943 10.9 12.0147 11.591 10.9322C12.28 9.85142 16.638 0.201575 16.259 0.00351392C15.88 -0.194548 8.817 8.04174 8.127 9.12339ZM10 2.25002C10.438 2.25002 10.864 2.28348 11.281 2.3486C11.719 1.85209 12.209 1.30493 12.686 0.785812C11.813 0.557306 10.9088 0.441306 10 0.441239C4.393 0.441239 0 4.7181 0 10.1779C0 10.5134 0.016 10.849 0.049 11.1755C0.098 11.6738 0.589 12.0391 1.133 11.9966C1.684 11.9505 2.09 11.5128 2.041 11.0145C2.01369 10.7363 2.00001 10.4572 2 10.1779C2 5.73192 5.514 2.25002 10 2.25002ZM17.219 3.38051C16.94 4.0588 16.645 4.74976 16.385 5.34665C17.4 6.67611 18 8.3438 18 10.1779C18 10.4637 17.985 10.7522 17.957 11.0307C17.9441 11.2641 18.0315 11.4929 18.2008 11.6693C18.3702 11.8458 18.6084 11.9562 18.8657 11.9774C19.1229 11.9987 19.3793 11.9292 19.5812 11.7834C19.7831 11.6376 19.9149 11.4269 19.949 11.1953C19.982 10.8607 20 10.5189 20 10.1779C20 7.50634 18.947 5.12236 17.219 3.38051Z" fill="#E2E5EE"/>
</svg>
