<svg width="20" height="20" viewBox="0 0 20 20" fill="none" xmlns="http://www.w3.org/2000/svg">
<path d="M10 9.99967C12.2059 9.99967 13.9998 8.20574 13.9998 5.99983C13.9998 3.79393 12.2059 2 10 2C7.79409 2 6.00017 3.79393 6.00017 5.99983C6.00017 8.20574 7.79409 9.99967 10 9.99967ZM10 3.33328C11.4706 3.33328 12.6666 4.52923 12.6666 5.99983C12.6666 7.47044 11.4706 8.66639 10 8.66639C8.5294 8.66639 7.33345 7.47044 7.33345 5.99983C7.33345 4.52923 8.5294 3.33328 10 3.33328ZM15.9998 17.3327C15.9998 17.7007 15.7018 17.9993 15.3331 17.9993C14.9645 17.9993 14.6665 17.7007 14.6665 17.3327C14.6665 15.3201 13.3832 13.6062 11.5939 12.9529L10.5826 14.4701L11.3113 17.13C11.4333 17.574 11.0413 18 10.5106 18H9.48936C8.95871 18 8.56739 17.574 8.68872 17.13L9.41736 14.4701L8.40607 12.9529C6.61681 13.6062 5.33353 15.3201 5.33353 17.3334C5.33353 17.7013 5.03488 18 4.66689 18C4.29891 18 4.00025 17.7013 4.00025 17.3334C4.00025 14.0255 6.69214 11.3336 10 11.3336C13.3079 11.3336 15.9998 14.0248 15.9998 17.3327Z" fill="#FFFFFF"/>
</svg>
