<svg width="20" height="20" viewBox="0 0 20 20" fill="none" xmlns="http://www.w3.org/2000/svg">
<path d="M11.0018 9.99965C11.0018 11.4703 12.2003 12.6662 13.6741 12.6662C15.1479 12.6662 16.3464 11.4703 16.3464 9.99965C16.3464 8.52905 15.1479 7.3331 13.6741 7.3331C12.2003 7.3331 11.0018 8.52905 11.0018 9.99965ZM13.6741 8.66638C14.411 8.66638 15.0102 9.26435 15.0102 9.99965C15.0102 10.735 14.411 11.3329 13.6741 11.3329C12.9372 11.3329 12.3379 10.735 12.3379 9.99965C12.3379 9.26435 12.9372 8.66638 13.6741 8.66638ZM9.99967 7.3331C11.4734 7.3331 12.672 6.13715 12.672 4.66655C12.672 3.19595 11.4734 2 9.99967 2C8.52589 2 7.32736 3.19595 7.32736 4.66655C7.32736 6.13715 8.52589 7.3331 9.99967 7.3331ZM9.99967 3.33328C10.7366 3.33328 11.3358 3.93125 11.3358 4.66655C11.3358 5.40185 10.7366 5.99983 9.99967 5.99983C9.26278 5.99983 8.66351 5.40185 8.66351 4.66655C8.66351 3.93125 9.26278 3.33328 9.99967 3.33328ZM6.32524 12.6662C7.79902 12.6662 8.99755 11.4703 8.99755 9.99965C8.99755 8.52905 7.79902 7.3331 6.32524 7.3331C4.85146 7.3331 3.65293 8.52905 3.65293 9.99965C3.65293 11.4703 4.85146 12.6662 6.32524 12.6662ZM6.32524 8.66638C7.06213 8.66638 7.6614 9.26435 7.6614 9.99965C7.6614 10.735 7.06213 11.3329 6.32524 11.3329C5.58835 11.3329 4.98909 10.735 4.98909 9.99965C4.98909 9.26435 5.58835 8.66638 6.32524 8.66638ZM17.9972 17.2727C18.0306 17.6393 17.7594 17.9633 17.3919 17.9966C17.3719 17.998 17.3512 17.9993 17.3311 17.9993C16.9891 17.9993 16.6978 17.7387 16.6664 17.3927C16.5929 16.58 16.174 15.8227 15.5166 15.3141C15.4999 15.3008 15.4452 15.3068 15.4098 15.3468L14.1798 16.7687C14.0536 16.9154 13.8558 17.028 13.6741 17C13.4817 17 13.2986 16.9174 13.1717 16.7734L11.9257 15.3561C11.8917 15.3168 11.8369 15.3094 11.8188 15.3241C11.1601 15.8401 10.7559 16.5747 10.6824 17.3933C10.6537 17.7107 10.4065 17.94 10.0992 17.9806C10.0798 17.984 10.0631 17.9953 10.0431 17.9973C10.0224 17.9986 10.0023 18 9.9823 18C9.97562 18 9.97027 17.9966 9.96426 17.9966C9.96159 17.9966 9.95958 17.998 9.95691 17.9973C9.94956 17.9973 9.94355 17.992 9.9362 17.9913C9.61485 17.9686 9.34695 17.7233 9.31756 17.3933C9.2434 16.5687 8.83521 15.8307 8.16847 15.3148C8.14909 15.3008 8.09498 15.3074 8.06157 15.3474L6.83164 16.7694C6.70471 16.9167 6.51898 17.002 6.32591 17.0007C6.1335 17.0007 5.95045 16.918 5.82352 16.7734L4.57755 15.3561C4.54281 15.3174 4.48803 15.3101 4.47066 15.3248C3.81127 15.8407 3.40708 16.5754 3.33359 17.394C3.30086 17.7607 2.98085 18.026 2.60806 17.998C2.24062 17.9646 1.96938 17.6407 2.00278 17.274C2.10834 16.1027 2.7076 15.0101 3.64625 14.2748C4.23149 13.8175 5.08128 13.9068 5.58167 14.4768L6.32123 15.3181L7.04944 14.4761C7.54715 13.8995 8.39829 13.8048 8.98686 14.2615C9.39305 14.5755 9.73177 14.9594 9.99967 15.3848C10.2642 14.9654 10.5963 14.5868 10.9944 14.2748C11.5783 13.8182 12.4295 13.9062 12.9299 14.4775L13.6694 15.3181L14.3976 14.4761C14.8953 13.8995 15.7471 13.8062 16.3344 14.2608C17.2837 14.9954 17.889 16.0934 17.9959 17.2733L17.9972 17.2727Z" fill="#FFFFFF"/>
</svg>
